<svg xmlns="http://www.w3.org/2000/svg" viewBox="0 0 950 35" fill="none"><g transform="translate(-2747.9505,-102.0324) scale(6.7852)"><path d="M 437.1691 2.8603 C 471.8311 2.8603 506.4931 2.8603 542.2055 2.8603 C 542.2055 12.8476 542.2055 22.835 542.2055 33.125 C 507.5435 33.125 472.8815 33.125 437.1691 33.125 C 437.1691 23.1376 437.1691 13.1503 437.1691 2.8603 Z" fill-rule="evenodd" clip-rule="evenodd" fill="#FEFEFE" stroke="none"/>
  <path d="M 437.1691 2.8603 C 437.1691 3.4477 437.1691 4.0352 437.1691 4.6405 C 438.0503 4.6405 438.9315 4.6405 439.8395 4.6405 C 439.5457 6.403 439.252 8.1655 438.9493 9.9814 C 428.6682 9.9814 418.3871 9.9814 407.7945 9.9814 C 408.8488 7.8727 409.2356 7.8187 411.3724 7.0536 C 411.9157 6.8586 412.459 6.6635 413.0188 6.4625 C 413.5897 6.2652 414.1605 6.0678 414.7487 5.8645 C 415.3092 5.6602 415.8697 5.456 416.4472 5.2456 C 419.2716 4.2498 421.6667 3.4594 424.7071 3.7504 C 424.7071 3.4567 424.7071 3.1629 424.7071 2.8603 C 429.086 1.875 432.7552 2.1321 437.1691 2.8603 Z" fill-rule="evenodd" clip-rule="evenodd" fill="#5D5D5D" stroke="none"/>
  <path d="M 437.1691 2.8603 C 444.1587 3.0968 449.5845 3.9679 455.862 7.311 C 456.9184 7.8315 457.9754 8.3509 459.0331 8.8687 C 459.7491 9.2359 460.4651 9.6031 461.2028 9.9814 C 461.2028 10.2751 461.2028 10.5689 461.2028 10.8715 C 453.2717 10.8715 445.3406 10.8715 437.1691 10.8715 C 437.1691 8.2278 437.1691 5.5841 437.1691 2.8603 Z" fill-rule="evenodd" clip-rule="evenodd" fill="#383838" stroke="none"/>
  <path d="M 437.1691 2.8603 C 437.507 2.8924 437.507 2.8924 439.2171 3.055 C 440.1107 3.1385 441.0043 3.2219 441.8979 3.3053 C 442.1203 3.3266 442.1203 3.3266 443.2453 3.434 C 445.3901 3.6328 447.474 3.7504 449.631 3.7504 C 451.0273 4.0205 452.4182 4.3193 453.8036 4.6405 C 454.1633 4.7232 454.1633 4.7232 455.9837 5.1412 C 456.531 5.2698 457.0784 5.3983 457.6423 5.5307 C 457.6423 5.8244 457.6423 6.1182 457.6423 6.4208 C 450.8861 6.4208 444.13 6.4208 437.1691 6.4208 C 437.1691 5.2458 437.1691 4.0708 437.1691 2.8603 Z" fill-rule="evenodd" clip-rule="evenodd" fill="#929292" stroke="none"/>
  <path d="M 437.1691 2.8603 C 436.7468 3.0806 436.3246 3.3009 435.8895 3.5279 C 434.4987 4.6405 434.4987 4.6405 433.6085 8.2011 C 429.4961 8.2011 425.3836 8.2011 421.1466 8.2011 C 422.5666 5.361 425.2702 5.0396 428.1564 4.0286 C 428.7244 3.8169 429.2924 3.6052 429.8776 3.387 C 430.1524 3.2892 430.1524 3.2892 431.5431 2.7942 C 432.0455 2.6144 432.548 2.4346 433.0656 2.2494 C 434.7352 1.924 435.626 2.1942 437.1691 2.8603 Z" fill-rule="evenodd" clip-rule="evenodd" fill="#434343" stroke="none"/>
  <path d="M 437.1691 2.8603 C 437.4674 2.8617 437.4674 2.8617 438.9772 2.8689 C 439.2881 2.8727 439.2881 2.8727 440.8618 2.8916 C 441.1762 2.8936 441.1762 2.8936 442.7672 2.9037 C 444.3204 2.9142 445.8734 2.9289 447.4265 2.9472 C 447.1328 4.1222 446.839 5.2972 446.5364 6.5077 C 442.1302 6.5077 437.724 6.5077 433.1843 6.5077 C 432.8906 5.6265 432.5968 4.7453 432.2942 3.8373 C 434.1998 2.8845 435.0793 2.8425 437.1691 2.8603 Z" fill-rule="evenodd" clip-rule="evenodd" fill="#959595" stroke="none"/>
  <path d="M 437.1691 2.8603 C 438.8576 2.9626 440.5444 3.0754 442.2317 3.1941 C 442.4678 3.2078 442.4678 3.2078 443.6626 3.2775 C 446.8753 3.514 449.3685 4.1921 452.3014 5.5307 C 452.3014 6.1182 452.3014 6.7057 452.3014 7.311 C 450.4467 7.0349 448.5923 6.7564 446.7381 6.4764 C 446.216 6.399 445.6939 6.3215 445.156 6.2417 C 442.4508 5.8314 439.812 5.3667 437.1691 4.6405 C 437.1691 4.053 437.1691 3.4656 437.1691 2.8603 Z" fill-rule="evenodd" clip-rule="evenodd" fill="#7E7E7E" stroke="none"/>
  <path d="M 437.1691 2.8603 C 437.1691 3.154 437.1691 3.4477 437.1691 3.7504 C 434.8191 4.0441 432.4691 4.3379 430.048 4.6405 C 430.9292 5.228 431.8104 5.8155 432.7184 6.4208 C 430.3684 6.7146 428.0184 7.0083 425.5973 7.311 C 425.5973 5.8422 425.5973 4.3735 425.5973 2.8603 C 429.724 1.9544 433.0286 2.064 437.1691 2.8603 Z" fill-rule="evenodd" clip-rule="evenodd" fill="#191919" stroke="none"/>
  <path d="M 437.1691 2.8603 C 439.519 3.154 441.869 3.4477 444.2902 3.7504 C 444.5839 4.6316 444.8777 5.5129 445.1803 6.4208 C 442.5366 6.1271 439.8929 5.8333 437.1691 5.5307 C 437.1691 4.6494 437.1691 3.7682 437.1691 2.8603 Z" fill-rule="evenodd" clip-rule="evenodd" fill="#444444" stroke="none"/>
  <path d="M 437.1691 2.8603 C 437.1691 3.154 437.1691 3.4477 437.1691 3.7504 C 428.7928 4.9366 428.7928 4.9366 424.7071 3.7504 C 424.7071 3.4567 424.7071 3.1629 424.7071 2.8603 C 429.086 1.875 432.7552 2.1321 437.1691 2.8603 Z" fill-rule="evenodd" clip-rule="evenodd" fill="#313131" stroke="none"/>
  <path d="M 437.1691 2.8603 C 437.1691 3.7415 437.1691 4.6227 437.1691 5.5307 C 434.8191 5.5307 432.4691 5.5307 430.048 5.5307 C 432.5005 3.4285 433.9056 2.5106 437.1691 2.8603 Z" fill-rule="evenodd" clip-rule="evenodd" fill="#F6F6F6" stroke="none"/>
  <path d="M 437.1691 2.8603 C 438.4909 3.154 438.4909 3.154 445.1803 4.6405 C 445.1803 4.9343 445.1803 5.228 445.1803 5.5307 C 442.5366 5.5307 439.8929 5.5307 437.1691 5.5307 C 437.1691 4.6494 437.1691 3.7682 437.1691 2.8603 Z" fill-rule="evenodd" clip-rule="evenodd" fill="#F0F0F0" stroke="none"/>
  <path d="M 437.1691 2.8603 C 435.3888 4.6405 435.3888 4.6405 434.0466 4.8144 C 432.7137 4.7564 431.3808 4.6985 430.048 4.6405 C 430.9381 2.8603 430.9381 2.8603 432.6071 2.2483 C 434.5195 1.967 435.4345 2.0797 437.1691 2.8603 Z" fill-rule="evenodd" clip-rule="evenodd" fill="#4A4A4A" stroke="none"/>
  <path d="M 437.1691 2.8603 C 438.0503 3.0071 438.0503 3.0071 442.5099 3.7504 C 442.2162 4.6316 441.9224 5.5129 441.6198 6.4208 C 440.1199 5.5584 438.6362 4.6674 437.1691 3.7504 C 437.1691 3.4567 437.1691 3.1629 437.1691 2.8603 Z" fill-rule="evenodd" clip-rule="evenodd" fill="#0C0C0C" stroke="none"/></g></svg>