<svg xmlns="http://www.w3.org/2000/svg" viewBox="0 0 950 35" fill="none"><g transform="translate(-390.723,-14.9299) scale(1.8211)"><path d="M631.5278 2.9155 C626.0926 5.5115 614.6412 7.593 605.395 7.6655 C600.6852 7.7024 599.2098 7.5894 598.1395 7.1099 C596.858 6.5358 596.8698 6.4749 598.394 5.791 C599.3996 5.3397 601.517 4.9822 604.1055 4.8266 L608.219 4.5792 L605.0936 4.1348 C603.1892 3.864 599.4478 3.7386 595.5159 3.8138 C590.0386 3.9184 588.257 4.1149 583.7282 5.1137 C578.6105 6.2423 571.5141 9.0222 569.5528 10.6666 C568.7736 11.3199 568.9868 11.3035 572.1737 10.4655 C574.4931 9.8556 576.4788 9.5893 578.1651 9.662 C580.3739 9.7572 580.7163 9.9053 580.9215 10.8538 C581.1153 11.7496 580.6914 12.0958 578.4705 12.8559 C572.7386 14.8176 576.6061 14.7466 475.5485 14.7466 C375.2223 14.7466 377.831 14.7912 372.7176 12.9864 C370.0246 12.0359 368.8725 10.7196 370.1359 10.0366 C371.4164 9.3443 376.1179 9.6534 379.1783 10.6313 C380.4841 11.0485 381.6867 11.3296 381.8508 11.256 C382.5052 10.9624 376.2212 7.8055 372.4542 6.5355 C366.6137 4.5663 361.2183 3.76 354.0952 3.7919 C350.8511 3.8064 346.8203 4.0085 345.1378 4.2411 L342.0787 4.6639 L346.6041 4.8821 C349.6701 5.03 351.6352 5.3274 352.6979 5.8042 C354.1937 6.4754 354.2042 6.536 352.9238 7.1099 C351.8727 7.5811 350.3709 7.7044 346.0087 7.6778 C336.9212 7.6224 327.4362 6.0051 319.5645 3.1689 L316.9343 2.2213 L318.7814 3.7053 C323.2288 7.2785 332.4327 9.8447 344.7901 10.957 C352.5053 11.6515 355.7193 12.4601 356.078 13.797 C356.3774 14.9127 353.1224 16.1193 349.8145 16.1189 C346.034 16.1185 338.9581 14.3836 329.46 11.1285 C318.7658 7.4633 313.9985 6.4114 307.2817 6.2348 C303.2411 6.1286 301.3087 6.2781 296.9573 7.0336 C294.0129 7.5448 289.539 8.0698 287.0152 8.2002 L282.4266 8.4373 L285.7275 8.866 C288.0167 9.1633 291.7671 9.2285 297.9638 9.0785 C306.5518 8.8707 306.981 8.8932 309.001 9.6597 C311.8106 10.7257 312.4537 12.2883 310.523 13.3582 C308.3675 14.5526 305.2763 14.3988 297.3133 12.7008 C290.9553 11.345 289.7138 11.2047 281.8253 10.9501 C271.5093 10.6173 267.2024 9.9954 262.585 8.1716 C258.6025 6.5987 258.1175 6.828 261.2816 8.7879 C265.9684 11.691 270.2163 12.79 279.1109 13.4005 C282.1964 13.6123 285.3232 14.0257 286.0593 14.3193 C287.8785 15.0447 287.7964 16.6856 285.9184 17.1366 C283.4201 17.7365 281.4053 17.5491 273.2727 15.9601 C264.1602 14.1797 260.3973 13.737 254.2776 13.7255 C248.3907 13.7144 243.9452 14.2258 236.4537 15.7761 C230.7827 16.9497 222.2487 19.2909 225.8336 18.6896 C232.4733 17.576 240.6566 16.7364 246.5078 16.5686 C255.236 16.3182 259.9228 16.8869 269.6402 19.3753 C278.0149 21.5199 284.1622 22.2068 289.848 21.6335 C291.8266 21.434 297.06 20.4962 301.4776 19.5496 C315.8669 16.4662 324.6116 16.0155 328.841 18.1395 C332.3152 19.8842 331.3296 21.9806 326.6201 22.8635 C323.5184 23.445 321.1462 23.3821 311.883 22.4724 C307.1422 22.0068 305.3045 21.9771 301.1762 22.2991 C294.711 22.8033 287.7017 24.3209 283.0654 26.2202 L279.3675 27.7351 L283.9562 26.7416 C290.0347 25.4255 298.8041 24.5585 303.5079 24.8085 C305.5426 24.9166 309.8911 25.4927 313.1715 26.0887 C319.8556 27.3031 327.1256 27.7308 331.0701 27.1417 C332.498 26.9285 336.2474 25.8261 339.402 24.692 C347.4543 21.7972 352.9609 21.1967 353.8046 23.1214 C354.2212 24.0716 352.4073 24.7198 345.0345 26.2552 C337.3961 27.846 332.8629 29.5842 330.166 31.9562 L328.5141 33.4091 L332.2373 32.0157 C337.1647 30.1718 343.2655 28.8223 347.7523 28.5838 C355.6789 28.1626 357.1744 30.3523 349.7264 31.4742 L347.4321 31.8199 L349.5325 32.0707 C354.5808 32.6734 366.9515 30.8345 373.2944 28.5385 C376.0008 27.5589 381.628 24.6572 381.1967 24.4636 C381.0924 24.4168 379.3032 24.7657 377.2207 25.2389 C368.1606 27.2978 365.0546 24.3638 374.0191 22.2147 L377.2582 21.4382 L475.1488 21.4382 L573.0395 21.4382 L576.7118 22.2495 C580.9097 23.1769 582.959 24.3352 582.2286 25.3677 C581.5345 26.349 578.13 26.2834 573.3501 25.1966 L569.5053 24.3224 L570.4281 25.0961 C572.077 26.4785 578.4082 28.9758 583.1225 30.1033 C588.8007 31.4613 597.2177 32.3852 600.9255 32.0576 L603.6303 31.8185 L601.1695 31.4326 C597.5357 30.8627 595.7993 29.9787 596.8597 29.2386 C597.5177 28.7794 598.7341 28.651 602.218 28.6732 C607.3632 28.7059 612.6799 29.736 618.2229 31.774 C622.2342 33.2489 622.5178 32.9428 619.1169 30.8087 C615.6559 28.6369 612.6968 27.612 605.7815 26.1902 C602.4952 25.5145 599.2042 24.7241 598.4681 24.4336 C596.6251 23.7063 596.7431 22.3974 598.6765 22.122 C601.4488 21.7272 604.3272 22.2811 610.5309 24.4031 C613.8862 25.5508 617.7389 26.7044 619.0924 26.9666 C623.3148 27.7847 628.3084 27.5454 637.7088 26.0744 C642.5206 25.3215 647.7662 24.7038 649.3656 24.7018 C653.7755 24.6963 661.9947 25.638 666.9345 26.7149 C671.2755 27.6612 671.3217 27.6636 669.6338 26.8574 C666.9952 25.5971 660.6811 23.8417 656.0171 23.0718 C649.0229 21.9171 644.8373 21.8146 637.3348 22.6141 C629.3834 23.4615 626.8572 23.4977 623.8815 22.8072 C618.6273 21.5881 618.8693 18.4952 624.3095 17.3368 C629.5729 16.2161 636.6959 16.8757 650.7792 19.788 C658.9542 21.4785 660.8232 21.7378 664.8058 21.734 C670.6459 21.7283 673.9439 21.2405 682.0194 19.1882 C695.633 15.7283 704.1357 15.6312 725.2289 18.6948 C727.7513 19.0612 721.0324 17.2086 715.2626 15.9468 C702.925 13.2487 693.3324 13.053 681.5392 15.2587 C670.2159 17.3766 667.8241 17.6706 665.6067 17.2173 C664.1848 16.9265 663.6648 16.5568 663.6648 15.8366 C663.6648 14.4175 665.6563 13.8068 671.6947 13.3739 C680.6674 12.7308 685.1726 11.5847 689.7708 8.7756 C692.8575 6.8898 692.4921 6.5966 688.8152 8.0088 C683.3914 10.092 679.7482 10.6519 669.8038 10.9307 C661.4287 11.1656 660.4509 11.2717 654.0087 12.6454 C645.8578 14.3835 641.8959 14.4861 640.0546 13.007 C638.574 11.8176 639.4232 10.5028 642.2566 9.5975 C644.8581 8.7663 646.9577 8.6827 655.6347 9.0651 C659.9975 9.2574 662.7403 9.206 665.1944 8.886 L668.6358 8.4373 L664.0472 8.2002 C661.5235 8.0698 657.1277 7.5591 654.2789 7.0653 C646.61 5.7362 640.9507 5.8175 634.1327 7.3547 C631.237 8.0075 626.006 9.5602 622.5082 10.805 C613.9717 13.8428 608.6265 15.3407 604.5964 15.8244 C599.229 16.4685 594.8355 15.6131 594.8355 13.924 C594.8355 12.5325 597.7801 11.7458 605.9274 10.9605 C618.729 9.7267 626.4738 7.6544 631.5508 4.1042 C634.3125 2.1731 634.3012 1.5909 631.5278 2.9155 Z" fill-rule="evenodd" clip-rule="evenodd" fill="white" stroke="none"/></g></svg>