<svg xmlns="http://www.w3.org/2000/svg" viewBox="0 0 950 35" fill="none"><g transform="translate(-3023.7853,-114.8267) scale(7.3659)"><path d="M 441.9521 5.7651 C 473.2873 5.7651 504.6225 5.7651 536.9072 5.7651 C 536.9072 14.7939 536.9072 23.8226 536.9072 33.125 C 505.572 33.125 474.2369 33.125 441.9521 33.125 C 441.9521 24.0962 441.9521 15.0675 441.9521 5.7651 Z" fill-rule="evenodd" clip-rule="evenodd" fill="#F2F2F2" stroke="none"/>
  <path d="M 441.9521 5.7651 C 442.3087 5.7664 442.3087 5.7664 444.1132 5.7729 C 444.4802 5.7763 444.4802 5.7763 446.3372 5.7934 C 447.0866 5.797 447.8361 5.8006 448.6082 5.8044 C 450.4498 5.8138 452.2912 5.827 454.1327 5.8437 C 454.9374 9.8672 454.9374 9.8672 452.5233 17.9142 C 440.0424 17.9142 427.5614 17.9142 414.7022 17.9142 C 414.1711 16.852 413.64 15.7898 413.0928 14.6954 C 413.682 14.8759 414.2712 15.0564 414.8783 15.2423 C 417.7269 15.5704 418.4961 14.8992 420.7375 13.1866 C 423.3072 11.2413 425.1716 10.3081 428.3822 9.8672 C 428.6478 10.3983 428.9133 10.9294 429.1869 11.4766 C 429.1869 10.6799 429.1869 9.8833 429.1869 9.0625 C 429.9043 8.6705 430.6261 8.2866 431.3495 7.9057 C 431.751 7.691 432.1524 7.4763 432.566 7.255 C 435.6118 5.9799 438.681 5.744 441.9521 5.7651 Z" fill-rule="evenodd" clip-rule="evenodd" fill="#3C3C3C" stroke="none"/>
  <path d="M 441.9521 5.7651 C 453.3572 5.5294 461.5471 6.3569 471.7733 11.596 C 471.9821 11.7026 471.9821 11.7026 473.0383 12.2418 C 474.3239 13.135 474.9628 14.081 475.7497 15.4215 C 474.953 15.9526 474.1564 16.4837 473.3356 17.0309 C 473.8667 17.2965 474.3978 17.562 474.945 17.8356 C 464.0574 17.8356 453.1697 17.8356 441.9521 17.8356 C 441.9521 13.8523 441.9521 9.8691 441.9521 5.7651 Z" fill-rule="evenodd" clip-rule="evenodd" fill="#2E2E2E" stroke="none"/>
  <path d="M 441.9521 5.7651 C 440.8899 6.8273 439.8277 7.8895 438.7333 8.9839 C 438.7333 8.4528 438.7333 7.9217 438.7333 7.3745 C 438.2022 7.3745 437.6711 7.3745 437.1239 7.3745 C 437.1239 7.9056 437.1239 8.4367 437.1239 8.9839 C 436.5928 9.515 436.0617 10.0461 435.5145 10.5933 C 436.0456 11.1244 436.5767 11.6555 437.1239 12.2027 C 437.1239 11.6716 437.1239 11.1405 437.1239 10.5933 C 437.6384 10.4937 438.1529 10.3941 438.683 10.2915 C 439.2307 10.1256 439.7784 9.9596 440.3427 9.7886 C 440.6083 9.2575 440.8738 8.7264 441.1474 8.1792 C 442.2097 8.4447 443.2719 8.7103 444.3663 8.9839 C 443.9679 9.3324 443.5696 9.681 443.1592 10.0401 C 441.9521 11.398 441.9521 11.398 441.9521 13.8121 C 436.3755 13.8121 430.799 13.8121 425.0534 13.8121 C 423.6983 10.4243 423.2504 9.1533 423.444 5.7651 C 424.6389 5.6323 424.6389 5.6323 430.6863 4.9604 C 429.6241 4.4293 428.5619 3.8982 427.4675 3.351 C 433.0024 1.875 436.8756 3.6261 441.9521 5.7651 Z" fill-rule="evenodd" clip-rule="evenodd" fill="#444444" stroke="none"/>
  <path d="M 441.9521 5.7651 C 444.9727 5.7451 447.9933 5.7305 451.0139 5.7209 C 452.0402 5.7168 453.0665 5.7114 454.0928 5.7044 C 455.573 5.6945 457.0532 5.69 458.5334 5.6865 C 458.9879 5.6823 459.4424 5.6782 459.9107 5.6739 C 462.6155 5.6735 465.0477 5.9891 467.7027 6.5698 C 469.0435 6.5996 470.3856 6.6081 471.7262 6.5698 C 471.7262 7.8975 471.7262 9.2253 471.7262 10.5933 C 471.2278 10.5647 470.7294 10.5361 470.216 10.5067 C 468.331 10.4014 466.4458 10.3016 464.5603 10.2053 C 463.3574 10.1422 462.1548 10.0732 460.9523 10.0039 C 456.6509 9.7881 452.5826 9.8095 448.3175 10.4393 C 446.0588 10.6656 444.1542 10.2968 441.9521 9.7886 C 441.9521 8.4608 441.9521 7.1331 441.9521 5.7651 Z" fill-rule="evenodd" clip-rule="evenodd" fill="#1B1B1B" stroke="none"/>
  <path d="M 441.9521 5.7651 C 442.6705 5.7703 443.3888 5.7755 444.1289 5.7808 C 444.5026 5.7875 444.5026 5.7875 446.3937 5.8217 C 447.1505 5.8289 447.9072 5.8362 448.6868 5.8437 C 450.5547 5.8626 452.4222 5.8891 454.2899 5.9222 C 455.1594 9.1182 454.9804 11.0929 453.9378 14.2208 C 453.8222 14.576 453.8222 14.576 453.2369 16.374 C 453.1451 16.6411 453.1451 16.6411 452.6805 17.9928 C 451.6183 17.9928 450.5561 17.9928 449.4617 17.9928 C 449.9928 15.3373 450.5239 12.6818 451.0711 9.9458 C 449.0279 10.0243 446.9847 10.1029 444.9415 10.1815 C 443.024 9.9458 443.024 9.9458 441.9616 8.7293 C 441.7811 8.3341 441.6006 7.9388 441.4146 7.5317 C 441.4146 8.0628 441.4146 8.5939 441.4146 9.1411 C 439.5558 8.61 437.6969 8.0789 435.7817 7.5317 C 438.36 5.8128 438.9973 5.7274 441.9521 5.7651 Z" fill-rule="evenodd" clip-rule="evenodd" fill="#212121" stroke="none"/>
  <path d="M 441.9521 5.7651 C 448.8565 5.7651 455.7609 5.7651 462.8744 5.7651 C 463.14 6.8273 463.4055 7.8895 463.6791 8.9839 C 460.8941 9.6006 458.2387 9.9266 455.3901 10.0432 C 454.6043 10.0769 453.8185 10.1106 453.009 10.1454 C 452.1901 10.1774 451.3713 10.2094 450.5524 10.2412 C 449.7178 10.2761 448.8833 10.3112 448.0487 10.3465 C 446.0166 10.4316 443.9845 10.5138 441.9521 10.5933 C 441.9521 9 441.9521 7.4067 441.9521 5.7651 Z" fill-rule="evenodd" clip-rule="evenodd" fill="#101010" stroke="none"/>
  <path d="M 441.9521 5.7651 C 444.1821 5.7217 446.4111 5.6897 448.6412 5.6645 C 449.2735 5.651 449.9057 5.6375 450.5571 5.6236 C 451.1666 5.6184 451.776 5.6133 452.4039 5.6079 C 452.9643 5.5995 453.5248 5.5911 454.1023 5.5824 C 455.8306 5.7888 456.6949 6.306 458.0462 7.3745 C 457.5815 7.3247 457.1168 7.2749 456.638 7.2236 C 454.8274 7.3745 454.8274 7.3745 453.4695 8.5815 C 450.5286 10.4892 447.8213 9.941 444.3663 9.7886 C 444.8974 12.4441 445.4285 15.0996 445.9757 17.8356 C 444.6479 17.8356 443.3201 17.8356 441.9521 17.8356 C 441.9521 13.8523 441.9521 9.8691 441.9521 5.7651 Z" fill-rule="evenodd" clip-rule="evenodd" fill="#343434" stroke="none"/>
  <path d="M 441.9521 5.7651 C 444.8732 5.7651 447.7943 5.7651 450.8039 5.7651 C 450.8039 9.0792 450.2979 10.7777 449.1945 13.8121 C 447.3356 13.8121 445.4767 13.8121 443.5616 13.8121 C 442.1635 10.7539 441.9521 9.3081 441.9521 5.7651 Z" fill-rule="evenodd" clip-rule="evenodd" fill="#F9F9F9" stroke="none"/>
  <path d="M 441.9521 5.7651 C 442.5953 5.7723 443.2384 5.7796 443.901 5.7871 C 444.3865 5.7964 444.872 5.8058 445.3721 5.8154 C 445.2585 6.8552 445.1403 7.8945 445.0201 8.9336 C 444.9547 9.5124 444.8894 10.0912 444.822 10.6876 C 444.5674 12.253 444.5674 12.253 443.7627 13.8624 C 441.9039 13.8624 440.045 13.8624 438.1298 13.8624 C 437.7631 12.4479 437.3963 11.0334 437.0296 9.6189 C 436.5204 8.2295 436.5204 8.2295 434.911 6.6201 C 437.3209 5.9181 439.4461 5.7282 441.9521 5.7651 Z" fill-rule="evenodd" clip-rule="evenodd" fill="#FAFAFA" stroke="none"/>
  <path d="M 441.9521 5.7651 C 442.6057 5.9985 443.2592 6.2319 443.9325 6.4723 C 444.5901 6.7037 445.2478 6.935 445.9254 7.1733 C 446.4295 7.3569 446.9336 7.5405 447.453 7.7297 C 447.453 7.1986 447.453 6.6675 447.453 6.1203 C 450.3741 6.1203 453.2952 6.1203 456.3048 6.1203 C 456.3048 6.3858 456.3048 6.6514 456.3048 6.925 C 455.1098 7.0578 455.1098 7.0578 449.0625 7.7297 C 449.328 8.2608 449.5936 8.7919 449.8672 9.3391 C 449.3361 9.6046 449.3361 9.6046 446.6483 10.9485 C 446.6483 11.4796 446.6483 12.0107 446.6483 12.5579 C 445.8517 12.5579 445.055 12.5579 444.2342 12.5579 C 443.9687 12.0268 443.7031 11.4957 443.4295 10.9485 C 443.164 11.0813 443.164 11.0813 441.8201 11.7532 C 441.5546 11.2221 441.289 10.691 441.0154 10.1438 C 439.7046 9.6346 439.7046 9.6346 438.1487 9.2385 C 437.6331 9.1037 437.1176 8.9688 436.5864 8.8299 C 436.1891 8.7324 435.7918 8.6349 435.3825 8.5344 C 439.7396 5.194 439.7396 5.194 441.9521 5.7651 Z" fill-rule="evenodd" clip-rule="evenodd" fill="#676767" stroke="none"/>
  <path d="M 441.9521 5.7651 C 442.2177 6.5617 442.4832 7.3584 442.7568 8.1792 C 442.566 8.2871 442.566 8.2871 441.6001 8.833 C 440.3427 9.7886 440.3427 9.7886 439.538 12.2027 C 436.3514 12.2027 433.1648 12.2027 429.8816 12.2027 C 433.4566 8.2304 433.4566 8.2304 435.6654 7.978 C 436.1467 8.0444 436.628 8.1108 437.1239 8.1792 C 437.655 7.9136 438.1861 7.6481 438.7333 7.3745 C 439.8063 6.838 440.8792 6.3015 441.9521 5.7651 Z" fill-rule="evenodd" clip-rule="evenodd" fill="#6D6D6D" stroke="none"/>
  <path d="M 441.9521 5.7651 C 441.9521 7.3745 441.9521 7.3745 440.7954 8.5815 C 440.3805 8.9799 439.9655 9.3782 439.538 9.7886 C 439.2725 10.3197 439.0069 10.8508 438.7333 11.398 C 437.1239 10.5933 437.1239 10.5933 436.621 9.336 C 436.5214 8.9542 436.4218 8.5725 436.3192 8.1792 C 437.1159 7.6481 437.9125 7.117 438.7333 6.5698 C 437.9367 6.3042 437.14 6.0387 436.3192 5.7651 C 436.0537 6.5617 435.7881 7.3584 435.5145 8.1792 C 434.4523 8.1792 433.3901 8.1792 432.2957 8.1792 C 432.2957 8.7103 432.2957 9.2414 432.2957 9.7886 C 431.499 9.523 430.7024 9.2575 429.8816 8.9839 C 430.1471 8.1872 430.4127 7.3906 430.6863 6.5698 C 431.2174 6.5698 431.7485 6.5698 432.2957 6.5698 C 432.2957 6.0387 432.2957 5.5076 432.2957 4.9604 C 435.7528 3.808 438.608 4.533 441.9521 5.7651 Z" fill-rule="evenodd" clip-rule="evenodd" fill="#111111" stroke="none"/>
  <path d="M 441.9521 5.7651 C 441.9521 6.8273 441.9521 7.8895 441.9521 8.9839 C 440.8899 8.9839 439.8277 8.9839 438.7333 8.9839 C 438.4678 10.0461 438.2022 11.1083 437.9286 12.2027 C 437.132 12.2027 436.3353 12.2027 435.5145 12.2027 C 435.8163 10.6436 435.8163 10.6436 436.3192 8.9839 C 436.8503 8.7183 437.3814 8.4528 437.9286 8.1792 C 437.9286 7.6481 437.9286 7.117 437.9286 6.5698 C 437.5801 6.8187 437.2316 7.0677 436.8725 7.3242 C 434.6854 8.7012 432.3792 9.1857 429.8816 9.7886 C 430.2268 8.2133 430.4632 7.5333 431.799 6.5824 C 435.47 4.9691 438.0656 4.7846 441.9521 5.7651 Z" fill-rule="evenodd" clip-rule="evenodd" fill="#101010" stroke="none"/>
  <path d="M 441.9521 5.7651 C 445.4043 5.7651 448.8565 5.7651 452.4133 5.7651 C 451.6166 6.0306 450.82 6.2962 449.9992 6.5698 C 449.9992 7.632 449.9992 8.6942 449.9992 9.7886 C 447.0452 10.8111 444.9432 10.4004 441.9521 9.7886 C 441.9521 8.4608 441.9521 7.1331 441.9521 5.7651 Z" fill-rule="evenodd" clip-rule="evenodd" fill="#1C1C1C" stroke="none"/>
  <path d="M 441.9521 5.7651 C 446.3919 6.2204 450.0173 7.8749 454.0227 9.7886 C 453.7571 10.5853 453.4916 11.3819 453.218 12.2027 C 448.8644 11.1687 445.0859 9.4818 441.1474 7.3745 C 441.413 6.8434 441.6785 6.3123 441.9521 5.7651 Z" fill-rule="evenodd" clip-rule="evenodd" fill="#404040" stroke="none"/>
  <path d="M 441.9521 5.7651 C 443.5283 5.7217 445.1033 5.6897 446.6798 5.6645 C 446.9033 5.6577 446.9033 5.6577 448.0346 5.6236 C 449.2268 5.6093 450.4192 5.6827 451.6086 5.7651 C 452.1397 6.2962 452.6708 6.8273 453.218 7.3745 C 452.4213 10.03 451.6247 12.6855 450.8039 15.4215 C 450.2728 15.4215 449.7417 15.4215 449.1945 15.4215 C 449.7256 12.766 450.2567 10.1105 450.8039 7.3745 C 448.1484 7.3745 445.4928 7.3745 442.7568 7.3745 C 442.4913 6.8434 442.2257 6.3123 441.9521 5.7651 Z" fill-rule="evenodd" clip-rule="evenodd" fill="#101010" stroke="none"/>
  <path d="M 441.9521 5.7651 C 440.8899 6.8273 439.8277 7.8895 438.7333 8.9839 C 438.7001 8.793 438.7001 8.793 438.5322 7.8271 C 437.9286 6.5698 437.9286 6.5698 436.3695 5.916 C 436.0957 5.8911 436.0957 5.8911 434.7098 5.7651 C 434.1787 6.2962 433.6476 6.8273 433.1004 7.3745 C 432.7685 7.0094 432.4365 6.6442 432.0945 6.268 C 430.6347 4.9125 429.2758 4.1616 427.4675 3.351 C 433.0024 1.875 436.8756 3.6261 441.9521 5.7651 Z" fill-rule="evenodd" clip-rule="evenodd" fill="#5C5C5C" stroke="none"/>
  <path d="M 441.9521 5.7651 C 443.0144 6.0306 444.0766 6.2962 445.171 6.5698 C 444.7726 6.9183 444.3743 7.2669 443.9639 7.626 C 442.7568 8.9839 442.7568 8.9839 442.7568 11.398 C 440.898 11.398 439.0391 11.398 437.1239 11.398 C 437.3895 10.3358 437.655 9.2736 437.9286 8.1792 C 438.4431 8.0796 438.9576 7.98 439.4877 7.8774 C 439.7616 7.7944 439.7616 7.7944 441.1474 7.3745 C 441.413 6.8434 441.6785 6.3123 441.9521 5.7651 Z" fill-rule="evenodd" clip-rule="evenodd" fill="#757575" stroke="none"/>
  <path d="M 441.9521 5.7651 C 442.4656 5.7744 442.9791 5.7838 443.5081 5.7934 C 443.7659 5.797 443.7659 5.797 445.0704 5.8154 C 445.269 5.82 445.269 5.82 446.2743 5.8437 C 446.5398 6.9059 446.8054 7.9681 447.079 9.0625 C 443.2566 9.8672 443.2566 9.8672 441.4461 9.8672 C 440.915 8.805 440.3839 7.7428 439.8367 6.6484 C 440.6414 5.8437 440.6414 5.8437 441.9521 5.7651 Z" fill-rule="evenodd" clip-rule="evenodd" fill="#121212" stroke="none"/>
  <path d="M 441.9521 5.7651 C 442.4832 8.4206 443.0144 11.0761 443.5616 13.8121 C 442.2338 13.8121 440.906 13.8121 439.538 13.8121 C 439.538 11.4221 439.538 9.0322 439.538 6.5698 C 441.1474 5.7651 441.1474 5.7651 441.9521 5.7651 Z" fill-rule="evenodd" clip-rule="evenodd" fill="#202020" stroke="none"/>
  <path d="M 441.9521 5.7651 C 443.9136 5.916 443.9136 5.916 445.9757 6.5698 C 447.0318 8.2295 447.0318 8.2295 447.5851 9.7886 C 445.7262 9.7886 443.8673 9.7886 441.9521 9.7886 C 441.4995 8.2295 441.4995 8.2295 441.1474 6.5698 C 441.413 6.3042 441.6785 6.0387 441.9521 5.7651 Z" fill-rule="evenodd" clip-rule="evenodd" fill="#101010" stroke="none"/>
  <path d="M 441.9521 5.7651 C 444.8919 6.7708 445.7992 7.1097 447.5851 9.7886 C 445.1951 9.7886 442.8051 9.7886 440.3427 9.7886 C 440.8738 8.4608 441.4049 7.1331 441.9521 5.7651 Z" fill-rule="evenodd" clip-rule="evenodd" fill="#606060" stroke="none"/>
  <path d="M 441.9521 5.7651 C 444.0766 5.7651 446.201 5.7651 448.3898 5.7651 C 448.3898 7.0928 448.3898 8.4206 448.3898 9.7886 C 447.5931 9.6558 447.5931 9.6558 443.5616 8.9839 C 443.5616 8.1872 443.5616 7.3906 443.5616 6.5698 C 443.0304 6.3042 442.4993 6.0387 441.9521 5.7651 Z" fill-rule="evenodd" clip-rule="evenodd" fill="#1D1D1D" stroke="none"/>
  <path d="M 441.9521 5.7651 C 443.3604 6.8213 443.3604 6.8213 444.3663 8.1792 C 444.3663 8.7103 444.3663 9.2414 444.3663 9.7886 C 442.2418 9.7886 440.1174 9.7886 437.9286 9.7886 C 438.1942 8.7264 438.4597 7.6642 438.7333 6.5698 C 440.1919 6.0165 440.1919 6.0165 441.9521 5.7651 Z" fill-rule="evenodd" clip-rule="evenodd" fill="#030303" stroke="none"/>
  <path d="M 441.9521 5.7651 C 440.9966 6.9721 440.9966 6.9721 439.538 8.1792 C 437.3754 8.3301 437.3754 8.3301 435.5145 8.1792 C 435.5145 7.117 435.5145 6.0548 435.5145 4.9604 C 437.9691 3.6685 439.5711 4.6711 441.9521 5.7651 Z" fill-rule="evenodd" clip-rule="evenodd" fill="#010101" stroke="none"/>
  <path d="M 441.9521 5.7651 C 442.826 6.7112 442.826 6.7112 443.5616 8.1792 C 443.1906 10.1752 443.1906 10.1752 442.4551 12.3536 C 442.2165 13.0787 441.9779 13.8038 441.7321 14.5508 C 441.6356 14.8273 441.6356 14.8273 441.1474 16.2262 C 440.6163 16.2262 440.0852 16.2262 439.538 16.2262 C 439.7876 14.935 440.0395 13.6442 440.2924 12.3536 C 440.4325 11.6347 440.5725 10.9159 440.7168 10.1752 C 441.0467 8.646 441.4124 7.2286 441.9521 5.7651 Z" fill-rule="evenodd" clip-rule="evenodd" fill="#595959" stroke="none"/>
  <path d="M 441.9521 5.7651 C 443.0144 6.0306 444.0766 6.2962 445.171 6.5698 C 445.171 7.632 445.171 8.6942 445.171 9.7886 C 443.0465 9.7886 440.9221 9.7886 438.7333 9.7886 C 439.7955 8.4608 440.8577 7.1331 441.9521 5.7651 Z" fill-rule="evenodd" clip-rule="evenodd" fill="#8E8E8E" stroke="none"/>
  <path d="M 441.9521 5.7651 C 442.2561 5.8968 442.56 6.0286 442.8732 6.1643 C 444.9215 6.7206 446.8243 6.645 448.943 6.6201 C 449.3543 6.6164 449.7656 6.6128 450.1894 6.6091 C 451.1989 6.5996 452.2085 6.5852 453.218 6.5698 C 451.6086 8.1792 451.6086 8.1792 449.6911 8.3364 C 448.9629 8.3177 448.2347 8.299 447.4845 8.2798 C 447.1183 8.2725 447.1183 8.2725 445.2653 8.2358 C 444.703 8.2171 444.1408 8.1984 443.5616 8.1792 C 443.296 8.7103 443.0304 9.2414 442.7568 9.7886 C 442.4913 8.4608 442.2257 7.1331 441.9521 5.7651 Z" fill-rule="evenodd" clip-rule="evenodd" fill="#080808" stroke="none"/>
  <path d="M 441.9521 5.7651 C 442.6025 5.8543 443.2529 5.9435 443.923 6.0354 C 444.1704 6.0738 444.1704 6.0738 445.4224 6.268 C 445.4224 6.5336 445.4224 6.7991 445.4224 7.0727 C 444.0947 7.0727 442.7669 7.0727 441.3989 7.0727 C 441.3989 7.6038 441.3989 8.1349 441.3989 8.6821 C 439.54 8.151 437.6812 7.6199 435.766 7.0727 C 438.4644 5.2738 438.9103 5.3242 441.9521 5.7651 Z" fill-rule="evenodd" clip-rule="evenodd" fill="#3F3F3F" stroke="none"/>
  <path d="M 441.9521 5.7651 C 443.6973 6.1723 445.1707 6.5697 446.7804 7.3745 C 446.7804 7.9056 446.7804 8.4367 446.7804 8.9839 C 444.9215 8.9839 443.0626 8.9839 441.1474 8.9839 C 441.413 7.9217 441.6785 6.8595 441.9521 5.7651 Z" fill-rule="evenodd" clip-rule="evenodd" fill="#747474" stroke="none"/>
  <path d="M 441.9521 5.7651 C 442.4832 6.0306 443.0144 6.2962 443.5616 6.5698 C 443.8947 7.8806 443.8947 7.8806 444.0645 9.4365 C 444.1247 9.9521 444.1848 10.4676 444.2468 10.9988 C 444.2862 11.3961 444.3256 11.7934 444.3663 12.2027 C 443.304 12.2027 442.2418 12.2027 441.1474 12.2027 C 441.413 10.0783 441.6785 7.9539 441.9521 5.7651 Z" fill-rule="evenodd" clip-rule="evenodd" fill="#626262" stroke="none"/>
  <path d="M 441.9521 5.7651 C 443.2799 6.5617 444.6077 7.3584 445.9757 8.1792 C 445.179 8.9758 444.3824 9.7725 443.5616 10.5933 C 444.0927 10.8589 444.6238 11.1244 445.171 11.398 C 444.1088 11.398 443.0465 11.398 441.9521 11.398 C 441.9521 9.5391 441.9521 7.6803 441.9521 5.7651 Z" fill-rule="evenodd" clip-rule="evenodd" fill="#4E4E4E" stroke="none"/>
  <path d="M 441.9521 5.7651 C 443.5455 5.7651 445.1388 5.7651 446.7804 5.7651 C 446.3986 5.8315 446.0169 5.8979 445.6236 5.9663 C 445.4161 6.0658 445.4161 6.0658 444.3663 6.5698 C 443.813 8.2295 443.813 8.2295 443.5616 9.7886 C 442.7649 9.523 441.9682 9.2575 441.1474 8.9839 C 441.413 7.9217 441.6785 6.8595 441.9521 5.7651 Z" fill-rule="evenodd" clip-rule="evenodd" fill="#222222" stroke="none"/>
  <path d="M 441.9521 5.7651 C 441.3989 6.9721 441.3989 6.9721 440.3427 8.1792 C 438.2304 8.3301 438.2304 8.3301 436.3192 8.1792 C 436.3192 7.3825 436.3192 6.5859 436.3192 5.7651 C 440.1416 4.8598 440.1416 4.8598 441.9521 5.7651 Z" fill-rule="evenodd" clip-rule="evenodd" fill="#191919" stroke="none"/>
  <path d="M 441.9521 5.7651 C 442.4832 6.0306 443.0144 6.2962 443.5616 6.5698 C 443.296 7.1009 443.0304 7.632 442.7568 8.1792 C 443.5535 8.4447 444.3502 8.7103 445.171 8.9839 C 444.1088 8.9839 443.0465 8.9839 441.9521 8.9839 C 441.9521 9.515 441.9521 10.0461 441.9521 10.5933 C 441.1555 10.3277 440.3588 10.0622 439.538 9.7886 C 439.8036 8.9919 440.0691 8.1953 440.3427 7.3745 C 440.8738 7.3745 441.4049 7.3745 441.9521 7.3745 C 441.9521 6.8434 441.9521 6.3123 441.9521 5.7651 Z" fill-rule="evenodd" clip-rule="evenodd" fill="#060606" stroke="none"/>
  <path d="M 441.9521 5.7651 C 443.1089 5.9663 443.1089 5.9663 444.3663 6.5698 C 444.9195 8.2295 444.9195 8.2295 445.171 9.7886 C 443.8432 9.7886 442.5154 9.7886 441.1474 9.7886 C 441.413 8.4608 441.6785 7.1331 441.9521 5.7651 Z" fill-rule="evenodd" clip-rule="evenodd" fill="#646464" stroke="none"/>
  <path d="M 441.9521 5.7651 C 442.7488 5.8979 442.7488 5.8979 446.7804 6.5698 C 446.7804 7.3664 446.7804 8.1631 446.7804 8.9839 C 445.4526 8.9839 444.1248 8.9839 442.7568 8.9839 C 442.4913 7.9217 442.2257 6.8595 441.9521 5.7651 Z" fill-rule="evenodd" clip-rule="evenodd" fill="#0A0A0A" stroke="none"/>
  <path d="M 441.9521 5.7651 C 443.1471 6.0306 443.1471 6.0306 449.1945 7.3745 C 448.1323 8.4367 447.0701 9.4989 445.9757 10.5933 C 445.9093 10.2448 445.8429 9.8962 445.7745 9.5371 C 444.9382 7.6555 443.6289 6.901 441.9521 5.7651 Z" fill-rule="evenodd" clip-rule="evenodd" fill="#E5E5E5" stroke="none"/>
  <path d="M 441.9521 5.7651 C 443.811 6.0306 445.6699 6.2962 447.5851 6.5698 C 447.5851 7.3664 447.5851 8.1631 447.5851 8.9839 C 446.2573 8.9839 444.9295 8.9839 443.5616 8.9839 C 443.0304 7.9217 442.4993 6.8595 441.9521 5.7651 Z" fill-rule="evenodd" clip-rule="evenodd" fill="#222222" stroke="none"/>
  <path d="M 441.9521 5.7651 C 443.2747 8.4101 443.8941 10.1743 444.3663 13.0074 C 443.5696 13.0074 442.7729 13.0074 441.9521 13.0074 C 441.9521 10.6174 441.9521 8.2275 441.9521 5.7651 Z" fill-rule="evenodd" clip-rule="evenodd" fill="#959595" stroke="none"/>
  <path d="M 441.9521 5.7651 C 442.4832 6.0306 443.0144 6.2962 443.5616 6.5698 C 442.2338 7.8975 440.906 9.2253 439.538 10.5933 C 439.0069 10.0622 438.4758 9.5311 437.9286 8.9839 C 439.2564 7.9217 440.5841 6.8595 441.9521 5.7651 Z" fill-rule="evenodd" clip-rule="evenodd" fill="#181818" stroke="none"/>
  <path d="M 441.9521 5.7651 C 442.2177 6.2962 442.4832 6.8273 442.7568 7.3745 C 441.9602 8.1711 441.1635 8.9678 440.3427 9.7886 C 440.0772 9.2575 439.8116 8.7264 439.538 8.1792 C 439.0069 7.9136 438.4758 7.6481 437.9286 7.3745 C 439.2564 6.8434 440.5841 6.3123 441.9521 5.7651 Z" fill-rule="evenodd" clip-rule="evenodd" fill="#4A4A4A" stroke="none"/>
  <path d="M 441.9521 5.7651 C 442.1845 5.9145 442.1845 5.9145 443.3604 6.6704 C 441.5015 7.2015 439.6426 7.7326 437.7275 8.2798 C 437.4619 7.7487 437.1963 7.2176 436.9227 6.6704 C 439.6959 4.8876 439.6959 4.8876 441.9521 5.7651 Z" fill-rule="evenodd" clip-rule="evenodd" fill="#343434" stroke="none"/>
  <path d="M 441.9521 5.7651 C 443.0144 5.7651 444.0766 5.7651 445.171 5.7651 C 445.171 6.2962 445.171 6.8273 445.171 7.3745 C 444.6399 7.3745 444.1088 7.3745 443.5616 7.3745 C 443.8271 8.1711 444.0927 8.9678 444.3663 9.7886 C 443.5696 10.0541 442.7729 10.3197 441.9521 10.5933 C 441.9521 9 441.9521 7.4067 441.9521 5.7651 Z" fill-rule="evenodd" clip-rule="evenodd" fill="#232323" stroke="none"/>
  <path d="M 441.9521 5.7651 C 445.0704 7.1733 445.0704 7.1733 445.9757 8.9839 C 444.6479 8.9839 443.3201 8.9839 441.9521 8.9839 C 441.9521 7.9217 441.9521 6.8595 441.9521 5.7651 Z" fill-rule="evenodd" clip-rule="evenodd" fill="#E9E9E9" stroke="none"/>
  <path d="M 441.9521 5.7651 C 442.5662 5.8315 443.1803 5.8979 443.813 5.9663 C 443.2985 6.182 442.784 6.3978 442.2539 6.6201 C 440.5942 7.5757 440.5942 7.5757 439.9907 8.8833 C 439.9243 9.2484 439.8579 9.6136 439.7895 9.9898 C 438.9928 9.7242 438.1962 9.4587 437.3754 9.1851 C 439.2572 6.0158 439.2572 6.0158 441.9521 5.7651 Z" fill-rule="evenodd" clip-rule="evenodd" fill="#222222" stroke="none"/>
  <path d="M 441.9521 5.7651 C 443.0144 6.0306 444.0766 6.2962 445.171 6.5698 C 444.9054 7.632 444.6399 8.6942 444.3663 9.7886 C 443.8352 9.7886 443.304 9.7886 442.7568 9.7886 C 442.4913 8.4608 442.2257 7.1331 441.9521 5.7651 Z" fill-rule="evenodd" clip-rule="evenodd" fill="#212121" stroke="none"/>
  <path d="M 441.9521 5.7651 C 442.4832 6.0306 443.0144 6.2962 443.5616 6.5698 C 443.296 7.3664 443.0304 8.1631 442.7568 8.9839 C 441.4291 8.9839 440.1013 8.9839 438.7333 8.9839 C 439.7955 8.4528 440.8577 7.9217 441.9521 7.3745 C 441.9521 6.8434 441.9521 6.3123 441.9521 5.7651 Z" fill-rule="evenodd" clip-rule="evenodd" fill="#090909" stroke="none"/>
  <path d="M 441.9521 5.7651 C 443.811 5.7651 445.6699 5.7651 447.5851 5.7651 C 447.3195 6.5617 447.054 7.3584 446.7804 8.1792 C 445.1871 7.6481 443.5937 7.117 441.9521 6.5698 C 441.9521 6.3042 441.9521 6.0387 441.9521 5.7651 Z" fill-rule="evenodd" clip-rule="evenodd" fill="#8A8A8A" stroke="none"/>
  <path d="M 441.9521 5.7651 C 441.5538 6.1634 441.5538 6.1634 439.538 8.1792 C 438.4758 7.6481 437.4136 7.117 436.3192 6.5698 C 438.301 5.5789 439.763 5.7075 441.9521 5.7651 Z" fill-rule="evenodd" clip-rule="evenodd" fill="#C8C8C8" stroke="none"/>
  <path d="M 441.9521 5.7651 C 443.2799 6.0306 444.6077 6.2962 445.9757 6.5698 C 445.7101 7.1009 445.4446 7.632 445.171 8.1792 C 443.8432 8.1792 442.5154 8.1792 441.1474 8.1792 C 441.413 7.3825 441.6785 6.5859 441.9521 5.7651 Z" fill-rule="evenodd" clip-rule="evenodd" fill="#383838" stroke="none"/>
  <path d="M 441.9521 5.7651 C 443.2799 5.7651 444.6077 5.7651 445.9757 5.7651 C 445.9757 6.2962 445.9757 6.8273 445.9757 7.3745 C 444.9135 7.64 443.8512 7.9056 442.7568 8.1792 C 442.4913 7.3825 442.2257 6.5859 441.9521 5.7651 Z" fill-rule="evenodd" clip-rule="evenodd" fill="#010101" stroke="none"/>
  <path d="M 441.9521 5.7651 C 442.4832 5.7651 443.0144 5.7651 443.5616 5.7651 C 443.5616 6.8273 443.5616 7.8895 443.5616 8.9839 C 442.4993 8.7183 441.4371 8.4528 440.3427 8.1792 C 441.0469 6.9721 441.0469 6.9721 441.9521 5.7651 Z" fill-rule="evenodd" clip-rule="evenodd" fill="#F2F2F2" stroke="none"/>
  <path d="M 441.9521 5.7651 C 442.616 6.0306 442.616 6.0306 445.9757 7.3745 C 444.9135 8.1711 443.8512 8.9678 442.7568 9.7886 C 442.4913 8.4608 442.2257 7.1331 441.9521 5.7651 Z" fill-rule="evenodd" clip-rule="evenodd" fill="#060606" stroke="none"/>
  <path d="M 441.9521 5.7651 C 442.7488 6.0306 443.5455 6.2962 444.3663 6.5698 C 444.1007 7.3664 443.8352 8.1631 443.5616 8.9839 C 442.7649 8.7183 441.9682 8.4528 441.1474 8.1792 C 441.413 7.3825 441.6785 6.5859 441.9521 5.7651 Z" fill-rule="evenodd" clip-rule="evenodd" fill="#505050" stroke="none"/>
  <path d="M 441.9521 5.7651 C 442.7488 6.0306 443.5455 6.2962 444.3663 6.5698 C 443.8352 7.632 443.304 8.6942 442.7568 9.7886 C 442.4913 8.4608 442.2257 7.1331 441.9521 5.7651 Z" fill-rule="evenodd" clip-rule="evenodd" fill="#101010" stroke="none"/>
  <path d="M 441.9521 5.7651 C 442.4832 6.5617 443.0144 7.3584 443.5616 8.1792 C 443.296 8.7103 443.0304 9.2414 442.7568 9.7886 C 442.2257 9.7886 441.6946 9.7886 441.1474 9.7886 C 441.413 8.4608 441.6785 7.1331 441.9521 5.7651 Z" fill-rule="evenodd" clip-rule="evenodd" fill="#878787" stroke="none"/>
  <path d="M 441.9521 5.7651 C 442.7488 6.0306 443.5455 6.2962 444.3663 6.5698 C 444.3663 7.1009 444.3663 7.632 444.3663 8.1792 C 443.304 8.1792 442.2418 8.1792 441.1474 8.1792 C 441.413 7.3825 441.6785 6.5859 441.9521 5.7651 Z" fill-rule="evenodd" clip-rule="evenodd" fill="#030303" stroke="none"/>
  <path d="M 441.9521 5.7651 C 442.4832 5.7651 443.0144 5.7651 443.5616 5.7651 C 443.8271 6.5617 444.0927 7.3584 444.3663 8.1792 C 443.304 7.9136 442.2418 7.6481 441.1474 7.3745 C 441.413 6.8434 441.6785 6.3123 441.9521 5.7651 Z" fill-rule="evenodd" clip-rule="evenodd" fill="#434343" stroke="none"/>
  <path d="M 441.9521 5.7651 C 442.7488 6.0306 443.5455 6.2962 444.3663 6.5698 C 444.3663 7.1009 444.3663 7.632 444.3663 8.1792 C 443.5696 8.1792 442.7729 8.1792 441.9521 8.1792 C 441.9521 7.3825 441.9521 6.5859 441.9521 5.7651 Z" fill-rule="evenodd" clip-rule="evenodd" fill="#D4D4D4" stroke="none"/>
  <path d="M 441.9521 5.7651 C 442.7488 6.0306 443.5455 6.2962 444.3663 6.5698 C 444.3663 7.1009 444.3663 7.632 444.3663 8.1792 C 443.304 7.6481 442.2418 7.117 441.1474 6.5698 C 441.413 6.3042 441.6785 6.0387 441.9521 5.7651 Z" fill-rule="evenodd" clip-rule="evenodd" fill="#010101" stroke="none"/></g></svg>