<svg xmlns="http://www.w3.org/2000/svg" viewBox="0 0 950 35" fill="none"><g transform="translate(-207.639,-7.6499) scale(1.4371)"><path d="M180.6818 1.5909 L175.3788 1.5909 L173.6111 3.3586 L171.8434 3.3586 L170.0757 5.1263 L170.0757 6.8939 L168.308 8.6616 L168.308 10.4293 L170.0757 10.4293 L170.0757 8.6616 L173.6111 5.1263 L180.6818 5.1263 L180.6818 1.5909 Z" fill-rule="evenodd" clip-rule="evenodd" fill="white" stroke="none"/>
  <path d="M237.2474 1.5909 L230.1767 1.5909 L228.4091 3.3586 L226.6414 3.3586 L226.6414 6.8939 L224.8737 8.6616 L224.8737 10.4293 L226.6414 10.4293 L226.6414 8.6616 L230.1767 5.1263 L235.4798 5.1263 L237.2474 3.3586 L237.2474 1.5909 Z" fill-rule="evenodd" clip-rule="evenodd" fill="white" stroke="none"/>
  <path d="M292.0454 1.5909 L286.7424 1.5909 L284.9747 3.3586 L281.4394 3.3586 L281.4394 6.8939 L279.6717 8.6616 L279.6717 10.4293 L281.4394 10.4293 L281.4394 8.6616 L284.9747 5.1263 L292.0454 5.1263 L292.0454 1.5909 Z" fill-rule="evenodd" clip-rule="evenodd" fill="white" stroke="none"/>
  <path d="M346.8434 1.5909 L341.5404 1.5909 L339.7727 3.3586 L338.005 3.3586 L336.2372 5.1263 L336.2372 6.8939 L339.7727 6.8939 L341.5404 5.1263 L346.8434 5.1263 L346.8434 1.5909 Z" fill-rule="evenodd" clip-rule="evenodd" fill="white" stroke="none"/>
  <path d="M792.298 15.7323 L788.7625 12.197 L760.4797 12.197 L756.9445 15.7323 L622.601 15.7323 L620.8334 17.5 L617.2979 15.7323 L380.4293 15.7323 L376.8939 17.5 L375.1261 15.7323 L163.005 15.7323 L159.4697 13.9646 L157.702 19.2677 L184.2171 19.2677 L185.9848 21.0354 L189.5202 21.0354 L191.2878 19.2677 L240.7828 19.2677 L242.5505 21.0354 L246.0858 19.2677 L295.5808 19.2677 L297.3484 21.0354 L300.8838 19.2677 L746.3383 19.2677 L748.1059 21.0354 L755.1766 19.2677 L762.2473 24.5707 L786.9948 24.5707 L792.298 21.0354 L792.298 15.7323 Z" fill-rule="evenodd" clip-rule="evenodd" fill="white" stroke="none"/>
  <path d="M760.4797 17.5 L764.0152 13.9646 L785.2271 13.9646 L788.7625 17.5 L788.7625 19.2677 L786.9948 21.0354 L762.2473 21.0354 L760.4797 19.2677 L760.4797 17.5 Z" fill-rule="evenodd" clip-rule="evenodd" fill="white" stroke="none"/>
  <path d="M307.9545 24.5707 L307.9545 28.1061 L309.7221 29.8737 L309.7221 31.6414 L311.4899 31.6414 L313.2575 33.4091 L322.0958 33.4091 L322.0958 31.6414 L315.0253 31.6414 L313.2575 29.8737 L311.4899 29.8737 L309.7221 28.1061 L309.7221 24.5707 L307.9545 24.5707 Z" fill-rule="evenodd" clip-rule="evenodd" fill="white" stroke="none"/>
  <path d="M198.3586 29.8737 L198.3586 31.6414 L200.1262 31.6414 L201.8939 33.4091 L210.7323 33.4091 L210.7323 31.6414 L203.6616 31.6414 L201.8939 29.8737 L198.3586 29.8737 Z" fill-rule="evenodd" clip-rule="evenodd" fill="white" stroke="none"/>
  <path d="M254.9242 29.8737 L254.9242 31.6414 L256.6919 33.4091 L265.5303 33.4091 L265.5303 31.6414 L260.2272 31.6414 L258.4596 29.8737 L254.9242 29.8737 Z" fill-rule="evenodd" clip-rule="evenodd" fill="white" stroke="none"/></g></svg>