<svg xmlns="http://www.w3.org/2000/svg" viewBox="0 0 950 35" fill="none"><g transform="translate(-573.8403,-21.4499) scale(2.2088)"><path d="M601.5932 2.7721 C597.8538 3.9451 593.8639 4.2631 589.0612 3.7708 C576.608 2.4943 571.9236 3.4643 569.7577 7.7679 C568.603 10.0623 567.3861 10.8848 565.1465 10.8848 C562.477 10.8848 562.3998 9.0757 564.9986 7.4194 C565.6517 7.0032 566.186 6.584 566.186 6.488 C566.186 6.013 559.7633 7.8607 557.378 9.0219 C554.908 10.2242 551.2623 13.1221 551.8743 13.3967 C552.0119 13.4585 552.7787 13.3035 553.578 13.0523 C556.4597 12.1466 559.5165 12.7151 559.0864 14.0767 C558.9551 14.4924 558.0615 14.9171 556.6548 15.2324 C554.5732 15.699 549.3556 15.731 475.142 15.7314 C391.4688 15.7319 393.2296 15.7579 390.876 14.4845 C390.1823 14.1092 390.1447 13.8503 390.7036 13.2999 C391.532 12.4841 393.1997 12.398 395.9256 13.0305 C398.1814 13.554 398.283 13.2854 396.4449 11.6575 C394.6811 10.0956 391.8222 8.4778 389.5328 7.7463 C387.7844 7.1877 383.1856 6.2168 383.1856 6.4063 C383.1856 6.4563 383.9004 6.9321 384.7741 7.4634 C385.8028 8.0891 386.3627 8.8061 386.3627 9.4978 C386.3627 10.7055 385.6809 11.013 383.5385 10.7717 C381.9056 10.5878 380.4552 9.2548 379.7136 7.2562 C378.4371 3.8163 371.8772 2.4509 362.2168 3.6143 C356.0931 4.3519 351.902 4.0849 347.7193 2.6908 C346.5605 2.3046 345.4773 2.0493 345.312 2.1234 C344.6212 2.4334 349.4054 4.7622 351.9912 5.3746 C354.3722 5.9385 355.7262 6.0379 361.0312 6.0379 C366.9857 6.0379 367.3185 6.0704 368.3117 6.7506 C369.2736 7.4094 369.2741 7.5171 368.3183 8.1717 C367.0467 9.0426 364.9716 9.3048 362.5804 8.8969 C359.967 8.451 359.9537 8.6893 362.5352 9.7064 C364.4754 10.4708 365.2964 10.5997 368.2234 10.5997 C372.538 10.5997 373.6024 10.7864 374.3553 11.675 C375.7829 13.3598 370.6102 14.6761 365.0364 14.0464 C359.5825 13.4302 352.8342 11.4963 347.6364 9.06 L345.4467 8.0337 L347.2659 8.0337 C348.2665 8.0337 350.9062 8.4828 353.1319 9.0318 C357.8723 10.2009 357.7731 9.7689 352.8242 7.6918 C345.2855 4.5277 338.1515 3.9082 325.3625 5.3073 C321.693 5.7087 317.6785 6.0373 316.4413 6.0375 C314.3401 6.0378 308.8757 5.4994 305.9823 5.0069 C304.8968 4.8222 304.8272 4.8546 305.5053 5.2294 C305.9419 5.4707 308.3724 6.1042 310.9064 6.6371 C315.4897 7.601 315.5619 7.606 324.8388 7.606 C333.317 7.606 334.3272 7.6604 335.9587 8.2044 C339.6444 9.4335 337.8927 11.4551 333.142 11.4551 C331.774 11.4551 327.7725 10.9084 323.7696 10.1747 C312.4238 8.0949 308.1239 8.3608 295.0658 11.9496 C283.75 15.0596 278.2071 15.9977 271.0343 16.0171 C268.7463 16.0233 268.1239 16.103 268.8103 16.3021 C270.3356 16.7444 281.2443 16.6347 285.5572 16.1337 C287.7045 15.8842 292.8225 14.9824 296.9304 14.1297 C306.144 12.217 312.3611 11.5094 314.9884 12.0744 C316.4471 12.3881 316.7844 12.6458 316.7844 13.4463 C316.7844 14.796 314.8595 15.2374 309.787 15.051 C307.6858 14.9738 305.3983 14.8147 304.7036 14.6976 C302.1545 14.2677 305.0098 15.3914 308.3833 16.1457 C310.913 16.7113 312.595 16.8723 315.9761 16.8723 C320.984 16.8723 324.8744 16.3469 333.989 14.4397 C341.1503 12.9412 346.137 12.5162 347.556 13.2834 C348.8645 13.9908 347.5633 14.9807 344.1426 15.8802 C342.5505 16.2988 341.248 16.6813 341.248 16.7301 C341.248 16.8384 343.0947 16.6529 347.241 16.1283 C351.5302 15.5856 353.7578 15.6302 356.2012 16.3078 C358.9686 17.0753 359.3873 17.6675 357.7241 18.4618 C355.0741 19.7275 353.2372 19.8556 347.3061 19.1881 C340.4663 18.4183 340.4295 18.4209 343.9378 19.4192 C345.554 19.8791 347.2207 20.5441 347.6416 20.897 C348.3054 21.4535 348.2084 21.6106 346.9088 22.0828 C344.7867 22.8539 342.2791 22.6033 332.2292 20.6159 C322.4496 18.682 318.1388 18.1566 314.0922 18.4055 C310.8758 18.6033 306.1959 19.5577 304.6263 20.3359 C303.6542 20.8179 303.7122 20.8301 305.7404 20.5691 C309.0107 20.1482 314.0884 20.2342 315.6899 20.7375 C317.3663 21.2644 317.5299 22.3419 316.0354 23.0125 C314.364 23.7625 308.8912 23.4376 302.3286 22.1987 C299.2707 21.6214 294.4097 20.7068 291.5265 20.1662 C285.1943 18.979 278.831 18.4802 273.2093 18.7302 C266.9756 19.0075 266.7751 19.3361 272.7349 19.5074 C278.9437 19.6859 283.9283 20.4164 290.0878 22.0504 C301.9935 25.2089 304.3233 25.761 307.5232 26.1821 C312.306 26.8115 316.38 26.5558 323.8328 25.1585 C331.9922 23.6288 334.0652 23.4831 336.3253 24.2809 C339.0372 25.238 338.5901 26.5639 335.2934 27.3413 C333.712 27.7142 331.7124 27.7973 325.5186 27.7478 C316.6294 27.6766 313.9512 27.9221 308.3171 29.3244 C303.7689 30.4564 303.4866 30.7806 307.6306 30.1129 C312.9109 29.2622 318.5787 29.2664 326.3157 30.1268 C331.8724 30.7448 334.1968 30.8716 337.654 30.7454 C343.5422 30.5304 349.168 29.3223 353.6538 27.3095 C357.8033 25.4476 358.1946 24.7696 354.433 25.9595 C351.852 26.7758 346.5547 27.6169 345.8853 27.3165 C345.5358 27.1597 351.4493 24.6192 354.7377 23.5134 C360.833 21.4639 368.2748 20.6234 372.2201 21.5388 C374.8432 22.1475 375.4069 23.0037 373.8161 23.9632 C372.768 24.5953 371.9345 24.7386 368.5068 24.8757 C363.6322 25.0707 362.6131 25.2545 361.2567 26.1834 C360.2565 26.8684 360.2648 26.8824 361.4945 26.5871 C363.5146 26.102 366.5424 26.2263 367.9355 26.8514 C369.5648 27.5824 369.542 28.1264 367.8506 28.8854 C366.6363 29.4302 366.0246 29.4761 361.9944 29.3245 C359.5121 29.2311 356.2902 29.2912 354.8093 29.4585 C351.8074 29.7977 347.8642 31.1863 346.1592 32.5046 L345.034 33.3747 L348.6177 32.4063 C353.4704 31.0952 356.2118 30.9615 363.0899 31.7008 C369.2602 32.3639 372.1769 32.2949 375.4241 31.4088 C377.8597 30.7442 378.9994 29.7854 379.9942 27.5642 C380.9575 25.4131 382.1219 24.5704 384.131 24.5704 C387.1727 24.5704 387.4493 26.2624 384.7139 28.1356 L383.5656 28.922 L385.123 28.7046 C389.7699 28.0561 397.8002 23.9039 397.8002 22.1498 C397.8002 21.7814 397.4719 21.8112 395.9451 22.3177 C393.8018 23.0287 391.1218 22.8935 390.5208 22.0439 C389.916 21.1888 390.75 20.6429 393.6097 20.0217 C396.2709 19.4436 397.0065 19.4384 474.7519 19.4384 L553.2084 19.4384 L556.0436 20.0799 C558.2213 20.5726 558.9253 20.9026 559.0792 21.503 C559.2344 22.1076 558.9189 22.3585 557.6871 22.6103 C556.36 22.8816 555.71 22.8342 553.7886 22.3255 L551.4828 21.7151 L551.9158 22.3587 C553.3963 24.559 558.5497 27.3848 562.9395 28.4034 C565.8439 29.0774 566.4202 28.9402 564.8474 27.9492 C563.962 27.3911 563.4042 26.6084 563.3745 25.8821 C563.333 24.8669 563.5218 24.7006 564.8088 24.6188 C567.1915 24.4674 568.5394 25.3032 569.7055 27.6552 C570.5942 29.4475 571.2018 30.0244 573.0956 30.8742 C576.3123 32.3176 579.1143 32.4845 586.7802 31.6897 C592.048 31.1435 593.2142 31.1079 596.0073 31.4086 C597.7657 31.5979 600.3509 32.1254 601.7523 32.5809 C603.1536 33.0364 604.4634 33.4091 604.6629 33.4091 C605.8087 33.4091 600.366 30.6647 597.9631 30.0308 C595.3471 29.3407 594.5739 29.2801 589.0818 29.3342 C582.5442 29.3987 580.8007 29.0861 580.8007 27.8493 C580.8007 26.5655 584.7841 25.8443 587.8322 26.5763 C589.7553 27.0382 589.3003 26.4221 587.1062 25.5937 C585.5032 24.9885 584.4987 24.8556 581.5287 24.8556 C577.1187 24.8556 575.0819 24.3166 575.0819 23.1494 C575.0819 21.3395 580.1754 20.6731 587.029 21.5864 C591.7812 22.2196 606.6051 27.4252 603.6416 27.42 C601.6437 27.4166 598.0837 26.8167 595.212 25.9995 C591.7061 25.0018 591.9485 25.4866 595.8331 27.2419 C599.1649 28.7475 602.6583 29.7056 607.0683 30.3233 C612.0505 31.0212 615.1707 30.9793 623.5785 30.1016 C631.4346 29.2815 637.2316 29.2839 642.3544 30.1094 C646.4595 30.7709 644.7371 30.0128 639.409 28.8131 C635.1414 27.8521 635.1007 27.8492 625.4273 27.8074 C617.5667 27.7735 615.4199 27.6757 614.1144 27.2918 C610.9187 26.3523 610.8695 24.8326 614.0113 24.1036 C616.4132 23.5463 617.9769 23.6853 625.5256 25.1269 C636.5783 27.2378 641.9161 26.9393 653.8738 23.5416 C664.6642 20.4757 670.7797 19.4467 678.3121 19.4297 C683.2249 19.4186 681.7983 18.9701 676.0026 18.7036 C669.9203 18.424 662.8022 19.1646 653.6487 21.0293 C641.4096 23.5227 635.6149 24.0458 633.2459 22.8712 C631.8387 22.1735 632.3588 21.0152 634.2873 20.5521 C635.7284 20.206 643.0007 20.3322 645.2957 20.7432 C647.9796 21.2237 644.9009 20.0336 641.5764 19.3054 C634.7853 17.8178 629.6899 18.0865 617.7743 20.5606 C609.484 22.282 605.8972 22.7227 603.5023 22.3141 C600.4352 21.7909 601.7402 20.605 607.2314 18.9257 C607.9495 18.7062 608.0539 18.6034 607.4883 18.6731 C606.9641 18.7377 604.3462 19.021 601.6708 19.3027 C596.2043 19.8784 594.2475 19.7037 591.5079 18.3951 L590.0167 17.6828 L592.3889 16.7074 C595.2112 15.5468 596.9606 15.4811 603.3184 16.297 C607.8943 16.8841 609.3056 16.8814 606.7485 16.2903 C602.1441 15.226 600.2338 13.3496 603.3926 12.9939 C606.0279 12.6971 609.1212 13.0587 615.6407 14.4258 C624.7098 16.3274 628.6904 16.8727 633.481 16.8695 C637.7379 16.8667 642.3205 16.1528 645.2957 15.0291 C646.5438 14.5576 646.5381 14.5522 644.978 14.7287 C644.1043 14.8275 641.6585 14.9809 639.5429 15.0695 C636.0968 15.2139 635.5082 15.158 633.8868 14.5322 C631.5677 13.6371 631.973 12.5528 634.8247 12.0228 C637.5677 11.513 643.0463 12.1711 653.4768 14.2635 C663.608 16.2959 667.1351 16.6992 674.444 16.6608 C681.5589 16.6235 682.9614 16.1602 676.6229 15.9411 C670.4811 15.7288 665.0282 14.7991 656.6509 12.5359 C644.2775 9.1931 643.4667 9.0461 637.353 9.0384 C632.4095 9.0322 631.3964 9.1356 625.3961 10.2588 C617.6686 11.7053 614.4354 11.7854 612.4378 10.5798 C611.4357 9.9751 611.3493 9.7235 611.9428 9.1389 C613.3169 7.7858 614.7277 7.6147 624.6445 7.5984 C632.6843 7.5852 634.2893 7.5024 637.2419 6.9488 C640.5425 6.33 646.5499 4.6311 644.0248 5.0306 C643.3259 5.1412 640.7524 5.4234 638.3061 5.6578 C633.287 6.1386 629.8941 6.0252 622.7616 5.1381 C615.9839 4.2952 608.61 4.4802 603.358 5.6251 C599.8887 6.3813 591.713 9.6038 592.4383 9.9291 C592.597 10.0004 594.0973 9.6688 595.7718 9.1922 C598.7603 8.3418 602.728 7.7985 603.4814 8.1365 C603.6914 8.2307 602.6058 8.8325 601.0689 9.4738 C593.5362 12.6172 585.4778 14.4828 580.6176 14.2084 C577.1415 14.0121 575.0819 13.32 575.0819 12.348 C575.0819 11.1459 576.8444 10.5997 580.7234 10.5997 C584.3211 10.5997 587.3874 10.0447 588.3778 9.2143 C588.959 8.7271 588.8302 8.7108 586.5535 8.9835 C583.3365 9.3688 580.8007 8.7112 580.8007 7.4918 C580.8007 6.1577 582.1969 5.8844 588.5152 5.9817 C596.4034 6.1033 600.1221 5.2772 603.9844 2.5452 C605.3295 1.5937 605.3587 1.5909 601.5932 2.7721 Z" fill-rule="evenodd" clip-rule="evenodd" fill="white" stroke="none"/></g></svg>