<svg xmlns="http://www.w3.org/2000/svg" viewBox="0 0 950 35" fill="none"><g transform="translate(-294.5355,-10.8513) scale(1.6201)"><path d="M208.2168 5.2622 L213.1119 7.7098 L219.2308 8.9336 L231.4686 15.0524 L233.9161 15.0524 L238.8112 18.7238 L241.2588 18.7238 L244.9301 16.2762 L247.3776 16.2762 L255.9441 11.3811 L258.3916 11.3811 L273.077 4.0385 L274.3007 1.5909 L270.6294 1.5909 L263.2867 5.2622 L257.1679 6.486 L242.4825 13.8287 L235.1399 13.8287 L210.6644 1.5909 L208.2168 1.5909 L208.2168 5.2622 Z" fill-rule="evenodd" clip-rule="evenodd" fill="white" stroke="none"/>
  <path d="M302.4476 5.2622 L307.3427 7.7098 L309.7903 7.7098 L313.4616 10.1573 L315.9091 10.1573 L319.5805 12.6049 L322.028 12.6049 L325.6993 15.0524 L328.1469 15.0524 L333.042 18.7238 L335.4895 18.7238 L339.1609 16.2762 L341.6085 16.2762 L350.1748 11.3811 L352.6224 11.3811 L367.3077 4.0385 L368.5315 1.5909 L364.8602 1.5909 L357.5176 5.2622 L351.3987 6.486 L336.7133 13.8287 L329.3707 13.8287 L326.9231 11.3811 L324.4755 11.3811 L304.8952 1.5909 L302.4476 1.5909 L302.4476 5.2622 Z" fill-rule="evenodd" clip-rule="evenodd" fill="white" stroke="none"/>
  <path d="M395.4546 4.0385 L401.5735 7.7098 L404.021 7.7098 L407.6923 10.1573 L410.1399 10.1573 L413.8112 12.6049 L416.2588 12.6049 L422.3776 16.2762 L424.8252 16.2762 L427.2728 18.7238 L429.7204 18.7238 L435.8392 15.0524 L438.2868 15.0524 L446.8532 10.1573 L449.3007 10.1573 L461.5384 4.0385 L462.7623 1.5909 L459.0909 1.5909 L457.8672 2.8147 L451.7483 4.0385 L448.077 6.486 L445.6294 6.486 L439.5106 10.1573 L437.063 10.1573 L427.2728 15.0524 L407.6923 5.2622 L405.2448 5.2622 L399.1259 1.5909 L396.6784 1.5909 L395.4546 4.0385 Z" fill-rule="evenodd" clip-rule="evenodd" fill="white" stroke="none"/>
  <path d="M489.6853 5.2622 L494.5805 7.7098 L500.6993 8.9336 L506.8182 12.6049 L509.2658 12.6049 L512.9371 15.0524 L515.3846 15.0524 L522.7273 18.7238 L526.3986 16.2762 L528.8462 16.2762 L537.4126 11.3811 L539.8602 11.3811 L554.5455 4.0385 L555.7693 1.5909 L552.0979 1.5909 L544.7553 5.2622 L538.6364 6.486 L532.5175 10.1573 L530.07 10.1573 L520.2798 15.0524 L516.6084 12.6049 L514.1609 12.6049 L492.1329 1.5909 L489.6853 1.5909 L489.6853 5.2622 Z" fill-rule="evenodd" clip-rule="evenodd" fill="white" stroke="none"/>
  <path d="M583.9161 1.5909 L583.9161 4.0385 L585.1399 5.2622 L592.4825 8.9336 L594.9301 8.9336 L598.6014 11.3811 L601.049 11.3811 L607.1679 15.0524 L613.2868 16.2762 L615.7343 18.7238 L618.1818 18.7238 L624.3007 15.0524 L626.7482 15.0524 L629.1958 12.6049 L631.6434 12.6049 L635.3147 10.1573 L637.7623 10.1573 L651.2238 2.8147 L651.2238 1.5909 L647.5525 1.5909 L646.3287 2.8147 L640.2099 4.0385 L636.5385 6.486 L634.0909 6.486 L630.4197 8.9336 L624.3007 10.1573 L614.5105 15.0524 L587.5874 1.5909 L583.9161 1.5909 Z" fill-rule="evenodd" clip-rule="evenodd" fill="white" stroke="none"/>
  <path d="M676.9232 1.5909 L676.9232 4.0385 L678.1468 5.2622 L685.4896 8.9336 L687.9371 8.9336 L691.6084 11.3811 L694.056 11.3811 L700.1748 15.0524 L706.2938 16.2762 L708.7412 18.7238 L711.1889 18.7238 L713.6364 16.2762 L716.0839 16.2762 L730.7693 8.9336 L733.2168 8.9336 L740.5595 5.2622 L743.0071 2.8147 L744.2308 2.8147 L744.2308 1.5909 L740.5595 1.5909 L739.3357 2.8147 L736.8881 2.8147 L735.6643 4.0385 L729.5455 5.2622 L723.4266 8.9336 L720.9791 8.9336 L717.3077 11.3811 L714.8601 11.3811 L707.5176 15.0524 L683.0419 2.8147 L676.9232 1.5909 Z" fill-rule="evenodd" clip-rule="evenodd" fill="white" stroke="none"/>
  <path d="M193.5315 2.8147 L237.5875 27.2903 L242.4825 27.2903 L285.3147 4.0385 L331.8182 27.2903 L336.7133 27.2903 L379.5455 4.0385 L426.049 27.2903 L433.3917 26.0664 L473.7762 4.0385 L519.056 27.2903 L523.9511 27.2903 L568.0071 4.0385 L613.2868 27.2903 L618.1818 27.2903 L662.2378 4.0385 L707.5176 27.2903 L712.4127 27.2903 L755.2447 5.2622 L754.0211 2.8147 L708.7412 23.6189 L665.9092 2.8147 L659.7902 2.8147 L614.5105 23.6189 L580.2447 6.486 L566.7833 2.8147 L520.2798 23.6189 L486.0141 6.486 L472.5525 2.8147 L426.049 23.6189 L384.4406 2.8147 L378.3218 2.8147 L341.6085 21.1713 L331.8182 23.6189 L290.2098 2.8147 L284.0909 2.8147 L242.4825 23.6189 L237.5875 23.6189 L193.5315 2.8147 Z" fill-rule="evenodd" clip-rule="evenodd" fill="white" stroke="none"/>
  <path d="M193.5315 8.9336 L193.5315 13.8287 L194.7553 15.0524 L194.7553 22.3952 L195.979 23.6189 L195.979 29.7378 L197.2028 30.9615 L199.6504 30.9615 L199.6504 28.514 L198.4266 27.2903 L198.4266 22.3952 L197.2028 21.1713 L197.2028 16.2762 L195.979 15.0524 L195.979 11.3811 L194.7553 8.9336 L193.5315 8.9336 Z" fill-rule="evenodd" clip-rule="evenodd" fill="white" stroke="none"/>
  <path d="M285.3147 8.9336 L284.0909 11.3811 L284.0909 13.8287 L282.8672 15.0524 L282.8672 19.9476 L281.6434 21.1713 L281.6434 24.8427 L280.4196 26.0664 L280.4196 30.9615 L282.8672 30.9615 L284.0909 28.514 L284.0909 21.1713 L285.3147 19.9476 L285.3147 13.8287 L286.5385 12.6049 L288.9861 17.5 L288.9861 22.3952 L290.2098 23.6189 L290.2098 30.9615 L292.6574 30.9615 L292.6574 22.3952 L291.4336 21.1713 L291.4336 16.2762 L290.2098 15.0524 L288.9861 8.9336 L285.3147 8.9336 Z" fill-rule="evenodd" clip-rule="evenodd" fill="white" stroke="none"/>
  <path d="M379.5455 8.9336 L378.3218 10.1573 L378.3218 13.8287 L375.8742 18.7238 L375.8742 23.6189 L374.6504 24.8427 L374.6504 30.9615 L377.0979 30.9615 L377.0979 27.2903 L378.3218 26.0664 L378.3218 19.9476 L379.5455 18.7238 L379.5455 15.0524 L380.7693 13.8287 L383.2169 17.5 L383.2169 24.8427 L384.4406 26.0664 L384.4406 29.7378 L386.8881 30.9615 L386.8881 22.3952 L384.4406 17.5 L384.4406 12.6049 L381.993 8.9336 L379.5455 8.9336 Z" fill-rule="evenodd" clip-rule="evenodd" fill="white" stroke="none"/>
  <path d="M473.7762 8.9336 L472.5525 10.1573 L472.5525 12.6049 L471.3287 13.8287 L471.3287 17.5 L470.105 18.7238 L470.105 23.6189 L468.8811 24.8427 L468.8811 30.9615 L471.3287 30.9615 L471.3287 27.2903 L472.5525 26.0664 L472.5525 17.5 L475.0001 13.8287 L477.4476 16.2762 L477.4476 26.0664 L478.6714 27.2903 L478.6714 30.9615 L481.1189 30.9615 L481.1189 24.8427 L479.8951 23.6189 L479.8951 18.7238 L478.6714 17.5 L478.6714 13.8287 L477.4476 12.6049 L477.4476 10.1573 L476.2238 8.9336 L473.7762 8.9336 Z" fill-rule="evenodd" clip-rule="evenodd" fill="white" stroke="none"/>
  <path d="M568.0071 8.9336 L565.5595 12.6049 L565.5595 17.5 L564.3357 18.7238 L564.3357 22.3952 L563.1119 23.6189 L563.1119 30.9615 L565.5595 29.7378 L565.5595 24.8427 L566.7833 23.6189 L566.7833 17.5 L569.2308 12.6049 L570.4546 13.8287 L570.4546 18.7238 L571.6783 19.9476 L571.6783 26.0664 L572.9021 27.2903 L572.9021 30.9615 L575.3497 30.9615 L575.3497 24.8427 L574.1259 23.6189 L574.1259 18.7238 L571.6783 13.8287 L571.6783 10.1573 L570.4546 8.9336 L568.0071 8.9336 Z" fill-rule="evenodd" clip-rule="evenodd" fill="white" stroke="none"/>
  <path d="M661.014 8.9336 L661.014 11.3811 L659.7902 12.6049 L659.7902 16.2762 L658.5665 17.5 L658.5665 21.1713 L657.3427 22.3952 L657.3427 32.1854 L658.5665 32.1854 L659.7902 29.7378 L659.7902 23.6189 L661.014 22.3952 L661.014 17.5 L663.4615 12.6049 L664.6853 13.8287 L664.6853 19.9476 L665.9092 21.1713 L665.9092 27.2903 L667.1329 28.514 L667.1329 30.9615 L669.5805 30.9615 L669.5805 26.0664 L668.3567 24.8427 L668.3567 21.1713 L667.1329 19.9476 L667.1329 15.0524 L665.9092 13.8287 L665.9092 10.1573 L664.6853 8.9336 L661.014 8.9336 Z" fill-rule="evenodd" clip-rule="evenodd" fill="white" stroke="none"/>
  <path d="M756.4685 8.9336 L755.2447 8.9336 L754.0211 11.3811 L754.0211 15.0524 L752.7973 16.2762 L752.7973 21.1713 L751.5734 22.3952 L751.5734 30.9615 L754.0211 29.7378 L754.0211 23.6189 L755.2447 22.3952 L755.2447 15.0524 L756.4685 13.8287 L756.4685 8.9336 Z" fill-rule="evenodd" clip-rule="evenodd" fill="white" stroke="none"/>
  <path d="M203.3217 15.0524 L203.3217 21.1713 L204.5455 22.3952 L204.5455 28.514 L206.993 29.7378 L206.993 22.3952 L205.7693 21.1713 L205.7693 16.2762 L203.3217 15.0524 Z" fill-rule="evenodd" clip-rule="evenodd" fill="white" stroke="none"/>
  <path d="M276.7483 15.0524 L274.3007 15.0524 L274.3007 18.7238 L273.077 19.9476 L273.077 24.8427 L271.8532 26.0664 L271.8532 29.7378 L274.3007 29.7378 L275.5245 27.2903 L275.5245 19.9476 L276.7483 18.7238 L276.7483 15.0524 Z" fill-rule="evenodd" clip-rule="evenodd" fill="white" stroke="none"/>
  <path d="M297.5525 15.0524 L297.5525 22.3952 L298.7762 23.6189 L298.7762 28.514 L301.2238 29.7378 L301.2238 24.8427 L300 23.6189 L300 16.2762 L297.5525 15.0524 Z" fill-rule="evenodd" clip-rule="evenodd" fill="white" stroke="none"/>
  <path d="M369.7553 15.0524 L368.5315 15.0524 L368.5315 18.7238 L367.3077 19.9476 L367.3077 24.8427 L366.0839 26.0664 L366.0839 29.7378 L368.5315 29.7378 L368.5315 27.2903 L369.7553 26.0664 L369.7553 15.0524 Z" fill-rule="evenodd" clip-rule="evenodd" fill="white" stroke="none"/>
  <path d="M391.7832 15.0524 L391.7832 22.3952 L393.007 23.6189 L393.007 29.7378 L395.4546 29.7378 L395.4546 23.6189 L394.2308 22.3952 L394.2308 17.5 L393.007 15.0524 L391.7832 15.0524 Z" fill-rule="evenodd" clip-rule="evenodd" fill="white" stroke="none"/>
  <path d="M463.986 15.0524 L462.7623 15.0524 L462.7623 18.7238 L461.5384 19.9476 L461.5384 23.6189 L460.3147 24.8427 L460.3147 29.7378 L462.7623 29.7378 L462.7623 26.0664 L463.986 24.8427 L463.986 15.0524 Z" fill-rule="evenodd" clip-rule="evenodd" fill="white" stroke="none"/>
  <path d="M486.0141 15.0524 L486.0141 24.8427 L487.2378 26.0664 L487.2378 29.7378 L489.6853 29.7378 L489.6853 24.8427 L488.4616 23.6189 L487.2378 15.0524 L486.0141 15.0524 Z" fill-rule="evenodd" clip-rule="evenodd" fill="white" stroke="none"/>
  <path d="M558.2169 15.0524 L556.9931 15.0524 L555.7693 17.5 L555.7693 23.6189 L554.5455 24.8427 L554.5455 29.7378 L556.9931 29.7378 L556.9931 24.8427 L558.2169 23.6189 L558.2169 15.0524 Z" fill-rule="evenodd" clip-rule="evenodd" fill="white" stroke="none"/>
  <path d="M580.2447 15.0524 L580.2447 26.0664 L581.4686 27.2903 L581.4686 29.7378 L583.9161 29.7378 L583.9161 26.0664 L582.6923 24.8427 L582.6923 18.7238 L581.4686 17.5 L581.4686 15.0524 L580.2447 15.0524 Z" fill-rule="evenodd" clip-rule="evenodd" fill="white" stroke="none"/>
  <path d="M652.4476 15.0524 L651.2238 15.0524 L650.0001 17.5 L650.0001 23.6189 L648.7763 24.8427 L648.7763 29.7378 L651.2238 29.7378 L651.2238 23.6189 L652.4476 22.3952 L652.4476 15.0524 Z" fill-rule="evenodd" clip-rule="evenodd" fill="white" stroke="none"/>
  <path d="M673.2517 15.0524 L673.2517 18.7238 L674.4756 19.9476 L674.4756 26.0664 L675.6994 27.2903 L675.6994 29.7378 L678.1468 29.7378 L678.1468 27.2903 L676.9232 26.0664 L676.9232 19.9476 L675.6994 18.7238 L675.6994 15.0524 L673.2517 15.0524 Z" fill-rule="evenodd" clip-rule="evenodd" fill="white" stroke="none"/>
  <path d="M746.6783 15.0524 L745.4545 15.0524 L744.2308 17.5 L744.2308 21.1713 L743.0071 22.3952 L743.0071 29.7378 L745.4545 28.514 L745.4545 22.3952 L746.6783 21.1713 L746.6783 15.0524 Z" fill-rule="evenodd" clip-rule="evenodd" fill="white" stroke="none"/>
  <path d="M211.8881 18.7238 L211.8881 22.3952 L213.1119 23.6189 L213.1119 30.9615 L215.5595 30.9615 L215.5595 23.6189 L214.3357 22.3952 L214.3357 18.7238 L211.8881 18.7238 Z" fill-rule="evenodd" clip-rule="evenodd" fill="white" stroke="none"/>
  <path d="M266.9581 18.7238 L265.7343 18.7238 L265.7343 21.1713 L264.5106 22.3952 L264.5106 28.514 L263.2867 30.9615 L265.7343 30.9615 L266.9581 29.7378 L266.9581 18.7238 Z" fill-rule="evenodd" clip-rule="evenodd" fill="white" stroke="none"/>
  <path d="M306.1189 18.7238 L306.1189 27.2903 L307.3427 28.514 L307.3427 30.9615 L309.7903 30.9615 L309.7903 24.8427 L308.5665 23.6189 L308.5665 19.9476 L306.1189 18.7238 Z" fill-rule="evenodd" clip-rule="evenodd" fill="white" stroke="none"/>
  <path d="M361.1888 18.7238 L359.9651 18.7238 L359.9651 21.1713 L358.7413 22.3952 L358.7413 27.2903 L357.5176 28.514 L357.5176 30.9615 L359.9651 30.9615 L361.1888 29.7378 L361.1888 18.7238 Z" fill-rule="evenodd" clip-rule="evenodd" fill="white" stroke="none"/>
  <path d="M400.3497 18.7238 L400.3497 28.514 L401.5735 30.9615 L404.021 30.9615 L404.021 27.2903 L402.7972 26.0664 L402.7972 19.9476 L400.3497 18.7238 Z" fill-rule="evenodd" clip-rule="evenodd" fill="white" stroke="none"/>
  <path d="M455.4196 18.7238 L452.9721 19.9476 L452.9721 26.0664 L451.7483 27.2903 L451.7483 30.9615 L454.1958 30.9615 L455.4196 28.514 L455.4196 18.7238 Z" fill-rule="evenodd" clip-rule="evenodd" fill="white" stroke="none"/>
  <path d="M494.5805 18.7238 L494.5805 28.514 L495.8042 30.9615 L498.2517 30.9615 L498.2517 27.2903 L497.028 26.0664 L497.028 19.9476 L494.5805 18.7238 Z" fill-rule="evenodd" clip-rule="evenodd" fill="white" stroke="none"/>
  <path d="M549.6504 18.7238 L547.2028 19.9476 L547.2028 26.0664 L545.979 27.2903 L545.979 30.9615 L548.4266 30.9615 L549.6504 28.514 L549.6504 18.7238 Z" fill-rule="evenodd" clip-rule="evenodd" fill="white" stroke="none"/>
  <path d="M588.8113 18.7238 L588.8113 28.514 L590.0349 30.9615 L592.4825 30.9615 L592.4825 28.514 L591.2588 27.2903 L591.2588 22.3952 L590.0349 21.1713 L590.0349 18.7238 L588.8113 18.7238 Z" fill-rule="evenodd" clip-rule="evenodd" fill="white" stroke="none"/>
  <path d="M643.8812 18.7238 L641.4336 19.9476 L641.4336 23.6189 L640.2099 24.8427 L640.2099 30.9615 L642.6573 30.9615 L642.6573 28.514 L643.8812 27.2903 L643.8812 18.7238 Z" fill-rule="evenodd" clip-rule="evenodd" fill="white" stroke="none"/>
  <path d="M683.0419 18.7238 L683.0419 29.7378 L684.2658 30.9615 L686.7134 30.9615 L685.4896 28.514 L685.4896 22.3952 L684.2658 21.1713 L684.2658 18.7238 L683.0419 18.7238 Z" fill-rule="evenodd" clip-rule="evenodd" fill="white" stroke="none"/>
  <path d="M738.1119 18.7238 L735.6643 18.7238 L735.6643 22.3952 L734.4405 23.6189 L734.4405 30.9615 L736.8881 30.9615 L736.8881 27.2903 L738.1119 26.0664 L738.1119 18.7238 Z" fill-rule="evenodd" clip-rule="evenodd" fill="white" stroke="none"/>
  <path d="M221.6784 22.3952 L221.6784 29.7378 L222.9021 32.1854 L225.3497 32.1854 L225.3497 29.7378 L224.1259 28.514 L222.9021 22.3952 L221.6784 22.3952 Z" fill-rule="evenodd" clip-rule="evenodd" fill="white" stroke="none"/>
  <path d="M258.3916 22.3952 L257.1679 22.3952 L255.9441 24.8427 L255.9441 27.2903 L254.7204 28.514 L254.7204 32.1854 L257.1679 32.1854 L257.1679 29.7378 L258.3916 28.514 L258.3916 22.3952 Z" fill-rule="evenodd" clip-rule="evenodd" fill="white" stroke="none"/>
  <path d="M352.6224 22.3952 L350.1748 23.6189 L350.1748 26.0664 L348.9511 27.2903 L348.9511 33.4091 L351.3987 32.1854 L351.3987 28.514 L352.6224 27.2903 L352.6224 22.3952 Z" fill-rule="evenodd" clip-rule="evenodd" fill="white" stroke="none"/>
  <path d="M446.8532 22.3952 L444.4056 23.6189 L444.4056 26.0664 L443.1819 27.2903 L443.1819 32.1854 L445.6294 30.9615 L445.6294 28.514 L446.8532 27.2903 L446.8532 22.3952 Z" fill-rule="evenodd" clip-rule="evenodd" fill="white" stroke="none"/>
  <path d="M503.1469 22.3952 L504.3707 30.9615 L506.8182 32.1854 L506.8182 27.2903 L505.5944 26.0664 L505.5944 23.6189 L503.1469 22.3952 Z" fill-rule="evenodd" clip-rule="evenodd" fill="white" stroke="none"/>
  <path d="M597.3776 22.3952 L597.3776 27.2903 L598.6014 28.514 L598.6014 32.1854 L601.049 32.1854 L601.049 27.2903 L599.8252 26.0664 L599.8252 23.6189 L597.3776 22.3952 Z" fill-rule="evenodd" clip-rule="evenodd" fill="white" stroke="none"/>
  <path d="M691.6084 22.3952 L691.6084 28.514 L692.8322 29.7378 L692.8322 32.1854 L695.2798 32.1854 L695.2798 27.2903 L692.8322 22.3952 L691.6084 22.3952 Z" fill-rule="evenodd" clip-rule="evenodd" fill="white" stroke="none"/>
  <path d="M728.3217 22.3952 L727.0979 22.3952 L727.0979 24.8427 L725.8742 26.0664 L724.6504 32.1854 L727.0979 32.1854 L728.3217 29.7378 L728.3217 22.3952 Z" fill-rule="evenodd" clip-rule="evenodd" fill="white" stroke="none"/>
  <path d="M315.9091 23.6189 L315.9091 30.9615 L318.3567 32.1854 L318.3567 26.0664 L317.1329 23.6189 L315.9091 23.6189 Z" fill-rule="evenodd" clip-rule="evenodd" fill="white" stroke="none"/>
  <path d="M408.9161 23.6189 L408.9161 26.0664 L410.1399 27.2903 L410.1399 30.9615 L412.5874 32.1854 L412.5874 26.0664 L411.3637 23.6189 L408.9161 23.6189 Z" fill-rule="evenodd" clip-rule="evenodd" fill="white" stroke="none"/>
  <path d="M541.0839 23.6189 L538.6364 23.6189 L536.1888 32.1854 L538.6364 32.1854 L539.8602 30.9615 L539.8602 27.2903 L541.0839 26.0664 L541.0839 23.6189 Z" fill-rule="evenodd" clip-rule="evenodd" fill="white" stroke="none"/>
  <path d="M634.0909 23.6189 L632.8672 23.6189 L631.6434 26.0664 L631.6434 32.1854 L634.0909 30.9615 L634.0909 23.6189 Z" fill-rule="evenodd" clip-rule="evenodd" fill="white" stroke="none"/></g></svg>