<svg xmlns="http://www.w3.org/2000/svg" viewBox="0 0 950 35" fill="none"><g transform="translate(-2786.5619,-104.1387) scale(6.8664)"><path d="M 443.4553 4.0707 C 475.7803 4.0707 508.1053 4.0707 541.4099 4.0707 C 541.4099 13.6586 541.4099 23.2465 541.4099 33.125 C 509.0849 33.125 476.7599 33.125 443.4553 33.125 C 443.4553 23.5371 443.4553 13.9491 443.4553 4.0707 Z" fill-rule="evenodd" clip-rule="evenodd" fill="#FDFDFD" stroke="none"/>
  <path d="M 443.4553 4.0707 C 443.8042 4.0707 443.8042 4.0707 445.57 4.0711 C 445.9449 4.0753 445.9449 4.0753 447.842 4.097 C 448.2272 4.0982 448.2272 4.0982 450.1764 4.1041 C 452.2195 4.1119 454.2623 4.1268 456.3052 4.1452 C 458.3919 4.1622 460.4786 4.1696 462.5654 4.1781 C 466.6561 4.1964 470.7467 4.2242 474.8373 4.2592 C 474.583 5.1919 474.3256 6.1237 474.0667 7.0551 C 473.9237 7.5742 473.7807 8.0932 473.6333 8.6279 C 472.3728 12.6117 469.2972 16.286 465.7059 18.3713 C 462.1187 19.449 458.6307 19.3599 454.9143 19.357 C 454.2141 19.3576 453.514 19.3581 452.7926 19.3586 C 447.2585 19.3122 442.0518 18.7484 436.6516 17.5411 C 437.6803 14.8952 438.7892 12.3409 440.0758 9.8106 C 440.2224 9.5211 440.2224 9.5211 440.9643 8.0563 C 441.1848 7.6251 441.4052 7.1938 441.6323 6.7495 C 441.1315 7.0128 440.6307 7.276 440.1147 7.5472 C 438.1393 8.4923 436.3136 8.8812 434.1612 9.2399 C 433.8873 7.8702 433.6133 6.5005 433.3311 5.0893 C 433.6478 5.1749 433.6478 5.1749 435.2507 5.6081 C 437.4817 5.9194 437.4817 5.9194 438.6486 5.1205 C 440.3521 4.0118 441.4337 4.0585 443.4553 4.0707 Z" fill-rule="evenodd" clip-rule="evenodd" fill="#1D1D1D" stroke="none"/>
  <path d="M 443.4553 4.0707 C 447.6505 4.0296 451.8456 3.9995 456.0409 3.9795 C 457.4677 3.9711 458.8945 3.9598 460.3212 3.9454 C 462.3736 3.9253 464.4258 3.9159 466.4783 3.9085 C 467.1148 3.9 467.7514 3.8914 468.4072 3.8826 C 471.656 3.8819 473.8025 4.0415 476.6602 5.7309 C 477.4821 5.7309 478.3039 5.7309 479.1506 5.7309 C 478.8767 6.8267 478.6027 7.9224 478.3205 9.0514 C 475.4838 8.3968 472.7721 7.4995 470.0193 6.561 C 470.5158 7.1089 471.0123 7.6568 471.5239 8.2213 C 473.7343 10.9509 474.7479 14.0484 475.8301 17.3527 C 469.3568 18.5183 462.9557 19.2151 456.3741 19.3242 C 455.7563 19.3456 455.1384 19.367 454.5019 19.389 C 449.9093 19.4055 447.272 18.2369 443.4553 15.6924 C 443.4553 11.8572 443.4553 8.0221 443.4553 4.0707 Z" fill-rule="evenodd" clip-rule="evenodd" fill="#282828" stroke="none"/>
  <path d="M 443.4553 4.0707 C 444.2033 4.0857 444.9513 4.1006 445.7219 4.1161 C 446.2923 4.1353 446.8626 4.1546 447.4503 4.1744 C 447.1763 4.7223 446.9024 5.2702 446.6202 5.8347 C 446.807 8.8182 447.0975 12.1906 449.357 14.3208 C 451.8919 15.6209 454.5995 16.2127 457.4118 16.6263 C 457.4118 17.1742 457.4118 17.7221 457.4118 18.2865 C 458.7815 18.2865 460.1512 18.2865 461.5624 18.2865 C 461.5624 18.5605 461.5624 18.8344 461.5624 19.1167 C 452.8149 19.2954 444.4014 19.3729 435.8285 17.4564 C 436.8573 14.8105 437.9662 12.2562 439.2528 9.7259 C 439.3994 9.4364 439.3994 9.4364 440.1413 7.9716 C 440.3617 7.5404 440.5822 7.1091 440.8093 6.6648 C 440.3085 6.9281 439.8077 7.1913 439.2917 7.4625 C 437.3163 8.4076 435.4906 8.7964 433.3382 9.1552 C 433.0642 7.7855 432.7903 6.4158 432.508 5.0046 C 432.8248 5.0902 432.8248 5.0902 434.4277 5.5234 C 436.6587 5.8347 436.6587 5.8347 437.7741 5.0305 C 439.7036 3.8291 441.2063 4.0123 443.4553 4.0707 Z" fill-rule="evenodd" clip-rule="evenodd" fill="#686868" stroke="none"/>
  <path d="M 443.4553 4.0707 C 444.8385 4.1014 446.2229 4.1102 447.6059 4.0707 C 447.332 5.4404 447.058 6.8101 446.7758 8.2213 C 446.4154 8.1961 446.055 8.171 445.6836 8.1451 C 433.3122 7.3147 420.982 7.3008 408.5901 7.3912 C 408.5901 6.0215 408.5901 4.6518 408.5901 3.2406 C 432.5507 1.875 432.5507 1.875 443.4553 4.0707 Z" fill-rule="evenodd" clip-rule="evenodd" fill="#141414" stroke="none"/>
  <path d="M 443.4553 4.0707 C 447.8384 4.0707 452.2214 4.0707 456.7373 4.0707 C 453.9356 10.6079 453.9356 10.6079 451.1858 13.5652 C 450.669 14.1291 450.1521 14.6931 449.6196 15.2741 C 449.229 15.6861 448.8385 16.0981 448.436 16.5225 C 448.0594 16.3856 447.6827 16.2486 447.2946 16.1075 C 445.9457 15.6924 445.9457 15.6924 444.2854 15.6924 C 443.1749 15.4311 442.0673 15.1562 440.9649 14.8623 C 442.0607 14.3144 443.1565 13.7665 444.2854 13.202 C 444.3078 11.9915 444.3239 10.7809 444.3373 9.5702 C 444.3469 8.8961 444.3566 8.2219 444.3665 7.5274 C 444.2854 5.7309 444.2854 5.7309 443.4553 4.0707 Z" fill-rule="evenodd" clip-rule="evenodd" fill="#171717" stroke="none"/>
  <path d="M 443.4553 4.0707 C 444.2086 4.0728 444.962 4.075 445.7381 4.0772 C 446.1148 4.0761 446.1148 4.0761 448.021 4.0707 C 449.8888 4.1809 449.8888 4.1809 450.7189 5.011 C 450.8583 6.6681 450.8583 6.6681 450.8745 8.6947 C 450.8863 9.3614 450.8981 10.028 450.9102 10.7149 C 450.7189 12.4822 450.7189 12.4822 449.0586 14.1424 C 447.0604 14.61 445.2511 14.5742 443.2478 14.1424 C 441.5692 13.0376 440.6503 11.8648 439.9273 9.9918 C 439.8686 8.105 440.2102 6.8632 440.7574 5.011 C 441.5875 4.1809 441.5875 4.1809 443.4553 4.0707 Z" fill-rule="evenodd" clip-rule="evenodd" fill="#EEEEEE" stroke="none"/>
  <path d="M 443.4553 4.0707 C 444.0374 4.0493 444.6196 4.0279 445.2193 4.0058 C 446.7758 4.2782 446.7758 4.2782 447.7972 5.4099 C 448.7238 7.3806 448.6986 8.7659 448.436 10.9192 C 447.5022 12.8389 447.5022 12.8389 445.9457 14.2397 C 442.7695 14.7803 441.6584 14.6842 438.9415 12.9426 C 437.3268 10.4237 437.5132 9.1965 438.0141 6.3438 C 438.9325 3.8797 441.1543 4.1214 443.4553 4.0707 Z" fill-rule="evenodd" clip-rule="evenodd" fill="#F8F8F8" stroke="none"/>
  <path d="M 443.4553 4.0707 C 445.818 4.1045 447.9888 4.5297 450.3038 5.0046 C 451.687 5.0353 453.0715 5.0441 454.4544 5.0046 C 454.1805 6.3743 453.9066 7.744 453.6243 9.1552 C 453.1639 9.13 452.7035 9.1049 452.2292 9.079 C 450.1347 8.9651 448.0402 8.8526 445.9457 8.7401 C 445.5835 8.7203 445.5835 8.7203 443.7504 8.6201 C 443.0495 8.5827 442.3486 8.5452 441.6264 8.5066 C 440.9831 8.4719 440.3397 8.4371 439.6768 8.4013 C 437.959 8.3295 436.2505 8.3114 434.5315 8.3251 C 434.5315 7.5032 434.5315 6.6814 434.5315 5.8347 C 433.9836 5.8347 433.4357 5.8347 432.8712 5.8347 C 432.5973 6.3826 432.3233 6.9305 432.0411 7.4949 C 432.0411 6.9471 432.0411 6.3992 432.0411 5.8347 C 431.4932 5.5607 430.9453 5.2868 430.3809 5.0046 C 430.7356 5.0094 430.7356 5.0094 432.5307 5.0337 C 433.4571 5.0415 434.3834 5.0491 435.3097 5.0564 C 435.7779 5.0634 436.246 5.0704 436.7284 5.0775 C 437.9333 5.0847 439.1382 5.0478 440.3423 5.0046 C 441.1725 4.1744 441.1725 4.1744 443.4553 4.0707 Z" fill-rule="evenodd" clip-rule="evenodd" fill="#0F0F0F" stroke="none"/>
  <path d="M 443.4553 4.0707 C 443.8149 4.2419 444.1744 4.4131 444.5448 4.5895 C 444.2709 4.8634 443.997 5.1374 443.7147 5.4196 C 443.9093 7.0474 443.9093 7.0474 444.3373 9.0514 C 444.47 9.7084 444.6027 10.3655 444.7394 11.0424 C 445.375 12.8907 445.375 12.8907 447.8653 15.3811 C 444.578 15.3811 441.2908 15.3811 437.9039 15.3811 C 438.5264 9.7778 438.5264 9.7778 440.3942 7.91 C 440.1203 7.0882 439.8463 6.2664 439.5641 5.4196 C 441.7096 3.6828 441.7096 3.6828 443.4553 4.0707 Z" fill-rule="evenodd" clip-rule="evenodd" fill="#FBFBFB" stroke="none"/>
  <path d="M 443.4553 4.0707 C 444.5447 4.0483 445.6343 4.0322 446.7239 4.0188 C 447.3307 4.0092 447.9374 3.9995 448.5625 3.9896 C 450.0963 4.0707 450.0963 4.0707 450.9264 4.9008 C 451.273 7.5728 451.167 8.7115 449.5904 10.9387 C 449.004 11.5144 448.4176 12.0901 447.8135 12.6832 C 447.5245 12.9882 447.2356 13.2932 446.9379 13.6074 C 446.0624 14.4667 446.0624 14.4667 444.2854 15.6924 C 442.4047 15.4654 442.4047 15.4654 440.9649 14.8623 C 442.0607 14.3144 443.1565 13.7665 444.2854 13.202 C 444.3078 11.9915 444.3239 10.7809 444.3373 9.5702 C 444.3469 8.8961 444.3566 8.2219 444.3665 7.5274 C 444.2854 5.7309 444.2854 5.7309 443.4553 4.0707 Z" fill-rule="evenodd" clip-rule="evenodd" fill="#F1F1F1" stroke="none"/>
  <path d="M 443.4553 4.0707 C 444.9077 4.0256 446.3606 3.9935 447.8135 3.9669 C 448.6224 3.9476 449.4314 3.9284 450.2649 3.9085 C 452.6379 4.0743 453.8529 4.616 455.9072 5.7309 C 456.729 5.7309 457.5508 5.7309 458.3975 5.7309 C 458.1236 6.8267 457.8496 7.9224 457.5674 9.0514 C 454.7307 8.3968 452.019 7.4995 449.2662 6.561 C 449.8141 7.1089 450.3619 7.6568 450.9264 8.2213 C 451.3799 9.8728 451.5342 11.4971 451.7565 13.202 C 450.9347 13.202 450.1129 13.202 449.2662 13.202 C 448.3842 12.2584 448.3842 12.2584 447.6059 10.9711 C 447.4668 10.7458 447.4668 10.7458 446.7628 9.6059 C 446.628 9.3775 446.628 9.3775 445.9457 8.2213 C 445.8194 8.0142 445.8194 8.0142 445.1804 6.9664 C 444.5971 6.0061 444.025 5.0391 443.4553 4.0707 Z" fill-rule="evenodd" clip-rule="evenodd" fill="#868686" stroke="none"/>
  <path d="M 443.4553 4.0707 C 447.2091 6.7385 449.0434 8.6747 450.0963 13.202 C 449.2662 14.0322 449.2662 14.0322 447.1876 14.1132 C 446.3412 14.1077 445.4949 14.0978 444.6486 14.084 C 444.2168 14.0803 443.7851 14.0765 443.3402 14.0727 C 442.2717 14.0629 441.2032 14.048 440.1348 14.0322 C 440.5339 13.557 440.9331 13.0819 441.3443 12.5924 C 442.6911 10.6149 443.0004 9.5299 443.1959 7.1836 C 443.2505 6.5972 443.305 6.0108 443.3613 5.4067 C 443.3923 4.9658 443.4233 4.5249 443.4553 4.0707 Z" fill-rule="evenodd" clip-rule="evenodd" fill="#F6F6F6" stroke="none"/>
  <path d="M 443.4553 4.0707 C 443.7587 4.0755 443.7587 4.0755 445.2939 4.0999 C 445.9028 4.1073 446.5117 4.1148 447.139 4.1226 C 447.6087 4.1322 448.0785 4.1418 448.5625 4.1517 C 448.2886 4.6996 448.0146 5.2475 447.7324 5.812 C 447.3458 8.328 447.1887 10.6685 448.475 12.9264 C 449.3926 14.0613 449.3926 14.0613 451.0529 15.7735 C 448.4498 15.3494 446.0768 14.9307 444.146 13.0399 C 442.3819 10.4983 441.3592 8.1065 441.0914 4.9819 C 441.9215 4.1517 441.9215 4.1517 443.4553 4.0707 Z" fill-rule="evenodd" clip-rule="evenodd" fill="#F4F4F4" stroke="none"/>
  <path d="M 443.4553 4.0707 C 443.1814 4.6186 442.9074 5.1664 442.6252 5.7309 C 441.9403 5.594 441.9403 5.594 438.4746 4.9008 C 438.2006 5.4487 437.9267 5.9966 437.6444 6.561 C 437.6444 6.0132 437.6444 5.4653 437.6444 4.9008 C 436.8226 5.1747 436.0008 5.4487 435.1541 5.7309 C 435.7019 5.7309 436.2498 5.7309 436.8143 5.7309 C 436.5404 6.5527 436.2664 7.3746 435.9842 8.2213 C 433.5187 8.2213 431.0533 8.2213 428.5131 8.2213 C 428.787 7.1255 429.061 6.0298 429.3432 4.9008 C 428.7953 4.6269 428.2474 4.3529 427.683 4.0707 C 433.0794 3.4259 438.0718 3.068 443.4553 4.0707 Z" fill-rule="evenodd" clip-rule="evenodd" fill="#252525" stroke="none"/>
  <path d="M 443.4553 4.0707 C 445.6223 5.1542 445.6806 6.0283 446.4645 8.2732 C 446.5726 8.5776 446.5726 8.5776 447.1195 10.1183 C 447.28 10.588 447.4405 11.0578 447.6059 11.5418 C 444.8052 12.2886 442.0996 12.4947 439.2009 12.5794 C 438.4968 12.6008 437.7927 12.6222 437.0672 12.6443 C 434.7821 12.319 434.0862 11.648 432.6637 9.8815 C 433.3036 9.8601 433.9435 9.8387 434.6028 9.8167 C 435.4438 9.77 436.2847 9.7224 437.1256 9.674 C 437.5472 9.6622 437.9688 9.6505 438.4032 9.6383 C 439.6354 9.5573 439.6354 9.5573 441.7951 9.0514 C 443.0495 7.2677 443.4553 6.2462 443.4553 4.0707 Z" fill-rule="evenodd" clip-rule="evenodd" fill="#232323" stroke="none"/>
  <path d="M 443.4553 4.0707 C 445.6468 4.6186 447.8384 5.1664 450.0963 5.7309 C 450.0963 6.2788 450.0963 6.8267 450.0963 7.3912 C 451.466 7.3912 452.8357 7.3912 454.2469 7.3912 C 454.2469 7.6651 454.2469 7.9391 454.2469 8.2213 C 449.042 8.2213 443.8372 8.2213 438.4746 8.2213 C 438.4746 7.9474 438.4746 7.6734 438.4746 7.3912 C 437.1049 7.1172 435.7352 6.8433 434.3239 6.561 C 434.3239 6.2871 434.3239 6.0132 434.3239 5.7309 C 437.3373 5.7309 440.3506 5.7309 443.4553 5.7309 C 443.4553 5.183 443.4553 4.6352 443.4553 4.0707 Z" fill-rule="evenodd" clip-rule="evenodd" fill="#6C6C6C" stroke="none"/>
  <path d="M 443.4553 4.0707 C 444.2771 4.0707 445.0989 4.0707 445.9457 4.0707 C 445.9457 5.4404 445.9457 6.8101 445.9457 8.2213 C 449.233 8.2213 452.5203 8.2213 455.9072 8.2213 C 453.4168 10.7117 453.4168 10.7117 451.5036 10.984 C 450.7995 10.9626 450.0954 10.9412 449.3699 10.9192 C 448.638 10.8978 447.9061 10.8764 447.1519 10.8543 C 445.0002 10.7036 443.045 10.4362 440.9649 9.8815 C 442.5214 5.9385 442.5214 5.9385 443.4553 4.0707 Z" fill-rule="evenodd" clip-rule="evenodd" fill="#1B1B1B" stroke="none"/>
  <path d="M 443.4553 4.0707 C 443.7292 4.6186 444.0032 5.1664 444.2854 5.7309 C 447.2988 5.7309 450.3121 5.7309 453.4168 5.7309 C 453.4168 6.0049 453.4168 6.2788 453.4168 6.561 C 451.4992 6.835 449.5816 7.1089 447.6059 7.3912 C 447.6059 7.6651 447.6059 7.9391 447.6059 8.2213 C 442.675 8.2213 437.7441 8.2213 432.6637 8.2213 C 432.6637 7.9474 432.6637 7.6734 432.6637 7.3912 C 436.409 5.9296 439.4473 5.5175 443.4553 5.7309 C 443.4553 5.183 443.4553 4.6352 443.4553 4.0707 Z" fill-rule="evenodd" clip-rule="evenodd" fill="#7D7D7D" stroke="none"/>
  <path d="M 443.4553 4.0707 C 445.1156 4.9008 445.1156 4.9008 445.5241 6.0779 C 445.629 6.5626 445.7339 7.0474 445.8419 7.5468 C 446.6592 10.7368 448.1276 13.0834 450.0963 15.6924 C 449.1105 16.2631 449.1105 16.2631 447.6059 16.5225 C 444.7403 15.3939 444.7403 15.3939 443.4553 14.0322 C 443.1319 12.0994 443.0505 10.7942 443.1959 8.8958 C 443.2146 8.4319 443.2333 7.968 443.2526 7.4901 C 443.3014 6.3493 443.3758 5.2097 443.4553 4.0707 Z" fill-rule="evenodd" clip-rule="evenodd" fill="#4A4A4A" stroke="none"/>
  <path d="M 443.4553 4.0707 C 444.0032 4.0707 444.5511 4.0707 445.1156 4.0707 C 444.1655 8.736 442.2562 11.9862 439.3047 15.6924 C 438.2089 15.4185 437.1132 15.1445 435.9842 14.8623 C 436.3148 14.5006 436.6455 14.1389 436.9862 13.7663 C 439.7326 10.6791 441.7937 7.8554 443.4553 4.0707 Z" fill-rule="evenodd" clip-rule="evenodd" fill="#252525" stroke="none"/>
  <path d="M 443.4553 4.0707 C 444.2771 4.3446 445.0989 4.6186 445.9457 4.9008 C 444.0274 9.2195 442.0936 12.6073 438.4746 15.6924 C 437.9267 15.4185 437.3788 15.1445 436.8143 14.8623 C 437.1792 14.5402 437.5441 14.2181 437.9201 13.8862 C 439.5409 12.1136 440.5207 10.2152 441.5356 8.0656 C 441.7224 7.681 441.9091 7.2963 442.1015 6.8999 C 442.5574 5.959 443.007 5.0152 443.4553 4.0707 Z" fill-rule="evenodd" clip-rule="evenodd" fill="#F7F7F7" stroke="none"/>
  <path d="M 443.4553 4.0707 C 450.1235 3.7793 450.1235 3.7793 453.4168 5.7309 C 454.2386 5.7309 455.0604 5.7309 455.9072 5.7309 C 455.6332 6.8267 455.3593 7.9224 455.077 9.0514 C 453.2843 8.6673 451.7833 8.2351 450.1482 7.3912 C 448.436 6.561 448.436 6.561 446.2051 6.146 C 445.8883 6.0775 445.8883 6.0775 444.2854 5.7309 C 444.0115 5.183 443.7375 4.6352 443.4553 4.0707 Z" fill-rule="evenodd" clip-rule="evenodd" fill="#1E1E1E" stroke="none"/>
  <path d="M 443.4553 4.0707 C 445.3729 4.6186 447.2905 5.1664 449.2662 5.7309 C 448.9922 5.183 448.7183 4.6352 448.436 4.0707 C 450.3536 4.6186 452.2712 5.1664 454.2469 5.7309 C 453.973 6.5527 453.699 7.3746 453.4168 8.2213 C 447.4828 8.6102 447.4828 8.6102 444.7005 7.0799 C 443.4553 5.7309 443.4553 5.7309 443.4553 4.0707 Z" fill-rule="evenodd" clip-rule="evenodd" fill="#212121" stroke="none"/>
  <path d="M 443.4553 4.0707 C 444.5511 4.6186 445.6468 5.1664 446.7758 5.7309 C 446.8656 8.3569 446.7779 10.6966 445.9457 13.202 C 443.9099 14.8418 441.778 15.7169 439.3047 16.5225 C 438.7568 15.9746 438.2089 15.4268 437.6444 14.8623 C 438.8875 14.511 440.1305 14.1597 441.3735 13.8084 C 443.0023 13.0193 443.5262 12.3515 444.2854 10.7117 C 444.266 9.0157 444.266 9.0157 443.9741 7.2355 C 443.8821 6.6416 443.7901 6.0477 443.6953 5.4358 C 443.6161 4.9853 443.5369 4.5348 443.4553 4.0707 Z" fill-rule="evenodd" clip-rule="evenodd" fill="#141414" stroke="none"/>
  <path d="M 443.4553 4.0707 C 444.1059 4.1049 444.7565 4.1392 445.4268 4.1744 C 445.9747 5.5441 446.5226 6.9138 447.0871 8.3251 C 445.1305 8.4663 443.2277 8.5549 441.2762 8.3251 C 440.0829 7.0799 440.0829 7.0799 439.616 5.8347 C 441.2762 4.1744 441.2762 4.1744 443.4553 4.0707 Z" fill-rule="evenodd" clip-rule="evenodd" fill="#101010" stroke="none"/>
  <path d="M 443.4553 4.0707 C 444.7718 4.4339 444.7718 4.4339 445.9457 4.9008 C 443.1815 7.3491 441.4223 8.6197 437.6444 9.0514 C 437.3705 7.6817 437.0966 6.312 436.8143 4.9008 C 437.1311 4.9864 437.1311 4.9864 438.734 5.4196 C 441.2714 5.7737 441.5084 5.4866 443.4553 4.0707 Z" fill-rule="evenodd" clip-rule="evenodd" fill="#141414" stroke="none"/>
  <path d="M 443.4553 4.0707 C 443.8149 4.2419 444.1744 4.4131 444.5448 4.5895 C 442.9399 7.5587 441.6192 9.3402 438.734 11.2305 C 439.025 10.734 439.3161 10.2375 439.616 9.7259 C 440.3942 7.91 440.3942 7.91 440.0829 6.4573 C 439.9117 6.1149 439.7405 5.7724 439.5641 5.4196 C 441.7096 3.6828 441.7096 3.6828 443.4553 4.0707 Z" fill-rule="evenodd" clip-rule="evenodd" fill="#F2F2F2" stroke="none"/>
  <path d="M 443.4553 4.0707 C 446.1947 4.0707 448.9341 4.0707 451.7565 4.0707 C 452.0305 4.8925 452.3044 5.7143 452.5867 6.561 C 450.943 6.835 449.2994 7.1089 447.6059 7.3912 C 447.6059 6.5693 447.6059 5.7475 447.6059 4.9008 C 447.058 4.9008 446.5102 4.9008 445.9457 4.9008 C 445.6717 5.4487 445.3978 5.9966 445.1156 6.561 C 445.1156 6.0132 445.1156 5.4653 445.1156 4.9008 C 444.5677 4.6269 444.0198 4.3529 443.4553 4.0707 Z" fill-rule="evenodd" clip-rule="evenodd" fill="#050505" stroke="none"/>
  <path d="M 443.4553 4.0707 C 443.9222 5.2121 443.9222 5.2121 444.2854 6.561 C 444.0115 7.1089 443.7375 7.6568 443.4553 8.2213 C 441.8117 8.2213 440.168 8.2213 438.4746 8.2213 C 438.4746 7.9474 438.4746 7.6734 438.4746 7.3912 C 437.1049 7.1172 435.7352 6.8433 434.3239 6.561 C 434.3239 6.2871 434.3239 6.0132 434.3239 5.7309 C 437.3373 5.7309 440.3506 5.7309 443.4553 5.7309 C 443.4553 5.183 443.4553 4.6352 443.4553 4.0707 Z" fill-rule="evenodd" clip-rule="evenodd" fill="#8E8E8E" stroke="none"/>
  <path d="M 443.4553 4.0707 C 444.0032 4.3446 444.5511 4.6186 445.1156 4.9008 C 444.8994 6.1168 444.6832 7.3328 444.467 8.5488 C 444.2854 9.8815 444.2854 9.8815 444.2854 12.3719 C 443.4636 12.098 442.6418 11.824 441.7951 11.5418 C 441.7501 10.6083 441.718 9.6743 441.6913 8.7401 C 441.672 8.2201 441.6528 7.7 441.6329 7.1642 C 441.7951 5.7309 441.7951 5.7309 443.4553 4.0707 Z" fill-rule="evenodd" clip-rule="evenodd" fill="#373737" stroke="none"/>
  <path d="M 443.4553 4.0707 C 444.825 4.0707 446.1947 4.0707 447.6059 4.0707 C 447.332 5.4404 447.058 6.8101 446.7758 8.2213 C 445.954 8.0843 445.954 8.0843 441.7951 7.3912 C 442.8908 7.1172 443.9866 6.8433 445.1156 6.561 C 445.1156 6.0132 445.1156 5.4653 445.1156 4.9008 C 444.5677 4.6269 444.0198 4.3529 443.4553 4.0707 Z" fill-rule="evenodd" clip-rule="evenodd" fill="#242424" stroke="none"/>
  <path d="M 443.4553 4.0707 C 444.0779 5.3677 444.0779 5.3677 444.2854 6.561 C 442.9157 6.835 441.546 7.1089 440.1348 7.3912 C 440.1348 6.5693 440.1348 5.7475 440.1348 4.9008 C 439.313 4.6269 438.4912 4.3529 437.6444 4.0707 C 439.8184 3.0924 441.2442 3.1862 443.4553 4.0707 Z" fill-rule="evenodd" clip-rule="evenodd" fill="#040404" stroke="none"/>
  <path d="M 443.4553 4.0707 C 445.1674 4.4339 445.1674 4.4339 446.7758 4.9008 C 446.5019 5.9966 446.2279 7.0923 445.9457 8.2213 C 445.1239 8.2213 444.302 8.2213 443.4553 8.2213 C 442.9884 6.6129 442.9884 6.6129 442.6252 4.9008 C 442.8991 4.6269 443.1731 4.3529 443.4553 4.0707 Z" fill-rule="evenodd" clip-rule="evenodd" fill="#161616" stroke="none"/>
  <path d="M 443.4553 4.0707 C 443.7292 4.0707 444.0032 4.0707 444.2854 4.0707 C 444.3892 6.0422 444.3892 6.0422 444.2854 8.2213 C 443.7375 8.7692 443.1897 9.3171 442.6252 9.8815 C 440.8612 9.5702 440.8612 9.5702 439.3047 9.0514 C 439.9762 8.2189 440.6513 7.3893 441.3281 6.561 C 441.7037 6.0988 442.0793 5.6365 442.4663 5.1602 C 442.7927 4.8007 443.119 4.4411 443.4553 4.0707 Z" fill-rule="evenodd" clip-rule="evenodd" fill="#4D4D4D" stroke="none"/>
  <path d="M 443.4553 4.0707 C 447.1316 7.5098 447.1316 7.5098 447.6059 9.8815 C 444.3892 9.1552 444.3892 9.1552 443.4553 8.2213 C 443.4216 6.8382 443.4198 5.4538 443.4553 4.0707 Z" fill-rule="evenodd" clip-rule="evenodd" fill="#F5F5F5" stroke="none"/>
  <path d="M 443.4553 4.0707 C 444.2771 4.2076 444.2771 4.2076 448.436 4.9008 C 448.436 5.4487 448.436 5.9966 448.436 6.561 C 446.4645 7.0799 446.4645 7.0799 444.2854 7.3912 C 443.7375 6.8433 443.1897 6.2954 442.6252 5.7309 C 442.8991 5.183 443.1731 4.6352 443.4553 4.0707 Z" fill-rule="evenodd" clip-rule="evenodd" fill="#040404" stroke="none"/>
  <path d="M 443.4553 4.0707 C 444.0032 4.6186 444.5511 5.1664 445.1156 5.7309 C 444.8416 6.2788 444.5677 6.8267 444.2854 7.3912 C 441.82 7.1172 439.3545 6.8433 436.8143 6.561 C 439.2476 4.9388 440.5983 4.3637 443.4553 4.0707 Z" fill-rule="evenodd" clip-rule="evenodd" fill="#2A2A2A" stroke="none"/>
  <path d="M 443.4553 4.0707 C 444.5511 4.3446 445.6468 4.6186 446.7758 4.9008 C 446.5019 5.9966 446.2279 7.0923 445.9457 8.2213 C 445.1239 7.9474 444.302 7.6734 443.4553 7.3912 C 443.4553 6.2954 443.4553 5.1996 443.4553 4.0707 Z" fill-rule="evenodd" clip-rule="evenodd" fill="#202020" stroke="none"/>
  <path d="M 443.4553 4.0707 C 445.6468 4.0707 447.8384 4.0707 450.0963 4.0707 C 449.8224 4.8925 449.5484 5.7143 449.2662 6.561 C 447.2946 6.7167 447.2946 6.7167 445.1156 6.561 C 444.5677 5.7392 444.0198 4.9174 443.4553 4.0707 Z" fill-rule="evenodd" clip-rule="evenodd" fill="#515151" stroke="none"/>
  <path d="M 443.4553 4.0707 C 444.9891 4.1712 444.9891 4.1712 446.8277 4.4339 C 447.4366 4.5184 448.0454 4.6029 448.6728 4.69 C 448.9076 4.7248 448.9076 4.7248 450.0963 4.9008 C 449.8224 5.4487 449.5484 5.9966 449.2662 6.561 C 447.8965 6.2871 446.5268 6.0132 445.1156 5.7309 C 444.8416 6.2788 444.5677 6.8267 444.2854 7.3912 C 444.2854 6.8433 444.2854 6.2954 444.2854 5.7309 C 443.7375 5.457 443.1897 5.183 442.6252 4.9008 C 442.8991 4.6269 443.1731 4.3529 443.4553 4.0707 Z" fill-rule="evenodd" clip-rule="evenodd" fill="#353535" stroke="none"/>
  <path d="M 443.4553 4.0707 C 445.669 5.1775 447.8826 6.2843 450.0963 7.3912 C 445.4987 7.6977 445.4987 7.6977 443.5591 6.146 C 443.2509 5.7351 442.9427 5.3242 442.6252 4.9008 C 442.8991 4.6269 443.1731 4.3529 443.4553 4.0707 Z" fill-rule="evenodd" clip-rule="evenodd" fill="#2D2D2D" stroke="none"/>
  <path d="M 443.4553 4.0707 C 444.0032 4.3446 444.5511 4.6186 445.1156 4.9008 C 444.8416 6.2705 444.5677 7.6402 444.2854 9.0514 C 443.4636 8.7775 442.6418 8.5035 441.7951 8.2213 C 442.5214 5.0046 442.5214 5.0046 443.4553 4.0707 Z" fill-rule="evenodd" clip-rule="evenodd" fill="#656565" stroke="none"/>
  <path d="M 443.4553 4.0707 C 444.0032 4.0707 444.5511 4.0707 445.1156 4.0707 C 445.6634 5.4404 446.2113 6.8101 446.7758 8.2213 C 445.68 8.2213 444.5843 8.2213 443.4553 8.2213 C 442.9884 7.0799 442.9884 7.0799 442.6252 5.7309 C 442.8991 5.183 443.1731 4.6352 443.4553 4.0707 Z" fill-rule="evenodd" clip-rule="evenodd" fill="#141414" stroke="none"/>
  <path d="M 443.4553 4.0707 C 445.3729 4.6186 447.2905 5.1664 449.2662 5.7309 C 448.9922 6.5527 448.7183 7.3746 448.436 8.2213 C 447.6037 7.6887 446.774 7.1518 445.9457 6.6129 C 445.7145 6.4637 445.7145 6.4637 444.5448 5.7082 C 444.1853 5.4418 443.8257 5.1753 443.4553 4.9008 C 443.4553 4.6269 443.4553 4.3529 443.4553 4.0707 Z" fill-rule="evenodd" clip-rule="evenodd" fill="#1C1C1C" stroke="none"/>
  <path d="M 443.4553 4.0707 C 444.2771 4.3446 445.0989 4.6186 445.9457 4.9008 C 444.576 5.9966 443.2063 7.0923 441.7951 8.2213 C 441.5211 7.3995 441.2472 6.5776 440.9649 5.7309 C 442.0545 4.8489 442.0545 4.8489 443.4553 4.0707 Z" fill-rule="evenodd" clip-rule="evenodd" fill="#363636" stroke="none"/>
  <path d="M 443.4553 4.0707 C 444.5511 4.3446 445.6468 4.6186 446.7758 4.9008 C 446.5019 6.8184 446.2279 8.736 445.9457 10.7117 C 445.6717 10.7117 445.3978 10.7117 445.1156 10.7117 C 444.5677 8.5201 444.0198 6.3286 443.4553 4.0707 Z" fill-rule="evenodd" clip-rule="evenodd" fill="#0F0F0F" stroke="none"/>
  <path d="M 443.4553 4.0707 C 444.0032 5.1664 444.5511 6.2622 445.1156 7.3912 C 444.5677 7.3912 444.0198 7.3912 443.4553 7.3912 C 443.1814 7.9391 442.9074 8.4869 442.6252 9.0514 C 442.1064 7.9619 442.1064 7.9619 441.7951 6.561 C 442.5733 5.1602 442.5733 5.1602 443.4553 4.0707 Z" fill-rule="evenodd" clip-rule="evenodd" fill="#565656" stroke="none"/>
  <path d="M 443.4553 4.0707 C 444.825 4.0707 446.1947 4.0707 447.6059 4.0707 C 447.332 4.8925 447.058 5.7143 446.7758 6.561 C 445.954 6.561 445.1322 6.561 444.2854 6.561 C 444.0115 5.7392 443.7375 4.9174 443.4553 4.0707 Z" fill-rule="evenodd" clip-rule="evenodd" fill="#525252" stroke="none"/>
  <path d="M 443.4553 4.0707 C 443.8149 4.2419 444.1744 4.4131 444.5448 4.5895 C 443.997 4.5895 443.4491 4.5895 442.8846 4.5895 C 442.6107 5.4113 442.3367 6.2331 442.0545 7.0799 C 441.2326 7.0799 440.4108 7.0799 439.5641 7.0799 C 439.5641 6.532 439.5641 5.9841 439.5641 5.4196 C 440.9709 4.1468 441.5598 3.6495 443.4553 4.0707 Z" fill-rule="evenodd" clip-rule="evenodd" fill="#B1B1B1" stroke="none"/>
  <path d="M 443.4553 4.0707 C 445.0989 4.0707 446.7426 4.0707 448.436 4.0707 C 448.0251 4.4816 448.0251 4.4816 445.9457 6.561 C 445.1239 6.2871 444.302 6.0132 443.4553 5.7309 C 443.4553 5.183 443.4553 4.6352 443.4553 4.0707 Z" fill-rule="evenodd" clip-rule="evenodd" fill="#F7F7F7" stroke="none"/>
  <path d="M 443.4553 4.0707 C 445.3729 4.0707 447.2905 4.0707 449.2662 4.0707 C 448.1704 4.8925 447.0746 5.7143 445.9457 6.561 C 445.1239 5.7392 444.302 4.9174 443.4553 4.0707 Z" fill-rule="evenodd" clip-rule="evenodd" fill="#EFEFEF" stroke="none"/>
  <path d="M 443.4553 4.0707 C 444.6486 4.3301 444.6486 4.3301 445.9457 4.9008 C 446.5164 6.1979 446.5164 6.1979 446.7758 7.3912 C 445.68 7.1172 444.5843 6.8433 443.4553 6.561 C 443.4553 5.7392 443.4553 4.9174 443.4553 4.0707 Z" fill-rule="evenodd" clip-rule="evenodd" fill="#252525" stroke="none"/>
  <path d="M 443.4553 4.0707 C 444.0032 4.0707 444.5511 4.0707 445.1156 4.0707 C 444.8416 5.4404 444.5677 6.8101 444.2854 8.2213 C 443.7375 7.1255 443.1897 6.0298 442.6252 4.9008 C 442.8991 4.6269 443.1731 4.3529 443.4553 4.0707 Z" fill-rule="evenodd" clip-rule="evenodd" fill="#373737" stroke="none"/>
  <path d="M 443.4553 4.0707 C 444.0032 4.3446 444.5511 4.6186 445.1156 4.9008 C 444.8416 5.7226 444.5677 6.5444 444.2854 7.3912 C 443.7375 7.1172 443.1897 6.8433 442.6252 6.561 C 442.8991 5.7392 443.1731 4.9174 443.4553 4.0707 Z" fill-rule="evenodd" clip-rule="evenodd" fill="#080808" stroke="none"/>
  <path d="M 443.4553 4.0707 C 444.2771 4.3446 445.0989 4.6186 445.9457 4.9008 C 445.3978 5.1747 445.3978 5.1747 442.6252 6.561 C 442.8991 5.7392 443.1731 4.9174 443.4553 4.0707 Z" fill-rule="evenodd" clip-rule="evenodd" fill="#2A2A2A" stroke="none"/>
  <path d="M 443.4553 4.0707 C 444.2771 4.0707 445.0989 4.0707 445.9457 4.0707 C 445.6717 4.8925 445.3978 5.7143 445.1156 6.561 C 444.2937 6.0132 443.4719 5.4653 442.6252 4.9008 C 442.8991 4.6269 443.1731 4.3529 443.4553 4.0707 Z" fill-rule="evenodd" clip-rule="evenodd" fill="#404040" stroke="none"/>
  <path d="M 443.4553 4.0707 C 444.2771 4.3446 445.0989 4.6186 445.9457 4.9008 C 445.1239 5.4487 444.302 5.9966 443.4553 6.561 C 443.4553 5.7392 443.4553 4.9174 443.4553 4.0707 Z" fill-rule="evenodd" clip-rule="evenodd" fill="#515151" stroke="none"/>
  <path d="M 443.4553 4.0707 C 444.0032 4.3446 444.5511 4.6186 445.1156 4.9008 C 445.1156 5.4487 445.1156 5.9966 445.1156 6.561 C 444.2937 6.561 443.4719 6.561 442.6252 6.561 C 442.8991 5.7392 443.1731 4.9174 443.4553 4.0707 Z" fill-rule="evenodd" clip-rule="evenodd" fill="#2F2F2F" stroke="none"/>
  <path d="M 443.4553 4.0707 C 444.0032 4.0707 444.5511 4.0707 445.1156 4.0707 C 444.8416 4.8925 444.5677 5.7143 444.2854 6.561 C 443.7375 6.0132 443.1897 5.4653 442.6252 4.9008 C 442.8991 4.6269 443.1731 4.3529 443.4553 4.0707 Z" fill-rule="evenodd" clip-rule="evenodd" fill="#0C0C0C" stroke="none"/>
  <path d="M 443.4553 4.0707 C 444.0032 4.3446 444.5511 4.6186 445.1156 4.9008 C 445.1156 5.4487 445.1156 5.9966 445.1156 6.561 C 444.2937 6.2871 443.4719 6.0132 442.6252 5.7309 C 442.8991 5.183 443.1731 4.6352 443.4553 4.0707 Z" fill-rule="evenodd" clip-rule="evenodd" fill="#7A7A7A" stroke="none"/>
  <path d="M 443.4553 4.0707 C 444.0032 4.3446 444.5511 4.6186 445.1156 4.9008 C 445.1156 5.4487 445.1156 5.9966 445.1156 6.561 C 444.2937 6.2871 443.4719 6.0132 442.6252 5.7309 C 442.8991 5.183 443.1731 4.6352 443.4553 4.0707 Z" fill-rule="evenodd" clip-rule="evenodd" fill="#3B3B3B" stroke="none"/>
  <path d="M 443.4553 4.0707 C 444.2771 4.3446 445.0989 4.6186 445.9457 4.9008 C 445.3978 5.4487 444.8499 5.9966 444.2854 6.561 C 444.0115 5.7392 443.7375 4.9174 443.4553 4.0707 Z" fill-rule="evenodd" clip-rule="evenodd" fill="#363636" stroke="none"/>
  <path d="M 443.4553 4.0707 C 444.2771 4.3446 445.0989 4.6186 445.9457 4.9008 C 445.3978 5.4487 444.8499 5.9966 444.2854 6.561 C 444.0115 5.7392 443.7375 4.9174 443.4553 4.0707 Z" fill-rule="evenodd" clip-rule="evenodd" fill="#252525" stroke="none"/>
  <path d="M 443.4553 4.0707 C 443.8662 4.3446 443.8662 4.3446 445.9457 5.7309 C 445.1239 6.0049 444.302 6.2788 443.4553 6.561 C 443.4553 5.7392 443.4553 4.9174 443.4553 4.0707 Z" fill-rule="evenodd" clip-rule="evenodd" fill="#494949" stroke="none"/>
  <path d="M 443.4553 4.0707 C 444.0032 4.0707 444.5511 4.0707 445.1156 4.0707 C 444.8416 4.8925 444.5677 5.7143 444.2854 6.561 C 443.7375 6.0132 443.1897 5.4653 442.6252 4.9008 C 442.8991 4.6269 443.1731 4.3529 443.4553 4.0707 Z" fill-rule="evenodd" clip-rule="evenodd" fill="#1D1D1D" stroke="none"/></g></svg>