<svg xmlns="http://www.w3.org/2000/svg" viewBox="0 0 950 35" fill="none"><g transform="translate(-539.5209,-19.8771) scale(2.1358)"><path d="M342.3183 1.5909 L339.1365 2.2273 L332.7728 6.0455 L331.5001 6.0455 L326.4092 9.2273 L325.1365 9.2273 L318.7729 13.0454 L316.2274 13.6818 L311.1365 16.8636 L309.8638 16.8636 L303.5001 20.6818 L302.2274 20.6818 L285.682 28.9545 L286.3183 32.1363 L287.5911 32.1363 L303.5001 23.8636 L304.7729 25.1363 L304.7729 30.8636 L307.3183 30.8636 L307.9547 30.2273 L307.9547 22.5909 L309.8638 20.6818 L313.682 18.7727 L314.9547 18.7727 L316.2274 20.0454 L316.2274 30.8636 L318.7729 30.8636 L319.4092 30.2273 L319.4092 16.8636 L321.3183 14.9545 L323.8638 14.3182 L325.1365 13.0454 L327.0456 13.6818 L327.0456 30.2273 L327.6819 30.8636 L330.2274 30.8636 L330.8638 30.2273 L330.8638 11.1364 L332.7728 9.2273 L334.0456 9.2273 L336.591 7.3182 L338.5001 7.3182 L339.1365 7.9545 L339.1365 30.8636 L341.6819 30.8636 L342.3183 30.2273 L342.3183 1.5909 Z" fill-rule="evenodd" clip-rule="evenodd" fill="white" stroke="none"/>
  <path d="M428.8637 1.5909 L426.9546 1.5909 L424.4091 2.8636 L423.1364 4.7728 L419.3182 5.4091 L412.9546 9.2273 L411.6819 9.2273 L409.1364 11.1364 L407.8637 11.1364 L405.3182 13.0454 L402.7728 13.6818 L397.6819 16.8636 L396.4091 16.8636 L372.2274 28.9545 L372.2274 31.5 L374.1365 32.1363 L389.4092 24.5 L390.6819 23.2273 L391.9546 23.8636 L391.3182 25.7727 L391.3182 30.8636 L393.8637 30.8636 L393.2274 25.1363 L394.5 23.8636 L394.5 22.5909 L396.4091 20.6818 L400.2273 18.7727 L402.1364 18.7727 L402.7728 19.4091 L402.7728 23.8636 L403.4092 24.5 L402.7728 30.8636 L405.3182 30.8636 L405.9546 28.9545 L404.6818 27.0454 L404.6818 25.1363 L405.9546 23.8636 L405.9546 16.8636 L407.8637 14.9545 L411.6819 13.0454 L413.5909 13.6818 L413.5909 16.2273 L414.2273 16.8636 L413.5909 17.5 L413.5909 21.3182 L414.8637 24.5 L414.2273 30.8636 L416.1364 30.2273 L416.1364 29.5909 L414.8637 28.9545 L417.4092 27.0454 L417.4092 15.5909 L416.7728 14.9545 L417.4092 11.1364 L419.3182 9.2273 L421.8637 8.5909 L423.7727 4.7728 L424.4091 6.0455 L426.3182 7.3182 L426.3182 11.1364 L425.6819 11.7727 L426.3182 28.3182 L425.6819 28.9545 L425.6819 30.8636 L428.2273 30.8636 L428.8637 30.2273 L428.8637 16.8636 L427.591 13.6818 L427.591 6.6818 L428.8637 4.7728 L428.8637 1.5909 Z" fill-rule="evenodd" clip-rule="evenodd" fill="white" stroke="none"/>
  <path d="M515.4091 1.5909 L513.4999 1.5909 L500.7727 7.9545 L499.5 9.2273 L498.2273 9.2273 L491.8636 13.0454 L490.5909 13.0454 L458.7727 28.9545 L458.1364 30.2273 L459.4091 32.1363 L460.6819 32.1363 L476.5909 23.8636 L477.8636 25.1363 L477.8636 30.8636 L480.4091 30.8636 L481.0454 30.2273 L481.0454 22.5909 L482.9546 20.6818 L486.7727 18.7727 L488.0455 18.7727 L488.6818 19.4091 L488.6818 30.2273 L489.3182 30.8636 L491.8636 30.8636 L492.5 30.2273 L492.5 16.8636 L494.409 14.9545 L498.2273 13.0454 L499.5 13.0454 L500.1363 13.6818 L500.1363 30.2273 L500.7727 30.8636 L503.3182 30.8636 L503.9545 29.5909 L503.9545 13.0454 L503.3182 12.4091 L505.8636 9.2273 L509.6818 7.3182 L510.9545 7.3182 L511.5909 7.9545 L511.5909 29.5909 L512.2273 30.8636 L514.7727 30.8636 L515.4091 30.2273 L515.4091 1.5909 Z" fill-rule="evenodd" clip-rule="evenodd" fill="white" stroke="none"/>
  <path d="M601.9544 1.5909 L600.0454 1.5909 L587.3181 7.9545 L586.0453 9.2273 L584.7726 9.2273 L545.3181 28.9545 L544.6818 30.2273 L545.9545 32.1363 L547.2272 32.1363 L563.1363 23.8636 L564.409 25.1363 L564.409 30.8636 L566.9544 30.8636 L567.5908 30.2273 L567.5908 22.5909 L569.4999 20.6818 L573.3181 18.7727 L575.2272 18.7727 L575.8635 19.4091 L575.8635 30.8636 L578.409 30.8636 L579.0454 30.2273 L579.0454 16.8636 L580.9544 14.9545 L584.7726 13.0454 L586.0453 13.0454 L586.6817 13.6818 L586.6817 30.2273 L587.3181 30.8636 L589.8635 30.8636 L590.4999 30.2273 L590.4999 11.1364 L592.409 9.2273 L597.4999 6.6818 L598.7727 7.9545 L598.7727 30.8636 L601.3181 30.8636 L601.9544 30.2273 L601.9544 1.5909 Z" fill-rule="evenodd" clip-rule="evenodd" fill="white" stroke="none"/>
  <path d="M688.4998 1.5909 L686.5907 1.5909 L658.5908 15.5909 L657.318 16.8636 L656.0453 16.8636 L631.8636 28.9545 L631.8636 31.5 L633.7726 32.1363 L649.6817 23.8636 L650.9545 25.1363 L650.9545 30.8636 L653.4999 30.8636 L654.1362 30.2273 L654.1362 22.5909 L656.0453 20.6818 L659.8635 18.7727 L661.7726 19.4091 L661.7726 29.5909 L662.4089 30.8636 L664.9544 30.8636 L665.5907 30.2273 L665.5907 16.8636 L667.4998 14.9545 L671.318 13.0454 L673.2271 13.6818 L673.2271 30.2273 L673.8635 30.8636 L676.4089 30.8636 L677.0453 30.2273 L677.0453 11.1364 L678.9544 9.2273 L682.7726 7.3182 L684.6816 7.3182 L685.318 7.9545 L685.318 30.8636 L687.8635 30.8636 L688.4998 30.2273 L688.4998 1.5909 Z" fill-rule="evenodd" clip-rule="evenodd" fill="white" stroke="none"/>
  <path d="M663.0453 2.2273 L646.4999 10.5 L644.5908 9.8636 L644.5908 4.1364 L642.0453 4.1364 L641.409 4.7728 L641.409 12.4091 L638.2271 14.9545 L635.0453 16.2273 L633.7726 15.5909 L633.7726 4.7728 L633.1362 4.1364 L630.5908 4.1364 L629.9544 4.7728 L629.9544 18.7727 L623.5908 21.9545 L622.3181 21.3182 L622.3181 4.1364 L619.1362 4.1364 L619.1362 23.2273 L615.3181 26.4091 L614.0453 26.4091 L612.1362 27.6818 L610.8635 27.0454 L610.8635 4.7728 L610.2272 4.1364 L607.6818 4.1364 L607.0453 4.7728 L607.0453 33.4091 L608.9544 33.4091 L610.2272 32.1363 L615.3181 29.5909 L616.5908 29.5909 L617.8636 28.3182 L620.409 27.6818 L621.6817 26.4091 L624.2271 25.7727 L625.4999 24.5 L628.0453 23.8636 L629.3181 22.5909 L630.5908 22.5909 L633.1362 20.6818 L634.409 20.6818 L636.9545 18.7727 L639.4999 18.1364 L640.7726 16.8636 L643.318 16.2273 L644.5908 14.9545 L645.8635 14.9545 L648.4089 13.0454 L649.6817 13.0454 L661.1362 6.6818 L662.4089 6.6818 L664.318 5.4091 L663.0453 2.2273 Z" fill-rule="evenodd" clip-rule="evenodd" fill="white" stroke="none"/>
  <path d="M318.1365 4.1364 L316.8638 2.8636 L315.591 2.8636 L309.8638 6.0455 L308.591 6.0455 L306.0456 7.9545 L304.7729 7.9545 L300.9547 10.5 L299.0456 9.8636 L299.0456 4.7728 L298.4092 4.1364 L295.8638 4.1364 L295.2274 4.7728 L295.2274 9.2273 L295.8638 9.8636 L295.2274 10.5 L295.2274 12.4091 L293.3183 14.3182 L289.5001 16.2273 L287.5911 15.5909 L287.5911 4.1364 L284.4092 4.1364 L284.4092 17.5 L283.1365 19.4091 L281.8638 19.4091 L280.5911 20.6818 L277.4092 21.9545 L276.1365 21.3182 L276.1365 4.1364 L272.9547 4.1364 L272.9547 23.2273 L271.682 25.1363 L270.4093 25.1363 L265.9547 27.6818 L264.682 27.0454 L264.682 4.7728 L264.0456 4.1364 L261.5002 4.1364 L261.5002 33.4091 L262.7729 33.4091 L264.0456 32.1363 L265.3183 32.1363 L267.8638 30.2273 L269.1365 30.2273 L271.682 28.3182 L272.9547 28.3182 L275.5002 26.4091 L276.7729 26.4091 L283.1365 22.5909 L284.4092 22.5909 L286.9547 20.6818 L288.2274 20.6818 L297.1365 16.2273 L298.4092 14.9545 L299.682 14.9545 L302.2274 13.0454 L303.5001 13.0454 L306.0456 11.1364 L307.3183 11.1364 L313.682 7.3182 L316.2274 6.6818 L318.1365 5.4091 L318.1365 4.1364 Z" fill-rule="evenodd" clip-rule="evenodd" fill="white" stroke="none"/>
  <path d="M404.0455 3.5 L402.1364 2.8636 L396.4091 6.0455 L395.1364 6.0455 L392.591 7.9545 L391.3182 7.9545 L387.5001 10.5 L386.2273 10.5 L384.9546 9.2273 L384.9546 4.1364 L382.4092 4.1364 L381.7728 4.7728 L381.7728 13.0454 L375.4092 16.2273 L374.1365 15.5909 L374.1365 4.7728 L373.5001 4.1364 L370.9546 4.1364 L370.3183 4.7728 L370.3183 18.7727 L363.9546 21.9545 L362.6819 21.3182 L362.6819 4.7728 L362.0456 4.1364 L359.5001 4.1364 L359.5001 23.2273 L358.2274 25.1363 L356.9546 25.1363 L355.6819 26.4091 L352.5001 27.6818 L351.2274 27.0454 L351.2274 4.7728 L350.591 4.1364 L348.0456 4.1364 L347.4092 4.7728 L347.4092 32.7727 L349.3183 33.4091 L350.591 32.1363 L351.8637 32.1363 L354.4092 30.2273 L355.6819 30.2273 L358.2274 28.3182 L359.5001 28.3182 L362.0456 26.4091 L364.591 25.7727 L365.8637 24.5 L369.6819 22.5909 L370.9546 22.5909 L373.5001 20.6818 L374.7728 20.6818 L381.1365 16.8636 L382.4092 16.8636 L388.7728 13.0454 L390.0455 13.0454 L398.9547 8.5909 L400.2273 7.3182 L404.0455 6.0455 L404.6818 5.4091 L404.0455 3.5 Z" fill-rule="evenodd" clip-rule="evenodd" fill="white" stroke="none"/>
  <path d="M490.5909 3.5 L488.6818 2.8636 L486.7727 4.1364 L485.5 4.1364 L484.2273 5.4091 L481.6818 6.0455 L480.4091 7.3182 L477.8636 7.9545 L474.0455 10.5 L472.1364 9.8636 L472.1364 4.7728 L471.5 4.1364 L468.9546 4.1364 L468.3182 4.7728 L468.3182 12.4091 L465.1364 14.9545 L461.9545 16.2273 L460.6819 15.5909 L460.6819 4.7728 L460.0455 4.1364 L457.5 4.1364 L457.5 17.5 L456.2273 19.4091 L454.9546 19.4091 L453.6818 20.6818 L450.5 21.9545 L449.2273 21.3182 L449.2273 5.4091 L447.9546 4.1364 L446.0455 4.1364 L446.0455 8.5909 L447.3182 10.5 L446.0455 11.7727 L446.0455 23.2273 L444.7727 25.1363 L443.5 25.1363 L442.2273 26.4091 L439.0455 27.6818 L437.7727 27.0454 L437.7727 19.4091 L436.5001 18.1364 L436.5001 16.8636 L437.7727 14.9545 L437.7727 9.2273 L436.5001 4.7728 L434.5909 4.7728 L434.5909 16.8636 L435.2273 17.5 L435.2273 19.4091 L433.9546 21.3182 L434.5909 22.5909 L434.5909 33.4091 L435.8637 33.4091 L437.1364 32.1363 L438.4091 32.1363 L440.9546 30.2273 L442.2273 30.2273 L444.7727 28.3182 L446.0455 28.3182 L448.5909 26.4091 L451.1364 25.7727 L452.4091 24.5 L453.6818 24.5 L454.9546 23.2273 L457.5 22.5909 L460.0455 20.6818 L461.3182 20.6818 L474.0455 14.3182 L475.3182 13.0454 L476.5909 13.0454 L479.1364 11.1364 L480.4091 11.1364 L486.7727 7.3182 L489.3182 6.6818 L491.2273 5.4091 L490.5909 3.5 Z" fill-rule="evenodd" clip-rule="evenodd" fill="white" stroke="none"/>
  <path d="M577.7726 4.1364 L576.4999 2.8636 L575.2272 2.8636 L559.9545 10.5 L558.6817 9.8636 L558.6817 4.7728 L558.0454 4.1364 L555.5 4.1364 L554.8636 4.7728 L554.8636 12.4091 L551.6817 14.9545 L548.4999 16.2273 L547.2272 15.5909 L547.2272 4.1364 L544.0454 4.1364 L544.0454 17.5 L540.2272 20.6818 L537.0455 21.9545 L535.7727 21.3182 L535.7727 4.1364 L532.5908 4.1364 L532.5908 23.2273 L530.6818 25.1363 L525.5909 27.6818 L524.3181 27.0454 L524.3181 4.7728 L523.6817 4.1364 L521.1363 4.1364 L520.5 4.7728 L521.1363 6.0455 L520.5 6.6818 L520.5 31.5 L521.1363 33.4091 L527.5 30.2273 L528.7727 30.2273 L531.3182 28.3182 L532.5908 28.3182 L535.1363 26.4091 L537.6817 25.7727 L538.9545 24.5 L540.2272 24.5 L542.7726 22.5909 L544.0454 22.5909 L546.5909 20.6818 L547.8635 20.6818 L550.4091 18.7727 L552.9545 18.1364 L554.2272 16.8636 L556.7726 16.2273 L558.0454 14.9545 L559.3181 14.9545 L565.6817 11.1364 L566.9544 11.1364 L572.0454 8.5909 L573.3181 7.3182 L575.8635 6.6818 L577.7726 5.4091 L577.7726 4.1364 Z" fill-rule="evenodd" clip-rule="evenodd" fill="white" stroke="none"/></g></svg>