<svg xmlns="http://www.w3.org/2000/svg" viewBox="0 0 950 35" fill="none"><g transform="translate(-2568.6695,-98.3277) scale(6.4077)"><path d="M 446.787 4.4909 C 479.5815 4.4909 512.3759 4.4909 546.1641 4.4909 C 546.1641 13.9402 546.1641 23.3894 546.1641 33.125 C 513.3697 33.125 480.5752 33.125 446.787 33.125 C 446.787 23.6757 446.787 14.2265 446.787 4.4909 Z" fill-rule="evenodd" clip-rule="evenodd" fill="#F6F6F6" stroke="none"/>
  <path d="M 446.787 4.4909 C 446.787 4.7688 446.787 5.0467 446.787 5.3331 C 443.174 5.8889 439.5611 6.4448 435.8387 7.0174 C 435.8387 7.2954 435.8387 7.5733 435.8387 7.8596 C 438.3399 8.1375 440.8412 8.4155 443.4183 8.7018 C 443.4183 8.146 443.4183 7.5901 443.4183 7.0174 C 442.3066 6.7395 441.1949 6.4616 440.0496 6.1753 C 442.5508 6.1753 445.0521 6.1753 447.6292 6.1753 C 448.2069 11.6639 446.2159 16.7491 443.1584 21.2851 C 441.6516 23.1406 440.5178 24.4691 438.3652 25.5454 C 436.9797 25.6467 436.9797 25.6467 435.3135 25.641 C 434.6898 25.6409 434.0661 25.6409 433.4234 25.6408 C 432.7505 25.6365 432.0776 25.6321 431.3843 25.6276 C 431.0397 25.627 431.0397 25.627 429.2957 25.624 C 427.0903 25.6193 424.885 25.6087 422.6796 25.598 C 421.1861 25.5938 419.6925 25.59 418.199 25.5865 C 414.5341 25.5772 410.8694 25.5631 407.2046 25.5454 C 407.5822 24.4733 407.9662 23.4035 408.3527 22.3346 C 408.5658 21.7386 408.7789 21.1426 408.9985 20.5285 C 410.0148 18.1417 411.3651 16.5113 413.0998 14.5971 C 410.0427 15.7087 406.9856 16.8204 403.8359 17.9658 C 404.678 15.4392 404.678 15.4392 406.0421 14.5101 C 406.6276 14.2272 407.2132 13.9443 407.8165 13.6529 C 408.4708 13.3358 409.1251 13.0188 409.7992 12.6921 C 410.5062 12.3654 411.2133 12.0387 411.9418 11.7021 C 412.6668 11.3661 413.3918 11.0302 414.1388 10.6841 C 425.1827 5.7024 434.6959 3.9189 446.787 4.4909 Z" fill-rule="evenodd" clip-rule="evenodd" fill="#363636" stroke="none"/>
  <path d="M 446.787 4.4909 C 461.7966 3.8208 474.3381 7.5639 487.2116 15.4392 C 487.7674 15.9951 488.3233 16.5509 488.896 17.1236 C 484.4769 16.557 480.4566 15.2365 476.2633 13.7549 C 476.2779 14.004 476.2779 14.004 476.3521 15.2649 C 476.3749 15.9304 476.3977 16.5959 476.4212 17.2815 C 476.4358 17.6088 476.4358 17.6088 476.51 19.2652 C 476.208 21.7978 475.5916 23.7696 473.7367 25.5454 C 471.689 26.1388 469.7117 26.0364 467.5947 25.9566 C 467.2974 25.9536 467.2974 25.9536 465.7929 25.9386 C 463.8957 25.915 462.0006 25.8622 460.104 25.8086 C 458.8171 25.7874 457.5303 25.7682 456.2434 25.751 C 453.0898 25.7082 449.9408 25.6258 446.787 25.5454 C 446.787 18.5974 446.787 11.6494 446.787 4.4909 Z" fill-rule="evenodd" clip-rule="evenodd" fill="#DDDDDD" stroke="none"/>
  <path d="M 446.787 4.4909 C 446.4483 4.6038 446.4483 4.6038 444.7342 5.1752 C 442.5761 6.1753 442.5761 6.1753 441.8918 7.5438 C 441.8658 7.7349 441.8658 7.7349 441.7339 8.7018 C 442.0032 8.7626 442.0032 8.7626 443.3656 9.0703 C 445.1026 9.544 445.1026 9.544 445.9448 10.3862 C 446.0618 12.0755 445.9809 13.7441 445.9448 15.4392 C 445.1111 15.7172 444.2773 15.9951 443.4183 16.2814 C 443.6962 14.6139 443.9741 12.9464 444.2605 11.2283 C 443.1488 10.9504 442.0371 10.6725 440.8917 10.3862 C 440.3359 12.0537 439.7801 13.7212 439.2074 15.4392 C 438.6515 15.1613 438.0957 14.8834 437.523 14.5971 C 437.523 13.7633 437.523 12.9295 437.523 12.0705 C 436.9672 12.0705 436.4113 12.0705 435.8387 12.0705 C 435.5607 12.9043 435.2828 13.738 434.9965 14.5971 C 434.2782 12.7116 434.1543 11.6563 434.1543 9.544 C 434.1314 10.737 434.1151 11.9301 434.1017 13.1232 C 434.0919 13.7876 434.0821 14.452 434.0721 15.1366 C 434.1543 17.1236 434.1543 17.1236 434.9965 20.4923 C 430.8277 20.4923 426.6589 20.4923 422.3638 20.4923 C 423.8393 16.1396 425.1737 12.9485 428.2591 9.544 C 425.2019 10.6557 422.1448 11.7673 418.9951 12.9127 C 419.9923 9.921 420.4469 9.8086 423.1533 8.4518 C 424.5699 7.7536 425.9913 7.0654 427.4169 6.3858 C 427.7648 6.2072 427.7648 6.2072 429.5256 5.3035 C 435.8104 2.284 440.217 2.8005 446.787 4.4909 Z" fill-rule="evenodd" clip-rule="evenodd" fill="#838383" stroke="none"/>
  <path d="M 446.787 4.4909 C 448.6205 10.1894 448.5111 13.3794 445.9448 18.808 C 441.4981 18.808 437.0514 18.808 432.47 18.808 C 430.8935 15.6551 430.5835 14.7317 430.6803 11.4389 C 430.6955 10.7658 430.7107 10.0927 430.7264 9.3992 C 430.7459 8.8912 430.7655 8.3831 430.7856 7.8596 C 431.6194 7.8596 432.4531 7.8596 433.3121 7.8596 C 433.3121 8.6934 433.3121 9.5271 433.3121 10.3862 C 433.868 10.3862 434.4238 10.3862 434.9965 10.3862 C 435.2744 11.2199 435.5523 12.0537 435.8387 12.9127 C 436.3945 11.2452 436.9503 9.5777 437.523 7.8596 C 438.2178 8.1375 438.2178 8.1375 441.7339 9.544 C 441.456 11.2115 441.1781 12.879 440.8917 14.5971 C 441.4476 14.3191 442.0034 14.0412 442.5761 13.7549 C 442.5761 12.0874 442.5761 10.4198 442.5761 8.7018 C 441.4644 8.146 440.3527 7.5901 439.2074 7.0174 C 439.4179 5.8068 439.4179 5.8068 440.0496 4.4909 C 442.5837 3.4423 444.2107 3.778 446.787 4.4909 Z" fill-rule="evenodd" clip-rule="evenodd" fill="#DFDFDF" stroke="none"/>
  <path d="M 446.787 4.4909 C 447.2212 4.4947 447.6555 4.4985 448.1029 4.5024 C 449.1732 4.5123 450.2435 4.5274 451.3137 4.5435 C 451.1758 4.9821 451.038 5.4207 450.8959 5.8726 C 450.3539 8.4775 450.381 10.9457 450.4189 13.597 C 450.4227 14.104 450.4265 14.6109 450.4304 15.1333 C 450.4403 16.3758 450.4554 17.6182 450.4715 18.8606 C 448.9319 18.6797 448.9319 18.6797 447.1028 18.0184 C 445.8527 16.2781 445.8527 16.2781 444.7868 14.176 C 444.4264 13.4801 444.066 12.7842 443.6946 12.0672 C 443.4297 11.5298 443.1648 10.9925 442.8919 10.4388 C 442.0497 12.1232 442.0497 12.1232 442.4017 13.2746 C 443.9084 16.2268 445.4744 18.33 447.945 20.5449 C 445.4437 20.5449 442.9424 20.5449 440.3654 20.5449 C 440.3654 15.5424 440.3654 10.5399 440.3654 5.3857 C 442.5252 4.3058 444.4327 4.4521 446.787 4.4909 Z" fill-rule="evenodd" clip-rule="evenodd" fill="#F9F9F9" stroke="none"/>
  <path d="M 446.787 4.4909 C 455.1489 5.9932 463.9271 10.08 470.5193 15.4721 C 466.1003 14.9056 462.08 13.5851 457.8867 12.1034 C 457.9013 12.3526 457.9013 12.3526 457.9755 13.6134 C 458.122 17.8906 458.0066 20.4755 455.3601 23.8939 C 455.0822 23.3381 454.8043 22.7823 454.5179 22.2096 C 454.7959 21.6537 455.0738 21.0979 455.3601 20.5252 C 455.4187 19.2281 455.4313 17.9285 455.4128 16.6301 C 455.3954 15.4142 455.378 14.1983 455.3601 12.9456 C 452.0251 11.8339 448.6901 10.7222 445.254 9.5769 C 445.5319 9.021 445.8098 8.4652 446.0961 7.8925 C 445.2624 7.3367 444.4286 6.7808 443.5696 6.2082 C 445.254 4.5238 445.254 4.5238 446.787 4.4909 Z" fill-rule="evenodd" clip-rule="evenodd" fill="#323232" stroke="none"/>
  <path d="M 446.787 4.4909 C 450.3999 4.4909 454.0129 4.4909 457.7353 4.4909 C 455.2088 7.0174 455.2088 7.0174 453.6725 7.2642 C 453.1546 7.2349 452.6368 7.2056 452.1033 7.1754 C 451.8411 7.164 451.8411 7.164 450.5143 7.1063 C 450.118 7.077 449.7218 7.0476 449.3135 7.0174 C 449.3135 7.5733 449.3135 8.1291 449.3135 8.7018 C 450.0746 8.6823 450.8356 8.6627 451.6197 8.6426 C 452.623 8.6268 453.6264 8.6115 454.6298 8.5965 C 454.8803 8.5895 454.8803 8.5895 456.148 8.5538 C 460.7342 8.5025 460.7342 8.5025 462.7884 10.3862 C 462.2673 10.4383 461.7462 10.4904 461.2093 10.5441 C 459.4197 11.2283 459.4197 11.2283 458.367 13.0706 C 457.1025 17.8122 457.7161 21.0735 459.4197 25.5454 C 456.1498 25.9347 454.3025 25.823 451.6295 23.8084 C 449.3809 21.7314 448.449 19.7503 447.6555 16.8275 C 447.6217 15.0448 448.2193 14.2805 449.3135 12.9127 C 449.5372 13.4305 449.7608 13.9484 449.9912 14.4819 C 450.2887 15.1626 450.5861 15.8433 450.8926 16.5446 C 451.1857 17.2188 451.4789 17.8929 451.7809 18.5875 C 453.7555 22.7603 453.7555 22.7603 455.7352 23.5978 C 456.1173 23.6847 456.4994 23.7715 456.8931 23.861 C 456.6152 23.3052 456.3373 22.7494 456.051 22.1767 C 455.9482 20.6704 455.9032 19.1597 455.8931 17.65 C 455.8811 16.8444 455.8692 16.0389 455.8569 15.209 C 456.051 12.9127 456.051 12.9127 457.7353 9.544 C 454.6782 9.544 451.6211 9.544 448.4714 9.544 C 448.1934 10.3777 447.9155 11.2115 447.6292 12.0705 C 446.3667 9.5455 446.735 7.3007 446.787 4.4909 Z" fill-rule="evenodd" clip-rule="evenodd" fill="#222222" stroke="none"/>
  <path d="M 446.787 4.4909 C 448.1588 4.5929 448.1588 4.5929 449.7873 4.8594 C 450.3268 4.9451 450.8664 5.0309 451.4223 5.1193 C 451.6302 5.1545 451.6302 5.1545 452.6823 5.3331 C 452.4043 6.1668 452.1264 7.0006 451.8401 7.8596 C 453.2297 8.4155 454.6193 8.9713 456.051 9.544 C 454.3666 10.3862 452.6823 11.2283 450.9979 12.0705 C 450.465 13.2581 450.465 13.2581 450.0504 14.6497 C 449.9799 14.8804 449.9799 14.8804 449.6228 16.0478 C 449.5207 16.4028 449.4187 16.7578 449.3135 17.1236 C 450.1473 16.8457 450.981 16.5678 451.8401 16.2814 C 452.8766 20.1166 452.8766 20.1166 451.8927 22.0188 C 451.5974 22.3488 451.3021 22.6788 450.9979 23.0188 C 449.7873 22.703 449.7873 22.703 448.4714 22.1767 C 448.1934 21.6208 447.9155 21.065 447.6292 20.4923 C 447.0733 20.4923 446.5175 20.4923 445.9448 20.4923 C 446.0188 19.2983 446.1099 18.1053 446.208 16.9131 C 446.2569 16.2487 446.3057 15.5842 446.356 14.8997 C 446.787 12.9127 446.787 12.9127 449.3135 9.544 C 445.7006 9.2661 442.0876 8.9881 438.3652 8.7018 C 438.3652 8.146 438.3652 7.5901 438.3652 7.0174 C 438.6339 6.9615 438.6339 6.9615 439.9936 6.6786 C 440.6895 6.5299 441.3854 6.3811 442.1024 6.2279 C 442.7961 6.0813 443.4898 5.9348 444.2045 5.7838 C 445.9448 5.3331 445.9448 5.3331 446.787 4.4909 Z" fill-rule="evenodd" clip-rule="evenodd" fill="#D1D1D1" stroke="none"/>
  <path d="M 446.787 4.4909 C 446.4483 4.6038 446.4483 4.6038 444.7342 5.1752 C 442.5761 6.1753 442.5761 6.1753 441.8918 7.5438 C 441.8397 7.9259 441.7876 8.3081 441.7339 8.7018 C 442.0032 8.7626 442.0032 8.7626 443.3656 9.0703 C 445.1026 9.544 445.1026 9.544 445.9448 10.3862 C 446.0618 12.0755 445.9809 13.7441 445.9448 15.4392 C 445.1111 15.7172 444.2773 15.9951 443.4183 16.2814 C 443.6962 14.6139 443.9741 12.9464 444.2605 11.2283 C 443.1488 10.9504 442.0371 10.6725 440.8917 10.3862 C 440.3359 12.0537 439.7801 13.7212 439.2074 15.4392 C 438.6515 15.1613 438.0957 14.8834 437.523 14.5971 C 437.523 13.7633 437.523 12.9295 437.523 12.0705 C 436.9672 12.0705 436.4113 12.0705 435.8387 12.0705 C 435.5607 12.9043 435.2828 13.738 434.9965 14.5971 C 434.1866 12.5723 434.0794 10.8733 434.1543 8.7018 C 433.7548 8.615 433.3553 8.5281 432.9437 8.4386 C 432.5094 8.2476 432.0752 8.0565 431.6278 7.8596 C 431.1244 6.5602 431.1244 6.5602 430.7856 5.3331 C 436.1802 1.875 440.8155 2.9237 446.787 4.4909 Z" fill-rule="evenodd" clip-rule="evenodd" fill="#ADADAD" stroke="none"/>
  <path d="M 446.787 4.4909 C 449.8441 4.4909 452.9012 4.4909 456.051 4.4909 C 453.7102 15.6931 453.7102 15.6931 449.3135 19.6501 C 448.4798 19.3722 447.646 19.0943 446.787 18.808 C 447.0649 18.2521 447.3428 17.6963 447.6292 17.1236 C 447.7113 15.4444 447.7464 13.8015 447.7344 12.1232 C 447.7377 11.6699 447.741 11.2167 447.7443 10.7497 C 447.7385 8.4077 447.5369 6.7405 446.787 4.4909 Z" fill-rule="evenodd" clip-rule="evenodd" fill="#F7F7F7" stroke="none"/>
  <path d="M 446.787 4.4909 C 449.7209 5.847 450.4775 8.4375 451.7743 11.2843 C 452.0403 11.8428 452.3062 12.4014 452.5803 12.9768 C 453.2347 14.3551 453.8745 15.7404 454.5114 17.1269 C 450.6205 17.1269 446.7296 17.1269 442.7209 17.1269 C 443.2767 15.7373 443.8325 14.3477 444.4052 12.916 C 444.5401 10.8763 444.5401 10.8763 444.4578 8.9156 C 444.4124 7.7233 444.388 6.5295 444.4052 5.3364 C 445.2474 4.4942 445.2474 4.4942 446.787 4.4909 Z" fill-rule="evenodd" clip-rule="evenodd" fill="#727272" stroke="none"/>
  <path d="M 446.787 4.4909 C 447.3428 4.4909 447.8987 4.4909 448.4714 4.4909 C 448.4714 9.2155 448.4714 13.9402 448.4714 18.808 C 445.1363 18.808 441.8013 18.808 438.3652 18.808 C 439.1295 18.0089 439.8938 17.2099 440.6812 16.3867 C 443.7711 12.8209 445.2742 8.9136 446.787 4.4909 Z" fill-rule="evenodd" clip-rule="evenodd" fill="#FAFAFA" stroke="none"/>
  <path d="M 446.787 4.4909 C 447.6818 5.5074 447.6818 5.5074 448.4714 7.0174 C 447.7861 13.0455 444.7692 17.6844 440.8917 22.1767 C 440.058 21.6208 439.2242 21.065 438.3652 20.4923 C 438.9037 20.3012 439.4421 20.1102 439.9969 19.9133 C 441.7339 18.808 441.7339 18.808 442.2076 17.071 C 442.3292 16.2546 442.4508 15.4382 442.5761 14.5971 C 443.3621 12.0513 444.2306 9.5349 445.1026 7.0174 C 445.6585 7.0174 446.2143 7.0174 446.787 7.0174 C 446.787 6.1837 446.787 5.3499 446.787 4.4909 Z" fill-rule="evenodd" clip-rule="evenodd" fill="#525252" stroke="none"/>
  <path d="M 446.787 4.4909 C 444.8416 4.7688 442.8961 5.0467 440.8917 5.3331 C 440.8917 5.8889 440.8917 6.4448 440.8917 7.0174 C 439.8239 7.3244 438.753 7.6206 437.6809 7.9123 C 437.3829 7.9953 437.3829 7.9953 435.8749 8.4156 C 434.067 8.7163 433.2138 8.7693 431.6278 7.8596 C 431.0488 6.5437 431.0488 6.5437 430.7856 5.3331 C 436.1802 1.875 440.8155 2.9237 446.787 4.4909 Z" fill-rule="evenodd" clip-rule="evenodd" fill="#666666" stroke="none"/>
  <path d="M 446.787 4.4909 C 447.6208 4.7688 448.4545 5.0467 449.3135 5.3331 C 449.2234 5.7 449.1333 6.067 449.0405 6.445 C 448.3446 9.9022 448.4018 12.0657 450.182 15.1399 C 451.4154 16.8656 452.7878 18.2346 454.3666 19.6501 C 451.8653 19.6501 449.3641 19.6501 446.787 19.6501 C 446.787 14.6476 446.787 9.645 446.787 4.4909 Z" fill-rule="evenodd" clip-rule="evenodd" fill="#E4E4E4" stroke="none"/>
  <path d="M 446.787 4.4909 C 448.7345 4.6357 448.7345 4.6357 450.9979 5.1225 C 451.3713 5.1985 451.3713 5.1985 453.2612 5.5831 C 455.2088 6.1753 455.2088 6.1753 456.8931 7.8596 C 456.0594 8.4155 455.2256 8.9713 454.3666 9.544 C 455.2004 9.8219 456.0341 10.0998 456.8931 10.3862 C 454.6008 11.5323 453.3701 10.9788 450.8926 10.4388 C 450.1262 10.2749 449.3597 10.1109 448.57 9.942 C 447.9816 9.8107 447.3932 9.6793 446.787 9.544 C 447.0649 8.9881 447.3428 8.4323 447.6292 7.8596 C 446.7954 7.3038 445.9617 6.7479 445.1026 6.1753 C 445.6585 5.6194 446.2143 5.0636 446.787 4.4909 Z" fill-rule="evenodd" clip-rule="evenodd" fill="#343434" stroke="none"/>
  <path d="M 446.787 4.4909 C 447.3428 7.548 447.8987 10.6051 448.4714 13.7549 C 446.5259 13.7549 444.5805 13.7549 442.5761 13.7549 C 441.8918 11.9652 441.8918 11.9652 441.7339 9.544 C 444.7989 4.4909 444.7989 4.4909 446.787 4.4909 Z" fill-rule="evenodd" clip-rule="evenodd" fill="#EFEFEF" stroke="none"/>
  <path d="M 446.787 4.4909 C 449.1269 6.5199 450.7782 8.0115 451.7348 11.0178 C 451.7522 11.3305 451.7522 11.3305 451.8401 12.9127 C 450.9979 13.7549 450.9979 13.7549 449.4418 13.8371 C 449.1341 13.8322 449.1341 13.8322 447.5765 13.8075 C 446.9588 13.7999 446.3411 13.7923 445.7047 13.7845 C 445.2281 13.7747 444.7515 13.7649 444.2605 13.7549 C 444.521 13.1643 444.7816 12.5737 445.05 11.9652 C 446.043 9.5073 446.4214 7.1107 446.787 4.4909 Z" fill-rule="evenodd" clip-rule="evenodd" fill="#F2F2F2" stroke="none"/>
  <path d="M 446.787 4.4909 C 448.1588 4.5929 448.1588 4.5929 449.7873 4.8594 C 450.3268 4.9451 450.8664 5.0309 451.4223 5.1193 C 451.6302 5.1545 451.6302 5.1545 452.6823 5.3331 C 451.2084 8.5965 451.2084 8.5965 449.3135 9.544 C 448.1173 9.5623 448.1173 9.5623 446.7541 9.442 C 446.2656 9.4013 445.777 9.3606 445.2737 9.3186 C 445.0197 9.295 445.0197 9.295 443.7341 9.1755 C 443.2195 9.1316 442.7049 9.0876 442.1748 9.0423 C 440.9045 8.9331 439.6348 8.818 438.3652 8.7018 C 438.3652 8.146 438.3652 7.5901 438.3652 7.0174 C 438.6339 6.9615 438.6339 6.9615 439.9936 6.6786 C 440.6895 6.5299 441.3854 6.3811 442.1024 6.2279 C 442.7961 6.0813 443.4898 5.9348 444.2045 5.7838 C 445.9448 5.3331 445.9448 5.3331 446.787 4.4909 Z" fill-rule="evenodd" clip-rule="evenodd" fill="#929292" stroke="none"/>
  <path d="M 446.787 4.4909 C 454.8467 4.4909 462.9063 4.4909 471.2102 4.4909 C 470.3764 5.3247 469.5427 6.1584 468.6837 7.0174 C 466.6763 6.7594 466.6763 6.7594 464.4728 6.1753 C 463.1088 6.1108 461.7425 6.0842 460.377 6.093 C 459.6306 6.0957 458.8843 6.0985 458.1153 6.1012 C 457.7313 6.1048 457.7313 6.1048 455.7878 6.1226 C 455.0034 6.1264 454.2191 6.1302 453.4109 6.1341 C 451.4836 6.144 449.5564 6.1579 447.6292 6.1753 C 447.3513 5.6194 447.0733 5.0636 446.787 4.4909 Z" fill-rule="evenodd" clip-rule="evenodd" fill="#1B1B1B" stroke="none"/>
  <path d="M 446.787 4.4909 C 448.6386 7.1324 450.0304 9.9933 451.4914 12.8634 C 452.8263 14.8067 453.8839 15.4284 456.051 16.2814 C 454.6824 16.9657 454.6824 16.9657 452.6823 17.1236 C 450.1102 15.7785 448.1698 14.0331 446.9021 11.406 C 446.08 8.7774 445.7081 7.0898 446.787 4.4909 Z" fill-rule="evenodd" clip-rule="evenodd" fill="#4E4E4E" stroke="none"/>
  <path d="M 446.787 4.4909 C 447.0649 5.8805 447.3428 7.2701 447.6292 8.7018 C 444.2585 8.855 442.1636 8.8366 439.2074 7.0174 C 439.4179 5.8068 439.4179 5.8068 440.0496 4.4909 C 442.5406 3.4601 444.2582 3.6781 446.787 4.4909 Z" fill-rule="evenodd" clip-rule="evenodd" fill="#F9F9F9" stroke="none"/>
  <path d="M 446.787 4.4909 C 447.3428 4.7688 447.8987 5.0467 448.4714 5.3331 C 447.9155 6.4448 447.3597 7.5564 446.787 8.7018 C 447.6208 8.4239 448.4545 8.146 449.3135 7.8596 C 450.3501 11.6948 450.3501 11.6948 449.3662 13.597 C 449.0709 13.927 448.7756 14.257 448.4714 14.5971 C 447.6376 14.3191 446.8038 14.0412 445.9448 13.7549 C 444.8539 8.5065 444.8539 8.5065 445.8922 5.8068 C 446.1875 5.3726 446.4828 4.9383 446.787 4.4909 Z" fill-rule="evenodd" clip-rule="evenodd" fill="#535353" stroke="none"/>
  <path d="M 446.787 4.4909 C 446.2312 4.7688 446.2312 4.7688 443.4183 6.1753 C 443.4183 6.7311 443.4183 7.2869 443.4183 7.8596 C 439.8053 7.8596 436.1924 7.8596 432.47 7.8596 C 434.1543 5.3331 434.1543 5.3331 436.3124 4.7541 C 439.7865 4.3231 443.2934 4.421 446.787 4.4909 Z" fill-rule="evenodd" clip-rule="evenodd" fill="#A9A9A9" stroke="none"/>
  <path d="M 446.787 4.4909 C 449.2883 4.7688 451.7895 5.0467 454.3666 5.3331 C 453.5329 5.8889 452.6991 6.4448 451.8401 7.0174 C 450.84 8.386 450.84 8.386 450.1557 9.544 C 450.1557 8.9881 450.1557 8.4323 450.1557 7.8596 C 449.5999 7.8596 449.044 7.8596 448.4714 7.8596 C 448.1934 8.6934 447.9155 9.5271 447.6292 10.3862 C 447.0733 10.3862 446.5175 10.3862 445.9448 10.3862 C 446.2227 8.4407 446.5007 6.4953 446.787 4.4909 Z" fill-rule="evenodd" clip-rule="evenodd" fill="#FCFCFC" stroke="none"/>
  <path d="M 446.787 4.4909 C 447.3868 4.4936 447.9866 4.4963 448.6046 4.4991 C 448.9154 4.5027 448.9154 4.5027 450.488 4.5205 C 451.1193 4.5243 451.7506 4.5281 452.401 4.532 C 453.9566 4.5419 455.512 4.5558 457.0675 4.5732 C 457.0675 4.8511 457.0675 5.129 457.0675 5.4153 C 456.3163 5.5271 455.565 5.639 454.791 5.7542 C 453.7953 5.9043 452.7996 6.0546 451.8039 6.2049 C 451.3099 6.2782 450.816 6.3514 450.307 6.4269 C 447.7476 6.8152 445.251 7.2548 442.7505 7.9419 C 442.7505 7.386 442.7505 6.8302 442.7505 6.2575 C 442.1946 5.9796 441.6388 5.7017 441.0661 5.4153 C 443.039 4.6438 444.6746 4.474 446.787 4.4909 Z" fill-rule="evenodd" clip-rule="evenodd" fill="#101010" stroke="none"/>
  <path d="M 446.787 4.4909 C 449.2883 4.4909 451.7895 4.4909 454.3666 4.4909 C 454.0887 5.6026 453.8108 6.7143 453.5244 7.8596 C 449.9115 7.8596 446.2985 7.8596 442.5761 7.8596 C 442.5761 7.5817 442.5761 7.3038 442.5761 7.0174 C 445.0774 7.0174 447.5786 7.0174 450.1557 7.0174 C 450.1557 6.4616 450.1557 5.9058 450.1557 5.3331 C 449.044 5.0552 447.9324 4.7772 446.787 4.4909 Z" fill-rule="evenodd" clip-rule="evenodd" fill="#0F0F0F" stroke="none"/>
  <path d="M 446.787 4.4909 C 447.3428 4.7688 447.8987 5.0467 448.4714 5.3331 C 448.4665 5.5871 448.4665 5.5871 448.4417 6.8727 C 448.4341 7.5458 448.4265 8.2189 448.4187 8.9123 C 448.4089 9.5767 448.3992 10.2411 448.3891 10.9257 C 448.4681 12.8343 448.7809 14.453 449.3135 16.2814 C 448.7577 16.2814 448.2019 16.2814 447.6292 16.2814 C 446.1794 13.0919 444.9953 9.7262 445.1026 6.1753 C 445.6585 5.6194 446.2143 5.0636 446.787 4.4909 Z" fill-rule="evenodd" clip-rule="evenodd" fill="#313131" stroke="none"/>
  <path d="M 446.787 4.4909 C 447.6208 4.4909 448.4545 4.4909 449.3135 4.4909 C 449.3135 6.4363 449.3135 8.3818 449.3135 10.3862 C 447.646 10.3862 445.9785 10.3862 444.2605 10.3862 C 445.0942 8.4407 445.928 6.4953 446.787 4.4909 Z" fill-rule="evenodd" clip-rule="evenodd" fill="#232323" stroke="none"/>
  <path d="M 446.787 4.4909 C 450.8926 5.2278 450.8926 5.2278 451.8401 6.1753 C 451.9571 7.8647 451.8761 9.5332 451.8401 11.2283 C 451.0063 11.5063 450.1726 11.7842 449.3135 12.0705 C 449.5915 10.403 449.8694 8.7355 450.1557 7.0174 C 449.044 6.7395 447.9324 6.4616 446.787 6.1753 C 446.787 5.6194 446.787 5.0636 446.787 4.4909 Z" fill-rule="evenodd" clip-rule="evenodd" fill="#131313" stroke="none"/>
  <path d="M 446.787 4.4909 C 447.6208 5.0467 448.4545 5.6026 449.3135 6.1753 C 448.4798 6.7311 447.646 7.2869 446.787 7.8596 C 447.6208 8.1375 448.4545 8.4155 449.3135 8.7018 C 447.0212 9.848 445.7905 9.2944 443.313 8.7544 C 442.5466 8.5905 441.7801 8.4266 440.9904 8.2577 C 440.402 8.1263 439.8136 7.995 439.2074 7.8596 C 442.3392 6.1358 442.3392 6.1358 444.471 6.4911 C 444.7142 6.5779 444.7142 6.5779 445.9448 7.0174 C 446.2227 6.1837 446.5007 5.3499 446.787 4.4909 Z" fill-rule="evenodd" clip-rule="evenodd" fill="#888888" stroke="none"/>
  <path d="M 446.787 4.4909 C 446.787 5.0467 446.787 5.6026 446.787 6.1753 C 445.5364 6.3142 445.5364 6.3142 439.2074 7.0174 C 438.9295 6.4616 438.6515 5.9058 438.3652 5.3331 C 441.4812 3.2957 443.3185 3.7026 446.787 4.4909 Z" fill-rule="evenodd" clip-rule="evenodd" fill="#363636" stroke="none"/>
  <path d="M 446.787 4.4909 C 448.8688 5.5318 448.9947 6.2204 449.8399 8.3334 C 450.0592 8.8729 450.2785 9.4125 450.5044 9.9684 C 450.6673 10.3842 450.8301 10.7999 450.9979 11.2283 C 449.3304 11.2283 447.6629 11.2283 445.9448 11.2283 C 445.8395 6.3858 445.8395 6.3858 446.787 4.4909 Z" fill-rule="evenodd" clip-rule="evenodd" fill="#1F1F1F" stroke="none"/>
  <path d="M 446.787 4.4909 C 447.6208 5.0467 448.4545 5.6026 449.3135 6.1753 C 445.7006 7.5649 442.0876 8.9545 438.3652 10.3862 C 439.2074 7.8596 439.2074 7.8596 440.8588 6.8168 C 441.1943 6.6675 441.1943 6.6675 442.8919 5.9121 C 443.5585 5.6027 444.2251 5.2933 444.9118 4.9745 C 445.5306 4.8149 446.1494 4.6553 446.787 4.4909 Z" fill-rule="evenodd" clip-rule="evenodd" fill="#222222" stroke="none"/>
  <path d="M 446.787 4.4909 C 447.6208 4.4909 448.4545 4.4909 449.3135 4.4909 C 448.0686 7.3957 446.5343 9.1061 444.2605 11.2283 C 443.7046 10.6725 443.1488 10.1167 442.5761 9.544 C 443.1146 9.3355 443.653 9.1271 444.2078 8.9123 C 445.9448 7.8596 445.9448 7.8596 446.5765 6.07 C 446.6459 5.5489 446.7154 5.0278 446.787 4.4909 Z" fill-rule="evenodd" clip-rule="evenodd" fill="#363636" stroke="none"/>
  <path d="M 446.787 4.4909 C 449.8441 5.8805 452.9012 7.2701 456.051 8.7018 C 452.9841 9.7241 452.4029 9.2639 449.5767 7.9123 C 449.2364 7.7521 449.2364 7.7521 447.514 6.9418 C 446.9962 6.6888 446.4784 6.4359 445.9448 6.1753 C 446.2227 5.6194 446.5007 5.0636 446.787 4.4909 Z" fill-rule="evenodd" clip-rule="evenodd" fill="#181818" stroke="none"/>
  <path d="M 446.787 4.4909 C 447.6208 5.0467 448.4545 5.6026 449.3135 6.1753 C 447.9239 7.2869 446.5343 8.3986 445.1026 9.544 C 444.5468 8.9881 443.991 8.4323 443.4183 7.8596 C 444.53 6.7479 445.6416 5.6363 446.787 4.4909 Z" fill-rule="evenodd" clip-rule="evenodd" fill="#3C3C3C" stroke="none"/>
  <path d="M 446.787 4.4909 C 447.6208 5.3247 448.4545 6.1584 449.3135 7.0174 C 449.0356 7.8512 448.7577 8.685 448.4714 9.544 C 447.6376 9.2661 446.8038 8.9881 445.9448 8.7018 C 446.2227 7.3122 446.5007 5.9226 446.787 4.4909 Z" fill-rule="evenodd" clip-rule="evenodd" fill="#909090" stroke="none"/>
  <path d="M 446.787 4.4909 C 448.2156 6.3958 448.8322 8.0596 449.3135 10.3862 C 448.4798 10.6641 447.646 10.942 446.787 11.2283 C 445.7042 6.7768 445.7042 6.7768 446.787 4.4909 Z" fill-rule="evenodd" clip-rule="evenodd" fill="#393939" stroke="none"/>
  <path d="M 446.787 4.4909 C 447.3428 5.6026 447.8987 6.7143 448.4714 7.8596 C 447.6376 8.6934 446.8038 9.5271 445.9448 10.3862 C 445.389 9.8303 444.8331 9.2745 444.2605 8.7018 C 444.8163 8.7018 445.3721 8.7018 445.9448 8.7018 C 446.2227 7.3122 446.5007 5.9226 446.787 4.4909 Z" fill-rule="evenodd" clip-rule="evenodd" fill="#8F8F8F" stroke="none"/>
  <path d="M 446.787 4.4909 C 447.3428 4.4909 447.8987 4.4909 448.4714 4.4909 C 448.1934 6.4363 447.9155 8.3818 447.6292 10.3862 C 447.0733 10.1082 446.5175 9.8303 445.9448 9.544 C 445.9088 8.1408 445.9106 6.7363 445.9448 5.3331 C 446.2227 5.0552 446.5007 4.7772 446.787 4.4909 Z" fill-rule="evenodd" clip-rule="evenodd" fill="#171717" stroke="none"/>
  <path d="M 446.787 4.4909 C 447.6208 4.4909 448.4545 4.4909 449.3135 4.4909 C 448.7577 5.6026 448.2019 6.7143 447.6292 7.8596 C 446.7954 7.8596 445.9617 7.8596 445.1026 7.8596 C 445.1026 7.3038 445.1026 6.7479 445.1026 6.1753 C 445.6585 6.1753 446.2143 6.1753 446.787 6.1753 C 446.787 5.6194 446.787 5.0636 446.787 4.4909 Z" fill-rule="evenodd" clip-rule="evenodd" fill="#656565" stroke="none"/>
  <path d="M 446.787 4.4909 C 446.787 5.3247 446.787 6.1584 446.787 7.0174 C 445.6753 7.0174 444.5636 7.0174 443.4183 7.0174 C 443.4183 6.4616 443.4183 5.9058 443.4183 5.3331 C 442.8624 5.0552 442.3066 4.7772 441.7339 4.4909 C 443.7461 3.6285 444.7748 3.6285 446.787 4.4909 Z" fill-rule="evenodd" clip-rule="evenodd" fill="#262626" stroke="none"/>
  <path d="M 446.787 4.4909 C 447.3428 4.7688 447.8987 5.0467 448.4714 5.3331 C 447.9155 7.5564 447.3597 9.7798 446.787 12.0705 C 446.5091 12.0705 446.2312 12.0705 445.9448 12.0705 C 445.7578 11.1253 445.585 10.1772 445.4185 9.2282 C 445.3208 8.7006 445.223 8.1729 445.1224 7.6293 C 445.1159 7.1495 445.1094 6.6697 445.1026 6.1753 C 445.6585 5.6194 446.2143 5.0636 446.787 4.4909 Z" fill-rule="evenodd" clip-rule="evenodd" fill="#0E0E0E" stroke="none"/>
  <path d="M 446.787 4.4909 C 447.4818 4.6299 447.4818 4.6299 450.9979 5.3331 C 450.72 5.8889 450.4421 6.4448 450.1557 7.0174 C 449.044 6.7395 447.9324 6.4616 446.787 6.1753 C 446.787 5.6194 446.787 5.0636 446.787 4.4909 Z" fill-rule="evenodd" clip-rule="evenodd" fill="#404040" stroke="none"/>
  <path d="M 446.787 4.4909 C 447.1344 4.7862 447.4818 5.0815 447.8397 5.3857 C 445.8395 5.9121 445.8395 5.9121 443.6288 6.2279 C 443.073 5.6721 442.5171 5.1162 441.9445 4.5435 C 444.9504 3.507 444.9504 3.507 446.787 4.4909 Z" fill-rule="evenodd" clip-rule="evenodd" fill="#767676" stroke="none"/>
  <path d="M 446.787 4.4909 C 447.6208 4.7688 448.4545 5.0467 449.3135 5.3331 C 449.3135 5.8889 449.3135 6.4448 449.3135 7.0174 C 447.9239 6.7395 446.5343 6.4616 445.1026 6.1753 C 445.6585 5.6194 446.2143 5.0636 446.787 4.4909 Z" fill-rule="evenodd" clip-rule="evenodd" fill="#222222" stroke="none"/>
  <path d="M 446.787 4.4909 C 447.6208 5.0467 448.4545 5.6026 449.3135 6.1753 C 447.9239 6.7311 446.5343 7.2869 445.1026 7.8596 C 445.1026 7.0259 445.1026 6.1921 445.1026 5.3331 C 445.6585 5.0552 446.2143 4.7772 446.787 4.4909 Z" fill-rule="evenodd" clip-rule="evenodd" fill="#3B3B3B" stroke="none"/>
  <path d="M 446.787 4.4909 C 447.0649 5.6026 447.3428 6.7143 447.6292 7.8596 C 446.7954 7.8596 445.9617 7.8596 445.1026 7.8596 C 445.6585 6.7479 446.2143 5.6363 446.787 4.4909 Z" fill-rule="evenodd" clip-rule="evenodd" fill="#EBEBEB" stroke="none"/>
  <path d="M 446.787 4.4909 C 447.3428 5.3247 447.8987 6.1584 448.4714 7.0174 C 448.1934 7.1564 448.1934 7.1564 446.787 7.8596 C 446.2312 7.3038 445.6753 6.7479 445.1026 6.1753 C 445.6585 5.6194 446.2143 5.0636 446.787 4.4909 Z" fill-rule="evenodd" clip-rule="evenodd" fill="#696969" stroke="none"/>
  <path d="M 446.787 4.4909 C 447.6208 4.4909 448.4545 4.4909 449.3135 4.4909 C 449.3135 5.0467 449.3135 5.6026 449.3135 6.1753 C 448.4798 6.4532 447.646 6.7311 446.787 7.0174 C 446.787 6.1837 446.787 5.3499 446.787 4.4909 Z" fill-rule="evenodd" clip-rule="evenodd" fill="#848484" stroke="none"/>
  <path d="M 446.787 4.4909 C 447.3428 4.7688 447.8987 5.0467 448.4714 5.3331 C 448.1934 6.1668 447.9155 7.0006 447.6292 7.8596 C 447.0733 7.8596 446.5175 7.8596 445.9448 7.8596 C 446.2227 6.7479 446.5007 5.6363 446.787 4.4909 Z" fill-rule="evenodd" clip-rule="evenodd" fill="#F4F4F4" stroke="none"/>
  <path d="M 446.787 4.4909 C 447.6208 4.7688 448.4545 5.0467 449.3135 5.3331 C 449.3135 5.8889 449.3135 6.4448 449.3135 7.0174 C 448.2019 6.7395 447.0902 6.4616 445.9448 6.1753 C 446.2227 5.6194 446.5007 5.0636 446.787 4.4909 Z" fill-rule="evenodd" clip-rule="evenodd" fill="#202020" stroke="none"/></g></svg>