<svg xmlns="http://www.w3.org/2000/svg" viewBox="0 0 950 35" fill="none"><g transform="translate(-321.2723,-11.8363) scale(1.6764)"><path d="M214.016 1.9652 L215.7135 4.9599 L218.684 7.2059 L219.5327 7.5802 L220.3815 7.5802 L221.6546 8.3289 L223.7764 8.7032 L225.0495 9.4519 L225.8982 9.4519 L227.5957 10.2005 L229.2931 10.2005 L229.7175 10.5749 L230.5662 10.5749 L230.9906 10.2005 L232.688 10.2005 L233.1124 9.8262 L235.2342 9.4519 L236.5073 8.7032 L238.6291 8.3289 L239.9022 7.5802 L240.751 7.5802 L244.1459 5.3342 L244.1459 4.9599 L245.419 3.8369 L246.2677 2.3396 L246.2677 1.9652 L244.5702 1.9652 L244.1459 3.0882 L240.751 6.0829 L239.0535 6.8315 L236.9317 7.2059 L235.6586 7.9546 L234.8099 7.9546 L233.5368 8.7032 L232.2637 8.7032 L231.8393 9.0775 L228.02 9.0775 L227.5957 8.7032 L226.7469 8.7032 L225.4738 7.9546 L224.6251 7.9546 L223.352 7.2059 L222.5033 7.2059 L222.0789 6.8315 L221.2302 6.8315 L219.5327 6.0829 L216.9866 4.2112 L215.7135 1.9652 L214.8647 1.5909 L214.016 1.9652 Z" fill-rule="evenodd" clip-rule="evenodd" fill="white" stroke="none"/>
  <path d="M219.1084 1.9652 L219.1084 2.3396 L221.2302 3.8369 L222.0789 4.2112 L222.9277 4.2112 L223.352 4.5856 L224.2008 4.5856 L226.7469 5.7085 L228.02 5.7085 L228.4444 6.0829 L231.8393 6.0829 L232.2637 5.7085 L233.5368 5.7085 L233.9611 5.3342 L234.8099 5.3342 L236.0829 4.5856 L236.9317 4.5856 L238.2048 3.8369 L239.0535 3.8369 L240.751 2.3396 L240.751 1.5909 L239.9022 1.5909 L237.356 3.0882 L236.5073 3.0882 L235.2342 3.8369 L234.3855 3.8369 L232.688 4.5856 L227.5957 4.5856 L225.0495 3.4626 L222.9277 3.0882 L219.9571 1.5909 L219.1084 1.9652 Z" fill-rule="evenodd" clip-rule="evenodd" fill="white" stroke="none"/>
  <path d="M268.3346 1.5909 L268.3346 2.7139 L269.1833 3.4626 L269.6077 4.5856 L271.7295 6.4572 L272.1539 6.4572 L273.0026 7.2059 L273.8514 7.5802 L274.7001 7.5802 L275.9732 8.3289 L276.8219 8.3289 L278.095 9.0775 L278.9437 9.0775 L280.2168 9.8262 L281.4899 9.8262 L281.9143 10.2005 L283.6117 10.2005 L284.0361 10.5749 L284.8848 10.5749 L285.3092 10.2005 L287.0066 10.2005 L287.431 9.8262 L288.7041 9.8262 L290.8259 8.7032 L291.6747 8.7032 L292.099 8.3289 L292.9477 8.3289 L294.2208 7.5802 L295.0696 7.5802 L295.9183 7.2059 L298.8888 4.9599 L298.8888 4.5856 L299.7376 3.8369 L300.5863 2.3396 L300.1619 1.5909 L298.8888 1.9652 L297.6158 4.2112 L296.3427 5.3342 L295.9183 5.3342 L295.0696 6.0829 L293.3721 6.8315 L292.5234 6.8315 L291.2503 7.5802 L289.1285 7.9546 L286.5823 9.0775 L282.3386 9.0775 L281.9143 8.7032 L281.0656 8.7032 L279.7925 7.9546 L278.9437 7.9546 L277.6706 7.2059 L276.8219 7.2059 L276.3975 6.8315 L275.5488 6.8315 L273.8514 6.0829 L271.3052 4.2112 L270.0321 1.9652 L269.1833 1.5909 L268.3346 1.5909 Z" fill-rule="evenodd" clip-rule="evenodd" fill="white" stroke="none"/>
  <path d="M273.427 1.9652 L273.427 2.3396 L275.5488 3.8369 L276.3975 4.2112 L277.2463 4.2112 L278.5194 4.9599 L280.6412 5.3342 L281.0656 5.7085 L282.3386 5.7085 L282.763 6.0829 L286.1579 6.0829 L286.5823 5.7085 L287.8554 5.7085 L288.2797 5.3342 L290.4016 4.9599 L291.6747 4.2112 L292.5234 4.2112 L294.2208 3.0882 L294.6452 3.0882 L295.4939 2.3396 L295.4939 1.9652 L294.6452 1.5909 L290.8259 3.4626 L289.9772 3.4626 L289.5528 3.8369 L288.7041 3.8369 L287.0066 4.5856 L281.9143 4.5856 L281.4899 4.2112 L280.6412 4.2112 L280.2168 3.8369 L278.095 3.4626 L274.2757 1.5909 L273.427 1.9652 Z" fill-rule="evenodd" clip-rule="evenodd" fill="white" stroke="none"/>
  <path d="M354.9049 1.9652 L354.0562 1.5909 L353.2074 2.3396 L352.3588 3.8369 L350.2369 5.7085 L347.6907 6.8315 L346.842 6.8315 L345.5689 7.5802 L344.7202 7.5802 L342.174 8.7032 L341.3253 8.7032 L340.9009 9.0775 L337.0816 9.0775 L334.5354 7.9546 L333.2624 7.9546 L331.1405 6.8315 L330.2918 6.8315 L327.7456 5.7085 L325.1994 3.4626 L324.3507 1.9652 L323.0776 1.9652 L323.0776 2.7139 L323.9263 4.2112 L326.8969 6.8315 L329.4431 7.9546 L330.2918 7.9546 L331.5649 8.7032 L333.6867 9.0775 L334.9598 9.8262 L335.8085 9.8262 L336.2329 10.2005 L338.3547 10.2005 L339.2034 10.5749 L339.6278 10.2005 L341.7496 10.2005 L342.174 9.8262 L343.0227 9.8262 L344.2958 9.0775 L346.4176 8.7032 L347.6907 7.9546 L348.5395 7.9546 L350.2369 7.2059 L351.0856 6.4572 L351.51 6.4572 L353.6318 4.5856 L353.6318 4.2112 L354.9049 2.7139 L354.9049 1.9652 Z" fill-rule="evenodd" clip-rule="evenodd" fill="white" stroke="none"/>
  <path d="M328.17 1.9652 L328.17 2.3396 L329.4431 3.4626 L331.1405 4.2112 L331.9892 4.2112 L334.1111 5.3342 L335.3842 5.3342 L335.8085 5.7085 L337.0816 5.7085 L337.506 6.0829 L340.4765 6.0829 L340.9009 5.7085 L343.8715 5.3342 L345.9933 4.2112 L346.842 4.2112 L348.5395 3.4626 L349.8126 2.3396 L349.8126 1.9652 L348.9638 1.5909 L345.1445 3.4626 L344.2958 3.4626 L343.8715 3.8369 L343.0227 3.8369 L341.3253 4.5856 L336.2329 4.5856 L333.6867 3.4626 L332.838 3.4626 L329.0187 1.5909 L328.17 1.9652 Z" fill-rule="evenodd" clip-rule="evenodd" fill="white" stroke="none"/>
  <path d="M382.4886 1.9652 L382.4886 2.3396 L383.7617 3.4626 L386.3079 4.5856 L387.1566 4.5856 L388.4297 5.3342 L389.7028 5.3342 L390.1271 5.7085 L391.4002 5.7085 L391.8246 6.0829 L395.2195 6.0829 L396.917 5.3342 L398.1901 5.3342 L400.3119 4.2112 L401.1606 4.2112 L402.0093 3.8369 L404.1311 2.3396 L404.1311 1.5909 L403.2824 1.5909 L401.585 2.3396 L400.7362 3.0882 L398.6144 3.4626 L396.0682 4.5856 L390.5515 4.5856 L388.0053 3.4626 L385.8835 3.0882 L383.3373 1.5909 L382.4886 1.9652 Z" fill-rule="evenodd" clip-rule="evenodd" fill="white" stroke="none"/>
  <path d="M431.7149 1.9652 L433.4123 4.9599 L436.3828 7.2059 L437.2316 7.5802 L438.0803 7.5802 L439.3534 8.3289 L441.4752 8.7032 L443.597 9.8262 L444.8701 9.8262 L445.2945 10.2005 L446.9919 10.2005 L447.4163 10.5749 L448.265 10.5749 L448.6894 10.2005 L450.3869 10.2005 L450.8112 9.8262 L452.933 9.4519 L454.2061 8.7032 L456.3279 8.3289 L457.601 7.5802 L458.4498 7.5802 L459.2985 6.8315 L460.5716 6.4572 L461.8447 5.3342 L461.8447 4.9599 L462.6934 4.2112 L462.6934 3.8369 L463.9665 2.3396 L463.5421 1.5909 L462.6934 1.5909 L461.8447 3.0882 L458.4498 6.0829 L456.7523 6.8315 L454.6305 7.2059 L453.3574 7.9546 L452.5087 7.9546 L449.9625 9.0775 L445.7189 9.0775 L445.2945 8.7032 L444.4458 8.7032 L443.1727 7.9546 L441.0509 7.5802 L439.7777 6.8315 L438.929 6.8315 L437.2316 6.0829 L434.6854 4.2112 L433.4123 1.9652 L432.5636 1.5909 L431.7149 1.9652 Z" fill-rule="evenodd" clip-rule="evenodd" fill="white" stroke="none"/>
  <path d="M436.8072 1.9652 L436.8072 2.3396 L437.6559 3.0882 L438.0803 3.0882 L439.7777 4.2112 L440.6265 4.2112 L441.8995 4.9599 L442.7483 4.9599 L444.4458 5.7085 L446.1432 5.7085 L446.5676 6.0829 L449.1138 6.0829 L449.5381 5.7085 L451.2356 5.7085 L453.7818 4.5856 L454.6305 4.5856 L455.9036 3.8369 L456.7523 3.8369 L458.0254 2.7139 L458.4498 2.7139 L458.4498 1.5909 L457.601 1.5909 L455.0549 3.0882 L452.933 3.4626 L450.3869 4.5856 L445.2945 4.5856 L444.8701 4.2112 L442.7483 3.8369 L441.4752 3.0882 L440.6265 3.0882 L437.6559 1.5909 L436.8072 1.9652 Z" fill-rule="evenodd" clip-rule="evenodd" fill="white" stroke="none"/>
  <path d="M518.2851 1.9652 L517.8607 1.5909 L516.5877 1.9652 L515.3146 4.2112 L513.6171 5.7085 L511.0709 6.8315 L510.2222 6.8315 L507.676 7.9546 L506.8273 7.9546 L505.5542 8.7032 L504.7055 8.7032 L504.2811 9.0775 L500.0375 9.0775 L497.4913 7.9546 L496.6426 7.9546 L494.0964 6.8315 L493.2477 6.8315 L490.7015 5.7085 L489.004 4.2112 L487.7309 1.9652 L486.0334 1.9652 L486.0334 2.3396 L487.3065 4.5856 L489.4283 6.4572 L489.8527 6.4572 L490.7015 7.2059 L491.5502 7.5802 L492.3989 7.5802 L493.672 8.3289 L494.5207 8.3289 L495.7938 9.0775 L496.6426 9.0775 L499.1887 10.2005 L503.008 10.5749 L503.4324 10.2005 L506.403 9.8262 L508.5248 8.7032 L509.3735 8.7032 L509.7979 8.3289 L510.6466 8.3289 L511.9197 7.5802 L512.7684 7.5802 L513.6171 7.2059 L516.5877 4.9599 L518.2851 1.9652 Z" fill-rule="evenodd" clip-rule="evenodd" fill="white" stroke="none"/>
  <path d="M491.1258 1.9652 L491.1258 2.3396 L493.2477 3.8369 L494.0964 4.2112 L494.9451 4.2112 L496.2182 4.9599 L498.34 5.3342 L498.7644 5.7085 L500.0375 5.7085 L500.4618 6.0829 L503.8567 6.0829 L504.2811 5.7085 L505.5542 5.7085 L508.1004 4.5856 L510.2222 4.2112 L511.9197 3.4626 L513.1927 2.3396 L512.7684 1.5909 L511.9197 1.5909 L511.0709 2.3396 L509.3735 3.0882 L507.2517 3.4626 L504.7055 4.5856 L499.6131 4.5856 L499.1887 4.2112 L498.34 4.2112 L497.9157 3.8369 L495.7938 3.4626 L491.9745 1.5909 L491.1258 1.9652 Z" fill-rule="evenodd" clip-rule="evenodd" fill="white" stroke="none"/>
  <path d="M572.6037 1.9652 L571.755 1.5909 L570.9063 2.3396 L570.0576 3.8369 L567.9357 5.7085 L565.3895 6.8315 L564.5408 6.8315 L563.2677 7.5802 L562.419 7.5802 L559.8728 8.7032 L559.0241 8.7032 L558.5998 9.0775 L554.7804 9.0775 L554.3561 8.7032 L553.5073 8.7032 L553.083 8.3289 L550.9612 7.9546 L548.8393 6.8315 L547.9906 6.8315 L545.4445 5.7085 L544.5957 4.9599 L543.3226 5.3342 L543.3226 5.7085 L544.5957 6.8315 L547.1419 7.9546 L547.9906 7.9546 L549.2637 8.7032 L550.1124 8.7032 L551.3855 9.4519 L552.2343 9.4519 L553.9317 10.2005 L556.0535 10.2005 L556.9023 10.5749 L557.3267 10.2005 L559.0241 10.2005 L559.4485 9.8262 L560.7216 9.8262 L561.9946 9.0775 L564.1164 8.7032 L565.3895 7.9546 L566.2383 7.9546 L568.7844 6.8315 L571.3307 4.5856 L571.3307 4.2112 L572.6037 2.7139 L572.6037 1.9652 Z" fill-rule="evenodd" clip-rule="evenodd" fill="white" stroke="none"/>
  <path d="M567.5114 1.5909 L566.2383 1.5909 L565.3895 2.3396 L562.8434 3.4626 L560.7216 3.8369 L559.4485 4.5856 L553.9317 4.5856 L551.3855 3.4626 L550.5368 3.4626 L548.415 2.3396 L546.2932 2.3396 L546.2932 2.7139 L547.1419 3.4626 L548.8393 4.2112 L549.6881 4.2112 L550.9612 4.9599 L551.8099 4.9599 L553.5073 5.7085 L554.7804 5.7085 L555.2048 6.0829 L558.1754 6.0829 L558.5998 5.7085 L559.8728 5.7085 L560.2972 5.3342 L562.419 4.9599 L563.6921 4.2112 L564.5408 4.2112 L566.2383 3.4626 L567.5114 2.3396 L567.5114 1.5909 Z" fill-rule="evenodd" clip-rule="evenodd" fill="white" stroke="none"/>
  <path d="M595.095 1.5909 L595.095 2.7139 L595.9438 4.2112 L597.2169 5.3342 L597.2169 5.7085 L597.6412 5.7085 L598.9143 6.8315 L599.3387 6.8315 L600.1874 7.5802 L601.0361 7.5802 L602.3093 8.3289 L604.4311 8.7032 L605.7042 9.4519 L606.5529 9.4519 L608.2503 10.2005 L609.9478 10.2005 L610.3722 10.5749 L611.6453 10.5749 L612.0696 10.2005 L613.7671 10.2005 L614.1914 9.8262 L616.3132 9.4519 L617.5864 8.7032 L618.4351 8.7032 L619.7082 7.9546 L620.5569 7.9546 L623.1031 6.8315 L626.0736 4.2112 L626.9224 2.7139 L626.9224 1.9652 L625.6493 1.9652 L624.8005 3.4626 L622.2543 5.7085 L618.8594 7.2059 L616.7376 7.5802 L615.4645 8.3289 L614.6158 8.3289 L612.9183 9.0775 L609.0991 9.0775 L608.6747 8.7032 L607.826 8.7032 L607.4016 8.3289 L605.2798 7.9546 L604.0067 7.2059 L603.1579 7.2059 L601.8849 6.4572 L601.0361 6.4572 L600.1874 5.7085 L599.763 5.7085 L597.2169 3.4626 L596.3681 1.9652 L595.095 1.5909 Z" fill-rule="evenodd" clip-rule="evenodd" fill="white" stroke="none"/>
  <path d="M600.1874 1.5909 L600.1874 2.3396 L601.4605 3.4626 L604.0067 4.5856 L604.8554 4.5856 L606.1285 5.3342 L607.4016 5.3342 L609.0991 6.0829 L612.9183 6.0829 L613.3427 5.7085 L614.1914 5.7085 L614.6158 5.3342 L615.4645 5.3342 L615.8889 4.9599 L618.0107 4.5856 L620.5569 3.4626 L621.83 2.3396 L621.83 1.5909 L621.4057 1.5909 L620.9812 1.9652 L620.1325 1.9652 L617.162 3.4626 L616.3132 3.4626 L613.7671 4.5856 L608.2503 4.5856 L605.7042 3.4626 L604.8554 3.4626 L601.8849 1.9652 L601.0361 1.9652 L600.1874 1.5909 Z" fill-rule="evenodd" clip-rule="evenodd" fill="white" stroke="none"/>
  <path d="M649.4137 1.9652 L651.1111 4.9599 L654.0817 7.2059 L654.9304 7.5802 L655.7791 7.5802 L657.0522 8.3289 L657.9009 8.3289 L659.174 9.0775 L660.0228 9.0775 L661.2959 9.8262 L662.1446 9.8262 L662.569 10.2005 L664.6908 10.2005 L665.1152 10.5749 L665.9639 10.2005 L668.0857 10.2005 L668.5101 9.8262 L670.6318 9.4519 L671.905 8.7032 L674.0268 8.3289 L675.2999 7.5802 L676.1486 7.5802 L676.9973 6.8315 L678.6948 6.0829 L679.9679 4.9599 L679.9679 4.5856 L680.8166 3.8369 L681.6653 2.3396 L681.2409 1.5909 L680.3922 1.5909 L679.5435 3.0882 L678.2704 4.2112 L678.2704 4.5856 L674.4511 6.8315 L672.3294 7.2059 L671.0562 7.9546 L670.2075 7.9546 L668.9344 8.7032 L667.6613 8.7032 L667.2369 9.0775 L663.4176 9.0775 L662.9933 8.7032 L662.1446 8.7032 L660.8715 7.9546 L660.0228 7.9546 L658.7497 7.2059 L657.9009 7.2059 L657.4765 6.8315 L656.6278 6.8315 L654.9304 6.0829 L652.3842 4.2112 L651.1111 1.9652 L650.2623 1.5909 L649.4137 1.9652 Z" fill-rule="evenodd" clip-rule="evenodd" fill="white" stroke="none"/>
  <path d="M654.506 1.5909 L654.506 2.3396 L656.6278 3.8369 L657.4765 4.2112 L658.3253 4.2112 L658.7497 4.5856 L659.5984 4.5856 L660.8715 5.3342 L661.7202 5.3342 L662.1446 5.7085 L663.842 5.7085 L664.2664 6.0829 L666.8126 6.0829 L667.2369 5.7085 L668.9344 5.7085 L671.4806 4.5856 L672.3294 4.5856 L673.6024 3.8369 L674.4511 3.8369 L676.1486 2.7139 L676.1486 1.5909 L675.7242 1.5909 L675.2999 1.9652 L674.4511 1.9652 L673.6024 2.7139 L672.7537 2.7139 L671.4806 3.4626 L670.6318 3.4626 L668.0857 4.5856 L662.9933 4.5856 L662.569 4.2112 L660.4471 3.8369 L659.174 3.0882 L658.3253 3.0882 L656.6278 2.3396 L655.7791 1.5909 L654.506 1.5909 Z" fill-rule="evenodd" clip-rule="evenodd" fill="white" stroke="none"/>
  <path d="M703.7323 1.9652 L705.0053 4.5856 L707.1273 6.4572 L707.5516 6.4572 L708.4002 7.2059 L710.0978 7.9546 L712.2196 8.3289 L713.4927 9.0775 L714.3414 9.0775 L715.6145 9.8262 L716.4632 9.8262 L716.8876 10.2005 L718.585 10.2005 L719.0094 10.5749 L720.2824 10.5749 L720.7068 10.2005 L722.8287 10.2005 L726.2236 8.7032 L727.0723 8.7032 L727.4967 8.3289 L728.3455 8.3289 L729.6185 7.5802 L730.4672 7.5802 L731.3159 7.2059 L734.2864 4.9599 L734.2864 4.5856 L735.1352 3.8369 L735.9839 2.3396 L735.5595 1.5909 L734.2864 1.9652 L733.0133 4.2112 L731.7403 5.3342 L731.3159 5.3342 L730.4672 6.0829 L728.7698 6.8315 L727.921 6.8315 L726.6479 7.5802 L724.5261 7.9546 L721.9799 9.0775 L717.7362 9.0775 L717.3119 8.7032 L716.4632 8.7032 L715.1901 7.9546 L714.3414 7.9546 L713.0684 7.2059 L712.2196 7.2059 L711.7952 6.8315 L710.9465 6.8315 L709.249 6.0829 L706.2785 3.8369 L705.8541 2.7139 L704.581 1.5909 L703.7323 1.9652 Z" fill-rule="evenodd" clip-rule="evenodd" fill="white" stroke="none"/>
  <path d="M708.8247 1.5909 L708.8247 2.3396 L710.9465 3.8369 L711.7952 4.2112 L712.6439 4.2112 L713.917 4.9599 L716.0388 5.3342 L716.4632 5.7085 L717.7362 5.7085 L718.1607 6.0829 L721.5556 6.0829 L721.9799 5.7085 L723.253 5.7085 L723.6773 5.3342 L725.7992 4.9599 L727.0723 4.2112 L727.921 4.2112 L729.6185 3.0882 L730.0428 3.0882 L730.8915 2.3396 L730.8915 1.9652 L730.0428 1.5909 L726.2236 3.4626 L725.3749 3.4626 L724.9505 3.8369 L724.1018 3.8369 L722.4043 4.5856 L717.3119 4.5856 L716.8876 4.2112 L716.0388 4.2112 L715.6145 3.8369 L713.4927 3.4626 L710.9465 2.3396 L710.0978 1.5909 L708.8247 1.5909 Z" fill-rule="evenodd" clip-rule="evenodd" fill="white" stroke="none"/>
  <path d="M377.3962 1.9652 L377.3962 2.7139 L378.245 4.2112 L379.5181 5.3342 L379.5181 5.7085 L379.9424 5.7085 L381.2155 6.8315 L383.7617 7.9546 L384.6104 7.9546 L385.8835 8.7032 L388.0053 9.0775 L389.2784 9.8262 L390.1271 9.8262 L390.5515 10.2005 L392.249 10.2005 L392.6733 10.5749 L393.9464 10.5749 L394.3708 10.2005 L396.0682 10.2005 L396.4926 9.8262 L397.3413 9.8262 L398.6144 9.0775 L400.7362 8.7032 L402.0093 7.9546 L402.8581 7.9546 L405.4043 6.8315 L408.3748 4.2112 L409.2235 2.7139 L409.2235 1.9652 L407.9505 1.9652 L407.1017 3.4626 L404.5555 5.7085 L404.1311 5.7085 L403.2824 6.4572 L402.4337 6.4572 L401.1606 7.2059 L400.3119 7.2059 L399.0388 7.9546 L398.1901 7.9546 L397.7657 8.3289 L396.917 8.3289 L395.2195 9.0775 L391.4002 9.0775 L390.9759 8.7032 L390.1271 8.7032 L389.7028 8.3289 L387.581 7.9546 L385.4591 6.8315 L383.3373 6.4572 L382.4886 5.7085 L382.0642 5.7085 L379.5181 3.4626 L378.6693 1.9652 L377.3962 1.9652 Z" fill-rule="evenodd" clip-rule="evenodd" fill="white" stroke="none"/>
  <path d="M540.7764 1.9652 L540.7764 2.7139 L541.6251 4.2112 L542.0495 4.5856 L542.8982 4.5856 L543.3226 4.2112 L542.8982 3.0882 L541.6251 1.9652 L540.7764 1.9652 Z" fill-rule="evenodd" clip-rule="evenodd" fill="white" stroke="none"/>
  <path d="M256.8768 2.3396 L256.4524 3.0882 L256.4524 3.8369 L256.0281 4.2112 L256.0281 4.9599 L255.1793 6.0829 L255.1793 6.8315 L254.3306 8.3289 L253.4819 9.0775 L253.4819 9.4519 L252.2088 10.5749 L252.2088 10.9492 L249.6626 13.1952 L249.2382 13.1952 L246.6921 15.0669 L244.1459 16.1898 L243.2971 16.1898 L242.024 16.9385 L239.9022 17.3128 L239.9022 17.6872 L241.5997 18.4358 L243.7215 18.8102 L247.1164 20.3075 L248.3895 21.4305 L248.8139 21.4305 L253.0575 25.1738 L254.3306 27.4198 L255.1793 28.1684 L255.1793 28.9171 L256.0281 30.0401 L256.0281 30.7888 L256.8768 31.9118 L256.8768 32.6604 L257.7255 32.6604 L257.7255 31.9118 L258.9986 29.6658 L258.9986 28.9171 L260.2717 26.6711 L261.1204 25.9225 L261.1204 25.5481 L266.2128 21.0561 L266.6372 21.0561 L267.4859 20.3075 L270.8808 18.8102 L271.7295 18.8102 L273.0026 18.0615 L273.8514 18.0615 L274.2757 17.3128 L273.427 16.9385 L272.5783 16.9385 L272.1539 16.5642 L271.3052 16.5642 L267.0615 14.6925 L265.7885 13.5695 L265.3641 13.5695 L261.5448 10.2005 L260.2717 7.9546 L259.423 7.2059 L259.423 6.4572 L258.1499 4.2112 L257.7255 2.3396 L256.8768 2.3396 Z" fill-rule="evenodd" clip-rule="evenodd" fill="white" stroke="none"/>
  <path d="M311.6198 2.3396 L310.3467 4.5856 L310.3467 5.3342 L308.2249 9.0775 L306.9518 10.2005 L306.9518 10.5749 L303.5569 13.5695 L303.1325 13.5695 L301.8594 14.6925 L297.6158 16.5642 L295.4939 16.9385 L294.6452 17.3128 L294.6452 17.6872 L295.9183 18.4358 L298.0401 18.8102 L301.435 20.3075 L302.2838 21.0561 L302.7081 21.0561 L307.8005 25.5481 L307.8005 25.9225 L308.6492 26.6711 L310.3467 29.6658 L310.3467 30.4145 L310.771 30.7888 L310.771 31.5374 L311.1954 32.2861 L312.0441 32.6604 L312.0441 31.9118 L312.8929 30.7888 L312.8929 30.0401 L313.7416 28.9171 L313.7416 28.1684 L314.5903 27.4198 L315.8634 25.1738 L320.107 21.4305 L320.5314 21.4305 L322.6532 19.9332 L325.1994 18.8102 L326.0482 18.8102 L326.4725 18.4358 L327.3212 18.4358 L328.17 18.0615 L328.5943 17.3128 L327.7456 16.9385 L326.8969 16.9385 L325.6238 16.1898 L324.7751 16.1898 L322.2289 15.0669 L319.6827 13.1952 L319.2583 13.1952 L316.7121 10.9492 L316.7121 10.5749 L314.5903 8.3289 L313.3172 6.0829 L313.3172 5.3342 L312.4685 4.2112 L312.0441 2.3396 L311.6198 2.3396 Z" fill-rule="evenodd" clip-rule="evenodd" fill="white" stroke="none"/>
  <path d="M365.9384 2.3396 L365.0897 3.8369 L364.6653 5.7085 L362.9678 8.7032 L362.1191 9.4519 L362.1191 9.8262 L357.4511 13.9438 L354.9049 15.0669 L354.0562 15.8155 L353.2074 15.8155 L351.9344 16.5642 L349.8126 16.9385 L348.9638 17.3128 L348.9638 17.6872 L349.3882 18.0615 L350.2369 18.0615 L351.51 18.8102 L352.3588 18.8102 L355.7536 20.3075 L358.2998 22.1792 L358.7242 22.1792 L359.9973 23.3022 L360.4217 23.3022 L360.846 24.0508 L361.2704 24.0508 L361.2704 23.6765 L360.846 23.6765 L359.9973 22.5535 L360.4217 21.8048 L361.2704 21.4305 L363.8166 24.4251 L365.0897 26.6711 L365.9384 27.4198 L367.2115 27.0455 L367.2115 24.4251 L366.7871 24.4251 L365.9384 25.1738 L365.514 24.4251 L364.2409 23.3022 L364.2409 22.9278 L359.9973 19.1845 L359.5729 19.1845 L358.2998 18.0615 L357.4511 17.6872 L358.7242 16.5642 L359.1486 16.5642 L360.4217 15.4412 L360.846 15.4412 L363.3922 13.1952 L363.3922 12.8209 L365.9384 10.2005 L366.7871 10.5749 L366.7871 10.9492 L368.0602 12.0722 L368.0602 12.4465 L371.8795 15.8155 L372.3039 15.8155 L373.5769 16.9385 L374.4257 17.3128 L374.4257 17.6872 L372.7282 19.1845 L372.3039 19.1845 L371.0308 20.3075 L370.1821 20.6818 L368.9089 22.9278 L368.9089 24.0508 L368.4846 24.4251 L368.9089 25.5481 L368.4846 26.2968 L369.7577 26.2968 L369.7577 25.9225 L371.0308 24.7995 L371.0308 24.4251 L374.4257 21.4305 L374.85 21.4305 L376.9718 19.9332 L377.8206 19.9332 L378.6693 19.1845 L380.7911 18.8102 L383.3373 17.6872 L383.3373 17.3128 L381.2155 16.9385 L379.0937 15.8155 L378.245 15.8155 L377.3962 15.4412 L376.5475 14.6925 L375.2744 14.3182 L373.1526 12.4465 L372.7282 12.4465 L372.3039 11.6979 L369.7577 9.4519 L369.3333 8.3289 L368.4846 7.5802 L368.0602 6.8315 L368.0602 6.0829 L367.2115 4.9599 L367.2115 4.2112 L366.3628 3.0882 L366.3628 2.3396 L365.9384 2.3396 Z" fill-rule="evenodd" clip-rule="evenodd" fill="white" stroke="none"/>
  <path d="M420.257 2.3396 L419.8326 3.0882 L419.8326 3.8369 L419.4083 4.2112 L419.4083 4.9599 L418.5596 6.0829 L418.5596 6.8315 L417.7108 7.5802 L416.4377 9.8262 L414.3159 11.6979 L414.3159 12.0722 L413.4672 12.4465 L411.3454 14.3182 L410.0723 14.6925 L409.2235 15.4412 L408.3748 15.8155 L407.5261 15.8155 L405.4043 16.9385 L403.2824 17.3128 L403.2824 17.6872 L404.9799 18.4358 L405.8286 18.4358 L407.1017 19.1845 L407.9505 19.1845 L408.7992 19.9332 L409.6479 19.9332 L410.4966 20.6818 L412.1941 21.4305 L416.0133 24.7995 L416.0133 25.1738 L417.2865 26.2968 L418.9839 29.2915 L418.9839 30.0401 L419.8326 31.1631 L419.8326 31.9118 L420.257 32.6604 L420.6814 32.6604 L421.9545 30.4145 L422.3788 28.5428 L423.2275 27.7941 L423.2275 27.0455 L425.3494 24.7995 L425.3494 24.4251 L427.8956 22.1792 L428.3199 22.1792 L430.8661 20.3075 L434.261 18.8102 L435.1098 18.8102 L436.3828 18.0615 L437.2316 18.0615 L437.6559 17.3128 L436.8072 17.3128 L435.5341 16.5642 L434.6854 16.5642 L433.4123 15.8155 L432.5636 15.8155 L431.7149 15.0669 L429.1686 13.9438 L424.5006 9.8262 L424.5006 9.4519 L423.6519 8.7032 L421.9545 5.7085 L421.9545 4.9599 L421.1057 3.8369 L421.1057 3.0882 L420.6814 2.3396 L420.257 2.3396 Z" fill-rule="evenodd" clip-rule="evenodd" fill="white" stroke="none"/>
  <path d="M474.5756 2.3396 L474.5756 3.0882 L473.3025 5.3342 L473.3025 6.0829 L472.0294 8.3289 L469.9076 10.5749 L469.9076 10.9492 L467.3614 13.1952 L466.9371 13.1952 L464.3909 15.0669 L461.8447 16.1898 L460.996 16.1898 L459.7229 16.9385 L458.8742 16.9385 L458.0254 17.3128 L458.0254 17.6872 L459.2985 18.4358 L461.4203 18.8102 L463.9665 19.9332 L464.8152 20.6818 L466.0884 21.0561 L470.7563 25.1738 L472.4538 28.1684 L473.3025 28.9171 L473.7269 30.7888 L474.5756 31.9118 L474.5756 32.6604 L475 32.6604 L475.4243 32.2861 L475.4243 31.5374 L476.6974 29.6658 L476.6974 28.9171 L477.9705 26.6711 L478.8192 25.9225 L478.8192 25.5481 L480.9411 23.6765 L480.9411 23.3022 L481.7898 22.9278 L483.9116 21.0561 L484.336 21.0561 L485.1847 20.3075 L488.5796 18.8102 L489.4283 18.8102 L490.7015 18.0615 L491.5502 18.0615 L491.9745 17.3128 L491.1258 16.9385 L490.2771 16.9385 L489.004 16.1898 L488.1553 16.1898 L484.7604 14.6925 L483.4873 13.5695 L483.0629 13.5695 L479.2436 10.2005 L479.2436 9.8262 L478.3949 9.0775 L477.9705 7.9546 L476.6974 6.4572 L476.6974 5.7085 L475.4243 3.4626 L475.4243 2.7139 L474.5756 2.3396 Z" fill-rule="evenodd" clip-rule="evenodd" fill="white" stroke="none"/>
  <path d="M583.6372 2.3396 L582.7885 3.8369 L582.3641 5.7085 L581.091 7.9546 L579.3936 9.8262 L579.3936 10.2005 L575.1499 13.9438 L572.6037 15.0669 L571.755 15.8155 L570.9063 15.8155 L569.6332 16.5642 L567.5114 16.9385 L566.6626 17.3128 L566.6626 17.6872 L567.0871 18.0615 L567.9357 18.0615 L569.2088 18.8102 L570.0576 18.8102 L573.4525 20.3075 L575.9987 22.1792 L576.423 22.1792 L580.2424 25.9225 L582.7885 30.4145 L583.2129 32.2861 L584.0616 32.6604 L584.486 31.9118 L584.486 31.1631 L585.3347 30.0401 L585.3347 29.2915 L586.6078 27.0455 L588.3052 25.1738 L588.3052 24.7995 L592.1245 21.4305 L592.5489 21.4305 L593.3976 20.6818 L593.8219 20.6818 L594.6707 19.9332 L596.3681 19.1845 L597.2169 19.1845 L599.763 18.0615 L600.6118 18.0615 L601.0361 17.3128 L598.9143 16.9385 L596.7925 15.8155 L595.9438 15.8155 L595.095 15.4412 L594.2463 14.6925 L592.9732 14.3182 L590.8514 12.4465 L590.427 12.4465 L590.0026 11.6979 L588.7296 10.9492 L588.7296 10.5749 L586.1834 7.5802 L585.3347 6.0829 L585.3347 5.3342 L584.9103 4.9599 L584.486 3.0882 L584.0616 2.3396 L583.6372 2.3396 Z" fill-rule="evenodd" clip-rule="evenodd" fill="white" stroke="none"/>
  <path d="M637.9558 2.3396 L637.5314 3.0882 L637.5314 3.8369 L637.1071 4.2112 L637.1071 4.9599 L636.2584 6.0829 L636.2584 6.8315 L635.4096 7.5802 L634.1365 9.8262 L632.4391 11.3235 L632.4391 11.6979 L631.5903 12.0722 L631.5903 12.4465 L630.7416 12.8209 L629.0442 14.3182 L627.7711 14.6925 L626.9224 15.4412 L626.0736 15.8155 L625.2249 15.8155 L623.1031 16.9385 L620.9812 17.3128 L620.9812 17.6872 L621.4057 18.0615 L623.5275 18.4358 L624.8005 19.1845 L625.6493 19.1845 L626.498 19.9332 L627.3467 19.9332 L629.8929 21.8048 L630.3173 21.8048 L633.2878 24.4251 L633.2878 24.7995 L635.4096 27.0455 L636.2584 28.5428 L636.2584 29.2915 L637.5314 31.1631 L637.5314 31.9118 L637.9558 32.6604 L638.3802 32.6604 L638.3802 30.7888 L638.8046 30.4145 L638.8046 29.2915 L639.6533 28.5428 L640.0777 27.4198 L640.9264 27.0455 L640.9264 26.6711 L642.1995 25.9225 L643.0482 24.4251 L644.7456 22.9278 L644.7456 21.8048 L643.8969 20.6818 L644.7456 19.9332 L645.17 19.9332 L645.5944 20.6818 L646.4431 21.0561 L647.7162 21.0561 L648.5649 20.3075 L649.8381 19.9332 L650.6867 19.1845 L651.5355 19.1845 L654.0817 18.0615 L654.9304 18.0615 L655.3547 17.3128 L654.506 16.9385 L653.2329 16.9385 L651.1111 15.8155 L650.2623 15.8155 L649.4137 15.0669 L646.8675 13.9438 L642.1995 9.8262 L642.1995 9.4519 L641.3507 8.7032 L639.6533 5.7085 L639.6533 4.9599 L638.8046 3.8369 L638.8046 3.0882 L638.3802 2.3396 L637.9558 2.3396 Z" fill-rule="evenodd" clip-rule="evenodd" fill="white" stroke="none"/>
  <path d="M692.2745 2.3396 L692.2745 3.0882 L691.0014 5.3342 L691.0014 6.0829 L689.7283 8.3289 L687.6065 10.5749 L687.6065 10.9492 L685.0602 13.1952 L684.6359 13.1952 L682.0897 15.0669 L679.5435 16.1898 L678.6948 16.1898 L677.4217 16.9385 L675.2999 17.3128 L675.2999 17.6872 L676.9973 18.4358 L679.1191 18.8102 L681.6653 19.9332 L683.7872 21.4305 L684.2115 21.4305 L688.4552 25.1738 L688.4552 25.5481 L689.3039 26.2968 L691.4257 30.0401 L691.4257 30.7888 L692.2745 31.9118 L692.2745 32.6604 L692.6988 32.6604 L693.1232 32.2861 L693.1232 31.5374 L693.9719 30.4145 L693.9719 29.6658 L695.6694 26.6711 L698.2155 24.0508 L698.2155 23.6765 L702.8836 20.3075 L706.2785 18.8102 L707.1273 18.8102 L708.4002 18.0615 L709.249 18.0615 L709.6733 17.3128 L708.8247 16.9385 L707.9759 16.9385 L706.7028 16.1898 L705.8541 16.1898 L702.4591 14.6925 L701.186 13.5695 L700.7617 13.5695 L696.9425 10.2005 L695.6694 7.9546 L694.8206 7.2059 L694.8206 6.4572 L693.5476 4.5856 L693.1232 2.7139 L692.2745 2.3396 Z" fill-rule="evenodd" clip-rule="evenodd" fill="white" stroke="none"/>
  <path d="M528.8942 2.7139 L528.8942 3.4626 L528.0455 4.5856 L527.6211 6.4572 L526.7724 7.2059 L525.9237 9.0775 L524.6506 10.2005 L524.6506 10.5749 L521.2557 13.5695 L520.8313 13.5695 L519.5582 14.6925 L515.3146 16.5642 L513.1927 16.9385 L512.344 17.3128 L512.344 17.6872 L514.8902 18.8102 L515.7389 18.8102 L519.1339 20.3075 L519.9826 21.0561 L520.407 21.0561 L525.4993 25.5481 L525.4993 25.9225 L526.348 26.6711 L528.0455 29.6658 L528.0455 30.4145 L528.4699 30.7888 L528.4699 31.5374 L528.8942 32.2861 L529.7429 32.6604 L529.7429 31.9118 L531.4404 28.9171 L531.4404 28.1684 L532.2892 27.4198 L533.5623 25.1738 L537.8059 21.4305 L538.2303 21.4305 L539.5033 20.3075 L542.8982 18.8102 L545.0201 18.4358 L545.8688 18.0615 L546.2932 17.3128 L545.4445 16.9385 L544.5957 16.9385 L543.3226 16.1898 L542.4739 16.1898 L539.9277 15.0669 L537.3815 13.1952 L536.9571 13.1952 L533.1379 9.4519 L533.1379 9.0775 L532.2892 8.3289 L531.016 6.0829 L531.016 5.3342 L530.1673 4.2112 L530.1673 3.4626 L529.7429 2.7139 L528.8942 2.7139 Z" fill-rule="evenodd" clip-rule="evenodd" fill="white" stroke="none"/>
  <path d="M202.9825 3.0882 L202.9825 9.8262 L203.8313 11.3235 L205.5287 12.8209 L205.5287 13.1952 L207.6506 15.0669 L208.0749 15.0669 L211.0455 17.3128 L211.0455 17.6872 L209.348 19.1845 L208.9236 19.1845 L204.68 22.9278 L204.68 23.3022 L203.4069 24.4251 L202.9825 25.1738 L202.9825 31.9118 L203.4069 31.9118 L205.5287 27.0455 L206.8018 25.9225 L206.8018 25.5481 L208.0749 24.4251 L208.0749 24.0508 L210.6211 21.8048 L211.0455 21.8048 L213.1673 20.3075 L214.4404 19.9332 L215.2891 19.1845 L216.1378 19.1845 L218.684 18.0615 L219.5327 18.0615 L219.9571 17.3128 L219.1084 16.9385 L218.2597 16.9385 L217.8353 16.5642 L216.9866 16.5642 L212.7429 14.6925 L211.8942 13.9438 L211.4698 13.9438 L207.2262 10.2005 L207.2262 9.8262 L205.5287 7.9546 L204.2556 5.7085 L204.2556 4.9599 L203.8313 4.5856 L203.8313 3.8369 L203.4069 3.0882 L202.9825 3.0882 Z" fill-rule="evenodd" clip-rule="evenodd" fill="white" stroke="none"/>
  <path d="M746.5931 3.0882 L746.1686 3.4626 L745.7443 5.3342 L744.0469 8.3289 L743.1981 9.0775 L742.3494 10.5749 L738.9546 13.5695 L738.5301 13.5695 L737.257 14.6925 L733.8621 16.1898 L733.0133 16.1898 L731.7403 16.9385 L730.8915 16.9385 L730.0428 17.3128 L730.0428 17.6872 L731.3159 18.4358 L733.4378 18.8102 L736.8327 20.3075 L737.6814 21.0561 L738.1058 21.0561 L740.652 23.3022 L741.0763 23.3022 L744.0469 26.6711 L745.32 28.9171 L745.32 29.6658 L746.1686 30.7888 L746.1686 31.5374 L746.5931 32.2861 L747.0175 32.2861 L747.0175 25.5481 L746.1686 24.0508 L744.8956 22.9278 L744.8956 22.5535 L741.0763 19.1845 L740.652 19.1845 L738.5301 17.6872 L743.6226 13.9438 L743.6226 13.5695 L745.32 12.0722 L745.32 11.6979 L746.5931 10.5749 L747.0175 9.8262 L747.0175 3.0882 L746.5931 3.0882 Z" fill-rule="evenodd" clip-rule="evenodd" fill="white" stroke="none"/>
  <path d="M218.684 12.8209 L218.684 13.9438 L219.5327 14.3182 L219.9571 13.9438 L219.9571 13.1952 L219.5327 12.8209 L218.684 12.8209 Z" fill-rule="evenodd" clip-rule="evenodd" fill="white" stroke="none"/>
  <path d="M240.3266 12.8209 L240.3266 13.9438 L241.1753 14.3182 L241.5997 13.9438 L241.5997 13.1952 L241.1753 12.8209 L240.3266 12.8209 Z" fill-rule="evenodd" clip-rule="evenodd" fill="white" stroke="none"/>
  <path d="M273.0026 12.8209 L273.0026 13.9438 L273.8514 14.3182 L274.2757 13.9438 L274.2757 12.8209 L273.0026 12.8209 Z" fill-rule="evenodd" clip-rule="evenodd" fill="white" stroke="none"/>
  <path d="M295.9183 12.8209 L295.0696 12.8209 L294.6452 13.1952 L294.6452 13.9438 L295.0696 14.3182 L295.9183 13.9438 L295.9183 12.8209 Z" fill-rule="evenodd" clip-rule="evenodd" fill="white" stroke="none"/>
  <path d="M328.5943 12.8209 L327.7456 12.8209 L327.3212 13.1952 L327.3212 13.9438 L327.7456 14.3182 L328.5943 13.9438 L328.5943 12.8209 Z" fill-rule="evenodd" clip-rule="evenodd" fill="white" stroke="none"/>
  <path d="M348.9638 13.1952 L348.9638 13.9438 L349.3882 14.3182 L350.6613 13.9438 L350.6613 13.1952 L350.2369 12.8209 L349.3882 12.8209 L348.9638 13.1952 Z" fill-rule="evenodd" clip-rule="evenodd" fill="white" stroke="none"/>
  <path d="M382.0642 12.8209 L381.6399 13.1952 L381.6399 13.9438 L382.0642 14.3182 L382.913 14.3182 L383.3373 13.9438 L383.3373 13.1952 L382.913 12.8209 L382.0642 12.8209 Z" fill-rule="evenodd" clip-rule="evenodd" fill="white" stroke="none"/>
  <path d="M403.7068 12.8209 L403.2824 13.1952 L403.2824 13.9438 L403.7068 14.3182 L404.5555 14.3182 L404.9799 13.9438 L404.9799 13.1952 L404.5555 12.8209 L403.7068 12.8209 Z" fill-rule="evenodd" clip-rule="evenodd" fill="white" stroke="none"/>
  <path d="M436.3828 12.8209 L436.3828 13.9438 L437.2316 14.3182 L437.6559 13.9438 L437.6559 13.1952 L437.2316 12.8209 L436.3828 12.8209 Z" fill-rule="evenodd" clip-rule="evenodd" fill="white" stroke="none"/>
  <path d="M458.0254 12.8209 L458.0254 14.3182 L458.8742 14.3182 L459.2985 13.9438 L459.2985 13.1952 L458.8742 12.8209 L458.0254 12.8209 Z" fill-rule="evenodd" clip-rule="evenodd" fill="white" stroke="none"/>
  <path d="M490.7015 12.8209 L490.7015 13.9438 L491.5502 14.3182 L491.9745 13.9438 L491.9745 12.8209 L490.7015 12.8209 Z" fill-rule="evenodd" clip-rule="evenodd" fill="white" stroke="none"/>
  <path d="M512.344 12.8209 L512.344 13.9438 L513.1927 14.3182 L513.6171 13.9438 L513.6171 12.8209 L512.344 12.8209 Z" fill-rule="evenodd" clip-rule="evenodd" fill="white" stroke="none"/>
  <path d="M546.2932 12.8209 L545.4445 12.8209 L545.0201 13.1952 L545.0201 13.9438 L545.4445 14.3182 L546.2932 13.9438 L546.2932 12.8209 Z" fill-rule="evenodd" clip-rule="evenodd" fill="white" stroke="none"/>
  <path d="M567.9357 12.8209 L567.0871 12.8209 L566.6626 13.1952 L566.6626 13.9438 L567.0871 14.3182 L567.5114 14.3182 L568.3601 13.5695 L567.9357 12.8209 Z" fill-rule="evenodd" clip-rule="evenodd" fill="white" stroke="none"/>
  <path d="M599.763 12.8209 L599.3387 13.1952 L599.3387 13.9438 L599.763 14.3182 L600.6118 14.3182 L601.0361 13.9438 L601.0361 13.1952 L600.6118 12.8209 L599.763 12.8209 Z" fill-rule="evenodd" clip-rule="evenodd" fill="white" stroke="none"/>
  <path d="M621.4057 12.8209 L620.9812 13.1952 L620.9812 13.9438 L621.4057 14.3182 L622.2543 14.3182 L622.6787 13.1952 L622.2543 12.8209 L621.4057 12.8209 Z" fill-rule="evenodd" clip-rule="evenodd" fill="white" stroke="none"/>
  <path d="M654.0817 12.8209 L653.6573 13.5695 L654.506 14.3182 L654.9304 14.3182 L655.3547 13.9438 L655.3547 13.1952 L654.9304 12.8209 L654.0817 12.8209 Z" fill-rule="evenodd" clip-rule="evenodd" fill="white" stroke="none"/>
  <path d="M675.7242 12.8209 L675.2999 13.5695 L676.1486 14.3182 L676.573 14.3182 L676.9973 13.9438 L676.9973 13.1952 L676.573 12.8209 L675.7242 12.8209 Z" fill-rule="evenodd" clip-rule="evenodd" fill="white" stroke="none"/>
  <path d="M708.8247 12.8209 L708.4002 13.1952 L708.4002 13.9438 L709.249 14.3182 L709.6733 13.9438 L709.6733 13.1952 L708.8247 12.8209 Z" fill-rule="evenodd" clip-rule="evenodd" fill="white" stroke="none"/>
  <path d="M730.0428 12.8209 L730.0428 13.9438 L730.8915 14.3182 L731.3159 13.9438 L731.3159 12.8209 L730.0428 12.8209 Z" fill-rule="evenodd" clip-rule="evenodd" fill="white" stroke="none"/>
  <path d="M218.2597 21.4305 L218.684 22.1792 L219.9571 22.1792 L219.9571 21.4305 L219.5327 21.0561 L218.684 21.0561 L218.2597 21.4305 Z" fill-rule="evenodd" clip-rule="evenodd" fill="white" stroke="none"/>
  <path d="M240.3266 21.0561 L240.3266 22.1792 L241.5997 22.1792 L241.5997 21.4305 L241.1753 21.0561 L240.3266 21.0561 Z" fill-rule="evenodd" clip-rule="evenodd" fill="white" stroke="none"/>
  <path d="M273.0026 21.0561 L273.0026 22.1792 L274.2757 22.1792 L274.2757 21.0561 L273.0026 21.0561 Z" fill-rule="evenodd" clip-rule="evenodd" fill="white" stroke="none"/>
  <path d="M294.6452 21.0561 L294.6452 22.1792 L295.4939 22.5535 L295.9183 22.1792 L295.9183 21.0561 L294.6452 21.0561 Z" fill-rule="evenodd" clip-rule="evenodd" fill="white" stroke="none"/>
  <path d="M327.7456 21.0561 L327.3212 21.4305 L327.3212 22.1792 L328.5943 22.1792 L329.0187 21.4305 L328.5943 21.0561 L327.7456 21.0561 Z" fill-rule="evenodd" clip-rule="evenodd" fill="white" stroke="none"/>
  <path d="M350.2369 21.0561 L349.3882 21.0561 L348.9638 21.4305 L348.9638 22.1792 L349.3882 22.5535 L349.8126 22.5535 L350.6613 21.8048 L350.2369 21.0561 Z" fill-rule="evenodd" clip-rule="evenodd" fill="white" stroke="none"/>
  <path d="M382.0642 21.0561 L381.6399 21.4305 L381.6399 22.1792 L382.913 22.1792 L383.3373 21.4305 L382.913 21.0561 L382.0642 21.0561 Z" fill-rule="evenodd" clip-rule="evenodd" fill="white" stroke="none"/>
  <path d="M403.2824 21.4305 L403.2824 22.1792 L404.9799 22.1792 L404.9799 21.4305 L404.5555 21.0561 L403.7068 21.0561 L403.2824 21.4305 Z" fill-rule="evenodd" clip-rule="evenodd" fill="white" stroke="none"/>
  <path d="M436.3828 21.0561 L435.9585 21.8048 L436.8072 22.5535 L437.2316 22.5535 L437.6559 22.1792 L437.6559 21.4305 L437.2316 21.0561 L436.3828 21.0561 Z" fill-rule="evenodd" clip-rule="evenodd" fill="white" stroke="none"/>
  <path d="M458.0254 21.0561 L458.0254 22.1792 L459.2985 22.1792 L459.2985 21.4305 L458.8742 21.0561 L458.0254 21.0561 Z" fill-rule="evenodd" clip-rule="evenodd" fill="white" stroke="none"/>
  <path d="M490.7015 21.0561 L490.7015 22.1792 L491.5502 22.5535 L491.9745 22.1792 L491.9745 21.0561 L490.7015 21.0561 Z" fill-rule="evenodd" clip-rule="evenodd" fill="white" stroke="none"/>
  <path d="M512.344 21.0561 L512.344 22.1792 L513.6171 22.1792 L513.6171 21.0561 L512.344 21.0561 Z" fill-rule="evenodd" clip-rule="evenodd" fill="white" stroke="none"/>
  <path d="M546.2932 21.0561 L545.4445 21.0561 L545.0201 21.4305 L545.0201 22.1792 L545.4445 22.5535 L545.8688 22.5535 L546.7175 21.8048 L546.2932 21.0561 Z" fill-rule="evenodd" clip-rule="evenodd" fill="white" stroke="none"/>
  <path d="M567.0871 21.0561 L566.6626 21.4305 L566.6626 22.1792 L567.9357 22.1792 L568.3601 21.4305 L567.9357 21.0561 L567.0871 21.0561 Z" fill-rule="evenodd" clip-rule="evenodd" fill="white" stroke="none"/>
  <path d="M599.763 21.0561 L599.3387 21.4305 L599.3387 22.1792 L600.6118 22.1792 L601.0361 21.4305 L600.6118 21.0561 L599.763 21.0561 Z" fill-rule="evenodd" clip-rule="evenodd" fill="white" stroke="none"/>
  <path d="M621.4057 21.0561 L620.9812 21.4305 L620.9812 22.1792 L622.2543 22.1792 L622.6787 21.4305 L622.2543 21.0561 L621.4057 21.0561 Z" fill-rule="evenodd" clip-rule="evenodd" fill="white" stroke="none"/>
  <path d="M654.0817 21.0561 L654.0817 22.1792 L655.3547 22.1792 L655.3547 21.4305 L654.9304 21.0561 L654.0817 21.0561 Z" fill-rule="evenodd" clip-rule="evenodd" fill="white" stroke="none"/>
  <path d="M675.7242 21.0561 L675.2999 21.8048 L676.1486 22.5535 L676.573 22.5535 L676.9973 22.1792 L676.9973 21.4305 L676.573 21.0561 L675.7242 21.0561 Z" fill-rule="evenodd" clip-rule="evenodd" fill="white" stroke="none"/>
  <path d="M708.4002 21.0561 L708.4002 22.1792 L709.249 22.5535 L709.6733 22.1792 L709.6733 21.0561 L708.4002 21.0561 Z" fill-rule="evenodd" clip-rule="evenodd" fill="white" stroke="none"/>
  <path d="M730.0428 21.0561 L730.0428 22.1792 L730.8915 22.5535 L731.3159 22.1792 L731.3159 21.0561 L730.0428 21.0561 Z" fill-rule="evenodd" clip-rule="evenodd" fill="white" stroke="none"/>
  <path d="M214.4404 33.0348 L214.4404 33.4091 L216.1378 33.4091 L216.5622 32.6604 L219.9571 29.6658 L220.3815 29.6658 L221.2302 28.9171 L221.6546 28.9171 L222.5033 28.1684 L224.2008 27.4198 L225.0495 27.4198 L227.5957 26.2968 L228.8688 26.2968 L229.2931 25.9225 L230.9906 25.9225 L231.4149 26.2968 L232.688 26.2968 L235.2342 27.4198 L237.356 27.7941 L239.4779 28.9171 L240.3266 28.9171 L241.1753 29.6658 L241.5997 29.6658 L243.7215 31.5374 L244.1459 32.6604 L244.9946 33.4091 L246.2677 33.4091 L244.9946 30.7888 L242.4484 28.5428 L241.1753 28.1684 L240.3266 27.4198 L238.2048 27.0455 L236.9317 26.2968 L234.8099 25.9225 L232.2637 24.7995 L228.02 24.7995 L227.5957 25.1738 L226.7469 25.1738 L225.4738 25.9225 L224.6251 25.9225 L223.352 26.6711 L222.5033 26.6711 L221.6546 27.0455 L220.8058 27.7941 L219.1084 28.5428 L215.2891 31.9118 L215.2891 32.2861 L214.4404 33.0348 Z" fill-rule="evenodd" clip-rule="evenodd" fill="white" stroke="none"/>
  <path d="M268.3346 32.6604 L268.3346 33.4091 L269.6077 33.4091 L270.4565 31.9118 L273.427 29.2915 L275.1245 28.5428 L275.9732 28.5428 L277.2463 27.7941 L278.095 27.7941 L279.3681 27.0455 L280.2168 27.0455 L280.6412 26.6711 L281.4899 26.6711 L283.1874 25.9225 L285.3092 25.9225 L285.7336 26.2968 L287.0066 26.2968 L287.431 26.6711 L288.2797 26.6711 L289.5528 27.4198 L291.6747 27.7941 L292.9477 28.5428 L293.7965 28.5428 L295.4939 29.2915 L298.4645 31.9118 L299.3132 33.4091 L300.5863 33.4091 L300.5863 32.6604 L299.7376 31.1631 L298.4645 30.0401 L298.4645 29.6658 L297.6158 29.2915 L296.3427 28.1684 L294.6452 27.4198 L293.7965 27.4198 L292.5234 26.6711 L291.6747 26.6711 L290.4016 25.9225 L289.5528 25.9225 L289.1285 25.5481 L287.0066 25.1738 L286.5823 24.7995 L282.3386 24.7995 L281.9143 25.1738 L279.7925 25.5481 L278.5194 26.2968 L276.3975 26.6711 L275.1245 27.4198 L274.2757 27.4198 L272.5783 28.1684 L269.6077 30.7888 L269.6077 31.1631 L268.3346 32.6604 Z" fill-rule="evenodd" clip-rule="evenodd" fill="white" stroke="none"/>
  <path d="M323.502 33.0348 L323.502 33.4091 L324.7751 33.4091 L329.4431 29.2915 L329.8674 29.2915 L330.7162 28.5428 L334.9598 26.6711 L335.8085 26.6711 L336.2329 26.2968 L337.9304 26.2968 L338.3547 25.9225 L339.6278 25.9225 L340.0522 26.2968 L341.3253 26.2968 L341.7496 26.6711 L343.8715 27.0455 L345.1445 27.7941 L347.2664 28.1684 L349.8126 29.2915 L352.7831 31.9118 L353.2074 33.0348 L353.6318 33.4091 L354.4806 33.4091 L354.4806 32.6604 L354.0562 32.2861 L354.0562 31.5374 L353.2074 30.0401 L350.6613 28.1684 L348.1151 27.0455 L345.9933 26.6711 L344.7202 25.9225 L343.8715 25.9225 L343.4471 25.5481 L342.5984 25.5481 L340.9009 24.7995 L336.6573 24.7995 L336.2329 25.1738 L335.3842 25.1738 L334.1111 25.9225 L333.2624 25.9225 L329.8674 27.4198 L327.3212 29.2915 L326.8969 29.2915 L325.6238 30.4145 L325.6238 30.7888 L324.7751 31.1631 L324.7751 31.5374 L323.502 33.0348 Z" fill-rule="evenodd" clip-rule="evenodd" fill="white" stroke="none"/>
  <path d="M377.3962 32.2861 L377.3962 33.4091 L378.6693 33.4091 L379.9424 31.1631 L382.913 28.9171 L383.7617 28.9171 L385.0348 28.1684 L385.8835 28.1684 L387.1566 27.4198 L388.0053 27.4198 L390.5515 26.2968 L391.8246 26.2968 L392.249 25.9225 L394.7952 25.9225 L395.2195 26.2968 L397.3413 26.6711 L398.6144 27.4198 L399.4632 27.4198 L400.7362 28.1684 L401.585 28.1684 L402.8581 28.9171 L403.7068 28.9171 L406.6774 31.1631 L407.9505 33.4091 L409.2235 33.4091 L409.2235 32.2861 L408.7992 31.5374 L407.9505 30.7888 L407.9505 30.4145 L405.8286 28.5428 L402.4337 27.0455 L400.3119 26.6711 L399.0388 25.9225 L398.1901 25.9225 L395.6439 24.7995 L390.9759 24.7995 L388.4297 25.9225 L387.581 25.9225 L386.3079 26.6711 L384.1861 27.0455 L381.6399 28.1684 L380.7911 28.9171 L380.3667 28.9171 L379.0937 30.0401 L379.0937 30.4145 L377.8206 31.5374 L377.3962 32.2861 Z" fill-rule="evenodd" clip-rule="evenodd" fill="white" stroke="none"/>
  <path d="M432.1392 33.0348 L432.1392 33.4091 L433.8367 33.4091 L434.261 32.6604 L437.6559 29.6658 L438.0803 29.6658 L438.929 28.9171 L439.3534 28.9171 L440.2021 28.1684 L441.8995 27.4198 L442.7483 27.4198 L445.2945 26.2968 L446.5676 26.2968 L446.9919 25.9225 L448.6894 25.9225 L449.1138 26.2968 L450.3869 26.2968 L452.933 27.4198 L455.0549 27.7941 L457.1767 28.9171 L458.0254 28.9171 L458.8742 29.6658 L459.2985 29.6658 L461.4203 31.5374 L461.8447 32.6604 L462.6934 33.4091 L463.9665 33.4091 L462.6934 30.7888 L460.1472 28.5428 L456.7523 27.0455 L454.6305 26.6711 L453.3574 25.9225 L452.5087 25.9225 L449.9625 24.7995 L445.7189 24.7995 L445.2945 25.1738 L443.1727 25.5481 L441.8995 26.2968 L441.0509 26.2968 L439.3534 27.0455 L438.5046 27.7941 L436.8072 28.5428 L432.9879 31.9118 L432.9879 32.2861 L432.1392 33.0348 Z" fill-rule="evenodd" clip-rule="evenodd" fill="white" stroke="none"/>
  <path d="M486.0334 32.6604 L486.0334 33.4091 L487.3065 33.4091 L488.1553 31.9118 L491.1258 29.2915 L493.672 28.1684 L494.5207 28.1684 L494.9451 27.7941 L497.0669 27.4198 L499.6131 26.2968 L500.8862 26.2968 L501.3106 25.9225 L503.4324 25.9225 L503.8567 26.2968 L504.7055 26.2968 L505.1298 26.6711 L507.2517 27.0455 L508.5248 27.7941 L509.3735 27.7941 L510.6466 28.5428 L511.4953 28.5428 L513.1927 29.2915 L515.7389 31.5374 L515.7389 31.9118 L517.012 33.4091 L518.2851 33.4091 L518.2851 32.6604 L517.4364 31.9118 L517.012 30.7888 L514.4659 28.5428 L514.0415 28.5428 L512.344 27.4198 L511.4953 27.4198 L510.2222 26.6711 L508.1004 26.2968 L506.8273 25.5481 L505.9785 25.5481 L504.2811 24.7995 L500.0375 24.7995 L499.6131 25.1738 L498.7644 25.1738 L498.34 25.5481 L496.2182 25.9225 L494.0964 27.0455 L491.9745 27.4198 L490.2771 28.1684 L487.3065 30.7888 L487.3065 31.1631 L486.0334 32.6604 Z" fill-rule="evenodd" clip-rule="evenodd" fill="white" stroke="none"/>
  <path d="M541.2008 32.6604 L541.2008 33.4091 L542.4739 33.4091 L547.5663 28.9171 L548.8393 28.5428 L549.6881 27.7941 L550.5368 27.7941 L553.9317 26.2968 L557.751 25.9225 L558.1754 26.2968 L559.0241 26.2968 L559.4485 26.6711 L561.5703 27.0455 L562.8434 27.7941 L564.9652 28.1684 L567.5114 29.2915 L570.4819 31.9118 L571.3307 33.4091 L572.6037 33.4091 L572.6037 32.6604 L571.755 31.1631 L570.9063 30.4145 L570.9063 30.0401 L568.3601 28.1684 L565.8139 27.0455 L563.6921 26.6711 L562.419 25.9225 L561.5703 25.9225 L560.2972 25.1738 L559.0241 25.1738 L558.5998 24.7995 L554.7804 24.7995 L554.3561 25.1738 L553.083 25.1738 L551.8099 25.9225 L550.9612 25.9225 L547.5663 27.4198 L545.0201 29.2915 L544.5957 29.2915 L541.2008 32.6604 Z" fill-rule="evenodd" clip-rule="evenodd" fill="white" stroke="none"/>
  <path d="M595.095 32.6604 L595.095 33.4091 L596.3681 33.4091 L597.6412 31.1631 L600.6118 28.9171 L601.4605 28.9171 L602.7336 28.1684 L603.5823 28.1684 L604.8554 27.4198 L605.7042 27.4198 L608.2503 26.2968 L609.5234 26.2968 L609.9478 25.9225 L612.0696 25.9225 L612.494 26.2968 L613.7671 26.2968 L615.0402 27.0455 L617.162 27.4198 L618.4351 28.1684 L619.2838 28.1684 L621.83 29.2915 L624.3762 31.1631 L625.6493 33.4091 L626.9224 33.4091 L626.9224 32.2861 L626.498 31.5374 L623.9518 28.9171 L623.5275 28.9171 L622.6787 28.1684 L620.1325 27.0455 L618.0107 26.6711 L616.7376 25.9225 L615.8889 25.9225 L613.3427 24.7995 L609.0991 24.7995 L608.6747 25.1738 L607.4016 25.1738 L606.1285 25.9225 L605.2798 25.9225 L604.0067 26.6711 L601.8849 27.0455 L599.3387 28.1684 L598.49 28.9171 L598.0656 28.9171 L596.3681 30.4145 L595.095 32.6604 Z" fill-rule="evenodd" clip-rule="evenodd" fill="white" stroke="none"/>
  <path d="M657.0522 27.4198 L657.0522 27.7941 L659.174 27.7941 L661.7202 26.6711 L662.569 26.6711 L662.9933 26.2968 L664.2664 26.2968 L664.6908 25.9225 L666.3882 25.9225 L666.8126 26.2968 L668.0857 26.2968 L670.6318 27.4198 L671.4806 27.4198 L671.905 27.7941 L672.7537 27.7941 L674.0268 28.5428 L674.8755 28.5428 L675.7242 28.9171 L676.573 29.6658 L676.9973 29.6658 L679.1191 31.5374 L679.5435 32.6604 L680.3922 33.4091 L681.6653 33.4091 L680.3922 30.7888 L677.8461 28.5428 L674.4511 27.0455 L673.6024 27.0455 L672.3294 26.2968 L670.2075 25.9225 L667.6613 24.7995 L663.4176 24.7995 L662.9933 25.1738 L660.8715 25.5481 L658.7497 26.6711 L657.9009 26.6711 L657.0522 27.4198 Z" fill-rule="evenodd" clip-rule="evenodd" fill="white" stroke="none"/>
  <path d="M703.7323 32.6604 L703.7323 33.4091 L705.0053 33.4091 L705.8541 31.9118 L708.8247 29.2915 L710.522 28.5428 L711.3708 28.5428 L712.6439 27.7941 L714.7657 27.4198 L717.3119 26.2968 L718.585 26.2968 L719.0094 25.9225 L720.7068 25.9225 L721.1313 26.2968 L722.4043 26.2968 L722.8287 26.6711 L724.9505 27.0455 L726.2236 27.7941 L727.0723 27.7941 L729.1941 28.9171 L730.0428 28.9171 L730.8915 29.2915 L733.8621 31.9118 L734.7109 33.4091 L735.9839 33.4091 L735.9839 32.6604 L734.7109 31.1631 L734.7109 30.7888 L732.1647 28.5428 L731.7403 28.5428 L730.0428 27.4198 L727.921 27.0455 L725.7992 25.9225 L724.9505 25.9225 L724.5261 25.5481 L723.6773 25.5481 L721.9799 24.7995 L717.7362 24.7995 L717.3119 25.1738 L716.4632 25.1738 L716.0388 25.5481 L713.917 25.9225 L712.6439 26.6711 L711.7952 26.6711 L710.522 27.4198 L709.6733 27.4198 L707.9759 28.1684 L706.7028 29.2915 L706.2785 29.2915 L706.2785 29.6658 L705.0053 30.7888 L705.0053 31.1631 L703.7323 32.6604 Z" fill-rule="evenodd" clip-rule="evenodd" fill="white" stroke="none"/>
  <path d="M363.8166 27.7941 L364.2409 28.5428 L364.2409 29.2915 L365.0897 30.4145 L365.514 32.2861 L366.3628 32.6604 L366.3628 30.4145 L365.0897 29.2915 L365.0897 28.5428 L364.6653 27.7941 L363.8166 27.7941 Z" fill-rule="evenodd" clip-rule="evenodd" fill="white" stroke="none"/>
  <path d="M656.2035 28.9171 L655.7791 28.5428 L654.506 28.5428 L653.2329 29.6658 L653.2329 30.7888 L654.0817 30.7888 L655.3547 29.6658 L655.7791 29.6658 L656.2035 28.9171 Z" fill-rule="evenodd" clip-rule="evenodd" fill="white" stroke="none"/>
  <path d="M220.3815 33.0348 L220.3815 33.4091 L222.0789 33.4091 L222.9277 33.0348 L224.2008 31.9118 L225.8982 31.1631 L228.02 30.7888 L228.4444 30.4145 L231.8393 30.4145 L232.2637 30.7888 L233.1124 30.7888 L233.5368 31.1631 L235.6586 31.5374 L236.9317 32.2861 L237.7804 32.2861 L239.4779 33.4091 L241.1753 33.4091 L241.1753 33.0348 L239.9022 31.9118 L236.5073 30.4145 L235.6586 30.4145 L235.2342 30.0401 L234.3855 30.0401 L232.688 29.2915 L227.5957 29.2915 L227.1713 29.6658 L226.3226 29.6658 L225.0495 30.4145 L224.2008 30.4145 L223.352 30.7888 L220.3815 33.0348 Z" fill-rule="evenodd" clip-rule="evenodd" fill="white" stroke="none"/>
  <path d="M274.7001 33.0348 L274.7001 33.4091 L276.3975 33.4091 L277.2463 33.0348 L278.5194 31.9118 L281.0656 30.7888 L282.3386 30.7888 L282.763 30.4145 L286.1579 30.4145 L286.5823 30.7888 L287.8554 30.7888 L289.1285 31.5374 L289.9772 31.5374 L291.2503 32.2861 L292.099 32.2861 L293.7965 33.4091 L295.4939 33.4091 L295.4939 33.0348 L293.7965 31.5374 L292.9477 31.1631 L292.099 31.1631 L290.8259 30.4145 L289.9772 30.4145 L287.431 29.2915 L281.4899 29.2915 L281.0656 29.6658 L280.2168 29.6658 L277.6706 30.7888 L274.7001 33.0348 Z" fill-rule="evenodd" clip-rule="evenodd" fill="white" stroke="none"/>
  <path d="M329.0187 33.0348 L329.0187 33.4091 L331.1405 33.4091 L332.4136 32.2861 L335.8085 30.7888 L336.6573 30.7888 L337.0816 30.4145 L340.9009 30.4145 L341.3253 30.7888 L343.4471 31.1631 L344.7202 31.9118 L345.5689 31.9118 L347.2664 32.6604 L348.1151 33.4091 L349.8126 33.4091 L349.8126 33.0348 L348.1151 31.5374 L346.4176 30.7888 L344.2958 30.4145 L341.7496 29.2915 L336.2329 29.2915 L335.8085 29.6658 L334.9598 29.6658 L331.5649 31.1631 L329.8674 32.6604 L329.0187 33.0348 Z" fill-rule="evenodd" clip-rule="evenodd" fill="white" stroke="none"/>
  <path d="M383.3373 33.0348 L383.3373 33.4091 L385.4591 33.4091 L386.7322 32.2861 L388.0053 31.9118 L388.8541 31.1631 L389.7028 31.1631 L391.4002 30.4145 L394.7952 30.4145 L395.2195 30.7888 L396.4926 30.7888 L396.917 31.1631 L399.0388 31.5374 L400.3119 32.2861 L401.1606 32.2861 L402.8581 33.4091 L404.5555 33.4091 L404.5555 33.0348 L403.2824 31.9118 L399.8875 30.4145 L398.6144 30.4145 L396.0682 29.2915 L390.5515 29.2915 L390.1271 29.6658 L389.2784 29.6658 L385.8835 31.1631 L384.1861 32.6604 L383.3373 33.0348 Z" fill-rule="evenodd" clip-rule="evenodd" fill="white" stroke="none"/>
  <path d="M438.0803 33.0348 L438.0803 33.4091 L439.7777 33.4091 L440.6265 33.0348 L441.8995 31.9118 L444.4458 30.7888 L445.7189 30.7888 L446.1432 30.4145 L449.5381 30.4145 L449.9625 30.7888 L450.8112 30.7888 L451.2356 31.1631 L453.3574 31.5374 L454.6305 32.2861 L455.4792 32.2861 L457.1767 33.4091 L458.8742 33.4091 L458.8742 33.0348 L457.1767 31.5374 L456.3279 31.1631 L455.4792 31.1631 L454.2061 30.4145 L453.3574 30.4145 L452.933 30.0401 L450.8112 29.6658 L450.3869 29.2915 L444.8701 29.2915 L439.7777 31.5374 L438.0803 33.0348 Z" fill-rule="evenodd" clip-rule="evenodd" fill="white" stroke="none"/>
  <path d="M492.3989 33.0348 L492.3989 33.4091 L494.0964 33.4091 L496.2182 31.9118 L498.7644 30.7888 L499.6131 30.7888 L500.0375 30.4145 L503.8567 30.4145 L504.2811 30.7888 L505.5542 30.7888 L505.9785 31.1631 L506.8273 31.1631 L508.9491 32.2861 L509.7979 32.2861 L511.4953 33.4091 L513.1927 33.4091 L513.1927 33.0348 L511.4953 31.5374 L510.6466 31.1631 L509.7979 31.1631 L508.5248 30.4145 L507.676 30.4145 L505.1298 29.2915 L499.1887 29.2915 L498.7644 29.6658 L497.9157 29.6658 L495.3695 30.7888 L492.3989 33.0348 Z" fill-rule="evenodd" clip-rule="evenodd" fill="white" stroke="none"/>
  <path d="M547.1419 32.6604 L547.1419 33.4091 L548.8393 33.4091 L550.1124 32.2861 L550.5368 32.2861 L552.2343 31.1631 L553.083 31.1631 L554.7804 30.4145 L558.5998 30.4145 L559.0241 30.7888 L561.1459 31.1631 L562.419 31.9118 L563.2677 31.9118 L564.9652 32.6604 L565.8139 33.4091 L567.5114 33.4091 L567.0871 32.2861 L566.6626 32.2861 L565.8139 31.5374 L564.9652 31.1631 L564.1164 31.1631 L562.8434 30.4145 L561.9946 30.4145 L559.4485 29.2915 L553.9317 29.2915 L553.5073 29.6658 L552.6586 29.6658 L549.2637 31.1631 L547.5663 32.6604 L547.1419 32.6604 Z" fill-rule="evenodd" clip-rule="evenodd" fill="white" stroke="none"/>
  <path d="M601.0361 33.0348 L601.0361 33.4091 L603.1579 33.4091 L604.4311 32.2861 L604.8554 32.2861 L606.5529 31.1631 L607.4016 31.1631 L609.0991 30.4145 L612.9183 30.4145 L613.3427 30.7888 L615.4645 31.1631 L616.7376 31.9118 L618.8594 32.2861 L620.1325 33.4091 L621.83 33.4091 L621.83 32.6604 L620.9812 31.9118 L618.4351 30.7888 L617.5864 30.7888 L616.3132 30.0401 L614.1914 29.6658 L613.7671 29.2915 L608.2503 29.2915 L607.826 29.6658 L606.9772 29.6658 L603.5823 31.1631 L601.8849 32.6604 L601.0361 33.0348 Z" fill-rule="evenodd" clip-rule="evenodd" fill="white" stroke="none"/>
  <path d="M655.7791 33.0348 L655.7791 33.4091 L657.4765 33.4091 L658.3253 33.0348 L659.5984 31.9118 L662.1446 30.7888 L663.4176 30.7888 L663.842 30.4145 L667.2369 30.4145 L667.6613 30.7888 L668.5101 30.7888 L668.9344 31.1631 L671.0562 31.5374 L672.3294 32.2861 L673.178 32.2861 L674.8755 33.4091 L676.573 33.4091 L676.573 33.0348 L674.8755 31.5374 L674.0268 31.1631 L673.178 31.1631 L671.905 30.4145 L671.0562 30.4145 L670.6318 30.0401 L668.5101 29.6658 L668.0857 29.2915 L662.569 29.2915 L662.1446 29.6658 L661.2959 29.6658 L658.7497 30.7888 L657.9009 31.5374 L657.4765 31.5374 L655.7791 33.0348 Z" fill-rule="evenodd" clip-rule="evenodd" fill="white" stroke="none"/>
  <path d="M710.0978 33.0348 L710.0978 33.4091 L711.7952 33.4091 L713.917 31.9118 L716.4632 30.7888 L717.7362 30.7888 L718.1607 30.4145 L721.5556 30.4145 L721.9799 30.7888 L723.253 30.7888 L724.5261 31.5374 L725.3749 31.5374 L726.6479 32.2861 L727.4967 32.2861 L729.1941 33.4091 L730.8915 33.4091 L730.8915 33.0348 L729.1941 31.5374 L728.3455 31.1631 L727.4967 31.1631 L726.2236 30.4145 L725.3749 30.4145 L722.8287 29.2915 L716.8876 29.2915 L716.4632 29.6658 L715.6145 29.6658 L713.0684 30.7888 L710.0978 33.0348 Z" fill-rule="evenodd" clip-rule="evenodd" fill="white" stroke="none"/>
  <path d="M651.9599 31.5374 L651.1111 31.5374 L650.2623 32.6604 L650.2623 33.4091 L651.5355 33.4091 L651.9599 33.0348 L651.9599 31.5374 Z" fill-rule="evenodd" clip-rule="evenodd" fill="white" stroke="none"/></g></svg>