<svg xmlns="http://www.w3.org/2000/svg" viewBox="0 0 950 35" fill="none"><g transform="translate(-346.8947,-12.7803) scale(1.7303)"><path d="M587.747 1.5909 L587.747 2.9743 L593.2805 2.9743 L593.2805 1.5909 L587.747 1.5909 Z" fill-rule="evenodd" clip-rule="evenodd" fill="white" stroke="none"/>
  <path d="M211.4626 23.7253 L212.846 27.8755 L215.6128 29.2589 L219.763 26.4921 L225.2966 26.4921 L226.68 27.8755 L229.4468 26.4921 L244.6642 26.4921 L252.9646 33.4091 L348.419 33.4091 L348.419 30.6423 L265.4152 30.6423 L262.6484 27.8755 L264.0317 26.4921 L430.0395 26.4921 L431.4229 27.8755 L435.5731 27.8755 L436.9565 26.4921 L517.1936 26.4921 L518.577 27.8755 L515.8102 29.2589 L515.8102 30.6423 L525.494 26.4921 L553.162 26.4921 L553.162 23.7253 L542.0948 23.7253 L540.7114 20.9585 L537.9446 20.9585 L533.7945 23.7253 L425.8893 23.7253 L424.5059 22.3419 L420.3557 22.3419 L418.9724 23.7253 L395.4546 23.7253 L394.0712 22.3419 L389.921 22.3419 L388.5376 23.7253 L264.0317 23.7253 L262.6484 22.3419 L268.182 18.1917 L348.419 18.1917 L347.0356 15.4249 L252.9646 15.4249 L244.6642 23.7253 L230.8302 23.7253 L229.4468 22.3419 L221.1464 23.7253 L216.9962 19.5751 L215.6128 19.5751 L211.4626 23.7253 Z" fill-rule="evenodd" clip-rule="evenodd" fill="white" stroke="none"/>
  <path d="M738.5374 26.4921 L738.5374 23.7253 L735.7706 20.9585 L733.0038 20.9585 L730.237 23.7253 L726.0868 23.7253 L724.7033 22.3419 L724.7033 20.9585 L723.32 20.9585 L720.5532 23.7253 L632.0156 23.7253 L630.6322 22.3419 L626.4822 22.3419 L625.0987 23.7253 L568.3793 23.7253 L568.3793 25.1087 L569.7627 26.4921 L640.3161 26.4921 L641.6994 27.8755 L643.0829 27.8755 L644.4663 26.4921 L721.9365 26.4921 L723.32 27.8755 L724.7033 27.8755 L726.0868 26.4921 L730.237 26.4921 L733.0038 29.2589 L735.7706 29.2589 L738.5374 26.4921 Z" fill-rule="evenodd" clip-rule="evenodd" fill="white" stroke="none"/></g></svg>