<svg xmlns="http://www.w3.org/2000/svg" viewBox="0 0 950 35" fill="none"><g transform="translate(-261.7474,-9.7491) scale(1.5497)"><path d="M300.4422 2.0354 C299.7006 2.1546 296.2622 2.8902 292.8013 3.67 C285.0891 5.4077 277.5695 5.8267 272.1914 4.8184 L268.665 4.1572 L270.3954 5.0299 C272.9292 6.3076 278.7576 7.3829 283.204 7.3931 C285.3417 7.398 290.1959 6.932 293.9912 6.3576 C302.0897 5.132 306.181 5.0352 308.5873 6.0124 C311.1214 7.0414 310.8778 8.9208 308.1378 9.481 C306.4225 9.8317 305.1462 9.7859 302.2765 9.2706 C297.2725 8.3722 297.233 8.4063 301.3449 10.0733 C303.3274 10.8769 306.9991 13.057 309.5041 14.9179 C312.009 16.7788 315.0905 18.8516 316.3517 19.5241 C317.6128 20.1966 318.4235 20.8462 318.153 20.9675 C317.8826 21.0888 313.2821 19.1691 307.9297 16.7014 C294.0614 10.3074 287.5081 9.0562 279.1368 11.2041 L275.3605 12.1729 L274.3913 10.8551 C272.5938 8.4114 267.3935 6.9055 260.7515 6.9055 C257.1737 6.9055 255.3782 7.1999 250.7732 8.5416 C247.6847 9.4415 243.9441 10.3832 242.4609 10.6345 C239.0642 11.2099 233.3913 10.8451 229.5854 9.8065 C226.7637 9.0366 226.6902 9.0354 227.5718 9.7746 C230.2922 12.0554 238.5736 13.7376 244.8608 13.2865 C247.7435 13.0797 248.3909 13.177 249.3031 13.9542 C250.7392 15.1778 251.8285 15.4557 255.2177 15.4629 C258.5324 15.4701 259.9187 14.8536 257.2832 14.5444 C256.0184 14.3959 255.4955 13.9931 255.4955 13.1674 C255.4955 10.3247 262.5214 10.3027 264.7597 13.1384 C265.7126 14.3457 263.5664 16.2154 260.1354 17.1671 C255.5049 18.4515 248.1429 18.3787 242.2948 16.9907 C222.9618 12.4022 223.8647 12.5647 218.6391 12.732 C213.4739 12.8973 207.4649 14.0357 199.1036 16.433 C193.7242 17.9752 189.7532 18.3775 184.8279 17.8791 C180.3727 17.4282 179.9834 17.6554 183.5456 18.6275 C189.7078 20.309 195.0916 20.0367 209.2003 17.3298 C215.7996 16.0637 221.5803 15.9768 225.6242 17.0832 C229.7739 18.2184 231.1051 19.6576 228.9802 20.7112 C227.1377 21.6247 224.8226 21.7376 221.9721 21.0531 C218.4855 20.2158 213.7916 19.9259 210.3619 20.3361 C205.6502 20.8996 205.5654 21.3114 210.1521 21.3562 C213.3086 21.387 215.4069 21.7973 220.8567 23.4493 C234.2349 27.5048 245.2927 26.7836 264.2622 20.6186 C273.6115 17.5801 277.8448 16.517 282.3217 16.0832 C286.6088 15.6678 292.2758 16.1432 296.4202 17.266 L299.9928 18.2339 L294.5346 18.0121 C285.7346 17.6545 280.6715 18.5408 271.6502 22.0182 C263.2686 25.249 259.8312 26.1217 253.6976 26.576 L249.6524 26.8756 L253.2481 27.4542 C257.7079 28.1719 263.9933 27.9046 268.8608 26.7903 L272.461 25.9662 L273.0855 26.8689 C275.0686 29.7352 281.3356 31.6051 288.945 31.6008 C296.5714 31.5966 301.2426 29.7574 301.3093 26.7327 C301.3471 25.0224 298.3746 23.5363 294.9158 23.5363 C291.7526 23.5363 291.0918 23.9862 293.4729 24.5188 C296.0713 25.1001 296.5156 26.2164 294.5387 27.1966 C291.5253 28.6907 285.0562 27.8356 283.9132 25.7922 C282.5762 23.4018 287.8725 21.1204 294.7654 21.1177 C299.6927 21.1157 302.0684 21.5506 311.2295 24.1316 C315.432 25.3157 321.0676 26.5737 323.7531 26.9272 C333.8431 28.2554 344.6954 27.4739 352.2921 24.872 C356.5669 23.4079 356.5716 23.4074 354.9605 24.58 C350.3404 27.943 340.9722 30.3934 332.7355 30.3934 C328.9511 30.3934 317.8778 28.9612 317.0575 28.3657 C316.7603 28.1499 316.0543 27.9733 315.4887 27.9733 C313.5714 27.9733 321.5408 31.2636 326.0619 32.3386 C329.9049 33.2524 331.6644 33.4074 338.1976 33.4081 C347.1879 33.4091 351.3834 32.6281 358.1066 29.7018 C362.0031 28.0058 362.3248 27.9408 362.8868 28.7354 C363.2181 29.2039 364.9032 30.0712 366.6314 30.6626 C374.2964 33.2859 385.7779 30.726 383.6234 26.8741 C382.3738 24.6399 378.6552 23.8111 379.3451 25.9206 C380.0728 28.1449 373.2074 28.6259 371.3875 26.4782 C370.2608 25.1483 372.6163 23.262 376.7592 22.1762 C383.7396 20.347 385.0416 20.3224 475.3211 20.3157 C567.0042 20.309 566.8852 20.3065 574.2356 22.3449 C579.5157 23.8092 580.4266 26.7314 575.8918 27.6585 C573.0609 28.2373 569.7895 27.054 570.3813 25.6652 C570.8645 24.5307 570.0109 24.4944 567.8651 25.5583 C564.2224 27.3645 567.033 30.5755 573.0489 31.4803 C577.5676 32.1598 581.9817 31.5243 585.304 29.7158 L587.9791 28.2596 L592.3104 29.9874 C598.9164 32.6225 603.4138 33.4066 611.9236 33.4066 C617.3489 33.4066 620.1356 33.1963 623.2703 32.5505 C627.3841 31.703 634.8465 28.9965 634.8465 28.352 C634.8465 28.1683 632.5205 28.5019 629.6777 29.0935 C625.4427 29.9747 623.2093 30.1695 617.3172 30.1713 C611.0507 30.1734 609.5102 30.0218 605.3401 28.9932 C601.1623 27.9627 597.3275 26.2759 594.8558 24.3816 C593.9847 23.714 595.1261 23.9772 599.5227 25.4577 C605.5939 27.5021 617.4234 28.1711 626.3858 26.9769 C628.8337 26.6506 633.4581 25.6455 636.662 24.7431 C647.2833 21.7518 651.5648 20.9979 656.6798 21.2185 C660.3792 21.378 661.7433 21.6594 663.7838 22.6841 C666.7854 24.1915 666.9847 25.4624 664.446 26.9105 C662.4731 28.036 659.3873 28.2822 656.3619 27.5557 C653.9202 26.9694 653.9627 24.7484 656.4211 24.4599 C659.1708 24.1373 658.5593 23.5363 655.4812 23.5363 C649.9007 23.5363 646.714 26.3146 649.4806 28.7679 C654.5951 33.3033 674.095 32.1197 676.648 27.119 L677.187 26.0631 L682.3107 27.0086 C688.0007 28.0587 693.244 28.2021 697.3226 27.4193 L700.0194 26.9016 L696.1163 26.6201 C690.5158 26.216 686.1405 25.0964 679.1717 22.2842 C670.8601 18.9301 666.7503 18.1184 658.0025 18.1031 C651.2758 18.0914 651.1109 18.0683 653.0529 17.41 C656.1146 16.3721 662.2636 15.7371 666.3873 16.033 C671.323 16.3871 675.969 17.4964 685.6364 20.6288 C696.6787 24.2068 703.7583 25.6218 711.8301 25.8641 C718.8471 26.0748 722.7208 25.4624 732.3106 22.6263 C735.6237 21.6464 737.7346 21.3179 740.7155 21.3179 L744.6964 21.3179 L740.8513 20.5655 C737.1697 19.8451 736.7934 19.8426 731.9969 20.5055 C729.2417 20.8863 725.824 21.2248 724.4019 21.2578 C718.7637 21.3887 719.0144 18.2909 724.7498 16.9594 C729.3144 15.8996 735.3979 16.2354 744.9349 18.0734 C756.1847 20.2415 764.3517 20.0963 768.8534 17.6482 C770.0166 17.0156 769.9686 16.989 768.3385 17.3631 C762.7871 18.637 755.8582 18.125 748.6858 15.9107 C741.735 13.7649 735.5281 12.6539 730.4666 12.6496 C725.7965 12.6456 722.9495 13.1782 709.4583 16.5798 C706.7389 17.2654 702.981 17.9528 701.1071 18.1074 C693.541 18.7316 685.1869 16.4843 685.1869 13.8247 C685.1869 12.4798 687.9496 11.0322 690.5163 11.0322 C692.3539 11.0322 695.0752 12.0284 695.0752 12.7009 C695.0752 13.5096 693.1763 14.6624 691.8443 14.6624 C691.0909 14.6624 690.7244 14.8439 691.0301 15.0658 C692.0199 15.7845 697.663 15.518 699.5699 14.6624 C700.5586 14.2187 701.3678 13.6679 701.3678 13.4384 C701.3678 13.173 702.9448 13.1151 705.7011 13.2791 C711.0389 13.5969 718.4659 12.3167 721.1698 10.6128 C723.627 9.0643 723.3994 8.9025 720.05 9.8165 C713.3832 11.6356 708.092 11.2907 698.6709 8.4226 C694.0298 7.0096 693.3833 6.9273 688.1182 7.0777 C681.4985 7.2668 678.4785 8.1095 675.7706 10.5228 L673.9236 12.1688 L671.2593 11.298 C667.8459 10.1823 660.972 10.1422 655.9716 11.2089 C653.994 11.6307 648.3306 13.8185 643.3863 16.0706 C631.7941 21.3509 629.9531 21.9237 634.9483 18.696 C637.1798 17.254 640.3959 15.0099 642.095 13.7092 C643.7941 12.4085 646.8025 10.703 648.7801 9.9192 C650.7581 9.1353 651.5669 8.6301 650.5779 8.7961 C643.9762 9.9043 643.8257 9.9119 641.5732 9.2496 C639.0338 8.503 638.7424 7.5617 640.6687 6.3277 C642.8932 4.9026 645.8478 4.8728 654.7274 6.1858 C665.0556 7.7131 669.1838 7.7336 675.349 6.2884 C680.9303 4.9801 682.6638 3.8466 677.644 4.7877 C671.8644 5.8713 666.7144 5.5628 657.3199 3.57 C650.4274 2.108 647.8261 1.7585 643.8358 1.7582 C638.5883 1.7579 634.0395 2.6673 632.0158 4.1213 C630.9464 4.8898 630.8998 4.8895 628.5325 4.1042 C627.2128 3.6664 624.3518 3.2197 622.1747 3.1114 C618.8064 2.944 618.4842 2.9868 620.014 3.3983 C623.3608 4.2985 626.0246 5.5805 627.9141 7.2003 C630.5533 9.4628 630.6017 14.1556 628.0121 16.6837 C624.2022 20.4029 616.5762 22.705 608.0132 22.7207 C603.7298 22.7286 602.8697 22.5797 600.1476 21.3582 C596.6258 19.778 596.1892 18.294 598.8891 17.0826 C602.4631 15.4789 607.7576 16.443 606.6132 18.4891 C605.9761 19.6282 607.0719 19.8069 609.1037 18.8953 C614.2132 16.6026 609.4834 13.049 601.3223 13.049 C599.6452 13.049 596.49 13.5037 594.3109 14.0594 C586.252 16.1147 580.8676 17.1351 578.8934 16.9813 C576.918 16.8274 576.9279 16.8114 579.2677 16.3697 C580.5891 16.1203 584.3545 14.8944 587.6352 13.6456 C597.3074 9.9639 602.594 9.2027 609.6697 10.473 C614.7191 11.3796 617.2155 13.1064 617.7667 16.0742 L618.2161 18.4943 L620.2075 17.2417 C625.225 14.0855 624.7766 10.0633 619.1243 7.5272 C615.7493 6.0127 614.171 5.8356 614.171 6.9713 C614.171 7.6626 613.6522 7.5941 609.5859 6.3663 C607.0642 5.6048 603.9291 4.9858 602.6192 4.9906 C599.123 5.0036 593.1887 6.3318 590.9688 7.5982 L589.0328 8.7025 L588.0606 7.548 C586.6905 5.921 582.9344 4.2711 579.4137 3.7497 C570.915 2.4912 562.238 7.0269 567.8353 9.802 C570.0384 10.8944 570.8654 10.8465 570.3582 9.6561 C570.0506 8.9339 570.5459 8.5063 572.2807 7.9962 C574.4519 7.3579 574.7772 7.3561 576.8651 7.9699 C578.362 8.41 579.1124 9.0016 579.1124 9.7416 C579.1124 12.1561 573.5501 13.9266 563.7143 14.6427 C560.0629 14.9086 527.6899 15.0582 474.3864 15.0557 C385.5533 15.0515 381.5359 14.9727 376.0084 13.1262 C370.323 11.2271 369.1049 8.8022 373.327 7.7883 C375.8799 7.1752 379.5486 8.261 379.5486 9.6297 C379.5486 10.8695 380.804 10.9111 382.6439 9.7324 C385.5846 7.8485 383.4487 5.118 378.1524 3.9902 C372.2053 2.724 365.5264 4.0345 362.5077 7.06 L360.9744 8.5966 L358.4225 7.4014 C355.18 5.8828 348.9967 4.7957 345.6528 5.1564 C344.2717 5.3054 341.4226 5.9736 339.3213 6.6413 C335.7379 7.7801 335.5007 7.8038 335.5007 7.0237 C335.5007 5.992 335.0681 5.988 331.9299 6.9906 C326.3653 8.7686 324.8057 13.0882 328.5739 16.2856 C329.7083 17.2482 331.023 18.0929 331.4954 18.1629 C331.977 18.2342 332.3546 17.2383 332.3546 15.8973 C332.3546 13.7932 332.68 13.3493 335.0512 12.2186 C342.2398 8.7912 350.1392 9.0636 360.9068 13.1101 C364.4754 14.4512 368.6127 15.8322 370.1009 16.1789 C371.589 16.5256 372.331 16.8814 371.7498 16.9695 C369.7384 17.2746 363.7926 16.2816 357.9742 14.6689 C350.7265 12.6601 346.0962 12.4947 341.8623 14.0932 C339.6778 14.918 339.0965 15.4559 339.0965 16.6525 C339.0965 17.6081 339.7037 18.4142 340.7404 18.8352 C343.0089 19.7564 343.7195 19.6709 343.0938 18.5523 C342.0185 16.6298 347.9988 15.4794 351.0928 17.0135 C354.1039 18.5064 352.5992 21.0773 348.1039 22.1204 C339.5354 24.1086 326.6054 21.3761 322.0378 16.6118 C320.3968 14.9001 320.1008 13.9545 320.3572 11.2406 C320.6211 8.4468 321.0489 7.6889 323.1764 6.2469 C324.5558 5.3119 326.983 4.1917 328.57 3.7575 L331.4555 2.968 L328.6594 2.9665 C327.1216 2.9657 324.3569 3.4237 322.5156 3.9844 L319.1678 5.0038 L317.3666 3.9763 C316.376 3.4112 314.4077 2.6802 312.9926 2.3519 C310.5066 1.775 303.2068 1.5909 300.4422 2.0354 Z" fill-rule="evenodd" clip-rule="evenodd" fill="white" stroke="none"/></g></svg>