<svg xmlns="http://www.w3.org/2000/svg" viewBox="0 0 950 35" fill="none"><g transform="translate(-5866.6591,-216.1401) scale(13.3509)"><path d="M440.8449 3.8551 L441.6682 4.8019 L442.8621 5.0901 L445.0439 6.7779 L447.4315 5.1312 L448.1725 4.9665 L447.6374 4.7607 L448.6665 3.8962 L447.9255 3.4022 L446.4435 3.3199 L446.5259 3.0317 L447.0199 2.8671 L448.1725 2.9494 L449.284 3.8139 L449.0782 4.3079 L448.296 4.9254 L449.1193 4.4726 L449.8603 4.5549 L449.2428 4.3491 L449.6957 4.1021 L482.3817 4.1844 L482.4229 4.4314 L450.0662 4.4726 L482.7934 4.5549 L484.3577 5.1312 L486.4572 6.7779 L488.886 5.0901 L490.2857 4.6784 L490.9032 3.9786 L490.5327 3.3611 L489.4624 2.6612 L489.0507 1.9614 L488.1862 1.5909 L487.3629 1.6321 L486.5807 2.0437 L485.6339 1.5909 L484.6047 1.7144 L482.2171 3.8962 L449.4898 3.9786 L448.9135 3.1964 L447.061 1.6732 L446.1142 1.5909 L445.0027 2.0437 L444.2617 1.6321 L443.4796 1.5909 L442.6151 2.0437 L440.8449 3.8551 Z" fill-rule="evenodd" clip-rule="evenodd" fill="white" stroke="none"/>
  <path d="M444.838 2.1261 L444.838 2.2496 L444.7557 2.3319 L444.7145 2.3319 L444.5911 2.4142 L444.4676 2.4142 L444.4264 2.3731 L444.3441 2.3731 L444.3029 2.3319 L444.2206 2.3319 L444.1794 2.2907 L444.0559 2.2907 L444.0147 2.2496 L443.5619 2.2496 L443.5207 2.2907 L443.4384 2.2907 L443.3972 2.3319 L443.3561 2.3319 L443.3149 2.3731 L443.1914 2.4142 L442.9856 2.6201 L442.9856 2.6612 L442.9032 2.7436 L442.9032 2.8259 L442.8621 2.8671 L442.8621 3.5669 L442.9032 3.6081 L442.9032 4.1432 L442.7797 4.2667 L442.5739 4.2667 L442.4504 4.1432 L442.4504 4.1021 L442.4092 4.0609 L442.4092 3.7316 L442.3681 3.6904 L442.3681 3.3611 L442.3269 3.3199 L442.3269 2.8671 L442.3681 2.8259 L442.3681 2.7024 L442.4504 2.5789 L442.4504 2.4966 L442.5327 2.4142 L442.5327 2.3731 L442.9032 2.0026 L442.9444 2.0026 L442.9856 1.9614 L443.0267 1.9614 L443.1091 1.8791 L443.1502 1.8791 L443.1914 1.8379 L443.2737 1.8379 L443.3972 1.7556 L443.5207 1.7556 L443.5619 1.7144 L444.0147 1.7144 L444.0559 1.7556 L444.1794 1.7556 L444.3029 1.8379 L444.3852 1.8379 L444.4264 1.8791 L444.4676 1.8791 L444.5087 1.9202 L444.6322 1.9614 L444.838 2.1261 Z" fill-rule="evenodd" clip-rule="evenodd" fill="white" stroke="none"/>
  <path d="M447.802 2.5789 L447.802 2.7024 L447.7609 2.7436 L447.555 2.7436 L447.5139 2.7847 L447.4727 2.7436 L447.3904 2.7436 L447.1434 2.4554 L447.1022 2.4554 L447.0199 2.3731 L446.9787 2.3731 L446.8552 2.2907 L446.7729 2.2907 L446.7317 2.2496 L446.1554 2.2496 L446.1142 2.2907 L445.9907 2.2907 L445.8672 2.3731 L445.7849 2.3731 L445.7437 2.4142 L445.6202 2.4554 L445.5379 2.5377 L445.4967 2.5377 L445.3732 2.6612 L445.332 2.6612 L445.2497 2.7436 L445.2085 2.7436 L445.0439 2.9082 L445.0027 2.9082 L444.5499 3.3611 L444.3852 3.3611 L444.1794 3.1552 L444.1794 3.0317 L444.6734 2.5377 L444.7145 2.5377 L444.8792 2.3731 L444.9204 2.3731 L445.0027 2.2907 L445.0439 2.2907 L445.1262 2.2084 L445.1674 2.2084 L445.3732 2.0437 L445.4144 2.0437 L445.4555 2.0026 L445.4967 2.0026 L445.5379 1.9614 L445.579 1.9614 L445.7849 1.8379 L445.8672 1.8379 L445.9084 1.7967 L445.9907 1.7967 L446.0319 1.7556 L446.32 1.7556 L446.3612 1.7144 L446.4435 1.7144 L446.4847 1.7556 L446.814 1.7556 L446.8552 1.7967 L446.9375 1.7967 L446.9787 1.8379 L447.061 1.8379 L447.1022 1.8791 L447.2257 1.9202 L447.308 2.0026 L447.3492 2.0026 L447.6374 2.2907 L447.6374 2.3319 L447.7197 2.4142 L447.7197 2.4554 L447.802 2.5789 Z" fill-rule="evenodd" clip-rule="evenodd" fill="white" stroke="none"/>
  <path d="M486.3337 2.1672 L486.3337 2.2496 L486.2514 2.3319 L486.2102 2.3319 L486.1279 2.4142 L486.0456 2.4142 L486.0044 2.4554 L485.8809 2.3731 L485.7985 2.3731 L485.6751 2.2907 L485.5516 2.2907 L485.5104 2.2496 L485.0576 2.2496 L485.0164 2.2907 L484.8929 2.2907 L484.8517 2.3319 L484.8106 2.3319 L484.7694 2.3731 L484.6459 2.4142 L484.3989 2.6612 L484.3989 2.7024 L484.3577 2.7436 L484.3577 2.8259 L484.3166 2.8671 L484.3166 3.3611 L484.3577 3.4022 L484.3577 4.1432 L484.2342 4.2667 L484.0284 4.2667 L483.9049 4.1432 L483.9049 4.0609 L483.8637 4.0197 L483.8637 3.7316 L483.8226 3.6904 L483.8226 3.0317 L483.7814 2.9906 L483.7814 2.9082 L483.8226 2.8671 L483.8226 2.7024 L483.8637 2.6612 L483.8637 2.6201 L483.9049 2.5789 L483.9461 2.4554 L484.0284 2.3731 L484.0284 2.3319 L484.2754 2.0849 L484.3166 2.0849 L484.5224 1.9202 L484.5636 1.9202 L484.6871 1.8379 L484.7694 1.8379 L484.8106 1.7967 L484.8929 1.7967 L484.9341 1.7556 L485.1399 1.7556 L485.1811 1.7144 L485.4692 1.7144 L485.5104 1.7556 L485.6751 1.7556 L485.7985 1.8379 L485.8809 1.8379 L485.9632 1.9202 L486.0044 1.9202 L486.0456 1.9614 L486.0867 1.9614 L486.169 2.0437 L486.2102 2.0437 L486.3337 2.1672 Z" fill-rule="evenodd" clip-rule="evenodd" fill="white" stroke="none"/>
  <path d="M489.2977 2.6201 L489.2977 2.6612 L489.2154 2.7436 L488.8449 2.7436 L488.639 2.5377 L488.639 2.4966 L488.5979 2.4966 L488.4744 2.3731 L488.4332 2.3731 L488.3097 2.2907 L488.1862 2.2907 L488.145 2.2496 L487.651 2.2496 L487.6099 2.2907 L487.4864 2.2907 L487.4452 2.3319 L487.3629 2.3319 L487.3217 2.3731 L487.2805 2.3731 L487.2394 2.4142 L487.1982 2.4142 L487.157 2.4554 L487.0335 2.4966 L486.91 2.6201 L486.8689 2.6201 L486.7865 2.7024 L486.7454 2.7024 L486.6219 2.8259 L486.5807 2.8259 L486.3749 3.0317 L486.3337 3.0317 L486.2514 3.1141 L486.2514 3.1552 L486.2102 3.1964 L486.169 3.1964 L486.0044 3.3611 L485.8809 3.3611 L485.6751 3.1552 L485.6751 3.0317 L485.7162 2.9906 L485.7162 2.9494 L486.1279 2.5377 L486.169 2.5377 L486.2925 2.4142 L486.3337 2.4142 L486.416 2.3319 L486.4572 2.3319 L486.5395 2.2496 L486.5807 2.2496 L486.663 2.1672 L486.7042 2.1672 L486.91 2.0026 L486.9512 2.0026 L486.9924 1.9614 L487.0335 1.9614 L487.2394 1.8379 L487.3217 1.8379 L487.3629 1.7967 L487.4864 1.7967 L487.5275 1.7556 L488.3097 1.7556 L488.3509 1.7967 L488.4332 1.7967 L488.4744 1.8379 L488.5155 1.8379 L488.5567 1.8791 L488.5979 1.8791 L488.639 1.9202 L488.7625 1.9614 L489.133 2.3319 L489.1742 2.4554 L489.2565 2.5377 L489.2565 2.5789 L489.2977 2.6201 Z" fill-rule="evenodd" clip-rule="evenodd" fill="white" stroke="none"/>
  <path d="M445.4967 2.7024 L445.5379 2.7024 L445.579 2.6612 L445.7437 2.6612 L446.073 2.9906 L446.073 3.0317 L446.32 3.2787 L446.32 3.3199 L446.567 3.5669 L446.567 3.6081 L446.814 3.8551 L446.814 3.8962 L447.0199 4.1021 L447.0199 4.2667 L446.8552 4.4314 L446.7317 4.4314 L446.6905 4.3902 L446.6494 4.3902 L446.3612 4.1021 L446.3612 4.0609 L445.9907 3.6904 L445.9907 3.6492 L445.9495 3.6492 L445.9084 3.6081 L445.9084 3.5669 L445.5379 3.1964 L445.5379 3.1552 L445.4144 3.0317 L445.4144 2.9906 L445.332 2.8671 L445.4967 2.7024 Z" fill-rule="evenodd" clip-rule="evenodd" fill="white" stroke="none"/>
  <path d="M486.9512 2.7436 L486.9924 2.7436 L487.1159 2.6612 L487.1982 2.6612 L487.6922 3.1552 L487.6922 3.1964 L488.3509 3.8962 L488.3509 3.9374 L488.4744 4.0609 L488.4744 4.2667 L488.3097 4.4314 L488.145 4.4314 L487.9804 4.2667 L487.9804 4.2256 L487.651 3.8962 L487.651 3.8551 L487.0747 3.2787 L487.0747 3.2376 L486.8689 3.0317 L486.8689 2.9906 L486.8277 2.9494 L486.8277 2.8671 L486.9512 2.7436 Z" fill-rule="evenodd" clip-rule="evenodd" fill="white" stroke="none"/>
  <path d="M443.0267 2.9082 L443.1091 2.8259 L443.3149 2.8259 L443.5207 2.9494 L443.6031 2.9494 L443.6854 3.0317 L443.7266 3.0317 L443.8089 3.1141 L443.8501 3.1141 L443.9324 3.1964 L443.9736 3.1964 L444.0559 3.2787 L444.0971 3.2787 L444.1794 3.3611 L444.2206 3.3611 L444.3441 3.4846 L444.3852 3.4846 L444.4676 3.5669 L444.5087 3.5669 L444.7145 3.7727 L444.7557 3.7727 L444.9615 3.9786 L444.9615 4.0197 L444.7557 4.2256 L444.5911 4.2256 L444.5087 4.1432 L444.3852 4.1021 L444.2617 3.9786 L444.2206 3.9786 L444.1382 3.8962 L444.0971 3.8962 L443.9736 3.7727 L443.9324 3.7727 L443.8501 3.6904 L443.8089 3.6904 L443.7266 3.6081 L443.6854 3.6081 L443.4796 3.4434 L443.4384 3.4434 L443.3972 3.4022 L443.2737 3.3611 L443.1914 3.2787 L443.1502 3.2787 L443.0267 3.1552 L443.0267 2.9082 Z" fill-rule="evenodd" clip-rule="evenodd" fill="white" stroke="none"/>
  <path d="M484.4812 2.9082 L484.5636 2.8259 L484.7694 2.8259 L484.9752 2.9494 L485.0576 2.9494 L485.0987 2.9906 L485.1399 2.9906 L485.2222 3.0729 L485.2634 3.0729 L485.3457 3.1552 L485.3869 3.1552 L485.4692 3.2376 L485.5104 3.2376 L485.6339 3.3611 L485.6751 3.3611 L485.7574 3.4434 L485.7985 3.4434 L485.9221 3.5669 L485.9632 3.5669 L486.0456 3.6492 L486.0867 3.6492 L486.2102 3.7727 L486.2514 3.7727 L486.3749 3.8962 L486.3749 3.9374 L486.416 3.9786 L486.3337 4.0609 L486.3337 4.1021 L486.2925 4.1432 L486.2514 4.1432 L486.169 4.2256 L486.0456 4.2256 L485.9632 4.1432 L485.9221 4.1432 L485.8397 4.0609 L485.7985 4.0609 L485.7162 3.9786 L485.6751 3.9786 L485.5516 3.8551 L485.5104 3.8551 L485.4281 3.7727 L485.3869 3.7727 L485.3046 3.6904 L485.2634 3.6904 L485.1811 3.6081 L485.1399 3.6081 L484.9341 3.4434 L484.8929 3.4434 L484.8517 3.4022 L484.8106 3.4022 L484.7694 3.3611 L484.6459 3.3199 L484.4812 3.1552 L484.4812 3.1141 L484.4401 3.0729 L484.4401 2.9906 L484.4812 2.9494 L484.4812 2.9082 Z" fill-rule="evenodd" clip-rule="evenodd" fill="white" stroke="none"/>
  <path d="M487.9392 3.0729 L487.9804 3.0729 L488.0627 2.9906 L488.1039 2.9906 L488.145 2.9494 L488.2685 2.9494 L488.3097 2.9082 L488.4332 2.9082 L488.4744 2.8671 L488.886 2.8671 L488.9272 2.8259 L488.9684 2.8671 L489.3389 2.8671 L489.38 2.9082 L489.5035 2.9082 L489.5447 2.9494 L489.627 2.9494 L489.6682 2.9906 L489.7094 2.9906 L489.7505 3.0317 L489.874 3.0729 L489.9564 3.1552 L489.9975 3.1552 L490.0799 3.2376 L490.121 3.2376 L490.2033 3.3199 L490.2445 3.3199 L490.7797 3.8551 L490.7797 3.8962 L490.6973 3.9786 L490.6973 4.0197 L490.5327 4.1844 L490.5327 4.2256 L490.4503 4.3079 L490.4092 4.4314 L490.368 4.4726 L490.3268 4.4726 L490.2857 4.5137 L490.2033 4.5137 L490.121 4.5961 L490.0799 4.5961 L490.0799 4.6784 L490.0387 4.7196 L489.9975 4.7196 L489.874 4.8019 L489.7917 4.8019 L489.7094 4.8842 L489.6682 4.8842 L489.627 4.9254 L489.3389 4.9254 L489.2977 4.9665 L489.2565 4.9254 L489.133 4.9254 L489.0507 4.8019 L489.0919 4.6784 L489.1742 4.5961 L489.2154 4.5961 L489.3389 4.4726 L489.38 4.4726 L489.4624 4.3902 L489.5035 4.3902 L489.5447 4.3491 L489.5859 4.3491 L489.627 4.3079 L489.7505 4.2667 L489.874 4.1432 L489.9152 4.1432 L490.0387 4.0197 L490.0387 3.9786 L490.0799 3.9374 L490.0387 3.8139 L489.9564 3.7316 L489.9152 3.7316 L489.7917 3.6081 L489.7505 3.6081 L489.6682 3.5257 L489.627 3.5257 L489.5035 3.4434 L489.4212 3.4434 L489.38 3.4022 L489.2977 3.4022 L489.2565 3.3611 L488.5155 3.3611 L488.4744 3.4022 L488.392 3.4022 L488.3509 3.4434 L488.2685 3.4434 L488.2274 3.4846 L488.1862 3.4846 L488.145 3.4434 L488.0627 3.4434 L487.898 3.2787 L487.898 3.2376 L487.8569 3.1964 L487.8569 3.1552 L487.9392 3.0729 Z" fill-rule="evenodd" clip-rule="evenodd" fill="white" stroke="none"/>
  <path d="M482.4641 3.8962 L482.5052 3.8551 L482.5052 3.8139 L482.5876 3.7316 L482.5876 3.6904 L482.8346 3.4022 L482.8757 3.4022 L483.0816 3.1964 L483.1227 3.1964 L483.2462 3.0729 L483.2874 3.0729 L483.3697 2.9906 L483.4109 2.9906 L483.4521 2.9494 L483.4932 2.9494 L483.5756 2.8671 L483.6167 2.8671 L483.6991 2.9494 L483.6991 3.2376 L483.6579 3.2787 L483.6167 3.4022 L483.5756 3.4434 L483.5344 3.4434 L483.2462 3.7316 L483.2051 3.7316 L483.1227 3.8139 L483.1227 3.9374 L483.4109 4.1844 L483.4521 4.1844 L483.4932 4.2256 L483.5344 4.2256 L483.6167 4.3079 L483.6991 4.3079 L483.8226 4.3902 L484.2342 4.3902 L484.2754 4.3491 L484.3166 4.3491 L484.3577 4.3079 L484.4812 4.2667 L484.5636 4.1844 L484.6047 4.1844 L484.8106 3.9786 L484.8517 3.9786 L485.0164 3.8139 L485.0576 3.8139 L485.0987 3.7727 L485.2222 3.7727 L485.4281 3.9786 L485.4281 4.0197 L485.3457 4.1021 L485.3457 4.1432 L484.9341 4.5549 L484.8929 4.5549 L484.7694 4.6784 L484.6459 4.7196 L484.5636 4.8019 L484.5224 4.8019 L484.4812 4.8431 L484.3989 4.8431 L484.3577 4.8842 L484.2754 4.8842 L484.2342 4.9254 L483.8637 4.9254 L483.8226 4.8842 L483.6991 4.8842 L483.6579 4.8431 L483.5756 4.8431 L483.5344 4.8019 L483.4932 4.8019 L483.3697 4.7196 L483.2874 4.7196 L483.2051 4.6372 L483.0816 4.5961 L482.9169 4.4314 L482.8757 4.4314 L482.5464 4.1021 L482.5464 4.0609 L482.4641 3.9786 L482.4641 3.8962 Z" fill-rule="evenodd" clip-rule="evenodd" fill="white" stroke="none"/>
  <path d="M441.0096 3.8962 L441.0507 3.8551 L441.0507 3.8139 L441.1331 3.7316 L441.1331 3.6904 L441.5036 3.3199 L441.5447 3.3199 L441.7094 3.1552 L441.7506 3.1552 L441.9564 2.9906 L441.9976 2.9906 L442.0387 2.9494 L442.1622 2.9082 L442.2034 2.9494 L442.2034 3.3199 L442.1622 3.3611 L442.1622 3.4022 L441.8329 3.7316 L441.7917 3.7316 L441.6682 3.8551 L441.6682 3.9374 L441.8329 4.1021 L441.8741 4.1021 L441.9976 4.2256 L442.0387 4.2256 L442.0799 4.2667 L442.1211 4.2667 L442.3269 4.3902 L442.4504 4.3902 L442.4916 4.4314 L442.6974 4.4314 L442.7386 4.3902 L442.8621 4.3902 L442.9032 4.3491 L442.9444 4.3491 L443.0267 4.2667 L443.0679 4.2667 L443.1914 4.1432 L443.2326 4.1432 L443.4384 3.9374 L443.4796 3.9374 L443.6031 3.8139 L443.6442 3.8139 L443.6854 3.7727 L443.8089 3.8139 L443.9736 3.9786 L443.9736 4.0197 L443.9324 4.0609 L443.9324 4.1021 L443.8089 4.2256 L443.8089 4.2667 L443.5207 4.5549 L443.4796 4.5549 L443.3561 4.6784 L443.3149 4.6784 L443.2326 4.7607 L443.1914 4.7607 L442.9856 4.8842 L442.9032 4.8842 L442.8621 4.9254 L442.4092 4.9254 L442.3681 4.8842 L442.2446 4.8842 L442.1211 4.8019 L442.0387 4.8019 L441.9976 4.7607 L441.9564 4.7607 L441.9152 4.7196 L441.7917 4.6784 L441.5859 4.5137 L441.5447 4.5137 L441.1742 4.1844 L441.1742 4.1432 L441.0096 3.9786 L441.0096 3.8962 Z" fill-rule="evenodd" clip-rule="evenodd" fill="white" stroke="none"/>
  <path d="M447.802 3.4846 L447.9255 3.6081 L447.9255 3.8139 L447.8844 3.8551 L447.8844 3.9786 L447.802 4.1021 L447.802 4.1844 L447.7609 4.2256 L447.7609 4.2667 L447.6785 4.3491 L447.6785 4.4314 L447.5962 4.5137 L447.5962 4.5549 L447.5139 4.6372 L447.5139 4.6784 L447.3904 4.8019 L447.3904 4.8431 L447.061 5.1724 L447.0199 5.1724 L446.9787 5.2135 L446.814 5.2135 L446.7729 5.1724 L446.7317 5.1724 L446.6082 5.0489 L446.6082 4.9254 L446.9375 4.5961 L446.9375 4.5549 L447.1022 4.3902 L447.1022 4.3491 L447.1845 4.2667 L447.1845 4.2256 L447.2257 4.1844 L447.2257 4.1432 L447.3492 3.9374 L447.3492 3.8551 L447.3904 3.8139 L447.3904 3.7316 L447.4315 3.6904 L447.4315 3.6081 L447.4727 3.5669 L447.4727 3.5257 L447.555 3.4434 L447.7197 3.4434 L447.7609 3.4846 L447.802 3.4846 Z" fill-rule="evenodd" clip-rule="evenodd" fill="white" stroke="none"/>
  <path d="M489.2565 3.4846 L489.38 3.6081 L489.38 3.8551 L489.3389 3.8962 L489.3389 3.9786 L489.2977 4.0197 L489.2977 4.1021 L489.2565 4.1432 L489.2565 4.1844 L489.2154 4.2256 L489.2154 4.2667 L489.1742 4.3079 L489.133 4.4314 L489.0507 4.5137 L489.0507 4.5549 L488.9684 4.6372 L488.9684 4.6784 L488.8037 4.8431 L488.8037 4.8842 L488.5155 5.1724 L488.4744 5.1724 L488.4332 5.2135 L488.2685 5.2135 L488.2274 5.1724 L488.1862 5.1724 L488.0627 5.0489 L488.0627 5.0077 L488.0215 4.9665 L488.0627 4.9254 L488.0627 4.8842 L488.3097 4.6372 L488.3097 4.5961 L488.3509 4.5549 L488.392 4.5549 L488.392 4.5137 L488.5979 4.3079 L488.639 4.1844 L488.7214 4.1021 L488.7214 4.0609 L488.7625 4.0197 L488.7625 3.9374 L488.8449 3.8139 L488.8449 3.7316 L488.886 3.6904 L488.886 3.6081 L488.9272 3.5669 L488.9272 3.5257 L489.0095 3.4434 L489.133 3.4434 L489.1742 3.4846 L489.2565 3.4846 Z" fill-rule="evenodd" clip-rule="evenodd" fill="white" stroke="none"/>
  <path d="M445.8672 3.7727 L445.8672 3.8139 L445.9084 3.8551 L445.9084 3.9374 L445.3732 4.4726 L445.332 4.4726 L445.1262 4.6784 L445.085 4.6784 L444.9204 4.8431 L444.8792 4.8431 L444.6734 5.0489 L444.6322 5.0489 L444.5087 5.1724 L444.4676 5.1724 L444.4264 5.2135 L444.3852 5.2135 L444.1794 5.0489 L444.1794 4.8842 L444.6734 4.3902 L444.7145 4.3902 L445.0027 4.1021 L445.0439 4.1021 L445.579 3.6081 L445.7025 3.6081 L445.8672 3.7727 Z" fill-rule="evenodd" clip-rule="evenodd" fill="white" stroke="none"/>
  <path d="M487.1982 3.6081 L487.2805 3.6904 L487.2805 3.7316 L487.3629 3.8139 L487.3629 3.8551 L487.404 3.8962 L487.3629 3.9374 L487.3629 3.9786 L486.9924 4.3491 L486.9512 4.3491 L486.8277 4.4726 L486.7865 4.4726 L486.6219 4.6372 L486.5807 4.6372 L486.4572 4.7607 L486.416 4.7607 L485.9632 5.1724 L485.9221 5.1724 L485.8809 5.2135 L485.7574 5.2135 L485.6339 5.0901 L485.6339 5.0489 L485.5927 5.0077 L485.5927 4.8842 L485.6751 4.8019 L485.6751 4.7607 L485.7162 4.7196 L485.7574 4.7196 L486.0456 4.4314 L486.0867 4.4314 L486.2514 4.2667 L486.2925 4.2667 L486.4572 4.1021 L486.4984 4.1021 L486.663 3.9374 L486.7042 3.9374 L486.8689 3.7727 L486.91 3.7727 L487.0747 3.6081 L487.1982 3.6081 Z" fill-rule="evenodd" clip-rule="evenodd" fill="white" stroke="none"/>
  <path d="M445.2497 4.7607 L445.4967 4.5137 L445.579 4.5137 L445.6202 4.5549 L445.6614 4.5549 L445.7437 4.6372 L445.7849 4.6372 L445.9084 4.7607 L445.9495 4.7607 L446.073 4.8842 L446.1142 4.8842 L446.2377 5.0077 L446.2789 5.0077 L446.567 5.2547 L446.6082 5.2547 L446.7317 5.3782 L446.7317 5.4605 L446.4847 5.7075 L446.3612 5.7075 L446.2789 5.6252 L446.2377 5.6252 L446.073 5.4605 L446.0319 5.4605 L445.9495 5.3782 L445.9084 5.3782 L445.826 5.2959 L445.7849 5.2959 L445.7025 5.2135 L445.6614 5.2135 L445.4967 5.0489 L445.4555 5.0489 L445.2909 4.8842 L445.2497 4.7607 Z" fill-rule="evenodd" clip-rule="evenodd" fill="white" stroke="none"/>
  <path d="M486.663 4.7607 L486.7042 4.7196 L486.7042 4.6784 L486.7454 4.6372 L486.7865 4.6372 L486.91 4.5137 L487.0335 4.5137 L487.0747 4.5549 L487.1159 4.5549 L487.2394 4.6784 L487.2805 4.6784 L487.404 4.8019 L487.4452 4.8019 L487.5687 4.9254 L487.6099 4.9254 L487.6922 5.0077 L487.7334 5.0077 L487.8569 5.1312 L487.898 5.1312 L487.9804 5.2135 L488.0215 5.2135 L488.1862 5.3782 L488.1862 5.4605 L488.0215 5.6252 L487.9804 5.6252 L487.898 5.7075 L487.8157 5.7075 L487.7745 5.6664 L487.7334 5.6664 L487.6099 5.5429 L487.5687 5.5429 L487.4452 5.4194 L487.404 5.4194 L487.2805 5.2959 L487.2394 5.2959 L487.1159 5.1724 L487.0747 5.1724 L486.9924 5.0901 L486.9512 5.0901 L486.663 4.8019 L486.663 4.7607 Z" fill-rule="evenodd" clip-rule="evenodd" fill="white" stroke="none"/>
  <path d="M484.5224 4.9665 L484.7282 4.8019 L484.7694 4.8019 L484.8106 4.7607 L484.9341 4.7196 L485.0164 4.8019 L485.0576 4.8019 L485.3046 5.0489 L485.3457 5.0489 L485.5927 5.2959 L485.6339 5.2959 L485.7985 5.4605 L485.8397 5.4605 L485.9632 5.584 L486.0044 5.584 L486.1279 5.7075 L486.169 5.7075 L486.2925 5.831 L486.3337 5.831 L486.416 5.9134 L486.4572 5.9134 L486.4984 5.9545 L486.663 5.9545 L486.7454 5.8722 L486.7865 5.8722 L486.9512 5.7075 L486.9924 5.7075 L487.1159 5.584 L487.157 5.584 L487.2394 5.5017 L487.3217 5.5017 L487.3629 5.5429 L487.404 5.5429 L487.5687 5.7075 L487.5687 5.7487 L487.6099 5.7899 L487.5687 5.831 L487.5687 5.8722 L487.404 6.0369 L487.3629 6.0369 L487.2394 6.1604 L487.1982 6.1604 L486.9924 6.325 L486.8689 6.3662 L486.7865 6.4485 L486.7454 6.4485 L486.6219 6.5309 L486.416 6.5309 L486.3337 6.4485 L486.2102 6.4074 L486.1279 6.325 L486.0867 6.325 L486.0044 6.2427 L485.9632 6.2427 L485.8397 6.1192 L485.7985 6.1192 L485.6751 5.9957 L485.6339 5.9957 L485.4692 5.831 L485.4281 5.831 L485.3046 5.7075 L485.2634 5.7075 L485.0987 5.5429 L485.0576 5.5429 L484.9752 5.4605 L484.9341 5.4605 L484.7694 5.2959 L484.7282 5.2959 L484.5224 5.0901 L484.5224 4.9665 Z" fill-rule="evenodd" clip-rule="evenodd" fill="white" stroke="none"/>
  <path d="M443.1091 5.0077 L443.2737 4.8431 L443.3149 4.8431 L443.4384 4.7607 L443.5619 4.7607 L443.7266 4.9254 L443.7677 4.9254 L443.9736 5.1312 L444.0147 5.1312 L444.2206 5.337 L444.2617 5.337 L444.3852 5.4605 L444.4264 5.4605 L444.5499 5.584 L444.5911 5.584 L444.7145 5.7075 L444.7557 5.7075 L444.9204 5.8722 L444.9615 5.8722 L445.0439 5.9545 L445.2497 5.9545 L445.2909 5.9134 L445.332 5.9134 L445.4967 5.7487 L445.5379 5.7487 L445.7437 5.5429 L445.7849 5.5429 L445.826 5.5017 L445.9495 5.5429 L446.1965 5.7899 L446.1554 5.831 L446.1554 5.8722 L446.0319 5.9957 L445.9907 5.9957 L445.8672 6.1192 L445.826 6.1192 L445.7437 6.2015 L445.7025 6.2015 L445.579 6.325 L445.5379 6.325 L445.332 6.4897 L445.2909 6.4897 L445.2497 6.5309 L445.0439 6.5309 L445.0027 6.4897 L444.8792 6.4485 L444.7969 6.3662 L444.7557 6.3662 L444.5499 6.2015 L444.5087 6.2015 L444.3852 6.078 L444.3441 6.078 L444.2206 5.9545 L444.1794 5.9545 L444.0559 5.831 L444.0147 5.831 L443.8912 5.7075 L443.8501 5.7075 L443.7266 5.584 L443.6854 5.584 L443.5619 5.4605 L443.5207 5.4605 L443.3561 5.2959 L443.3149 5.2959 L443.1091 5.0901 L443.1091 5.0077 Z" fill-rule="evenodd" clip-rule="evenodd" fill="white" stroke="none"/>
  <path d="M464.4885 30.9762 L464.6353 31.3188 L465.1492 31.73 L465.8465 32.0042 L466.397 32.0042 L468.3423 33.4091 L469.9939 32.5182 L470.471 32.0384 L471.3885 31.9014 L472.0859 31.4902 L501.5577 31.4902 L502.2918 31.9014 L503.1726 32.0384 L504.3471 32.9294 L505.3014 33.4091 L506.6226 32.621 L507.2833 32.0384 L508.5311 31.73 L509.1551 31.1475 L509.045 30.7706 L507.9439 30.0852 L507.4668 29.3656 L506.696 29.0572 L506.0354 29.0915 L505.2279 29.4684 L504.3104 29.0572 L503.3928 29.16 L502.7689 29.6055 L502.4386 30.1195 L501.8881 30.3936 L501.2274 31.0104 L472.3428 31.0104 L471.9391 30.5307 L471.205 30.188 L471.9391 30.7363 L472.1226 31.1818 L471.5721 31.6615 L470.7279 31.8671 L470.8747 31.5244 L471.5721 31.1132 L471.2784 30.7706 L470.8747 30.6678 L470.9481 31.0104 L470.6912 31.5244 L470.0673 32.1412 L469.7736 31.8671 L470.3242 31.2503 L470.5077 30.7706 L470.8013 30.6678 L469.6268 30.5307 L469.7369 30.2566 L470.3976 30.1195 L470.104 29.7083 L469.1497 29.674 L467.8284 30.565 L467.5715 30.2566 L468.7827 29.3656 L469.3332 29.1943 L470.3976 29.3656 L470.8747 29.8796 L470.8013 30.051 L470.5077 30.1195 L471.0949 30.2223 L470.8013 29.5027 L469.9205 29.0572 L469.1864 29.0915 L468.379 29.4684 L467.6082 29.0915 L466.9109 29.0572 L466.2502 29.3314 L465.7731 29.9824 L464.4885 30.9762 Z" fill-rule="evenodd" clip-rule="evenodd" fill="white" stroke="none"/>
  <path d="M468.1588 29.537 L468.1588 29.6398 L468.0486 29.7426 L468.0119 29.7426 L467.9752 29.7768 L467.8651 29.7768 L467.8284 29.7426 L467.755 29.7426 L467.6449 29.674 L467.5348 29.674 L467.4981 29.6398 L467.2779 29.6398 L467.2412 29.6055 L467.0577 29.6055 L467.021 29.6398 L466.8742 29.6398 L466.8375 29.674 L466.7641 29.674 L466.7274 29.7083 L466.6907 29.7083 L466.6173 29.7768 L466.5806 29.7768 L466.397 29.9482 L466.397 29.9824 L466.3236 30.0852 L466.3236 30.8391 L466.3603 30.8734 L466.3603 31.1818 L466.2869 31.2846 L466.2135 31.2846 L466.1768 31.3188 L466.0667 31.3188 L465.9566 31.216 L465.9566 31.1818 L465.9199 31.1475 L465.9199 30.9762 L465.8832 30.9419 L465.8832 30.702 L465.8465 30.6678 L465.8465 30.188 L465.8832 30.1538 L465.8832 30.0167 L465.9199 29.9824 L465.9199 29.9139 L465.9566 29.8796 L465.9933 29.7768 L466.1034 29.674 L466.1034 29.6398 L466.2502 29.5027 L466.2869 29.5027 L466.4705 29.3656 L466.5072 29.3656 L466.6907 29.2628 L466.7641 29.2628 L466.8008 29.2286 L466.9109 29.2286 L466.9476 29.1943 L467.4247 29.1943 L467.4614 29.2286 L467.6082 29.2286 L467.6449 29.2628 L467.7183 29.2628 L467.755 29.2971 L467.7917 29.2971 L467.8284 29.3314 L467.8651 29.3314 L467.9018 29.3656 L468.0119 29.3999 L468.1588 29.537 Z" fill-rule="evenodd" clip-rule="evenodd" fill="white" stroke="none"/>
  <path d="M505.0077 29.537 L505.0077 29.6055 L504.8976 29.7083 L504.8609 29.7083 L504.7508 29.7768 L504.7141 29.7768 L504.6774 29.7426 L504.604 29.7426 L504.4939 29.674 L504.3838 29.674 L504.3471 29.6398 L504.237 29.6398 L504.2003 29.6055 L503.87 29.6055 L503.8333 29.6398 L503.7232 29.6398 L503.6865 29.674 L503.6131 29.674 L503.5764 29.7083 L503.5396 29.7083 L503.5029 29.7426 L503.3928 29.7768 L503.2093 29.9482 L503.2093 29.9824 L503.1359 30.0852 L503.1359 30.1538 L503.0992 30.188 L503.0992 30.6678 L503.1359 30.702 L503.1359 30.9076 L503.1726 30.9419 L503.1726 31.1132 L503.1359 31.1475 L503.1359 31.216 L503.0258 31.3188 L502.879 31.3188 L502.7689 31.216 L502.7689 31.1818 L502.7322 31.1475 L502.7322 31.079 L502.6955 31.0447 L502.6955 30.9419 L502.6588 30.9076 L502.6588 30.051 L502.6955 30.0167 L502.6955 29.9482 L502.7322 29.9139 L502.7689 29.8111 L502.8423 29.7426 L502.8423 29.7083 L503.0625 29.5027 L503.0992 29.5027 L503.2093 29.3999 L503.246 29.3999 L503.3194 29.3314 L503.3561 29.3314 L503.3928 29.2971 L503.4663 29.2971 L503.5764 29.2286 L503.6865 29.2286 L503.7232 29.1943 L504.2737 29.1943 L504.3104 29.2286 L504.4205 29.2286 L504.4572 29.2628 L504.5306 29.2628 L504.5673 29.2971 L504.6407 29.2971 L504.6774 29.3314 L504.7141 29.3314 L504.7508 29.3656 L504.8609 29.3999 L505.0077 29.537 Z" fill-rule="evenodd" clip-rule="evenodd" fill="white" stroke="none"/>
  <path d="M507.687 29.8796 L507.687 29.9824 L507.6136 30.051 L507.32 30.051 L507.2833 30.0167 L507.2466 30.0167 L507.1365 29.9139 L507.1365 29.8796 L506.9897 29.7426 L506.953 29.7426 L506.8795 29.674 L506.8061 29.674 L506.7694 29.6398 L506.6593 29.6398 L506.6226 29.6055 L506.2556 29.6055 L506.2189 29.6398 L506.0721 29.6398 L506.0354 29.674 L505.962 29.674 L505.9253 29.7083 L505.8519 29.7083 L505.8152 29.7426 L505.7785 29.7426 L505.7418 29.7768 L505.6317 29.8111 L505.5583 29.8796 L505.5216 29.8796 L505.4115 29.9824 L505.3748 29.9824 L505.2647 30.0852 L505.2279 30.0852 L505.0811 30.2223 L505.0444 30.2223 L504.7508 30.4964 L504.7141 30.4964 L504.6774 30.5307 L504.5673 30.5307 L504.5306 30.4964 L504.4939 30.4964 L504.3838 30.3936 L504.3838 30.2908 L504.4572 30.2223 L504.4572 30.188 L504.7875 29.8796 L504.8242 29.8796 L504.9343 29.7768 L504.971 29.7768 L505.0444 29.7083 L505.0811 29.7083 L505.1545 29.6398 L505.1912 29.6398 L505.3014 29.537 L505.3381 29.537 L505.4115 29.4684 L505.4482 29.4684 L505.4849 29.4342 L505.5216 29.4342 L505.5583 29.3999 L505.595 29.3999 L505.7785 29.2971 L505.8519 29.2971 L505.8886 29.2628 L505.962 29.2628 L505.9987 29.2286 L506.1455 29.2286 L506.1822 29.1943 L506.7327 29.1943 L506.7694 29.2286 L506.8795 29.2286 L506.9163 29.2628 L506.9897 29.2628 L507.0264 29.2971 L507.0631 29.2971 L507.0998 29.3314 L507.2099 29.3656 L507.2833 29.4342 L507.32 29.4342 L507.5402 29.6398 L507.5402 29.674 L507.6136 29.7426 L507.6136 29.7768 L507.687 29.8796 Z" fill-rule="evenodd" clip-rule="evenodd" fill="white" stroke="none"/>
  <path d="M468.7093 30.0167 L468.746 30.0167 L468.7827 29.9824 L468.8928 29.9482 L469.4433 30.4622 L469.4433 30.4964 L470.104 31.1475 L470.104 31.1818 L470.1407 31.216 L470.1407 31.2846 L469.9572 31.4559 L469.8471 31.4559 L469.8104 31.4216 L469.7736 31.4216 L469.2598 30.9419 L469.2598 30.9076 L468.9662 30.6335 L468.9662 30.5992 L468.8194 30.4622 L468.8194 30.4279 L468.7093 30.3251 L468.7093 30.2908 L468.6359 30.2223 L468.6359 30.188 L468.5992 30.1538 L468.6359 30.1195 L468.6359 30.0852 L468.7093 30.0167 Z" fill-rule="evenodd" clip-rule="evenodd" fill="white" stroke="none"/>
  <path d="M505.595 29.9824 L505.6317 29.9824 L505.6684 29.9482 L505.7785 29.9824 L506.1088 30.2908 L506.1088 30.3251 L506.7327 30.9076 L506.7327 30.9419 L506.8428 31.0447 L506.8428 31.079 L506.9163 31.1475 L506.9163 31.2846 L506.7327 31.4559 L506.5859 31.4559 L506.3657 31.2503 L506.3657 31.216 L506.0721 30.9419 L506.0721 30.9076 L505.8152 30.6678 L505.8152 30.6335 L505.595 30.4279 L505.595 30.3936 L505.4482 30.2566 L505.4115 30.1538 L505.595 29.9824 Z" fill-rule="evenodd" clip-rule="evenodd" fill="white" stroke="none"/>
  <path d="M466.4338 30.2223 L466.5439 30.1195 L466.7641 30.1195 L466.8008 30.1538 L466.8375 30.1538 L467.021 30.2566 L467.0944 30.2566 L467.1678 30.3251 L467.2779 30.3594 L467.4614 30.4964 L467.5715 30.5307 L467.6816 30.6335 L467.7183 30.6335 L467.8284 30.7363 L467.8651 30.7363 L467.9752 30.8391 L468.0119 30.8391 L468.2322 31.0447 L468.2322 31.1132 L468.0853 31.2503 L468.0486 31.2503 L468.0119 31.2846 L467.9385 31.2846 L467.9018 31.2503 L467.8651 31.2503 L467.7917 31.1818 L467.755 31.1818 L467.6816 31.1132 L467.6449 31.1132 L467.5348 31.0104 L467.4981 31.0104 L467.4247 30.9419 L467.388 30.9419 L467.3146 30.8734 L467.2779 30.8734 L467.0944 30.7363 L467.0577 30.7363 L467.021 30.702 L466.9843 30.702 L466.9109 30.6335 L466.8742 30.6335 L466.8375 30.5992 L466.8008 30.5992 L466.7641 30.565 L466.7274 30.565 L466.6907 30.5307 L466.5806 30.4964 L466.4705 30.3936 L466.4705 30.3594 L466.4338 30.3251 L466.4338 30.2223 Z" fill-rule="evenodd" clip-rule="evenodd" fill="white" stroke="none"/>
  <path d="M503.246 30.188 L503.3561 30.1195 L503.5029 30.1195 L503.5396 30.1538 L503.6498 30.1538 L503.6865 30.188 L503.7599 30.188 L503.7966 30.2223 L503.9067 30.2566 L503.9801 30.3251 L504.0902 30.3594 L504.2737 30.4964 L504.3838 30.5307 L504.4939 30.6335 L504.604 30.6678 L504.7141 30.7706 L504.7508 30.7706 L504.8609 30.8734 L504.8976 30.8734 L505.0811 31.0447 L505.0811 31.1132 L504.8976 31.2846 L504.7875 31.2846 L504.7508 31.2503 L504.7141 31.2503 L504.6774 31.216 L504.5673 31.1818 L504.4939 31.1132 L504.4572 31.1132 L504.3838 31.0447 L504.3471 31.0447 L504.2737 30.9762 L504.237 30.9762 L504.1269 30.8734 L504.0902 30.8734 L504.0168 30.8048 L503.9801 30.8048 L503.7966 30.6678 L503.6865 30.6335 L503.6131 30.565 L503.5764 30.565 L503.5396 30.5307 L503.4295 30.4964 L503.3561 30.4279 L503.3194 30.4279 L503.246 30.3251 L503.246 30.188 Z" fill-rule="evenodd" clip-rule="evenodd" fill="white" stroke="none"/>
  <path d="M506.4391 30.3936 L506.5859 30.2566 L506.6226 30.2566 L506.6593 30.2223 L506.7694 30.2223 L506.8061 30.188 L506.8795 30.188 L506.9163 30.1538 L507.1365 30.1538 L507.1732 30.1195 L507.5035 30.1195 L507.5402 30.1538 L507.7237 30.1538 L507.7604 30.188 L507.8705 30.188 L507.9072 30.2223 L507.9806 30.2223 L508.0173 30.2566 L508.054 30.2566 L508.0907 30.2908 L508.1274 30.2908 L508.1641 30.3251 L508.2742 30.3594 L508.3476 30.4279 L508.4577 30.4622 L508.5678 30.565 L508.6046 30.565 L508.8248 30.7706 L508.8615 30.7706 L508.8982 30.8048 L508.8982 30.8391 L509.0083 30.9419 L509.0083 31.079 L508.9716 31.1132 L508.9349 31.216 L508.678 31.4559 L508.6413 31.4559 L508.5311 31.5587 L508.4944 31.5587 L508.421 31.6272 L508.3843 31.6272 L508.3476 31.6615 L508.3109 31.6615 L508.1274 31.7643 L508.054 31.7643 L507.9439 31.8328 L507.8338 31.8328 L507.7971 31.8671 L507.5035 31.8671 L507.4668 31.8328 L507.4668 31.7643 L507.5402 31.6958 L507.5402 31.6615 L507.7237 31.4902 L507.7604 31.4902 L507.7971 31.4559 L507.8338 31.4559 L507.8705 31.4216 L507.9072 31.4216 L507.9439 31.3874 L507.9806 31.3874 L508.0173 31.3531 L508.054 31.3531 L508.0907 31.3188 L508.2008 31.2846 L508.3109 31.1818 L508.3476 31.1818 L508.3843 31.1475 L508.421 31.0447 L508.3476 30.9762 L508.3476 30.9419 L508.2008 30.8048 L508.1641 30.8048 L508.0907 30.7363 L508.054 30.7363 L507.8705 30.6335 L507.7604 30.6335 L507.7237 30.5992 L507.5402 30.5992 L507.5035 30.565 L507.0998 30.565 L507.0631 30.5992 L506.8428 30.5992 L506.8061 30.6335 L506.6226 30.6335 L506.4758 30.4964 L506.4391 30.3936 Z" fill-rule="evenodd" clip-rule="evenodd" fill="white" stroke="none"/>
  <path d="M464.6353 31.0104 L464.672 30.9762 L464.672 30.9419 L465.1125 30.5307 L465.1492 30.5307 L465.2593 30.4279 L465.296 30.4279 L465.3694 30.3594 L465.4061 30.3594 L465.5896 30.2566 L465.6997 30.2566 L465.7364 30.2908 L465.7364 30.565 L465.5896 30.7363 L465.5529 30.7363 L465.4795 30.8048 L465.4428 30.8048 L465.2226 31.0104 L465.2593 31.1132 L465.296 31.1132 L465.4795 31.2846 L465.5162 31.2846 L465.6997 31.3874 L465.7731 31.3874 L465.8098 31.4216 L465.9199 31.4216 L465.9566 31.4559 L466.1034 31.4559 L466.1401 31.4216 L466.2502 31.4216 L466.2869 31.3874 L466.3236 31.3874 L466.3603 31.3531 L466.4705 31.3188 L466.5439 31.2503 L466.5806 31.2503 L466.654 31.1818 L466.6907 31.1818 L466.8008 31.079 L466.8375 31.079 L466.9843 30.9419 L467.021 30.9419 L467.0577 30.9076 L467.1678 30.9076 L467.3146 31.0447 L467.3146 31.1132 L467.2779 31.1475 L467.2779 31.1818 L467.1311 31.3188 L467.1311 31.3531 L467.021 31.4559 L466.9843 31.4559 L466.8375 31.593 L466.8008 31.593 L466.6173 31.73 L466.5806 31.73 L466.5439 31.7643 L466.4705 31.7643 L466.4338 31.7986 L466.397 31.7986 L466.3603 31.8328 L466.2869 31.8328 L466.2502 31.8671 L465.8832 31.8671 L465.8465 31.8328 L465.7364 31.8328 L465.6263 31.7643 L465.5529 31.7643 L465.5162 31.73 L465.4428 31.73 L465.3694 31.6615 L465.2593 31.6272 L465.1859 31.5587 L465.1492 31.5587 L465.0758 31.4902 L465.0391 31.4902 L464.672 31.1475 L464.672 31.1132 L464.6353 31.079 L464.6353 31.0104 Z" fill-rule="evenodd" clip-rule="evenodd" fill="white" stroke="none"/>
  <path d="M501.4476 31.0104 L501.521 30.9419 L501.521 30.9076 L501.9615 30.4964 L501.9982 30.4964 L502.0716 30.4279 L502.1083 30.4279 L502.2918 30.2908 L502.3285 30.2908 L502.3652 30.2566 L502.4386 30.2566 L502.512 30.3594 L502.512 30.5307 L502.4753 30.565 L502.4386 30.6678 L502.4019 30.702 L502.3652 30.702 L502.2184 30.8391 L502.1817 30.8391 L502.0349 30.9762 L502.0349 31.0447 L502.2551 31.2503 L502.2918 31.2503 L502.3652 31.3188 L502.4019 31.3188 L502.512 31.3874 L502.5854 31.3874 L502.6221 31.4216 L502.9891 31.4216 L503.0258 31.3874 L503.0992 31.3874 L503.1359 31.3531 L503.2093 31.3531 L503.2827 31.2846 L503.3928 31.2503 L503.5029 31.1475 L503.5396 31.1475 L503.6865 31.0104 L503.7232 31.0104 L503.7966 30.9419 L503.8333 30.9419 L503.87 30.9076 L503.9801 30.9076 L504.1269 31.0447 L504.1269 31.1132 L504.0535 31.1818 L504.0535 31.216 L503.8333 31.4216 L503.7966 31.4216 L503.6131 31.593 L503.5764 31.593 L503.4663 31.6958 L503.4295 31.6958 L503.3928 31.73 L503.3561 31.73 L503.1726 31.8328 L503.0625 31.8328 L503.0258 31.8671 L502.6955 31.8671 L502.6588 31.8328 L502.5487 31.8328 L502.512 31.7986 L502.4386 31.7986 L502.3285 31.73 L502.2551 31.73 L502.2184 31.6958 L502.1083 31.6615 L501.9248 31.5244 L501.8881 31.5244 L501.4843 31.1475 L501.4843 31.1132 L501.4476 31.079 L501.4476 31.0104 Z" fill-rule="evenodd" clip-rule="evenodd" fill="white" stroke="none"/>
  <path d="M507.687 30.702 L507.7971 30.8048 L507.7971 30.9076 L507.7604 30.9419 L507.7604 31.0104 L507.7237 31.0447 L507.7237 31.1132 L507.687 31.1475 L507.687 31.1818 L507.6503 31.216 L507.6503 31.2503 L507.6136 31.2846 L507.5769 31.3874 L507.5035 31.4559 L507.5035 31.4902 L507.4301 31.5587 L507.4301 31.593 L507.3567 31.6615 L507.3567 31.6958 L507.2099 31.8328 L507.2099 31.8671 L507.0998 31.9699 L507.0631 31.9699 L506.9163 32.107 L506.8061 32.107 L506.7694 32.0727 L506.7327 32.0727 L506.5859 31.9014 L506.5859 31.8328 L506.6593 31.7643 L506.6593 31.73 L506.9163 31.4902 L506.9163 31.4559 L507.0631 31.3188 L507.0631 31.2846 L507.1365 31.216 L507.1732 31.1132 L507.2466 31.0447 L507.2466 30.9762 L507.3567 30.8048 L507.3567 30.7363 L507.4301 30.6678 L507.6136 30.6678 L507.6503 30.702 L507.687 30.702 Z" fill-rule="evenodd" clip-rule="evenodd" fill="white" stroke="none"/>
  <path d="M469.113 30.9076 L469.113 31.0447 L468.746 31.3874 L468.7093 31.3874 L468.4891 31.593 L468.4524 31.593 L468.2689 31.7643 L468.2322 31.7643 L468.0853 31.9014 L468.0486 31.9014 L467.7917 32.107 L467.7183 32.107 L467.6816 32.0727 L467.6449 32.0727 L467.5715 32.0042 L467.5715 31.9699 L467.5348 31.9356 L467.5348 31.8328 L467.8284 31.5587 L467.8651 31.5587 L468.0853 31.3531 L468.1221 31.3531 L468.3423 31.1475 L468.379 31.1475 L468.7827 30.8048 L468.8194 30.8048 L468.8561 30.7706 L468.9662 30.7706 L469.113 30.9076 Z" fill-rule="evenodd" clip-rule="evenodd" fill="white" stroke="none"/>
  <path d="M505.8152 30.7706 L505.8886 30.8391 L505.8886 30.8734 L505.962 30.9762 L505.962 31.0447 L505.8519 31.1475 L505.8519 31.1818 L505.7785 31.2503 L505.7418 31.2503 L505.5216 31.4559 L505.4849 31.4559 L505.2647 31.6615 L505.2279 31.6615 L505.0077 31.8671 L504.971 31.8671 L504.7875 32.0384 L504.7508 32.0384 L504.6774 32.107 L504.6407 32.107 L504.604 32.1412 L504.5306 32.1412 L504.3838 32.0042 L504.3838 31.9699 L504.3471 31.9356 L504.3838 31.8328 L504.6774 31.5587 L504.7141 31.5587 L504.8976 31.3874 L504.9343 31.3874 L505.1179 31.216 L505.1545 31.216 L505.3014 31.079 L505.3381 31.079 L505.5216 30.9076 L505.5583 30.9076 L505.7051 30.7706 L505.8152 30.7706 Z" fill-rule="evenodd" clip-rule="evenodd" fill="white" stroke="none"/>
  <path d="M472.196 31.3531 L472.3428 31.216 L501.3008 31.216 L501.4843 31.3874 L472.2327 31.4216 L472.196 31.3531 Z" fill-rule="evenodd" clip-rule="evenodd" fill="white" stroke="none"/>
  <path d="M468.5625 31.73 L468.7827 31.5244 L468.8561 31.5244 L468.8928 31.5587 L468.9295 31.5587 L469.0029 31.6272 L469.0396 31.6272 L469.113 31.6958 L469.1497 31.6958 L469.2598 31.7986 L469.2965 31.7986 L469.3699 31.8671 L469.4066 31.8671 L469.5167 31.9699 L469.5534 31.9699 L469.6268 32.0384 L469.6635 32.0384 L469.7369 32.107 L469.7736 32.107 L469.9572 32.2783 L469.9572 32.3126 L469.8838 32.3811 L469.8471 32.3811 L469.7369 32.4839 L469.7002 32.4839 L469.6268 32.5524 L469.5534 32.5524 L469.5167 32.5182 L469.48 32.5182 L469.2231 32.2783 L469.1864 32.2783 L468.9662 32.0727 L468.9295 32.0727 L468.8194 31.9699 L468.7093 31.9356 L468.5625 31.7986 L468.5625 31.73 Z" fill-rule="evenodd" clip-rule="evenodd" fill="white" stroke="none"/>
  <path d="M505.3748 31.6958 L505.5216 31.5587 L505.5583 31.5587 L505.595 31.5244 L505.7051 31.5244 L505.8152 31.6272 L505.8519 31.6272 L505.962 31.73 L505.9987 31.73 L506.1455 31.8671 L506.1822 31.8671 L506.2556 31.9356 L506.2923 31.9356 L506.3657 32.0042 L506.4024 32.0042 L506.4758 32.0727 L506.5125 32.0727 L506.6226 32.1755 L506.6593 32.1755 L506.7694 32.2783 L506.7694 32.3126 L506.6593 32.4154 L506.6226 32.4154 L506.4391 32.5524 L506.329 32.5524 L506.1455 32.3811 L506.1088 32.3811 L505.8886 32.1755 L505.8519 32.1755 L505.7051 32.0384 L505.6684 32.0384 L505.3748 31.7643 L505.3748 31.6958 Z" fill-rule="evenodd" clip-rule="evenodd" fill="white" stroke="none"/>
  <path d="M466.5439 31.9356 L466.6907 31.7986 L466.7274 31.7986 L466.8008 31.73 L466.8375 31.73 L466.8742 31.6958 L466.9843 31.6958 L467.1311 31.8328 L467.1678 31.8328 L467.388 32.0384 L467.4247 32.0384 L467.5715 32.1755 L467.6082 32.1755 L467.755 32.3126 L467.7917 32.3126 L467.9018 32.4154 L467.9385 32.4154 L467.9752 32.4496 L468.0119 32.4496 L468.0486 32.3468 L468.1588 32.244 L468.379 32.244 L468.4157 32.2783 L468.4157 32.3468 L468.379 32.3811 L468.1955 32.3811 L468.1588 32.4154 L468.1588 32.5524 L468.3056 32.6895 L468.3423 32.6895 L468.379 32.7238 L468.4891 32.7238 L468.5992 32.621 L468.6726 32.621 L468.7093 32.5867 L468.8194 32.5524 L469.0029 32.4154 L469.1864 32.4154 L469.3332 32.5524 L469.3699 32.6552 L469.2231 32.7923 L469.1864 32.7923 L469.113 32.8608 L469.0763 32.8608 L469.0029 32.9294 L468.9662 32.9294 L468.7827 33.0664 L468.6726 33.1007 L468.5992 33.1692 L468.5625 33.1692 L468.5258 33.2035 L468.3056 33.2035 L468.2322 33.135 L468.1955 33.135 L468.1221 33.0664 L468.0853 33.0664 L468.0119 32.9979 L467.9752 32.9979 L467.9018 32.9294 L467.8651 32.9294 L467.7917 32.8608 L467.755 32.8608 L467.6449 32.758 L467.6082 32.758 L467.5348 32.6895 L467.4981 32.6895 L467.4247 32.621 L467.388 32.621 L467.2412 32.4839 L467.2045 32.4839 L467.0577 32.3468 L467.021 32.3468 L466.8742 32.2098 L466.8375 32.2098 L466.5439 31.9356 Z" fill-rule="evenodd" clip-rule="evenodd" fill="white" stroke="none"/>
  <path d="M503.3194 31.9014 L503.3928 31.8328 L503.5029 31.7986 L503.5764 31.73 L503.7232 31.73 L503.8333 31.8328 L503.87 31.8328 L504.0535 32.0042 L504.0902 32.0042 L504.1636 32.0727 L504.2003 32.0727 L504.3104 32.1755 L504.3471 32.1755 L504.4572 32.2783 L504.4939 32.2783 L504.5673 32.3468 L504.604 32.3468 L504.6774 32.4154 L504.7141 32.4154 L504.8242 32.5182 L504.9343 32.5524 L505.0811 32.6895 L505.1179 32.6895 L505.1912 32.758 L505.2647 32.758 L505.3014 32.7238 L505.4115 32.6895 L505.5216 32.5867 L505.6317 32.5524 L505.7418 32.4496 L505.7785 32.4496 L505.8152 32.4154 L505.9253 32.4154 L505.9987 32.4839 L506.0354 32.4839 L506.1088 32.5524 L506.1088 32.5867 L506.1455 32.621 L506.1455 32.6895 L506.0721 32.758 L506.0354 32.758 L505.9253 32.8608 L505.8886 32.8608 L505.8152 32.9294 L505.7785 32.9294 L505.6684 33.0322 L505.5583 33.0664 L505.4849 33.135 L505.4482 33.135 L505.2647 33.2378 L505.1912 33.2378 L505.1545 33.2035 L505.0811 33.2035 L504.8976 33.0664 L504.7875 33.0322 L504.7141 32.9636 L504.6774 32.9636 L504.604 32.8951 L504.5673 32.8951 L504.4572 32.7923 L504.4205 32.7923 L504.3471 32.7238 L504.3104 32.7238 L504.237 32.6552 L504.2003 32.6552 L504.0535 32.5182 L504.0168 32.5182 L503.9067 32.4154 L503.87 32.4154 L503.6865 32.244 L503.6498 32.244 L503.4295 32.0384 L503.3928 32.0384 L503.3561 32.0042 L503.3194 31.9014 Z" fill-rule="evenodd" clip-rule="evenodd" fill="white" stroke="none"/></g></svg>