<svg xmlns="http://www.w3.org/2000/svg" viewBox="0 0 950 35" fill="none"><g transform="translate(-236.9616,-8.7302) scale(1.4989)"><path d="M305.0869 2.0096 L761.6691 2.8469 L640.6416 1.5909 L305.0869 2.0096 Z" fill-rule="evenodd" clip-rule="evenodd" fill="white" stroke="none"/>
  <path d="M170.7701 2.0096 L171.2447 2.8469 L180.2624 2.8469 L180.7371 2.4282 L184.0594 2.4282 L184.534 2.8469 L203.0441 2.8469 L203.5187 2.4282 L214.4349 2.4282 L214.9095 2.8469 L225.8257 2.8469 L226.3004 2.4282 L229.6227 2.4282 L230.0973 2.8469 L248.6074 2.8469 L249.082 2.4282 L252.4043 2.4282 L252.8789 2.8469 L271.389 2.8469 L271.8636 2.4282 L275.186 2.4282 L275.6606 2.8469 L294.1707 2.8469 L294.6453 2.4282 L298.4422 2.4282 L298.9169 2.8469 L299.8661 2.8469 L300.8153 2.4282 L301.29 2.8469 L303.663 2.8469 L303.663 2.0096 L170.7701 2.0096 Z" fill-rule="evenodd" clip-rule="evenodd" fill="white" stroke="none"/>
  <path d="M774.4837 2.0096 L774.4837 2.4282 L775.433 2.4282 L775.9076 2.8469 L779.2299 2.4282 L779.2299 2.0096 L774.4837 2.0096 Z" fill-rule="evenodd" clip-rule="evenodd" fill="white" stroke="none"/>
  <path d="M170.7701 7.4522 L170.7701 9.9641 L172.1939 10.8014 L172.1939 16.244 L171.7193 16.6627 L171.7193 20.8493 L171.2447 21.2679 L171.2447 26.7105 L170.7701 27.1292 L170.7701 32.1531 L172.6686 32.9904 L174.0924 32.9904 L174.0924 7.4522 L170.7701 7.4522 Z" fill-rule="evenodd" clip-rule="evenodd" fill="white" stroke="none"/>
  <path d="M179.7878 7.4522 L179.7878 11.6388 L180.2624 12.0574 L180.2624 13.3134 L181.2117 14.988 L181.2117 16.244 L183.1102 19.5933 L184.0594 20.4306 L185.0086 22.1053 L190.2294 26.7105 L190.704 26.7105 L192.1279 27.9665 L196.8741 30.0598 L197.8233 30.8971 L198.7725 30.8971 L200.1964 31.7345 L201.1456 31.7345 L203.9933 32.9904 L205.4172 32.9904 L205.8918 32.5718 L205.8918 7.8708 L205.4172 7.4522 L179.7878 7.4522 Z" fill-rule="evenodd" clip-rule="evenodd" fill="white" stroke="none"/>
  <path d="M211.1126 7.4522 L211.1126 29.6412 L216.808 32.1531 L217.7572 32.1531 L219.6557 32.9904 L221.0796 32.9904 L221.0796 7.4522 L211.1126 7.4522 Z" fill-rule="evenodd" clip-rule="evenodd" fill="white" stroke="none"/>
  <path d="M226.3004 7.4522 L226.3004 9.1268 L226.775 9.5455 L226.775 12.4761 L227.2496 12.8948 L227.2496 14.1507 L228.6734 16.6627 L228.6734 17.5 L229.6227 19.1747 L231.5211 21.2679 L231.5211 21.6866 L234.3689 24.1986 L234.3689 24.6172 L234.8435 24.6172 L237.6912 27.1292 L238.1658 27.1292 L240.5389 28.8038 L241.9627 29.2225 L242.912 30.0598 L245.7597 31.3158 L246.7089 31.3158 L248.1328 32.1531 L249.082 32.1531 L250.9805 32.9904 L252.4043 32.9904 L252.4043 7.4522 L226.3004 7.4522 Z" fill-rule="evenodd" clip-rule="evenodd" fill="white" stroke="none"/>
  <path d="M258.0997 7.4522 L258.0997 29.6412 L263.3205 32.1531 L264.7444 32.1531 L266.1682 32.9904 L267.5921 32.9904 L268.0667 32.5718 L268.0667 7.8708 L267.5921 7.4522 L258.0997 7.4522 Z" fill-rule="evenodd" clip-rule="evenodd" fill="white" stroke="none"/>
  <path d="M273.2875 7.4522 L273.2875 10.3828 L273.7621 10.8014 L273.7621 12.8948 L274.2367 13.3134 L274.2367 14.5694 L274.7114 14.988 L274.7114 15.8254 L277.0845 20.012 L279.4575 22.5239 L279.4575 22.9426 L282.7799 25.8732 L283.2545 25.8732 L285.1529 27.5478 L288.0007 28.8038 L288.9499 29.6412 L293.6961 31.7345 L294.6453 31.7345 L295.1199 32.1531 L296.0691 32.1531 L297.9676 32.9904 L299.3915 32.9904 L299.3915 7.4522 L273.2875 7.4522 Z" fill-rule="evenodd" clip-rule="evenodd" fill="white" stroke="none"/>
  <path d="M304.6123 7.4522 L304.6123 29.6412 L310.3077 32.1531 L311.2569 32.1531 L313.1554 32.9904 L314.5792 32.9904 L314.5792 7.4522 L304.6123 7.4522 Z" fill-rule="evenodd" clip-rule="evenodd" fill="white" stroke="none"/>
  <path d="M320.2747 7.4522 L320.2747 11.6388 L320.7493 12.0574 L320.7493 13.7321 L321.2239 14.1507 L321.6985 16.244 L323.597 19.5933 L324.5462 20.4306 L325.4955 22.1053 L330.7163 26.7105 L331.1909 26.7105 L332.6147 27.9665 L337.3609 30.0598 L338.3101 30.8971 L339.2593 30.8971 L340.6832 31.7345 L341.6324 31.7345 L344.4802 32.9904 L345.904 32.9904 L346.3786 32.5718 L345.904 31.7345 L345.904 23.3613 L346.3786 22.9426 L345.904 22.1053 L345.904 20.4306 L346.3786 20.012 L346.3786 16.6627 L345.904 16.244 L345.904 10.8014 L346.3786 9.9641 L345.904 9.5455 L345.904 7.4522 L320.2747 7.4522 Z" fill-rule="evenodd" clip-rule="evenodd" fill="white" stroke="none"/>
  <path d="M351.5994 7.4522 L351.5994 29.6412 L357.2948 32.1531 L358.2441 32.1531 L360.1426 32.9904 L361.5664 32.9904 L361.5664 7.4522 L351.5994 7.4522 Z" fill-rule="evenodd" clip-rule="evenodd" fill="white" stroke="none"/>
  <path d="M366.7872 7.4522 L366.7872 9.1268 L367.2618 9.5455 L367.2618 12.4761 L367.7364 12.8948 L367.7364 14.1507 L368.211 14.5694 L368.211 15.4067 L369.1603 16.6627 L369.1603 17.5 L370.1095 19.1747 L371.0588 20.012 L372.008 21.6866 L374.3811 23.7799 L374.3811 24.1986 L375.3303 25.0359 L375.8049 25.0359 L378.178 27.1292 L378.6526 27.1292 L381.0257 28.8038 L383.3988 29.6412 L384.348 30.4785 L385.2973 30.8971 L386.2465 30.8971 L388.6196 32.1531 L389.5688 32.1531 L391.4673 32.9904 L392.8912 32.9904 L392.8912 7.4522 L366.7872 7.4522 Z" fill-rule="evenodd" clip-rule="evenodd" fill="white" stroke="none"/>
  <path d="M398.5866 7.4522 L398.1119 7.8708 L398.1119 14.5694 L398.5866 14.988 L398.5866 15.8254 L398.1119 16.244 L398.1119 17.0814 L398.5866 17.5 L398.1119 18.3373 L398.1119 19.1747 L398.5866 19.5933 L398.5866 20.4306 L398.1119 20.8493 L398.1119 24.1986 L398.5866 24.6172 L398.1119 25.0359 L398.1119 25.8732 L398.5866 26.2919 L398.5866 29.6412 L399.5358 30.4785 L400.485 30.4785 L403.8074 32.1531 L405.2312 32.1531 L407.1297 32.9904 L408.5535 32.9904 L408.5535 7.4522 L398.5866 7.4522 Z" fill-rule="evenodd" clip-rule="evenodd" fill="white" stroke="none"/>
  <path d="M413.7743 7.4522 L413.7743 10.8014 L414.249 11.2201 L414.249 12.8948 L414.7236 13.3134 L414.7236 14.5694 L415.1982 14.988 L415.1982 15.8254 L416.1474 17.0814 L416.1474 17.9187 L416.622 18.756 L417.5713 19.5933 L418.5205 21.2679 L419.9444 22.5239 L419.9444 22.9426 L423.2667 25.8732 L423.7413 25.8732 L425.6398 27.5478 L426.1144 27.5478 L428.4875 29.2225 L434.1829 31.7345 L435.1321 31.7345 L435.6067 32.1531 L436.556 32.1531 L438.4545 32.9904 L439.8783 32.9904 L439.8783 7.4522 L413.7743 7.4522 Z" fill-rule="evenodd" clip-rule="evenodd" fill="white" stroke="none"/>
  <path d="M445.0991 7.4522 L445.0991 29.6412 L450.7945 32.1531 L451.7438 32.1531 L453.6422 32.9904 L455.0661 32.9904 L455.0661 7.4522 L445.0991 7.4522 Z" fill-rule="evenodd" clip-rule="evenodd" fill="white" stroke="none"/>
  <path d="M460.7615 7.4522 L460.2869 8.2895 L460.7615 8.7081 L460.7615 11.6388 L461.2361 12.0574 L461.7107 14.988 L462.1853 15.4067 L462.1853 16.244 L464.0838 19.5933 L465.0331 20.4306 L465.9823 22.1053 L471.2031 26.7105 L471.6777 26.7105 L474.5254 28.8038 L482.1193 32.1531 L483.0685 32.1531 L484.967 32.9904 L486.3908 32.9904 L486.8655 32.5718 L486.8655 7.8708 L486.3908 7.4522 L460.7615 7.4522 Z" fill-rule="evenodd" clip-rule="evenodd" fill="white" stroke="none"/>
  <path d="M492.0863 7.4522 L492.0863 29.6412 L496.3578 31.7345 L497.307 31.7345 L497.7817 32.1531 L498.7309 32.1531 L500.6294 32.9904 L502.0532 32.9904 L502.0532 7.4522 L492.0863 7.4522 Z" fill-rule="evenodd" clip-rule="evenodd" fill="white" stroke="none"/>
  <path d="M507.274 7.4522 L507.274 9.9641 L507.7486 10.3828 L507.7486 12.4761 L508.2232 12.8948 L508.2232 14.1507 L508.6979 14.5694 L509.1725 16.6627 L510.5963 19.1747 L511.5456 20.012 L512.4948 21.6866 L514.3932 23.3613 L514.3932 23.7799 L518.6649 27.1292 L519.1395 27.1292 L520.5633 28.3852 L521.9872 28.8038 L522.9364 29.6412 L526.7333 31.3158 L527.6826 31.3158 L529.1064 32.1531 L530.0556 32.1531 L531.9541 32.9904 L533.378 32.9904 L533.378 7.4522 L507.274 7.4522 Z" fill-rule="evenodd" clip-rule="evenodd" fill="white" stroke="none"/>
  <path d="M538.5988 7.4522 L538.5988 29.2225 L540.0226 30.4785 L540.9718 30.4785 L544.2942 32.1531 L545.7181 32.1531 L547.1419 32.9904 L548.5657 32.9904 L549.0404 32.5718 L549.0404 7.8708 L548.5657 7.4522 L538.5988 7.4522 Z" fill-rule="evenodd" clip-rule="evenodd" fill="white" stroke="none"/>
  <path d="M554.2612 7.4522 L554.2612 11.2201 L554.7358 11.6388 L554.7358 13.3134 L555.2104 13.7321 L555.685 15.8254 L557.1089 17.9187 L557.1089 18.756 L558.0581 19.5933 L558.5327 20.8493 L559.9566 22.1053 L559.9566 22.5239 L564.2281 26.2919 L564.7028 26.2919 L566.1266 27.5478 L566.6012 27.5478 L568.9743 29.2225 L574.6697 31.7345 L575.619 31.7345 L576.0936 32.1531 L577.0428 32.1531 L578.9413 32.9904 L580.3651 32.9904 L580.3651 7.4522 L554.2612 7.4522 Z" fill-rule="evenodd" clip-rule="evenodd" fill="white" stroke="none"/>
  <path d="M585.586 7.4522 L585.586 29.6412 L591.2813 32.1531 L592.2306 32.1531 L594.129 32.9904 L595.5529 32.9904 L595.5529 7.4522 L585.586 7.4522 Z" fill-rule="evenodd" clip-rule="evenodd" fill="white" stroke="none"/>
  <path d="M601.2483 7.4522 L601.2483 12.0574 L601.7229 12.4761 L601.7229 13.7321 L602.1975 14.1507 L602.6722 16.244 L604.5706 19.5933 L605.5198 20.4306 L606.4691 22.1053 L612.1645 27.1292 L612.6391 27.1292 L615.0122 28.8038 L622.6061 32.1531 L623.5553 32.1531 L625.4538 32.9904 L626.8777 32.9904 L626.8777 7.4522 L601.2483 7.4522 Z" fill-rule="evenodd" clip-rule="evenodd" fill="white" stroke="none"/>
  <path d="M632.573 7.4522 L632.573 29.6412 L636.8446 31.7345 L637.7939 31.7345 L638.2685 32.1531 L639.2177 32.1531 L641.1162 32.9904 L642.54 32.9904 L642.54 7.4522 L632.573 7.4522 Z" fill-rule="evenodd" clip-rule="evenodd" fill="white" stroke="none"/>
  <path d="M647.7608 7.4522 L647.7608 9.9641 L648.2355 10.3828 L648.2355 12.8948 L648.7101 13.3134 L648.7101 14.1507 L649.1847 14.5694 L649.6593 16.6627 L651.0832 19.1747 L652.0324 20.012 L652.5071 21.2679 L654.8801 23.3613 L654.8801 23.7799 L659.1516 27.1292 L659.6263 27.1292 L661.0501 28.3852 L662.474 28.8038 L663.4233 29.6412 L668.1694 31.7345 L669.1187 31.7345 L669.5933 32.1531 L670.5425 32.1531 L672.441 32.9904 L673.8649 32.9904 L673.8649 7.4522 L647.7608 7.4522 Z" fill-rule="evenodd" clip-rule="evenodd" fill="white" stroke="none"/>
  <path d="M679.0856 7.4522 L679.0856 29.2225 L680.5095 30.4785 L681.4587 30.8971 L682.4079 30.8971 L684.7811 32.1531 L686.2048 32.1531 L686.6795 32.5718 L689.0525 32.9904 L689.0525 7.4522 L679.0856 7.4522 Z" fill-rule="evenodd" clip-rule="evenodd" fill="white" stroke="none"/>
  <path d="M694.748 7.4522 L694.748 11.2201 L695.2226 11.6388 L695.2226 13.3134 L695.6973 13.7321 L695.6973 14.5694 L696.1718 14.988 L696.6464 17.0814 L697.5957 18.756 L698.5449 19.5933 L699.0196 20.8493 L700.918 22.5239 L700.918 22.9426 L704.715 26.2919 L705.1896 26.2919 L706.6134 27.5478 L707.0881 27.5478 L709.4611 29.2225 L715.1565 31.7345 L716.1058 31.7345 L716.5804 32.1531 L717.5296 32.1531 L719.4281 32.9904 L720.852 32.9904 L720.852 7.4522 L694.748 7.4522 Z" fill-rule="evenodd" clip-rule="evenodd" fill="white" stroke="none"/>
  <path d="M726.0727 7.4522 L726.0727 29.6412 L731.7682 32.1531 L732.7174 32.1531 L734.6159 32.9904 L736.0397 32.9904 L736.0397 28.3852 L735.0905 26.7105 L734.1413 26.2919 L734.1413 24.1986 L735.0905 23.3613 L736.0397 21.6866 L736.0397 7.4522 L726.0727 7.4522 Z" fill-rule="evenodd" clip-rule="evenodd" fill="white" stroke="none"/>
  <path d="M741.2606 7.8708 L741.7351 8.7081 L741.7351 11.6388 L742.2097 12.0574 L742.2097 13.7321 L743.6336 16.244 L745.0575 16.244 L745.0575 15.8254 L746.0067 14.988 L746.0067 13.3134 L745.5321 12.8948 L745.5321 10.8014 L746.0067 10.3828 L752.1767 10.3828 L752.6513 9.9641 L755.0245 9.9641 L755.499 10.3828 L761.1945 10.3828 L761.1945 9.1268 L760.2452 8.2895 L760.2452 7.8708 L759.296 7.4522 L741.7351 7.4522 L741.2606 7.8708 Z" fill-rule="evenodd" clip-rule="evenodd" fill="white" stroke="none"/>
  <path d="M762.1437 7.4522 L762.1437 7.8708 L763.5675 9.1268 L763.5675 9.9641 L764.5168 9.9641 L765.9407 11.2201 L765.9407 12.8948 L766.8899 13.7321 L767.3645 13.7321 L767.3645 10.8014 L767.8391 10.3828 L767.3645 9.5455 L767.3645 8.2895 L766.4152 7.4522 L762.1437 7.4522 Z" fill-rule="evenodd" clip-rule="evenodd" fill="white" stroke="none"/>
  <path d="M773.0599 7.4522 L773.0599 9.5455 L774.0092 9.5455 L774.4837 9.1268 L775.433 10.3828 L774.4837 11.2201 L773.5345 10.8014 L773.0599 11.6388 L773.0599 29.6412 L778.7553 32.1531 L779.2299 31.7345 L779.2299 29.2225 L777.3314 28.3852 L775.9076 28.3852 L774.4837 27.5478 L774.4837 23.3613 L774.9584 22.9426 L774.9584 19.5933 L775.433 19.1747 L775.433 16.244 L775.9076 15.8254 L775.9076 12.0574 L776.8569 10.3828 L778.7553 10.3828 L779.2299 9.9641 L779.2299 7.8708 L777.8061 7.8708 L777.3314 7.4522 L773.0599 7.4522 Z" fill-rule="evenodd" clip-rule="evenodd" fill="white" stroke="none"/>
  <path d="M767.3645 32.9904 L767.3645 15.4067 L765.9407 15.8254 L765.9407 16.6627 L764.9914 17.5 L764.9914 20.8493 L764.5168 21.2679 L764.5168 26.2919 L764.0422 26.7105 L764.0422 28.3852 L763.5675 28.8038 L758.3468 26.7105 L757.3975 25.8732 L755.499 25.0359 L753.6006 23.3613 L753.1259 23.3613 L748.8544 19.1747 L747.4306 16.6627 L746.4813 16.6627 L745.5321 17.5 L745.5321 19.1747 L746.0067 20.012 L747.4306 20.8493 L748.3798 22.5239 L750.7529 24.6172 L751.2275 25.8732 L752.6513 27.1292 L753.1259 27.1292 L755.499 28.8038 L756.9229 29.2225 L757.8722 30.0598 L759.7706 30.8971 L760.7198 30.8971 L763.0929 32.1531 L764.0422 32.1531 L765.9407 32.9904 L767.3645 32.9904 Z" fill-rule="evenodd" clip-rule="evenodd" fill="white" stroke="none"/>
  <path d="M226.3004 23.3613 L226.3004 32.9904 L226.775 33.4091 L238.6404 33.4091 L238.1658 32.5718 L236.742 32.1531 L232.945 29.2225 L232.4704 29.2225 L229.1481 26.2919 L229.1481 25.8732 L227.2496 24.1986 L227.2496 23.7799 L226.3004 23.3613 Z" fill-rule="evenodd" clip-rule="evenodd" fill="white" stroke="none"/>
  <path d="M273.2875 23.3613 L273.2875 32.9904 L273.7621 33.4091 L285.1529 33.4091 L284.6783 32.5718 L284.2037 32.5718 L282.7799 31.3158 L282.3052 31.3158 L280.8814 30.0598 L280.4068 30.0598 L275.186 25.4546 L275.186 25.0359 L273.7621 23.7799 L273.7621 23.3613 L273.2875 23.3613 Z" fill-rule="evenodd" clip-rule="evenodd" fill="white" stroke="none"/>
  <path d="M366.7872 23.3613 L366.7872 32.9904 L367.2618 33.4091 L379.1272 33.4091 L378.6526 32.5718 L377.2288 32.1531 L376.2795 31.3158 L375.8049 31.3158 L373.4318 29.2225 L372.9572 29.2225 L369.6349 26.2919 L369.6349 25.8732 L367.7364 24.1986 L367.7364 23.7799 L366.7872 23.3613 Z" fill-rule="evenodd" clip-rule="evenodd" fill="white" stroke="none"/>
  <path d="M413.7743 23.3613 L413.7743 32.9904 L414.249 33.4091 L425.6398 33.4091 L425.1652 32.5718 L424.6905 32.5718 L423.2667 31.3158 L422.7921 31.3158 L421.3682 30.0598 L420.8936 30.0598 L415.6728 25.4546 L415.6728 25.0359 L414.249 23.7799 L414.249 23.3613 L413.7743 23.3613 Z" fill-rule="evenodd" clip-rule="evenodd" fill="white" stroke="none"/>
  <path d="M460.2869 23.3613 L460.2869 32.9904 L460.7615 33.4091 L472.6269 33.4091 L472.1523 32.5718 L471.6777 32.5718 L468.83 30.4785 L468.3554 30.4785 L461.7107 24.6172 L461.7107 24.1986 L460.7615 23.3613 L460.2869 23.3613 Z" fill-rule="evenodd" clip-rule="evenodd" fill="white" stroke="none"/>
  <path d="M507.274 23.3613 L507.274 32.9904 L507.7486 33.4091 L519.6141 33.4091 L519.1395 32.5718 L517.7156 32.1531 L516.7664 31.3158 L516.2917 31.3158 L513.9187 29.2225 L513.444 29.2225 L509.6471 25.8732 L509.6471 25.4546 L508.2232 24.1986 L508.2232 23.7799 L507.274 23.3613 Z" fill-rule="evenodd" clip-rule="evenodd" fill="white" stroke="none"/>
  <path d="M554.2612 23.3613 L554.2612 33.4091 L566.1266 33.4091 L565.652 32.5718 L565.1774 32.5718 L563.7535 31.3158 L561.855 30.4785 L555.685 25.0359 L554.7358 23.3613 L554.2612 23.3613 Z" fill-rule="evenodd" clip-rule="evenodd" fill="white" stroke="none"/>
  <path d="M600.7737 23.3613 L600.7737 32.9904 L601.2483 33.4091 L613.1138 33.4091 L612.6391 32.5718 L612.1645 32.5718 L611.2152 31.7345 L609.3168 30.8971 L606.4691 28.3852 L605.9945 28.3852 L605.5198 27.5478 L605.0452 27.5478 L604.5706 26.7105 L602.1975 24.6172 L602.1975 24.1986 L601.2483 23.3613 L600.7737 23.3613 Z" fill-rule="evenodd" clip-rule="evenodd" fill="white" stroke="none"/>
  <path d="M647.7608 23.3613 L647.7608 32.9904 L648.2355 33.4091 L660.1009 33.4091 L660.1009 32.9904 L659.6263 32.9904 L658.677 32.1531 L656.7786 31.3158 L654.8801 29.6412 L654.4055 29.6412 L650.1339 25.8732 L650.1339 25.4546 L648.7101 24.1986 L648.7101 23.7799 L647.7608 23.3613 Z" fill-rule="evenodd" clip-rule="evenodd" fill="white" stroke="none"/>
  <path d="M179.7878 23.7799 L179.7878 33.4091 L191.6533 33.4091 L191.1787 32.5718 L190.704 32.5718 L187.8563 30.4785 L187.3817 30.4785 L180.7371 24.6172 L180.7371 24.1986 L179.7878 23.7799 Z" fill-rule="evenodd" clip-rule="evenodd" fill="white" stroke="none"/>
  <path d="M320.2747 23.7799 L320.2747 33.4091 L332.1401 33.4091 L331.6655 32.5718 L331.1909 32.5718 L328.3432 30.4785 L327.8685 30.4785 L321.2239 24.6172 L321.2239 24.1986 L320.2747 23.7799 Z" fill-rule="evenodd" clip-rule="evenodd" fill="white" stroke="none"/>
  <path d="M694.748 23.7799 L694.748 33.4091 L706.6134 33.4091 L706.1389 32.5718 L705.6642 32.5718 L702.3418 30.0598 L701.8673 30.0598 L696.1718 25.0359 L696.1718 24.6172 L695.2226 23.7799 L694.748 23.7799 Z" fill-rule="evenodd" clip-rule="evenodd" fill="white" stroke="none"/>
  <path d="M743.6336 26.2919 L741.7351 26.2919 L741.2606 27.1292 L741.2606 29.6412 L741.7351 30.0598 L742.6844 30.0598 L743.6336 28.3852 L744.5828 27.9665 L744.5828 27.1292 L743.6336 26.2919 Z" fill-rule="evenodd" clip-rule="evenodd" fill="white" stroke="none"/>
  <path d="M741.7351 32.5718 L741.7351 33.4091 L753.6006 33.4091 L753.1259 32.5718 L751.7021 32.1531 L746.4813 28.3852 L746.0067 28.3852 L745.0575 29.2225 L745.0575 30.0598 L741.7351 32.5718 Z" fill-rule="evenodd" clip-rule="evenodd" fill="white" stroke="none"/></g></svg>