<svg xmlns="http://www.w3.org/2000/svg" viewBox="0 0 950 35" fill="none"><g transform="translate(-368.1122,-13.562) scale(1.775)"><path d="M218.0947 1.9444 L563.975 2.298 L563.1734 1.5909 L218.0947 1.9444 Z" fill-rule="evenodd" clip-rule="evenodd" fill="white" stroke="none"/>
  <path d="M575.197 1.5909 L575.197 2.298 L577.201 2.298 L577.201 1.9444 L576.3994 1.5909 L575.197 1.5909 Z" fill-rule="evenodd" clip-rule="evenodd" fill="white" stroke="none"/>
  <path d="M580.0065 1.9444 L580.0065 2.298 L584.816 2.298 L584.816 1.9444 L581.2089 1.9444 L580.8081 1.5909 L580.0065 1.9444 Z" fill-rule="evenodd" clip-rule="evenodd" fill="white" stroke="none"/>
  <path d="M587.2207 1.9444 L587.2207 2.298 L731.9053 2.298 L731.9053 1.9444 L717.8777 1.9444 L717.4769 1.5909 L716.2746 1.9444 L632.5098 1.9444 L632.109 1.5909 L631.3074 1.9444 L588.8239 1.9444 L588.0223 1.5909 L587.2207 1.9444 Z" fill-rule="evenodd" clip-rule="evenodd" fill="white" stroke="none"/>
  <path d="M218.0947 5.1263 L218.0947 29.8737 L221.7018 29.5202 L222.1026 8.3081 L240.5389 29.8737 L248.5546 29.8737 L248.9554 7.9545 L267.3917 29.8737 L275.8082 29.5202 L276.209 7.9545 L294.6453 29.8737 L302.661 29.8737 L303.0618 7.9545 L321.4981 29.8737 L329.9146 29.5202 L330.3154 7.9545 L348.7517 29.8737 L356.7675 29.8737 L357.1683 8.3081 L375.6045 29.8737 L384.0211 29.5202 L384.4218 8.3081 L402.8581 29.8737 L410.8739 29.8737 L411.2747 8.3081 L429.711 29.8737 L438.1275 29.5202 L438.5283 8.3081 L456.9645 29.8737 L464.9803 29.8737 L465.381 7.9545 L483.8173 29.8737 L492.2339 29.5202 L492.6347 7.9545 L511.0709 29.8737 L519.0867 29.8737 L519.4875 7.9545 L537.9238 29.8737 L546.3403 29.5202 L546.7411 7.9545 L565.1774 29.8737 L573.1932 29.8737 L573.1932 12.197 L566.7805 5.1263 L565.9789 10.0758 L570.7884 13.9647 L565.9789 17.8535 L565.5781 26.6919 L547.1419 5.1263 L539.1261 5.1263 L538.7253 26.6919 L520.289 5.1263 L511.8725 5.1263 L511.4717 26.6919 L493.0355 5.1263 L485.0197 5.1263 L484.6189 26.6919 L466.1826 5.1263 L457.7661 5.1263 L457.3653 26.6919 L438.9291 5.1263 L430.9133 5.1263 L430.5125 26.6919 L412.0762 5.1263 L403.6597 5.1263 L403.2589 26.6919 L384.8226 5.1263 L376.8069 5.1263 L376.4061 26.6919 L357.9698 5.1263 L349.5533 5.1263 L349.1525 26.6919 L330.7162 5.1263 L322.7005 5.1263 L322.2997 26.6919 L303.8634 5.1263 L295.4468 5.1263 L295.0461 27.0455 L276.6098 5.1263 L268.594 5.1263 L268.1932 26.6919 L249.757 5.1263 L241.3404 5.1263 L240.9396 26.6919 L223.7057 6.1869 L218.0947 5.1263 Z" fill-rule="evenodd" clip-rule="evenodd" fill="white" stroke="none"/>
  <path d="M569.586 5.1263 L572.3915 9.0151 L574.7963 9.0151 L592.0302 29.8737 L600.0459 29.8737 L600.8476 7.9545 L619.2838 29.8737 L627.2995 29.5202 L627.7003 8.3081 L646.1366 29.8737 L654.1524 29.8737 L654.5532 8.3081 L672.9894 29.8737 L681.406 29.8737 L681.8068 7.9545 L700.2431 29.8737 L708.2588 29.8737 L709.0604 7.9545 L727.4967 29.8737 L731.9053 29.5202 L731.5045 5.1263 L728.2982 5.1263 L727.8974 27.0455 L709.4611 5.1263 L701.4454 5.1263 L701.0446 26.6919 L682.6084 5.1263 L674.1918 5.1263 L673.791 26.6919 L655.3548 5.1263 L647.3389 5.1263 L646.9382 26.6919 L628.5019 5.1263 L620.0853 5.1263 L619.6845 26.6919 L601.2483 5.1263 L593.2325 5.1263 L592.8318 26.6919 L575.197 5.8333 L569.586 5.1263 Z" fill-rule="evenodd" clip-rule="evenodd" fill="white" stroke="none"/>
  <path d="M230.1184 7.2475 L230.1184 7.601 L236.531 13.2576 L236.531 13.6111 L237.3325 13.9647 L237.3325 7.2475 L230.1184 7.2475 Z" fill-rule="evenodd" clip-rule="evenodd" fill="white" stroke="none"/>
  <path d="M257.372 7.2475 L257.372 7.9545 L257.7728 7.9545 L258.5743 8.6616 L258.5743 9.0151 L264.1854 13.9647 L264.5862 13.9647 L264.5862 7.601 L264.1854 7.2475 L257.372 7.2475 Z" fill-rule="evenodd" clip-rule="evenodd" fill="white" stroke="none"/>
  <path d="M284.2248 7.2475 L284.2248 7.601 L290.6374 13.2576 L290.6374 13.6111 L291.439 13.9647 L291.439 7.2475 L284.2248 7.2475 Z" fill-rule="evenodd" clip-rule="evenodd" fill="white" stroke="none"/>
  <path d="M311.4784 7.2475 L311.4784 7.9545 L311.8792 7.9545 L312.6807 8.6616 L312.6807 9.0151 L318.2918 13.9647 L318.6926 13.9647 L318.6926 7.601 L318.2918 7.2475 L311.4784 7.2475 Z" fill-rule="evenodd" clip-rule="evenodd" fill="white" stroke="none"/>
  <path d="M338.3312 7.2475 L338.3312 7.601 L345.1446 13.6111 L345.1446 13.9647 L345.5454 13.9647 L345.5454 7.2475 L338.3312 7.2475 Z" fill-rule="evenodd" clip-rule="evenodd" fill="white" stroke="none"/>
  <path d="M365.5848 7.2475 L365.5848 7.9545 L365.9856 7.9545 L366.3864 8.6616 L372.3982 13.9647 L372.799 13.9647 L372.799 7.601 L372.3982 7.2475 L365.5848 7.2475 Z" fill-rule="evenodd" clip-rule="evenodd" fill="white" stroke="none"/>
  <path d="M392.8384 7.2475 L392.8384 7.9545 L399.251 13.6111 L399.6518 13.6111 L399.6518 7.2475 L392.8384 7.2475 Z" fill-rule="evenodd" clip-rule="evenodd" fill="white" stroke="none"/>
  <path d="M419.6912 7.2475 L419.6912 7.9545 L426.5046 13.9647 L426.9054 13.9647 L426.9054 7.601 L426.5046 7.2475 L419.6912 7.2475 Z" fill-rule="evenodd" clip-rule="evenodd" fill="white" stroke="none"/>
  <path d="M446.544 7.2475 L446.544 7.601 L452.9566 13.2576 L452.9566 13.6111 L453.7582 13.9647 L453.7582 7.2475 L446.544 7.2475 Z" fill-rule="evenodd" clip-rule="evenodd" fill="white" stroke="none"/>
  <path d="M473.7976 7.2475 L473.7976 7.9545 L474.5992 8.3081 L475 9.0151 L480.611 13.9647 L481.0118 13.9647 L481.0118 7.601 L480.611 7.2475 L473.7976 7.2475 Z" fill-rule="evenodd" clip-rule="evenodd" fill="white" stroke="none"/>
  <path d="M500.6505 7.2475 L500.6505 7.601 L506.2615 12.5505 L506.2615 12.904 L506.6623 12.904 L507.0631 13.6111 L507.8646 13.9647 L507.8646 7.2475 L500.6505 7.2475 Z" fill-rule="evenodd" clip-rule="evenodd" fill="white" stroke="none"/>
  <path d="M527.904 7.2475 L527.904 7.9545 L534.7175 13.9647 L535.1182 13.9647 L535.1182 7.601 L534.7175 7.2475 L527.904 7.2475 Z" fill-rule="evenodd" clip-rule="evenodd" fill="white" stroke="none"/>
  <path d="M555.1576 7.2475 L555.1576 7.9545 L561.1695 13.2576 L561.1695 13.6111 L561.9711 13.9647 L561.9711 12.904 L561.5703 12.197 L560.7687 11.8434 L560.7687 11.1364 L560.3679 10.7828 L560.3679 9.7222 L560.7687 9.3687 L560.7687 8.6616 L561.5703 8.3081 L561.5703 7.2475 L555.1576 7.2475 Z" fill-rule="evenodd" clip-rule="evenodd" fill="white" stroke="none"/>
  <path d="M582.0105 7.2475 L582.0105 7.9545 L588.8239 13.9647 L589.2247 13.9647 L589.2247 7.601 L588.8239 7.2475 L582.0105 7.2475 Z" fill-rule="evenodd" clip-rule="evenodd" fill="white" stroke="none"/>
  <path d="M608.8633 7.2475 L608.8633 7.601 L615.2759 13.2576 L615.2759 13.6111 L616.0775 13.9647 L616.0775 7.2475 L608.8633 7.2475 Z" fill-rule="evenodd" clip-rule="evenodd" fill="white" stroke="none"/>
  <path d="M636.1169 7.2475 L636.1169 7.9545 L636.5177 7.9545 L636.9185 8.6616 L642.9303 13.9647 L643.3311 13.9647 L643.3311 7.601 L642.9303 7.2475 L636.1169 7.2475 Z" fill-rule="evenodd" clip-rule="evenodd" fill="white" stroke="none"/>
  <path d="M663.3705 7.2475 L663.3705 7.9545 L669.3823 13.2576 L669.3823 13.6111 L670.1839 13.9647 L670.1839 7.2475 L663.3705 7.2475 Z" fill-rule="evenodd" clip-rule="evenodd" fill="white" stroke="none"/>
  <path d="M690.2234 7.2475 L690.2234 7.9545 L690.6241 7.9545 L691.4257 8.6616 L691.4257 9.0151 L697.0368 13.9647 L697.4375 13.9647 L697.4375 7.601 L697.0368 7.2475 L690.2234 7.2475 Z" fill-rule="evenodd" clip-rule="evenodd" fill="white" stroke="none"/>
  <path d="M717.0761 7.2475 L717.0761 7.601 L723.4888 13.2576 L723.4888 13.6111 L724.2904 13.9647 L724.2904 7.2475 L717.0761 7.2475 Z" fill-rule="evenodd" clip-rule="evenodd" fill="white" stroke="none"/>
  <path d="M568.3837 11.8434 L566.7805 11.8434 L565.9789 12.5505 L565.9789 15.3788 L566.3797 15.7323 L566.7805 15.7323 L568.7844 14.3182 L568.7844 12.197 L568.3837 11.8434 Z" fill-rule="evenodd" clip-rule="evenodd" fill="white" stroke="none"/>
  <path d="M225.3089 21.0353 L225.3089 27.399 L232.5231 27.399 L232.5231 27.0455 L226.1105 21.3889 L226.1105 21.0353 L225.3089 21.0353 Z" fill-rule="evenodd" clip-rule="evenodd" fill="white" stroke="none"/>
  <path d="M252.5625 21.0353 L252.5625 27.399 L259.7767 27.399 L259.7767 27.0455 L258.9751 26.6919 L258.5743 25.9848 L252.9633 21.0353 L252.5625 21.0353 Z" fill-rule="evenodd" clip-rule="evenodd" fill="white" stroke="none"/>
  <path d="M279.4153 21.0353 L279.4153 27.399 L286.6295 27.399 L286.6295 27.0455 L280.6177 21.7424 L280.6177 21.3889 L280.2169 21.0353 L279.4153 21.0353 Z" fill-rule="evenodd" clip-rule="evenodd" fill="white" stroke="none"/>
  <path d="M306.6689 21.0353 L306.6689 27.399 L313.8831 27.399 L313.8831 27.0455 L313.4823 27.0455 L312.6807 26.3384 L312.6807 25.9848 L307.0697 21.0353 L306.6689 21.0353 Z" fill-rule="evenodd" clip-rule="evenodd" fill="white" stroke="none"/>
  <path d="M333.5217 21.0353 L333.5217 27.399 L340.7359 27.399 L340.7359 27.0455 L334.3233 21.3889 L334.3233 21.0353 L333.5217 21.0353 Z" fill-rule="evenodd" clip-rule="evenodd" fill="white" stroke="none"/>
  <path d="M360.7753 21.0353 L360.7753 27.399 L367.9895 27.399 L367.9895 27.0455 L367.5887 27.0455 L367.188 26.3384 L361.1761 21.0353 L360.7753 21.0353 Z" fill-rule="evenodd" clip-rule="evenodd" fill="white" stroke="none"/>
  <path d="M387.6282 21.0353 L387.6282 27.399 L394.8423 27.399 L394.8423 27.0455 L389.2313 22.0959 L389.2313 21.7424 L388.4297 21.0353 L387.6282 21.0353 Z" fill-rule="evenodd" clip-rule="evenodd" fill="white" stroke="none"/>
  <path d="M414.8818 21.0353 L414.8818 27.399 L422.096 27.399 L422.096 27.0455 L415.2826 21.0353 L414.8818 21.0353 Z" fill-rule="evenodd" clip-rule="evenodd" fill="white" stroke="none"/>
  <path d="M441.7346 21.0353 L441.7346 27.399 L448.9487 27.399 L448.9487 27.0455 L442.5361 21.3889 L442.5361 21.0353 L441.7346 21.0353 Z" fill-rule="evenodd" clip-rule="evenodd" fill="white" stroke="none"/>
  <path d="M468.9881 21.0353 L468.9881 27.399 L476.2024 27.399 L476.2024 27.0455 L475.4008 26.6919 L475 25.9848 L469.389 21.0353 L468.9881 21.0353 Z" fill-rule="evenodd" clip-rule="evenodd" fill="white" stroke="none"/>
  <path d="M495.841 21.0353 L495.841 27.399 L503.0552 27.399 L503.0552 27.0455 L497.4441 22.0959 L497.4441 21.7424 L497.0434 21.7424 L496.6426 21.0353 L495.841 21.0353 Z" fill-rule="evenodd" clip-rule="evenodd" fill="white" stroke="none"/>
  <path d="M523.0946 21.0353 L523.0946 27.399 L530.3088 27.399 L530.3088 27.0455 L529.908 27.0455 L528.7056 25.9848 L528.7056 25.6313 L523.4954 21.0353 L523.0946 21.0353 Z" fill-rule="evenodd" clip-rule="evenodd" fill="white" stroke="none"/>
  <path d="M549.9474 21.0353 L549.9474 27.0455 L550.3482 27.399 L557.1616 27.399 L557.1616 27.0455 L550.749 21.3889 L550.749 21.0353 L549.9474 21.0353 Z" fill-rule="evenodd" clip-rule="evenodd" fill="white" stroke="none"/>
  <path d="M577.201 21.0353 L577.201 27.399 L584.4152 27.399 L584.4152 27.0455 L583.6136 26.6919 L583.2129 25.9848 L577.6018 21.0353 L577.201 21.0353 Z" fill-rule="evenodd" clip-rule="evenodd" fill="white" stroke="none"/>
  <path d="M604.0539 21.0353 L604.0539 27.399 L611.268 27.399 L611.268 27.0455 L604.8554 21.3889 L604.8554 21.0353 L604.0539 21.0353 Z" fill-rule="evenodd" clip-rule="evenodd" fill="white" stroke="none"/>
  <path d="M631.3074 21.0353 L631.3074 27.399 L638.5216 27.399 L638.5216 27.0455 L638.1208 27.0455 L637.3193 26.3384 L637.3193 25.9848 L636.9185 25.9848 L636.5177 25.2778 L631.7082 21.0353 L631.3074 21.0353 Z" fill-rule="evenodd" clip-rule="evenodd" fill="white" stroke="none"/>
  <path d="M658.1603 21.0353 L658.1603 27.399 L665.3745 27.399 L665.3745 27.0455 L658.9619 21.3889 L658.9619 21.0353 L658.1603 21.0353 Z" fill-rule="evenodd" clip-rule="evenodd" fill="white" stroke="none"/>
  <path d="M685.4139 21.0353 L685.4139 27.399 L692.6281 27.399 L692.6281 27.0455 L691.8265 26.6919 L691.0249 25.9848 L691.0249 25.6313 L685.8146 21.0353 L685.4139 21.0353 Z" fill-rule="evenodd" clip-rule="evenodd" fill="white" stroke="none"/>
  <path d="M712.2667 21.0353 L712.2667 27.399 L719.4809 27.399 L719.4809 27.0455 L713.0683 21.3889 L713.0683 21.0353 L712.2667 21.0353 Z" fill-rule="evenodd" clip-rule="evenodd" fill="white" stroke="none"/>
  <path d="M672.1879 32.702 L672.5886 33.4091 L673.791 33.4091 L674.1918 33.0556 L731.5045 33.0556 L731.5045 32.3485 L674.5926 32.3485 L674.1918 32.702 L672.1879 32.702 Z" fill-rule="evenodd" clip-rule="evenodd" fill="white" stroke="none"/></g></svg>