<svg xmlns="http://www.w3.org/2000/svg" viewBox="0 0 950 35" fill="none"><g transform="translate(-381.0233,-14.0377) scale(1.8022)"><path d="M221.9695 19.0151 L231.0604 19.7727 L231.818 25.0757 L235.6059 25.0757 L236.3634 19.7727 L243.9392 19.7727 L245.4543 31.1364 L249.2422 30.3788 L249.9998 19.7727 L259.8483 19.7727 L260.6059 33.4091 L292.4241 33.4091 L293.9392 19.7727 L303.0302 20.5303 L303.7877 33.4091 L306.818 33.4091 L308.3332 19.7727 L317.4241 20.5303 L317.4241 33.4091 L349.2423 33.4091 L350.7575 19.7727 L359.8484 20.5303 L359.8484 33.4091 L363.6363 33.4091 L364.3938 19.7727 L374.2423 20.5303 L374.2423 33.4091 L406.0606 33.4091 L406.8181 19.7727 L416.6666 21.2879 L416.6666 33.4091 L420.4545 32.6515 L421.2121 19.7727 L430.303 20.5303 L431.0606 33.4091 L462.8788 33.4091 L463.6363 19.7727 L472.7273 20.5303 L473.4849 33.4091 L476.5152 33.4091 L478.0304 19.7727 L487.1212 20.5303 L487.1212 33.4091 L518.9395 33.4091 L520.4546 19.7727 L529.5455 20.5303 L529.5455 33.4091 L533.3334 33.4091 L534.8486 19.7727 L543.9395 20.5303 L543.9395 33.4091 L575.7577 33.4091 L576.5153 19.7727 L584.8486 19.7727 L589.394 29.6212 L590.9092 19.7727 L604.5456 20.5303 L605.3031 5.3788 L619.6971 4.6212 L616.6668 1.5909 L600.7577 1.5909 L600.7577 13.7121 L591.6668 15.9849 L590.1517 2.3485 L586.3637 1.5909 L585.6062 15.2273 L578.0304 15.9849 L575.7577 1.5909 L543.9395 1.5909 L543.9395 14.4697 L535.6061 15.9849 L533.3334 1.5909 L530.3031 1.5909 L529.5455 14.4697 L521.2122 15.9849 L518.9395 1.5909 L487.1212 1.5909 L487.1212 14.4697 L478.7879 15.9849 L477.2728 3.106 L473.4849 1.5909 L472.7273 14.4697 L464.3939 15.9849 L462.8788 1.5909 L431.0606 1.5909 L430.303 14.4697 L421.9697 15.9849 L420.4545 2.3485 L416.6666 1.5909 L415.909 15.2273 L408.3333 15.9849 L406.0606 1.5909 L374.2423 1.5909 L374.2423 14.4697 L365.909 15.9849 L363.6363 2.3485 L359.8484 1.5909 L359.8484 14.4697 L351.515 15.9849 L349.2423 1.5909 L317.4241 1.5909 L317.4241 14.4697 L309.0908 15.9849 L306.818 1.5909 L303.7877 1.5909 L303.0302 14.4697 L294.6968 15.9849 L292.4241 1.5909 L260.6059 1.5909 L259.0907 15.9849 L250.7574 15.9849 L248.4847 3.8636 L244.6968 3.8636 L243.1816 15.9849 L236.3634 15.2273 L235.6059 9.9243 L231.818 9.9243 L230.3028 15.9849 L223.4846 15.2273 L221.9695 19.0151 Z" fill-rule="evenodd" clip-rule="evenodd" fill="white" stroke="none"/>
  <path d="M600.7577 33.4091 L632.576 33.4091 L633.3335 19.7727 L642.4244 20.5303 L643.182 33.4091 L646.9699 32.6515 L647.7274 19.7727 L656.8183 20.5303 L657.5759 33.4091 L689.3942 33.4091 L690.1517 19.7727 L700.0002 19.7727 L701.5154 21.2879 L700.7578 30.3788 L704.5457 31.1364 L706.0609 19.7727 L713.6366 19.7727 L714.3942 25.0757 L718.182 25.0757 L718.9396 19.7727 L727.273 19.7727 L728.0305 15.9849 L720.4548 15.9849 L718.182 13.7121 L718.182 9.9243 L714.3942 9.9243 L714.3942 14.4697 L712.879 15.9849 L709.0912 15.2273 L706.8184 15.9849 L705.3032 14.4697 L705.3032 3.8636 L700.7578 4.6212 L701.5154 13.7121 L700.0002 15.2273 L690.9093 15.9849 L689.3942 14.4697 L689.3942 1.5909 L657.5759 1.5909 L656.8183 14.4697 L655.3033 15.9849 L648.485 15.9849 L646.9699 14.4697 L646.9699 2.3485 L643.182 1.5909 L642.4244 14.4697 L640.9093 15.9849 L633.3335 15.2273 L632.576 7.6515 L628.788 6.8939 L628.788 28.1061 L627.2729 29.6212 L604.5456 29.6212 L603.7881 28.8636 L604.5456 26.5909 L603.0304 25.8333 L601.5153 28.1061 L604.5456 29.6212 L600.7577 31.8939 L600.7577 33.4091 Z" fill-rule="evenodd" clip-rule="evenodd" fill="white" stroke="none"/>
  <path d="M620.4547 1.5909 L620.4547 2.3485 L622.7274 3.8636 L622.7274 2.3485 L620.4547 1.5909 Z" fill-rule="evenodd" clip-rule="evenodd" fill="white" stroke="none"/>
  <path d="M625.0001 1.5909 L625.0001 2.3485 L628.0304 3.106 L630.3032 4.6212 L632.576 4.6212 L631.0607 1.5909 L625.0001 1.5909 Z" fill-rule="evenodd" clip-rule="evenodd" fill="white" stroke="none"/></g></svg>