<svg xmlns="http://www.w3.org/2000/svg" viewBox="0 0 950 35" fill="none"><g transform="translate(-968.2707,-35.6731) scale(3.0385)"><path d="M324.9242 12.197 L327.0455 17.5 L324.9242 22.8031 L333.4091 23.3333 L331.8182 21.7424 L332.8788 20.1515 L345.6061 27.0455 L338.1818 30.2273 L335.5303 26.5152 L331.8182 30.2273 L333.4091 33.4091 L338.7121 32.3485 L346.6667 27.5758 L352.5 29.1667 L362.5758 28.6364 L371.0606 23.3333 L358.3333 26.5152 L353.5606 26.5152 L350.3788 24.394 L353.5606 21.2121 L357.803 21.7424 L355.1515 23.3333 L358.3333 22.8031 L362.0455 18.5606 L366.2879 20.1515 L364.697 21.2121 L371.5909 20.6818 L372.1212 22.2727 L373.1818 21.2121 L377.4242 22.2727 L377.9546 24.394 L374.7727 25.9849 L376.3636 27.5758 L380.0758 23.8637 L381.6667 28.6364 L380.0758 30.2273 L376.8939 29.697 L382.197 33.4091 L395.9849 31.8182 L564.6212 32.3485 L567.2727 33.4091 L573.1061 29.1667 L569.3939 30.2273 L567.803 28.6364 L568.8636 24.394 L569.9243 23.8637 L573.6364 27.5758 L574.697 25.9849 L571.5151 24.394 L572.0454 22.2727 L577.8788 20.6818 L584.7727 21.2121 L583.1818 20.1515 L587.9546 18.5606 L591.1364 22.8031 L594.3182 23.3333 L592.197 21.7424 L595.9091 21.2121 L599.0909 24.394 L595.9091 26.5152 L591.1364 26.5152 L578.4091 23.3333 L589.0151 29.1667 L602.803 27.5758 L607.5758 30.2273 L603.8636 27.0455 L614.4697 20.6818 L617.6515 20.6818 L615.5303 23.3333 L623.4848 23.3333 L624.5454 20.1515 L622.4242 17.5 L625.0758 13.7879 L623.4848 11.6667 L619.2424 11.1364 L616.0606 11.6667 L617.1212 14.8485 L614.4697 14.3182 L603.8636 7.9546 L610.7576 4.7727 L613.9394 8.4849 L617.6515 4.7727 L616.5909 1.5909 L609.697 3.1818 L602.803 7.4242 L596.9697 5.8334 L586.8939 6.3637 L578.4091 11.6667 L591.6667 8.4849 L599.0909 10.6061 L595.9091 13.7879 L592.197 13.2576 L594.8485 11.6667 L590.6061 12.7273 L587.9546 16.4394 L583.7121 13.7879 L584.7727 15.3788 L572.0454 12.7273 L570.9849 11.6667 L574.697 9.0152 L574.1666 7.9546 L572.0454 7.9546 L569.3939 11.1364 L567.803 6.3637 L569.3939 4.7727 L573.1061 5.8334 L567.2727 1.5909 L564.6212 2.6515 L385.3788 2.6515 L382.197 1.5909 L376.8939 5.303 L380.0758 4.7727 L381.6667 6.3637 L380.0758 11.1364 L376.3636 7.4242 L374.7727 9.0152 L377.9546 10.6061 L377.4242 12.7273 L373.1818 14.3182 L372.1212 12.7273 L371.5909 14.3182 L364.697 15.3788 L365.7576 14.3182 L364.697 13.7879 L363.1061 16.4394 L358.3333 12.197 L355.1515 11.6667 L357.803 13.2576 L353.5606 13.7879 L350.3788 10.6061 L350.9091 9.0152 L357.803 8.4849 L371.0606 12.197 L367.3485 8.4849 L360.4546 5.8334 L350.3788 6.3637 L333.4091 14.8485 L331.8182 14.3182 L333.4091 11.6667 L324.9242 12.197 Z" fill-rule="evenodd" clip-rule="evenodd" fill="white" stroke="none"/>
  <path d="M331.8182 2.6515 L331.8182 4.7727 L332.3485 5.303 L332.3485 5.8334 L333.9394 7.4242 L334.4697 7.4242 L335.5303 8.4849 L336.5909 8.4849 L336.5909 7.9546 L336.0606 7.4242 L336.0606 6.3637 L337.1212 5.303 L338.1818 5.303 L338.7121 4.7727 L339.7727 4.7727 L340.303 5.303 L341.3636 5.303 L341.8939 5.8334 L342.9545 5.8334 L343.4849 6.3637 L344.5455 6.3637 L344.5455 5.8334 L344.0152 5.8334 L342.9545 4.7727 L342.4242 4.7727 L339.7727 3.1818 L338.7121 3.1818 L337.1212 2.1212 L336.0606 2.1212 L335.5303 1.5909 L332.8788 1.5909 L331.8182 2.6515 Z" fill-rule="evenodd" clip-rule="evenodd" fill="white" stroke="none"/>
  <path d="M374.2424 17.5 L381.1364 11.6667 L383.2576 8.4849 L384.3182 5.303 L385.9091 3.7121 L564.0909 3.7121 L566.2121 8.4849 L569.3939 12.7273 L575.2273 17.5 L569.3939 22.2727 L566.2121 26.5152 L564.0909 31.2879 L385.9091 31.2879 L384.3182 29.697 L383.2576 26.5152 L380.6061 22.8031 L374.2424 17.5 Z" fill-rule="evenodd" clip-rule="evenodd" fill="white" stroke="none"/>
  <path d="M347.7273 9.0152 L348.2576 9.0152 L348.7879 9.5455 L348.7879 10.0758 L349.3182 10.0758 L349.8485 10.6061 L349.8485 11.1364 L350.9091 12.197 L351.4394 12.197 L351.9697 12.7273 L351.9697 13.7879 L351.4394 14.3182 L349.3182 14.3182 L348.2576 15.3788 L346.6667 15.3788 L346.1364 14.8485 L346.1364 13.2576 L346.6667 12.7273 L346.6667 12.197 L347.7273 11.1364 L347.7273 10.6061 L347.197 10.6061 L346.6667 10.0758 L347.7273 9.0152 Z" fill-rule="evenodd" clip-rule="evenodd" fill="white" stroke="none"/>
  <path d="M346.6667 10.0758 L347.197 10.6061 L346.1364 11.6667 L345.6061 11.6667 L344.0152 13.2576 L344.0152 13.7879 L342.9545 15.3788 L342.4242 14.8485 L342.4242 14.3182 L341.8939 13.7879 L341.3636 12.197 L342.9545 10.6061 L344.5455 10.6061 L345.0758 10.0758 L346.6667 10.0758 Z" fill-rule="evenodd" clip-rule="evenodd" fill="white" stroke="none"/>
  <path d="M602.2727 10.6061 L602.803 10.0758 L604.3939 10.0758 L604.9242 10.6061 L606.5151 11.1364 L608.1061 12.7273 L607.5758 13.2576 L607.5758 13.7879 L606.5151 14.8485 L605.9848 14.3182 L605.9848 13.7879 L603.3333 11.1364 L602.803 11.1364 L602.2727 10.6061 Z" fill-rule="evenodd" clip-rule="evenodd" fill="white" stroke="none"/>
  <path d="M597.5 12.7273 L598.0303 12.197 L599.6212 12.197 L599.6212 11.1364 L600.1515 10.6061 L601.2121 10.6061 L602.803 12.197 L602.803 12.7273 L603.3333 13.2576 L603.3333 14.3182 L602.2727 15.3788 L601.2121 15.3788 L600.1515 14.3182 L598.5606 14.3182 L597.5 13.2576 L597.5 12.7273 Z" fill-rule="evenodd" clip-rule="evenodd" fill="white" stroke="none"/>
  <path d="M338.7121 14.3182 L339.2424 14.3182 L339.7727 14.8485 L340.8333 14.8485 L341.8939 15.9091 L341.8939 16.4394 L342.4242 16.4394 L342.9545 16.9697 L342.9545 17.5 L340.8333 20.1515 L339.2424 20.1515 L338.7121 20.6818 L337.1212 18.0303 L337.1212 15.3788 L338.7121 14.3182 Z" fill-rule="evenodd" clip-rule="evenodd" fill="white" stroke="none"/>
  <path d="M352.5 15.3788 L354.0909 14.3182 L358.3333 14.3182 L358.8636 14.8485 L358.3333 15.3788 L356.7424 15.3788 L356.2121 15.9091 L354.6212 15.9091 L354.0909 16.4394 L353.5606 16.4394 L352.5 15.3788 Z" fill-rule="evenodd" clip-rule="evenodd" fill="white" stroke="none"/>
  <path d="M590.6061 14.8485 L591.1364 14.3182 L595.3788 14.3182 L596.9697 15.3788 L595.9091 16.4394 L595.3788 16.4394 L594.8485 15.9091 L593.2576 15.9091 L592.7273 15.3788 L591.1364 15.3788 L590.6061 14.8485 Z" fill-rule="evenodd" clip-rule="evenodd" fill="white" stroke="none"/>
  <path d="M333.4091 15.3788 L333.9394 15.3788 L334.4697 14.8485 L335.5303 14.8485 L336.0606 15.3788 L336.0606 16.4394 L336.5909 16.9697 L336.5909 19.6212 L337.1212 19.6212 L337.6515 20.1515 L337.6515 20.6818 L337.1212 21.2121 L336.5909 20.6818 L335.5303 20.6818 L335 20.1515 L333.4091 19.6212 L331.8182 18.0303 L331.8182 16.9697 L333.4091 15.3788 Z" fill-rule="evenodd" clip-rule="evenodd" fill="white" stroke="none"/>
  <path d="M367.3485 15.3788 L367.8788 14.8485 L371.0606 14.8485 L371.5909 15.3788 L371.0606 15.9091 L367.8788 15.9091 L367.3485 15.3788 Z" fill-rule="evenodd" clip-rule="evenodd" fill="white" stroke="none"/>
  <path d="M578.4091 15.3788 L578.9394 14.8485 L581.5909 14.8485 L582.1212 15.3788 L581.5909 15.9091 L578.9394 15.9091 L578.4091 15.3788 Z" fill-rule="evenodd" clip-rule="evenodd" fill="white" stroke="none"/>
  <path d="M608.6364 14.8485 L610.7576 14.8485 L611.8182 15.9091 L611.8182 16.4394 L612.3485 16.9697 L612.3485 18.0303 L611.8182 18.5606 L611.8182 19.0909 L610.7576 20.1515 L608.6364 20.1515 L607.5758 19.0909 L607.5758 18.5606 L607.0454 18.0303 L607.0454 16.9697 L607.5758 16.4394 L608.1061 16.4394 L608.1061 15.3788 L608.6364 14.8485 Z" fill-rule="evenodd" clip-rule="evenodd" fill="white" stroke="none"/>
  <path d="M613.9394 14.8485 L615 14.8485 L615.5303 15.3788 L616.0606 15.3788 L617.6515 16.9697 L617.6515 18.0303 L616.0606 19.6212 L615.5303 19.6212 L615 20.1515 L613.9394 20.1515 L613.4091 19.6212 L613.4091 15.3788 L613.9394 14.8485 Z" fill-rule="evenodd" clip-rule="evenodd" fill="white" stroke="none"/>
  <path d="M350.9091 15.9091 L351.4394 15.3788 L351.9697 15.3788 L352.5 15.9091 L352.5 16.4394 L351.9697 16.9697 L351.4394 16.9697 L350.9091 16.4394 L350.9091 15.9091 Z" fill-rule="evenodd" clip-rule="evenodd" fill="white" stroke="none"/>
  <path d="M596.9697 15.9091 L597.5 15.3788 L598.0303 15.3788 L598.5606 15.9091 L598.5606 16.4394 L598.0303 16.9697 L597.5 16.9697 L596.9697 16.4394 L596.9697 15.9091 Z" fill-rule="evenodd" clip-rule="evenodd" fill="white" stroke="none"/>
  <path d="M349.8485 16.4394 L350.3788 16.4394 L350.9091 16.9697 L350.9091 18.0303 L350.3788 18.5606 L349.8485 18.5606 L348.7879 17.5 L349.8485 16.4394 Z" fill-rule="evenodd" clip-rule="evenodd" fill="white" stroke="none"/>
  <path d="M358.8636 16.4394 L359.3939 16.9697 L359.3939 18.0303 L358.8636 18.5606 L358.3333 18.0303 L358.3333 16.9697 L358.8636 16.4394 Z" fill-rule="evenodd" clip-rule="evenodd" fill="white" stroke="none"/>
  <path d="M598.5606 16.9697 L599.0909 16.4394 L599.6212 16.4394 L600.6818 17.5 L600.6818 18.0303 L600.1515 18.5606 L599.0909 18.5606 L598.5606 18.0303 L598.5606 16.9697 Z" fill-rule="evenodd" clip-rule="evenodd" fill="white" stroke="none"/>
  <path d="M366.2879 18.0303 L366.8182 17.5 L367.8788 17.5 L368.4091 18.0303 L367.8788 18.5606 L366.8182 18.5606 L366.2879 18.0303 Z" fill-rule="evenodd" clip-rule="evenodd" fill="white" stroke="none"/>
  <path d="M581.0606 18.0303 L581.5909 17.5 L582.6515 17.5 L583.1818 18.0303 L582.6515 18.5606 L581.5909 18.5606 L581.0606 18.0303 Z" fill-rule="evenodd" clip-rule="evenodd" fill="white" stroke="none"/>
  <path d="M350.9091 18.5606 L351.4394 18.0303 L351.9697 18.0303 L352.5 18.5606 L352.5 19.0909 L351.9697 19.6212 L351.4394 19.6212 L350.9091 19.0909 L350.9091 18.5606 Z" fill-rule="evenodd" clip-rule="evenodd" fill="white" stroke="none"/>
  <path d="M596.9697 18.5606 L597.5 18.0303 L598.0303 18.0303 L598.5606 18.5606 L598.5606 19.0909 L598.0303 19.6212 L597.5 19.6212 L596.9697 19.0909 L596.9697 18.5606 Z" fill-rule="evenodd" clip-rule="evenodd" fill="white" stroke="none"/>
  <path d="M352.5 19.6212 L353.5606 18.5606 L354.0909 18.5606 L354.6212 19.0909 L356.2121 19.0909 L356.7424 19.6212 L358.3333 19.6212 L358.8636 20.1515 L358.3333 20.6818 L354.0909 20.6818 L352.5 19.6212 Z" fill-rule="evenodd" clip-rule="evenodd" fill="white" stroke="none"/>
  <path d="M596.9697 19.6212 L595.3788 20.6818 L591.1364 20.6818 L590.6061 20.1515 L591.1364 19.6212 L593.2576 19.6212 L593.7879 19.0909 L595.3788 19.0909 L595.9091 18.5606 L596.9697 19.6212 Z" fill-rule="evenodd" clip-rule="evenodd" fill="white" stroke="none"/>
  <path d="M346.1364 20.6818 L347.197 19.6212 L348.2576 19.6212 L349.3182 20.6818 L351.4394 20.6818 L351.9697 21.2121 L351.9697 22.2727 L351.4394 22.8031 L350.3788 22.8031 L350.3788 23.3333 L349.3182 24.394 L348.2576 24.394 L346.6667 22.8031 L346.6667 22.2727 L346.1364 21.7424 L346.1364 20.6818 Z" fill-rule="evenodd" clip-rule="evenodd" fill="white" stroke="none"/>
  <path d="M602.2727 19.6212 L603.3333 20.6818 L603.3333 21.7424 L602.803 22.2727 L602.803 22.8031 L601.2121 24.394 L600.1515 24.394 L599.6212 23.8637 L599.6212 22.8031 L598.0303 22.8031 L597.5 22.2727 L597.5 21.7424 L598.5606 20.6818 L600.1515 20.6818 L601.2121 19.6212 L602.2727 19.6212 Z" fill-rule="evenodd" clip-rule="evenodd" fill="white" stroke="none"/>
  <path d="M342.4242 20.6818 L342.9545 20.1515 L343.4849 20.6818 L343.4849 21.2121 L345.6061 23.3333 L346.1364 23.3333 L347.197 24.394 L346.6667 24.9243 L345.0758 24.9243 L344.5455 24.394 L342.9545 23.8637 L341.8939 22.8031 L341.8939 21.7424 L342.4242 21.2121 L342.4242 20.6818 Z" fill-rule="evenodd" clip-rule="evenodd" fill="white" stroke="none"/>
  <path d="M606.5151 20.1515 L607.5758 21.2121 L607.5758 21.7424 L608.1061 22.2727 L606.5151 23.8637 L605.9848 23.8637 L604.3939 24.9243 L602.803 24.9243 L602.2727 24.394 L602.803 23.8637 L603.3333 23.8637 L605.9848 21.2121 L605.9848 20.6818 L606.5151 20.1515 Z" fill-rule="evenodd" clip-rule="evenodd" fill="white" stroke="none"/>
  <path d="M608.6364 30.2273 L608.6364 30.7576 L610.2273 31.2879 L611.2879 32.3485 L611.8182 32.3485 L612.3485 32.8788 L617.1212 32.8788 L617.6515 32.3485 L617.6515 30.7576 L617.1212 30.2273 L617.1212 29.697 L613.9394 26.5152 L612.8788 26.5152 L612.8788 27.0455 L613.4091 27.5758 L613.4091 28.6364 L612.3485 30.2273 L610.7576 30.2273 L610.2273 30.7576 L609.697 30.2273 L608.6364 30.2273 Z" fill-rule="evenodd" clip-rule="evenodd" fill="white" stroke="none"/></g></svg>