<svg xmlns="http://www.w3.org/2000/svg" viewBox="0 0 950 35" fill="none"><g transform="translate(-605.5455,-22.3096) scale(2.2748)"><path d="M292.7275 12.5 L292.7275 14.3182 L293.6366 14.3182 L295.4547 12.5 L296.3638 12.5 L297.2729 11.5909 L297.2729 10.6818 L299.0911 7.9546 L300.0002 8.8636 L300.0002 12.5 L303.6365 12.5 L305.4547 10.6818 L308.182 12.5 L308.182 13.4091 L306.3638 15.2273 L303.6365 15.2273 L301.8184 17.9546 L301.8184 18.8636 L305.4547 18.8636 L308.182 21.5909 L305.4547 23.4091 L302.7275 21.5909 L300.0002 21.5909 L300.0002 25.2273 L299.0911 26.1363 L298.182 25.2273 L298.182 24.3182 L296.3638 21.5909 L295.4547 21.5909 L293.6366 19.7727 L291.8184 19.7727 L291.8184 20.6818 L293.6366 22.5 L294.5456 22.5 L297.2729 25.2273 L297.2729 26.1363 L298.182 27.0454 L298.182 27.9546 L300.0002 29.7727 L300.0002 31.5909 L300.9093 32.5 L303.6365 32.5 L304.5456 33.4091 L307.2729 33.4091 L308.182 32.5 L309.0911 32.5 L311.8184 29.7727 L311.8184 28.8636 L312.7274 27.9546 L312.7274 27.0454 L316.3638 23.4091 L316.3638 22.5 L318.182 20.6818 L322.7274 20.6818 L323.6365 21.5909 L324.5456 21.5909 L325.4547 22.5 L326.3638 22.5 L326.3638 21.5909 L323.6365 19.7727 L317.2729 19.7727 L316.3638 20.6818 L315.4547 20.6818 L314.5456 21.5909 L313.6365 21.5909 L311.8184 19.7727 L311.8184 18.8636 L310.9093 18.8636 L310.0002 19.7727 L307.2729 17.0454 L309.0911 15.2273 L311.8184 15.2273 L311.8184 14.3182 L313.6365 12.5 L314.5456 12.5 L316.3638 14.3182 L319.091 14.3182 L320.0002 15.2273 L320.9092 15.2273 L321.8183 14.3182 L323.6365 14.3182 L326.3638 12.5 L326.3638 11.5909 L325.4547 11.5909 L322.7274 13.4091 L318.182 13.4091 L317.2729 12.5 L317.2729 10.6818 L316.3638 10.6818 L312.7274 7.0454 L312.7274 6.1364 L311.8184 5.2273 L311.8184 4.3182 L309.0911 1.5909 L300.9093 1.5909 L300.0002 2.5 L300.0002 4.3182 L298.182 6.1364 L298.182 7.0454 L297.2729 7.9546 L297.2729 8.8636 L296.3638 9.7728 L296.3638 10.6818 L295.4547 11.5909 L293.6366 11.5909 L292.7275 12.5 Z" fill-rule="evenodd" clip-rule="evenodd" fill="white" stroke="none"/>
  <path d="M640.9089 1.5909 L639.9998 2.5 L639.0907 2.5 L639.0907 3.4091 L637.2726 5.2273 L637.2726 6.1364 L636.3635 7.0454 L636.3635 7.9546 L635.4543 8.8636 L634.5453 8.8636 L632.727 10.6818 L632.727 11.5909 L630.9089 13.4091 L627.2726 13.4091 L626.3634 12.5 L624.5452 12.5 L623.6362 11.5909 L622.7271 11.5909 L622.7271 12.5 L625.4543 14.3182 L628.1817 14.3182 L629.0907 15.2273 L629.9998 15.2273 L630.9089 14.3182 L632.727 14.3182 L633.6362 13.4091 L634.5453 13.4091 L635.4543 12.5 L636.3635 12.5 L638.1816 15.2273 L640.9089 15.2273 L642.727 17.0454 L640.9089 18.8636 L638.1816 18.8636 L636.3635 21.5909 L635.4543 21.5909 L632.727 19.7727 L626.3634 19.7727 L625.4543 20.6818 L623.6362 20.6818 L622.7271 21.5909 L622.7271 22.5 L624.5452 22.5 L627.2726 20.6818 L630.9089 20.6818 L633.6362 22.5 L633.6362 24.3182 L634.5453 24.3182 L636.3635 26.1363 L636.3635 27.0454 L637.2726 27.9546 L637.2726 28.8636 L638.1816 29.7727 L638.1816 30.6818 L639.9998 32.5 L641.818 32.5 L642.727 33.4091 L645.4543 33.4091 L646.3634 32.5 L649.0907 32.5 L649.9998 31.5909 L649.9998 28.8636 L652.727 26.1363 L652.727 24.3182 L654.5453 22.5 L655.4544 22.5 L657.2725 20.6818 L657.2725 19.7727 L656.3634 19.7727 L654.5453 21.5909 L653.6361 21.5909 L651.8179 23.4091 L651.8179 24.3182 L650.9089 25.2273 L649.9998 24.3182 L649.9998 21.5909 L646.3634 21.5909 L644.5452 23.4091 L643.6361 22.5 L642.727 22.5 L641.818 21.5909 L641.818 20.6818 L643.6361 18.8636 L647.2725 18.8636 L647.2725 16.1364 L646.3634 16.1364 L645.4543 15.2273 L643.6361 15.2273 L641.818 13.4091 L641.818 12.5 L644.5452 10.6818 L646.3634 12.5 L649.9998 12.5 L649.9998 9.7728 L650.9089 8.8636 L651.8179 9.7728 L651.8179 10.6818 L652.727 11.5909 L652.727 12.5 L654.5453 12.5 L656.3634 14.3182 L657.2725 14.3182 L657.2725 13.4091 L655.4544 11.5909 L654.5453 11.5909 L652.727 9.7728 L652.727 7.9546 L649.9998 5.2273 L649.9998 2.5 L649.0907 1.5909 L640.9089 1.5909 Z" fill-rule="evenodd" clip-rule="evenodd" fill="white" stroke="none"/>
  <path d="M306.3638 2.5 L308.182 2.5 L310.9093 5.2273 L310.9093 6.1364 L311.8184 7.0454 L311.8184 9.7728 L310.9093 10.6818 L310.0002 9.7728 L310.0002 8.8636 L307.2729 6.1364 L306.3638 6.1364 L305.4547 5.2273 L305.4547 3.4091 L306.3638 2.5 Z" fill-rule="evenodd" clip-rule="evenodd" fill="white" stroke="none"/>
  <path d="M643.6361 2.5 L644.5452 3.4091 L644.5452 5.2273 L643.6361 6.1364 L642.727 6.1364 L641.818 7.0454 L640.9089 7.0454 L639.9998 7.9546 L639.9998 9.7728 L639.0907 10.6818 L637.2726 8.8636 L638.1816 7.9546 L638.1816 6.1364 L639.0907 5.2273 L639.0907 4.3182 L641.818 2.5 L643.6361 2.5 Z" fill-rule="evenodd" clip-rule="evenodd" fill="white" stroke="none"/>
  <path d="M318.182 4.3182 L318.182 5.2273 L319.091 6.1364 L549.0908 6.1364 L549.0908 4.3182 L318.182 4.3182 Z" fill-rule="evenodd" clip-rule="evenodd" fill="white" stroke="none"/>
  <path d="M558.1817 4.3182 L558.1817 6.1364 L630.9089 6.1364 L631.8179 5.2273 L631.8179 4.3182 L558.1817 4.3182 Z" fill-rule="evenodd" clip-rule="evenodd" fill="white" stroke="none"/>
  <path d="M278.182 13.4091 L276.3638 13.4091 L275.4548 14.3182 L274.5457 14.3182 L274.5457 15.2273 L278.182 15.2273 L278.182 13.4091 Z" fill-rule="evenodd" clip-rule="evenodd" fill="white" stroke="none"/>
  <path d="M671.8179 13.4091 L671.8179 15.2273 L674.5452 15.2273 L674.5452 14.3182 L673.6361 13.4091 L671.8179 13.4091 Z" fill-rule="evenodd" clip-rule="evenodd" fill="white" stroke="none"/>
  <path d="M328.182 16.1364 L328.182 18.8636 L536.3635 18.8636 L539.0909 17.0454 L541.8181 18.8636 L620.9089 18.8636 L621.818 17.9546 L621.818 16.1364 L620.9089 15.2273 L542.7271 15.2273 L541.8181 16.1364 L539.9999 16.1364 L539.0909 15.2273 L329.091 15.2273 L328.182 16.1364 Z" fill-rule="evenodd" clip-rule="evenodd" fill="white" stroke="none"/>
  <path d="M274.5457 18.8636 L274.5457 19.7727 L275.4548 19.7727 L276.3638 20.6818 L278.182 20.6818 L279.0911 19.7727 L285.4547 19.7727 L285.4547 18.8636 L274.5457 18.8636 Z" fill-rule="evenodd" clip-rule="evenodd" fill="white" stroke="none"/>
  <path d="M669.9997 18.8636 L669.9997 19.7727 L670.9088 20.6818 L673.6361 20.6818 L674.5452 19.7727 L675.4543 19.7727 L675.4543 18.8636 L669.9997 18.8636 Z" fill-rule="evenodd" clip-rule="evenodd" fill="white" stroke="none"/>
  <path d="M310.9093 23.4091 L311.8184 24.3182 L311.8184 27.0454 L310.9093 27.9546 L310.9093 28.8636 L308.182 31.5909 L306.3638 31.5909 L305.4547 30.6818 L305.4547 28.8636 L306.3638 27.9546 L307.2729 27.9546 L310.0002 25.2273 L310.0002 24.3182 L310.9093 23.4091 Z" fill-rule="evenodd" clip-rule="evenodd" fill="white" stroke="none"/>
  <path d="M637.2726 25.2273 L638.1816 24.3182 L639.0907 24.3182 L640.9089 27.0454 L641.818 27.0454 L644.5452 28.8636 L644.5452 30.6818 L643.6361 31.5909 L641.818 31.5909 L640.9089 30.6818 L639.9998 30.6818 L639.0907 29.7727 L639.0907 28.8636 L638.1816 27.9546 L638.1816 26.1363 L637.2726 25.2273 Z" fill-rule="evenodd" clip-rule="evenodd" fill="white" stroke="none"/>
  <path d="M318.182 28.8636 L318.182 29.7727 L519.0909 29.7727 L519.0909 28.8636 L318.182 28.8636 Z" fill-rule="evenodd" clip-rule="evenodd" fill="white" stroke="none"/>
  <path d="M529.0908 28.8636 L529.0908 29.7727 L631.8179 29.7727 L631.8179 28.8636 L529.0908 28.8636 Z" fill-rule="evenodd" clip-rule="evenodd" fill="white" stroke="none"/></g></svg>