<svg xmlns="http://www.w3.org/2000/svg" viewBox="0 0 950 35" fill="none"><g transform="translate(-316.8786,-10.9533) scale(1.6671)"><path d="M303.8643 2.9402 C296.8433 4.4209 292.0173 4.6387 287.7448 3.6676 L285.0718 3.06 L287.4495 4.1943 C290.8386 5.8113 295.7075 6.2895 301.4516 5.5694 C309.6842 4.5374 311.6512 4.4979 313.3318 5.3312 C315.3106 6.3124 314.1628 7.3593 310.3693 8.0332 C308.8587 8.3015 306.9651 8.7724 306.1612 9.0796 C304.3345 9.7776 304.1996 12.2421 305.9524 12.8949 C306.9922 13.2821 307.2052 13.2389 307.2052 12.641 C307.2052 11.1239 310.9426 10.5029 313.4098 11.6099 C315.3396 12.4759 315.0113 13.5421 312.5963 14.2522 C309.6041 15.1319 305.6366 14.5274 297.9086 12.0143 C291.2903 9.8622 287.6585 9.1472 283.3451 9.1472 C277.9977 9.1472 277.6537 9.5587 282.2095 10.5058 C284.5729 10.9971 288.8147 12.2679 291.6358 13.3296 C294.4568 14.3914 298.757 15.6718 301.1918 16.1748 L305.6186 17.0895 L300.7742 18.1346 C298.1097 18.7093 293.9025 19.9669 291.4247 20.9292 C286.7388 22.7489 281.4723 24.138 279.2586 24.138 C278.5512 24.138 277.9725 24.3067 277.9725 24.5128 C277.9725 25.0971 286.865 24.9529 290.2767 24.3133 C291.9614 23.9974 295.238 23.0897 297.5581 22.2962 C303.293 20.3346 306.5718 19.6407 310.1049 19.6407 C312.4999 19.6407 313.2809 19.8311 314.0686 20.6068 C314.7663 21.2939 314.7951 21.7538 314.1684 22.1995 C312.9269 23.0827 308.8615 23.0054 307.7139 22.0768 C307.2044 21.6645 306.6732 21.2478 306.5334 21.1507 C305.9555 20.7493 304.7242 22.1597 304.7124 23.2367 C304.6981 24.5269 306.1249 25.2294 310.6903 26.1804 C313.9707 26.8636 314.9758 27.5279 314.1645 28.4766 C313.1939 29.6115 310.0834 29.7775 304.9419 28.969 C298.3864 27.938 292.5155 28.1426 288.4181 29.5449 C284.7512 30.7999 285.0043 31.0932 289.0929 30.3266 C293.592 29.4831 296.1735 29.6222 302.9119 31.0713 C313.7837 33.4091 320.3926 32.7876 327.2836 28.7794 C331.7417 26.1862 337.1001 24.7466 341.2406 25.0297 C344.6515 25.2628 344.6701 25.0727 341.3127 24.2937 C337.7284 23.462 330.5501 23.7337 327.2585 24.8257 C324.0751 25.8817 322.2384 25.8701 322.2424 24.7938 C322.251 22.46 328.572 20.0193 334.6137 20.0169 C338.6428 20.0153 340.8289 20.4227 344.0754 21.7799 L346.2839 22.7031 L347.268 21.3652 C347.8092 20.6293 349.2152 19.6873 350.3923 19.2718 C352.516 18.5223 353.4798 18.5164 475.2618 18.5164 L597.9911 18.5164 L600.4326 19.6119 C601.7753 20.2144 602.874 21.0477 602.874 21.4636 C602.874 22.574 604.1051 22.7284 605.8925 21.8421 C611.5044 19.0597 621.8932 19.512 626.2647 22.7292 C629.5092 25.1169 627.5047 26.3526 622.8167 24.8548 C619.2938 23.7292 612.4717 23.455 608.8571 24.2937 C605.5917 25.0514 605.5492 25.1763 608.626 24.9737 C611.9399 24.7555 617.9981 26.0341 620.4608 27.4715 C627.7853 31.7468 629.9424 32.3829 637.115 32.3829 C640.144 32.3829 642.7372 32.0669 646.2659 31.2676 C652.7545 29.7979 656.8036 29.5254 660.8586 30.2857 C664.8545 31.0348 665.1589 31.0324 663.7386 30.2623 C661.9889 29.3136 656.2813 28.2779 652.7517 28.2687 C651.0142 28.2642 648.2434 28.5135 646.5943 28.8226 C642.2518 29.6368 637.3869 29.5609 636.3152 28.6624 C635.0994 27.643 635.9783 26.9052 639.0573 26.3603 C645.0081 25.3073 647.2715 23.1012 644.244 21.3051 C643.0372 20.5892 643.0174 20.5898 642.9912 21.3459 C642.9569 22.3372 641.4216 23.0137 639.2061 23.0137 C636.9464 23.0137 635.4476 22.3296 635.4476 21.2982 C635.4476 18.8405 642.9253 19.098 651.1668 21.8394 C654.341 22.8954 658.2922 24.0131 659.9472 24.3234 C663.0373 24.9027 671.3646 25.1093 671.3591 24.6064 C671.3574 24.4519 669.7319 24.0258 667.747 23.6596 C665.7621 23.2934 661.911 22.1479 659.1891 21.1139 C656.4672 20.08 652.0764 18.7482 649.4319 18.1543 L644.6237 17.0746 L649.0582 16.1637 C651.4972 15.6627 655.3739 14.503 657.6732 13.5867 C662.6777 11.5923 666.7561 10.4249 669.9799 10.0637 C673.186 9.7046 671.2403 9.1578 666.7685 9.1612 C662.5578 9.1643 658.0557 10.0772 651.3863 12.2802 C644.5854 14.5267 640.494 15.1108 637.5736 14.2522 C634.7813 13.4312 634.7059 11.9061 637.4301 11.3492 C640.0266 10.8183 642.9549 11.4912 642.9912 12.627 C643.0172 13.4375 643.0466 13.4399 644.244 12.7296 C645.921 11.7347 645.7938 9.7617 644.0086 9.0796 C643.2047 8.7724 641.3112 8.3015 639.8006 8.0332 C636.0071 7.3593 634.8592 6.3124 636.8381 5.3312 C638.5201 4.4973 640.4816 4.5371 648.7526 5.5734 C654.3375 6.2731 658.4992 5.8721 662.4163 4.2568 L665.098 3.1509 L661.9927 3.713 C657.1681 4.5864 653.3824 4.3972 646.0798 2.9177 C640.3184 1.7504 638.8038 1.5909 635.2681 1.7788 C629.7723 2.0708 626.2561 3.1167 622.4647 5.5868 C618.5053 8.1663 616.2549 8.8274 610.4342 9.1207 L605.7972 9.3544 L609.8566 10.0669 C613.3892 10.6871 614.4073 10.7207 617.7031 10.3251 C619.7861 10.0752 622.4695 9.5632 623.6664 9.1875 C627.8681 7.8687 629.3934 9.3084 626.2287 11.606 C624.4009 12.9331 618.6619 14.3991 615.3474 14.3857 C612.7694 14.3752 606.9881 13.2065 605.4862 12.3921 C603.8967 11.5303 602.8788 11.6158 602.8474 12.6138 C602.8157 13.6206 601.4515 14.4872 598.9615 15.0823 C597.5984 15.4081 566.1158 15.5183 474.4185 15.5183 L351.6998 15.5183 L349.4979 14.5303 C348.2868 13.9868 347.2959 13.2379 347.2959 12.8659 C347.2959 11.9034 346.0101 11.6729 344.6761 12.3962 C343.1806 13.2071 337.3948 14.3753 334.8225 14.3857 C329.3795 14.4078 322.2503 11.7171 322.2424 9.6378 C322.2375 8.3503 323.7452 8.2445 327.124 9.2952 C331.4046 10.6262 336.7495 10.8731 341.0318 9.9377 L344.3726 9.2078 L340.7404 9.1775 C335.2317 9.1315 331.7834 8.1935 327.6974 5.6296 C323.3532 2.9036 320.3448 2.0303 314.4865 1.7945 C310.7683 1.6449 309.2089 1.813 303.8643 2.9402 Z" fill-rule="evenodd" clip-rule="evenodd" fill="white" stroke="none"/>
  <path d="M268.3674 5.1587 C266.5299 5.4312 262.3956 6.2513 259.18 6.9814 C251.1318 8.8086 245.3638 9.3075 239.9698 8.6428 C237.673 8.3598 235.042 8.0045 234.1233 7.8533 C232.7673 7.6301 232.846 7.7284 234.5409 8.3755 C240.5478 10.6688 247.9127 11.4408 256.2292 10.6489 C260.6313 10.2297 261.4775 10.2468 263.3352 10.7931 C267.767 12.096 264.8235 14.394 258.7227 14.394 C257.0679 14.394 251.8008 13.7839 247.0182 13.0382 C236.5165 11.4009 232.2658 11.4401 222.8173 13.2613 C215.109 14.747 208.6384 15.0899 204.159 14.2502 C201.1526 13.6865 201.0071 13.6876 202.0736 14.2659 C204.0055 15.3134 209.6794 16.2509 214.1396 16.2596 C216.4703 16.2641 221.5443 15.8355 225.4151 15.3071 C233.3954 14.2177 238.4489 14.2532 241.9445 15.4231 C244.8656 16.4007 245.121 17.265 242.8143 18.3667 C239.5785 19.9122 235.5936 20.1502 227.5544 19.2782 C220.0184 18.4608 213.216 18.2655 214.078 18.8912 C214.3619 19.0973 215.3331 19.266 216.2362 19.266 C217.1393 19.266 220.5746 19.8753 223.8702 20.62 C232.693 22.6136 236.8841 22.6776 248.0683 20.9893 C258.2837 19.4473 261.4066 19.3282 263.7737 20.3903 C265.8155 21.3065 265.9132 22.3749 264.0326 23.2187 C262.8427 23.7527 261.7605 23.8053 257.142 23.5539 C254.1285 23.3899 250.0264 23.2884 248.0262 23.3284 C243.8143 23.4127 236.9837 24.633 234.8772 25.6774 C233.45 26.385 233.4884 26.3878 237.0107 25.8301 C244.2599 24.6825 250.7886 25.2199 263.7501 28.0313 C270.7284 29.5448 275.4017 29.7585 281.2551 28.8319 C284.682 28.2894 291.2831 26.4158 291.3182 25.9757 C291.328 25.8528 289.3628 26.0621 286.9511 26.4407 C279.4937 27.6115 272.9611 26.6936 272.9611 24.4748 C272.9611 23.539 273.4814 23.3436 277.8971 22.6211 C280.6119 22.177 283.8769 21.3247 285.1527 20.7272 L287.4724 19.6407 L283.31 19.6407 C280.5031 19.6407 276.9151 19.2307 272.2924 18.3816 L265.4374 17.1225 L271.9137 15.8723 C276.406 15.0051 279.7327 14.6158 282.7725 14.6017 C285.1829 14.5905 287.1561 14.4635 287.1574 14.3193 C287.1623 13.8014 281.6485 12.187 277.5549 11.5077 C273.8856 10.8989 273.3477 10.6725 273.123 9.6422 C272.9319 8.766 273.3483 8.3184 274.7705 7.8715 C277.4177 7.0395 283.7186 7.12 288.5406 8.0474 L292.5654 8.8215 L290.5352 7.8519 C285.6482 5.5178 274.8197 4.2022 268.3674 5.1587 Z" fill-rule="evenodd" clip-rule="evenodd" fill="white" stroke="none"/>
  <path d="M670.4856 5.1411 C666.2542 5.6746 661.586 6.8653 659.3187 7.9895 C657.832 8.7267 657.8443 8.7267 662.0971 8.0016 C670.5554 6.5595 677.5518 7.3273 677.0469 9.6422 C676.8222 10.6725 676.2843 10.8989 672.615 11.5077 C668.5213 12.187 663.0075 13.8014 663.0124 14.3193 C663.0138 14.4635 664.987 14.5899 667.3973 14.6003 C672.9271 14.6241 686.1107 17.0304 682.8882 17.4278 C681.8317 17.558 678.6295 18.1093 675.7723 18.6526 C672.6425 19.248 669.0217 19.6407 666.6642 19.6407 L662.751 19.6407 L664.3422 20.4387 C665.2173 20.8776 668.3762 21.763 671.3622 22.4062 C675.7189 23.3448 676.8402 23.7647 677.0395 24.5323 C677.6119 26.7371 669.4318 27.6787 661.9659 26.2674 C657.6643 25.4542 658.0417 25.9604 662.8028 27.3899 C671.4691 29.992 677.0184 30.0055 689.251 27.4545 C700.0098 25.2107 706.9191 24.7155 712.6013 25.7807 C716.7307 26.5549 717.0374 26.5424 715.2812 25.6718 C713.2761 24.6776 706.4921 23.4297 702.5959 23.3383 C700.8063 23.2964 696.6859 23.3936 693.4393 23.5543 C688.4457 23.8016 687.32 23.7495 686.1311 23.216 C682.9302 21.7797 685.691 19.6407 690.7457 19.6407 C692.0147 19.6407 697.099 20.2482 702.0441 20.9906 C713.406 22.6965 717.4804 22.6392 726.4368 20.6477 C729.8545 19.8878 733.3089 19.266 734.1132 19.266 C734.9176 19.266 735.808 19.0973 736.092 18.8912 C736.9751 18.25 729.3618 18.4683 722.3334 19.2858 C714.6882 20.175 710.6019 19.9172 707.2933 18.337 C705.6541 17.554 705.4781 17.2543 706.2255 16.5182 C707.2833 15.4765 711.9583 14.394 715.3993 14.394 C716.7418 14.394 720.9796 14.8156 724.8164 15.3309 C728.6533 15.8462 733.6995 16.2641 736.0303 16.2596 C740.4246 16.2511 746.1585 15.3167 748.0235 14.3052 C748.9929 13.7795 748.7493 13.7773 745.5178 14.2827 C740.6095 15.0504 734.6745 14.7176 727.2712 13.2596 C718.0141 11.4365 713.6215 11.3962 703.031 13.0371 C693.1967 14.5607 688.2246 14.758 686.108 13.7086 C684.2664 12.7955 684.361 11.6601 686.3459 10.8541 C687.8091 10.2598 688.5492 10.2403 693.9874 10.6519 C703.339 11.3596 710.9247 10.5487 715.2114 8.383 L716.8818 7.539 L715.1084 7.956 C708.2411 9.5711 700.9315 9.2191 689.3947 6.7179 C680.6349 4.8187 676.0653 4.4377 670.4856 5.1411 Z" fill-rule="evenodd" clip-rule="evenodd" fill="white" stroke="none"/></g></svg>