<svg xmlns="http://www.w3.org/2000/svg" viewBox="0 0 950 35" fill="none"><g transform="translate(-725.2334,-26.7191) scale(2.5268)"><path d="M311.7613 1.5909 L310.941 1.5909 L310.941 2.3485 L309.3004 3.8636 L309.3004 4.6212 L308.4801 5.3788 L308.4801 6.1364 L309.3004 6.1364 L309.3004 5.3788 L310.941 3.8636 L310.941 3.1061 L311.7613 2.3485 L311.7613 1.5909 Z" fill-rule="evenodd" clip-rule="evenodd" fill="white" stroke="none"/>
  <path d="M639.0591 2.3485 L639.0591 3.1061 L639.8794 3.8636 L639.8794 4.6212 L640.6997 5.3788 L641.5199 5.3788 L641.5199 4.6212 L639.8794 3.1061 L639.8794 2.3485 L639.0591 2.3485 Z" fill-rule="evenodd" clip-rule="evenodd" fill="white" stroke="none"/>
  <path d="M321.6048 10.6818 L319.9642 9.1666 L319.1439 9.1666 L316.683 7.6515 L315.0424 7.6515 L314.2222 8.4091 L313.4018 8.4091 L312.5816 9.1666 L311.7613 9.1666 L310.941 9.9242 L310.941 10.6818 L309.3004 12.1969 L309.3004 12.9545 L311.7613 12.9545 L312.5816 12.1969 L316.683 12.1969 L317.5033 11.4394 L321.6048 11.4394 L321.6048 10.6818 Z" fill-rule="evenodd" clip-rule="evenodd" fill="white" stroke="none"/>
  <path d="M629.2155 10.6818 L629.2155 11.4394 L632.4967 11.4394 L633.317 12.1969 L637.4185 12.1969 L638.2388 12.9545 L639.8794 12.9545 L640.6997 13.7121 L641.5199 13.7121 L641.5199 12.9545 L640.6997 12.1969 L640.6997 11.4394 L637.4185 8.4091 L636.5982 8.4091 L635.7779 7.6515 L634.1373 7.6515 L633.317 8.4091 L631.6764 8.4091 L629.2155 10.6818 Z" fill-rule="evenodd" clip-rule="evenodd" fill="white" stroke="none"/>
  <path d="M306.0192 9.1666 L305.1989 9.1666 L304.3786 9.9242 L303.5583 9.9242 L301.0974 11.4394 L298.6365 11.4394 L297.8162 12.1969 L294.5351 12.1969 L294.5351 12.9545 L297.8162 15.9849 L298.6365 15.9849 L300.2771 17.5 L298.6365 19.0152 L297.8162 19.0152 L294.5351 22.0455 L294.5351 22.8031 L298.6365 22.8031 L299.4568 23.5606 L301.9177 23.5606 L304.3786 25.0758 L306.0192 25.0758 L306.0192 22.8031 L305.1989 22.0455 L305.1989 19.0152 L304.3786 18.2576 L304.3786 15.9849 L305.1989 15.2272 L305.1989 12.9545 L306.0192 12.1969 L306.0192 9.1666 Z" fill-rule="evenodd" clip-rule="evenodd" fill="white" stroke="none"/>
  <path d="M643.9808 9.1666 L643.9808 9.9242 L644.8011 10.6818 L644.8011 14.4697 L646.4418 16.7424 L646.4418 18.2576 L645.6215 19.0152 L645.6215 21.2879 L644.8011 22.0455 L644.8011 23.5606 L643.9808 24.3182 L643.9808 25.8334 L644.8011 25.8334 L645.6215 25.0758 L646.4418 25.0758 L648.9026 23.5606 L651.3635 23.5606 L652.1838 22.8031 L655.4649 22.8031 L655.4649 21.2879 L653.8244 19.7728 L653.0041 19.7728 L650.5432 17.5 L653.8244 14.4697 L654.6447 14.4697 L655.4649 13.7121 L655.4649 12.1969 L652.1838 12.1969 L651.3635 11.4394 L648.9026 11.4394 L648.0823 10.6818 L647.262 10.6818 L646.4418 9.9242 L645.6215 9.9242 L644.8011 9.1666 L643.9808 9.1666 Z" fill-rule="evenodd" clip-rule="evenodd" fill="white" stroke="none"/>
  <path d="M392.9705 12.9545 L392.9705 15.2272 L393.7908 15.9849 L395.4314 15.9849 L397.8923 14.4697 L420.0402 14.4697 L420.0402 13.7121 L397.8923 13.7121 L395.4314 12.1969 L393.7908 12.1969 L392.9705 12.9545 Z" fill-rule="evenodd" clip-rule="evenodd" fill="white" stroke="none"/>
  <path d="M557.8498 12.9545 L557.0296 12.1969 L554.5686 12.1969 L552.9281 13.7121 L428.2432 13.7121 L428.2432 14.4697 L552.9281 14.4697 L554.5686 15.9849 L557.0296 15.9849 L557.8498 15.2272 L557.8498 12.9545 Z" fill-rule="evenodd" clip-rule="evenodd" fill="white" stroke="none"/>
  <path d="M326.5266 12.9545 L326.5266 13.7121 L327.3469 13.7121 L329.8078 15.2272 L332.2686 15.2272 L332.2686 14.4697 L331.4484 14.4697 L330.628 13.7121 L328.9875 13.7121 L328.1672 12.9545 L326.5266 12.9545 Z" fill-rule="evenodd" clip-rule="evenodd" fill="white" stroke="none"/>
  <path d="M624.2938 12.9545 L621.8329 12.9545 L621.0126 13.7121 L619.372 13.7121 L618.5516 14.4697 L618.5516 15.2272 L620.1923 15.2272 L621.0126 14.4697 L622.6532 14.4697 L623.4735 13.7121 L624.2938 13.7121 L624.2938 12.9545 Z" fill-rule="evenodd" clip-rule="evenodd" fill="white" stroke="none"/>
  <path d="M392.9705 19.7728 L392.9705 22.0455 L393.7908 22.0455 L394.6111 22.8031 L395.4314 22.8031 L397.072 21.2879 L411.017 21.2879 L411.017 20.5303 L397.8923 20.5303 L396.2517 19.0152 L393.7908 19.0152 L392.9705 19.7728 Z" fill-rule="evenodd" clip-rule="evenodd" fill="white" stroke="none"/>
  <path d="M557.8498 19.7728 L557.0296 19.0152 L554.5686 19.0152 L552.9281 20.5303 L535.7019 20.5303 L535.7019 21.2879 L552.9281 21.2879 L553.7484 22.0455 L554.5686 22.0455 L555.389 22.8031 L556.2092 22.8031 L557.8498 21.2879 L557.8498 19.7728 Z" fill-rule="evenodd" clip-rule="evenodd" fill="white" stroke="none"/>
  <path d="M332.2686 19.7728 L329.8078 19.7728 L328.9875 20.5303 L327.3469 20.5303 L326.5266 21.2879 L326.5266 22.0455 L327.3469 22.0455 L328.1672 21.2879 L330.628 21.2879 L331.4484 20.5303 L332.2686 20.5303 L332.2686 19.7728 Z" fill-rule="evenodd" clip-rule="evenodd" fill="white" stroke="none"/>
  <path d="M618.5516 19.7728 L618.5516 20.5303 L619.372 20.5303 L620.1923 21.2879 L621.8329 21.2879 L622.6532 22.0455 L624.2938 22.0455 L624.2938 21.2879 L623.4735 21.2879 L621.0126 19.7728 L618.5516 19.7728 Z" fill-rule="evenodd" clip-rule="evenodd" fill="white" stroke="none"/>
  <path d="M420.0402 20.5303 L420.0402 21.2879 L531.6004 21.2879 L531.6004 20.5303 L420.0402 20.5303 Z" fill-rule="evenodd" clip-rule="evenodd" fill="white" stroke="none"/>
  <path d="M309.3004 21.2879 L309.3004 22.8031 L310.941 24.3182 L310.941 25.0758 L313.4018 26.591 L318.3236 26.591 L319.9642 25.0758 L320.7845 25.0758 L322.4251 23.5606 L322.4251 22.8031 L313.4018 22.8031 L312.5816 22.0455 L310.941 22.0455 L310.1207 21.2879 L309.3004 21.2879 Z" fill-rule="evenodd" clip-rule="evenodd" fill="white" stroke="none"/>
  <path d="M641.5199 21.2879 L639.8794 21.2879 L639.0591 22.0455 L637.4185 22.0455 L636.5982 22.8031 L628.3952 22.8031 L628.3952 23.5606 L630.8561 25.8334 L631.6764 25.8334 L632.4967 26.591 L637.4185 26.591 L640.6997 23.5606 L640.6997 22.8031 L641.5199 22.0455 L641.5199 21.2879 Z" fill-rule="evenodd" clip-rule="evenodd" fill="white" stroke="none"/>
  <path d="M328.1672 25.8334 L328.1672 26.591 L404.4546 26.591 L404.4546 25.8334 L328.1672 25.8334 Z" fill-rule="evenodd" clip-rule="evenodd" fill="white" stroke="none"/>
  <path d="M412.6576 25.8334 L412.6576 26.591 L622.6532 26.591 L622.6532 25.8334 L412.6576 25.8334 Z" fill-rule="evenodd" clip-rule="evenodd" fill="white" stroke="none"/>
  <path d="M308.4801 28.8637 L308.4801 29.6213 L310.1207 31.1364 L310.1207 31.8939 L310.941 32.6515 L310.941 33.4091 L311.7613 33.4091 L311.7613 32.6515 L310.941 31.8939 L310.941 31.1364 L310.1207 30.3788 L310.1207 29.6213 L309.3004 28.8637 L308.4801 28.8637 Z" fill-rule="evenodd" clip-rule="evenodd" fill="white" stroke="none"/>
  <path d="M641.5199 29.6213 L640.6997 29.6213 L639.8794 30.3788 L639.8794 31.1364 L639.0591 31.8939 L639.0591 32.6515 L639.8794 32.6515 L639.8794 31.8939 L641.5199 30.3788 L641.5199 29.6213 Z" fill-rule="evenodd" clip-rule="evenodd" fill="white" stroke="none"/></g></svg>