<svg xmlns="http://www.w3.org/2000/svg" viewBox="0 0 950 35" fill="none"><g transform="translate(-466.453,-17.1851) scale(1.982)"><path d="M329.3706 1.5909 L329.3706 2.8147 L331.8181 2.8147 L333.0419 4.0385 L335.4895 4.0385 L335.4895 2.8147 L334.2657 1.5909 L329.3706 1.5909 Z" fill-rule="evenodd" clip-rule="evenodd" fill="white" stroke="none"/>
  <path d="M613.2867 5.2623 L614.5105 5.2623 L615.7343 4.0385 L616.958 4.0385 L618.1818 2.8147 L620.6293 2.8147 L620.6293 1.5909 L615.7343 1.5909 L614.5105 2.8147 L613.2867 2.8147 L613.2867 5.2623 Z" fill-rule="evenodd" clip-rule="evenodd" fill="white" stroke="none"/>
  <path d="M336.7133 15.0524 L335.4895 13.8287 L335.4895 12.6049 L331.8181 8.9336 L330.5944 8.9336 L329.3706 7.7098 L324.4755 7.7098 L323.2517 8.9336 L322.0279 8.9336 L318.3566 12.6049 L318.3566 13.8287 L315.909 16.2763 L313.4615 16.2763 L311.0139 13.8287 L306.1188 13.8287 L304.8951 15.0524 L304.8951 19.9476 L306.1188 21.1713 L311.0139 21.1713 L313.4615 18.7238 L315.909 18.7238 L318.3566 21.1713 L318.3566 22.3951 L320.8042 24.8427 L322.0279 24.8427 L323.2517 26.0664 L324.4755 26.0664 L325.6993 27.2902 L328.1468 27.2902 L329.3706 26.0664 L331.8181 26.0664 L335.4895 22.3951 L335.4895 19.9476 L336.7133 18.7238 L336.7133 15.0524 Z" fill-rule="evenodd" clip-rule="evenodd" fill="white" stroke="none"/>
  <path d="M613.2867 13.8287 L613.2867 21.1713 L615.7343 23.6189 L615.7343 24.8427 L616.958 24.8427 L618.1818 26.0664 L620.6293 26.0664 L621.8531 27.2902 L623.0769 27.2902 L624.3007 26.0664 L626.7483 26.0664 L627.9719 24.8427 L629.1957 24.8427 L629.1957 23.6189 L631.6434 21.1713 L631.6434 19.9476 L632.8671 18.7238 L635.3147 18.7238 L636.5385 19.9476 L637.7621 19.9476 L638.9859 21.1713 L643.881 21.1713 L645.1049 19.9476 L645.1049 15.0524 L643.881 13.8287 L638.9859 13.8287 L637.7621 15.0524 L636.5385 15.0524 L635.3147 16.2763 L632.8671 16.2763 L631.6434 15.0524 L631.6434 13.8287 L629.1957 11.3811 L629.1957 10.1574 L627.9719 10.1574 L626.7483 8.9336 L625.5245 8.9336 L624.3007 7.7098 L620.6293 7.7098 L619.4055 8.9336 L618.1818 8.9336 L616.958 10.1574 L615.7343 10.1574 L614.5105 11.3811 L614.5105 12.6049 L613.2867 13.8287 Z" fill-rule="evenodd" clip-rule="evenodd" fill="white" stroke="none"/>
  <path d="M244.9301 16.2763 L244.9301 24.8427 L246.1538 24.8427 L246.1538 19.9476 L247.3776 18.7238 L253.4965 18.7238 L258.3916 21.1713 L259.6153 18.7238 L282.8671 18.7238 L284.0909 19.9476 L287.7622 18.7238 L296.3286 18.7238 L301.2237 26.0664 L306.1188 28.5141 L313.4615 27.2902 L319.5804 32.1853 L323.2517 33.4091 L330.5944 33.4091 L336.7133 30.9615 L340.3846 27.2902 L344.0559 18.7238 L411.3636 18.7238 L412.5874 19.9476 L416.2587 18.7238 L532.5175 18.7238 L533.7413 21.1713 L537.4125 18.7238 L604.7203 18.7238 L607.1678 21.1713 L608.3916 26.0664 L613.2867 30.9615 L618.1818 33.4091 L626.7483 33.4091 L631.6434 30.9615 L635.3147 27.2902 L643.881 28.5141 L648.7762 26.0664 L653.6713 18.7238 L662.2377 18.7238 L663.4615 19.9476 L667.1329 18.7238 L690.3846 18.7238 L691.6083 19.9476 L701.3986 18.7238 L702.6223 19.9476 L702.6223 23.6189 L705.0699 24.8427 L705.0699 17.5001 L703.8462 15.0524 L701.3986 16.2763 L652.4476 16.2763 L651.2238 13.8287 L650 13.8287 L650 19.9476 L646.3286 24.8427 L643.881 26.0664 L634.0909 24.8427 L626.7483 30.9615 L616.958 30.9615 L613.2867 28.5141 L608.3916 21.1713 L608.3916 16.2763 L552.0979 16.2763 L550.8741 15.0524 L552.0979 13.8287 L550.8741 11.3811 L541.0839 16.2763 L408.916 16.2763 L396.6783 10.1574 L396.6783 15.0524 L393.0069 17.5001 L389.3357 16.2763 L344.0559 16.2763 L341.6084 15.0524 L340.3846 22.3951 L334.2657 29.7378 L331.8181 30.9615 L322.0279 30.9615 L314.6853 24.8427 L304.8951 26.0664 L300 21.1713 L298.7762 16.2763 L293.8811 16.2763 L292.6573 15.0524 L290.2097 16.2763 L248.6013 16.2763 L246.1538 15.0524 L244.9301 16.2763 Z" fill-rule="evenodd" clip-rule="evenodd" fill="white" stroke="none"/></g></svg>