<svg xmlns="http://www.w3.org/2000/svg" viewBox="0 0 950 35" fill="none"><g transform="translate(-1051.6089,-38.7435) scale(3.2139)"><path d="M333.1169 14.5779 L333.1169 20.4221 L334.4156 20.4221 L334.4156 19.1234 L335.0649 18.4741 L335.0649 16.526 L334.4156 15.8766 L335.0649 14.5779 L335.0649 13.2792 L337.6623 10.6818 L337.6623 10.0325 L340.2597 7.4351 L341.5584 6.7857 L342.2078 5.487 L343.5065 4.8377 L344.8052 4.8377 L345.4545 5.487 L350.6494 5.487 L351.9481 6.1364 L353.2467 7.4351 L353.2467 8.0844 L355.8442 9.3831 L358.4416 11.9805 L358.4416 13.9286 L360.3896 16.526 L361.039 19.7727 L361.6883 20.4221 L362.987 20.4221 L362.987 17.1754 L362.3377 16.526 L361.6883 11.9805 L359.7403 9.3831 L359.0909 7.4351 L357.1429 5.487 L355.8442 4.8377 L354.5455 4.8377 L353.2467 3.539 L349.3507 1.5909 L347.4026 1.5909 L344.8052 2.8896 L340.2597 3.539 L338.961 4.8377 L338.3117 4.8377 L337.6623 6.7857 L336.3636 8.0844 L334.4156 11.9805 L334.4156 13.9286 L333.1169 14.5779 Z" fill-rule="evenodd" clip-rule="evenodd" fill="white" stroke="none"/>
  <path d="M397.4026 20.4221 L397.4026 15.8766 L396.7532 15.2273 L396.7532 13.2792 L394.8052 9.3831 L393.5065 8.0844 L393.5065 7.4351 L390.2597 4.1883 L386.3636 2.2403 L384.4156 2.2403 L383.7662 1.5909 L379.8701 1.5909 L379.2208 2.2403 L375.974 2.8896 L374.6753 3.539 L370.1298 8.0844 L368.8312 10.6818 L368.8312 11.9805 L368.1818 12.6299 L368.1818 15.2273 L367.5325 15.8766 L367.5325 19.7727 L363.6364 23.6688 L362.3377 23.6688 L361.6883 24.3182 L359.7403 24.3182 L359.0909 23.6688 L357.7922 23.6688 L355.1948 21.7208 L355.1948 21.0714 L356.4935 20.4221 L355.8442 15.8766 L354.5455 14.5779 L353.2467 11.3312 L350.6494 9.3831 L348.052 9.3831 L347.4026 8.7338 L346.1039 9.3831 L341.5584 9.3831 L338.3117 12.6299 L337.6623 13.9286 L337.6623 15.8766 L338.3117 15.8766 L338.961 14.5779 L342.2078 11.3312 L343.5065 11.3312 L344.8052 10.0325 L347.4026 10.0325 L348.7013 11.3312 L352.5974 13.2792 L353.8961 14.5779 L353.8961 16.526 L355.1948 19.1234 L355.1948 20.4221 L354.5455 21.0714 L353.2467 19.7727 L351.9481 17.1754 L350.6494 16.526 L350.6494 19.1234 L351.2987 19.7727 L351.2987 21.0714 L353.2467 23.0195 L353.2467 23.6688 L355.8442 25.6169 L357.1429 25.6169 L357.7922 26.2662 L362.987 26.2662 L365.5844 24.9675 L368.8312 21.0714 L368.8312 19.7727 L369.4805 19.1234 L369.4805 15.8766 L372.7273 9.3831 L374.6753 7.4351 L378.5714 5.487 L383.7662 5.487 L387.6623 7.4351 L392.8571 12.6299 L395.4545 17.8247 L395.4545 19.7727 L396.1039 20.4221 L397.4026 20.4221 Z" fill-rule="evenodd" clip-rule="evenodd" fill="white" stroke="none"/>
  <path d="M431.8182 20.4221 L431.8182 15.2273 L429.2208 8.7338 L422.7273 2.8896 L418.8311 2.2403 L418.1818 1.5909 L414.9351 1.5909 L414.2857 2.2403 L410.3896 2.8896 L405.1948 7.4351 L402.5974 13.2792 L402.5974 16.526 L401.948 17.1754 L401.948 19.7727 L401.2987 21.0714 L399.3506 23.0195 L396.1039 24.3182 L392.2078 23.6688 L389.6104 21.0714 L390.9091 20.4221 L390.9091 17.1754 L388.961 12.6299 L384.4156 8.7338 L382.4675 8.7338 L381.8182 8.0844 L379.2208 8.0844 L378.5714 8.7338 L377.2727 8.7338 L373.3766 11.9805 L372.0779 13.9286 L372.0779 15.8766 L371.4286 16.526 L371.4286 22.3701 L370.7792 23.6688 L367.5325 27.5649 L362.987 29.513 L359.7403 29.513 L359.0909 28.8636 L355.8442 28.2143 L353.8961 26.9156 L348.7013 21.0714 L346.7532 15.2273 L346.1039 14.5779 L344.8052 14.5779 L344.8052 17.8247 L346.1039 19.1234 L346.1039 22.3701 L346.7532 23.0195 L346.7532 24.3182 L350 28.2143 L350 28.8636 L354.5455 32.1104 L358.4416 32.7597 L359.0909 33.4091 L364.9351 32.7597 L368.1818 30.8117 L372.0779 26.9156 L374.6753 20.4221 L374.6753 13.2792 L378.5714 10.6818 L381.8182 10.6818 L382.4675 11.3312 L383.7662 11.3312 L386.3636 13.9286 L385.7143 14.5779 L384.4156 14.5779 L384.4156 16.526 L385.0649 17.1754 L385.7143 20.4221 L389.6104 24.9675 L392.2078 26.2662 L397.4026 26.2662 L400 24.9675 L402.5974 22.3701 L403.8961 19.7727 L404.5454 14.5779 L406.4935 10.6818 L410.3896 6.7857 L412.987 5.487 L418.1818 5.487 L418.8311 6.1364 L420.1299 6.1364 L424.026 8.7338 L427.9221 13.2792 L429.2208 15.8766 L429.2208 17.1754 L430.5195 19.1234 L430.5195 20.4221 L431.8182 20.4221 Z" fill-rule="evenodd" clip-rule="evenodd" fill="white" stroke="none"/>
  <path d="M466.8831 17.1754 L466.2338 16.526 L466.2338 13.9286 L464.935 11.9805 L464.935 10.6818 L462.3376 6.7857 L458.4416 3.539 L453.8961 2.2403 L453.2467 1.5909 L449.3507 1.5909 L448.7013 2.2403 L446.7533 2.2403 L440.9091 6.1364 L440.9091 6.7857 L438.961 8.7338 L437.6623 13.2792 L437.013 13.9286 L437.013 19.1234 L436.3636 20.4221 L433.7662 23.0195 L431.1688 24.3182 L427.2727 23.6688 L424.6753 21.7208 L425.974 19.1234 L425.3247 18.4741 L425.3247 16.526 L424.026 13.2792 L420.1299 9.3831 L416.8831 8.0844 L411.6883 8.7338 L407.7922 11.9805 L406.4935 14.5779 L406.4935 16.526 L405.8441 17.1754 L405.8441 20.4221 L406.4935 21.7208 L405.1948 24.3182 L401.948 27.5649 L398.052 29.513 L394.1558 29.513 L393.5065 28.8636 L392.2078 28.8636 L387.013 25.6169 L383.7662 21.7208 L381.8182 17.8247 L381.1688 14.5779 L379.8701 13.9286 L379.2208 15.2273 L379.8701 16.526 L379.8701 20.4221 L382.4675 26.2662 L388.961 32.1104 L392.8571 32.7597 L393.5065 33.4091 L399.3506 32.7597 L405.8441 28.2143 L406.4935 26.2662 L407.7922 24.9675 L407.7922 23.6688 L409.0909 21.0714 L409.0909 13.9286 L412.987 10.6818 L416.2337 10.6818 L420.1299 12.6299 L420.1299 13.9286 L419.4805 14.5779 L419.4805 18.4741 L421.4285 22.3701 L424.026 24.9675 L426.6234 26.2662 L432.4675 26.2662 L433.7662 25.6169 L437.6623 21.7208 L438.3117 20.4221 L438.961 15.2273 L440.9091 10.6818 L444.8052 6.7857 L448.0519 5.487 L453.2467 5.487 L457.7922 8.0844 L462.987 13.9286 L464.2857 18.4741 L465.5844 20.4221 L466.8831 20.4221 L466.8831 17.1754 Z" fill-rule="evenodd" clip-rule="evenodd" fill="white" stroke="none"/>
  <path d="M501.2987 16.526 L500.6494 15.8766 L500.6494 13.9286 L498.7013 9.3831 L494.8052 4.8377 L490.2597 2.2403 L488.3117 2.2403 L487.6623 1.5909 L483.7662 1.5909 L483.1169 2.2403 L481.1688 2.2403 L478.5714 3.539 L474.026 8.0844 L471.4286 14.5779 L471.4286 19.7727 L467.5324 23.6688 L463.6364 24.3182 L460.3896 23.0195 L458.4416 21.0714 L459.0909 20.4221 L460.3896 20.4221 L460.3896 17.8247 L459.7402 17.1754 L459.0909 13.9286 L455.8442 10.0325 L453.2467 8.7338 L451.948 8.7338 L451.2987 8.0844 L448.7013 8.0844 L443.5065 10.6818 L440.9091 15.2273 L440.9091 17.1754 L440.2597 17.8247 L440.2597 19.7727 L440.9091 20.4221 L440.9091 22.3701 L440.2597 23.6688 L435.7143 28.2143 L432.4675 29.513 L428.5714 29.513 L424.026 27.5649 L418.8311 22.3701 L416.2337 17.1754 L416.2337 15.2273 L414.2857 13.9286 L414.2857 19.1234 L414.9351 19.7727 L414.9351 21.7208 L417.5325 26.9156 L422.7273 31.461 L425.3247 32.7597 L427.9221 32.7597 L428.5714 33.4091 L433.7662 32.7597 L437.6623 30.8117 L440.2597 28.2143 L443.5065 21.7208 L443.5065 18.4741 L444.1558 17.8247 L444.1558 15.2273 L443.5065 13.9286 L446.1039 11.3312 L447.4026 11.3312 L448.0519 10.6818 L451.2987 10.6818 L455.1948 13.2792 L453.8961 13.9286 L454.5454 19.7727 L456.4935 23.0195 L461.039 26.2662 L466.8831 26.2662 L469.4805 24.9675 L472.7273 20.4221 L472.7273 19.1234 L473.3766 18.4741 L473.3766 15.8766 L474.026 15.2273 L474.6753 11.9805 L478.5714 7.4351 L482.4675 5.487 L487.6623 5.487 L491.5585 7.4351 L496.7532 12.6299 L500 20.4221 L501.2987 20.4221 L501.2987 16.526 Z" fill-rule="evenodd" clip-rule="evenodd" fill="white" stroke="none"/>
  <path d="M535.7143 15.2273 L535.0649 14.5779 L533.7662 10.0325 L528.5714 4.1883 L524.6753 2.2403 L518.8311 1.5909 L518.1818 2.2403 L514.2857 2.8896 L509.0909 7.4351 L506.4935 12.6299 L506.4935 16.526 L505.8442 17.1754 L505.8442 19.7727 L505.1948 21.0714 L503.2467 23.0195 L500 24.3182 L496.1039 23.6688 L494.1558 21.7208 L494.8052 20.4221 L494.8052 17.8247 L494.1558 17.1754 L494.1558 15.2273 L492.8571 12.6299 L488.3117 8.7338 L486.3636 8.7338 L485.7143 8.0844 L483.1169 8.0844 L482.4675 8.7338 L481.1688 8.7338 L477.2727 11.9805 L475.3247 15.8766 L475.3247 22.3701 L472.078 26.9156 L466.8831 29.513 L463.6364 29.513 L462.987 28.8636 L459.7402 28.2143 L457.7922 26.9156 L453.2467 22.3701 L451.2987 18.4741 L450 13.9286 L448.7013 14.5779 L448.7013 18.4741 L449.3507 19.1234 L449.3507 21.0714 L450.6493 24.3182 L454.5454 29.513 L458.4416 32.1104 L462.3376 32.7597 L462.987 33.4091 L465.5844 33.4091 L466.2338 32.7597 L470.1298 32.1104 L475.3247 27.5649 L477.2727 24.3182 L477.2727 23.0195 L478.5714 20.4221 L478.5714 13.2792 L482.4675 10.6818 L485.7143 10.6818 L486.3636 11.3312 L487.6623 11.3312 L489.6104 13.2792 L488.3117 14.5779 L488.961 19.1234 L490.2597 21.7208 L493.5065 24.9675 L496.1039 26.2662 L501.2987 26.2662 L503.8961 24.9675 L505.8442 23.0195 L507.7922 19.7727 L507.7922 16.526 L508.4415 15.8766 L509.7403 11.3312 L514.2857 6.7857 L516.8831 5.487 L522.0779 5.487 L522.7273 6.1364 L524.026 6.1364 L527.9221 8.7338 L531.8181 13.2792 L533.7662 17.1754 L533.7662 19.1234 L534.4156 20.4221 L535.7143 20.4221 L535.7143 15.2273 Z" fill-rule="evenodd" clip-rule="evenodd" fill="white" stroke="none"/>
  <path d="M570.1299 13.9286 L569.4805 13.2792 L568.1818 13.2792 L566.8831 11.9805 L566.8831 8.0844 L565.5844 8.0844 L564.935 7.4351 L564.935 6.1364 L562.3376 3.539 L561.0389 2.8896 L559.7403 2.8896 L559.0909 2.2403 L557.7922 2.2403 L557.1428 1.5909 L553.2468 1.5909 L552.5974 2.2403 L550.6494 2.2403 L548.0519 3.539 L546.7532 4.8377 L546.1039 4.8377 L542.8571 8.7338 L542.2078 10.0325 L542.2078 11.3312 L541.5584 11.9805 L541.5584 13.2792 L540.9091 13.9286 L540.9091 18.4741 L540.2597 19.1234 L540.2597 20.4221 L537.6623 23.0195 L537.6623 23.6688 L538.961 24.3182 L542.2078 20.4221 L542.8571 14.5779 L544.8052 10.6818 L548.7013 6.7857 L550 6.1364 L551.2987 6.1364 L551.948 5.487 L557.1428 5.487 L559.7403 6.7857 L561.6883 8.7338 L562.3376 8.7338 L566.2337 13.2792 L568.1818 17.1754 L568.8312 20.4221 L570.1299 20.4221 L570.1299 13.9286 Z" fill-rule="evenodd" clip-rule="evenodd" fill="white" stroke="none"/>
  <path d="M605.1948 16.526 L604.5454 15.8766 L604.5454 13.9286 L603.8961 13.2792 L603.8961 11.9805 L602.5974 9.3831 L598.7013 4.8377 L598.052 4.8377 L596.7533 3.539 L594.1558 2.2403 L592.2078 2.2403 L591.5584 1.5909 L587.6623 1.5909 L587.013 2.2403 L585.0649 2.2403 L582.4675 3.539 L579.2208 6.1364 L579.2208 6.7857 L577.9221 8.0844 L576.6234 10.6818 L576.6234 11.9805 L575.3247 14.5779 L575.3247 19.1234 L574.6753 20.4221 L571.4285 23.6688 L570.1299 23.6688 L569.4805 24.3182 L567.5324 24.3182 L566.8831 23.6688 L565.5844 23.6688 L564.2857 23.0195 L562.987 21.7208 L562.987 21.0714 L564.2857 20.4221 L564.2857 18.4741 L563.6364 17.8247 L563.6364 15.8766 L561.6883 11.9805 L559.7403 11.3312 L558.4416 9.3831 L557.1428 8.7338 L555.8442 8.7338 L555.1948 8.0844 L552.5974 8.0844 L547.4026 10.6818 L547.4026 11.3312 L545.4545 13.2792 L544.1558 19.7727 L546.1039 19.7727 L546.7532 21.0714 L547.4026 21.0714 L547.4026 19.1234 L548.0519 18.4741 L548.0519 15.8766 L547.4026 15.2273 L547.4026 13.9286 L550 11.3312 L551.2987 10.6818 L555.1948 10.6818 L559.0909 12.6299 L559.0909 13.2792 L560.3896 14.5779 L560.3896 15.2273 L561.6883 16.526 L562.987 19.1234 L562.987 20.4221 L562.3376 21.0714 L561.0389 19.7727 L560.3896 19.7727 L558.4416 17.1754 L557.7922 17.1754 L558.4416 18.4741 L558.4416 19.7727 L560.3896 22.3701 L560.3896 23.0195 L561.6883 24.3182 L562.3376 24.3182 L564.935 26.2662 L570.7792 26.2662 L573.3766 24.3182 L574.026 24.3182 L576.6234 20.4221 L576.6234 19.1234 L577.2727 18.4741 L577.2727 15.8766 L577.9221 15.2273 L577.9221 13.2792 L579.8701 10.6818 L579.8701 10.0325 L582.4675 7.4351 L586.3636 5.487 L591.5584 5.487 L595.4545 7.4351 L600 11.9805 L600 12.6299 L601.2987 13.9286 L602.5974 16.526 L603.2468 19.7727 L603.8961 20.4221 L605.1948 20.4221 L605.1948 16.526 Z" fill-rule="evenodd" clip-rule="evenodd" fill="white" stroke="none"/>
  <path d="M536.3636 24.9675 L535.7143 24.3182 L533.1169 24.3182 L532.4675 23.6688 L531.1688 23.6688 L529.8701 23.0195 L527.9221 21.0714 L529.2208 20.4221 L529.2208 16.526 L528.5714 15.8766 L528.5714 14.5779 L527.9221 13.2792 L524.026 9.3831 L522.7273 8.7338 L521.4286 8.7338 L520.7792 8.0844 L517.5324 8.0844 L516.8831 8.7338 L515.5844 8.7338 L511.6883 11.9805 L510.3896 14.5779 L510.3896 16.526 L509.7403 17.1754 L509.7403 20.4221 L510.3896 21.0714 L509.7403 23.0195 L505.8442 27.5649 L503.2467 28.8636 L501.948 28.8636 L501.2987 29.513 L498.0519 29.513 L491.5585 26.2662 L488.961 23.6688 L488.961 23.0195 L486.3636 19.7727 L486.3636 18.4741 L485.7143 17.8247 L485.0649 14.5779 L484.4156 13.9286 L483.1169 14.5779 L483.1169 17.8247 L483.7662 18.4741 L483.7662 20.4221 L484.4156 21.0714 L484.4156 22.3701 L486.3636 26.2662 L490.9091 30.8117 L491.5585 30.8117 L492.8571 32.1104 L494.1558 32.1104 L494.8052 32.7597 L496.7532 32.7597 L497.4026 33.4091 L503.2467 32.7597 L505.8442 30.8117 L506.4935 30.8117 L510.3896 26.9156 L512.3376 23.0195 L512.3376 21.7208 L512.987 21.0714 L512.987 13.2792 L514.2857 11.9805 L516.8831 10.6818 L520.1299 10.6818 L520.7792 11.3312 L522.0779 11.3312 L524.6753 13.2792 L523.3766 13.9286 L523.3766 18.4741 L525.3247 22.3701 L527.9221 24.9675 L529.2208 25.6169 L530.5195 25.6169 L531.1688 26.2662 L535.7143 26.2662 L536.3636 24.9675 Z" fill-rule="evenodd" clip-rule="evenodd" fill="white" stroke="none"/>
  <path d="M611.6883 14.5779 L611.039 14.5779 L610.3896 15.8766 L610.3896 18.4741 L607.7922 22.3701 L603.8961 24.3182 L602.5974 24.3182 L601.9481 23.6688 L600 23.6688 L598.052 21.7208 L598.7013 20.4221 L598.7013 17.1754 L598.052 16.526 L598.052 15.2273 L596.7533 12.6299 L592.2078 8.7338 L590.2597 8.7338 L589.6104 8.0844 L587.013 8.0844 L586.3636 8.7338 L585.0649 8.7338 L583.7662 9.3831 L580.5195 12.6299 L579.8701 13.9286 L579.8701 15.2273 L579.2208 15.8766 L579.2208 22.3701 L578.5714 23.6688 L576.6234 25.6169 L576.6234 26.2662 L572.7273 28.8636 L571.4285 28.8636 L570.7792 29.513 L567.5324 29.513 L566.8831 28.8636 L564.935 28.8636 L562.3376 26.9156 L561.6883 26.9156 L557.7922 23.0195 L557.7922 22.3701 L557.1428 22.3701 L555.1948 24.3182 L555.1948 25.6169 L559.0909 30.1624 L561.0389 30.8117 L562.3376 32.1104 L563.6364 32.1104 L564.2857 32.7597 L566.2337 32.7597 L566.8831 33.4091 L569.4805 33.4091 L570.1299 32.7597 L572.0779 32.7597 L572.7273 32.1104 L574.026 32.1104 L575.3247 30.8117 L575.974 30.8117 L579.2208 27.5649 L579.2208 26.9156 L581.1688 24.3182 L581.1688 23.0195 L581.8182 22.3701 L581.8182 20.4221 L582.4675 19.7727 L582.4675 13.2792 L584.4155 11.3312 L585.7142 11.3312 L586.3636 10.6818 L589.6104 10.6818 L590.2597 11.3312 L591.5584 11.3312 L593.5065 13.2792 L592.2078 14.5779 L592.2078 17.1754 L592.8571 17.8247 L592.8571 19.1234 L594.1558 21.7208 L598.052 25.6169 L599.3507 26.2662 L605.1948 26.2662 L607.7922 24.9675 L611.039 21.0714 L611.039 19.1234 L611.6883 18.4741 L611.6883 14.5779 Z" fill-rule="evenodd" clip-rule="evenodd" fill="white" stroke="none"/>
  <path d="M518.1818 13.9286 L518.1818 19.7727 L520.1299 23.6688 L520.1299 24.9675 L524.6753 30.1624 L525.3247 30.1624 L526.6234 31.461 L529.2208 32.7597 L530.5195 32.7597 L530.5195 31.461 L529.8701 30.8117 L529.8701 29.513 L529.2208 28.2143 L527.9221 27.5649 L522.7273 22.3701 L522.7273 21.7208 L520.7792 19.1234 L520.7792 17.8247 L520.1299 17.1754 L520.1299 15.8766 L519.4805 14.5779 L518.1818 13.9286 Z" fill-rule="evenodd" clip-rule="evenodd" fill="white" stroke="none"/>
  <path d="M553.2468 13.9286 L552.5974 15.2273 L553.2468 15.8766 L554.5454 15.8766 L553.8961 13.9286 L553.2468 13.9286 Z" fill-rule="evenodd" clip-rule="evenodd" fill="white" stroke="none"/>
  <path d="M587.013 14.5779 L587.013 17.8247 L587.6623 18.4741 L587.6623 20.4221 L588.3117 21.0714 L588.3117 22.3701 L590.2597 26.2662 L594.8051 30.8117 L595.4545 30.8117 L596.7533 32.1104 L598.052 32.1104 L598.7013 32.7597 L600.6493 32.7597 L601.2987 33.4091 L607.1429 32.7597 L609.7402 30.8117 L610.3896 30.8117 L614.2857 26.9156 L616.2338 23.0195 L616.2338 21.7208 L616.8831 21.0714 L616.8831 14.5779 L615.5844 14.5779 L615.5844 16.526 L614.935 17.1754 L614.935 19.7727 L612.3377 24.9675 L609.7402 27.5649 L607.1429 28.8636 L605.8442 28.8636 L605.1948 29.513 L601.9481 29.513 L595.4545 26.2662 L592.2078 23.0195 L589.6104 17.8247 L588.961 14.5779 L588.3117 13.9286 L587.013 14.5779 Z" fill-rule="evenodd" clip-rule="evenodd" fill="white" stroke="none"/>
  <path d="M552.5974 17.8247 L553.2468 19.1234 L553.2468 21.7208 L553.8961 22.3701 L555.1948 22.3701 L555.8442 21.0714 L554.5454 18.4741 L553.8961 17.8247 L552.5974 17.8247 Z" fill-rule="evenodd" clip-rule="evenodd" fill="white" stroke="none"/>
  <path d="M544.1558 22.3701 L543.5065 24.3182 L544.8052 25.6169 L545.4545 25.6169 L545.4545 22.3701 L544.1558 22.3701 Z" fill-rule="evenodd" clip-rule="evenodd" fill="white" stroke="none"/>
  <path d="M541.5584 26.2662 L540.9091 26.9156 L540.9091 28.2143 L542.2078 29.513 L542.8571 29.513 L544.1558 28.2143 L544.1558 27.5649 L542.8571 26.2662 L541.5584 26.2662 Z" fill-rule="evenodd" clip-rule="evenodd" fill="white" stroke="none"/>
  <path d="M536.3636 28.8636 L536.3636 30.1624 L537.6623 31.461 L539.6104 32.1104 L539.6104 29.513 L538.961 28.8636 L536.3636 28.8636 Z" fill-rule="evenodd" clip-rule="evenodd" fill="white" stroke="none"/>
  <path d="M531.8181 29.513 L532.4675 30.8117 L532.4675 32.1104 L533.7662 32.7597 L534.4156 32.1104 L534.4156 30.8117 L531.8181 29.513 Z" fill-rule="evenodd" clip-rule="evenodd" fill="white" stroke="none"/></g></svg>