<svg xmlns="http://www.w3.org/2000/svg" viewBox="0 0 950 35" fill="none"><g transform="translate(-2665.8511,-100.2418) scale(6.6123)"><path d="M 442.7962 3.9755 C 476.181 3.9755 509.5657 3.9755 543.9622 3.9755 C 543.9622 13.5948 543.9622 23.2142 543.9622 33.125 C 510.5774 33.125 477.1926 33.125 442.7962 33.125 C 442.7962 23.5057 442.7962 13.8863 442.7962 3.9755 Z" fill-rule="evenodd" clip-rule="evenodd" fill="#FAFAFA" stroke="none"/>
  <path d="M 442.7962 3.9755 C 448.7902 3.7682 453.9931 4.0251 459.7822 5.7438 C 460.4336 5.9296 461.085 6.1155 461.756 6.307 C 468.1102 8.2188 473.8823 11.0393 479.6618 14.2636 C 479.6618 14.8294 479.6618 15.3952 479.6618 15.9782 C 478.2472 15.6953 478.2472 15.6953 471.0884 14.2636 C 471.4597 14.9244 471.8311 15.5853 472.2136 16.2662 C 472.6961 17.1346 473.1783 18.0031 473.6604 18.8717 C 473.9058 19.3072 474.1511 19.7426 474.4039 20.1912 C 476.2324 23.5 476.2324 23.5 476.2324 25.409 C 472.0219 25.4742 467.8114 25.5192 463.6005 25.5502 C 462.1685 25.5632 460.7365 25.5807 459.3046 25.603 C 457.2445 25.6342 455.1848 25.6488 453.1245 25.6601 C 452.4858 25.6734 451.8471 25.6867 451.1891 25.7004 C 448.4274 25.7012 446.6151 25.5974 444.1006 24.3808 C 442.3579 22.3181 442.3994 21.1385 442.4613 18.4598 C 442.4669 18.0385 442.4669 18.0385 442.4948 15.9062 C 442.5235 15.0193 442.5525 14.1324 442.5819 13.2455 C 442.5991 12.3485 442.6147 11.4516 442.6288 10.5546 C 442.6692 8.3607 442.7256 6.1685 442.7962 3.9755 Z" fill-rule="evenodd" clip-rule="evenodd" fill="#2B2B2B" stroke="none"/>
  <path d="M 442.7962 3.9755 C 443.1267 3.9738 443.1267 3.9738 444.7989 3.9654 C 445.4266 3.9665 446.0544 3.9677 446.7011 3.9688 C 447.269 3.9698 447.837 3.9707 448.4221 3.9717 C 449.7621 4.0827 449.7621 4.0827 450.6194 4.94 C 451.5397 10.0088 449.6899 14.3285 447.1901 18.6574 C 443.2362 24.0637 443.2362 24.0637 440.3314 25.5161 C 438.9535 25.6192 438.9535 25.6192 437.3035 25.6135 C 436.6857 25.6134 436.0679 25.6133 435.4314 25.6133 C 434.7651 25.6088 434.0988 25.6044 433.4124 25.5998 C 433.0711 25.5992 433.0711 25.5992 431.3438 25.5962 C 429.1599 25.5914 426.976 25.5806 424.7921 25.5697 C 423.313 25.5654 421.8339 25.5615 420.3547 25.558 C 416.7255 25.5485 413.0964 25.5342 409.4672 25.5161 C 410.1634 23.9799 410.86 22.4438 411.557 20.9079 C 411.7542 20.4725 411.9515 20.0371 412.1547 19.5884 C 412.9502 17.8361 413.7505 16.0922 414.6112 14.3707 C 413.1966 14.7951 413.1966 14.7951 406.0378 16.9427 C 406.0378 16.3769 406.0378 15.811 406.0378 15.2281 C 410.9307 10.817 419.0643 6.8338 425.6495 6.5475 C 426.2507 6.5829 426.8519 6.6182 427.4713 6.6547 C 427.4713 7.5034 427.4713 8.3522 427.4713 9.2267 C 431.1493 9.5096 434.8273 9.7925 438.6167 10.084 C 438.6167 10.3669 438.6167 10.6499 438.6167 10.9414 C 437.2021 11.2243 435.7875 11.5072 434.33 11.7987 C 434.5245 12.5591 434.719 13.3194 434.9194 14.1028 C 435.2855 16.2537 435.1845 17.4204 434.0621 19.3004 C 431.4185 22.8252 431.4185 22.8252 429.3836 23.2924 C 424.7665 23.5043 424.7665 23.5043 422.6689 21.8825 C 420.8915 19.7882 419.6548 17.881 418.8979 15.2281 C 418.1786 16.1889 417.4652 17.1543 416.7546 18.1216 C 416.3567 18.6587 415.9588 19.1958 415.5489 19.7492 C 414.6112 21.2294 414.6112 21.2294 414.6112 22.9441 C 417.3796 22.9941 420.1479 23.0244 422.9167 23.0513 C 423.6986 23.0656 424.4805 23.08 425.2861 23.0948 C 433.7339 23.1562 433.7339 23.1562 437.1532 20.3051 C 439.2239 17.5923 440.2703 15.0897 441.1887 11.7987 C 440.6229 11.5158 440.057 11.2329 439.474 10.9414 C 439.474 10.6584 439.474 10.3755 439.474 10.084 C 437.7765 9.8011 436.079 9.5182 434.33 9.2267 C 434.33 8.6608 434.33 8.095 434.33 7.512 C 436.5934 7.2291 438.8568 6.9462 441.1887 6.6547 C 438.6424 6.6547 436.0961 6.6547 433.4727 6.6547 C 433.4727 7.2205 433.4727 7.7864 433.4727 8.3694 C 431.7751 8.3694 430.0776 8.3694 428.3286 8.3694 C 428.6116 7.2377 428.8945 6.106 429.186 4.94 C 433.7606 4.1755 438.1623 3.9515 442.7962 3.9755 Z" fill-rule="evenodd" clip-rule="evenodd" fill="#0E0E0E" stroke="none"/>
  <path d="M 442.7962 3.9755 C 442.7962 4.8243 442.7962 5.673 442.7962 6.5475 C 446.4742 6.8304 450.1522 7.1133 453.9416 7.4048 C 453.9416 7.6878 453.9416 7.9707 453.9416 8.2622 C 452.527 8.5451 451.1124 8.828 449.6549 9.1195 C 449.8494 9.8799 450.0439 10.6402 450.2444 11.4236 C 450.6105 13.5745 450.5094 14.7413 449.387 16.6212 C 446.7434 20.146 446.7434 20.146 444.7085 20.6132 C 440.0914 20.8251 440.0914 20.8251 437.9938 19.2033 C 436.2165 17.109 434.9797 15.2018 434.2228 12.5489 C 433.5155 12.9733 433.5155 12.9733 429.9361 15.1209 C 429.9361 13.9892 429.9361 12.8575 429.9361 11.6915 C 428.5215 12.1159 428.5215 12.1159 421.3628 14.2636 C 421.3628 13.6977 421.3628 13.1319 421.3628 12.5489 C 426.7275 7.7125 435.5645 3.5501 442.7962 3.9755 Z" fill-rule="evenodd" clip-rule="evenodd" fill="#656565" stroke="none"/>
  <path d="M 442.7962 3.9755 C 445.6254 4.2584 448.4547 4.5413 451.3696 4.8328 C 452.213 7.3631 452.2263 8.6661 452.0662 11.2629 C 452.0486 14.8756 452.0486 14.8756 453.513 16.8892 C 456.5609 18.0321 459.3052 18.3076 462.515 17.6929 C 465.0226 15.5089 465.496 13.2053 465.9444 9.9769 C 468.5845 10.6653 469.6538 11.8515 471.2726 13.9688 C 472.1921 15.5425 472.2094 16.7703 471.9457 18.5502 C 468.9605 20.0429 465.5897 19.6023 462.3007 19.6219 C 461.5746 19.6396 460.8485 19.6573 460.1004 19.6755 C 455.8312 19.7021 452.2635 19.5341 448.7976 16.8356 C 447.5451 15.2716 447.5451 15.2716 446.7614 13.6741 C 446.4895 13.1403 446.2177 12.6065 445.9376 12.0566 C 445.7497 11.6532 445.5618 11.2498 445.3682 10.8342 C 445.0853 11.4 444.8024 11.9659 444.5109 12.5489 C 447.4485 17.7677 447.4485 17.7677 450.2979 18.8717 C 450.6162 18.9602 450.6162 18.9602 452.2269 19.4076 C 449.9354 20.2563 448.9243 20.3041 446.5471 19.5683 C 444.5109 18.5502 444.5109 18.5502 442.7962 16.8356 C 442.6016 15.4604 442.6016 15.4604 442.6288 13.855 C 442.6343 13.2803 442.6398 12.7056 442.6455 12.1135 C 442.6599 11.5145 442.6743 10.9155 442.6891 10.2984 C 442.6968 9.6927 442.7045 9.0871 442.7125 8.4631 C 442.7327 6.9671 442.7635 5.4713 442.7962 3.9755 Z" fill-rule="evenodd" clip-rule="evenodd" fill="#F6F6F6" stroke="none"/>
  <path d="M 442.7962 3.9755 C 443.7864 4.3999 443.7864 4.3999 448.7976 6.5475 C 448.7976 5.9817 448.7976 5.4158 448.7976 4.8328 C 451.1508 3.84 453.2852 3.889 455.8171 3.9219 C 456.5896 3.9296 457.3621 3.9374 458.158 3.9453 C 458.747 3.9553 459.3361 3.9652 459.943 3.9755 C 457.4571 5.3976 455.728 5.8926 452.8699 5.7973 C 452.2643 5.7819 451.6587 5.7664 451.0347 5.7504 C 450.5794 5.7306 450.1241 5.7107 449.6549 5.6902 C 449.6549 6.256 449.6549 6.8219 449.6549 7.4048 C 450.0616 7.3872 450.0616 7.3872 452.1198 7.2977 C 453.5063 7.2374 453.5063 7.2374 454.799 7.4048 C 456.5136 9.1195 456.5136 9.1195 456.6744 10.3888 C 456.1688 14.9917 454.0738 18.1696 450.5123 21.1223 C 447.9673 21.9398 445.6598 22.0804 442.9972 22.0633 C 442.2346 22.0606 441.472 22.0578 440.6864 22.055 C 439.8973 22.0478 439.1082 22.0406 438.2952 22.0332 C 437.4928 22.0293 436.6905 22.0254 435.8638 22.0215 C 433.8879 22.0114 431.912 21.9973 429.9361 21.9796 C 429.4424 20.8031 429.4424 20.8031 429.0788 19.4076 C 430.1203 17.6561 430.1203 17.6561 431.5972 15.8175 C 432.0824 15.2041 432.5676 14.5907 433.0674 13.9588 C 433.2581 13.7262 433.2581 13.7262 434.2228 12.5489 C 434.7887 12.8318 435.3545 13.1147 435.9375 13.4062 C 436.0613 14.0782 436.1851 14.7501 436.3126 15.4424 C 436.7949 17.6929 436.7949 17.6929 437.7058 19.2468 C 440.4053 20.9014 443.1512 20.727 446.2256 20.2649 C 447.8867 19.3004 447.8867 19.3004 448.7976 17.6929 C 449.7064 14.209 449.7313 11.7895 448.7976 8.2622 C 446.2513 8.2622 443.705 8.2622 441.0815 8.2622 C 441.0815 7.4134 441.0815 6.5647 441.0815 5.6902 C 441.6474 5.6902 442.2132 5.6902 442.7962 5.6902 C 442.7962 5.1243 442.7962 4.5585 442.7962 3.9755 Z" fill-rule="evenodd" clip-rule="evenodd" fill="#DADADA" stroke="none"/>
  <path d="M 442.7962 3.9755 C 448.4938 3.787 453.6069 3.9319 459.0857 5.6902 C 459.0857 6.256 459.0857 6.8219 459.0857 7.4048 C 462.1978 8.2536 465.3099 9.1024 468.5164 9.9769 C 468.5164 11.3915 468.5164 12.8061 468.5164 14.2636 C 468.0694 14.0334 467.6224 13.8033 467.1619 13.5661 C 461.9308 11.038 457.0586 10.0132 451.316 9.3339 C 450.9041 9.2803 450.9041 9.2803 448.8194 9.009 C 446.8127 8.7494 444.8054 8.5007 442.7962 8.2622 C 442.7962 6.8476 442.7962 5.433 442.7962 3.9755 Z" fill-rule="evenodd" clip-rule="evenodd" fill="#424242" stroke="none"/>
  <path d="M 442.7962 3.9755 C 444.1585 5.3378 443.7993 6.7601 443.8143 8.6373 C 443.8265 9.3258 443.8386 10.0143 443.8512 10.7237 C 443.6536 12.5489 443.6536 12.5489 441.9389 14.2636 C 440.3314 14.4913 440.3314 14.4913 438.5095 14.4779 C 437.9083 14.4823 437.3071 14.4867 436.6877 14.4913 C 435.0802 14.2636 435.0802 14.2636 433.3655 12.5489 C 433.198 10.8811 433.198 10.8811 433.2583 9.0124 C 433.2738 8.3913 433.2893 7.7702 433.3052 7.1302 C 433.3251 6.655 433.345 6.1798 433.3655 5.6902 C 436.7048 4.1187 439.1008 3.7235 442.7962 3.9755 Z" fill-rule="evenodd" clip-rule="evenodd" fill="#F0F0F0" stroke="none"/>
  <path d="M 442.7962 3.9755 C 445.8111 4.094 447.5146 4.8528 449.8157 6.8154 C 450.2979 8.9052 450.2979 8.9052 449.8157 11.1021 C 448.4655 13.0236 447.477 14.3008 445.1037 14.8027 C 442.4551 14.9018 440.6216 14.6084 438.6703 12.8168 C 438.3588 11.2093 438.3588 11.2093 438.4024 9.3874 C 438.404 9.0868 438.404 9.0868 438.4124 7.5656 C 438.8702 4.712 440.0619 4.2793 442.7962 3.9755 Z" fill-rule="evenodd" clip-rule="evenodd" fill="#E7E7E7" stroke="none"/>
  <path d="M 442.7962 3.9755 C 445.2148 5.1848 445.6931 7.0023 446.8317 9.3841 C 448.3646 11.3893 449.8468 11.7605 452.2269 12.5489 C 454.3663 12.7435 454.3663 12.7435 456.584 12.7163 C 457.3824 12.7108 458.1809 12.7053 459.0036 12.6996 C 459.8264 12.6852 460.6492 12.6708 461.4969 12.656 C 462.3363 12.6483 463.1757 12.6406 464.0405 12.6326 C 466.1042 12.6125 468.1675 12.5843 470.2311 12.5489 C 470.2311 11.7001 470.2311 10.8513 470.2311 9.9769 C 471.8921 10.6199 471.8921 10.6199 473.6604 11.6915 C 474.1996 13.4732 474.1996 13.4732 474.5177 15.1209 C 470.3072 15.1862 466.0968 15.2312 461.8858 15.2622 C 460.4538 15.2751 459.0218 15.2926 457.5899 15.3149 C 455.5298 15.3462 453.4701 15.3607 451.4098 15.3721 C 450.7711 15.3853 450.1325 15.3986 449.4745 15.4123 C 445.8686 15.4135 443.7772 15.2169 441.0815 12.5489 C 441.3645 11.983 441.6474 11.4172 441.9389 10.8342 C 442.5047 11.4 443.0706 11.9659 443.6536 12.5489 C 444.5023 12.5489 445.3511 12.5489 446.2256 12.5489 C 445.9062 12.1455 445.5868 11.7421 445.2577 11.3265 C 444.8521 10.7927 444.4465 10.2589 444.0286 9.7089 C 443.6208 9.1818 443.213 8.6546 442.7929 8.1115 C 441.9389 6.5475 441.9389 6.5475 442.2369 5.0639 C 442.4215 4.7047 442.6061 4.3456 442.7962 3.9755 Z" fill-rule="evenodd" clip-rule="evenodd" fill="#131313" stroke="none"/>
  <path d="M 442.7962 3.9755 C 441.7139 9.9039 439.6622 15.822 435.2074 20.0606 C 433.0035 21.3309 431.5825 21.3309 429.0788 21.1223 C 429.4203 20.6968 429.7618 20.2713 430.1136 19.8329 C 432.9916 16.1427 435.2219 12.6776 436.7949 8.2622 C 436.0875 7.9793 436.0875 7.9793 432.5082 6.5475 C 432.5082 6.2646 432.5082 5.9817 432.5082 5.6902 C 433.7398 5.401 434.9724 5.116 436.2054 4.8328 C 436.8917 4.6737 437.578 4.5145 438.2851 4.3506 C 440.2242 3.9755 440.2242 3.9755 442.7962 3.9755 Z" fill-rule="evenodd" clip-rule="evenodd" fill="#F2F2F2" stroke="none"/>
  <path d="M 442.7962 3.9755 C 446.7571 3.9755 450.718 3.9755 454.799 3.9755 C 454.799 4.5413 454.799 5.1072 454.799 5.6902 C 455.3648 5.4072 455.9306 5.1243 456.5136 4.8328 C 457.6911 4.7737 458.8713 4.7602 460.0502 4.7792 C 460.3607 4.7831 460.3607 4.7831 461.9323 4.8027 C 462.1699 4.8077 462.1699 4.8077 463.3723 4.8328 C 463.3723 5.9645 463.3723 7.0962 463.3723 8.2622 C 456.5822 8.2622 449.7921 8.2622 442.7962 8.2622 C 442.7962 6.8476 442.7962 5.433 442.7962 3.9755 Z" fill-rule="evenodd" clip-rule="evenodd" fill="#252525" stroke="none"/>
  <path d="M 442.7962 3.9755 C 443.4521 3.9894 443.4521 3.9894 446.7313 4.0592 C 446.7313 4.908 446.7313 5.7567 446.7313 6.6312 C 447.0462 6.2102 447.3612 5.7891 447.6857 5.3553 C 449.9144 3.5696 451.8866 3.7734 454.6081 3.8985 C 454.8476 3.9043 454.8476 3.9043 456.0599 3.9336 C 457.2374 3.9638 458.4145 4.01 459.5913 4.0592 C 459.5913 5.4738 459.5913 6.8884 459.5913 8.3459 C 453.65 8.3459 447.7086 8.3459 441.5872 8.3459 C 441.3043 7.2142 441.0214 6.0825 440.7299 4.9166 C 441.5872 4.0592 441.5872 4.0592 442.7962 3.9755 Z" fill-rule="evenodd" clip-rule="evenodd" fill="#050505" stroke="none"/>
  <path d="M 442.7962 3.9755 C 443.645 4.2584 444.4938 4.5413 445.3682 4.8328 C 444.8024 6.8133 444.2366 8.7937 443.6536 10.8342 C 444.1935 10.8557 444.7334 10.8772 445.2897 10.8993 C 447.3207 10.9816 449.3516 11.0666 451.3824 11.1534 C 452.2561 11.1902 453.1299 11.226 454.0038 11.2606 C 458.8967 11.4551 463.684 11.7423 468.5164 12.5489 C 468.5164 12.8318 468.5164 13.1147 468.5164 13.4062 C 458.6141 13.4062 448.7119 13.4062 438.5095 13.4062 C 439.9241 10.2941 441.3387 7.1819 442.7962 3.9755 Z" fill-rule="evenodd" clip-rule="evenodd" fill="#070707" stroke="none"/>
  <path d="M 442.7962 3.9755 C 444.886 4.297 444.886 4.297 447.0829 4.8328 C 447.3658 5.3987 447.6488 5.9645 447.9403 6.5475 C 446.4005 11.0768 443.8358 14.6142 440.2242 17.6929 C 444.6171 17.5907 444.6171 17.5907 446.604 15.5931 C 448.6772 12.7401 450.2555 9.89 451.3696 6.5475 C 451.9355 7.1133 452.5013 7.6792 453.0843 8.2622 C 451.0915 13.139 448.6926 18.0338 443.6536 20.2649 C 440.6248 20.1765 437.9453 19.5072 435.0802 18.5502 C 435.5996 18.316 436.119 18.0817 436.6542 17.8403 C 440.2668 15.884 442.6271 12.6721 443.9215 8.798 C 444.116 8.0554 444.3105 7.3127 444.5109 6.5475 C 443.9451 6.2646 443.3792 5.9817 442.7962 5.6902 C 442.7962 5.1243 442.7962 4.5585 442.7962 3.9755 Z" fill-rule="evenodd" clip-rule="evenodd" fill="#383838" stroke="none"/>
  <path d="M 442.7962 3.9755 C 442.7962 4.2584 442.7962 4.5413 442.7962 4.8328 C 441.3816 5.1158 439.967 5.3987 438.5095 5.6902 C 438.704 6.4505 438.8985 7.2109 439.0989 7.9943 C 439.4651 10.1451 439.364 11.3119 438.2416 13.1919 C 435.598 16.7167 435.598 16.7167 433.5631 17.1839 C 430.9433 17.3041 429.0105 17.3702 426.7881 15.8644 C 425.1329 14.0883 423.9796 12.6871 423.8678 10.2046 C 424.0955 8.798 424.0955 8.798 424.7921 6.5475 C 425.6409 6.5475 426.4896 6.5475 427.3641 6.5475 C 427.3542 7.0327 427.3442 7.5178 427.334 8.0177 C 427.3263 8.6465 427.3185 9.2754 427.3105 9.9233 C 427.3006 10.5499 427.2907 11.1765 427.2804 11.8221 C 427.3641 13.4062 427.3641 13.4062 428.2215 14.2636 C 429.7754 14.3774 429.7754 14.3774 431.6508 14.3707 C 432.2697 14.3729 432.8886 14.3751 433.5262 14.3774 C 435.0802 14.2636 435.0802 14.2636 435.9375 13.4062 C 435.9991 12.1037 436.0095 10.7985 435.9911 9.4946 C 435.9834 8.7862 435.9756 8.0778 435.9677 7.3479 C 435.9577 6.8009 435.9478 6.2538 435.9375 5.6902 C 435.0887 5.5487 435.0887 5.5487 430.7935 4.8328 C 430.7935 4.5499 430.7935 4.267 430.7935 3.9755 C 435.011 3.0265 438.545 3.2742 442.7962 3.9755 Z" fill-rule="evenodd" clip-rule="evenodd" fill="#262626" stroke="none"/>
  <path d="M 442.7962 3.9755 C 445.4363 4.6639 446.5056 5.8501 448.1244 7.9675 C 449.0439 9.5411 449.0613 10.7689 448.7976 12.5489 C 446.7841 13.5556 445.5931 13.5049 443.3522 13.4899 C 442.6227 13.4872 441.8933 13.4844 441.1418 13.4816 C 440.3793 13.4744 439.6167 13.4672 438.831 13.4598 C 438.4464 13.4579 438.4464 13.4579 436.5001 13.4481 C 434.5979 13.438 432.6957 13.4238 430.7935 13.4062 C 432.5082 11.6915 432.5082 11.6915 434.0855 11.6447 C 434.679 11.6955 435.2725 11.7463 435.8839 11.7987 C 439.1554 11.8757 439.1554 11.8757 441.028 10.2448 C 441.9922 8.1462 442.4791 6.259 442.7962 3.9755 Z" fill-rule="evenodd" clip-rule="evenodd" fill="#F0F0F0" stroke="none"/>
  <path d="M 442.7962 3.9755 C 443.3621 4.2584 443.9279 4.5413 444.5109 4.8328 C 444.6347 5.5048 444.7585 6.1767 444.886 6.869 C 445.4344 9.4282 445.8022 10.217 447.9403 11.6915 C 449.6685 12.1456 451.2982 12.3504 453.0843 12.5489 C 453.0843 12.8318 453.0843 13.1147 453.0843 13.4062 C 448.2746 13.4062 443.4649 13.4062 438.5095 13.4062 C 438.2266 12.5574 437.9437 11.7087 437.6522 10.8342 C 438.6937 9.0827 438.6937 9.0827 440.1706 7.2441 C 440.6558 6.6307 441.141 6.0174 441.6408 5.3854 C 442.0221 4.9201 442.4034 4.4549 442.7962 3.9755 Z" fill-rule="evenodd" clip-rule="evenodd" fill="#EDEDED" stroke="none"/>
  <path d="M 442.7962 3.9755 C 445.6254 4.2584 448.4547 4.5413 451.3696 4.8328 C 450.2379 5.1158 449.1062 5.3987 447.9403 5.6902 C 447.9403 6.256 447.9403 6.8219 447.9403 7.4048 C 447.0915 7.4048 446.2427 7.4048 445.3682 7.4048 C 444.1576 11.6422 444.1576 11.6422 445.0668 13.9755 C 446.9915 17.1011 448.7074 18.4299 452.2269 19.4076 C 449.9354 20.2563 448.9243 20.3041 446.5471 19.5683 C 444.5109 18.5502 444.5109 18.5502 442.7962 16.8356 C 442.6016 15.4604 442.6016 15.4604 442.6288 13.855 C 442.6343 13.2803 442.6398 12.7056 442.6455 12.1135 C 442.6599 11.5145 442.6743 10.9155 442.6891 10.2984 C 442.6968 9.6927 442.7045 9.0871 442.7125 8.4631 C 442.7327 6.9671 442.7635 5.4713 442.7962 3.9755 Z" fill-rule="evenodd" clip-rule="evenodd" fill="#707070" stroke="none"/>
  <path d="M 442.7962 3.9755 C 450.5047 4.8458 456.6383 8.0399 463.3723 11.6915 C 463.3723 12.2574 463.3723 12.8232 463.3723 13.4062 C 459.6944 12.8404 456.0164 12.2745 452.2269 11.6915 C 452.2269 10.8428 452.2269 9.994 452.2269 9.1195 C 452.0413 9.0665 452.0413 9.0665 451.1017 8.798 C 449.6549 8.2622 449.6549 8.2622 448.4761 7.4584 C 446.6835 6.2863 444.7941 5.5888 442.7962 4.8328 C 442.7962 4.5499 442.7962 4.267 442.7962 3.9755 Z" fill-rule="evenodd" clip-rule="evenodd" fill="#232323" stroke="none"/>
  <path d="M 442.7962 3.9755 C 443.0791 4.5413 443.3621 5.1072 443.6536 5.6902 C 445.253 6.2341 446.7879 6.6834 448.4225 7.0833 C 448.8684 7.1983 449.3144 7.3132 449.7738 7.4316 C 450.8757 7.7147 451.9798 7.9893 453.0843 8.2622 C 453.0843 9.6768 453.0843 11.0914 453.0843 12.5489 C 452.6367 12.3212 452.1891 12.0935 451.7279 11.859 C 446.484 9.3426 441.6529 8.2167 435.9375 7.4048 C 435.9375 7.1219 435.9375 6.839 435.9375 6.5475 C 437.2213 6.3801 438.5051 6.2126 439.7888 6.0452 C 441.0815 5.6902 441.0815 5.6902 442.7962 3.9755 Z" fill-rule="evenodd" clip-rule="evenodd" fill="#858585" stroke="none"/>
  <path d="M 442.7962 3.9755 C 442.7962 4.5413 442.7962 5.1072 442.7962 5.6902 C 443.3621 5.6902 443.9279 5.6902 444.5109 5.6902 C 443.0106 9.0124 443.0106 9.0124 441.0815 9.9769 C 441.0815 9.411 441.0815 8.8452 441.0815 8.2622 C 439.6669 8.6866 439.6669 8.6866 432.5082 10.8342 C 432.5082 10.2684 432.5082 9.7025 432.5082 9.1195 C 435.2255 6.8007 439.1731 3.9755 442.7962 3.9755 Z" fill-rule="evenodd" clip-rule="evenodd" fill="#303030" stroke="none"/>
  <path d="M 442.7962 3.9755 C 443.3621 3.9755 443.9279 3.9755 444.5109 3.9755 C 444.5109 4.5413 444.5109 5.1072 444.5109 5.6902 C 445.6426 5.9731 446.7743 6.256 447.9403 6.5475 C 447.6573 7.3963 447.3744 8.245 447.0829 9.1195 C 446.2341 9.1195 445.3854 9.1195 444.5109 9.1195 C 444.5109 9.6854 444.5109 10.2512 444.5109 10.8342 C 443.9451 10.8342 443.3792 10.8342 442.7962 10.8342 C 442.7962 10.2684 442.7962 9.7025 442.7962 9.1195 C 441.6645 8.8366 440.5328 8.5537 439.3669 8.2622 C 439.3669 7.6963 439.3669 7.1305 439.3669 6.5475 C 440.4986 6.2646 441.6302 5.9817 442.7962 5.6902 C 442.7962 5.1243 442.7962 4.5585 442.7962 3.9755 Z" fill-rule="evenodd" clip-rule="evenodd" fill="#101010" stroke="none"/>
  <path d="M 442.7962 3.9755 C 443.3621 3.9755 443.9279 3.9755 444.5109 3.9755 C 444.5109 4.5413 444.5109 5.1072 444.5109 5.6902 C 445.6426 5.9731 446.7743 6.256 447.9403 6.5475 C 447.6573 7.3963 447.3744 8.245 447.0829 9.1195 C 446.2341 9.1195 445.3854 9.1195 444.5109 9.1195 C 444.5109 9.6854 444.5109 10.2512 444.5109 10.8342 C 443.9451 10.8342 443.3792 10.8342 442.7962 10.8342 C 442.7962 10.2684 442.7962 9.7025 442.7962 9.1195 C 441.9475 9.1195 441.0987 9.1195 440.2242 9.1195 C 440.2242 7.9878 440.2242 6.8561 440.2242 5.6902 C 441.073 5.6902 441.9217 5.6902 442.7962 5.6902 C 442.7962 5.1243 442.7962 4.5585 442.7962 3.9755 Z" fill-rule="evenodd" clip-rule="evenodd" fill="#090909" stroke="none"/>
  <path d="M 442.7962 3.9755 C 444.886 4.297 444.886 4.297 447.0829 4.8328 C 447.3658 5.3987 447.6488 5.9645 447.9403 6.5475 C 446.4947 10.6446 444.3681 14.0185 441.0815 16.8356 C 440.5157 16.5526 439.9499 16.2697 439.3669 15.9782 C 439.8973 15.377 440.4278 14.7758 440.9744 14.1564 C 442.9108 11.7598 443.6872 9.4989 444.5109 6.5475 C 443.9451 6.2646 443.3792 5.9817 442.7962 5.6902 C 442.7962 5.1243 442.7962 4.5585 442.7962 3.9755 Z" fill-rule="evenodd" clip-rule="evenodd" fill="#2F2F2F" stroke="none"/>
  <path d="M 442.7962 3.9755 C 443.4521 3.9894 443.4521 3.9894 446.7313 4.0592 C 446.7313 4.908 446.7313 5.7567 446.7313 6.6312 C 447.58 6.9142 448.4288 7.1971 449.3033 7.4886 C 449.3033 7.7715 449.3033 8.0544 449.3033 8.3459 C 446.757 8.3459 444.2107 8.3459 441.5872 8.3459 C 441.3043 7.2142 441.0214 6.0825 440.7299 4.9166 C 441.5872 4.0592 441.5872 4.0592 442.7962 3.9755 Z" fill-rule="evenodd" clip-rule="evenodd" fill="#494949" stroke="none"/>
  <path d="M 442.7962 3.9755 C 443.645 3.9755 444.4938 3.9755 445.3682 3.9755 C 445.3682 4.5413 445.3682 5.1072 445.3682 5.6902 C 445.9341 5.4072 446.4999 5.1243 447.0829 4.8328 C 448.2604 4.7737 449.4406 4.7602 450.6194 4.7792 C 450.93 4.7831 450.93 4.7831 452.5016 4.8027 C 452.7392 4.8077 452.7392 4.8077 453.9416 4.8328 C 453.9416 5.9645 453.9416 7.0962 453.9416 8.2622 C 446.2611 7.934 446.2611 7.934 444.0286 5.6366 C 443.6219 5.0884 443.2152 4.5403 442.7962 3.9755 Z" fill-rule="evenodd" clip-rule="evenodd" fill="#0A0A0A" stroke="none"/>
  <path d="M 442.7962 3.9755 C 443.645 4.2584 444.4938 4.5413 445.3682 4.8328 C 444.275 6.6548 443.5681 7.8198 441.9389 9.1195 C 439.5703 9.6533 437.4553 9.6036 435.0802 9.1195 C 433.3655 7.8335 433.3655 7.8335 432.5082 6.5475 C 435.6517 6.5475 438.7953 6.5475 441.9389 6.5475 C 442.2218 5.6987 442.5047 4.85 442.7962 3.9755 Z" fill-rule="evenodd" clip-rule="evenodd" fill="#2A2A2A" stroke="none"/>
  <path d="M 442.7962 3.9755 C 443.0438 4.2938 443.0438 4.2938 444.2966 5.9045 C 446.6494 8.8393 449.0424 11.3584 452.2269 13.4062 C 446.148 12.9875 446.148 12.9875 443.6536 11.5844 C 442.3368 9.1155 442.5936 6.7152 442.7962 3.9755 Z" fill-rule="evenodd" clip-rule="evenodd" fill="#EFEFEF" stroke="none"/>
  <path d="M 442.7962 3.9755 C 444.7767 3.9755 446.7571 3.9755 448.7976 3.9755 C 448.5147 4.8243 448.2317 5.673 447.9403 6.5475 C 443.8684 8.1505 439.4159 8.4845 435.0802 8.2622 C 435.0802 7.6963 435.0802 7.1305 435.0802 6.5475 C 435.5653 6.5055 436.0505 6.4635 436.5504 6.4202 C 436.8648 6.3882 436.8648 6.3882 438.4559 6.226 C 439.0826 6.1663 439.7092 6.1066 440.3548 6.0452 C 440.8776 5.928 441.4003 5.8109 441.9389 5.6902 C 442.2218 5.1243 442.5047 4.5585 442.7962 3.9755 Z" fill-rule="evenodd" clip-rule="evenodd" fill="#313131" stroke="none"/>
  <path d="M 442.7962 3.9755 C 445.0596 3.9755 447.323 3.9755 449.6549 3.9755 C 449.372 4.117 449.372 4.117 447.9403 4.8328 C 447.6573 5.3987 447.3744 5.9645 447.0829 6.5475 C 446.8 6.8304 446.5171 7.1133 446.2256 7.4048 C 448.206 7.4048 450.1865 7.4048 452.2269 7.4048 C 452.2269 7.6878 452.2269 7.9707 452.2269 8.2622 C 449.1148 8.2622 446.0027 8.2622 442.7962 8.2622 C 442.7962 6.8476 442.7962 5.433 442.7962 3.9755 Z" fill-rule="evenodd" clip-rule="evenodd" fill="#3D3D3D" stroke="none"/>
  <path d="M 442.7962 3.9755 C 443.0791 3.9755 443.3621 3.9755 443.6536 3.9755 C 443.9709 6.8312 443.889 7.9427 442.1532 10.2984 C 440.2242 11.6915 440.2242 11.6915 438.2952 11.4772 C 438.0476 11.3711 438.0476 11.3711 436.7949 10.8342 C 437.3607 10.5513 437.9265 10.2684 438.5095 9.9769 C 438.5095 9.411 438.5095 8.8452 438.5095 8.2622 C 438.8985 8.1915 439.2876 8.1207 439.6884 8.0478 C 441.6365 7.1487 441.9884 5.9018 442.7962 3.9755 Z" fill-rule="evenodd" clip-rule="evenodd" fill="#E4E4E4" stroke="none"/>
  <path d="M 442.7962 3.9755 C 442.7962 4.2584 442.7962 4.5413 442.7962 4.8328 C 441.3816 5.1158 439.967 5.3987 438.5095 5.6902 C 438.5095 7.1048 438.5095 8.5194 438.5095 9.9769 C 437.9437 9.6939 437.3778 9.411 436.7949 9.1195 C 436.259 7.3513 436.259 7.3513 435.9375 5.6902 C 435.0887 5.5487 435.0887 5.5487 430.7935 4.8328 C 430.7935 4.5499 430.7935 4.267 430.7935 3.9755 C 435.011 3.0265 438.545 3.2742 442.7962 3.9755 Z" fill-rule="evenodd" clip-rule="evenodd" fill="#1A1A1A" stroke="none"/>
  <path d="M 442.7962 3.9755 C 443.0791 4.8243 443.3621 5.673 443.6536 6.5475 C 442.8048 6.5475 441.956 6.5475 441.0815 6.5475 C 441.0815 7.1133 441.0815 7.6792 441.0815 8.2622 C 439.384 8.2622 437.6865 8.2622 435.9375 8.2622 C 436.2204 7.1305 436.5034 5.9988 436.7949 4.8328 C 437.7851 4.6914 437.7851 4.6914 442.7962 3.9755 Z" fill-rule="evenodd" clip-rule="evenodd" fill="#181818" stroke="none"/>
  <path d="M 442.7962 3.9755 C 444.0521 4.2546 445.308 4.5337 446.5638 4.8127 C 446.5638 6.2273 446.5638 7.642 446.5638 9.0994 C 445.2907 8.5336 445.2907 8.5336 438.8478 5.6701 C 441.4198 3.9554 441.4198 3.9554 442.7962 3.9755 Z" fill-rule="evenodd" clip-rule="evenodd" fill="#A1A1A1" stroke="none"/>
  <path d="M 442.7962 3.9755 C 444.9995 5.0771 445.2862 6.1181 446.3327 8.3158 C 446.6356 8.9446 446.9384 9.5734 447.2504 10.2213 C 447.478 10.7065 447.7057 11.1917 447.9403 11.6915 C 447.0915 11.6915 446.2427 11.6915 445.3682 11.6915 C 444.3368 10.6567 444.3368 10.6567 443.4392 9.2803 C 443.2867 9.0565 443.2867 9.0565 442.5149 7.9239 C 441.9389 6.5475 441.9389 6.5475 442.2738 5.0907 C 442.4462 4.7227 442.6186 4.3547 442.7962 3.9755 Z" fill-rule="evenodd" clip-rule="evenodd" fill="#3A3A3A" stroke="none"/>
  <path d="M 442.7962 3.9755 C 442.7962 4.5413 442.7962 5.1072 442.7962 5.6902 C 441.834 5.8806 440.8688 6.0564 439.9027 6.226 C 439.3656 6.3255 438.8285 6.4249 438.2751 6.5274 C 438.0309 6.5307 438.0309 6.5307 436.7949 6.5475 C 436.229 5.9817 435.6632 5.4158 435.0802 4.8328 C 435.646 4.8328 436.2119 4.8328 436.7949 4.8328 C 436.7949 4.267 436.7949 3.7011 436.7949 3.1182 C 439.2812 1.875 440.4928 2.6252 442.7962 3.9755 Z" fill-rule="evenodd" clip-rule="evenodd" fill="#727272" stroke="none"/>
  <path d="M 442.7962 3.9755 C 442.5133 5.1072 442.2304 6.2389 441.9389 7.4048 C 440.5243 7.6878 439.1097 7.9707 437.6522 8.2622 C 437.3693 7.6963 437.0863 7.1305 436.7949 6.5475 C 437.3607 6.5475 437.9265 6.5475 438.5095 6.5475 C 438.5095 5.9817 438.5095 5.4158 438.5095 4.8328 C 440.0612 4.2686 441.1226 3.9755 442.7962 3.9755 Z" fill-rule="evenodd" clip-rule="evenodd" fill="#E7E7E7" stroke="none"/>
  <path d="M 442.7962 3.9755 C 445.2263 6.1704 446.6027 7.4729 447.0829 10.8342 C 446.2341 10.5513 445.3854 10.2684 444.5109 9.9769 C 444.5109 9.411 444.5109 8.8452 444.5109 8.2622 C 443.6621 7.9793 442.8134 7.6963 441.9389 7.4048 C 442.2218 6.2732 442.5047 5.1415 442.7962 3.9755 Z" fill-rule="evenodd" clip-rule="evenodd" fill="#1A1A1A" stroke="none"/>
  <path d="M 442.7962 3.9755 C 446.9757 5.4758 446.9757 5.4758 447.9403 7.4048 C 447.3744 7.4048 446.8086 7.4048 446.2256 7.4048 C 445.9427 8.2536 445.6597 9.1024 445.3682 9.9769 C 444.8024 9.9769 444.2366 9.9769 443.6536 9.9769 C 443.3706 7.9964 443.0877 6.016 442.7962 3.9755 Z" fill-rule="evenodd" clip-rule="evenodd" fill="#1B1B1B" stroke="none"/>
  <path d="M 442.7962 3.9755 C 443.5035 4.117 443.5035 4.117 447.0829 4.8328 C 447.3658 5.9645 447.6488 7.0962 447.9403 8.2622 C 446.0809 7.8283 444.5112 7.405 442.7962 6.5475 C 442.7962 5.6987 442.7962 4.85 442.7962 3.9755 Z" fill-rule="evenodd" clip-rule="evenodd" fill="#F7F7F7" stroke="none"/>
  <path d="M 442.7962 3.9755 C 443.3621 5.673 443.9279 7.3706 444.5109 9.1195 C 443.9451 9.1195 443.3792 9.1195 442.7962 9.1195 C 442.7962 8.5537 442.7962 7.9878 442.7962 7.4048 C 441.6645 7.1219 440.5328 6.839 439.3669 6.5475 C 439.3669 5.9817 439.3669 5.4158 439.3669 4.8328 C 441.0815 3.9755 441.0815 3.9755 442.7962 3.9755 Z" fill-rule="evenodd" clip-rule="evenodd" fill="#2E2E2E" stroke="none"/>
  <path d="M 442.7962 3.9755 C 443.3621 4.2584 443.9279 4.5413 444.5109 4.8328 C 444.228 6.5304 443.9451 8.2279 443.6536 9.9769 C 442.8048 9.9769 441.956 9.9769 441.0815 9.9769 C 441.8317 4.94 441.8317 4.94 442.7962 3.9755 Z" fill-rule="evenodd" clip-rule="evenodd" fill="#353535" stroke="none"/>
  <path d="M 442.7962 3.9755 C 443.141 3.9843 443.141 3.9843 444.886 4.0291 C 443.4714 5.4437 442.0568 6.8583 440.5993 8.3158 C 440.117 6.6547 440.117 6.6547 439.742 4.8864 C 440.5993 4.0291 440.5993 4.0291 442.7962 3.9755 Z" fill-rule="evenodd" clip-rule="evenodd" fill="#050505" stroke="none"/>
  <path d="M 442.7962 3.9755 C 443.645 4.2584 444.4938 4.5413 445.3682 4.8328 C 443.9536 6.2474 442.539 7.662 441.0815 9.1195 C 440.7986 8.2708 440.5157 7.422 440.2242 6.5475 C 440.7901 6.5475 441.3559 6.5475 441.9389 6.5475 C 442.2218 5.6987 442.5047 4.85 442.7962 3.9755 Z" fill-rule="evenodd" clip-rule="evenodd" fill="#464646" stroke="none"/>
  <path d="M 442.7962 3.9755 C 443.645 4.2584 444.4938 4.5413 445.3682 4.8328 C 444.8024 6.2474 444.2366 7.662 443.6536 9.1195 C 442.8048 8.8366 441.956 8.5537 441.0815 8.2622 C 441.6474 6.8476 442.2132 5.433 442.7962 3.9755 Z" fill-rule="evenodd" clip-rule="evenodd" fill="#5C5C5C" stroke="none"/>
  <path d="M 442.7962 3.9755 C 443.645 4.117 443.645 4.117 447.9403 4.8328 C 447.9403 5.6816 447.9403 6.5304 447.9403 7.4048 C 446.5256 7.1219 445.111 6.839 443.6536 6.5475 C 443.3706 5.6987 443.0877 4.85 442.7962 3.9755 Z" fill-rule="evenodd" clip-rule="evenodd" fill="#F7F7F7" stroke="none"/>
  <path d="M 442.7962 3.9755 C 442.7962 4.5413 442.7962 5.1072 442.7962 5.6902 C 443.3621 5.9731 443.9279 6.256 444.5109 6.5475 C 441.9646 6.5475 439.4183 6.5475 436.7949 6.5475 C 439.9027 3.9755 439.9027 3.9755 442.7962 3.9755 Z" fill-rule="evenodd" clip-rule="evenodd" fill="#393939" stroke="none"/>
  <path d="M 442.7962 3.9755 C 443.9279 3.9755 445.0596 3.9755 446.2256 3.9755 C 446.2256 5.3901 446.2256 6.8047 446.2256 8.2622 C 444.9932 8.0478 444.9932 8.0478 443.6536 7.4048 C 443.0641 5.6366 443.0641 5.6366 442.7962 3.9755 Z" fill-rule="evenodd" clip-rule="evenodd" fill="#1A1A1A" stroke="none"/>
  <path d="M 442.7962 3.9755 C 444.4938 3.9755 446.1913 3.9755 447.9403 3.9755 C 447.6573 4.8243 447.3744 5.673 447.0829 6.5475 C 445.6683 6.5475 444.2537 6.5475 442.7962 6.5475 C 442.7962 5.6987 442.7962 4.85 442.7962 3.9755 Z" fill-rule="evenodd" clip-rule="evenodd" fill="#070707" stroke="none"/>
  <path d="M 442.7962 3.9755 C 444.7767 4.2584 446.7571 4.5413 448.7976 4.8328 C 446.5485 6.7268 444.8149 6.703 441.9389 6.5475 C 442.2218 5.6987 442.5047 4.85 442.7962 3.9755 Z" fill-rule="evenodd" clip-rule="evenodd" fill="#202020" stroke="none"/>
  <path d="M 442.7962 3.9755 C 443.9279 4.2584 445.0596 4.5413 446.2256 4.8328 C 445.9427 5.6816 445.6597 6.5304 445.3682 7.4048 C 444.5195 7.4048 443.6707 7.4048 442.7962 7.4048 C 442.7962 6.2732 442.7962 5.1415 442.7962 3.9755 Z" fill-rule="evenodd" clip-rule="evenodd" fill="#363636" stroke="none"/>
  <path d="M 442.7962 3.9755 C 444.4938 4.5413 446.1913 5.1072 447.9403 5.6902 C 447.9403 6.256 447.9403 6.8219 447.9403 7.4048 C 446.5256 7.1219 445.111 6.839 443.6536 6.5475 C 443.3706 5.6987 443.0877 4.85 442.7962 3.9755 Z" fill-rule="evenodd" clip-rule="evenodd" fill="#151515" stroke="none"/>
  <path d="M 442.7962 3.9755 C 443.645 3.9755 444.4938 3.9755 445.3682 3.9755 C 445.0853 5.3901 444.8024 6.8047 444.5109 8.2622 C 443.9451 8.2622 443.3792 8.2622 442.7962 8.2622 C 442.7962 6.8476 442.7962 5.433 442.7962 3.9755 Z" fill-rule="evenodd" clip-rule="evenodd" fill="#666666" stroke="none"/>
  <path d="M 442.7962 3.9755 C 441.806 4.3999 441.806 4.3999 436.7949 6.5475 C 436.7949 5.9817 436.7949 5.4158 436.7949 4.8328 C 438.8857 2.8466 440.1634 3.0676 442.7962 3.9755 Z" fill-rule="evenodd" clip-rule="evenodd" fill="#111111" stroke="none"/>
  <path d="M 442.7962 3.9755 C 443.645 3.9755 444.4938 3.9755 445.3682 3.9755 C 445.3682 5.1072 445.3682 6.2389 445.3682 7.4048 C 444.5195 7.4048 443.6707 7.4048 442.7962 7.4048 C 442.7962 6.2732 442.7962 5.1415 442.7962 3.9755 Z" fill-rule="evenodd" clip-rule="evenodd" fill="#3B3B3B" stroke="none"/>
  <path d="M 442.7962 3.9755 C 443.9279 4.2584 445.0596 4.5413 446.2256 4.8328 C 446.2256 5.3987 446.2256 5.9645 446.2256 6.5475 C 445.0939 6.5475 443.9622 6.5475 442.7962 6.5475 C 442.7962 5.6987 442.7962 4.85 442.7962 3.9755 Z" fill-rule="evenodd" clip-rule="evenodd" fill="#9D9D9D" stroke="none"/>
  <path d="M 442.7962 3.9755 C 443.3621 5.1072 443.9279 6.2389 444.5109 7.4048 C 443.6621 7.4048 442.8134 7.4048 441.9389 7.4048 C 442.2218 6.2732 442.5047 5.1415 442.7962 3.9755 Z" fill-rule="evenodd" clip-rule="evenodd" fill="#757575" stroke="none"/>
  <path d="M 442.7962 3.9755 C 443.1852 4.1346 443.5743 4.2938 443.9751 4.4577 C 443.4092 4.7407 443.4092 4.7407 440.5457 6.1724 C 440.2628 5.6066 439.9799 5.0407 439.6884 4.4577 C 441.403 3.6004 441.403 3.6004 442.7962 3.9755 Z" fill-rule="evenodd" clip-rule="evenodd" fill="#111111" stroke="none"/>
  <path d="M 442.7962 3.9755 C 443.9279 4.2584 445.0596 4.5413 446.2256 4.8328 C 446.2256 5.3987 446.2256 5.9645 446.2256 6.5475 C 445.3768 6.5475 444.528 6.5475 443.6536 6.5475 C 443.3706 5.6987 443.0877 4.85 442.7962 3.9755 Z" fill-rule="evenodd" clip-rule="evenodd" fill="#444444" stroke="none"/>
  <path d="M 442.7962 3.9755 C 443.645 3.9755 444.4938 3.9755 445.3682 3.9755 C 445.0853 4.8243 444.8024 5.673 444.5109 6.5475 C 443.9451 6.5475 443.3792 6.5475 442.7962 6.5475 C 442.7962 5.6987 442.7962 4.85 442.7962 3.9755 Z" fill-rule="evenodd" clip-rule="evenodd" fill="#141414" stroke="none"/>
  <path d="M 442.7962 3.9755 C 443.3621 4.2584 443.9279 4.5413 444.5109 4.8328 C 444.5109 5.3987 444.5109 5.9645 444.5109 6.5475 C 443.6621 6.2646 442.8134 5.9817 441.9389 5.6902 C 442.2218 5.1243 442.5047 4.5585 442.7962 3.9755 Z" fill-rule="evenodd" clip-rule="evenodd" fill="#3B3B3B" stroke="none"/>
  <path d="M 442.7962 3.9755 C 443.3621 4.5413 443.9279 5.1072 444.5109 5.6902 C 443.6621 5.6902 442.8134 5.6902 441.9389 5.6902 C 442.2218 5.1243 442.5047 4.5585 442.7962 3.9755 Z" fill-rule="evenodd" clip-rule="evenodd" fill="#636363" stroke="none"/>
  <path d="M 442.7962 3.9755 C 443.3621 4.5413 443.9279 5.1072 444.5109 5.6902 C 443.6621 5.6902 442.8134 5.6902 441.9389 5.6902 C 442.2218 5.1243 442.5047 4.5585 442.7962 3.9755 Z" fill-rule="evenodd" clip-rule="evenodd" fill="#4E4E4E" stroke="none"/>
  <path d="M 442.7962 3.9755 C 443.3621 4.5413 443.9279 5.1072 444.5109 5.6902 C 443.6621 5.6902 442.8134 5.6902 441.9389 5.6902 C 442.2218 5.1243 442.5047 4.5585 442.7962 3.9755 Z" fill-rule="evenodd" clip-rule="evenodd" fill="#3A3A3A" stroke="none"/></g></svg>