<svg xmlns="http://www.w3.org/2000/svg" viewBox="0 0 950 35" fill="none"><g transform="translate(-241.4324,-8.8949) scale(1.5083)"><path d="M180.2624 1.5909 L180.2624 2.4282 L184.534 9.9641 L185.0086 9.9641 L185.9579 10.8014 L185.9579 11.2201 L186.9071 11.6387 L186.4325 12.0574 L186.4325 13.3134 L188.8056 17.5 L189.2802 17.9187 L189.7548 17.9187 L190.2294 17.0813 L191.6533 17.0813 L192.1279 17.5 L191.1787 19.1746 L191.1787 21.6866 L192.1279 22.5239 L192.1279 23.3612 L193.0771 24.1986 L193.0771 25.0359 L194.0264 26.7105 L194.9756 27.1292 L194.9756 17.9187 L194.501 17.5 L194.0264 15.4067 L193.0771 14.988 L193.0771 14.5694 L191.6533 13.3134 L191.6533 12.8947 L187.3817 8.2895 L186.9071 7.0335 L186.4325 7.0335 L185.4832 5.3588 L184.534 4.9402 L184.534 4.1029 L185.4832 3.2655 L185.9579 3.2655 L186.9071 4.1029 L187.3817 5.3588 L188.8056 6.6148 L189.2802 7.8708 L190.2294 8.2895 L191.1787 9.9641 L191.6533 10.3828 L192.6025 10.3828 L192.6025 9.1268 L193.0771 8.7081 L193.0771 4.5215 L194.501 3.6842 L194.9756 2.8469 L194.9756 1.5909 L180.2624 1.5909 Z" fill-rule="evenodd" clip-rule="evenodd" fill="white" stroke="none"/>
  <path d="M206.3664 1.5909 L221.0796 27.5478 L221.5542 27.5478 L221.5542 2.0096 L221.0796 1.5909 L206.3664 1.5909 Z" fill-rule="evenodd" clip-rule="evenodd" fill="white" stroke="none"/>
  <path d="M232.945 1.5909 L242.4374 18.756 L243.3866 19.5933 L243.3866 20.4306 L244.8104 22.9426 L245.7597 23.7799 L247.1835 26.7105 L247.6582 26.7105 L247.6582 1.5909 L232.945 1.5909 Z" fill-rule="evenodd" clip-rule="evenodd" fill="white" stroke="none"/>
  <path d="M259.5236 1.5909 L259.5236 2.4282 L260.4728 3.2655 L260.4728 4.1029 L261.8967 6.6148 L262.8459 7.4521 L262.8459 8.2895 L263.7952 9.1268 L273.7621 27.1292 L274.2367 27.1292 L274.2367 1.5909 L259.5236 1.5909 Z" fill-rule="evenodd" clip-rule="evenodd" fill="white" stroke="none"/>
  <path d="M286.1022 1.5909 L286.1022 2.4282 L293.6961 15.8254 L294.6453 16.6627 L294.6453 17.5 L296.0691 20.012 L297.0184 20.8493 L297.0184 21.6866 L298.9169 24.1986 L298.9169 25.0359 L300.3407 26.7105 L300.3407 27.5478 L300.8153 27.5478 L300.8153 1.5909 L286.1022 1.5909 Z" fill-rule="evenodd" clip-rule="evenodd" fill="white" stroke="none"/>
  <path d="M312.2062 1.5909 L326.4447 26.7105 L327.3939 27.1292 L327.3939 2.0096 L326.9193 1.5909 L312.2062 1.5909 Z" fill-rule="evenodd" clip-rule="evenodd" fill="white" stroke="none"/>
  <path d="M338.7847 1.5909 L349.2263 20.4306 L350.1756 21.2679 L353.0233 26.2918 L353.0233 27.1292 L353.9725 27.1292 L353.9725 25.8732 L353.4979 25.4545 L353.4979 12.4761 L353.9725 12.0574 L353.9725 8.7081 L353.4979 8.2895 L353.9725 7.4521 L353.9725 4.1029 L353.4979 3.6842 L353.9725 3.2655 L353.9725 2.4282 L353.4979 1.5909 L338.7847 1.5909 Z" fill-rule="evenodd" clip-rule="evenodd" fill="white" stroke="none"/>
  <path d="M365.3633 1.5909 L365.3633 2.4282 L365.8379 3.2655 L366.7872 4.1029 L379.6019 27.1292 L380.0765 27.1292 L380.0765 1.5909 L365.3633 1.5909 Z" fill-rule="evenodd" clip-rule="evenodd" fill="white" stroke="none"/>
  <path d="M391.9419 1.5909 L391.9419 2.4282 L400.485 17.5 L401.4343 18.3373 L401.4343 19.1746 L402.3835 20.012 L403.3327 21.6866 L403.3327 22.5239 L404.282 23.3612 L404.282 24.1986 L405.7058 25.8732 L405.7058 26.7105 L406.6551 27.1292 L406.6551 1.5909 L391.9419 1.5909 Z" fill-rule="evenodd" clip-rule="evenodd" fill="white" stroke="none"/>
  <path d="M418.0459 1.5909 L432.759 27.5478 L433.2337 27.5478 L433.2337 2.0096 L432.759 1.5909 L418.0459 1.5909 Z" fill-rule="evenodd" clip-rule="evenodd" fill="white" stroke="none"/>
  <path d="M444.6245 1.5909 L451.7437 14.5694 L452.693 15.4067 L452.693 16.244 L453.1676 17.0813 L454.1168 17.9187 L454.1168 18.756 L454.5915 19.5933 L455.5407 20.4306 L455.5407 21.2679 L456.4899 22.1053 L458.863 26.7105 L459.3376 26.7105 L459.3376 1.5909 L444.6245 1.5909 Z" fill-rule="evenodd" clip-rule="evenodd" fill="white" stroke="none"/>
  <path d="M471.2031 1.5909 L471.2031 2.4282 L472.6269 4.1029 L472.6269 4.9402 L473.5761 5.7775 L485.4416 27.1292 L485.9162 27.1292 L485.9162 1.5909 L471.2031 1.5909 Z" fill-rule="evenodd" clip-rule="evenodd" fill="white" stroke="none"/>
  <path d="M497.7817 1.5909 L497.7817 2.4282 L505.8502 16.6627 L506.7994 17.5 L506.7994 18.3373 L507.7486 19.1746 L509.6471 22.5239 L509.6471 23.3612 L510.5963 24.1986 L512.0202 27.1292 L512.4948 27.1292 L512.4948 1.5909 L497.7817 1.5909 Z" fill-rule="evenodd" clip-rule="evenodd" fill="white" stroke="none"/>
  <path d="M523.8856 1.5909 L538.1241 26.7105 L539.0734 27.1292 L539.0734 1.5909 L523.8856 1.5909 Z" fill-rule="evenodd" clip-rule="evenodd" fill="white" stroke="none"/>
  <path d="M550.4642 1.5909 L557.1089 13.7321 L558.0581 14.5694 L558.0581 15.4067 L558.5327 16.244 L559.4819 17.0813 L560.9058 19.5933 L560.9058 20.4306 L561.855 21.2679 L564.7027 26.7105 L565.652 27.1292 L565.652 25.8732 L565.1774 25.4545 L565.1774 23.3612 L565.652 22.9426 L565.1774 22.1053 L565.1774 7.0335 L565.652 6.6148 L565.652 5.7775 L565.1774 5.3588 L565.1774 2.8469 L565.652 2.0096 L565.1774 1.5909 L550.4642 1.5909 Z" fill-rule="evenodd" clip-rule="evenodd" fill="white" stroke="none"/>
  <path d="M577.0428 1.5909 L577.992 3.2655 L577.992 4.1029 L578.9413 4.9402 L589.8575 24.6172 L590.8068 25.4545 L590.8068 26.2918 L591.2813 27.1292 L591.7559 27.1292 L591.7559 1.5909 L577.0428 1.5909 Z" fill-rule="evenodd" clip-rule="evenodd" fill="white" stroke="none"/>
  <path d="M603.6214 1.5909 L603.6214 2.4282 L611.2153 15.8254 L612.1645 16.6627 L612.1645 17.5 L613.1137 18.3373 L617.8599 27.1292 L618.3345 27.1292 L618.3345 1.5909 L603.6214 1.5909 Z" fill-rule="evenodd" clip-rule="evenodd" fill="white" stroke="none"/>
  <path d="M630.1999 1.5909 L630.6746 3.6842 L631.6238 4.5215 L643.9639 26.7105 L644.9131 27.1292 L644.9131 1.5909 L630.1999 1.5909 Z" fill-rule="evenodd" clip-rule="evenodd" fill="white" stroke="none"/>
  <path d="M656.304 1.5909 L662.474 12.8947 L663.4233 13.7321 L663.4233 14.5694 L664.8471 16.244 L664.8471 17.0813 L665.7963 17.9187 L671.0171 27.5478 L671.4917 27.5478 L671.4917 2.0096 L671.0171 1.5909 L656.304 1.5909 Z" fill-rule="evenodd" clip-rule="evenodd" fill="white" stroke="none"/>
  <path d="M682.8826 1.5909 L697.1211 27.1292 L697.5957 27.1292 L697.5957 1.5909 L682.8826 1.5909 Z" fill-rule="evenodd" clip-rule="evenodd" fill="white" stroke="none"/>
  <path d="M709.4611 1.5909 L709.4611 2.4282 L715.1565 12.4761 L716.1058 13.3134 L716.1058 14.1507 L717.0551 14.988 L717.5297 15.8254 L717.5297 16.6627 L718.4789 17.5 L723.6997 27.1292 L724.1743 27.1292 L724.1743 1.5909 L709.4611 1.5909 Z" fill-rule="evenodd" clip-rule="evenodd" fill="white" stroke="none"/>
  <path d="M735.5651 1.5909 L748.8544 25.0359 L749.8037 25.8732 L750.2782 26.7105 L750.2782 27.5478 L750.7528 27.5478 L750.7528 2.0096 L750.2782 1.5909 L735.5651 1.5909 Z" fill-rule="evenodd" clip-rule="evenodd" fill="white" stroke="none"/>
  <path d="M762.1437 1.5909 L776.3822 26.7105 L777.3314 27.1292 L777.3314 2.0096 L776.8569 1.5909 L762.1437 1.5909 Z" fill-rule="evenodd" clip-rule="evenodd" fill="white" stroke="none"/>
  <path d="M174.0924 2.4282 L174.0924 27.9665 L174.567 28.3852 L188.8056 28.3852 L188.8056 27.5478 L185.9579 22.5239 L185.4832 22.5239 L184.0594 21.2679 L183.5848 21.2679 L183.5848 21.6866 L186.4325 26.2918 L185.9579 27.1292 L181.2117 27.1292 L180.7371 27.5478 L178.8386 27.5478 L178.364 27.1292 L176.4655 27.1292 L175.5163 26.2918 L175.5163 9.5454 L175.9909 9.1268 L177.4147 10.3828 L177.4147 11.2201 L178.364 12.8947 L179.3132 13.7321 L179.7878 13.7321 L179.7878 11.6387 L176.9401 6.6148 L175.9909 5.7775 L175.9909 4.9402 L174.567 3.2655 L174.567 2.4282 L174.0924 2.4282 Z" fill-rule="evenodd" clip-rule="evenodd" fill="white" stroke="none"/>
  <path d="M359.1933 2.4282 L359.1933 27.9665 L359.6679 28.3852 L374.3811 28.3852 L370.5841 21.2679 L369.6349 20.4306 L369.6349 19.5933 L369.1603 18.756 L368.211 17.9187 L368.211 17.0813 L366.7872 15.4067 L366.7872 14.5694 L366.3126 13.7321 L365.3633 12.8947 L365.3633 12.0574 L364.8887 11.2201 L363.9395 10.3828 L359.6679 2.4282 L359.1933 2.4282 Z" fill-rule="evenodd" clip-rule="evenodd" fill="white" stroke="none"/>
  <path d="M491.6116 2.4282 L491.6116 28.3852 L506.3248 28.3852 L506.3248 27.1292 L505.3756 26.2918 L504.9009 25.4545 L504.9009 24.6172 L503.9517 23.7799 L503.0024 22.1053 L503.0024 21.2679 L502.0532 20.4306 L494.4593 6.6148 L493.5101 5.7775 L493.5101 4.9402 L492.0862 2.4282 L491.6116 2.4282 Z" fill-rule="evenodd" clip-rule="evenodd" fill="white" stroke="none"/>
  <path d="M570.8728 2.4282 L570.8728 27.9665 L571.3474 28.3852 L586.0605 28.3852 L577.0428 12.0574 L575.6189 10.3828 L575.6189 9.5454 L574.6697 8.7081 L574.6697 7.8708 L574.1951 7.0335 L573.2459 6.1962 L571.822 3.6842 L571.822 2.8469 L570.8728 2.4282 Z" fill-rule="evenodd" clip-rule="evenodd" fill="white" stroke="none"/>
  <path d="M597.4514 2.4282 L597.4514 28.3852 L612.6391 28.3852 L597.926 2.4282 L597.4514 2.4282 Z" fill-rule="evenodd" clip-rule="evenodd" fill="white" stroke="none"/>
  <path d="M624.03 2.4282 L624.03 28.3852 L638.7431 28.3852 L638.7431 27.5478 L631.1492 14.1507 L630.1999 13.3134 L630.1999 12.4761 L628.7761 10.8014 L628.7761 9.9641 L627.8269 9.1268 L627.3522 8.2895 L627.3522 7.4521 L626.4031 6.6148 L624.5046 3.2655 L624.5046 2.4282 L624.03 2.4282 Z" fill-rule="evenodd" clip-rule="evenodd" fill="white" stroke="none"/>
  <path d="M200.671 2.8469 L200.671 11.6387 L201.1456 12.0574 L202.0949 12.0574 L202.0949 9.9641 L202.5695 9.5454 L203.5187 9.9641 L213.0111 26.7105 L212.5364 27.1292 L202.5695 27.1292 L202.0949 26.7105 L202.0949 14.1507 L201.1456 13.7321 L200.671 14.1507 L200.671 28.3852 L215.3842 28.3852 L215.3842 27.5478 L211.5872 20.8493 L210.638 20.012 L210.1634 19.1746 L210.1634 18.3373 L209.2141 17.5 L207.3156 14.1507 L207.3156 13.3134 L206.3664 12.4761 L201.1456 2.8469 L200.671 2.8469 Z" fill-rule="evenodd" clip-rule="evenodd" fill="white" stroke="none"/>
  <path d="M227.2496 2.8469 L227.2496 28.3852 L241.9627 28.3852 L241.9627 27.5478 L241.0135 26.7105 L227.7242 2.8469 L227.2496 2.8469 Z" fill-rule="evenodd" clip-rule="evenodd" fill="white" stroke="none"/>
  <path d="M253.3536 2.8469 L253.3536 27.9665 L253.8282 28.3852 L268.5413 28.3852 L254.3028 3.2655 L253.3536 2.8469 Z" fill-rule="evenodd" clip-rule="evenodd" fill="white" stroke="none"/>
  <path d="M279.9322 2.8469 L279.9322 28.3852 L294.6453 28.3852 L294.1707 26.2918 L293.2214 25.4545 L283.7291 8.2895 L282.7798 7.4521 L282.7798 6.6148 L280.8814 3.2655 L279.9322 2.8469 Z" fill-rule="evenodd" clip-rule="evenodd" fill="white" stroke="none"/>
  <path d="M306.5107 2.8469 L306.5107 28.3852 L321.2239 28.3852 L321.2239 27.5478 L315.0539 16.6627 L314.1046 15.8254 L306.9854 2.8469 L306.5107 2.8469 Z" fill-rule="evenodd" clip-rule="evenodd" fill="white" stroke="none"/>
  <path d="M333.0893 2.8469 L333.0893 28.3852 L347.8025 28.3852 L333.564 2.8469 L333.0893 2.8469 Z" fill-rule="evenodd" clip-rule="evenodd" fill="white" stroke="none"/>
  <path d="M385.7719 2.8469 L385.7719 28.3852 L400.485 28.3852 L400.485 27.5478 L386.7211 3.2655 L385.7719 2.8469 Z" fill-rule="evenodd" clip-rule="evenodd" fill="white" stroke="none"/>
  <path d="M412.3505 2.8469 L412.3505 28.3852 L427.0636 28.3852 L427.0636 27.5478 L421.8428 18.3373 L420.8936 17.5 L420.8936 16.6627 L419.4698 14.988 L419.4698 14.1507 L418.0459 12.4761 L418.0459 11.6387 L417.0967 10.8014 L412.8251 2.8469 L412.3505 2.8469 Z" fill-rule="evenodd" clip-rule="evenodd" fill="white" stroke="none"/>
  <path d="M438.9291 2.8469 L438.9291 28.3852 L453.6422 28.3852 L453.6422 27.5478 L452.693 26.7105 L439.4037 2.8469 L438.9291 2.8469 Z" fill-rule="evenodd" clip-rule="evenodd" fill="white" stroke="none"/>
  <path d="M465.033 2.8469 L465.033 6.1962 L465.5077 6.6148 L465.033 7.0335 L465.033 24.1986 L465.5077 24.6172 L465.033 25.4545 L465.033 27.9665 L465.5077 28.3852 L480.2208 28.3852 L471.6777 12.8947 L470.7285 12.0574 L470.7285 11.2201 L469.7792 10.3828 L468.83 8.7081 L468.83 7.8708 L467.8808 7.0335 L465.9823 3.6842 L465.9823 2.8469 L465.033 2.8469 Z" fill-rule="evenodd" clip-rule="evenodd" fill="white" stroke="none"/>
  <path d="M518.1902 2.8469 L518.1902 28.3852 L532.9034 28.3852 L532.9034 27.5478 L528.6318 20.012 L527.6826 19.1746 L527.6826 18.3373 L525.7841 14.988 L524.8349 14.1507 L523.411 11.6387 L523.411 10.8014 L522.4618 9.9641 L518.6648 2.8469 L518.1902 2.8469 Z" fill-rule="evenodd" clip-rule="evenodd" fill="white" stroke="none"/>
  <path d="M544.7688 2.8469 L544.7688 28.3852 L559.4819 28.3852 L559.0073 27.5478 L559.0073 26.7105 L557.5835 25.0359 L557.5835 24.1986 L556.6343 23.3612 L545.2434 2.8469 L544.7688 2.8469 Z" fill-rule="evenodd" clip-rule="evenodd" fill="white" stroke="none"/>
  <path d="M650.6085 2.8469 L650.6085 28.3852 L665.3217 28.3852 L665.3217 27.5478 L664.3725 26.7105 L664.3725 25.8732 L662.9486 24.1986 L662.9486 23.3612 L661.9994 22.5239 L651.0832 2.8469 L650.6085 2.8469 Z" fill-rule="evenodd" clip-rule="evenodd" fill="white" stroke="none"/>
  <path d="M676.7125 2.8469 L676.7125 27.9665 L677.1871 28.3852 L691.9003 28.3852 L683.8317 13.7321 L682.8826 12.8947 L682.8826 12.0574 L682.4079 11.2201 L681.4587 10.3828 L681.4587 9.5454 L680.5094 8.7081 L680.5094 7.8708 L679.5602 7.0335 L677.6618 3.2655 L676.7125 2.8469 Z" fill-rule="evenodd" clip-rule="evenodd" fill="white" stroke="none"/>
  <path d="M703.2911 2.8469 L703.2911 27.9665 L703.7657 28.3852 L718.4789 28.3852 L704.2403 3.2655 L703.2911 2.8469 Z" fill-rule="evenodd" clip-rule="evenodd" fill="white" stroke="none"/>
  <path d="M729.8697 2.8469 L729.8697 28.3852 L744.5828 28.3852 L744.5828 27.5478 L735.0905 10.8014 L734.1412 9.9641 L734.1412 9.1268 L732.7174 7.4521 L731.2935 4.9402 L731.2935 4.1029 L730.8189 3.2655 L729.8697 2.8469 Z" fill-rule="evenodd" clip-rule="evenodd" fill="white" stroke="none"/>
  <path d="M756.4483 2.8469 L756.4483 28.3852 L771.1615 28.3852 L771.1615 27.5478 L770.2122 26.7105 L769.2629 24.1986 L768.3138 23.3612 L756.9229 2.8469 L756.4483 2.8469 Z" fill-rule="evenodd" clip-rule="evenodd" fill="white" stroke="none"/>
  <path d="M205.4172 22.5239 L204.468 23.3612 L204.468 23.7799 L205.4172 25.0359 L206.3664 25.0359 L207.3156 24.1986 L207.3156 22.9426 L206.3664 22.5239 L205.4172 22.5239 Z" fill-rule="evenodd" clip-rule="evenodd" fill="white" stroke="none"/>
  <path d="M178.364 22.9426 L178.364 24.6172 L179.3132 25.0359 L180.2624 24.1986 L180.2624 23.3612 L179.7878 22.9426 L178.364 22.9426 Z" fill-rule="evenodd" clip-rule="evenodd" fill="white" stroke="none"/>
  <path d="M172.6686 32.9904 L172.6686 33.4091 L312.6808 33.4091 L312.6808 32.5718 L174.0924 32.5718 L172.6686 32.9904 Z" fill-rule="evenodd" clip-rule="evenodd" fill="white" stroke="none"/>
  <path d="M314.5793 32.5718 L314.5793 33.4091 L316.9523 33.4091 L317.4269 32.9904 L317.4269 32.5718 L314.5793 32.5718 Z" fill-rule="evenodd" clip-rule="evenodd" fill="white" stroke="none"/></g></svg>