<svg xmlns="http://www.w3.org/2000/svg" viewBox="0 0 950 35" fill="none"><g transform="translate(-746.0645,-27.4866) scale(2.5707)"><path d="M299.2047 1.5909 L299.2047 4.7727 L309.5456 4.7727 L309.5456 2.3864 L308.7502 1.5909 L299.2047 1.5909 Z" fill-rule="evenodd" clip-rule="evenodd" fill="white" stroke="none"/>
  <path d="M370.7955 1.5909 L370.7955 4.7727 L381.1364 4.7727 L381.1364 1.5909 L370.7955 1.5909 Z" fill-rule="evenodd" clip-rule="evenodd" fill="white" stroke="none"/>
  <path d="M442.3863 2.3864 L442.3863 3.9773 L443.1818 4.7727 L452.7272 4.7727 L452.7272 1.5909 L443.1818 1.5909 L442.3863 2.3864 Z" fill-rule="evenodd" clip-rule="evenodd" fill="white" stroke="none"/>
  <path d="M513.9772 2.3864 L513.9772 3.9773 L514.7727 4.7727 L524.3181 4.7727 L525.1135 3.9773 L525.1135 2.3864 L524.3181 1.5909 L514.7727 1.5909 L513.9772 2.3864 Z" fill-rule="evenodd" clip-rule="evenodd" fill="white" stroke="none"/>
  <path d="M585.5681 2.3864 L585.5681 3.9773 L586.3635 4.7727 L595.9089 4.7727 L596.7044 3.9773 L596.7044 2.3864 L595.9089 1.5909 L586.3635 1.5909 L585.5681 2.3864 Z" fill-rule="evenodd" clip-rule="evenodd" fill="white" stroke="none"/>
  <path d="M314.3183 25.4545 L314.3183 29.4318 L317.5001 31.8182 L318.2956 31.8182 L324.6592 25.4545 L325.4547 25.4545 L338.9774 11.9318 L339.7728 11.9318 L342.9547 15.1137 L342.9547 15.9091 L358.0683 31.0228 L360.4546 31.8182 L362.0455 33.4091 L363.6364 33.4091 L366.0228 30.2273 L366.0228 27.8409 L344.5456 6.3637 L343.7501 6.3637 L341.3637 3.9773 L339.7728 3.1818 L336.591 3.1818 L314.3183 25.4545 Z" fill-rule="evenodd" clip-rule="evenodd" fill="white" stroke="none"/>
  <path d="M385.9092 26.25 L385.9092 28.6363 L389.091 31.8182 L389.8864 31.8182 L396.25 25.4545 L397.0455 25.4545 L410.5683 11.9318 L411.3636 11.9318 L415.3409 15.9091 L415.3409 16.7045 L428.8636 30.2273 L429.6591 30.2273 L433.6364 33.4091 L435.2273 33.4091 L437.6137 30.2273 L437.6137 27.8409 L416.1364 6.3637 L415.3409 6.3637 L412.9546 3.9773 L411.3636 3.1818 L408.1818 3.1818 L387.5 23.8636 L387.5 24.6591 L385.9092 26.25 Z" fill-rule="evenodd" clip-rule="evenodd" fill="white" stroke="none"/>
  <path d="M457.5 26.25 L457.5 28.6363 L460.6818 31.8182 L461.4773 31.8182 L466.25 27.0455 L467.0454 27.0455 L482.159 11.9318 L484.5454 12.7273 L486.9318 15.9091 L486.9318 16.7045 L487.7273 16.7045 L489.3181 18.2955 L489.3181 19.091 L490.9091 20.6818 L491.7045 20.6818 L492.5 22.2727 L493.2954 22.2727 L494.8863 23.8636 L494.8863 24.6591 L502.8409 31.8182 L506.8181 33.4091 L508.409 32.6136 L509.2045 31.0228 L509.2045 27.0455 L507.6136 26.25 L505.2273 23.8636 L505.2273 23.0682 L503.6363 21.4773 L502.8409 21.4773 L502.0454 19.8864 L498.8636 16.7045 L498.0681 16.7045 L497.2727 15.1137 L496.4772 15.1137 L486.9318 5.5682 L486.1363 5.5682 L482.9545 3.1818 L479.7727 3.1818 L459.8863 23.0682 L459.8863 23.8636 L457.5 26.25 Z" fill-rule="evenodd" clip-rule="evenodd" fill="white" stroke="none"/>
  <path d="M529.0909 26.25 L529.0909 28.6363 L532.2726 31.8182 L533.0681 31.8182 L537.0453 27.8409 L537.8408 27.8409 L553.7499 11.9318 L554.5453 11.9318 L568.8635 26.25 L568.8635 27.0455 L574.4317 31.8182 L577.6135 33.4091 L579.2044 33.4091 L580.7953 31.0228 L580.7953 27.0455 L566.4771 12.7273 L565.6817 12.7273 L558.5227 5.5682 L557.7272 5.5682 L554.5453 3.1818 L551.3635 3.1818 L533.8636 20.6818 L533.8636 21.4773 L529.0909 26.25 Z" fill-rule="evenodd" clip-rule="evenodd" fill="white" stroke="none"/>
  <path d="M600.6817 26.25 L600.6817 28.6363 L603.8635 31.8182 L604.659 31.8182 L607.0453 29.4318 L607.8407 29.4318 L625.3407 11.9318 L626.1362 11.9318 L645.227 31.0228 L646.0225 31.0228 L649.2043 33.4091 L650.7952 33.4091 L652.3862 31.0228 L652.3862 27.0455 L636.4771 11.1364 L635.6817 11.1364 L629.318 4.7727 L626.1362 3.1818 L622.9544 3.1818 L606.2499 19.8864 L606.2499 20.6818 L600.6817 26.25 Z" fill-rule="evenodd" clip-rule="evenodd" fill="white" stroke="none"/>
  <path d="M317.5001 4.7727 L315.9092 7.1591 L316.7047 9.5455 L319.8865 11.9318 L321.4774 11.1364 L323.0683 11.1364 L323.8638 9.5455 L323.8638 7.1591 L323.0683 5.5682 L320.682 3.9773 L319.091 3.9773 L317.5001 4.7727 Z" fill-rule="evenodd" clip-rule="evenodd" fill="white" stroke="none"/>
  <path d="M390.6819 3.9773 L388.2955 5.5682 L387.5 7.9546 L389.8864 11.1364 L391.4773 11.9318 L393.0682 11.9318 L394.6592 11.1364 L395.4546 9.5455 L395.4546 6.3637 L393.8637 4.7727 L392.2728 3.9773 L390.6819 3.9773 Z" fill-rule="evenodd" clip-rule="evenodd" fill="white" stroke="none"/>
  <path d="M459.8863 5.5682 L459.8863 9.5455 L463.0682 11.9318 L464.659 11.1364 L466.25 11.1364 L467.0454 10.3409 L467.0454 6.3637 L463.8637 3.9773 L462.2727 3.9773 L459.8863 5.5682 Z" fill-rule="evenodd" clip-rule="evenodd" fill="white" stroke="none"/>
  <path d="M533.8636 3.9773 L531.4772 6.3637 L531.4772 9.5455 L533.0681 11.1364 L534.659 11.1364 L536.2499 11.9318 L538.6363 10.3409 L538.6363 6.3637 L537.0453 4.7727 L535.4545 3.9773 L533.8636 3.9773 Z" fill-rule="evenodd" clip-rule="evenodd" fill="white" stroke="none"/>
  <path d="M606.2499 3.9773 L603.068 6.3637 L603.068 9.5455 L604.659 11.1364 L606.2499 11.9318 L607.8407 11.9318 L610.2271 10.3409 L611.0226 8.75 L611.0226 7.1591 L607.8407 3.9773 L606.2499 3.9773 Z" fill-rule="evenodd" clip-rule="evenodd" fill="white" stroke="none"/>
  <path d="M354.091 5.5682 L353.2956 7.1591 L353.2956 8.75 L355.6819 11.9318 L359.6592 11.9318 L361.2501 10.3409 L361.2501 7.1591 L358.8637 4.7727 L355.6819 4.7727 L354.091 5.5682 Z" fill-rule="evenodd" clip-rule="evenodd" fill="white" stroke="none"/>
  <path d="M427.2728 4.7727 L424.8864 7.1591 L424.8864 8.75 L425.6818 10.3409 L428.0682 11.9318 L431.25 11.9318 L432.8409 10.3409 L432.8409 7.1591 L430.4546 4.7727 L427.2728 4.7727 Z" fill-rule="evenodd" clip-rule="evenodd" fill="white" stroke="none"/>
  <path d="M498.8636 4.7727 L496.4772 7.1591 L496.4772 8.75 L498.0681 10.3409 L498.0681 11.1364 L499.6591 11.9318 L502.8409 11.9318 L504.4318 10.3409 L504.4318 7.1591 L503.6363 5.5682 L502.0454 4.7727 L498.8636 4.7727 Z" fill-rule="evenodd" clip-rule="evenodd" fill="white" stroke="none"/>
  <path d="M570.4545 4.7727 L568.8635 6.3637 L568.8635 9.5455 L569.659 11.1364 L571.2498 11.9318 L574.4317 11.9318 L576.0226 10.3409 L576.0226 6.3637 L573.6362 4.7727 L570.4545 4.7727 Z" fill-rule="evenodd" clip-rule="evenodd" fill="white" stroke="none"/>
  <path d="M642.0453 4.7727 L640.4544 6.3637 L640.4544 9.5455 L642.8407 11.9318 L646.0225 11.9318 L647.6135 10.3409 L647.6135 6.3637 L645.227 4.7727 L642.0453 4.7727 Z" fill-rule="evenodd" clip-rule="evenodd" fill="white" stroke="none"/>
  <path d="M298.4092 9.5455 L299.2047 11.1364 L309.5456 11.1364 L310.341 10.3409 L309.5456 8.75 L299.2047 8.75 L298.4092 9.5455 Z" fill-rule="evenodd" clip-rule="evenodd" fill="white" stroke="none"/>
  <path d="M370.0001 9.5455 L370.7955 11.1364 L381.1364 11.1364 L381.9319 10.3409 L381.1364 8.75 L370.7955 8.75 L370.0001 9.5455 Z" fill-rule="evenodd" clip-rule="evenodd" fill="white" stroke="none"/>
  <path d="M441.5909 9.5455 L442.3863 11.1364 L452.7272 11.1364 L453.5227 10.3409 L452.7272 8.75 L442.3863 8.75 L441.5909 9.5455 Z" fill-rule="evenodd" clip-rule="evenodd" fill="white" stroke="none"/>
  <path d="M513.9772 8.75 L513.9772 11.1364 L524.3181 11.1364 L525.1135 10.3409 L524.3181 8.75 L513.9772 8.75 Z" fill-rule="evenodd" clip-rule="evenodd" fill="white" stroke="none"/>
  <path d="M585.5681 8.75 L585.5681 11.1364 L595.9089 11.1364 L596.7044 10.3409 L596.7044 8.75 L585.5681 8.75 Z" fill-rule="evenodd" clip-rule="evenodd" fill="white" stroke="none"/>
  <path d="M299.2047 15.1137 L299.2047 16.7045 L308.7502 16.7045 L308.7502 15.1137 L299.2047 15.1137 Z" fill-rule="evenodd" clip-rule="evenodd" fill="white" stroke="none"/>
  <path d="M370.7955 15.1137 L370.7955 16.7045 L380.341 16.7045 L380.341 15.1137 L370.7955 15.1137 Z" fill-rule="evenodd" clip-rule="evenodd" fill="white" stroke="none"/>
  <path d="M442.3863 15.1137 L442.3863 16.7045 L451.9319 16.7045 L451.9319 15.1137 L442.3863 15.1137 Z" fill-rule="evenodd" clip-rule="evenodd" fill="white" stroke="none"/>
  <path d="M513.9772 15.1137 L513.9772 16.7045 L523.5227 16.7045 L523.5227 15.1137 L513.9772 15.1137 Z" fill-rule="evenodd" clip-rule="evenodd" fill="white" stroke="none"/>
  <path d="M585.5681 15.1137 L585.5681 16.7045 L595.9089 16.7045 L595.9089 15.1137 L585.5681 15.1137 Z" fill-rule="evenodd" clip-rule="evenodd" fill="white" stroke="none"/>
  <path d="M298.4092 22.2727 L298.4092 23.8636 L299.2047 24.6591 L308.7502 24.6591 L309.5456 23.8636 L309.5456 23.0682 L307.9547 21.4773 L300.7956 21.4773 L300.0002 22.2727 L298.4092 22.2727 Z" fill-rule="evenodd" clip-rule="evenodd" fill="white" stroke="none"/>
  <path d="M370.0001 23.0682 L370.7955 24.6591 L380.341 24.6591 L381.1364 23.8636 L381.1364 22.2727 L379.5455 21.4773 L372.3864 21.4773 L370.0001 23.0682 Z" fill-rule="evenodd" clip-rule="evenodd" fill="white" stroke="none"/>
  <path d="M441.5909 23.0682 L441.5909 23.8636 L443.1818 24.6591 L451.9319 24.6591 L452.7272 23.8636 L452.7272 22.2727 L451.1364 21.4773 L443.9773 21.4773 L441.5909 23.0682 Z" fill-rule="evenodd" clip-rule="evenodd" fill="white" stroke="none"/>
  <path d="M513.9772 22.2727 L513.9772 23.8636 L514.7727 24.6591 L523.5227 24.6591 L524.3181 23.8636 L524.3181 22.2727 L522.7272 21.4773 L515.5681 21.4773 L513.9772 22.2727 Z" fill-rule="evenodd" clip-rule="evenodd" fill="white" stroke="none"/>
  <path d="M585.5681 22.2727 L585.5681 23.8636 L586.3635 24.6591 L595.1135 24.6591 L595.9089 23.8636 L595.9089 22.2727 L594.3181 21.4773 L587.159 21.4773 L585.5681 22.2727 Z" fill-rule="evenodd" clip-rule="evenodd" fill="white" stroke="none"/>
  <path d="M478.9772 23.8636 L477.3863 26.25 L477.3863 27.8409 L478.9772 29.4318 L478.9772 30.2273 L480.5682 31.0228 L482.9545 31.0228 L485.3409 29.4318 L485.3409 26.25 L484.5454 24.6591 L483.7499 24.6591 L482.159 23.0682 L480.5682 23.8636 L478.9772 23.8636 Z" fill-rule="evenodd" clip-rule="evenodd" fill="white" stroke="none"/>
  <path d="M334.2047 25.4545 L334.2047 27.8409 L335.7956 30.2273 L337.3865 31.0228 L339.7728 31.0228 L341.3637 30.2273 L342.1592 28.6363 L342.1592 26.25 L339.7728 23.8636 L335.7956 23.8636 L334.2047 25.4545 Z" fill-rule="evenodd" clip-rule="evenodd" fill="white" stroke="none"/>
  <path d="M407.3864 23.8636 L405.7955 26.25 L405.7955 27.8409 L406.591 29.4318 L408.9773 31.0228 L411.3636 31.0228 L412.9546 30.2273 L413.75 28.6363 L413.75 26.25 L411.3636 23.8636 L407.3864 23.8636 Z" fill-rule="evenodd" clip-rule="evenodd" fill="white" stroke="none"/>
  <path d="M548.9771 26.25 L549.7726 28.6363 L552.159 31.0228 L554.5453 31.0228 L556.9317 29.4318 L556.9317 25.4545 L555.3408 23.8636 L551.3635 23.8636 L548.9771 26.25 Z" fill-rule="evenodd" clip-rule="evenodd" fill="white" stroke="none"/>
  <path d="M622.9544 23.8636 L621.3634 25.4545 L621.3634 28.6363 L624.5453 31.0228 L626.9316 31.0228 L628.5226 29.4318 L628.5226 25.4545 L626.9316 23.8636 L622.9544 23.8636 Z" fill-rule="evenodd" clip-rule="evenodd" fill="white" stroke="none"/>
  <path d="M297.6138 29.4318 L297.6138 31.0228 L299.2047 32.6136 L307.1592 32.6136 L309.5456 31.0228 L309.5456 29.4318 L308.7502 28.6363 L298.4092 28.6363 L297.6138 29.4318 Z" fill-rule="evenodd" clip-rule="evenodd" fill="white" stroke="none"/>
  <path d="M369.2046 29.4318 L369.2046 31.0228 L370.7955 32.6136 L379.5455 32.6136 L381.1364 31.8182 L381.1364 29.4318 L380.341 28.6363 L370.0001 28.6363 L369.2046 29.4318 Z" fill-rule="evenodd" clip-rule="evenodd" fill="white" stroke="none"/>
  <path d="M440.7954 29.4318 L440.7954 31.0228 L442.3863 32.6136 L451.1364 32.6136 L452.7272 31.8182 L452.7272 29.4318 L451.9319 28.6363 L441.5909 28.6363 L440.7954 29.4318 Z" fill-rule="evenodd" clip-rule="evenodd" fill="white" stroke="none"/>
  <path d="M512.3863 30.2273 L512.3863 31.0228 L513.9772 32.6136 L522.7272 32.6136 L524.3181 31.8182 L524.3181 29.4318 L523.5227 28.6363 L513.9772 28.6363 L512.3863 30.2273 Z" fill-rule="evenodd" clip-rule="evenodd" fill="white" stroke="none"/>
  <path d="M584.7726 29.4318 L584.7726 31.8182 L586.3635 32.6136 L594.3181 32.6136 L595.9089 31.8182 L595.9089 29.4318 L595.1135 28.6363 L585.5681 28.6363 L584.7726 29.4318 Z" fill-rule="evenodd" clip-rule="evenodd" fill="white" stroke="none"/></g></svg>