<svg xmlns="http://www.w3.org/2000/svg" viewBox="0 0 950 35" fill="none"><g transform="translate(-409.7459,-15.1337) scale(1.8648)"><path d="M357.0175 2.9995 C356.9933 3.7941 357.4953 4.897 358.1331 5.4505 C359.3767 6.5295 363.2551 7.7677 365.3981 7.7698 C367.3752 7.7717 366.9697 8.4009 364.8364 8.6411 C361.4455 9.023 358.9226 8.4325 353.978 6.0997 C349.374 3.9276 346.8405 3.0668 345.052 3.0668 C344.6191 3.0668 345.4361 3.5582 346.8675 4.1588 C348.2989 4.7595 350.7404 6.385 352.2931 7.771 C354.6992 9.919 355.6085 10.4028 358.45 11.0472 C360.2837 11.463 362.6869 11.8032 363.7906 11.8032 C365.2544 11.8032 365.9132 12.0103 366.2254 12.5686 C366.976 13.9104 370.7589 15.2235 374.405 15.408 C378.1498 15.5973 380.3797 15.1852 382.1426 13.978 C383.611 12.9724 383.0302 11.6339 380.9038 11.1233 C379.5463 10.7973 379.4367 10.842 379.8375 11.5585 C380.8109 13.2988 374.8894 13.6721 373.4403 11.9619 C371.2828 9.4155 379.1575 7.3577 384.2206 9.1448 C388.5852 10.6853 389.6419 13.2388 386.7255 15.1977 C381.8403 18.4789 369.3432 18.2258 359.6143 14.6487 C357.5525 13.8906 353.8302 11.8069 350.6001 9.6027 C344.3988 5.371 340.4932 3.6792 335.0534 2.8685 C329.6652 2.0655 325.1593 2.3981 318.9294 4.0588 C313.2766 5.5657 308.9517 5.8306 305.021 4.9108 C302.8724 4.408 302.8699 4.4086 303.9838 5.1649 C307.042 7.2412 312.9988 7.6488 321.7671 6.3817 C326.6624 5.6742 327.2895 5.6514 329.1281 6.1139 C334.0706 7.357 333.7394 9.7968 328.5331 10.4967 C325.7453 10.8715 324.8719 10.8122 318.261 9.7994 C308.7461 8.3416 303.2582 8.1517 297.7287 9.0888 C295.4164 9.4806 292.8891 10.1265 292.1123 10.5239 C291.3355 10.9215 291.1402 11.1309 291.6783 10.9894 C292.2164 10.8478 294.5752 10.6112 296.9202 10.4636 C306.115 9.8845 317.5125 11.8392 315.9973 13.7353 C315.5991 14.2337 312.1561 14.2859 309.5058 13.8337 C308.0515 13.5856 307.7065 13.6123 307.9958 13.9507 C308.619 14.6794 312.3831 15.7602 315.689 16.1597 C319.7318 16.6481 322.829 16.2623 328.7777 14.5292 C334.536 12.8516 337.2939 12.3787 339.7206 12.6526 L341.622 12.8673 L339.189 13.3269 C336.6879 13.7994 329.2659 16.8961 329.2659 17.4672 C329.2659 17.643 331.0721 17.3479 333.2798 16.8114 C338.6561 15.5048 344.3344 15.0327 348.8614 15.516 C354.8885 16.1594 356.5081 17.9718 351.8325 18.8408 C350.0937 19.164 349.0729 19.1129 345.8388 18.5409 C341.6788 17.8052 337.1402 17.6356 336.38 18.1875 C336.1254 18.3723 336.6277 18.5235 337.4963 18.5235 C340.0397 18.5235 343.3796 19.4657 344.6047 20.5286 C345.8218 21.5848 346.0246 23.6431 345.0195 24.7399 L344.4037 25.4119 L343.9011 24.7399 C342.504 22.8715 340.6711 21.7605 337.6946 20.9778 C334.6809 20.1853 333.976 20.1368 328.2942 20.3314 C324.9158 20.4471 320.7196 20.6327 318.9691 20.744 C315.9402 20.9365 315.7865 20.905 315.7865 20.0908 C315.7865 19.6202 316.1235 19.1418 316.5354 19.0276 C318.0017 18.6209 317.2435 18.2705 314.4662 18.0712 C311.485 17.8573 307.7027 16.8436 300.577 14.3487 C296.0405 12.7603 290.4901 11.8032 285.8155 11.8032 C281.3852 11.8032 276.5024 12.63 270.1732 14.4517 C262.7764 16.5808 257.6628 17.4974 251.8154 17.7424 C246.5107 17.9647 239.4655 17.2763 233.8685 15.9889 C231.8539 15.5255 230.0762 15.2044 229.9179 15.2754 C229.7597 15.3464 231.4943 16.0498 233.7726 16.8385 C239.3161 18.7575 246.2797 19.8687 252.7296 19.8636 C259.0435 19.8586 263.1858 19.3595 273.2072 17.3964 C282.4994 15.5761 288.0212 15.3032 290.9331 16.5205 C293.1786 17.4593 293.1064 19.023 290.786 19.7052 C289.1441 20.1879 288.676 20.175 284.9824 19.5451 C282.7727 19.1683 279.384 18.8598 277.4519 18.8597 C273.524 18.8595 271.9787 19.3223 275.5222 19.4376 C276.7732 19.4784 279.8575 20.112 282.3762 20.8458 C288.1852 22.5382 290.3187 22.8918 294.7207 22.8918 C297.3775 22.8918 299.1601 22.6384 301.8121 21.8837 C305.8005 20.7488 307.1855 20.6378 307.8381 21.401 C308.5997 22.2915 306.3058 23.7463 303.1256 24.3898 C298.2751 25.3712 292.9805 24.9741 283.5858 22.9241 C273.6546 20.7572 268.3018 20.3944 263.0601 21.533 C261.1694 21.9436 259.6225 22.4227 259.6225 22.5975 C259.6225 22.7758 260.331 22.7453 261.2359 22.528 C263.7572 21.9225 269.2923 22.0553 274.3887 22.8435 C276.9499 23.2397 279.6006 23.5638 280.2792 23.5638 C280.9578 23.5638 283.0746 24.074 284.9832 24.6977 C291.929 26.9672 294.6471 27.422 301.1839 27.4086 C306.5889 27.3974 307.9069 27.2523 314.6632 25.9249 C324.0336 24.0838 330.6455 23.7324 333.9462 24.9001 C336.3035 25.7341 336.6552 27.0303 334.8398 28.1933 C333.4454 29.0865 329.3394 29.1995 324.9751 28.4647 C317.9529 27.2823 313.0356 27.5975 308.9425 29.4923 L306.431 30.6551 L309.2126 30.1336 C313.8043 29.2727 317.3001 29.4681 323.4457 30.9291 C330.2026 32.5355 333.5063 32.8494 337.8762 32.3004 C342.4164 31.73 346.3136 30.1314 349.8492 27.3892 C356.3505 22.3467 365.1788 19.6459 374.1971 19.9408 C381.6989 20.186 385.8449 21.7643 385.6956 24.3181 C385.5857 26.1988 382.9283 27.26 378.3284 27.26 C375.6837 27.26 374.7565 27.0899 373.5026 26.3746 C371.5941 25.286 371.5577 24.8355 373.32 24.1199 C375.0222 23.4287 376.7238 23.4095 377.9414 24.0678 C379.2077 24.7525 380.1879 24.7019 380.1879 23.9519 C380.1879 23.074 377.8235 22.2234 374.7634 22.0006 C368.4341 21.5397 359.8746 23.6977 355.3587 26.8929 C352.4831 28.9275 352.68 29.2117 355.9715 27.7774 C357.4798 27.1201 360.048 26.4029 361.6787 26.1837 C364.3384 25.8261 364.7535 25.8524 365.7135 26.4385 C366.665 27.0195 366.6342 27.105 365.4356 27.2091 C360.0024 27.6813 356.9735 29.3896 356.9735 31.9814 L356.9735 33.4091 L359.1965 32.0321 C362.8013 29.7992 365.5224 29.4976 373.4482 30.4521 C381.3884 31.4084 386.979 30.9013 391.8674 28.7813 C394.2987 27.7269 395.1728 27.0347 395.8253 25.6474 C396.2859 24.668 396.6627 23.5264 396.6627 23.1104 C396.6627 22.1449 397.9976 21.5477 400.156 21.5477 C402.1741 21.5477 403.4024 22.4449 403.4024 23.9189 C403.4024 24.815 403.5794 24.9243 404.4846 24.5871 C405.0799 24.3655 406.1165 23.4416 406.7882 22.5341 C407.46 21.6267 408.8718 20.5799 409.9257 20.2079 C411.811 19.5425 412.8445 19.5316 474.3193 19.5316 C518.0052 19.5316 537.2559 19.6418 538.3231 19.8981 C539.1625 20.0997 540.8828 21.2715 542.1461 22.5022 L544.4428 24.7399 L545.1469 23.4631 C545.5641 22.7065 546.6193 21.9604 547.7366 21.6319 C549.5379 21.1023 549.6849 21.1122 551.0233 21.8539 C551.7938 22.2808 552.4261 23.1049 552.4284 23.685 C552.4363 25.6728 554.0424 27.4024 557.1933 28.8163 C561.8924 30.9248 567.549 31.4264 575.6387 30.4521 C582.3894 29.6391 585.1491 29.7735 587.8825 31.0482 C589.1799 31.6533 590.6428 32.4471 591.1334 32.8123 C591.9295 33.4049 592.0302 33.3396 592.0695 32.2054 C592.0937 31.5065 591.6283 30.4135 591.0353 29.7767 C589.9191 28.5779 586.0381 27.2634 583.6088 27.2612 C582.6489 27.2604 582.359 27.0954 582.6727 26.7285 C582.9228 26.4361 583.1273 26.1337 583.1273 26.0564 C583.1273 25.9792 583.818 25.9159 584.6622 25.9159 C586.826 25.9159 590.5554 26.8171 593.5085 28.0536 L596.0268 29.108 L594.44 27.6893 C592.0914 25.5895 588.6071 23.967 584.318 22.9758 C577.4577 21.3904 568.899 21.9323 568.899 23.9519 C568.899 24.7019 569.8792 24.7525 571.1456 24.0678 C572.4046 23.3872 573.8513 23.4338 575.5831 24.2109 C578.5445 25.5397 575.3507 27.26 569.9223 27.26 C567.339 27.26 566.4435 27.0776 564.8469 26.2261 C559.1457 23.1859 566.6976 19.4687 577.561 19.968 C585.7469 20.3442 593.103 22.842 598.7087 27.149 C602.5625 30.1098 606.7425 31.7791 611.6167 32.3038 C616.2367 32.8011 618.7937 32.546 625.9737 30.8718 C631.0113 29.6971 632.2109 29.5463 635.3343 29.6955 C637.3047 29.7897 639.5908 29.9746 640.4146 30.1063 C641.4803 30.2768 641.2187 30.051 639.5078 29.3235 C635.3805 27.5684 630.9146 27.3193 624.1119 28.4647 C617.7083 29.5429 613.0814 28.8044 613.0814 26.7041 C613.0814 23.8664 620.9006 23.4009 632.1951 25.5662 C636.0119 26.2979 640.7066 27.0742 642.6276 27.2912 C649.2649 28.0412 656.5338 27.2196 663.0955 24.9778 C666.3543 23.8646 677.6935 22.2197 682.1094 22.2197 C684.0418 22.2197 686.5552 22.3788 687.695 22.5733 C689.7377 22.9217 689.7477 22.9171 688.4021 22.2499 C684.3121 20.222 676.3953 20.4502 665.2199 22.9182 C655.413 25.0839 650.4512 25.4191 645.3806 24.2584 C642.0975 23.5068 640.2699 22.3033 641.0415 21.4011 C641.5432 20.8145 644.187 20.6885 644.9143 21.2165 C645.1726 21.4039 646.7666 21.8739 648.4568 22.2608 C653.4767 23.4099 658.7025 23.0607 665.6779 21.1099 C669.4447 20.0564 672.1465 19.5316 673.803 19.5316 C676.7202 19.5316 675.9369 19.0381 672.5741 18.7575 C671.1232 18.6364 668.4253 18.8583 665.199 19.3642 C661.6096 19.927 659.6123 20.0766 658.4157 19.8725 C655.2067 19.3251 655.4824 16.9589 658.8494 16.1503 C661.8661 15.4259 668.9787 15.9762 676.7115 17.5323 C685.5306 19.307 690.0654 19.8585 695.881 19.8636 C703.6395 19.8704 709.8675 18.7971 716.5027 16.3096 C720.2403 14.9085 719.9331 14.8855 714.3819 16.1513 C702.9193 18.765 693.3292 18.3943 680.3065 14.8344 C676.2994 13.7389 671.4856 12.6088 669.6092 12.3229 C662.014 11.1659 655.5596 11.9185 646.266 15.0449 C639.4477 17.3386 635.9518 18.1875 633.3245 18.1875 C631.7252 18.1875 631.2774 18.6742 632.5516 19.0276 C632.9635 19.1418 633.3005 19.6202 633.3005 20.0908 C633.3005 20.9035 633.1416 20.9366 630.1178 20.7528 C628.3674 20.6465 624.0709 20.4683 620.57 20.3568 C615.1389 20.1839 613.8235 20.2491 611.6078 20.801 C608.5031 21.5743 606.6113 22.6456 605.2787 24.3848 L604.2933 25.6711 L603.3943 23.9895 C602.6526 22.6023 602.686 22.1031 603.5849 21.1378 C604.7143 19.9249 608.3378 18.5235 610.3446 18.5235 C610.9775 18.5235 611.7036 18.3723 611.9581 18.1875 C612.679 17.6642 606.8845 17.784 603.8363 18.3556 C596.4825 19.7342 591.0877 17.9672 596.8067 16.0531 C598.4589 15.5002 599.9431 15.3639 604.1284 15.3811 C608.5438 15.3993 610.1987 15.5855 614.545 16.5536 L619.7122 17.7045 L618.4562 16.7372 C617.0896 15.6848 613.2639 14.2199 609.7116 13.3887 C607.7854 12.938 607.6552 12.8297 608.7986 12.6292 C611.1075 12.2244 614.4314 12.7455 619.5288 14.3116 C622.2422 15.1453 625.7613 15.9844 627.3489 16.1762 C631.5777 16.6871 636.2731 16.0643 639.3982 14.5781 C641.1838 13.7288 641.4783 13.4614 640.4146 13.6552 C637.7916 14.1331 633.5014 14.2371 632.9492 13.8361 C631.9403 13.1037 634.7513 11.8594 639.0803 11.1222 C643.7916 10.3199 651.1339 10.163 655.7661 10.7656 L658.387 11.1066 L656.1405 10.2824 C650.298 8.139 642.9416 7.9363 632.1849 9.6225 C623.849 10.9292 622.1936 11.0154 619.1228 10.3029 C615.0766 9.364 615.7241 6.9439 620.2701 6.0145 C621.7892 5.704 623.134 5.7767 627.4788 6.4047 C630.4166 6.8292 634.1312 7.1685 635.7337 7.1585 C639.2158 7.1369 643.5848 6.1874 645.1885 5.1037 L646.3481 4.32 L643.9801 4.8695 C639.8739 5.8223 636.2026 5.5779 628.9941 3.8719 C623.1936 2.4992 622.0345 2.341 618.7054 2.468 C611.0662 2.7593 605.8093 4.5501 599.2577 9.0928 C593.568 13.038 588.9312 15.1622 583.3208 16.3939 C577.8085 17.604 570.5365 17.8448 566.6674 16.9453 C557.3949 14.7896 559.4883 8.5033 569.4947 8.455 C574.2755 8.4319 577.5939 11.2139 574.462 12.6193 C572.0553 13.6991 568.2976 12.8715 569.1292 11.4447 C569.5068 10.7967 569.4189 10.7813 567.907 11.2294 C564.6707 12.1886 565.7239 14.4341 569.7621 15.1846 C574.561 16.0765 581.6964 14.6515 582.8615 12.5686 C583.1597 12.0355 583.8404 11.8032 585.1046 11.8032 C587.7001 11.8032 591.4646 11.0155 593.4177 10.0638 C594.3411 9.6139 596.0808 8.3339 597.2839 7.2195 C598.487 6.105 600.5377 4.7148 601.8409 4.13 C603.1441 3.5452 603.7841 3.0668 603.263 3.0668 C601.5932 3.0668 597.8068 4.4356 595.1163 6.0118 C590.8735 8.4975 586.7235 9.3067 582.9123 8.3914 C581.4103 8.0307 581.5406 7.9721 584.7897 7.547 C589.872 6.882 592.9687 4.6414 591.7691 2.4969 L591.2624 1.5909 L589.622 2.9169 C588.6029 3.7406 586.8805 4.4846 585.0746 4.8812 C582.2888 5.4928 581.9454 5.4962 576.8438 4.9608 C573.9157 4.6536 570.2112 4.4042 568.6115 4.4065 C559.3341 4.4203 552.4463 7.3114 552.4284 11.1994 C552.4217 12.6698 550.9002 13.8193 548.9606 13.8193 C547.205 13.8193 545.9604 13.0995 544.9279 11.4868 C544.4214 10.6957 544.1979 10.8033 542.1242 12.838 C540.4596 14.4713 539.3097 15.1532 537.723 15.448 C536.11 15.7477 520.0695 15.8247 473.3114 15.7573 C402.7275 15.6554 409.0869 15.9382 406.7621 12.7976 C406.1047 11.9095 405.0799 11.0016 404.4846 10.7799 C403.5754 10.4413 403.4024 10.5677 403.4024 11.5701 C403.4024 12.8815 401.8299 13.8193 399.631 13.8193 C397.7931 13.8193 396.9742 13.0612 396.4178 10.8447 C395.1272 5.704 385.7539 3.397 372.4448 4.9445 C365.4935 5.7527 362.0553 5.0987 357.9536 2.1878 C357.1808 1.6394 357.0556 1.7479 357.0175 2.9995 Z" fill-rule="evenodd" clip-rule="evenodd" fill="white" stroke="none"/></g></svg>