<svg xmlns="http://www.w3.org/2000/svg" viewBox="0 0 950 35" fill="none"><g transform="translate(-3238.4251,-121.188) scale(7.8177)"><path d="M 434.2957 3.7507 C 466.9766 3.7507 499.6576 3.7507 533.3289 3.7507 C 533.3289 13.4442 533.3289 23.1377 533.3289 33.125 C 500.6479 33.125 467.967 33.125 434.2957 33.125 C 434.2957 23.4315 434.2957 13.738 434.2957 3.7507 Z" fill-rule="evenodd" clip-rule="evenodd" fill="#FCFCFC" stroke="none"/>
  <path d="M 434.2957 3.7507 C 448.4205 3.7507 462.5453 3.7507 477.0982 3.7507 C 473.6373 14.1333 473.6373 14.1333 469.5677 16.4381 C 465.9552 17.7855 461.9545 17.3873 458.1622 17.3363 C 457.3399 17.3309 456.5175 17.3255 455.6703 17.3199 C 449.911 17.2589 444.213 17.0156 438.492 16.3397 C 439.013 13.2487 439.3873 11.6592 441.849 9.6256 C 441.5721 9.3486 441.2951 9.0717 441.0098 8.7863 C 440.352 8.9594 439.6942 9.1325 439.0165 9.3109 C 436.8135 9.6256 436.8135 9.6256 435.2923 8.629 C 434.2957 7.1078 434.2957 7.1078 434.2957 3.7507 Z" fill-rule="evenodd" clip-rule="evenodd" fill="#212121" stroke="none"/>
  <path d="M 434.2957 3.7507 C 448.4205 3.7507 462.5453 3.7507 477.0982 3.7507 C 475.4196 7.9471 475.4196 7.9471 473.6362 9.0486 C 473.3765 9.1438 473.3765 9.1438 472.0626 9.6256 C 471.2317 9.0717 470.4008 8.5178 469.5448 7.9471 C 469.8044 8.4144 470.0641 8.8818 470.3316 9.3633 C 471.2728 11.4118 471.656 13.2916 472.0626 15.5004 C 466.19 16.9279 460.6798 17.4692 454.6616 17.4439 C 453.3227 17.4412 451.9853 17.4612 450.6466 17.4822 C 449.7805 17.4841 448.9145 17.4847 448.0485 17.4839 C 447.6642 17.4851 447.6642 17.4851 445.7198 17.4914 C 442.9542 17.0972 441.5679 16.3178 439.3312 14.6612 C 439.3312 14.1073 439.3312 13.5533 439.3312 12.9826 C 438.945 12.8928 438.5588 12.8031 438.1609 12.7105 C 436.4815 12.0037 436.1734 11.4051 435.3972 9.7829 C 435.1862 9.3621 434.9753 8.9413 434.7579 8.5077 C 434.2957 7.1078 434.2957 7.1078 434.2957 3.7507 Z" fill-rule="evenodd" clip-rule="evenodd" fill="#131313" stroke="none"/>
  <path d="M 434.2957 3.7507 C 435.6325 3.9538 436.969 4.1586 438.3046 4.3699 C 441.6461 4.764 444.9959 4.6803 448.3563 4.6531 C 449.7075 4.6422 451.0586 4.6369 452.4099 4.6328 C 455.2715 4.6233 458.1331 4.6071 460.9948 4.59 C 464.3276 4.5702 467.6604 4.5531 470.9933 4.543 C 472.3239 4.5376 473.6544 4.5271 474.985 4.5164 C 475.7892 4.5137 476.5935 4.5109 477.4221 4.508 C 478.1312 4.5036 478.8403 4.4992 479.5709 4.4947 C 481.2945 4.59 481.2945 4.59 482.973 5.4293 C 484.1257 5.4871 485.281 5.5003 486.435 5.4817 C 487.043 5.4741 487.651 5.4666 488.2774 5.4588 C 488.7426 5.449 489.2078 5.4393 489.6871 5.4293 C 489.6871 6.814 489.6871 8.1988 489.6871 9.6256 C 489.193 9.566 488.6989 9.5063 488.1899 9.4449 C 480.6608 8.6412 473.1657 8.6795 465.6009 8.7044 C 464.184 8.7059 462.7672 8.7071 461.3503 8.708 C 457.6513 8.7111 453.9524 8.7194 450.2534 8.7287 C 446.4668 8.7373 442.6802 8.7411 438.8936 8.7453 C 431.4861 8.7543 424.0786 8.7686 416.6711 8.7863 C 416.6711 7.4015 416.6711 6.0167 416.6711 4.59 C 416.9231 4.5922 416.9231 4.5922 418.1986 4.6033 C 420.4695 4.6207 422.7404 4.6317 425.0113 4.6424 C 425.8048 4.6495 426.5984 4.6565 427.416 4.6638 C 428.1706 4.6665 428.9252 4.6692 429.7026 4.672 C 430.4015 4.6764 431.1003 4.6807 431.8203 4.6853 C 433.4564 4.59 433.4564 4.59 434.2957 3.7507 Z" fill-rule="evenodd" clip-rule="evenodd" fill="#0D0D0D" stroke="none"/>
  <path d="M 434.2957 3.7507 C 434.9593 3.7551 435.623 3.7595 436.3067 3.764 C 436.6651 3.7654 436.6651 3.7654 438.4787 3.7722 C 439.2322 3.7793 439.9857 3.7863 440.7621 3.7936 C 441.5188 3.7973 442.2756 3.8011 443.0553 3.805 C 444.9311 3.815 446.8068 3.8288 448.6826 3.846 C 447.227 7.9046 447.227 7.9046 445.2206 9.1439 C 444.7014 9.3343 444.1821 9.5247 443.647 9.7209 C 442.8162 9.1669 441.9853 8.613 441.1292 8.0423 C 441.2591 8.276 441.2591 8.276 441.916 9.4586 C 442.8572 11.5071 443.2404 13.3869 443.647 15.5957 C 438.5438 16.7669 433.7822 17.5378 428.5403 17.2742 C 428.5403 16.1664 428.5403 15.0586 428.5403 13.9172 C 427.9863 13.6402 427.4324 13.3633 426.8617 13.0779 C 427.6926 13.0779 428.5235 13.0779 429.3795 13.0779 C 429.1026 12.247 428.8256 11.4162 428.5403 10.5601 C 428.9384 10.2139 429.3365 9.8677 429.7467 9.511 C 431.2052 7.8775 431.475 6.7967 431.8973 4.6853 C 432.7366 3.846 432.7366 3.846 434.2957 3.7507 Z" fill-rule="evenodd" clip-rule="evenodd" fill="#333333" stroke="none"/>
  <path d="M 434.2957 3.7507 C 439.8348 3.7507 445.374 3.7507 451.081 3.7507 C 452.1888 6.2433 453.2966 8.736 454.438 11.3041 C 453.6071 11.5811 452.7763 11.858 451.9202 12.1434 C 452.4741 13.2512 453.028 14.359 453.5987 15.5004 C 451.9202 17.179 451.9202 17.179 450.497 17.2925 C 450.2201 17.2705 450.2201 17.2705 448.8189 17.1593 C 448.2184 17.116 447.618 17.0727 446.9994 17.0282 C 446.6862 17.0011 446.6862 17.0011 445.1012 16.8642 C 444.4683 16.8166 443.8354 16.769 443.1833 16.72 C 441.6188 16.6012 440.0553 16.4741 438.492 16.3397 C 439.013 13.2487 439.3873 11.6592 441.849 9.6256 C 441.5721 9.3486 441.2951 9.0717 441.0098 8.7863 C 440.352 8.9594 439.6942 9.1325 439.0165 9.3109 C 436.8135 9.6256 436.8135 9.6256 435.2923 8.629 C 434.2957 7.1078 434.2957 7.1078 434.2957 3.7507 Z" fill-rule="evenodd" clip-rule="evenodd" fill="#323232" stroke="none"/>
  <path d="M 434.2957 3.7507 C 441.2196 3.7507 448.1435 3.7507 455.2773 3.7507 C 455.0003 4.5816 454.7234 5.4125 454.438 6.2685 C 454.438 5.7146 454.438 5.1607 454.438 4.59 C 451.9454 5.1439 449.4528 5.6978 446.8846 6.2685 C 446.6077 7.3764 446.3307 8.4842 446.0454 9.6256 C 446.8762 10.1795 447.7071 10.7334 448.5632 11.3041 C 447.7323 11.858 446.9014 12.4119 446.0454 12.9826 C 446.5993 12.9826 447.1532 12.9826 447.7239 12.9826 C 448.0009 12.7057 448.2778 12.4287 448.5632 12.1434 C 449.1171 11.8664 449.671 11.5895 450.2417 11.3041 C 450.2417 12.4119 450.2417 13.5198 450.2417 14.6612 C 450.7956 14.9381 451.3495 15.2151 451.9202 15.5004 C 447.5188 16.3288 443.8427 16.8137 439.7542 14.7267 C 435.6852 11.8098 435.1076 8.6227 434.2957 3.7507 Z" fill-rule="evenodd" clip-rule="evenodd" fill="#161616" stroke="none"/>
  <path d="M 434.2957 3.7507 C 442.3089 4.4578 442.3089 4.4578 445.2061 6.2685 C 445.8355 8.052 445.8355 8.052 446.0454 9.6256 C 444.3836 10.1795 442.7219 10.7334 441.0098 11.3041 C 441.2867 12.4119 441.5637 13.5198 441.849 14.6612 C 444.0647 15.2151 446.2804 15.769 448.5632 16.3397 C 448.5632 16.6167 448.5632 16.8936 448.5632 17.179 C 444.1318 17.179 439.7005 17.179 435.1349 17.179 C 434.858 16.6251 434.581 16.0711 434.2957 15.5004 C 434.8496 15.2235 435.4035 14.9465 435.9742 14.6612 C 435.4203 13.5533 434.8664 12.4455 434.2957 11.3041 C 435.1265 11.0272 435.9574 10.7502 436.8135 10.4648 C 435.9826 8.2492 435.1517 6.0335 434.2957 3.7507 Z" fill-rule="evenodd" clip-rule="evenodd" fill="#0D0D0D" stroke="none"/>
  <path d="M 434.2957 3.7507 C 434.6286 3.7502 434.6286 3.7502 436.3135 3.7475 C 436.6594 3.7491 436.6594 3.7491 438.41 3.7573 C 439.1051 3.754 439.8002 3.7508 440.5164 3.7475 C 440.8488 3.748 440.8488 3.748 442.5309 3.7507 C 442.835 3.7512 442.835 3.7512 444.3736 3.7536 C 445.9109 3.8622 445.9109 3.8622 447.5895 4.7015 C 448.7421 4.7593 449.8975 4.7725 451.0514 4.7539 C 451.6595 4.7463 452.2675 4.7388 452.8939 4.731 C 453.3591 4.7212 453.8243 4.7115 454.3036 4.7015 C 454.3036 6.0862 454.3036 7.471 454.3036 8.8978 C 453.8027 8.8372 453.3018 8.7766 452.7857 8.7142 C 447.0499 8.1006 441.3999 7.9944 435.6318 8.0897 C 435.0427 8.0967 434.4535 8.1037 433.8465 8.111 C 433.3207 8.1207 432.7949 8.1304 432.2532 8.1405 C 430.7858 8.0575 429.6503 7.7506 428.2864 7.2193 C 428.2864 6.3884 428.2864 5.5575 428.2864 4.7015 C 430.3415 3.8866 432.0923 3.7542 434.2957 3.7507 Z" fill-rule="evenodd" clip-rule="evenodd" fill="#1C1C1C" stroke="none"/>
  <path d="M 434.2957 3.7507 C 436.7883 3.7507 439.2809 3.7507 441.849 3.7507 C 438.6088 13.236 438.6088 13.236 434.2957 15.5004 C 432.3549 15.2906 432.3549 15.2906 430.9386 14.6612 C 431.3367 14.263 431.7348 13.8649 432.145 13.4547 C 434.2765 10.6898 434.0497 7.0959 434.2957 3.7507 Z" fill-rule="evenodd" clip-rule="evenodd" fill="#F4F4F4" stroke="none"/>
  <path d="M 434.2957 3.7507 C 436.7883 3.7507 439.2809 3.7507 441.849 3.7507 C 441.7798 4.9105 441.7106 6.0702 441.6392 7.2652 C 441.6217 10.0407 441.7458 11.7037 443.5276 13.8744 C 444.0815 14.411 444.6354 14.9476 445.2061 15.5004 C 442.4031 15.557 440.1654 15.4256 438.0363 13.4744 C 435.6664 10.3192 434.5826 7.6724 434.2957 3.7507 Z" fill-rule="evenodd" clip-rule="evenodd" fill="#FAFAFA" stroke="none"/>
  <path d="M 434.2957 3.7507 C 434.327 4.1867 434.3584 4.6227 434.3907 5.0719 C 434.4183 5.3646 434.4183 5.3646 434.5579 6.8455 C 434.5823 7.1328 434.5823 7.1328 434.7055 8.5863 C 435.1349 10.4648 435.1349 10.4648 437.6527 14.6612 C 434.0523 14.3842 430.4518 14.1073 426.7423 13.8219 C 427.2492 11.7943 427.7369 9.9009 428.4208 7.9471 C 428.9747 7.9471 429.5286 7.9471 430.0993 7.9471 C 430.1859 7.5662 430.2724 7.1854 430.3616 6.7931 C 431.0789 5.0975 432.3291 3.7507 434.2957 3.7507 Z" fill-rule="evenodd" clip-rule="evenodd" fill="#F4F4F4" stroke="none"/>
  <path d="M 434.2957 3.7507 C 436.7425 4.3624 438.0142 4.7684 439.5181 6.8488 C 440.3443 8.3147 441.1227 9.7865 441.849 11.3041 C 439.7731 13.38 438.2242 13.3382 435.4496 13.5072 C 435.0169 13.5396 434.5842 13.5721 434.1383 13.6055 C 433.0722 13.6845 432.0054 13.7541 430.9386 13.8219 C 431.3421 13.3416 431.7457 12.8612 432.1614 12.3663 C 433.523 10.367 433.8357 9.27 434.0334 6.898 C 434.0886 6.3051 434.1437 5.7123 434.2006 5.1014 C 434.232 4.6557 434.2633 4.21 434.2957 3.7507 Z" fill-rule="evenodd" clip-rule="evenodd" fill="#EFEFEF" stroke="none"/>
  <path d="M 434.2957 3.7507 C 439.5578 3.7507 444.82 3.7507 450.2417 3.7507 C 449.9647 3.8892 449.9647 3.8892 448.5632 4.59 C 448.5632 5.4209 448.5632 6.2517 448.5632 7.1078 C 449.394 7.3847 450.2249 7.6617 451.081 7.9471 C 445.8188 7.9471 440.5566 7.9471 435.1349 7.9471 C 434.858 6.5623 434.581 5.1775 434.2957 3.7507 Z" fill-rule="evenodd" clip-rule="evenodd" fill="#1E1E1E" stroke="none"/>
  <path d="M 434.2957 3.7507 C 435.4035 3.7507 436.5113 3.7507 437.6527 3.7507 C 437.8756 4.2668 438.0984 4.7828 438.3281 5.3145 C 438.6245 5.9928 438.9209 6.6712 439.2263 7.3701 C 439.5184 8.0419 439.8105 8.7137 440.1115 9.4059 C 442.0793 13.5643 442.0793 13.5643 444.0521 14.3989 C 444.4329 14.4855 444.8137 14.572 445.2061 14.6612 C 445.2061 15.492 445.2061 16.3229 445.2061 17.179 C 444.3809 16.9645 443.5598 16.7341 442.7408 16.4971 C 442.2831 16.3705 441.8255 16.2439 441.354 16.1135 C 439.7956 15.3062 439.868 14.593 439.3312 12.9826 C 438.4966 12.6895 437.6569 12.4103 436.8135 12.1434 C 434.9282 9.622 433.9312 6.9093 434.2957 3.7507 Z" fill-rule="evenodd" clip-rule="evenodd" fill="#424242" stroke="none"/>
  <path d="M 434.2957 3.7507 C 437.8961 3.7507 441.4965 3.7507 445.2061 3.7507 C 444.9291 4.1662 444.9291 4.1662 443.5276 6.2685 C 442.9737 6.2685 442.4197 6.2685 441.849 6.2685 C 441.5721 7.0994 441.2951 7.9303 441.0098 8.7863 C 439.069 9.3633 439.069 9.3633 436.8135 9.6256 C 435.2923 8.629 435.2923 8.629 434.2957 7.1078 C 434.2957 6 434.2957 4.8921 434.2957 3.7507 Z" fill-rule="evenodd" clip-rule="evenodd" fill="#737373" stroke="none"/>
  <path d="M 434.2957 3.7507 C 434.5101 3.7526 434.5101 3.7526 435.5955 3.7622 C 436.6485 3.772 437.7014 3.7871 438.7543 3.8032 C 438.7543 4.6341 438.7543 5.4649 438.7543 6.321 C 439.3082 6.5979 439.8621 6.8749 440.4328 7.1602 C 438.9824 7.3253 437.5309 7.4808 436.0791 7.6323 C 435.2709 7.72 434.4628 7.8076 433.6301 7.8979 C 431.2493 7.9975 429.309 7.729 427.0045 7.1602 C 427.0045 6.3294 427.0045 5.4985 427.0045 4.6424 C 429.4164 3.597 431.698 3.7202 434.2957 3.7507 Z" fill-rule="evenodd" clip-rule="evenodd" fill="#111111" stroke="none"/>
  <path d="M 434.2957 3.7507 C 437.3422 3.7507 440.3887 3.7507 443.5276 3.7507 C 441.849 7.9471 441.849 7.9471 440.0656 9.0486 C 439.5463 9.239 439.027 9.4294 438.492 9.6256 C 437.2331 8.8912 437.2331 8.8912 435.9742 7.9471 C 435.9742 7.3931 435.9742 6.8392 435.9742 6.2685 C 435.1433 5.9916 434.3124 5.7146 433.4564 5.4293 C 433.7333 4.8753 434.0103 4.3214 434.2957 3.7507 Z" fill-rule="evenodd" clip-rule="evenodd" fill="#676767" stroke="none"/>
  <path d="M 434.2957 3.7507 C 437.3422 3.7507 440.3887 3.7507 443.5276 3.7507 C 443.5276 5.1355 443.5276 6.5203 443.5276 7.9471 C 440.481 7.9471 437.4345 7.9471 434.2957 7.9471 C 434.2957 6.5623 434.2957 5.1775 434.2957 3.7507 Z" fill-rule="evenodd" clip-rule="evenodd" fill="#111111" stroke="none"/>
  <path d="M 434.2957 3.7507 C 435.8463 3.8524 435.8463 3.8524 437.7052 4.1179 C 438.3208 4.2034 438.9363 4.2888 439.5706 4.3769 C 439.808 4.4121 439.808 4.4121 441.0098 4.59 C 440.5943 5.0054 440.5943 5.0054 438.492 7.1078 C 439.0459 7.1078 439.5998 7.1078 440.1705 7.1078 C 440.4475 6.8308 440.7244 6.5539 441.0098 6.2685 C 441.5637 5.9916 442.1176 5.7146 442.6883 5.4293 C 442.6883 6.5371 442.6883 7.6449 442.6883 8.7863 C 443.2422 9.0633 443.7961 9.3402 444.3668 9.6256 C 443.1205 9.7641 443.1205 9.7641 436.8135 10.4648 C 436.2595 9.4955 436.2595 9.4955 433.4564 4.59 C 433.7333 4.313 434.0103 4.0361 434.2957 3.7507 Z" fill-rule="evenodd" clip-rule="evenodd" fill="#515151" stroke="none"/>
  <path d="M 434.2957 3.7507 C 435.1265 4.0277 435.9574 4.3046 436.8135 4.59 C 436.8135 5.4209 436.8135 6.2517 436.8135 7.1078 C 437.3392 7.0786 437.865 7.0494 438.4067 7.0193 C 439.0926 6.9966 439.7785 6.9738 440.4852 6.9504 C 441.1668 6.9212 441.8484 6.892 442.5506 6.8619 C 443.15 6.9431 443.7493 7.0242 444.3668 7.1078 C 444.6438 7.5232 444.6438 7.5232 446.0454 9.6256 C 441.614 9.3486 437.1827 9.0717 432.6171 8.7863 C 433.4564 4.59 433.4564 4.59 434.2957 3.7507 Z" fill-rule="evenodd" clip-rule="evenodd" fill="#212121" stroke="none"/>
  <path d="M 434.2957 3.7507 C 436.7883 3.7507 439.2809 3.7507 441.849 3.7507 C 441.849 4.8586 441.849 5.9664 441.849 7.1078 C 438.7476 7.9053 436.5578 7.9053 433.4564 7.1078 C 433.7333 6 434.0103 4.8921 434.2957 3.7507 Z" fill-rule="evenodd" clip-rule="evenodd" fill="#121212" stroke="none"/>
  <path d="M 434.2957 3.7507 C 434.6072 3.9065 434.6072 3.9065 436.184 4.6949 C 434.0935 5.7402 433.3214 5.3468 431.1484 4.6949 C 431.1484 5.8027 431.1484 6.9106 431.1484 8.052 C 432.2562 8.052 433.3641 8.052 434.5055 8.052 C 434.5055 8.6059 434.5055 9.1598 434.5055 9.7305 C 434.2285 9.869 434.2285 9.869 432.8269 10.5698 C 432.8269 11.4006 432.8269 12.2315 432.8269 13.0876 C 432.273 13.0876 431.7191 13.0876 431.1484 13.0876 C 431.1484 12.5336 431.1484 11.9797 431.1484 11.409 C 430.3175 11.686 429.4867 11.9629 428.6306 12.2483 C 428.3537 11.6944 428.0767 11.1405 427.7914 10.5698 C 428.3453 10.0158 428.8992 9.4619 429.4699 8.8912 C 429.1552 6.6882 429.1552 6.6882 428.6306 4.6949 C 430.921 3.168 431.5983 2.8925 434.2957 3.7507 Z" fill-rule="evenodd" clip-rule="evenodd" fill="#050505" stroke="none"/>
  <path d="M 434.2957 3.7507 C 434.5899 4.1835 434.8842 4.6162 435.1874 5.0621 C 433.5088 6.7406 433.5088 6.7406 431.6926 6.9045 C 431.3518 6.8948 431.3518 6.8948 429.6272 6.8455 C 428.9413 6.8304 428.2554 6.8152 427.5488 6.7996 C 427.023 6.7801 426.4972 6.7607 425.9555 6.7406 C 426.2324 5.6328 426.5094 4.525 426.7947 3.3836 C 432.1572 2.1641 432.1572 2.1641 434.2957 3.7507 Z" fill-rule="evenodd" clip-rule="evenodd" fill="#0D0D0D" stroke="none"/>
  <path d="M 434.2957 3.7507 C 438.1731 3.7507 442.0505 3.7507 446.0454 3.7507 C 446.0454 4.5816 446.0454 5.4125 446.0454 6.2685 C 445.4914 6.2685 444.9375 6.2685 444.3668 6.2685 C 444.0899 7.0994 443.8129 7.9303 443.5276 8.7863 C 443.5276 7.9554 443.5276 7.1246 443.5276 6.2685 C 442.9315 6.2274 442.3354 6.1863 441.7212 6.1439 C 440.9498 6.0812 440.1784 6.0185 439.3837 5.9538 C 438.6145 5.8954 437.8453 5.837 437.0528 5.7768 C 436.7363 5.7194 436.7363 5.7194 435.1349 5.4293 C 434.858 4.8753 434.581 4.3214 434.2957 3.7507 Z" fill-rule="evenodd" clip-rule="evenodd" fill="#474747" stroke="none"/>
  <path d="M 434.2957 3.7507 C 436.184 5.2719 436.184 5.2719 437.6527 7.1078 C 437.6527 7.6617 437.6527 8.2156 437.6527 8.7863 C 435.714 8.7863 433.7753 8.7863 431.7779 8.7863 C 431.5009 7.4015 431.2239 6.0167 430.9386 4.59 C 432.4073 3.9605 432.4073 3.9605 434.2957 3.7507 Z" fill-rule="evenodd" clip-rule="evenodd" fill="#1E1E1E" stroke="none"/>
  <path d="M 434.2957 3.7507 C 436.5113 3.7507 438.727 3.7507 441.0098 3.7507 C 441.0098 5.1355 441.0098 6.5203 441.0098 7.9471 C 436.2463 7.1746 436.2463 7.1746 434.2957 5.4293 C 434.2957 4.8753 434.2957 4.3214 434.2957 3.7507 Z" fill-rule="evenodd" clip-rule="evenodd" fill="#0E0E0E" stroke="none"/>
  <path d="M 434.2957 3.7507 C 434.2957 4.0277 434.2957 4.3046 434.2957 4.59 C 429.8643 4.59 425.433 4.59 420.8674 4.59 C 420.5905 4.0361 420.3135 3.4822 420.0282 2.9115 C 425.1685 1.875 429.2659 2.3419 434.2957 3.7507 Z" fill-rule="evenodd" clip-rule="evenodd" fill="#070707" stroke="none"/>
  <path d="M 434.2957 3.7507 C 436.5113 3.7507 438.727 3.7507 441.0098 3.7507 C 441.0098 4.3046 441.0098 4.8586 441.0098 5.4293 C 441.5637 5.9832 442.1176 6.5371 442.6883 7.1078 C 439.1953 8.2056 439.1953 8.2056 437.279 7.5012 C 436.1315 6.8455 436.1315 6.8455 434.2957 5.4293 C 434.2957 4.8753 434.2957 4.3214 434.2957 3.7507 Z" fill-rule="evenodd" clip-rule="evenodd" fill="#3F3F3F" stroke="none"/>
  <path d="M 434.2957 3.7507 C 434.0187 4.8586 433.7417 5.9664 433.4564 7.1078 C 431.5177 6.8308 429.579 6.5539 427.5815 6.2685 C 427.5815 5.4377 427.5815 4.6068 427.5815 3.7507 C 429.977 2.616 431.7881 3.1408 434.2957 3.7507 Z" fill-rule="evenodd" clip-rule="evenodd" fill="#050505" stroke="none"/>
  <path d="M 434.2957 3.7507 C 436.5113 3.7507 438.727 3.7507 441.0098 3.7507 C 441.0098 4.5816 441.0098 5.4125 441.0098 6.2685 C 439.9019 6.2685 438.7941 6.2685 437.6527 6.2685 C 437.6527 6.8224 437.6527 7.3764 437.6527 7.9471 C 436.4463 7.7372 436.4463 7.7372 435.1349 7.1078 C 434.5579 5.3768 434.5579 5.3768 434.2957 3.7507 Z" fill-rule="evenodd" clip-rule="evenodd" fill="#1F1F1F" stroke="none"/>
  <path d="M 434.2957 3.7507 C 438.1731 3.7507 442.0505 3.7507 446.0454 3.7507 C 445.7684 4.5816 445.4914 5.4125 445.2061 6.2685 C 445.2061 5.7146 445.2061 5.1607 445.2061 4.59 C 444.6295 4.7209 444.0528 4.8518 443.4587 4.9867 C 442.7025 5.15 441.9463 5.3134 441.1671 5.4817 C 440.4174 5.6472 439.6677 5.8128 438.8952 5.9833 C 436.9467 6.2503 436.0365 6.2563 434.2957 5.4293 C 434.2957 4.8753 434.2957 4.3214 434.2957 3.7507 Z" fill-rule="evenodd" clip-rule="evenodd" fill="#4A4A4A" stroke="none"/>
  <path d="M 434.2957 3.7507 C 438.45 3.7507 442.6044 3.7507 446.8846 3.7507 C 446.8846 4.0277 446.8846 4.3046 446.8846 4.59 C 446.48 4.6311 446.0754 4.6722 445.6585 4.7146 C 445.1284 4.7773 444.5983 4.8401 444.0521 4.9047 C 443.5263 4.9631 443.0005 5.0216 442.4588 5.0818 C 441.0098 5.4293 441.0098 5.4293 439.3312 7.1078 C 437.6695 6.2769 436.0078 5.446 434.2957 4.59 C 434.2957 4.313 434.2957 4.0361 434.2957 3.7507 Z" fill-rule="evenodd" clip-rule="evenodd" fill="#1B1B1B" stroke="none"/>
  <path d="M 434.2957 3.7507 C 433.7417 6.5203 433.1878 9.2899 432.6171 12.1434 C 431.7863 11.5895 430.9554 11.0355 430.0993 10.4648 C 429.8535 9.0158 429.8535 9.0158 429.942 7.4225 C 429.9647 6.8924 429.9874 6.3623 430.0108 5.8161 C 430.04 5.4115 430.0692 5.0069 430.0993 4.59 C 431.7779 3.7507 431.7779 3.7507 434.2957 3.7507 Z" fill-rule="evenodd" clip-rule="evenodd" fill="#050505" stroke="none"/>
  <path d="M 434.2957 3.7507 C 434.8496 4.5816 435.4035 5.4125 435.9742 6.2685 C 432.3737 5.9916 428.7733 5.7146 425.0637 5.4293 C 425.0637 5.1523 425.0637 4.8753 425.0637 4.59 C 428.2467 3.8411 431.0481 3.4621 434.2957 3.7507 Z" fill-rule="evenodd" clip-rule="evenodd" fill="#3B3B3B" stroke="none"/>
  <path d="M 434.2957 3.7507 C 435.1265 3.7507 435.9574 3.7507 436.8135 3.7507 C 439.3312 7.2943 439.3312 7.2943 439.3312 9.6256 C 438.2234 9.6256 437.1156 9.6256 435.9742 9.6256 C 434.7483 7.4037 434.2957 6.3571 434.2957 3.7507 Z" fill-rule="evenodd" clip-rule="evenodd" fill="#6A6A6A" stroke="none"/>
  <path d="M 434.2957 3.7507 C 436.5113 4.3046 438.727 4.8586 441.0098 5.4293 C 439.9019 5.7062 438.7941 5.9832 437.6527 6.2685 C 437.9297 7.6533 438.2066 9.0381 438.492 10.4648 C 437.9381 10.4648 437.3842 10.4648 436.8135 10.4648 C 435.9826 8.2492 435.1517 6.0335 434.2957 3.7507 Z" fill-rule="evenodd" clip-rule="evenodd" fill="#050505" stroke="none"/>
  <path d="M 434.2957 3.7507 C 434.2957 4.5816 434.2957 5.4125 434.2957 6.2685 C 433.7417 6.2685 433.1878 6.2685 432.6171 6.2685 C 432.3402 7.3764 432.0632 8.4842 431.7779 9.6256 C 430.947 9.6256 430.1161 9.6256 429.2601 9.6256 C 429.497 8.8015 429.7436 7.9802 429.9944 7.1602 C 430.1307 6.7026 430.2671 6.245 430.4075 5.7735 C 431.2561 3.8826 432.3187 3.7507 434.2957 3.7507 Z" fill-rule="evenodd" clip-rule="evenodd" fill="#727272" stroke="none"/>
  <path d="M 434.2957 3.7507 C 434.9611 4.274 435.6253 4.7988 436.2889 5.3244 C 436.4739 5.4704 436.4739 5.4704 437.4101 6.2095 C 438.492 7.1078 438.492 7.1078 440.1705 8.7863 C 438.6493 9.3633 438.6493 9.3633 436.8135 9.6256 C 435.3447 8.629 435.3447 8.629 434.2957 7.1078 C 434.1383 5.2719 434.1383 5.2719 434.2957 3.7507 Z" fill-rule="evenodd" clip-rule="evenodd" fill="#2C2C2C" stroke="none"/>
  <path d="M 434.2957 3.7507 C 436.5113 3.7507 438.727 3.7507 441.0098 3.7507 C 439.9019 4.8586 438.7941 5.9664 437.6527 7.1078 C 436.4463 6.8455 436.4463 6.8455 435.1349 6.2685 C 434.858 5.4377 434.581 4.6068 434.2957 3.7507 Z" fill-rule="evenodd" clip-rule="evenodd" fill="#F0F0F0" stroke="none"/>
  <path d="M 434.2957 3.7507 C 436.7883 3.7507 439.2809 3.7507 441.849 3.7507 C 441.5721 4.8586 441.2951 5.9664 441.0098 7.1078 C 438.5155 6.164 436.5328 5.2422 434.2957 3.7507 Z" fill-rule="evenodd" clip-rule="evenodd" fill="#F0F0F0" stroke="none"/>
  <path d="M 434.2957 3.7507 C 434.2957 5.1355 434.2957 6.5203 434.2957 7.9471 C 432.6339 7.3931 430.9722 6.8392 429.2601 6.2685 C 430.0993 4.59 430.0993 4.59 431.3058 4.0655 C 432.6171 3.7507 432.6171 3.7507 434.2957 3.7507 Z" fill-rule="evenodd" clip-rule="evenodd" fill="#404040" stroke="none"/>
  <path d="M 434.2957 3.7507 C 435.4035 4.0277 436.5113 4.3046 437.6527 4.59 C 437.9297 5.9748 438.2066 7.3596 438.492 8.7863 C 438.215 8.2324 437.9381 7.6785 437.6527 7.1078 C 436.5449 7.1078 435.4371 7.1078 434.2957 7.1078 C 434.2957 6 434.2957 4.8921 434.2957 3.7507 Z" fill-rule="evenodd" clip-rule="evenodd" fill="#343434" stroke="none"/>
  <path d="M 434.2957 3.7507 C 436.5113 3.7507 438.727 3.7507 441.0098 3.7507 C 441.0098 4.8586 441.0098 5.9664 441.0098 7.1078 C 438.5155 6.164 436.5328 5.2422 434.2957 3.7507 Z" fill-rule="evenodd" clip-rule="evenodd" fill="#333333" stroke="none"/>
  <path d="M 434.2957 3.7507 C 434.8496 3.7507 435.4035 3.7507 435.9742 3.7507 C 435.9742 4.5816 435.9742 5.4125 435.9742 6.2685 C 436.5281 6.5455 437.082 6.8224 437.6527 7.1078 C 435.991 7.3847 434.3292 7.6617 432.6171 7.9471 C 432.6171 7.1162 432.6171 6.2853 432.6171 5.4293 C 433.171 5.4293 433.725 5.4293 434.2957 5.4293 C 434.2957 4.8753 434.2957 4.3214 434.2957 3.7507 Z" fill-rule="evenodd" clip-rule="evenodd" fill="#040404" stroke="none"/>
  <path d="M 434.2957 3.7507 C 434.8496 3.8892 434.8496 3.8892 437.6527 4.59 C 437.6527 5.4209 437.6527 6.2517 437.6527 7.1078 C 436.2679 7.1078 434.8831 7.1078 433.4564 7.1078 C 433.7333 6 434.0103 4.8921 434.2957 3.7507 Z" fill-rule="evenodd" clip-rule="evenodd" fill="#0F0F0F" stroke="none"/>
  <path d="M 434.2957 3.7507 C 434.8496 3.7507 435.4035 3.7507 435.9742 3.7507 C 434.6314 7.7792 434.6314 7.7792 432.9319 8.629 C 432.551 8.6809 432.1702 8.7328 431.7779 8.7863 C 431.7779 8.2324 431.7779 7.6785 431.7779 7.1078 C 432.3318 7.1078 432.8857 7.1078 433.4564 7.1078 C 433.7333 6 434.0103 4.8921 434.2957 3.7507 Z" fill-rule="evenodd" clip-rule="evenodd" fill="#282828" stroke="none"/>
  <path d="M 434.2957 3.7507 C 435.5021 4.013 435.5021 4.013 436.8135 4.59 C 437.3904 5.9013 437.3904 5.9013 437.6527 7.1078 C 436.8218 7.3847 435.991 7.6617 435.1349 7.9471 C 434.858 6.5623 434.581 5.1775 434.2957 3.7507 Z" fill-rule="evenodd" clip-rule="evenodd" fill="#434343" stroke="none"/>
  <path d="M 434.2957 3.7507 C 435.1874 4.8523 435.1874 4.8523 435.9742 6.2685 C 435.6595 7.6848 435.6595 7.6848 435.1349 8.7863 C 434.0271 8.2324 432.9193 7.6785 431.7779 7.1078 C 432.6087 7.1078 433.4396 7.1078 434.2957 7.1078 C 434.0187 6.2769 433.7417 5.446 433.4564 4.59 C 433.7333 4.313 434.0103 4.0361 434.2957 3.7507 Z" fill-rule="evenodd" clip-rule="evenodd" fill="#828282" stroke="none"/>
  <path d="M 434.2957 3.7507 C 435.4035 3.7507 436.5113 3.7507 437.6527 3.7507 C 437.9297 4.5816 438.2066 5.4125 438.492 6.2685 C 437.1072 6.2685 435.7224 6.2685 434.2957 6.2685 C 434.2957 5.4377 434.2957 4.6068 434.2957 3.7507 Z" fill-rule="evenodd" clip-rule="evenodd" fill="#3D3D3D" stroke="none"/>
  <path d="M 434.2957 3.7507 C 437.3945 4.2672 437.3945 4.2672 438.7018 5.9013 C 438.9095 6.2995 439.1172 6.6976 439.3312 7.1078 C 437.9465 6.8308 436.5617 6.5539 435.1349 6.2685 C 434.858 5.4377 434.581 4.6068 434.2957 3.7507 Z" fill-rule="evenodd" clip-rule="evenodd" fill="#1C1C1C" stroke="none"/>
  <path d="M 434.2957 3.7507 C 434.5726 4.5816 434.8496 5.4125 435.1349 6.2685 C 433.5613 6.7931 433.5613 6.7931 431.7779 7.1078 C 431.2239 6.5539 430.67 6 430.0993 5.4293 C 431.4841 4.8753 432.8689 4.3214 434.2957 3.7507 Z" fill-rule="evenodd" clip-rule="evenodd" fill="#313131" stroke="none"/>
  <path d="M 434.2957 3.7507 C 435.4035 3.7507 436.5113 3.7507 437.6527 3.7507 C 437.6527 4.5816 437.6527 5.4125 437.6527 6.2685 C 436.5449 6.2685 435.4371 6.2685 434.2957 6.2685 C 434.2957 5.4377 434.2957 4.6068 434.2957 3.7507 Z" fill-rule="evenodd" clip-rule="evenodd" fill="#000000" stroke="none"/>
  <path d="M 434.2957 3.7507 C 434.988 3.8892 434.988 3.8892 438.492 4.59 C 438.215 5.1439 437.9381 5.6978 437.6527 6.2685 C 436.5449 6.2685 435.4371 6.2685 434.2957 6.2685 C 434.2957 5.4377 434.2957 4.6068 434.2957 3.7507 Z" fill-rule="evenodd" clip-rule="evenodd" fill="#080808" stroke="none"/>
  <path d="M 434.2957 3.7507 C 435.1265 4.0277 435.9574 4.3046 436.8135 4.59 C 436.5365 5.0054 436.5365 5.0054 435.1349 7.1078 C 434.304 6.8308 433.4732 6.5539 432.6171 6.2685 C 433.171 5.4377 433.725 4.6068 434.2957 3.7507 Z" fill-rule="evenodd" clip-rule="evenodd" fill="#4C4C4C" stroke="none"/>
  <path d="M 434.2957 3.7507 C 434.0187 4.8586 433.7417 5.9664 433.4564 7.1078 C 432.2499 6.7931 432.2499 6.7931 430.9386 6.2685 C 430.6616 5.7146 430.3847 5.1607 430.0993 4.59 C 431.6183 4.0376 432.6573 3.7507 434.2957 3.7507 Z" fill-rule="evenodd" clip-rule="evenodd" fill="#313131" stroke="none"/>
  <path d="M 434.2957 3.7507 C 434.988 3.8892 434.988 3.8892 438.492 4.59 C 438.215 5.1439 437.9381 5.6978 437.6527 6.2685 C 436.5449 6.2685 435.4371 6.2685 434.2957 6.2685 C 434.2957 5.4377 434.2957 4.6068 434.2957 3.7507 Z" fill-rule="evenodd" clip-rule="evenodd" fill="#393939" stroke="none"/>
  <path d="M 434.2957 3.7507 C 434.8496 3.7507 435.4035 3.7507 435.9742 3.7507 C 436.2511 4.5816 436.5281 5.4125 436.8135 6.2685 C 435.6595 6.7406 435.6595 6.7406 434.2957 7.1078 C 433.7417 6.8308 433.1878 6.5539 432.6171 6.2685 C 433.4564 4.59 433.4564 4.59 434.2957 3.7507 Z" fill-rule="evenodd" clip-rule="evenodd" fill="#000000" stroke="none"/>
  <path d="M 434.2957 3.7507 C 435.4035 4.3046 436.5113 4.8586 437.6527 5.4293 C 437.6527 5.7062 437.6527 5.9832 437.6527 6.2685 C 436.2679 6.2685 434.8831 6.2685 433.4564 6.2685 C 433.7333 5.4377 434.0103 4.6068 434.2957 3.7507 Z" fill-rule="evenodd" clip-rule="evenodd" fill="#3B3B3B" stroke="none"/>
  <path d="M 434.2957 3.7507 C 435.9742 5.4293 435.9742 5.4293 435.9742 7.9471 C 435.1433 7.9471 434.3124 7.9471 433.4564 7.9471 C 433.7333 6.5623 434.0103 5.1775 434.2957 3.7507 Z" fill-rule="evenodd" clip-rule="evenodd" fill="#202020" stroke="none"/>
  <path d="M 434.2957 3.7507 C 435.1265 4.0277 435.9574 4.3046 436.8135 4.59 C 435.9826 5.4209 435.1517 6.2517 434.2957 7.1078 C 434.0187 6.2769 433.7417 5.446 433.4564 4.59 C 433.7333 4.313 434.0103 4.0361 434.2957 3.7507 Z" fill-rule="evenodd" clip-rule="evenodd" fill="#030303" stroke="none"/>
  <path d="M 434.2957 3.7507 C 435.1265 4.0277 435.9574 4.3046 436.8135 4.59 C 436.8135 5.1439 436.8135 5.6978 436.8135 6.2685 C 435.9826 6.2685 435.1517 6.2685 434.2957 6.2685 C 434.2957 5.4377 434.2957 4.6068 434.2957 3.7507 Z" fill-rule="evenodd" clip-rule="evenodd" fill="#000000" stroke="none"/>
  <path d="M 434.2957 3.7507 C 435.1265 4.8586 435.9574 5.9664 436.8135 7.1078 C 435.9826 7.1078 435.1517 7.1078 434.2957 7.1078 C 434.2957 6 434.2957 4.8921 434.2957 3.7507 Z" fill-rule="evenodd" clip-rule="evenodd" fill="#7A7A7A" stroke="none"/>
  <path d="M 434.2957 3.7507 C 435.1265 3.7507 435.9574 3.7507 436.8135 3.7507 C 436.5365 4.5816 436.2595 5.4125 435.9742 6.2685 C 435.4203 6.2685 434.8664 6.2685 434.2957 6.2685 C 434.2957 5.4377 434.2957 4.6068 434.2957 3.7507 Z" fill-rule="evenodd" clip-rule="evenodd" fill="#373737" stroke="none"/>
  <path d="M 434.2957 3.7507 C 434.0187 4.5816 433.7417 5.4125 433.4564 6.2685 C 432.6255 5.7146 431.7946 5.1607 430.9386 4.59 C 432.6171 3.7507 432.6171 3.7507 434.2957 3.7507 Z" fill-rule="evenodd" clip-rule="evenodd" fill="#828282" stroke="none"/>
  <path d="M 434.2957 3.7507 C 434.8496 3.7507 435.4035 3.7507 435.9742 3.7507 C 435.9742 4.5816 435.9742 5.4125 435.9742 6.2685 C 435.1433 5.9916 434.3124 5.7146 433.4564 5.4293 C 433.7333 4.8753 434.0103 4.3214 434.2957 3.7507 Z" fill-rule="evenodd" clip-rule="evenodd" fill="#575757" stroke="none"/>
  <path d="M 434.2957 3.7507 C 434.8496 4.5816 435.4035 5.4125 435.9742 6.2685 C 435.1433 6.2685 434.3124 6.2685 433.4564 6.2685 C 433.7333 5.4377 434.0103 4.6068 434.2957 3.7507 Z" fill-rule="evenodd" clip-rule="evenodd" fill="#2B2B2B" stroke="none"/></g></svg>