<svg xmlns="http://www.w3.org/2000/svg" viewBox="0 0 950 35" fill="none"><g transform="translate(-2862.1183,-106.6578) scale(7.0255)"><path d="M 437.7871 3.7008 C 471.4864 3.7008 505.1857 3.7008 539.9063 3.7008 C 539.9063 13.4108 539.9063 23.1208 539.9063 33.125 C 506.2069 33.125 472.5076 33.125 437.7871 33.125 C 437.7871 23.415 437.7871 13.705 437.7871 3.7008 Z" fill-rule="evenodd" clip-rule="evenodd" fill="#FBFBFB" stroke="none"/>
  <path d="M 437.7871 3.7008 C 454.843 2.8622 465.5399 6.6398 480.1925 14.9512 C 477.1056 16.1008 475.3782 15.2095 472.4037 14.0858 C 472.7886 14.7429 473.1735 15.4 473.57 16.077 C 474.0652 16.9455 474.5598 17.8143 475.0541 18.6834 C 475.309 19.1156 475.5639 19.5479 475.8265 19.9933 C 477.6782 23.2828 477.6782 23.2828 477.2293 25.0495 C 477.0648 25.4297 476.9003 25.8099 476.7308 26.2017 C 476.1597 25.9161 475.5885 25.6305 475 25.3362 C 473.7696 25.2496 473.7696 25.2496 472.33 25.2792 C 471.7897 25.2876 471.2493 25.2961 470.6926 25.3048 C 470.401 25.3111 470.401 25.3111 468.9252 25.343 C 467.6885 25.3582 466.4518 25.3728 465.215 25.387 C 463.2665 25.4137 461.3182 25.4444 459.3699 25.4846 C 457.4887 25.5214 455.6078 25.5415 453.7263 25.5594 C 453.1483 25.5755 452.5703 25.5916 451.9748 25.6082 C 447.6467 25.6318 445.0442 24.7298 441.8606 21.6616 C 441.6052 21.3214 441.3497 20.9811 441.0865 20.6305 C 440.8243 20.2925 440.5622 19.9545 440.2921 19.6062 C 437.9261 15.9592 437.5572 13.3699 437.6789 9.1097 C 437.6867 8.5887 437.6945 8.0677 437.7026 7.531 C 437.7228 6.2541 437.7539 4.9774 437.7871 3.7008 Z" fill-rule="evenodd" clip-rule="evenodd" fill="#7E7E7E" stroke="none"/>
  <path d="M 437.7871 3.7008 C 443.2132 3.7008 448.6394 3.7008 454.23 3.7008 C 454.23 10.5357 454.23 10.5357 452.6073 14.3022 C 452.4567 14.6614 452.4567 14.6614 451.6946 16.4792 C 450.9056 18.1264 450.1988 19.6009 449.0375 21.0092 C 448.4663 21.0092 447.8951 21.0092 447.3067 21.0092 C 447.0568 21.5625 446.8069 22.1158 446.5494 22.6859 C 445.5758 24.4708 445.5758 24.4708 443.845 25.3362 C 442.4541 25.4403 442.4541 25.4403 440.7886 25.4345 C 440.165 25.4344 439.5413 25.4344 438.8988 25.4343 C 438.2263 25.4298 437.5537 25.4254 436.8608 25.4208 C 436.5163 25.4202 436.5163 25.4202 434.7727 25.4171 C 432.5682 25.4122 430.3638 25.4013 428.1593 25.3903 C 426.6662 25.386 425.1732 25.382 423.6801 25.3785 C 420.0167 25.369 416.3534 25.3545 412.69 25.3362 C 414.2233 21.458 415.9926 17.8027 417.8825 14.0858 C 416.5973 14.5142 416.5973 14.5142 410.0937 16.6821 C 410.0937 16.1109 410.0937 15.5397 410.0937 14.9512 C 414.7682 11.2207 420.4122 8.9252 425.9417 6.7839 C 426.5313 6.5493 427.1209 6.3148 427.7283 6.0731 C 431.1166 4.8154 433.3506 4.2643 436.9217 5.4317 C 436.9217 6.0028 436.9217 6.574 436.9217 7.1625 C 434.3514 8.0193 431.7811 8.876 429.1329 9.7587 C 429.7041 10.0443 430.2753 10.3299 430.8637 10.6242 C 430.2926 11.0882 429.7214 11.5523 429.1329 12.0305 C 427.6086 13.5548 427.115 14.5763 427.0235 16.7362 C 427.4021 19.2783 427.4021 19.2783 428.3757 20.901 C 430.6707 22.278 432.581 22.388 435.1908 21.8746 C 436.8135 20.901 436.8135 20.901 437.7871 19.2783 C 438.1786 16.6247 438.1102 13.9285 436.9217 11.4896 C 435.7013 10.8574 435.7013 10.8574 434.2713 10.4619 C 433.7972 10.3247 433.3231 10.1875 432.8346 10.0461 C 432.4698 9.9513 432.105 9.8564 431.7292 9.7587 C 433.6966 8.0099 435.5972 7.5923 438.2232 7.7101 C 440.2695 8.2124 441.2078 9.1754 442.388 10.8845 C 443.8662 14.559 443.5454 19.0864 442.1142 22.74 C 447.3475 19.7395 448.6022 15.6337 450.1936 10.1475 C 450.2885 9.7978 450.2885 9.7978 450.7683 8.0279 C 447.9125 8.0279 445.0566 8.0279 442.1142 8.0279 C 442.1142 7.7423 442.1142 7.4567 442.1142 7.1625 C 444.6845 7.1625 447.2547 7.1625 449.9029 7.1625 C 449.9029 6.5913 449.9029 6.0201 449.9029 5.4317 C 449.3317 5.5745 448.7606 5.7173 448.1721 5.8644 C 445.0223 6.5088 441.8519 6.3685 438.6525 6.2971 C 438.5097 5.8687 438.5097 5.8687 437.7871 3.7008 Z" fill-rule="evenodd" clip-rule="evenodd" fill="#161616" stroke="none"/>
  <path d="M 437.7871 3.7008 C 438.6438 3.9864 439.5006 4.272 440.3833 4.5662 C 440.3833 5.1374 440.3833 5.7086 440.3833 6.2971 C 442.2396 6.1543 442.2396 6.1543 451.6337 5.4317 C 452.8487 10.1902 452.3332 13.0571 450.1835 17.4697 C 448.5057 20.1175 446.4394 21.8845 443.845 23.6054 C 443.2738 23.3198 442.7026 23.0342 442.1142 22.74 C 442.3942 22.3908 442.6742 22.0416 442.9627 21.6819 C 444.6098 18.8105 444.2097 15.5619 443.845 12.355 C 442.8714 10.1374 442.8714 10.1374 441.2487 8.8933 C 439.3758 8.5617 437.9889 8.6833 436.0562 8.8933 C 435.7707 9.1789 435.4851 9.4645 435.1908 9.7587 C 435.7263 9.9908 436.2618 10.2228 436.8135 10.4619 C 438.7856 11.564 439.5019 12.0291 440.3833 14.0858 C 440.8038 17.3793 440.8664 18.5723 438.977 21.3337 C 436.7568 22.8528 435.6237 23.2716 432.9935 23.0713 C 430.6056 22.4456 429.6299 21.2695 428.2675 19.2783 C 427.8323 17.4495 427.8418 15.9159 428.2675 14.0858 C 429.5656 12.0305 429.5656 12.0305 430.8637 10.6242 C 430.2926 10.3386 429.7214 10.053 429.1329 9.7587 C 435.4491 6.7781 435.4491 6.7781 438.6525 7.1625 C 438.3669 6.0201 438.0813 4.8778 437.7871 3.7008 Z" fill-rule="evenodd" clip-rule="evenodd" fill="#979797" stroke="none"/>
  <path d="M 437.7871 3.7008 C 441.4997 3.7008 445.2124 3.7008 449.0375 3.7008 C 449.0375 3.9864 449.0375 4.272 449.0375 4.5662 C 446.1816 4.8518 443.3257 5.1374 440.3833 5.4317 C 440.3833 6.0028 440.3833 6.574 440.3833 7.1625 C 443.5248 7.1625 446.6663 7.1625 449.9029 7.1625 C 449.9029 7.4481 449.9029 7.7337 449.9029 8.0279 C 446.4759 8.0279 443.0488 8.0279 439.5179 8.0279 C 442.8021 20.1795 442.8021 20.1795 447.523 23.0645 C 447.7729 23.1538 447.7729 23.1538 449.0375 23.6054 C 448.7519 23.1592 448.4663 22.713 448.1721 22.2532 C 447.031 19.4717 447.1567 17.0511 447.3067 14.0858 C 447.5923 14.0858 447.8778 14.0858 448.1721 14.0858 C 448.3394 14.638 448.5068 15.1903 448.6792 15.7592 C 448.9045 16.4743 449.1299 17.1894 449.362 17.9261 C 449.5829 18.639 449.8038 19.3518 450.0314 20.0863 C 450.7683 21.8746 450.7683 21.8746 452.4992 22.74 C 452.0708 22.2759 451.6424 21.8118 451.201 21.3337 C 449.8813 19.2441 449.4574 17.8815 449.602 15.4042 C 450.1601 12.9587 451.3673 11.2597 453.3646 9.7587 C 455.1628 9.1623 456.6427 9.0239 458.5571 8.8933 C 456.8262 10.6242 456.8262 10.6242 455.0413 11.4896 C 453.3646 12.355 453.3646 12.355 452.4992 14.0858 C 452.1121 18.6333 452.1121 18.6333 453.4728 20.901 C 455.7651 22.2764 457.685 22.4987 460.2879 21.8746 C 461.9647 20.5224 461.9647 20.5224 462.8842 18.4129 C 462.9882 15.3599 462.5995 13.0752 460.6665 10.6783 C 460.256 10.3748 459.8455 10.0714 459.4225 9.7587 C 463.6414 10.516 463.6414 10.516 464.615 11.4896 C 465.4213 18.746 465.4213 18.746 463.8409 21.4858 C 462.8842 22.4155 462.8842 22.4155 461.1533 23.6054 C 462.0101 23.891 462.8669 24.1766 463.7496 24.4708 C 465.8133 20.4723 465.6543 16.7896 465.4804 12.355 C 466.6228 12.9262 467.7651 13.4973 468.9421 14.0858 C 468.6745 15.3485 468.4034 16.6104 468.1308 17.872 C 467.9802 18.5748 467.8295 19.2777 467.6744 20.0018 C 467.2112 21.8746 467.2112 21.8746 466.3458 23.6054 C 468.6305 23.6054 470.9152 23.6054 473.2692 23.6054 C 473.5548 22.1775 473.8403 20.7495 474.1346 19.2783 C 476.6437 21.3511 477.165 23.0104 477.5963 26.2017 C 477.225 26.06 476.8537 25.9184 476.4711 25.7725 C 474.9561 25.3232 473.8055 25.2468 472.2318 25.2792 C 471.6915 25.2876 471.1512 25.2961 470.5946 25.3048 C 470.0158 25.3174 469.437 25.33 468.8407 25.343 C 467.6068 25.3582 466.3729 25.3728 465.139 25.387 C 463.1999 25.4137 461.2612 25.4444 459.3223 25.4846 C 457.4468 25.5213 455.5717 25.5415 453.6959 25.5594 C 453.4082 25.5674 453.4082 25.5674 451.9526 25.6082 C 447.6355 25.6318 445.0359 24.7217 441.8606 21.6616 C 441.6052 21.3214 441.3497 20.9811 441.0865 20.6305 C 440.8243 20.2925 440.5622 19.9545 440.2921 19.6062 C 437.927 15.9606 437.5583 13.3626 437.6789 9.1097 C 437.7146 7.3248 437.7503 5.5398 437.7871 3.7008 Z" fill-rule="evenodd" clip-rule="evenodd" fill="#161616" stroke="none"/>
  <path d="M 437.7871 3.7008 C 441.0954 3.6792 444.4037 3.6636 447.7121 3.6533 C 448.8342 3.649 449.9562 3.6431 451.0783 3.6355 C 457.3806 3.5942 463.5556 3.6369 469.8075 4.5662 C 469.8075 5.7086 469.8075 6.8509 469.8075 8.0279 C 459.8119 8.0279 449.8164 8.0279 439.5179 8.0279 C 438.9467 6.6 438.3756 5.172 437.7871 3.7008 Z" fill-rule="evenodd" clip-rule="evenodd" fill="#090909" stroke="none"/>
  <path d="M 437.7871 3.7008 C 437.7871 4.272 437.7871 4.8432 437.7871 5.4317 C 437.1925 5.589 436.5979 5.7463 435.9853 5.9083 C 435.5954 6.0171 435.5954 6.0171 433.6223 6.5675 C 433.2357 6.6729 433.2357 6.6729 431.2795 7.2064 C 429.012 8.0742 427.9102 8.628 426.5367 10.6242 C 426.2315 13.9474 426.4323 17.7337 428.2404 20.6136 C 429.187 21.5501 429.187 21.5501 430.8637 22.74 C 426.8477 22.2116 426.8477 22.2116 425.5631 20.8199 C 424.5696 18.7975 424.4395 17.0296 424.2649 14.789 C 424.2326 14.3991 424.2326 14.3991 424.0689 12.426 C 424.0477 12.1287 424.0477 12.1287 423.9404 10.6242 C 422.5125 11.7665 421.0845 12.9089 419.6133 14.0858 C 419.6133 13.2291 419.6133 12.3723 419.6133 11.4896 C 416.7575 12.6319 413.9016 13.7743 410.9592 14.9512 C 410.9592 14.3801 410.9592 13.8089 410.9592 13.2204 C 415.6336 9.4899 421.2776 7.1944 426.8071 5.053 C 427.3967 4.8185 427.9863 4.5839 428.5937 4.3423 C 431.9821 3.0846 434.216 2.5335 437.7871 3.7008 Z" fill-rule="evenodd" clip-rule="evenodd" fill="#5C5C5C" stroke="none"/>
  <path d="M 437.7871 3.7008 C 439.0308 3.6539 440.2749 3.6204 441.5192 3.5927 C 442.212 3.5726 442.9047 3.5525 443.6185 3.5318 C 445.6923 3.7109 446.5867 4.1285 448.1721 5.4317 C 447.8898 5.7808 447.6076 6.13 447.3168 6.4898 C 446.2232 8.411 446.2382 9.6698 446.279 11.8682 C 446.2846 12.5275 446.2901 13.1868 446.2959 13.8661 C 446.4373 15.7642 446.7864 17.4512 447.3067 19.2783 C 443.9421 18.5093 442.5326 17.2843 440.5997 14.4104 C 438.5529 10.9072 437.9048 7.724 437.7871 3.7008 Z" fill-rule="evenodd" clip-rule="evenodd" fill="#F7F7F7" stroke="none"/>
  <path d="M 437.7871 3.7008 C 438.6694 3.7066 439.5518 3.7169 440.434 3.7313 C 440.8842 3.7352 441.3343 3.7391 441.7981 3.7431 C 442.912 3.7533 444.0259 3.7688 445.1397 3.7853 C 444.7253 8.6152 443.9432 12.84 440.3529 16.3204 C 439.0914 17.3796 437.8149 18.3906 436.4856 19.3628 C 435.9144 19.0773 435.3432 18.7917 434.7547 18.4974 C 435.0359 18.1483 435.317 17.7991 435.6066 17.4393 C 436.6999 15.5261 436.7167 14.2536 436.7019 12.0609 C 436.7064 11.4016 436.7109 10.7423 436.7154 10.063 C 436.4637 7.9269 435.819 6.5048 434.7547 4.6508 C 435.6202 3.7853 435.6202 3.7853 437.7871 3.7008 Z" fill-rule="evenodd" clip-rule="evenodd" fill="#F4F4F4" stroke="none"/>
  <path d="M 437.7871 3.7008 C 441.4997 3.7008 445.2124 3.7008 449.0375 3.7008 C 449.0375 3.9864 449.0375 4.272 449.0375 4.5662 C 446.1816 4.8518 443.3257 5.1374 440.3833 5.4317 C 440.3833 6.0028 440.3833 6.574 440.3833 7.1625 C 443.5248 7.1625 446.6663 7.1625 449.9029 7.1625 C 449.9029 7.4481 449.9029 7.7337 449.9029 8.0279 C 446.4759 8.0279 443.0488 8.0279 439.5179 8.0279 C 442.8021 20.1795 442.8021 20.1795 447.523 23.0645 C 447.7729 23.1538 447.7729 23.1538 449.0375 23.6054 C 448.7519 23.1592 448.4663 22.713 448.1721 22.2532 C 447.031 19.4717 447.1567 17.0511 447.3067 14.0858 C 447.5923 14.0858 447.8778 14.0858 448.1721 14.0858 C 448.6096 15.3282 449.0412 16.5726 449.4702 17.8179 C 449.7112 18.5107 449.9521 19.2035 450.2004 19.9173 C 450.7683 21.8746 450.7683 21.8746 450.7683 24.4708 C 449.3079 25.0658 449.3079 25.0658 447.3067 25.3362 C 442.7073 23.2665 439.6374 19.6296 437.7871 14.9512 C 437.5864 12.9964 437.6233 11.072 437.6789 9.1097 C 437.7146 7.3248 437.7503 5.5398 437.7871 3.7008 Z" fill-rule="evenodd" clip-rule="evenodd" fill="#191919" stroke="none"/>
  <path d="M 437.7871 3.7008 C 441.2141 5.4144 444.6412 7.1279 448.1721 8.8933 C 445.5223 9.7766 445.218 9.8543 442.8173 8.9474 C 442.3588 8.779 441.9003 8.6105 441.4279 8.437 C 441.2556 8.3695 441.2556 8.3695 440.3833 8.0279 C 440.5908 8.3525 440.7983 8.6772 441.0121 9.0116 C 441.8216 10.4088 442.4856 11.6808 442.9796 13.2204 C 442.2764 15.7085 442.2764 15.7085 441.2487 17.5475 C 438.964 17.5475 436.6793 17.5475 434.3254 17.5475 C 434.5687 16.1216 434.8232 14.6976 435.0827 13.2745 C 435.2232 12.4813 435.3638 11.6882 435.5086 10.8709 C 435.6893 10.2183 435.87 9.5657 436.0562 8.8933 C 436.6274 8.6077 437.1986 8.3222 437.7871 8.0279 C 437.7068 7.7513 437.7068 7.7513 437.3003 6.3512 C 437.1753 5.7621 437.0504 5.1731 436.9217 4.5662 C 437.2072 4.2807 437.4928 3.9951 437.7871 3.7008 Z" fill-rule="evenodd" clip-rule="evenodd" fill="#606060" stroke="none"/>
  <path d="M 437.7871 3.7008 C 439.5808 4.8308 440.4543 6.0734 441.2487 8.0279 C 441.8791 12.385 441.538 16.2298 439.5179 20.1437 C 437.5188 20.1437 435.5197 20.1437 433.46 20.1437 C 433.7724 19.8292 434.0847 19.5146 434.4065 19.1904 C 438.0952 15.1944 438.0952 15.1944 438.0575 12.0305 C 437.9683 11.2808 437.879 10.5311 437.7871 9.7587 C 436.9303 9.4732 436.0736 9.1876 435.1908 8.8933 C 435.1908 8.3222 435.1908 7.751 435.1908 7.1625 C 433.4773 6.5913 431.7638 6.0201 429.9983 5.4317 C 432.2903 3.3944 434.8558 2.9814 437.7871 3.7008 Z" fill-rule="evenodd" clip-rule="evenodd" fill="#272727" stroke="none"/>
  <path d="M 437.7871 3.7008 C 443.2132 3.7008 448.6394 3.7008 454.23 3.7008 C 454.23 5.6999 454.23 7.6991 454.23 9.7587 C 453.6588 10.3299 453.0876 10.9011 452.4992 11.4896 C 451.928 11.4896 451.3568 11.4896 450.7683 11.4896 C 450.7683 10.3472 450.7683 9.2049 450.7683 8.0279 C 447.9125 8.0279 445.0566 8.0279 442.1142 8.0279 C 442.1142 7.7423 442.1142 7.4567 442.1142 7.1625 C 444.6845 7.1625 447.2547 7.1625 449.9029 7.1625 C 449.9029 6.5913 449.9029 6.0201 449.9029 5.4317 C 449.3317 5.5745 448.7606 5.7173 448.1721 5.8644 C 445.0223 6.5088 441.8519 6.3685 438.6525 6.2971 C 438.3669 5.4403 438.0813 4.5836 437.7871 3.7008 Z" fill-rule="evenodd" clip-rule="evenodd" fill="#131313" stroke="none"/>
  <path d="M 437.7871 3.7008 C 438.3583 3.9864 438.9294 4.272 439.5179 4.5662 C 439.2323 4.7983 439.2323 4.7983 437.7871 5.9725 C 436.2628 7.4969 435.7692 8.5184 435.6776 10.6783 C 436.0562 13.2204 436.0562 13.2204 437.0298 14.8431 C 439.3323 16.2245 441.2279 16.3172 443.845 15.8167 C 445.4677 14.9512 445.4677 14.9512 446.4412 13.2204 C 446.6476 10.896 446.5905 8.6237 446.4412 6.2971 C 447.7089 7.0138 447.7089 7.0138 449.0375 8.0279 C 449.6219 10.8851 449.6663 12.2653 448.0538 14.7146 C 446.0573 16.9259 444.2711 18.7301 441.1947 18.9538 C 438.817 18.6535 436.9676 17.8808 435.1638 16.2967 C 433.3364 13.364 433.5307 9.665 433.46 6.2971 C 434.8816 5.3278 436.2444 4.4722 437.7871 3.7008 Z" fill-rule="evenodd" clip-rule="evenodd" fill="#202020" stroke="none"/>
  <path d="M 437.7871 3.7008 C 438.9294 4.272 440.0718 4.8432 441.2487 5.4317 C 440.9811 6.6943 440.71 7.9563 440.4374 9.2179 C 440.2868 9.9207 440.1362 10.6235 439.981 11.3476 C 439.5179 13.2204 439.5179 13.2204 438.6525 14.9512 C 440.9372 14.9512 443.2219 14.9512 445.5758 14.9512 C 445.8614 13.5233 446.147 12.0954 446.4412 10.6242 C 448.9504 12.6969 449.4717 14.3562 449.9029 17.5475 C 449.585 17.4147 449.267 17.282 448.9395 17.1452 C 446.6415 16.4934 444.3236 16.3657 441.9519 16.1953 C 441.4683 16.1579 440.9847 16.1205 440.4864 16.082 C 439.2984 15.9906 438.1101 15.9033 436.9217 15.8167 C 436.9217 13.2204 436.9217 13.2204 437.7871 11.4896 C 437.8472 10.1566 437.8602 8.8212 437.8412 7.487 C 437.8373 7.1334 437.8373 7.1334 437.8175 5.3438 C 437.8075 4.8016 437.7974 4.2594 437.7871 3.7008 Z" fill-rule="evenodd" clip-rule="evenodd" fill="#292929" stroke="none"/>
  <path d="M 437.7871 3.7008 C 442.3565 3.9864 446.9259 4.272 451.6337 4.5662 C 451.6337 5.7086 451.6337 6.8509 451.6337 8.0279 C 450.1376 8.0751 448.641 8.1084 447.1444 8.1361 C 446.3111 8.1562 445.4777 8.1763 444.6191 8.1969 C 441.8888 8.0127 440.2389 7.4356 437.7871 6.2971 C 437.7871 5.4403 437.7871 4.5836 437.7871 3.7008 Z" fill-rule="evenodd" clip-rule="evenodd" fill="#313131" stroke="none"/>
  <path d="M 437.7871 3.7008 C 438.7607 4.6744 438.7607 4.6744 439.5179 6.2971 C 438.6646 9.8657 437.3049 12.8217 435.1908 15.8167 C 434.6197 15.8167 434.0485 15.8167 433.46 15.8167 C 433.2458 16.37 433.0316 16.9233 432.8109 17.4934 C 431.7292 19.2783 431.7292 19.2783 429.8902 19.9274 C 429.6224 19.9631 429.6224 19.9631 428.2675 20.1437 C 428.2675 19.287 428.2675 18.4302 428.2675 17.5475 C 429.3121 16.5908 429.3121 16.5908 430.7015 15.6544 C 433.9727 13.1333 434.9575 10.1811 436.0562 6.2971 C 436.6274 6.2971 437.1986 6.2971 437.7871 6.2971 C 437.7871 5.4403 437.7871 4.5836 437.7871 3.7008 Z" fill-rule="evenodd" clip-rule="evenodd" fill="#4F4F4F" stroke="none"/>
  <path d="M 437.7871 3.7008 C 438.6438 3.9864 439.5006 4.272 440.3833 4.5662 C 440.3833 5.1374 440.3833 5.7086 440.3833 6.2971 C 442.2396 6.1543 442.2396 6.1543 451.6337 5.4317 C 451.6337 6.0028 451.6337 6.574 451.6337 7.1625 C 451.3677 7.1887 451.3677 7.1887 450.0212 7.3214 C 449.3218 7.3939 448.6223 7.4664 447.9016 7.5411 C 447.2089 7.6114 446.5161 7.6817 445.8023 7.7541 C 443.845 8.0279 443.845 8.0279 442.4657 8.4877 C 440.3571 9.1906 438.2625 8.9424 436.0562 8.8933 C 435.7707 9.4645 435.4851 10.0357 435.1908 10.6242 C 433.1917 10.6242 431.1926 10.6242 429.1329 10.6242 C 429.9983 8.8933 429.9983 8.8933 431.097 8.3457 C 433.6933 7.5175 435.8901 6.95 438.6525 7.1625 C 438.3669 6.0201 438.0813 4.8778 437.7871 3.7008 Z" fill-rule="evenodd" clip-rule="evenodd" fill="#A6A6A6" stroke="none"/>
  <path d="M 437.7871 3.7008 C 438.3583 6.5567 438.9294 9.4126 439.5179 12.355 C 437.2332 12.355 434.9485 12.355 432.5946 12.355 C 433.0582 7.2552 433.0582 7.2552 435.1908 5.1071 C 436.9217 3.7008 436.9217 3.7008 437.7871 3.7008 Z" fill-rule="evenodd" clip-rule="evenodd" fill="#FBFBFB" stroke="none"/>
  <path d="M 437.7871 3.7008 C 440.8822 6.4785 442.6093 8.0352 442.9796 12.355 C 440.6949 12.355 438.4102 12.355 436.0562 12.355 C 436.6274 9.4991 437.1986 6.6432 437.7871 3.7008 Z" fill-rule="evenodd" clip-rule="evenodd" fill="#FAFAFA" stroke="none"/>
  <path d="M 437.7871 3.7008 C 438.328 5.7562 438.328 5.7562 438.6525 8.0279 C 438.0813 8.5991 437.5101 9.1703 436.9217 9.7587 C 434.6499 9.4342 434.6499 9.4342 432.5946 8.8933 C 432.5946 7.1798 432.5946 5.4663 432.5946 3.7008 C 434.7503 2.623 435.5463 3.0286 437.7871 3.7008 Z" fill-rule="evenodd" clip-rule="evenodd" fill="#EFEFEF" stroke="none"/>
  <path d="M 437.7871 3.7008 C 439.237 3.9484 440.6809 4.2355 442.1142 4.5662 C 442.7091 6.1348 442.7091 6.1348 442.9796 8.0279 C 441.7355 9.5424 441.7355 9.5424 440.3833 10.6242 C 439.6694 10.3386 439.6694 10.3386 436.0562 8.8933 C 436.8135 4.6744 436.8135 4.6744 437.7871 3.7008 Z" fill-rule="evenodd" clip-rule="evenodd" fill="#E9E9E9" stroke="none"/>
  <path d="M 437.7871 3.7008 C 442.6867 5.0855 442.6867 5.0855 444.1695 6.838 C 444.348 7.2306 444.5265 7.6233 444.7104 8.0279 C 443.9964 7.7423 443.9964 7.7423 440.3833 6.2971 C 440.4134 6.7467 440.4436 7.1962 440.4746 7.6594 C 440.6332 11.7461 440.601 14.4425 437.7871 17.5475 C 435.4613 17.8179 435.4613 17.8179 433.46 17.5475 C 433.7724 17.3456 434.0847 17.1437 434.4065 16.9356 C 435.8865 15.7722 436.8072 14.8433 437.7871 13.2204 C 438.1715 10.0007 438.0421 6.9368 437.7871 3.7008 Z" fill-rule="evenodd" clip-rule="evenodd" fill="#D2D2D2" stroke="none"/>
  <path d="M 437.7871 3.7008 C 439.7452 4.5494 440.3015 5.0424 441.1406 7.0002 C 441.411 9.2179 441.411 9.2179 441.1406 11.3273 C 440.167 12.5173 440.167 12.5173 438.5443 13.0581 C 433.992 12.8329 433.992 12.8329 432.4864 11.3273 C 432.4019 9.9176 432.4019 9.9176 432.4323 8.2443 C 432.4401 7.6898 432.4479 7.1354 432.456 6.5641 C 432.466 6.1369 432.4761 5.7096 432.4864 5.2694 C 434.4074 4.1031 435.5166 3.5005 437.7871 3.7008 Z M 433.9468 6.3512 C 433.1767 8.3114 433.543 9.3721 434.2172 11.3273 C 435.7858 11.9223 435.7858 11.9223 437.6789 12.1927 C 439.1934 10.9487 439.1934 10.9487 440.2752 9.5965 C 439.704 8.1685 439.1328 6.7406 438.5443 5.2694 C 435.4116 4.9561 435.4116 4.9561 433.9468 6.3512 Z" fill-rule="evenodd" clip-rule="evenodd" fill="#171717" stroke="none"/>
  <path d="M 437.7871 3.7008 C 437.7871 4.272 437.7871 4.8432 437.7871 5.4317 C 435.9308 6.0028 435.9308 6.0028 426.5367 8.8933 C 426.5367 7.751 426.5367 6.6086 426.5367 5.4317 C 433.6867 2.2913 433.6867 2.2913 437.7871 3.7008 Z" fill-rule="evenodd" clip-rule="evenodd" fill="#333333" stroke="none"/>
  <path d="M 437.7871 3.7008 C 441.4997 3.7008 445.2124 3.7008 449.0375 3.7008 C 449.0375 3.9864 449.0375 4.272 449.0375 4.5662 C 446.1816 4.8518 443.3257 5.1374 440.3833 5.4317 C 440.3833 6.0028 440.3833 6.574 440.3833 7.1625 C 443.5248 7.1625 446.6663 7.1625 449.9029 7.1625 C 449.9029 7.4481 449.9029 7.7337 449.9029 8.0279 C 445.9047 8.3135 441.9065 8.5991 437.7871 8.8933 C 437.7871 7.1798 437.7871 5.4663 437.7871 3.7008 Z" fill-rule="evenodd" clip-rule="evenodd" fill="#212121" stroke="none"/>
  <path d="M 437.7871 3.7008 C 439.9282 3.9863 440.9578 4.2025 442.3305 5.9185 C 443.2702 8.9725 443.518 11.7898 442.9796 14.9512 C 441.9989 16.7293 440.9726 17.8236 439.5179 19.2783 C 438.6611 18.9927 437.8044 18.7072 436.9217 18.4129 C 437.0778 18.2869 437.0778 18.2869 437.8682 17.6489 C 440.1345 15.6471 441.1518 14.5922 441.7355 11.5437 C 441.4819 8.3938 439.7019 6.1115 437.7871 3.7008 Z" fill-rule="evenodd" clip-rule="evenodd" fill="#F0F0F0" stroke="none"/>
  <path d="M 437.7871 3.7008 C 438.0191 4.2185 438.2512 4.7361 438.4902 5.2694 C 439.5695 7.2575 440.2372 8.4851 442.1142 9.7587 C 443.9439 9.798 445.591 9.5289 447.3067 8.8933 C 447.8778 8.3222 448.449 7.751 449.0375 7.1625 C 448.5412 9.6439 448.292 10.5043 446.4412 12.355 C 443.1729 12.7813 441.9393 12.8274 439.1934 10.9487 C 437.3459 8.2485 437.4958 6.9044 437.7871 3.7008 Z" fill-rule="evenodd" clip-rule="evenodd" fill="#E8E8E8" stroke="none"/>
  <path d="M 437.7871 3.7008 C 438.6438 3.9864 439.5006 4.272 440.3833 4.5662 C 439.8122 5.1731 439.241 5.78 438.6525 6.4053 C 437.28 8.1294 436.6388 9.3292 436.543 11.5437 C 436.9635 14.3669 437.5553 15.5122 439.5179 17.5475 C 440.9783 18.6293 440.9783 18.6293 442.1142 19.2783 C 438.9123 18.8456 437.1829 18.4115 435.1908 15.8167 C 434.846 13.7917 434.846 13.7917 434.8663 11.5437 C 434.8596 10.804 434.8529 10.0644 434.846 9.3024 C 435.2497 6.7968 436.1321 5.5879 437.7871 3.7008 Z" fill-rule="evenodd" clip-rule="evenodd" fill="#EBEBEB" stroke="none"/>
  <path d="M 437.7871 3.7008 C 439.5006 3.7008 441.2141 3.7008 442.9796 3.7008 C 442.9796 4.5576 442.9796 5.4144 442.9796 6.2971 C 443.5508 6.2971 444.1219 6.2971 444.7104 6.2971 C 444.7104 6.8683 444.7104 7.4394 444.7104 8.0279 C 442.4257 8.0279 440.141 8.0279 437.7871 8.0279 C 437.5015 7.1712 437.2159 6.3144 436.9217 5.4317 C 437.2072 4.8605 437.4928 4.2893 437.7871 3.7008 Z" fill-rule="evenodd" clip-rule="evenodd" fill="#1C1C1C" stroke="none"/>
  <path d="M 437.7871 3.7008 C 440.3574 3.7008 442.9277 3.7008 445.5758 3.7008 C 445.2902 4.272 445.0047 4.8432 444.7104 5.4317 C 443.5681 5.1461 442.4257 4.8605 441.2487 4.5662 C 441.2487 5.423 441.2487 6.2798 441.2487 7.1625 C 444.6758 7.1625 448.1028 7.1625 451.6337 7.1625 C 451.6337 7.4481 451.6337 7.7337 451.6337 8.0279 C 447.6355 8.0279 443.6373 8.0279 439.5179 8.0279 C 438.9467 6.6 438.3756 5.172 437.7871 3.7008 Z" fill-rule="evenodd" clip-rule="evenodd" fill="#3E3E3E" stroke="none"/>
  <path d="M 437.7871 3.7008 C 440.3833 3.7008 440.3833 3.7008 442.1142 4.5662 C 441.968 4.7336 441.968 4.7336 441.2285 5.5804 C 439.1447 8.0135 437.3174 10.2394 436.0562 13.2204 C 435.4851 12.9348 434.9139 12.6492 434.3254 12.355 C 434.7369 11.0739 435.1523 9.794 435.5694 8.5147 C 435.8004 7.8019 436.0313 7.089 436.2692 6.3545 C 436.9217 4.5662 436.9217 4.5662 437.7871 3.7008 Z" fill-rule="evenodd" clip-rule="evenodd" fill="#343434" stroke="none"/>
  <path d="M 437.7871 3.7008 C 438.4931 5.5893 438.7667 7.2681 438.9229 9.2719 C 439.3385 12.5414 440.452 13.7783 442.9796 15.8167 C 438.962 15.288 438.962 15.288 437.6552 13.8661 C 436.7175 11.9344 436.7211 10.4916 436.7594 8.3524 C 436.7622 8.0077 436.7622 8.0077 436.7763 6.2633 C 436.9217 4.5662 436.9217 4.5662 437.7871 3.7008 Z" fill-rule="evenodd" clip-rule="evenodd" fill="#E8E8E8" stroke="none"/>
  <path d="M 437.7871 3.7008 C 440.0718 3.7008 442.3565 3.7008 444.7104 3.7008 C 444.8794 8.2646 444.8794 8.2646 444.7104 9.7587 C 444.1392 10.3299 443.5681 10.9011 442.9796 11.4896 C 442.4084 11.4896 441.8372 11.4896 441.2487 11.4896 C 441.2487 10.3472 441.2487 9.2049 441.2487 8.0279 C 441.8199 8.0279 442.3911 8.0279 442.9796 8.0279 C 442.694 6.8856 442.4084 5.7432 442.1142 4.5662 C 440.6862 4.5662 439.2583 4.5662 437.7871 4.5662 C 437.7871 4.2807 437.7871 3.9951 437.7871 3.7008 Z" fill-rule="evenodd" clip-rule="evenodd" fill="#383838" stroke="none"/>
  <path d="M 437.7871 3.7008 C 437.9728 3.7923 437.9728 3.7923 438.9128 4.2552 C 438.6272 4.8264 438.3416 5.3976 438.0474 5.9861 C 437.4762 5.9861 436.905 5.9861 436.3165 5.9861 C 436.1024 6.5394 435.8882 7.0927 435.6675 7.6628 C 434.5857 9.4477 434.5857 9.4477 432.7467 10.0968 C 432.479 10.1325 432.479 10.1325 431.124 10.3132 C 431.124 7.7169 431.124 7.7169 432.1686 6.4864 C 432.6271 6.1071 433.0856 5.7278 433.558 5.337 C 434.0098 4.9488 434.4616 4.5606 434.9271 4.1606 C 436.3165 3.3898 436.3165 3.3898 437.7871 3.7008 Z" fill-rule="evenodd" clip-rule="evenodd" fill="#545454" stroke="none"/>
  <path d="M 437.7871 3.7008 C 437.7871 4.272 437.7871 4.8432 437.7871 5.4317 C 435.2168 5.4317 432.6465 5.4317 429.9983 5.4317 C 429.9983 4.5749 429.9983 3.7181 429.9983 2.8354 C 433.2687 1.927 434.8872 1.875 437.7871 3.7008 Z" fill-rule="evenodd" clip-rule="evenodd" fill="#020202" stroke="none"/>
  <path d="M 437.7871 3.7008 C 438.3583 3.9864 438.3583 3.9864 441.2487 5.4317 C 441.0053 6.7135 440.7508 7.9932 440.4915 9.2719 C 440.3509 9.9848 440.2104 10.6977 440.0656 11.4321 C 439.8848 12.0223 439.7041 12.6124 439.5179 13.2204 C 439.2323 13.3632 439.2323 13.3632 437.7871 14.0858 C 437.7871 10.6588 437.7871 7.2317 437.7871 3.7008 Z" fill-rule="evenodd" clip-rule="evenodd" fill="#2D2D2D" stroke="none"/>
  <path d="M 437.7871 3.7008 C 438.6438 3.8436 438.6438 3.8436 442.9796 4.5662 C 442.9796 5.1374 442.9796 5.7086 442.9796 6.2971 C 443.5508 6.5827 444.1219 6.8683 444.7104 7.1625 C 443.6827 7.7034 443.6827 7.7034 442.1142 8.0279 C 439.7884 7.2166 439.7884 7.2166 437.7871 6.2971 C 437.7871 5.4403 437.7871 4.5836 437.7871 3.7008 Z" fill-rule="evenodd" clip-rule="evenodd" fill="#050505" stroke="none"/>
  <path d="M 437.7871 3.7008 C 441.3351 4.7735 444.1958 6.015 447.3067 8.0279 C 446.235 8.5654 446.235 8.5654 444.7104 8.8933 C 442.9424 8.2206 442.9424 8.2206 441.0865 7.2166 C 440.4673 6.8875 439.8482 6.5584 439.2103 6.2193 C 438.7406 5.9594 438.271 5.6995 437.7871 5.4317 C 437.7871 4.8605 437.7871 4.2893 437.7871 3.7008 Z" fill-rule="evenodd" clip-rule="evenodd" fill="#1B1B1B" stroke="none"/>
  <path d="M 437.7871 3.7008 C 438.7596 3.6306 439.7337 3.5803 440.7079 3.5386 C 441.25 3.5084 441.7922 3.4783 442.3508 3.4473 C 442.5973 3.4891 442.5973 3.4891 443.845 3.7008 C 444.4162 4.5576 444.9873 5.4144 445.5758 6.2971 C 443.2911 6.2971 441.0064 6.2971 438.6525 6.2971 C 438.3669 5.4403 438.0813 4.5836 437.7871 3.7008 Z" fill-rule="evenodd" clip-rule="evenodd" fill="#414141" stroke="none"/>
  <path d="M 437.7871 3.7008 C 438.6438 3.7008 439.5006 3.7008 440.3833 3.7008 C 440.4547 4.0935 440.5261 4.4862 440.5997 4.8908 C 441.2487 6.2971 441.2487 6.2971 444.7104 8.0279 C 442.1401 8.0279 439.5698 8.0279 436.9217 8.0279 C 437.2072 6.6 437.4928 5.172 437.7871 3.7008 Z" fill-rule="evenodd" clip-rule="evenodd" fill="#3E3E3E" stroke="none"/>
  <path d="M 437.7871 3.7008 C 438.2512 4.0935 438.7152 4.4862 439.1934 4.8908 C 441.5937 6.5331 443.6637 7.2073 446.4412 8.0279 C 446.4412 8.3135 446.4412 8.5991 446.4412 8.8933 C 441.9568 9.4148 441.9568 9.4148 439.9405 7.9299 C 438.8754 6.8465 437.8756 5.7482 436.9217 4.5662 C 437.2072 4.2807 437.4928 3.9951 437.7871 3.7008 Z" fill-rule="evenodd" clip-rule="evenodd" fill="#2C2C2C" stroke="none"/>
  <path d="M 437.7871 3.7008 C 438.1586 3.876 438.5301 4.0511 438.9128 4.2316 C 436.6632 6.9811 434.4385 7.6011 431.124 8.5587 C 431.124 7.9875 431.124 7.4163 431.124 6.8278 C 432.1686 5.8711 432.1686 5.8711 433.558 4.9347 C 434.0098 4.619 434.4616 4.3033 434.9271 3.978 C 436.3165 3.3662 436.3165 3.3662 437.7871 3.7008 Z" fill-rule="evenodd" clip-rule="evenodd" fill="#2B2B2B" stroke="none"/>
  <path d="M 437.7871 3.7008 C 438.9827 5.3746 439.943 6.8678 440.3833 8.8933 C 440.0977 9.4645 439.8122 10.0357 439.5179 10.6242 C 438.6611 10.3386 437.8044 10.053 436.9217 9.7587 C 436.9217 7.4904 437.1925 5.8563 437.7871 3.7008 Z" fill-rule="evenodd" clip-rule="evenodd" fill="#6B6B6B" stroke="none"/>
  <path d="M 437.7871 3.7008 C 439.0241 5.7384 439.5929 6.7128 439.1934 9.1097 C 439.0149 9.6095 438.8364 10.1092 438.6525 10.6242 C 438.0813 10.6242 437.5101 10.6242 436.9217 10.6242 C 436.8984 9.6327 436.8815 8.641 436.8676 7.6493 C 436.8575 7.0971 436.8475 6.5449 436.8371 5.9759 C 436.9217 4.5662 436.9217 4.5662 437.7871 3.7008 Z" fill-rule="evenodd" clip-rule="evenodd" fill="#676767" stroke="none"/>
  <path d="M 437.7871 3.7008 C 439.1934 5.8644 439.1934 5.8644 440.3833 8.0279 C 440.0977 8.1707 440.0977 8.1707 438.6525 8.8933 C 438.6525 8.3222 438.6525 7.751 438.6525 7.1625 C 436.939 6.5913 435.2254 6.0201 433.46 5.4317 C 435.8399 3.7008 435.8399 3.7008 437.7871 3.7008 Z" fill-rule="evenodd" clip-rule="evenodd" fill="#373737" stroke="none"/>
  <path d="M 437.7871 3.7008 C 439.3397 5.6584 440.637 7.312 441.2487 9.7587 C 440.1064 9.4732 438.964 9.1876 437.7871 8.8933 C 436.8135 5.648 436.8135 5.648 437.7871 3.7008 Z" fill-rule="evenodd" clip-rule="evenodd" fill="#3E3E3E" stroke="none"/>
  <path d="M 437.7871 3.7008 C 438.3404 3.7187 438.8937 3.7365 439.4638 3.7549 C 439.4638 4.8973 439.4638 6.0396 439.4638 7.2166 C 438.6071 7.2166 437.7503 7.2166 436.8676 7.2166 C 436.8676 6.6454 436.8676 6.0742 436.8676 5.4858 C 436.2964 5.2002 435.7252 4.9146 435.1367 4.6203 C 436.0022 3.7549 436.0022 3.7549 437.7871 3.7008 Z" fill-rule="evenodd" clip-rule="evenodd" fill="#030303" stroke="none"/>
  <path d="M 437.7871 3.7008 C 438.3583 3.8436 438.3583 3.8436 441.2487 4.5662 C 440.9632 4.709 440.9632 4.709 439.5179 5.4317 C 439.8035 5.86 439.8035 5.86 441.2487 8.0279 C 440.1064 8.0279 438.964 8.0279 437.7871 8.0279 C 437.3003 6.838 437.3003 6.838 436.9217 5.4317 C 437.2072 4.8605 437.4928 4.2893 437.7871 3.7008 Z" fill-rule="evenodd" clip-rule="evenodd" fill="#343434" stroke="none"/>
  <path d="M 437.7871 3.7008 C 439.1393 5.2694 439.1393 5.2694 440.3833 7.1625 C 440.1129 8.677 440.1129 8.677 439.5179 9.7587 C 438.1657 8.677 438.1657 8.677 436.9217 7.1625 C 437.1921 5.2694 437.1921 5.2694 437.7871 3.7008 Z" fill-rule="evenodd" clip-rule="evenodd" fill="#4D4D4D" stroke="none"/>
  <path d="M 437.7871 3.7008 C 438.1084 4.0043 438.4297 4.3077 438.7607 4.6203 C 438.1895 5.1915 437.6183 5.7627 437.0298 6.3512 C 435.0307 5.78 433.0316 5.2088 430.9719 4.6203 C 430.9719 4.3347 430.9719 4.0492 430.9719 3.7549 C 435.765 2.6898 435.765 2.6898 437.7871 3.7008 Z" fill-rule="evenodd" clip-rule="evenodd" fill="#383838" stroke="none"/>
  <path d="M 437.7871 3.7008 C 438.3583 3.7008 438.9294 3.7008 439.5179 3.7008 C 438.8688 5.3776 438.8688 5.3776 437.7871 7.1625 C 435.9481 7.8116 435.9481 7.8116 434.3254 8.0279 C 434.8596 7.3018 435.4021 6.5817 435.9481 5.8644 C 436.2493 5.4628 436.5505 5.0612 436.8608 4.6474 C 437.1665 4.335 437.4721 4.0227 437.7871 3.7008 Z" fill-rule="evenodd" clip-rule="evenodd" fill="#E9E9E9" stroke="none"/>
  <path d="M 437.7871 3.7008 C 438.0727 4.5576 438.3583 5.4144 438.6525 6.2971 C 437.5707 7.6493 437.5707 7.6493 436.0562 8.8933 C 434.1631 8.6229 434.1631 8.6229 432.5946 8.0279 C 433.6933 7.4081 434.7919 6.7884 435.8906 6.1686 C 436.9217 5.4317 436.9217 5.4317 437.7871 3.7008 Z" fill-rule="evenodd" clip-rule="evenodd" fill="#F4F4F4" stroke="none"/>
  <path d="M 437.7871 3.7008 C 438.7066 4.7826 438.7066 4.7826 439.5179 6.2971 C 439.1934 8.1902 439.1934 8.1902 438.6525 9.7587 C 438.0813 9.7587 437.5101 9.7587 436.9217 9.7587 C 436.6361 8.6164 436.3505 7.474 436.0562 6.2971 C 436.6274 6.2971 437.1986 6.2971 437.7871 6.2971 C 437.7871 5.4403 437.7871 4.5836 437.7871 3.7008 Z" fill-rule="evenodd" clip-rule="evenodd" fill="#878787" stroke="none"/>
  <path d="M 437.7871 3.7008 C 438.6438 3.9864 439.5006 4.272 440.3833 4.5662 C 438.9554 5.9942 437.5275 7.4221 436.0562 8.8933 C 436.0562 6.2221 436.2599 5.7052 437.7871 3.7008 Z" fill-rule="evenodd" clip-rule="evenodd" fill="#E0E0E0" stroke="none"/>
  <path d="M 437.7871 3.7008 C 438.1798 3.8615 438.5724 4.0221 438.977 4.1876 C 437.7871 5.4858 437.7871 5.4858 436.3808 6.7839 C 435.8096 6.7839 435.2384 6.7839 434.6499 6.7839 C 434.6499 5.9271 434.6499 5.0704 434.6499 4.1876 C 436.3808 3.3222 436.3808 3.3222 437.7871 3.7008 Z" fill-rule="evenodd" clip-rule="evenodd" fill="#373737" stroke="none"/>
  <path d="M 437.7871 3.7008 C 440.3833 3.7008 440.3833 3.7008 442.1142 4.5662 C 441.6858 4.9946 441.6858 4.9946 439.5179 7.1625 C 438.6611 6.8769 437.8044 6.5913 436.9217 6.2971 C 437.2072 5.4403 437.4928 4.5836 437.7871 3.7008 Z" fill-rule="evenodd" clip-rule="evenodd" fill="#505050" stroke="none"/>
  <path d="M 437.7871 3.7008 C 438.6438 3.7008 439.5006 3.7008 440.3833 3.7008 C 440.0588 5.3776 440.0588 5.3776 439.5179 7.1625 C 439.2323 7.3053 439.2323 7.3053 437.7871 8.0279 C 437.7871 6.6 437.7871 5.172 437.7871 3.7008 Z" fill-rule="evenodd" clip-rule="evenodd" fill="#0D0D0D" stroke="none"/>
  <path d="M 437.7871 3.7008 C 438.3583 3.9864 438.9294 4.272 439.5179 4.5662 C 439.2323 6.2798 438.9467 7.9933 438.6525 9.7587 C 436.8418 6.6699 436.8418 6.6699 437.2462 4.7826 C 437.4247 4.4256 437.6032 4.0686 437.7871 3.7008 Z" fill-rule="evenodd" clip-rule="evenodd" fill="#0C0C0C" stroke="none"/>
  <path d="M 437.7871 3.7008 C 439.5006 4.272 441.2141 4.8432 442.9796 5.4317 C 442.1228 6.0028 441.2661 6.574 440.3833 7.1625 C 439.0852 6.4053 439.0852 6.4053 437.7871 5.4317 C 437.7871 4.8605 437.7871 4.2893 437.7871 3.7008 Z" fill-rule="evenodd" clip-rule="evenodd" fill="#3B3B3B" stroke="none"/>
  <path d="M 437.7871 3.7008 C 438.3583 3.9864 438.3583 3.9864 441.2487 5.4317 C 440.6776 6.574 440.1064 7.7164 439.5179 8.8933 C 438.9467 7.1798 438.3756 5.4663 437.7871 3.7008 Z" fill-rule="evenodd" clip-rule="evenodd" fill="#070707" stroke="none"/>
  <path d="M 437.7871 3.7008 C 438.3583 3.9864 438.9294 4.272 439.5179 4.5662 C 439.2323 5.423 438.9467 6.2798 438.6525 7.1625 C 438.0813 6.8769 437.5101 6.5913 436.9217 6.2971 C 437.2072 5.4403 437.4928 4.5836 437.7871 3.7008 Z" fill-rule="evenodd" clip-rule="evenodd" fill="#323232" stroke="none"/>
  <path d="M 437.7871 3.7008 C 438.6438 3.7008 439.5006 3.7008 440.3833 3.7008 C 440.0977 4.5576 439.8122 5.4144 439.5179 6.2971 C 438.9467 6.0115 438.3756 5.7259 437.7871 5.4317 C 437.7871 4.8605 437.7871 4.2893 437.7871 3.7008 Z" fill-rule="evenodd" clip-rule="evenodd" fill="#3E3E3E" stroke="none"/>
  <path d="M 437.7871 3.7008 C 438.3583 4.272 438.9294 4.8432 439.5179 5.4317 C 438.6611 5.7173 437.8044 6.0028 436.9217 6.2971 C 437.2072 5.4403 437.4928 4.5836 437.7871 3.7008 Z" fill-rule="evenodd" clip-rule="evenodd" fill="#363636" stroke="none"/>
  <path d="M 437.7871 3.7008 C 438.6438 3.9864 439.5006 4.272 440.3833 4.5662 C 439.8122 5.1374 439.241 5.7086 438.6525 6.2971 C 438.3669 5.4403 438.0813 4.5836 437.7871 3.7008 Z" fill-rule="evenodd" clip-rule="evenodd" fill="#3F3F3F" stroke="none"/>
  <path d="M 437.7871 3.7008 C 438.3583 4.272 438.9294 4.8432 439.5179 5.4317 C 438.6611 5.4317 437.8044 5.4317 436.9217 5.4317 C 437.2072 4.8605 437.4928 4.2893 437.7871 3.7008 Z" fill-rule="evenodd" clip-rule="evenodd" fill="#C5C5C5" stroke="none"/></g></svg>