<?xml version="1.0" encoding="UTF-8"?>
<svg width="950" height="35" viewBox="0 0 950 35" fill="none" xmlns="http://www.w3.org/2000/svg">
  <path d="M370.3 12 L367.36 17.5 L371.56 24.1 L400.96 26.74 L403.9 17.5 L400.12 9.14 L373.24 14.2 Z" fill-rule="evenodd" clip-rule="evenodd" fill="#FFFFFF" stroke="#000000" stroke-width="1.4" stroke-linejoin="round" stroke-linecap="round"/>
  <path d="M374.5 17.5 A10.5 10.5 0 1 0 395.5 17.5 A10.5 10.5 0 1 0 374.5 17.5 Z" fill-rule="evenodd" clip-rule="evenodd" fill="#40C8F0" stroke="none"/>
  <path d="M381.5 17.5 A3.5 3.5 0 1 0 388.5 17.5 A3.5 3.5 0 1 0 381.5 17.5 Z" fill-rule="evenodd" clip-rule="evenodd" fill="#FFFFFF" stroke="none"/>
  <path d="M379.5 17.5 A5.5 5.5 0 1 0 390.5 17.5 A5.5 5.5 0 1 0 379.5 17.5 Z" fill-rule="evenodd" clip-rule="evenodd" fill="none" stroke="#80D8F8" stroke-width="0.45" stroke-linejoin="round" stroke-linecap="round"/>
  <path d="M377.5 17.5 A7.5 7.5 0 1 0 392.5 17.5 A7.5 7.5 0 1 0 377.5 17.5 Z" fill-rule="evenodd" clip-rule="evenodd" fill="none" stroke="#80D8F8" stroke-width="0.45" stroke-linejoin="round" stroke-linecap="round"/>
  <path d="M375.5 17.5 A9.5 9.5 0 1 0 394.5 17.5 A9.5 9.5 0 1 0 375.5 17.5 Z" fill-rule="evenodd" clip-rule="evenodd" fill="none" stroke="#80D8F8" stroke-width="0.45" stroke-linejoin="round" stroke-linecap="round"/>
  <path d="M385 17.5 Q389 17.5 393.5 17.5 Q387.8 17.5 385 17.5 Z" fill-rule="evenodd" clip-rule="evenodd" fill="#A0E8FF" stroke="none"/>
  <path d="M385 17.5 Q387 20.9641 389.25 24.8612 Q386.4 19.9249 385 17.5 Z" fill-rule="evenodd" clip-rule="evenodd" fill="#A0E8FF" stroke="none"/>
  <path d="M385 17.5 Q383 20.9641 380.75 24.8612 Q383.6 19.9249 385 17.5 Z" fill-rule="evenodd" clip-rule="evenodd" fill="#A0E8FF" stroke="none"/>
  <path d="M385 17.5 Q381 17.5 376.5 17.5 Q382.2 17.5 385 17.5 Z" fill-rule="evenodd" clip-rule="evenodd" fill="#A0E8FF" stroke="none"/>
  <path d="M385 17.5 Q383 14.0359 380.75 10.1388 Q383.6 15.0751 385 17.5 Z" fill-rule="evenodd" clip-rule="evenodd" fill="#A0E8FF" stroke="none"/>
  <path d="M385 17.5 Q387 14.0359 389.25 10.1388 Q386.4 15.0751 385 17.5 Z" fill-rule="evenodd" clip-rule="evenodd" fill="#A0E8FF" stroke="none"/>
  <path d="M383 17.5 A2 2 0 1 0 387 17.5 A2 2 0 1 0 383 17.5 Z" fill-rule="evenodd" clip-rule="evenodd" fill="#FFFFFF" stroke="none"/>
  <path d="M550.3 12 L547.36 17.5 L551.56 24.1 L580.96 26.74 L583.9 17.5 L580.12 9.14 L553.24 14.2 Z" fill-rule="evenodd" clip-rule="evenodd" fill="#FFFFFF" stroke="#000000" stroke-width="1.4" stroke-linejoin="round" stroke-linecap="round"/>
  <path d="M554.5 17.5 A10.5 10.5 0 1 0 575.5 17.5 A10.5 10.5 0 1 0 554.5 17.5 Z" fill-rule="evenodd" clip-rule="evenodd" fill="#40C8F0" stroke="none"/>
  <path d="M561.5 17.5 A3.5 3.5 0 1 0 568.5 17.5 A3.5 3.5 0 1 0 561.5 17.5 Z" fill-rule="evenodd" clip-rule="evenodd" fill="#FFFFFF" stroke="none"/>
  <path d="M559.5 17.5 A5.5 5.5 0 1 0 570.5 17.5 A5.5 5.5 0 1 0 559.5 17.5 Z" fill-rule="evenodd" clip-rule="evenodd" fill="none" stroke="#80D8F8" stroke-width="0.45" stroke-linejoin="round" stroke-linecap="round"/>
  <path d="M557.5 17.5 A7.5 7.5 0 1 0 572.5 17.5 A7.5 7.5 0 1 0 557.5 17.5 Z" fill-rule="evenodd" clip-rule="evenodd" fill="none" stroke="#80D8F8" stroke-width="0.45" stroke-linejoin="round" stroke-linecap="round"/>
  <path d="M555.5 17.5 A9.5 9.5 0 1 0 574.5 17.5 A9.5 9.5 0 1 0 555.5 17.5 Z" fill-rule="evenodd" clip-rule="evenodd" fill="none" stroke="#80D8F8" stroke-width="0.45" stroke-linejoin="round" stroke-linecap="round"/>
  <path d="M565 17.5 Q569 17.5 573.5 17.5 Q567.8 17.5 565 17.5 Z" fill-rule="evenodd" clip-rule="evenodd" fill="#A0E8FF" stroke="none"/>
  <path d="M565 17.5 Q567 20.9641 569.25 24.8612 Q566.4 19.9249 565 17.5 Z" fill-rule="evenodd" clip-rule="evenodd" fill="#A0E8FF" stroke="none"/>
  <path d="M565 17.5 Q563 20.9641 560.75 24.8612 Q563.6 19.9249 565 17.5 Z" fill-rule="evenodd" clip-rule="evenodd" fill="#A0E8FF" stroke="none"/>
  <path d="M565 17.5 Q561 17.5 556.5 17.5 Q562.2 17.5 565 17.5 Z" fill-rule="evenodd" clip-rule="evenodd" fill="#A0E8FF" stroke="none"/>
  <path d="M565 17.5 Q563 14.0359 560.75 10.1388 Q563.6 15.0751 565 17.5 Z" fill-rule="evenodd" clip-rule="evenodd" fill="#A0E8FF" stroke="none"/>
  <path d="M565 17.5 Q567 14.0359 569.25 10.1388 Q566.4 15.0751 565 17.5 Z" fill-rule="evenodd" clip-rule="evenodd" fill="#A0E8FF" stroke="none"/>
  <path d="M563 17.5 A2 2 0 1 0 567 17.5 A2 2 0 1 0 563 17.5 Z" fill-rule="evenodd" clip-rule="evenodd" fill="#FFFFFF" stroke="none"/>
</svg>
