<?xml version="1.0" encoding="UTF-8"?>
<svg width="950" height="35" viewBox="0 0 950 35" fill="none" xmlns="http://www.w3.org/2000/svg">
  <path d="M9.5 18.267 L200.5388 18.267" fill="none" stroke="white" stroke-width="0.5" stroke-linecap="round" stroke-linejoin="round"/>
  <path d="M758.0833 18.267 L940.5 18.267" fill="none" stroke="white" stroke-width="0.5" stroke-linecap="round" stroke-linejoin="round"/>
  <path d="M9.5 18.6465 L200.5388 18.6465" fill="none" stroke="white" stroke-width="0.5" stroke-linecap="round" stroke-linejoin="round"/>
  <path d="M758.0833 18.6465 L940.5 18.6465" fill="none" stroke="white" stroke-width="0.5" stroke-linecap="round" stroke-linejoin="round"/>
  <path d="M424.4056 18.3769 C437.1293 1.5909 458.4865 4.2102 454.2879 18.424 C450.6458 30.0533 437.2315 22.2754 442.8915 15.8205" fill="none" stroke="white" stroke-width="0.5" stroke-linecap="round" stroke-linejoin="round"/>
  <path d="M525.5944 18.5366 C512.7047 1.7102 491.3729 4.2621 495.7121 18.4895 C499.4693 30.1303 512.8069 22.3948 507.0831 15.9219" fill="none" stroke="white" stroke-width="0.5" stroke-linecap="round" stroke-linejoin="round"/>
  <path d="M457.9244 18.4298 C466.3884 3.5044 483.464 3.5314 492.0757 18.4837 C483.6117 33.4091 466.5361 33.3821 457.9244 18.4298 Z" fill-rule="evenodd" clip-rule="evenodd" fill="white" stroke="none"/>
  <path d="M420.6111 18.3709 C420.6017 16.4669 418.8951 14.9208 416.7995 14.9175 C414.7038 14.9141 413.0125 16.4549 413.022 18.3589 C413.0313 20.2629 414.7379 21.809 416.8335 21.8123 C418.9293 21.8156 420.6205 20.2748 420.6111 18.3709 Z" fill-rule="evenodd" clip-rule="evenodd" fill="white" stroke="none"/>
  <path d="M536.9781 18.5546 C536.9687 16.6507 535.2622 15.1045 533.1665 15.1012 C531.0708 15.0979 529.3795 16.6387 529.3889 18.5427 C529.3983 20.4466 531.1048 21.9928 533.2005 21.9961 C535.2962 21.9994 536.9875 20.4586 536.9781 18.5546 Z" fill-rule="evenodd" clip-rule="evenodd" fill="white" stroke="none"/>
</svg>
