<?xml version="1.0" encoding="UTF-8"?>
<svg width="950" height="35" viewBox="0 0 950 35" fill="none" xmlns="http://www.w3.org/2000/svg">
  <path d="M 436.4099 2.6119 C 471.3564 2.6119 506.3028 2.6119 542.3083 2.6119 C 542.3083 12.6812 542.3083 22.7506 542.3083 33.125 C 507.3618 33.125 472.4154 33.125 436.4099 33.125 C 436.4099 23.0557 436.4099 12.9864 436.4099 2.6119 Z" fill-rule="evenodd" clip-rule="evenodd" fill="#FEFEFE" stroke="none"/>
  <path d="M 436.4099 2.6119 C 436.4099 3.2042 436.4099 3.7965 436.4099 4.4068 C 437.5946 4.703 438.7792 4.9991 439.9997 5.3043 C 439.9997 7.0812 439.9997 8.8581 439.9997 10.6889 C 429.3381 10.6889 418.6764 10.6889 407.6917 10.6889 C 416.8116 3.3931 425.2071 2.4325 436.4099 2.6119 Z" fill-rule="evenodd" clip-rule="evenodd" fill="#3F3F3F" stroke="none"/>
  <path d="M 436.4099 2.6119 C 436.9148 2.6121 437.4196 2.6124 437.9397 2.6126 C 445.5871 2.909 454.644 5.7578 460.08 11.1937 C 450.0107 11.1937 439.9414 11.1937 429.5669 11.1937 C 429.5669 5.8091 429.5669 5.8091 430.1489 4.1579 C 432.0442 2.531 434.0213 2.6023 436.4099 2.6119 Z" fill-rule="evenodd" clip-rule="evenodd" fill="#171717" stroke="none"/>
  <path d="M 436.4099 2.6119 C 437.2938 2.62 438.1776 2.6281 439.0882 2.6365 C 439.4237 2.6417 439.4237 2.6417 441.1215 2.668 C 441.1215 3.2603 441.1215 3.8526 441.1215 4.4629 C 442.3061 4.7591 443.4908 5.0552 444.7113 5.3603 C 444.7113 7.1373 444.7113 8.9142 444.7113 10.745 C 443.5267 10.745 442.342 10.745 441.1215 10.745 C 441.1215 9.8565 441.1215 8.9681 441.1215 8.0527 C 440.7704 8.0307 440.7704 8.0307 438.9936 7.9195 C 438.0762 7.8521 437.1589 7.7843 436.2417 7.7161 C 435.7783 7.6884 435.315 7.6606 434.8377 7.632 C 433.6348 7.5377 432.44 7.3521 431.2496 7.1552 C 430.9535 6.5629 430.6573 5.9706 430.3522 5.3603 C 428.9499 4.3507 428.9499 4.3507 427.6599 3.5655 C 430.631 2.667 433.3145 2.5751 436.4099 2.6119 Z" fill-rule="evenodd" clip-rule="evenodd" fill="#515151" stroke="none"/>
  <path d="M 436.4099 2.6119 C 436.4099 3.2042 436.4099 3.7965 436.4099 4.4068 C 438.7792 4.703 441.1484 4.9991 443.5895 5.3043 C 443.2933 5.8966 442.9972 6.4889 442.692 7.0991 C 440.9945 7.3799 439.4087 7.5576 437.7 7.66 C 437.2332 7.6947 436.7664 7.7295 436.2855 7.7652 C 435.1309 7.85 433.9756 7.9243 432.8202 7.9966 C 432.524 8.8851 432.2278 9.7735 431.9227 10.6889 C 431.0342 10.6889 430.1458 10.6889 429.2304 10.6889 C 429.0192 5.9377 429.0192 5.9377 429.7913 3.6215 C 431.8313 1.9525 433.8413 2.4444 436.4099 2.6119 Z" fill-rule="evenodd" clip-rule="evenodd" fill="#484848" stroke="none"/>
  <path d="M 436.4099 2.6119 C 436.7998 2.6108 436.7998 2.6108 438.7727 2.6049 C 440.785 2.7241 440.785 2.7241 442.5799 3.6215 C 442.5799 4.51 442.5799 5.3985 442.5799 6.3139 C 440.5226 6.3864 438.4679 6.4399 436.4099 6.4821 C 436.1178 6.4934 436.1178 6.4934 434.6396 6.5505 C 433.054 6.575 431.5801 6.576 430.0156 6.3139 C 428.7186 4.9572 428.7186 4.9572 428.2208 3.6215 C 431.0064 2.8053 433.5113 2.6033 436.4099 2.6119 Z" fill-rule="evenodd" clip-rule="evenodd" fill="#B1B1B1" stroke="none"/>
  <path d="M 436.4099 2.6119 C 437.2868 2.5992 438.1637 2.5865 439.0672 2.5734 C 441.4202 2.7769 442.3933 3.063 444.1504 4.5751 C 442.3555 6.37 442.3555 6.37 441.0808 6.5737 C 440.8411 6.569 440.8411 6.569 439.6281 6.5452 C 439.1075 6.5395 438.5869 6.5337 438.0506 6.5277 C 437.5092 6.5127 436.9677 6.4976 436.4099 6.4821 C 436.1358 6.4781 436.1358 6.4781 434.7483 6.4576 C 433.3949 6.4365 432.0418 6.4043 430.6887 6.37 C 430.6887 1.875 432.3913 2.6383 436.4099 2.6119 Z" fill-rule="evenodd" clip-rule="evenodd" fill="#B8B8B8" stroke="none"/>
  <path d="M 436.4099 2.6119 C 441.7318 2.2722 445.8083 3.4145 450.769 5.3043 C 450.769 5.8966 450.769 6.4889 450.769 7.0991 C 449.9361 7.0806 449.1031 7.0621 448.245 7.0431 C 446.2121 7.0382 444.5773 7.1587 442.692 7.9966 C 442.3959 7.4043 442.0997 6.812 441.7946 6.2017 C 439.7215 6.2017 437.6484 6.2017 435.5125 6.2017 C 435.8086 5.0171 436.1048 3.8324 436.4099 2.6119 Z" fill-rule="evenodd" clip-rule="evenodd" fill="#7B7B7B" stroke="none"/>
  <path d="M 436.4099 2.6119 C 436.9467 2.7045 437.4835 2.797 438.0365 2.8924 C 438.0365 3.4847 438.0365 4.077 438.0365 4.6873 C 439.3827 5.6969 439.3827 5.6969 440.7289 6.4821 C 438.6541 7.2929 436.9483 7.4776 434.7272 7.4357 C 434.1685 7.4276 433.6097 7.4195 433.034 7.4111 C 432.8229 7.4059 432.8229 7.4059 431.7544 7.3796 C 433.9635 2.9614 433.9635 2.9614 436.4099 2.6119 Z" fill-rule="evenodd" clip-rule="evenodd" fill="#101010" stroke="none"/>
  <path d="M 436.4099 2.6119 C 437.8907 2.6119 439.3715 2.6119 440.8971 2.6119 C 440.8971 4.3889 440.8971 6.1658 440.8971 7.9966 C 439.7125 7.9966 438.5279 7.9966 437.3074 7.9966 C 437.3074 7.1081 437.3074 6.2196 437.3074 5.3043 C 436.7151 5.0081 436.1228 4.7119 435.5125 4.4068 C 435.8086 3.8145 436.1048 3.2222 436.4099 2.6119 Z" fill-rule="evenodd" clip-rule="evenodd" fill="#222222" stroke="none"/>
  <path d="M 436.4099 2.6119 C 436.6893 2.6576 436.6893 2.6576 438.1032 2.8889 C 438.3143 2.9265 438.3143 2.9265 439.3827 3.1167 C 438.7904 4.3014 438.1981 5.486 437.5878 6.7065 C 436.9955 6.7065 436.4032 6.7065 435.7929 6.7065 C 435.7929 6.1142 435.7929 5.5219 435.7929 4.9116 C 434.3122 5.2078 432.8314 5.5039 431.3057 5.8091 C 431.0096 4.9206 430.7134 4.0321 430.4083 3.1167 C 432.597 2.2076 434.0873 2.2175 436.4099 2.6119 Z" fill-rule="evenodd" clip-rule="evenodd" fill="#A2A2A2" stroke="none"/>
  <path d="M 436.4099 2.6119 C 437.4191 2.5634 438.4289 2.5286 439.4388 2.4997 C 440.001 2.4789 440.5633 2.4581 441.1425 2.4366 C 442.692 2.6119 442.692 2.6119 444.4869 4.4068 C 443.5985 4.4068 442.71 4.4068 441.7946 4.4068 C 441.7946 4.9991 441.7946 5.5914 441.7946 6.2017 C 439.7215 6.2017 437.6484 6.2017 435.5125 6.2017 C 435.8086 5.0171 436.1048 3.8324 436.4099 2.6119 Z" fill-rule="evenodd" clip-rule="evenodd" fill="#727272" stroke="none"/>
  <path d="M 436.4099 2.6119 C 439.4385 3.103 440.9711 3.5586 443.5895 5.3043 C 440.3318 5.3043 437.074 5.3043 433.7176 5.3043 C 434.6061 5.0081 435.4945 4.7119 436.4099 4.4068 C 436.4099 3.8145 436.4099 3.2222 436.4099 2.6119 Z" fill-rule="evenodd" clip-rule="evenodd" fill="#F3F3F3" stroke="none"/>
  <path d="M 436.4099 2.6119 C 437.2984 2.6119 438.1869 2.6119 439.1023 2.6119 C 439.8082 4.259 440.0645 5.0543 439.6071 6.8187 C 439.4405 7.2074 439.2739 7.5961 439.1023 7.9966 C 438.2138 7.9966 437.3253 7.9966 436.4099 7.9966 C 436.4099 6.2196 436.4099 4.4427 436.4099 2.6119 Z" fill-rule="evenodd" clip-rule="evenodd" fill="#252525" stroke="none"/>
  <path d="M 436.4099 2.6119 C 437.4465 3.0562 437.4465 3.0562 442.692 5.3043 C 440.1898 6.231 439.221 6.2422 436.6343 5.3603 C 435.9679 5.0457 435.3016 4.731 434.615 4.4068 C 435.2074 3.8145 435.7997 3.2222 436.4099 2.6119 Z" fill-rule="evenodd" clip-rule="evenodd" fill="#252525" stroke="none"/>
  <path d="M 436.4099 2.6119 C 436.6691 2.7137 436.6691 2.7137 437.9805 3.2289 C 436.1856 5.0238 436.1856 5.0238 434.8324 5.1991 C 433.4886 5.1407 432.1447 5.0822 430.8009 5.0238 C 433.8936 2.2624 433.8936 2.2624 436.4099 2.6119 Z" fill-rule="evenodd" clip-rule="evenodd" fill="#F2F2F2" stroke="none"/>
  <path d="M 436.4099 2.6119 C 437.0022 2.6119 437.5946 2.6119 438.2048 2.6119 C 438.501 4.0927 438.7971 5.5735 439.1023 7.0991 C 438.2138 7.0991 437.3253 7.0991 436.4099 7.0991 C 436.4099 5.6184 436.4099 4.1376 436.4099 2.6119 Z" fill-rule="evenodd" clip-rule="evenodd" fill="#818181" stroke="none"/>
  <path d="M 436.4099 2.6119 C 437.5946 2.6119 438.7792 2.6119 439.9997 2.6119 C 439.9997 3.2042 439.9997 3.7965 439.9997 4.4068 C 439.1112 4.703 438.2228 4.9991 437.3074 5.3043 C 437.0112 4.4158 436.7151 3.5273 436.4099 2.6119 Z" fill-rule="evenodd" clip-rule="evenodd" fill="#1B1B1B" stroke="none"/>
  <path d="M 436.4099 2.6119 C 438.317 3.4533 438.317 3.4533 439.9997 4.4068 C 438.317 4.9677 438.317 4.9677 436.4099 5.3043 C 435.8176 4.7119 435.2253 4.1196 434.615 3.5094 C 435.2074 3.2132 435.7997 2.9171 436.4099 2.6119 Z" fill-rule="evenodd" clip-rule="evenodd" fill="#4B4B4B" stroke="none"/>
  <path d="M 436.4099 2.6119 C 437.2984 2.9081 438.1869 3.2042 439.1023 3.5094 C 438.8061 4.1017 438.5099 4.694 438.2048 5.3043 C 437.6125 5.3043 437.0202 5.3043 436.4099 5.3043 C 436.4099 4.4158 436.4099 3.5273 436.4099 2.6119 Z" fill-rule="evenodd" clip-rule="evenodd" fill="#616161" stroke="none"/>
</svg>
