<?xml version="1.0" encoding="UTF-8"?>
<svg width="950" height="35" viewBox="0 0 950 35" fill="none" xmlns="http://www.w3.org/2000/svg">
  <path d="M362.2159 1.5909 L361.0796 1.5909 L360.5114 2.1591 L359.9432 2.1591 L359.375 2.7273 L358.8068 2.7273 L358.8068 3.2954 L359.375 3.2954 L361.0796 2.1591 L362.2159 2.1591 L362.2159 1.5909 Z" fill-rule="evenodd" clip-rule="evenodd" fill="white" stroke="none"/>
  <path d="M366.1932 1.5909 L366.1932 2.1591 L370.7386 3.2954 L379.8296 8.409 L569.6023 8.409 L573.5795 6.7045 L574.7159 5.5682 L575.8523 5.5682 L580.3977 2.7273 L583.2387 2.1591 L583.2387 1.5909 L580.3977 2.1591 L569.6023 7.8409 L380.3977 7.8409 L369.6023 2.1591 L366.1932 1.5909 Z" fill-rule="evenodd" clip-rule="evenodd" fill="white" stroke="none"/>
  <path d="M587.7841 1.5909 L587.7841 2.1591 L588.3523 2.1591 L588.9204 2.7273 L589.4886 2.7273 L590.0568 3.2954 L590.625 3.2954 L590.625 2.7273 L590.0568 2.1591 L589.4886 2.1591 L588.9204 1.5909 L587.7841 1.5909 Z" fill-rule="evenodd" clip-rule="evenodd" fill="white" stroke="none"/>
  <path d="M362.7841 4.4318 L362.2159 5 L361.6477 5 L359.9432 6.7045 L359.9432 8.9773 L359.375 9.5454 L359.375 10.6818 L357.6705 12.3864 L357.1023 12.3864 L356.5341 11.8182 L355.9659 11.8182 L355.3977 12.3864 L354.2614 12.3864 L354.2614 13.5227 L352.5568 15.2273 L349.7159 15.2273 L349.1477 15.7954 L349.1477 19.2045 L349.7159 19.2045 L350.2841 19.7727 L352.5568 19.7727 L354.2614 21.4773 L353.6932 22.0454 L353.6932 22.6136 L355.3977 22.6136 L355.9659 23.1818 L356.5341 23.1818 L357.1023 22.6136 L357.6705 22.6136 L359.375 24.3182 L359.375 25.4545 L359.9432 26.0227 L359.9432 28.2954 L361.6477 30 L362.2159 30 L362.7841 30.5682 L363.9205 30.5682 L364.4886 30 L365.625 30 L365.625 29.4318 L362.7841 29.4318 L361.0796 27.7273 L361.0796 27.1591 L360.5114 26.5909 L360.5114 24.3182 L359.9432 23.75 L359.9432 23.1818 L358.8068 22.0454 L358.2386 22.0454 L357.6705 21.4773 L356.5341 21.4773 L355.3977 20.3409 L355.3977 19.7727 L355.9659 19.2045 L358.8068 19.2045 L359.375 18.6364 L359.9432 19.2045 L361.6477 19.2045 L362.2159 19.7727 L363.3523 19.7727 L363.9205 20.3409 L364.4886 20.3409 L365.0568 20.9091 L365.625 20.9091 L366.7614 22.0454 L367.3296 22.0454 L367.3296 21.4773 L365.0568 19.2045 L365.625 18.6364 L366.7614 18.6364 L366.7614 18.0682 L367.3296 17.5 L367.3296 16.9318 L366.7614 16.3636 L365.625 16.3636 L365.0568 15.7954 L367.3296 13.5227 L367.3296 12.9545 L366.7614 12.9545 L365.625 14.0909 L365.0568 14.0909 L363.3523 15.2273 L361.6477 15.2273 L361.0796 15.7954 L355.9659 15.7954 L355.3977 15.2273 L355.3977 14.0909 L355.9659 13.5227 L357.6705 13.5227 L358.2386 12.9545 L358.8068 12.9545 L359.9432 11.8182 L359.9432 11.25 L360.5114 10.6818 L360.5114 8.409 L361.0796 7.8409 L361.0796 6.7045 L361.6477 6.1364 L362.2159 6.1364 L362.7841 5.5682 L365.625 5.5682 L365.625 5 L365.0568 5 L364.4886 4.4318 L362.7841 4.4318 Z" fill-rule="evenodd" clip-rule="evenodd" fill="white" stroke="none"/>
  <path d="M367.8977 4.4318 L367.8977 5 L368.4659 5 L369.0341 5.5682 L370.1705 5.5682 L370.7386 6.1364 L371.3068 6.1364 L371.875 6.7045 L372.4432 6.7045 L373.5796 7.8409 L374.1477 7.8409 L379.2614 12.9545 L379.8296 12.9545 L379.8296 12.3864 L375.2841 7.8409 L374.7159 7.8409 L373.5796 6.7045 L373.0114 6.7045 L372.4432 6.1364 L371.875 6.1364 L371.3068 5.5682 L370.7386 5.5682 L369.0341 4.4318 L367.8977 4.4318 Z" fill-rule="evenodd" clip-rule="evenodd" fill="white" stroke="none"/>
  <path d="M581.5341 4.4318 L580.9659 4.4318 L580.3977 5 L579.2614 5 L578.6932 5.5682 L578.125 5.5682 L577.5568 6.1364 L576.9886 6.1364 L575.8523 7.2727 L575.2841 7.2727 L574.1478 8.409 L574.1478 8.9773 L574.7159 8.9773 L576.4205 7.2727 L576.9886 7.2727 L578.125 6.1364 L579.2614 6.1364 L579.8295 5.5682 L580.3977 5.5682 L580.9659 5 L581.5341 5 L581.5341 4.4318 Z" fill-rule="evenodd" clip-rule="evenodd" fill="white" stroke="none"/>
  <path d="M584.9432 4.4318 L584.375 5 L583.8068 5 L583.8068 5.5682 L584.9432 5.5682 L585.5114 5 L586.0795 5.5682 L587.2159 5.5682 L588.9204 7.2727 L588.9204 9.5454 L589.4886 10.1136 L589.4886 11.25 L590.0568 11.8182 L590.0568 12.3864 L590.625 12.3864 L591.7614 13.5227 L593.4659 13.5227 L594.0341 14.0909 L594.0341 15.2273 L593.4659 15.7954 L592.3295 15.7954 L591.7614 16.3636 L590.625 16.3636 L590.0568 15.7954 L588.9204 15.7954 L588.3523 15.2273 L586.6477 15.2273 L586.0795 14.6591 L584.9432 14.6591 L582.6705 12.3864 L582.1023 12.3864 L582.1023 12.9545 L582.6705 13.5227 L582.6705 14.0909 L583.2387 14.0909 L584.9432 15.7954 L584.375 16.3636 L583.2387 16.3636 L582.6705 16.9318 L582.6705 18.0682 L583.2387 18.6364 L584.375 18.6364 L584.9432 19.2045 L583.2387 20.9091 L582.6705 20.9091 L582.6705 21.4773 L582.1023 22.0454 L582.1023 22.6136 L582.6705 22.6136 L584.9432 20.3409 L586.0795 20.3409 L586.6477 19.7727 L588.3523 19.7727 L588.9204 19.2045 L592.8978 19.2045 L593.4659 18.6364 L594.6023 19.7727 L594.6023 20.3409 L593.4659 21.4773 L591.7614 21.4773 L590.0568 22.6136 L590.0568 23.1818 L589.4886 23.75 L589.4886 24.8863 L588.9204 25.4545 L588.9204 27.7273 L587.2159 29.4318 L584.375 29.4318 L584.375 30 L585.5114 30 L586.0795 30.5682 L586.6477 30.5682 L587.2159 30 L588.3523 30 L589.4886 28.8636 L589.4886 27.7273 L590.0568 27.1591 L590.0568 24.8863 L592.3295 22.6136 L592.8978 23.1818 L594.0341 23.1818 L594.6023 22.6136 L595.7387 22.6136 L595.7387 21.4773 L597.4432 19.7727 L599.7159 19.7727 L600.8523 18.6364 L600.8523 16.3636 L599.7159 15.2273 L597.4432 15.2273 L595.7387 13.5227 L595.7387 12.3864 L594.6023 12.3864 L594.0341 11.8182 L592.8978 11.8182 L592.3295 12.3864 L591.7614 11.8182 L591.1932 11.8182 L590.0568 10.1136 L590.0568 7.8409 L589.4886 7.2727 L589.4886 6.1364 L588.3523 5 L587.7841 5 L587.2159 4.4318 L584.9432 4.4318 Z" fill-rule="evenodd" clip-rule="evenodd" fill="white" stroke="none"/>
  <path d="M372.4432 10.1136 L371.3068 11.25 L371.3068 11.8182 L371.875 12.3864 L371.875 12.9545 L373.5796 12.9545 L374.1477 12.3864 L374.1477 10.6818 L373.5796 10.1136 L372.4432 10.1136 Z" fill-rule="evenodd" clip-rule="evenodd" fill="white" stroke="none"/>
  <path d="M575.8523 10.1136 L575.8523 10.6818 L575.2841 11.25 L575.2841 12.3864 L575.8523 12.9545 L577.5568 12.9545 L578.125 12.3864 L578.125 10.6818 L577.5568 10.1136 L575.8523 10.1136 Z" fill-rule="evenodd" clip-rule="evenodd" fill="white" stroke="none"/>
  <path d="M398.5795 11.8182 L398.5795 12.3864 L402.5568 12.3864 L403.125 11.8182 L415.625 11.8182 L416.1932 11.25 L533.2386 11.25 L533.8068 11.8182 L546.3068 11.8182 L546.875 12.3864 L550.8523 12.3864 L550.8523 11.8182 L546.875 11.8182 L546.3068 11.25 L536.0796 11.25 L535.5114 10.6818 L414.4886 10.6818 L413.9205 11.25 L403.125 11.25 L402.5568 11.8182 L398.5795 11.8182 Z" fill-rule="evenodd" clip-rule="evenodd" fill="white" stroke="none"/>
  <path d="M572.4432 10.6818 L571.875 10.6818 L570.7387 11.8182 L570.7387 12.3864 L571.3068 12.3864 L572.4432 11.25 L572.4432 10.6818 Z" fill-rule="evenodd" clip-rule="evenodd" fill="white" stroke="none"/>
  <path d="M394.6023 12.9545 L393.4659 12.9545 L392.8977 13.5227 L391.7614 13.5227 L391.1932 14.0909 L390.625 14.0909 L390.625 14.6591 L391.7614 14.6591 L393.4659 13.5227 L394.6023 13.5227 L394.6023 12.9545 Z" fill-rule="evenodd" clip-rule="evenodd" fill="white" stroke="none"/>
  <path d="M555.3977 12.9545 L555.3977 13.5227 L555.9659 13.5227 L556.5341 14.0909 L557.6705 14.0909 L558.2386 14.6591 L559.375 14.6591 L559.375 14.0909 L558.8069 14.0909 L558.2386 13.5227 L557.1023 13.5227 L556.5341 12.9545 L555.3977 12.9545 Z" fill-rule="evenodd" clip-rule="evenodd" fill="white" stroke="none"/>
  <path d="M569.6023 12.9545 L569.0341 12.9545 L568.4659 13.5227 L567.8978 13.5227 L567.3296 14.0909 L566.7614 14.0909 L566.7614 14.6591 L567.8978 14.6591 L568.4659 14.0909 L569.0341 14.0909 L569.6023 13.5227 L569.6023 12.9545 Z" fill-rule="evenodd" clip-rule="evenodd" fill="white" stroke="none"/>
  <path d="M383.8068 14.6591 L383.8068 15.2273 L389.4886 15.2273 L389.4886 14.6591 L383.8068 14.6591 Z" fill-rule="evenodd" clip-rule="evenodd" fill="white" stroke="none"/>
  <path d="M560.5114 14.6591 L560.5114 15.2273 L565.625 15.2273 L565.625 14.6591 L560.5114 14.6591 Z" fill-rule="evenodd" clip-rule="evenodd" fill="white" stroke="none"/>
  <path d="M377.5568 15.7954 L376.9886 16.3636 L376.9886 18.6364 L377.5568 18.6364 L378.125 19.2045 L378.6932 19.2045 L379.8296 18.0682 L379.8296 16.9318 L378.6932 15.7954 L377.5568 15.7954 Z" fill-rule="evenodd" clip-rule="evenodd" fill="white" stroke="none"/>
  <path d="M571.3068 15.7954 L570.1705 16.9318 L570.1705 18.0682 L571.3068 19.2045 L571.875 19.2045 L573.0114 18.0682 L573.0114 16.9318 L571.875 15.7954 L571.3068 15.7954 Z" fill-rule="evenodd" clip-rule="evenodd" fill="white" stroke="none"/>
  <path d="M387.7841 19.7727 L387.7841 20.3409 L390.0568 20.3409 L390.625 20.9091 L391.7614 20.9091 L393.4659 22.0454 L395.1705 22.0454 L395.7386 22.6136 L398.0114 22.6136 L398.0114 22.0454 L395.7386 22.0454 L395.1705 21.4773 L393.4659 21.4773 L392.8977 20.9091 L392.3295 20.9091 L391.7614 20.3409 L390.625 20.3409 L390.0568 19.7727 L387.7841 19.7727 Z" fill-rule="evenodd" clip-rule="evenodd" fill="white" stroke="none"/>
  <path d="M562.2159 19.7727 L559.9432 19.7727 L559.375 20.3409 L558.2386 20.3409 L557.6705 20.9091 L556.5341 20.9091 L555.9659 21.4773 L554.8295 21.4773 L554.2614 22.0454 L551.4204 22.0454 L550.8523 22.6136 L546.875 22.6136 L546.875 23.1818 L550.8523 23.1818 L551.4204 22.6136 L554.2614 22.6136 L554.8295 22.0454 L555.9659 22.0454 L556.5341 21.4773 L557.6705 21.4773 L558.2386 20.9091 L559.375 20.9091 L559.9432 20.3409 L562.2159 20.3409 L562.2159 19.7727 Z" fill-rule="evenodd" clip-rule="evenodd" fill="white" stroke="none"/>
  <path d="M564.4886 19.7727 L564.4886 20.3409 L566.1932 20.3409 L566.7614 20.9091 L567.8978 20.9091 L569.0341 22.0454 L569.6023 22.0454 L575.2841 27.7273 L575.8523 27.7273 L576.4205 28.2954 L576.9886 28.2954 L577.5568 28.8636 L578.125 28.8636 L579.8295 30 L580.9659 30 L580.9659 29.4318 L579.8295 29.4318 L579.2614 28.8636 L578.6932 28.8636 L578.125 28.2954 L577.5568 28.2954 L576.4205 27.1591 L575.8523 27.1591 L570.7387 22.0454 L570.1705 22.0454 L569.0341 20.9091 L568.4659 20.9091 L567.8978 20.3409 L566.7614 20.3409 L566.1932 19.7727 L564.4886 19.7727 Z" fill-rule="evenodd" clip-rule="evenodd" fill="white" stroke="none"/>
  <path d="M382.6705 20.3409 L382.1023 20.3409 L381.5341 20.9091 L380.9659 20.9091 L380.3977 21.4773 L379.8296 21.4773 L374.7159 26.5909 L374.1477 26.5909 L372.4432 28.2954 L371.875 28.2954 L370.1705 29.4318 L369.0341 29.4318 L368.4659 30 L367.8977 30 L367.8977 30.5682 L368.4659 30.5682 L369.0341 30 L370.1705 30 L370.7386 29.4318 L371.3068 29.4318 L371.875 28.8636 L372.4432 28.8636 L373.0114 28.2954 L373.5796 28.2954 L375.2841 26.5909 L375.8523 26.5909 L380.9659 21.4773 L381.5341 21.4773 L382.1023 20.9091 L382.6705 20.9091 L382.6705 20.3409 Z" fill-rule="evenodd" clip-rule="evenodd" fill="white" stroke="none"/>
  <path d="M371.875 22.0454 L371.875 22.6136 L371.3068 23.1818 L371.3068 23.75 L372.4432 24.8863 L373.5796 24.8863 L374.1477 24.3182 L374.1477 22.6136 L373.5796 22.0454 L371.875 22.0454 Z" fill-rule="evenodd" clip-rule="evenodd" fill="white" stroke="none"/>
  <path d="M575.8523 22.0454 L575.2841 22.6136 L575.2841 23.75 L576.4205 24.8863 L577.5568 24.8863 L578.125 24.3182 L578.125 22.6136 L577.5568 22.0454 L575.8523 22.0454 Z" fill-rule="evenodd" clip-rule="evenodd" fill="white" stroke="none"/>
  <path d="M399.1477 22.6136 L399.1477 23.1818 L403.125 23.1818 L403.125 22.6136 L399.1477 22.6136 Z" fill-rule="evenodd" clip-rule="evenodd" fill="white" stroke="none"/>
  <path d="M404.8296 23.1818 L404.8296 23.75 L412.2159 23.75 L412.2159 23.1818 L404.8296 23.1818 Z" fill-rule="evenodd" clip-rule="evenodd" fill="white" stroke="none"/>
  <path d="M537.2159 23.1818 L537.2159 23.75 L545.1705 23.75 L545.1705 23.1818 L537.2159 23.1818 Z" fill-rule="evenodd" clip-rule="evenodd" fill="white" stroke="none"/>
  <path d="M380.9659 26.5909 L379.8296 26.5909 L379.2614 27.1591 L378.125 27.1591 L376.9886 28.2954 L376.4205 28.2954 L375.8523 28.8636 L375.2841 28.8636 L374.7159 29.4318 L374.1477 29.4318 L373.5796 30 L373.0114 30 L372.4432 30.5682 L371.875 30.5682 L371.3068 31.1363 L370.7386 31.1363 L369.0341 32.2727 L367.8977 32.2727 L367.3296 32.8409 L361.6477 32.8409 L361.6477 33.4091 L367.3296 33.4091 L367.8977 32.8409 L369.0341 32.8409 L369.6023 32.2727 L370.1705 32.2727 L371.875 31.1363 L373.0114 31.1363 L374.1477 30 L374.7159 30 L375.2841 29.4318 L375.8523 29.4318 L376.4205 28.8636 L376.9886 28.8636 L377.5568 28.2954 L378.125 28.2954 L379.8296 27.1591 L380.9659 27.1591 L380.9659 26.5909 Z" fill-rule="evenodd" clip-rule="evenodd" fill="white" stroke="none"/>
  <path d="M569.0341 26.5909 L569.0341 27.1591 L570.1705 27.1591 L570.7387 27.7273 L571.3068 27.7273 L571.875 28.2954 L572.4432 28.2954 L573.0114 28.8636 L573.5795 28.8636 L574.7159 30 L575.2841 30 L575.8523 30.5682 L576.4205 30.5682 L576.9886 31.1363 L577.5568 31.1363 L579.2614 32.2727 L580.3977 32.2727 L580.9659 32.8409 L581.5341 32.8409 L581.5341 32.2727 L580.9659 32.2727 L580.3977 31.7045 L579.2614 31.7045 L578.6932 31.1363 L578.125 31.1363 L576.9886 30 L576.4205 30 L575.8523 29.4318 L575.2841 29.4318 L574.7159 28.8636 L574.1478 28.8636 L573.5795 28.2954 L573.0114 28.2954 L572.4432 27.7273 L571.875 27.7273 L570.1705 26.5909 L569.0341 26.5909 Z" fill-rule="evenodd" clip-rule="evenodd" fill="white" stroke="none"/>
  <path d="M590.625 31.7045 L590.0568 31.7045 L588.3523 32.8409 L582.6705 32.8409 L582.6705 33.4091 L588.3523 33.4091 L588.9204 32.8409 L590.0568 32.8409 L590.625 32.2727 L590.625 31.7045 Z" fill-rule="evenodd" clip-rule="evenodd" fill="white" stroke="none"/>
</svg>
