<?xml version="1.0" encoding="UTF-8"?>
<svg width="950" height="35" viewBox="0 0 950 35" fill="none" xmlns="http://www.w3.org/2000/svg">
  <path d="M279.0133 1.5909 L279.0133 16.4845 L281.7213 16.4845 L282.3982 15.8075 L282.3982 5.6528 L283.0752 4.9758 L287.1371 4.9758 L289.1681 7.6838 L290.522 12.4226 L292.553 15.8075 L292.553 17.1615 L299.3228 32.7321 L299.9998 32.7321 L302.0307 28.6702 L302.0307 27.3163 L309.4776 11.0686 L310.8315 6.3298 L312.1854 4.9758 L316.2474 4.9758 L316.9244 5.6528 L316.9244 15.8075 L317.6013 16.4845 L320.3093 16.4845 L320.9863 15.8075 L320.9863 2.2679 L320.3093 1.5909 L309.4776 1.5909 L307.4466 4.9758 L306.7696 8.3607 L304.7387 11.7457 L302.7077 17.8385 L300.6768 21.9004 L299.3228 22.5774 L297.9688 21.2234 L297.2918 17.8385 L295.2609 14.4536 L295.2609 13.0996 L289.845 1.5909 L279.0133 1.5909 Z" fill-rule="evenodd" clip-rule="evenodd" fill="white" stroke="none"/>
  <path d="M310.1545 19.1925 L310.1545 32.7321 L310.8315 33.4091 L321.6633 33.4091 L330.464 13.7766 L330.464 12.4226 L331.818 11.7457 L335.2029 18.5155 L335.2029 19.8695 L340.6188 32.7321 L341.2958 33.4091 L352.1275 33.4091 L352.1275 18.5155 L351.4505 17.8385 L349.4196 17.8385 L348.7426 18.5155 L348.7426 28.6702 L347.3886 30.0242 L344.6807 30.0242 L342.6497 27.9933 L340.6188 23.9314 L339.9418 20.5464 L331.818 1.5909 L331.141 1.5909 L331.141 2.9449 L329.1101 6.3298 L329.1101 7.6838 L327.0791 11.0686 L327.0791 12.4226 L325.0482 15.8075 L325.0482 17.1615 L323.0172 20.5464 L320.9863 26.6393 L318.2783 30.0242 L315.5704 30.0242 L314.2165 28.6702 L314.2165 19.1925 L312.8625 17.8385 L310.8315 17.8385 L310.1545 19.1925 Z" fill-rule="evenodd" clip-rule="evenodd" fill="white" stroke="none"/>
  <path d="M341.9728 2.2679 L341.9728 15.8075 L342.6497 16.4845 L345.3577 16.4845 L346.0346 15.8075 L346.0346 5.6528 L346.7116 4.9758 L350.7735 4.9758 L353.4815 9.7147 L357.5434 21.2234 L362.9592 32.7321 L363.6362 32.7321 L364.3132 30.0242 L370.406 17.1615 L373.114 9.0377 L375.8219 4.9758 L379.8838 4.9758 L380.5608 5.6528 L380.5608 15.8075 L381.2378 16.4845 L383.9457 16.4845 L384.6227 15.8075 L384.6227 6.3298 L383.9457 5.6528 L384.6227 4.9758 L383.9457 3.6219 L384.6227 2.2679 L383.9457 1.5909 L373.114 1.5909 L371.76 2.9449 L371.76 4.2988 L368.3751 11.0686 L364.9902 20.5464 L362.9592 23.2543 L360.9283 19.8695 L360.9283 18.5155 L354.1584 2.2679 L353.4815 1.5909 L342.6497 1.5909 L341.9728 2.2679 Z" fill-rule="evenodd" clip-rule="evenodd" fill="white" stroke="none"/>
  <path d="M406.2862 1.5909 L406.2862 16.4845 L409.6711 16.4845 L409.6711 5.6528 L410.348 4.9758 L414.41 4.9758 L416.4409 7.6838 L416.4409 9.0377 L419.8258 15.8075 L420.5028 19.1925 L426.5957 32.7321 L427.2726 32.7321 L429.3036 28.6702 L434.0425 15.8075 L436.0734 12.4226 L438.1044 6.3298 L439.4584 4.9758 L443.5203 4.9758 L444.8742 6.3298 L444.8742 16.4845 L447.5821 16.4845 L448.2591 15.8075 L448.2591 2.2679 L447.5821 1.5909 L436.7504 1.5909 L434.7195 4.9758 L434.7195 6.3298 L429.3036 17.8385 L429.3036 19.1925 L427.9496 21.9004 L426.5957 22.5774 L423.8878 17.8385 L423.8878 16.4845 L417.7949 2.2679 L417.1179 1.5909 L406.2862 1.5909 Z" fill-rule="evenodd" clip-rule="evenodd" fill="white" stroke="none"/>
  <path d="M459.0909 1.5909 L458.4139 1.5909 L457.7369 4.2988 L452.321 15.8075 L448.9361 25.2853 L445.5512 30.0242 L442.1663 30.0242 L440.8123 27.9933 L441.4893 27.3163 L441.4893 19.1925 L440.8123 17.8385 L438.1044 17.8385 L437.4274 18.5155 L437.4274 32.7321 L438.1044 33.4091 L448.9361 33.4091 L449.6131 32.7321 L451.644 26.6393 L458.4139 11.7457 L459.0909 11.7457 L460.4448 13.7766 L460.4448 15.1306 L462.4758 18.5155 L463.1528 21.9004 L465.1837 25.2853 L467.8916 32.7321 L468.5686 33.4091 L472.6305 33.4091 L473.9845 32.7321 L473.9845 30.7012 L471.2765 30.0242 L468.5686 25.2853 L468.5686 23.9314 L466.5377 20.5464 L466.5377 19.1925 L459.0909 1.5909 Z" fill-rule="evenodd" clip-rule="evenodd" fill="white" stroke="none"/>
  <path d="M469.2456 2.2679 L469.2456 15.8075 L469.9226 16.4845 L472.6305 16.4845 L473.3075 15.8075 L473.3075 5.6528 L473.9845 4.9758 L478.0464 4.9758 L479.4004 6.3298 L479.4004 7.6838 L485.4932 21.2234 L485.4932 22.5774 L488.2011 25.2853 L488.2011 27.9933 L490.2321 32.0552 L490.9091 32.0552 L497.0019 18.5155 L497.0019 15.8075 L500.3869 10.3917 L501.7408 6.3298 L503.0948 4.9758 L506.4797 4.9758 L507.1567 4.2988 L509.1877 4.2988 L509.8646 4.9758 L507.8337 7.0068 L507.8337 9.7147 L508.5106 10.3917 L507.8337 11.7457 L507.8337 15.8075 L508.5106 16.4845 L511.2186 16.4845 L511.2186 9.7147 L510.5416 9.0377 L511.2186 1.5909 L509.1877 1.5909 L507.8337 2.2679 L507.1567 3.6219 L506.4797 2.2679 L499.7099 1.5909 L499.7099 2.9449 L497.6789 6.3298 L497.6789 7.6838 L495.6479 11.0686 L495.6479 12.4226 L493.617 15.8075 L491.586 21.9004 L489.5551 23.9314 L488.8781 23.2543 L488.2011 18.5155 L484.8163 11.7457 L481.4313 2.2679 L480.7543 1.5909 L469.9226 1.5909 L469.2456 2.2679 Z" fill-rule="evenodd" clip-rule="evenodd" fill="white" stroke="none"/>
  <path d="M501.7408 17.8385 L502.4178 19.1925 L502.4178 22.5774 L501.7408 23.2543 L502.4178 30.7012 L503.0948 30.7012 L505.1258 33.4091 L512.5725 33.4091 L513.2495 32.7321 L519.3424 18.5155 L519.3424 15.8075 L522.7273 11.7457 L524.0813 13.0996 L524.7582 16.4845 L526.7892 19.8695 L526.7892 21.2234 L532.2051 33.4091 L543.0368 33.4091 L543.7138 32.0552 L543.7138 19.1925 L543.0368 17.8385 L540.3289 17.8385 L539.6519 19.1925 L539.6519 28.6702 L538.2979 30.0242 L535.59 30.0242 L532.8821 26.6393 L531.528 21.9004 L528.1432 15.1306 L527.4662 11.7457 L525.4353 9.7147 L523.4043 9.0377 L524.7582 8.3607 L524.7582 5.6528 L522.7273 1.5909 L522.0503 1.5909 L522.0503 2.9449 L520.6964 4.9758 L520.6964 9.0377 L519.3424 9.7147 L518.6654 11.0686 L518.6654 13.7766 L515.9574 16.4845 L515.9574 19.1925 L514.6035 21.9004 L514.6035 23.9314 L515.2805 24.6083 L513.2495 25.2853 L512.5725 27.3163 L509.1877 30.0242 L507.1567 29.3472 L506.4797 30.0242 L505.1258 28.6702 L505.1258 27.3163 L503.7718 25.2853 L503.7718 22.5774 L505.1258 21.2234 L505.1258 18.5155 L504.4488 17.8385 L501.7408 17.8385 Z" fill-rule="evenodd" clip-rule="evenodd" fill="white" stroke="none"/>
  <path d="M533.559 1.5909 L533.559 16.4845 L536.944 16.4845 L536.944 5.6528 L537.6209 4.9758 L541.6828 4.9758 L543.7138 7.6838 L546.4217 15.8075 L548.4527 19.1925 L548.4527 20.5464 L553.8685 32.7321 L554.5455 32.7321 L555.8995 30.0242 L555.8995 28.6702 L557.9304 25.2853 L557.9304 23.9314 L559.9614 20.5464 L559.9614 19.1925 L561.9923 15.8075 L564.0233 9.7147 L566.7312 4.9758 L570.7931 4.9758 L572.147 6.3298 L572.147 16.4845 L574.855 16.4845 L575.532 15.8075 L575.532 2.2679 L574.855 1.5909 L564.0233 1.5909 L556.5764 17.8385 L556.5764 19.1925 L555.2225 21.9004 L553.8685 22.5774 L552.5146 21.2234 L551.8375 17.8385 L549.8066 14.4536 L549.8066 13.0996 L547.7757 9.7147 L547.0987 6.3298 L544.3908 1.5909 L533.559 1.5909 Z" fill-rule="evenodd" clip-rule="evenodd" fill="white" stroke="none"/>
  <path d="M564.7003 18.5155 L564.7003 32.7321 L565.3773 33.4091 L576.209 33.4091 L585.6868 11.7457 L586.3638 11.7457 L587.7177 13.7766 L587.7177 15.1306 L591.1026 21.9004 L591.1026 23.2543 L595.8415 33.4091 L606.6733 33.4091 L606.6733 18.5155 L605.9963 17.8385 L603.9653 17.8385 L603.2883 18.5155 L603.2883 28.6702 L601.9343 30.0242 L599.2264 30.0242 L595.8415 25.2853 L595.8415 23.9314 L590.4256 12.4226 L589.7487 9.0377 L586.3638 1.5909 L585.6868 1.5909 L585.0098 4.2988 L580.9479 12.4226 L576.209 25.2853 L572.8241 30.0242 L570.1161 30.0242 L568.0852 27.9933 L568.0852 18.5155 L567.4082 17.8385 L565.3773 17.8385 L564.7003 18.5155 Z" fill-rule="evenodd" clip-rule="evenodd" fill="white" stroke="none"/>
  <path d="M596.5185 2.2679 L597.1954 3.6219 L596.5185 4.2988 L596.5185 15.8075 L597.1954 16.4845 L599.9034 16.4845 L600.5804 15.8075 L600.5804 5.6528 L601.2574 4.9758 L605.3193 4.9758 L606.6733 6.3298 L607.3502 9.7147 L609.3812 13.0996 L609.3812 14.4536 L611.4121 17.8385 L615.474 29.3472 L617.5049 32.7321 L618.182 32.7321 L618.8589 30.0242 L622.9208 21.9004 L622.9208 20.5464 L628.3367 9.0377 L628.3367 7.6838 L630.3677 4.9758 L634.4296 4.9758 L635.1065 5.6528 L635.1065 15.8075 L635.7835 16.4845 L638.4915 16.4845 L639.1684 15.8075 L639.1684 2.2679 L638.4915 1.5909 L627.6597 1.5909 L624.9518 6.3298 L624.9518 7.6838 L622.9208 11.0686 L619.5359 20.5464 L617.5049 23.2543 L608.7042 3.6219 L608.7042 2.2679 L608.0272 1.5909 L597.1954 1.5909 L596.5185 2.2679 Z" fill-rule="evenodd" clip-rule="evenodd" fill="white" stroke="none"/>
  <path d="M660.8319 1.5909 L660.8319 16.4845 L663.5398 16.4845 L664.2168 15.8075 L664.2168 5.6528 L664.8938 4.9758 L668.9557 4.9758 L670.9867 7.6838 L672.3407 12.4226 L674.3716 15.8075 L674.3716 17.1615 L681.1414 32.7321 L681.8184 32.7321 L683.8493 28.6702 L683.8493 27.3163 L689.2652 15.8075 L690.6192 11.0686 L692.6502 7.6838 L692.6502 6.3298 L694.004 4.9758 L698.0659 4.9758 L698.7429 5.6528 L698.7429 15.8075 L699.42 16.4845 L702.1279 16.4845 L702.8049 15.8075 L702.8049 2.2679 L702.1279 1.5909 L691.2962 1.5909 L687.9112 8.3607 L686.5573 13.0996 L683.8493 17.8385 L683.8493 19.1925 L682.4954 21.9004 L681.1414 22.5774 L679.7874 21.2234 L679.1105 17.8385 L677.0795 14.4536 L677.0795 13.0996 L671.6636 1.5909 L660.8319 1.5909 Z" fill-rule="evenodd" clip-rule="evenodd" fill="white" stroke="none"/>
  <path d="M247.1951 17.8385 L247.1951 33.4091 L258.0268 33.4091 L258.7038 32.7321 L261.4117 25.2853 L263.4427 21.9004 L263.4427 20.5464 L265.4736 17.1615 L265.4736 15.8075 L268.1816 11.7457 L269.5355 13.0996 L270.2125 16.4845 L274.2744 24.6083 L276.9823 32.7321 L277.6593 33.4091 L288.4911 33.4091 L288.4911 31.3781 L289.1681 30.7012 L289.1681 19.1925 L288.4911 17.8385 L285.7831 17.8385 L285.1061 19.1925 L285.1061 28.6702 L283.7522 30.0242 L281.0443 30.0242 L278.3363 26.6393 L278.3363 25.2853 L273.5974 15.1306 L268.8586 2.2679 L267.5046 2.2679 L264.1196 9.7147 L264.1196 11.0686 L262.0887 14.4536 L260.7348 19.1925 L258.7038 22.5774 L257.3498 27.3163 L254.6419 30.0242 L251.934 30.0242 L250.58 28.6702 L250.58 18.5155 L249.903 17.8385 L247.1951 17.8385 Z" fill-rule="evenodd" clip-rule="evenodd" fill="white" stroke="none"/>
  <path d="M373.791 19.1925 L373.791 32.7321 L374.4679 33.4091 L385.2997 33.4091 L387.3306 30.0242 L387.3306 28.6702 L389.3616 25.2853 L389.3616 23.9314 L391.3925 20.5464 L393.4235 14.4536 L395.4544 11.7457 L398.1624 16.4845 L398.1624 17.8385 L404.2552 31.3781 L404.2552 32.7321 L404.9322 33.4091 L415.7639 33.4091 L415.7639 17.8385 L413.056 17.8385 L412.379 18.5155 L412.379 28.6702 L411.025 30.0242 L408.3171 30.0242 L405.6092 26.6393 L405.6092 25.2853 L403.5783 21.9004 L402.9013 18.5155 L397.4854 7.0068 L396.1314 2.2679 L394.7774 2.2679 L393.4235 4.9758 L392.0695 9.7147 L383.2688 29.3472 L379.2068 30.0242 L377.8529 28.6702 L377.8529 18.5155 L377.1759 17.8385 L374.4679 17.8385 L373.791 19.1925 Z" fill-rule="evenodd" clip-rule="evenodd" fill="white" stroke="none"/>
  <path d="M629.0137 17.8385 L629.0137 33.4091 L639.8454 33.4091 L640.5224 32.7321 L643.2303 25.2853 L645.2613 21.9004 L645.2613 20.5464 L647.2923 17.1615 L647.2923 15.8075 L650.0002 11.7457 L651.3541 13.0996 L651.3541 14.4536 L659.4779 33.4091 L670.3097 33.4091 L670.9867 32.0552 L670.3097 30.7012 L670.9867 28.6702 L670.9867 19.8695 L670.3097 17.8385 L667.6017 17.8385 L666.9248 19.1925 L666.9248 28.6702 L665.5708 30.0242 L662.8628 30.0242 L660.1549 26.6393 L660.1549 25.2853 L655.416 15.1306 L650.6772 2.2679 L649.3232 2.2679 L645.9383 9.7147 L645.9383 11.0686 L643.9073 14.4536 L642.5533 19.1925 L640.5224 22.5774 L639.1684 27.3163 L636.4605 30.0242 L633.7526 30.0242 L632.3985 28.6702 L632.3985 18.5155 L631.7217 17.8385 L629.0137 17.8385 Z" fill-rule="evenodd" clip-rule="evenodd" fill="white" stroke="none"/>
  <path d="M478.7234 17.8385 L476.6924 17.8385 L476.0154 18.5155 L476.0154 30.0242 L475.3384 32.0552 L478.0464 32.0552 L478.0464 30.7012 L479.4004 29.3472 L479.4004 18.5155 L478.7234 17.8385 Z" fill-rule="evenodd" clip-rule="evenodd" fill="white" stroke="none"/>
</svg>
