<?xml version="1.0" encoding="UTF-8"?>
<svg xmlns="http://www.w3.org/2000/svg" viewBox="0 0 398.0313 25.3751" width="398.0313" height="25.3751">
  <path d="M7.6544 14.4802 L149.2617 14.7038" fill="none" stroke="#000000" stroke-width="0.35" stroke-linecap="round" stroke-linejoin="round"/>
  <path d="M248.7696 14.8609 L390.3769 15.0845" fill="none" stroke="#000000" stroke-width="0.35" stroke-linecap="round" stroke-linejoin="round"/>
  <path d="M145.4346 14.6977 C155.701 1.1534 172.9338 3.2669 169.546 14.7358 C166.6072 24.1192 155.7835 17.8434 160.3504 12.635" fill="none" stroke="#000000" stroke-width="0.35" stroke-linecap="round" stroke-linejoin="round"/>
  <path d="M164.5707 14.7279 C174.8371 1.1836 192.0699 3.2971 188.6822 14.766 C185.7433 24.1494 174.9196 17.8736 179.4865 12.6652" fill="none" stroke="#000000" stroke-width="0.35" stroke-linecap="round" stroke-linejoin="round"/>
  <path d="M233.4606 14.8367 C223.0602 1.2597 205.8479 3.3188 209.3492 14.7986 C212.3808 24.1915 223.1426 17.9497 218.5241 12.7269" fill="none" stroke="#000000" stroke-width="0.35" stroke-linecap="round" stroke-linejoin="round"/>
  <path d="M252.5968 14.8669 C242.1963 1.29 224.9841 3.349 228.4853 14.8289 C231.5169 24.2217 242.2787 17.98 237.6603 12.7571" fill="none" stroke="#000000" stroke-width="0.35" stroke-linecap="round" stroke-linejoin="round"/>
</svg>
