<?xml version="1.0" encoding="UTF-8"?>
<svg width="950" height="35" viewBox="0 0 950 35" fill="none" xmlns="http://www.w3.org/2000/svg">
  <path d="M304 17.5 L278.1711 20.1678 L283.2491 22.1942 L290.8397 23.8103 L300.2795 24.875 L310.7436 25.2952 L321.3175 25.0342 L331.0771 24.1148 L339.1695 22.6173 L352 17.5 L344.8876 14.3275 L339.1695 12.3827 L331.0771 10.8852 L321.3175 9.9658 L310.7436 9.7048 L300.2795 10.125 L290.8397 11.1897 L283.2491 12.8058 L278.1711 14.8322 Z" fill-rule="evenodd" clip-rule="evenodd" fill="white" stroke="none"/>
  <path d="M348 17.5 L347.8249 18.3802 L347.3263 19.1263 L346.5802 19.6249 L345.7 19.8 L344.8198 19.6249 L344.0737 19.1263 L343.5751 18.3802 L343.4 17.5 L343.5751 16.6198 L344.0737 15.8737 L344.8198 15.3751 L345.7 15.2 L346.5802 15.3751 L347.3263 15.8737 L347.8249 16.6198 Z" fill-rule="evenodd" clip-rule="evenodd" fill="white" stroke="none"/>
  <path d="M646 17.5 L671.8289 20.1678 L666.7509 22.1942 L659.1603 23.8103 L649.7205 24.875 L639.2564 25.2952 L628.6825 25.0342 L618.9229 24.1148 L610.8305 22.6173 L598 17.5 L605.1124 14.3275 L610.8305 12.3827 L618.9229 10.8852 L628.6825 9.9658 L639.2564 9.7048 L649.7205 10.125 L659.1603 11.1897 L666.7509 12.8058 L671.8289 14.8322 Z" fill-rule="evenodd" clip-rule="evenodd" fill="white" stroke="none"/>
  <path d="M602 17.5 L602.1751 18.3802 L602.6737 19.1263 L603.4198 19.6249 L604.3 19.8 L605.1802 19.6249 L605.9263 19.1263 L606.4249 18.3802 L606.6 17.5 L606.4249 16.6198 L605.9263 15.8737 L605.1802 15.3751 L604.3 15.2 L603.4198 15.3751 L602.6737 15.8737 L602.1751 16.6198 Z" fill-rule="evenodd" clip-rule="evenodd" fill="white" stroke="none"/>
  <path d="M9.5 17.5 L352 17.5" fill="none" stroke="white" stroke-width="1.2" stroke-linecap="round" stroke-linejoin="round"/>
  <path d="M598 17.5 L940.5 17.5" fill="none" stroke="white" stroke-width="1.2" stroke-linecap="round" stroke-linejoin="round"/>
</svg>
