<?xml version="1.0" encoding="UTF-8"?>
<svg xmlns="http://www.w3.org/2000/svg" viewBox="0 0 398.0313 42.3403" width="398.0313" height="42.3403">
  <path d="M7.6544 23.3119 L141.6073 23.5234" fill="none" stroke="#000000" stroke-width="0.35" stroke-linecap="round" stroke-linejoin="round"/>
  <path d="M256.424 23.7047 L390.3769 23.9162" fill="none" stroke="#000000" stroke-width="0.35" stroke-linecap="round" stroke-linejoin="round"/>
  <path d="M140.303 17.7263 C152.2805 1.9246 172.3854 4.3903 168.433 17.7707 C165.0044 28.718 152.3768 21.3962 157.7047 15.3198" fill="none" stroke="#000000" stroke-width="0.35" stroke-linecap="round" stroke-linejoin="round"/>
  <path d="M257.6711 17.9116 C245.5372 2.0718 225.4563 4.4741 229.5411 17.8672 C233.0779 28.8255 245.6335 21.5435 240.2452 15.4501" fill="none" stroke="#000000" stroke-width="0.35" stroke-linecap="round" stroke-linejoin="round"/>
  <path d="M140.3602 29.3165 C152.3378 13.5149 172.4427 15.9805 168.4904 29.3609 C165.0617 40.3083 152.4341 32.9865 157.762 26.9101" fill="none" stroke="#000000" stroke-width="0.35" stroke-linecap="round" stroke-linejoin="round"/>
  <path d="M257.7284 29.5018 C245.5945 13.6621 225.5135 16.0643 229.5983 29.4574 C233.1353 40.4158 245.6907 33.1338 240.3025 27.0404" fill="none" stroke="#000000" stroke-width="0.35" stroke-linecap="round" stroke-linejoin="round"/>
  <path d="M193.2748 23.605 C193.2638 21.3646 191.2557 19.5453 188.7897 19.5414 C186.3237 19.5375 184.3336 21.3505 184.3447 23.5909 C184.3558 25.8313 186.3638 27.6507 188.8298 27.6546 C191.2958 27.6585 193.2859 25.8454 193.2748 23.605 Z" fill="#000000" fill-rule="evenodd" stroke="none"/>
  <path d="M213.6866 23.6372 C213.6756 21.3969 211.6675 19.5775 209.2015 19.5736 C206.7355 19.5697 204.7454 21.3828 204.7565 23.6231 C204.7676 25.8635 206.7756 27.6829 209.2416 27.6868 C211.7076 27.6907 213.6978 25.8776 213.6866 23.6372 Z" fill="#000000" fill-rule="evenodd" stroke="none"/>
</svg>
