<?xml version="1.0" encoding="UTF-8"?>
<svg width="950" height="35" viewBox="0 0 950 35" fill="none" xmlns="http://www.w3.org/2000/svg">
  <path d="M370.3 12 L367.36 17.5 L371.56 24.1 L400.96 26.74 L403.9 17.5 L400.12 9.14 L373.24 14.2 Z" fill-rule="evenodd" clip-rule="evenodd" fill="#FFFFFF" stroke="#000000" stroke-width="1.4" stroke-linejoin="round" stroke-linecap="round"/>
  <path d="M374.5 17.5 A10.5 10.5 0 1 0 395.5 17.5 A10.5 10.5 0 1 0 374.5 17.5 Z" fill-rule="evenodd" clip-rule="evenodd" fill="#B8A0D0" stroke="none"/>
  <path d="M382.8 17.5 A2.2 2.2 0 1 0 387.2 17.5 A2.2 2.2 0 1 0 382.8 17.5 Z" fill-rule="evenodd" clip-rule="evenodd" fill="none" stroke="#000000" stroke-width="0.55" stroke-linejoin="round" stroke-linecap="round"/>
  <path d="M380.8 17.5 A4.2 4.2 0 1 0 389.2 17.5 A4.2 4.2 0 1 0 380.8 17.5 Z" fill-rule="evenodd" clip-rule="evenodd" fill="none" stroke="#000000" stroke-width="0.55" stroke-linejoin="round" stroke-linecap="round"/>
  <path d="M378.8 17.5 A6.2 6.2 0 1 0 391.2 17.5 A6.2 6.2 0 1 0 378.8 17.5 Z" fill-rule="evenodd" clip-rule="evenodd" fill="none" stroke="#000000" stroke-width="0.55" stroke-linejoin="round" stroke-linecap="round"/>
  <path d="M376.8 17.5 A8.2 8.2 0 1 0 393.2 17.5 A8.2 8.2 0 1 0 376.8 17.5 Z" fill-rule="evenodd" clip-rule="evenodd" fill="none" stroke="#000000" stroke-width="0.55" stroke-linejoin="round" stroke-linecap="round"/>
  <path d="M375 17.5 A10 10 0 1 0 395 17.5 A10 10 0 1 0 375 17.5 Z" fill-rule="evenodd" clip-rule="evenodd" fill="none" stroke="#000000" stroke-width="0.7" stroke-linejoin="round" stroke-linecap="round"/>
  <path d="M383.2 17.5 A1.8 1.8 0 1 0 386.8 17.5 A1.8 1.8 0 1 0 383.2 17.5 Z" fill-rule="evenodd" clip-rule="evenodd" fill="#000000" stroke="none"/>
  <path d="M550.3 12 L547.36 17.5 L551.56 24.1 L580.96 26.74 L583.9 17.5 L580.12 9.14 L553.24 14.2 Z" fill-rule="evenodd" clip-rule="evenodd" fill="#FFFFFF" stroke="#000000" stroke-width="1.4" stroke-linejoin="round" stroke-linecap="round"/>
  <path d="M554.5 17.5 A10.5 10.5 0 1 0 575.5 17.5 A10.5 10.5 0 1 0 554.5 17.5 Z" fill-rule="evenodd" clip-rule="evenodd" fill="#B8A0D0" stroke="none"/>
  <path d="M562.8 17.5 A2.2 2.2 0 1 0 567.2 17.5 A2.2 2.2 0 1 0 562.8 17.5 Z" fill-rule="evenodd" clip-rule="evenodd" fill="none" stroke="#000000" stroke-width="0.55" stroke-linejoin="round" stroke-linecap="round"/>
  <path d="M560.8 17.5 A4.2 4.2 0 1 0 569.2 17.5 A4.2 4.2 0 1 0 560.8 17.5 Z" fill-rule="evenodd" clip-rule="evenodd" fill="none" stroke="#000000" stroke-width="0.55" stroke-linejoin="round" stroke-linecap="round"/>
  <path d="M558.8 17.5 A6.2 6.2 0 1 0 571.2 17.5 A6.2 6.2 0 1 0 558.8 17.5 Z" fill-rule="evenodd" clip-rule="evenodd" fill="none" stroke="#000000" stroke-width="0.55" stroke-linejoin="round" stroke-linecap="round"/>
  <path d="M556.8 17.5 A8.2 8.2 0 1 0 573.2 17.5 A8.2 8.2 0 1 0 556.8 17.5 Z" fill-rule="evenodd" clip-rule="evenodd" fill="none" stroke="#000000" stroke-width="0.55" stroke-linejoin="round" stroke-linecap="round"/>
  <path d="M555 17.5 A10 10 0 1 0 575 17.5 A10 10 0 1 0 555 17.5 Z" fill-rule="evenodd" clip-rule="evenodd" fill="none" stroke="#000000" stroke-width="0.7" stroke-linejoin="round" stroke-linecap="round"/>
  <path d="M563.2 17.5 A1.8 1.8 0 1 0 566.8 17.5 A1.8 1.8 0 1 0 563.2 17.5 Z" fill-rule="evenodd" clip-rule="evenodd" fill="#000000" stroke="none"/>
</svg>
