<?xml version="1.0" encoding="UTF-8"?>
<svg xmlns="http://www.w3.org/2000/svg" viewBox="0 0 398.0313 38.2479" width="398.0313" height="38.2479">
  <path d="M7.6544 18.8218 L153.089 19.0514" fill="none" stroke="#000000" stroke-width="0.35" stroke-linecap="round" stroke-linejoin="round"/>
  <path d="M244.9423 19.1964 L390.3769 19.4261" fill="none" stroke="#000000" stroke-width="0.35" stroke-linecap="round" stroke-linejoin="round"/>
  <path d="M198.9297 1.7385 C211.4284 13.9279 204.8038 28.6949 199.1016 36.5094 C193.3221 28.6768 186.5513 13.8887 198.9297 1.7385 Z" fill="#000000" fill-rule="evenodd" stroke="none"/>
  <path d="M158.8299 19.0604 C165.4645 6.3218 178.8598 6.3428 185.6203 19.1027 C178.9858 31.8415 165.5905 31.8203 158.8299 19.0604 Z" fill="#000000" fill-rule="evenodd" stroke="none"/>
  <path d="M212.411 19.145 C219.0456 6.4064 232.4409 6.4275 239.2015 19.1873 C232.5669 31.9261 219.1717 31.9049 212.411 19.145 Z" fill="#000000" fill-rule="evenodd" stroke="none"/>
  <path d="M146.0724 19.0403 C146.0613 16.7999 144.0532 14.9806 141.5872 14.9767 C139.1212 14.9728 137.1311 16.7858 137.1422 19.0262 C137.1533 21.2666 139.1613 23.086 141.6273 23.0899 C144.0934 23.0938 146.0835 21.2807 146.0724 19.0403 Z" fill="#000000" fill-rule="evenodd" stroke="none"/>
  <path d="M260.8891 19.2216 C260.878 16.9812 258.87 15.1618 256.404 15.1579 C253.938 15.1541 251.9479 16.9671 251.959 19.2075 C251.97 21.4479 253.9781 23.2673 256.4441 23.2711 C258.9101 23.275 260.9002 21.462 260.8891 19.2216 Z" fill="#000000" fill-rule="evenodd" stroke="none"/>
</svg>
