<?xml version="1.0" encoding="UTF-8"?>
<svg width="950" height="35" viewBox="0 0 950 35" fill="none" xmlns="http://www.w3.org/2000/svg">
  <path d="M9.5 20.062 L200.5388 20.062" fill="none" stroke="white" stroke-width="0.5416" stroke-linecap="round" stroke-linejoin="round"/>
  <path d="M758.0833 20.062 L940.5 20.062" fill="none" stroke="white" stroke-width="0.5416" stroke-linecap="round" stroke-linejoin="round"/>
  <path d="M9.5 20.7011 L200.5388 20.7011" fill="none" stroke="white" stroke-width="0.5416" stroke-linecap="round" stroke-linejoin="round"/>
  <path d="M758.0833 20.7011 L940.5 20.7011" fill="none" stroke="white" stroke-width="0.5416" stroke-linecap="round" stroke-linejoin="round"/>
  <path d="M374.3116 20.2226 C388.4342 1.5909 412.1398 4.4982 407.4795 20.2749 C403.4369 33.1829 388.5477 24.5498 394.8299 17.3852" fill="none" stroke="white" stroke-width="0.5416" stroke-linecap="round" stroke-linejoin="round"/>
  <path d="M408.8615 20.2771 C422.9842 1.6454 446.6898 4.5528 442.0295 20.3295 C437.9868 33.2374 423.0976 24.6043 429.3799 17.4397" fill="none" stroke="white" stroke-width="0.5416" stroke-linecap="round" stroke-linejoin="round"/>
  <path d="M541.1385 20.486 C526.8315 1.8095 503.1542 4.6419 507.9705 20.4337 C512.1408 33.3545 526.945 24.7684 520.5917 17.5837" fill="none" stroke="white" stroke-width="0.5416" stroke-linecap="round" stroke-linejoin="round"/>
  <path d="M575.6884 20.5405 C561.3813 1.864 537.7041 4.6965 542.5204 20.4882 C546.6908 33.4091 561.4948 24.8229 555.1417 17.6383" fill="none" stroke="white" stroke-width="0.5416" stroke-linecap="round" stroke-linejoin="round"/>
  <path d="M208.4143 8.302 L221.3047 19.981 L208.5296 31.6195 L195.6391 19.9405 L208.4143 8.302 Z" fill-rule="evenodd" clip-rule="evenodd" fill="white" stroke="none"/>
  <path d="M741.4704 9.1436 L754.361 20.8227 L741.5856 32.4612 L728.6952 20.7821 L741.4704 9.1436 Z" fill-rule="evenodd" clip-rule="evenodd" fill="white" stroke="none"/>
</svg>
