<?xml version="1.0" encoding="UTF-8"?>
<svg width="950" height="35" viewBox="0 0 950 35" fill="none" xmlns="http://www.w3.org/2000/svg">
  <path d="M302 17.5 L305 7.5 L313 11.5 L307 17.5 L311 10.5 L319 13.5 L313 17.5 L317 14.5 L325 16.5 L319 17.5 L323 18.5 L331 19.5 L325 17.5 L329 22.5 L337 22.5 L331 17.5 L335 26.5 L343 25.5 L337 17.5 L341 30.5 L349 27.5 L343 17.5 L352 17.5 L307 17.5 L313 7.5 L305 4.5 L313 17.5 L319 9.5 L311 8.5 L319 17.5 L325 12.5 L317 12.5 L325 17.5 L331 15.5 L323 16.5 L331 17.5 L337 18.5 L329 20.5 L337 17.5 L343 21.5 L335 24.5 L343 17.5 L349 23.5 L341 27.5 Z" fill-rule="evenodd" clip-rule="evenodd" fill="#B22222" stroke="none"/>
  <path d="M648 17.5 L645 7.5 L637 11.5 L643 17.5 L639 10.5 L631 13.5 L637 17.5 L633 14.5 L625 16.5 L631 17.5 L627 18.5 L619 19.5 L625 17.5 L621 22.5 L613 22.5 L619 17.5 L615 26.5 L607 25.5 L613 17.5 L609 30.5 L601 27.5 L607 17.5 L598 17.5 L643 17.5 L637 7.5 L645 4.5 L637 17.5 L631 9.5 L639 8.5 L631 17.5 L625 12.5 L633 12.5 L625 17.5 L619 15.5 L627 16.5 L619 17.5 L613 18.5 L621 20.5 L613 17.5 L607 21.5 L615 24.5 L607 17.5 L601 23.5 L609 27.5 Z" fill-rule="evenodd" clip-rule="evenodd" fill="#B22222" stroke="none"/>
  <path d="M9.5 17.5 L352 17.5" fill="none" stroke="#B22222" stroke-width="1.2" stroke-linecap="round" stroke-linejoin="round"/>
  <path d="M598 17.5 L940.5 17.5" fill="none" stroke="#B22222" stroke-width="1.2" stroke-linecap="round" stroke-linejoin="round"/>
</svg>
