<?xml version="1.0" encoding="UTF-8"?>
<svg width="950" height="35" viewBox="0 0 950 35" fill="none" xmlns="http://www.w3.org/2000/svg">
  <path d="M370.3 12 L367.36 17.5 L371.56 24.1 L400.96 26.74 L403.9 17.5 L400.12 9.14 L373.24 14.2 Z" fill-rule="evenodd" clip-rule="evenodd" fill="#FFFFFF" stroke="#000000" stroke-width="1.4" stroke-linejoin="round" stroke-linecap="round"/>
  <path d="M374.5 17.5 A10.5 10.5 0 1 0 395.5 17.5 A10.5 10.5 0 1 0 374.5 17.5 Z" fill-rule="evenodd" clip-rule="evenodd" fill="#E02020" stroke="none"/>
  <path d="M385 15 Q393.1915 11.7642 394.3969 20.9202 Q387.8191 16.4739 385 15 Z" fill-rule="evenodd" clip-rule="evenodd" fill="#000000" stroke="none"/>
  <path d="M387.1651 18.75 Q385.8716 27.4619 377.3396 23.9279 Q384.4791 20.4544 387.1651 18.75 Z" fill-rule="evenodd" clip-rule="evenodd" fill="#000000" stroke="none"/>
  <path d="M382.8349 18.75 Q375.9369 13.2738 383.2635 7.6519 Q382.7019 15.5716 382.8349 18.75 Z" fill-rule="evenodd" clip-rule="evenodd" fill="#000000" stroke="none"/>
  <path d="M385 17.5 L385 10.5 L391.0622 21 Z" fill-rule="evenodd" clip-rule="evenodd" fill="#000000" stroke="none"/>
  <path d="M385 17.5 L391.0622 21 L378.9378 21 Z" fill-rule="evenodd" clip-rule="evenodd" fill="#000000" stroke="none"/>
  <path d="M385 17.5 L378.9378 21 L385 10.5 Z" fill-rule="evenodd" clip-rule="evenodd" fill="#000000" stroke="none"/>
  <path d="M383 17.5 A2 2 0 1 0 387 17.5 A2 2 0 1 0 383 17.5 Z" fill-rule="evenodd" clip-rule="evenodd" fill="#000000" stroke="none"/>
  <path d="M550.3 12 L547.36 17.5 L551.56 24.1 L580.96 26.74 L583.9 17.5 L580.12 9.14 L553.24 14.2 Z" fill-rule="evenodd" clip-rule="evenodd" fill="#FFFFFF" stroke="#000000" stroke-width="1.4" stroke-linejoin="round" stroke-linecap="round"/>
  <path d="M554.5 17.5 A10.5 10.5 0 1 0 575.5 17.5 A10.5 10.5 0 1 0 554.5 17.5 Z" fill-rule="evenodd" clip-rule="evenodd" fill="#E02020" stroke="none"/>
  <path d="M565 15 Q573.1915 11.7642 574.3969 20.9202 Q567.8191 16.4739 565 15 Z" fill-rule="evenodd" clip-rule="evenodd" fill="#000000" stroke="none"/>
  <path d="M567.1651 18.75 Q565.8716 27.4619 557.3396 23.9279 Q564.4791 20.4544 567.1651 18.75 Z" fill-rule="evenodd" clip-rule="evenodd" fill="#000000" stroke="none"/>
  <path d="M562.8349 18.75 Q555.9369 13.2738 563.2635 7.6519 Q562.7019 15.5716 562.8349 18.75 Z" fill-rule="evenodd" clip-rule="evenodd" fill="#000000" stroke="none"/>
  <path d="M565 17.5 L565 10.5 L571.0622 21 Z" fill-rule="evenodd" clip-rule="evenodd" fill="#000000" stroke="none"/>
  <path d="M565 17.5 L571.0622 21 L558.9378 21 Z" fill-rule="evenodd" clip-rule="evenodd" fill="#000000" stroke="none"/>
  <path d="M565 17.5 L558.9378 21 L565 10.5 Z" fill-rule="evenodd" clip-rule="evenodd" fill="#000000" stroke="none"/>
  <path d="M563 17.5 A2 2 0 1 0 567 17.5 A2 2 0 1 0 563 17.5 Z" fill-rule="evenodd" clip-rule="evenodd" fill="#000000" stroke="none"/>
</svg>
