<?xml version="1.0" encoding="UTF-8"?>
<svg width="950" height="35" viewBox="0 0 950 35" fill="none" xmlns="http://www.w3.org/2000/svg">
  <path d="M182.1867 9.3304 L182.1867 25.6695 L189.9263 33.4091 L230.344 33.4091 L238.9435 25.6695 L238.9435 9.3304 L230.344 1.5909 L189.9263 1.5909 L182.1867 9.3304 Z" fill-rule="evenodd" clip-rule="evenodd" fill="white" stroke="none"/>
  <path d="M258.7223 2.4508 L258.7223 5.8906 L259.5823 6.7506 L266.4619 6.7506 L267.3219 5.8906 L267.3219 2.4508 L266.4619 1.5909 L259.5823 1.5909 L258.7223 2.4508 Z" fill-rule="evenodd" clip-rule="evenodd" fill="white" stroke="none"/>
  <path d="M287.9607 9.3304 L287.9607 25.6695 L295.7003 33.4091 L336.1179 33.4091 L344.7175 25.6695 L344.7175 9.3304 L336.1179 1.5909 L295.7003 1.5909 L289.6806 6.7506 L287.9607 9.3304 Z" fill-rule="evenodd" clip-rule="evenodd" fill="white" stroke="none"/>
  <path d="M364.4963 2.4508 L364.4963 5.8906 L365.3563 6.7506 L372.2359 6.7506 L373.0958 5.8906 L373.0958 2.4508 L372.2359 1.5909 L365.3563 1.5909 L364.4963 2.4508 Z" fill-rule="evenodd" clip-rule="evenodd" fill="white" stroke="none"/>
  <path d="M392.8747 10.1904 L392.8747 24.8096 L401.4742 33.4091 L441.8919 33.4091 L450.4914 25.6695 L450.4914 9.3304 L441.8919 1.5909 L401.4742 1.5909 L395.4545 6.7506 L392.8747 10.1904 Z" fill-rule="evenodd" clip-rule="evenodd" fill="white" stroke="none"/>
  <path d="M469.4103 3.3108 L469.4103 5.0307 L471.1302 6.7506 L478.0098 6.7506 L478.8698 5.8906 L478.8698 2.4508 L478.0098 1.5909 L471.1302 1.5909 L469.4103 3.3108 Z" fill-rule="evenodd" clip-rule="evenodd" fill="white" stroke="none"/>
  <path d="M498.6486 10.1904 L498.6486 24.8096 L499.5086 26.5295 L507.2482 33.4091 L547.6658 33.4091 L551.1057 30.8292 L556.2654 24.8096 L556.2654 9.3304 L547.6658 1.5909 L507.2482 1.5909 L503.8084 4.1708 L498.6486 10.1904 Z" fill-rule="evenodd" clip-rule="evenodd" fill="white" stroke="none"/>
  <path d="M575.1843 3.3108 L575.1843 5.0307 L576.9042 6.7506 L583.7838 6.7506 L584.6438 5.8906 L584.6438 2.4508 L583.7838 1.5909 L576.9042 1.5909 L575.1843 3.3108 Z" fill-rule="evenodd" clip-rule="evenodd" fill="white" stroke="none"/>
  <path d="M604.4226 10.1904 L604.4226 22.2297 L605.2825 23.0896 L605.2825 26.5295 L613.0221 33.4091 L653.4398 33.4091 L658.5995 29.1093 L662.0392 24.8096 L662.0392 10.1904 L661.1794 8.4705 L653.4398 1.5909 L613.0221 1.5909 L609.5823 4.1708 L604.4226 10.1904 Z" fill-rule="evenodd" clip-rule="evenodd" fill="white" stroke="none"/>
  <path d="M680.9583 3.3108 L680.9583 5.0307 L682.6781 6.7506 L689.5577 6.7506 L690.4177 5.8906 L690.4177 2.4508 L689.5577 1.5909 L682.6781 1.5909 L680.9583 3.3108 Z" fill-rule="evenodd" clip-rule="evenodd" fill="white" stroke="none"/>
  <path d="M710.1966 10.1904 L710.1966 24.8096 L711.0565 26.5295 L718.7961 33.4091 L759.2137 33.4091 L766.9533 26.5295 L766.9533 12.7702 L767.8133 10.1904 L766.9533 8.4705 L759.2137 1.5909 L718.7961 1.5909 L716.2162 3.3108 L710.1966 10.1904 Z" fill-rule="evenodd" clip-rule="evenodd" fill="white" stroke="none"/>
  <path d="M272.4816 5.8906 L270.7617 7.6106 L270.7617 10.1904 L273.3415 14.4902 L276.7813 15.3501 L278.5012 13.6302 L278.5012 11.0504 L274.2015 5.8906 L272.4816 5.8906 Z" fill-rule="evenodd" clip-rule="evenodd" fill="white" stroke="none"/>
  <path d="M378.2556 5.8906 L376.5357 7.6106 L376.5357 10.1904 L379.1154 14.4902 L381.6953 15.3501 L383.4153 14.4902 L384.2752 11.9103 L382.5553 8.4705 L379.9754 5.8906 L378.2556 5.8906 Z" fill-rule="evenodd" clip-rule="evenodd" fill="white" stroke="none"/>
  <path d="M484.0295 5.8906 L482.3095 7.6106 L482.3095 10.1904 L484.0295 13.6302 L487.4693 15.3501 L489.1892 14.4902 L490.0491 11.9103 L488.3292 8.4705 L485.7494 5.8906 L484.0295 5.8906 Z" fill-rule="evenodd" clip-rule="evenodd" fill="white" stroke="none"/>
  <path d="M589.8035 5.8906 L588.0835 7.6106 L588.0835 10.1904 L591.5233 14.4902 L594.1032 14.4902 L594.9631 13.6302 L594.9631 10.1904 L592.3833 6.7506 L589.8035 5.8906 Z" fill-rule="evenodd" clip-rule="evenodd" fill="white" stroke="none"/>
  <path d="M695.5774 5.8906 L693.8576 7.6106 L693.8576 10.1904 L695.5774 13.6302 L697.2973 15.3501 L699.0172 15.3501 L701.5971 11.9103 L699.8772 8.4705 L695.5774 5.8906 Z" fill-rule="evenodd" clip-rule="evenodd" fill="white" stroke="none"/>
  <path d="M254.4226 6.7506 L250.9828 6.7506 L248.403 11.0504 L248.403 14.4902 L249.2629 15.3501 L252.7027 15.3501 L255.2825 11.0504 L255.2825 7.6106 L254.4226 6.7506 Z" fill-rule="evenodd" clip-rule="evenodd" fill="white" stroke="none"/>
  <path d="M360.1965 6.7506 L356.7568 6.7506 L354.1769 10.1904 L354.1769 14.4902 L355.0369 15.3501 L358.4767 15.3501 L361.0565 11.0504 L360.1965 6.7506 Z" fill-rule="evenodd" clip-rule="evenodd" fill="white" stroke="none"/>
  <path d="M465.9705 6.7506 L462.5308 6.7506 L459.9509 10.1904 L459.9509 14.4902 L460.8108 15.3501 L463.3906 15.3501 L466.8305 11.0504 L465.9705 6.7506 Z" fill-rule="evenodd" clip-rule="evenodd" fill="white" stroke="none"/>
  <path d="M571.7445 6.7506 L568.3047 6.7506 L566.5847 8.4705 L564.8649 12.7702 L566.5847 15.3501 L569.1646 15.3501 L570.8846 13.6302 L572.6044 10.1904 L571.7445 6.7506 Z" fill-rule="evenodd" clip-rule="evenodd" fill="white" stroke="none"/>
  <path d="M676.6585 6.7506 L674.0787 6.7506 L672.3587 8.4705 L670.6388 11.9103 L671.4988 15.3501 L674.9385 15.3501 L676.6585 13.6302 L678.3784 10.1904 L678.3784 8.4705 L676.6585 6.7506 Z" fill-rule="evenodd" clip-rule="evenodd" fill="white" stroke="none"/>
  <path d="M250.1229 19.6498 L248.403 21.3698 L248.403 24.8096 L250.9828 28.2494 L253.5627 29.1093 L255.2825 28.2494 L256.1425 25.6695 L254.4226 22.2297 L251.8428 19.6498 L250.1229 19.6498 Z" fill-rule="evenodd" clip-rule="evenodd" fill="white" stroke="none"/>
  <path d="M277.6413 19.6498 L274.2015 19.6498 L271.6216 23.0896 L271.6216 27.3894 L272.4816 28.2494 L275.0614 28.2494 L278.5012 23.9496 L278.5012 20.5098 L277.6413 19.6498 Z" fill-rule="evenodd" clip-rule="evenodd" fill="white" stroke="none"/>
  <path d="M355.8968 19.6498 L354.1769 21.3698 L354.1769 24.8096 L356.7568 28.2494 L359.3366 29.1093 L361.0565 27.3894 L361.0565 23.9496 L357.6167 19.6498 L355.8968 19.6498 Z" fill-rule="evenodd" clip-rule="evenodd" fill="white" stroke="none"/>
  <path d="M383.4153 19.6498 L379.9754 19.6498 L377.3956 23.0896 L377.3956 27.3894 L378.2556 28.2494 L380.8354 28.2494 L382.5553 26.5295 L384.2752 23.0896 L384.2752 20.5098 L383.4153 19.6498 Z" fill-rule="evenodd" clip-rule="evenodd" fill="white" stroke="none"/>
  <path d="M459.9509 20.5098 L459.9509 24.8096 L462.5308 28.2494 L465.1106 29.1093 L466.8305 27.3894 L466.8305 23.9496 L463.3906 19.6498 L459.9509 20.5098 Z" fill-rule="evenodd" clip-rule="evenodd" fill="white" stroke="none"/>
  <path d="M489.1892 19.6498 L485.7494 19.6498 L484.0295 21.3698 L482.3095 24.8096 L482.3095 26.5295 L484.0295 28.2494 L486.6094 28.2494 L488.3292 26.5295 L490.0491 23.0896 L489.1892 19.6498 Z" fill-rule="evenodd" clip-rule="evenodd" fill="white" stroke="none"/>
  <path d="M565.7248 20.5098 L565.7248 24.8096 L568.3047 28.2494 L570.8846 29.1093 L572.6044 27.3894 L572.6044 23.9496 L569.1646 19.6498 L565.7248 20.5098 Z" fill-rule="evenodd" clip-rule="evenodd" fill="white" stroke="none"/>
  <path d="M594.9631 19.6498 L591.5233 19.6498 L588.9435 23.0896 L588.0835 26.5295 L589.8035 28.2494 L592.3833 28.2494 L594.1032 26.5295 L595.8231 23.0896 L594.9631 19.6498 Z" fill-rule="evenodd" clip-rule="evenodd" fill="white" stroke="none"/>
  <path d="M672.3587 19.6498 L671.4988 20.5098 L671.4988 24.8096 L674.0787 28.2494 L676.6585 29.1093 L678.3784 27.3894 L678.3784 24.8096 L674.9385 19.6498 L672.3587 19.6498 Z" fill-rule="evenodd" clip-rule="evenodd" fill="white" stroke="none"/>
  <path d="M700.737 19.6498 L697.2973 19.6498 L695.5774 21.3698 L693.8576 24.8096 L693.8576 26.5295 L695.5774 28.2494 L698.1572 28.2494 L699.8772 26.5295 L701.5971 23.0896 L700.737 19.6498 Z" fill-rule="evenodd" clip-rule="evenodd" fill="white" stroke="none"/>
  <path d="M268.1818 29.1093 L265.602 27.3894 L260.4423 28.2494 L258.7223 29.9693 L258.7223 31.6892 L260.4423 33.4091 L266.4619 33.4091 L268.1818 31.6892 L268.1818 29.1093 Z" fill-rule="evenodd" clip-rule="evenodd" fill="white" stroke="none"/>
  <path d="M373.9557 29.1093 L371.376 27.3894 L369.656 28.2494 L365.3563 28.2494 L364.4963 29.1093 L364.4963 31.6892 L366.2162 33.4091 L372.2359 33.4091 L373.9557 31.6892 L373.9557 29.1093 Z" fill-rule="evenodd" clip-rule="evenodd" fill="white" stroke="none"/>
  <path d="M479.7298 29.1093 L477.1498 27.3894 L475.4299 28.2494 L471.1302 28.2494 L470.2702 29.1093 L470.2702 31.6892 L471.9902 33.4091 L478.0098 33.4091 L479.7298 31.6892 L479.7298 29.1093 Z" fill-rule="evenodd" clip-rule="evenodd" fill="white" stroke="none"/>
  <path d="M584.6438 28.2494 L582.9239 27.3894 L581.2039 28.2494 L576.9042 28.2494 L576.0443 29.1093 L576.0443 31.6892 L577.7642 33.4091 L583.7838 33.4091 L585.5037 31.6892 L584.6438 28.2494 Z" fill-rule="evenodd" clip-rule="evenodd" fill="white" stroke="none"/>
  <path d="M691.2776 29.9693 L688.6978 27.3894 L686.978 28.2494 L682.6781 28.2494 L681.8181 29.1093 L681.8181 32.5491 L683.5381 33.4091 L689.5577 33.4091 L691.2776 31.6892 L691.2776 29.9693 Z" fill-rule="evenodd" clip-rule="evenodd" fill="white" stroke="none"/>
</svg>
