<?xml version="1.0" encoding="UTF-8"?>
<svg width="950" height="35" viewBox="0 0 950 35" fill="none" xmlns="http://www.w3.org/2000/svg">
  <path d="M304 17.5 L310 7.5 L320 11.5 L314 17.5 L317 11.5 L327 14.5 L321 17.5 L324 15.5 L334 17.5 L328 17.5 L331 19.5 L341 20.5 L335 17.5 L338 23.5 L348 23.5 L342 17.5 L352 17.5 L310 11.5 L320 11.5 L314 17.5 L317 15.5 L327 14.5 L321 17.5 L324 19.5 L334 17.5 L328 17.5 L331 23.5 L341 20.5 L335 17.5 L338 27.5 L348 23.5 L342 17.5 Z" fill-rule="evenodd" clip-rule="evenodd" fill="white" stroke="none"/>
  <path d="M344 13.5 L348 17.5 L344 21.5 Z" fill-rule="evenodd" clip-rule="evenodd" fill="white" stroke="none"/>
  <path d="M646 17.5 L640 7.5 L630 11.5 L636 17.5 L633 11.5 L623 14.5 L629 17.5 L626 15.5 L616 17.5 L622 17.5 L619 19.5 L609 20.5 L615 17.5 L612 23.5 L602 23.5 L608 17.5 L598 17.5 L640 11.5 L630 11.5 L636 17.5 L633 15.5 L623 14.5 L629 17.5 L626 19.5 L616 17.5 L622 17.5 L619 23.5 L609 20.5 L615 17.5 L612 27.5 L602 23.5 L608 17.5 Z" fill-rule="evenodd" clip-rule="evenodd" fill="white" stroke="none"/>
  <path d="M606 13.5 L602 17.5 L606 21.5 Z" fill-rule="evenodd" clip-rule="evenodd" fill="white" stroke="none"/>
  <path d="M9.5 17.5 L352 17.5" fill="none" stroke="white" stroke-width="1.2" stroke-linecap="round" stroke-linejoin="round"/>
  <path d="M598 17.5 L940.5 17.5" fill="none" stroke="white" stroke-width="1.2" stroke-linecap="round" stroke-linejoin="round"/>
</svg>
