<?xml version="1.0" encoding="UTF-8"?>
<svg width="950" height="35" viewBox="0 0 950 35" fill="none" xmlns="http://www.w3.org/2000/svg">
  <path d="M9.5 17.3067 L200.5388 17.3067" fill="none" stroke="white" stroke-width="0.5" stroke-linecap="round" stroke-linejoin="round"/>
  <path d="M758.0833 17.3067 L940.5 17.3067" fill="none" stroke="white" stroke-width="0.5" stroke-linecap="round" stroke-linejoin="round"/>
  <path d="M9.5 17.6933 L200.5388 17.6933" fill="none" stroke="white" stroke-width="0.5" stroke-linecap="round" stroke-linejoin="round"/>
  <path d="M758.0833 17.6933 L940.5 17.6933" fill="none" stroke="white" stroke-width="0.5" stroke-linecap="round" stroke-linejoin="round"/>
  <path d="M450.4566 5.8088 L463.34 17.4816 L450.5718 29.1138 L437.6883 17.4411 L450.4566 5.8088 Z" fill-rule="evenodd" clip-rule="evenodd" fill="white" stroke="none"/>
  <path d="M499.4282 5.8862 L512.3117 17.5589 L499.5434 29.1912 L486.6599 17.5184 L499.4282 5.8862 Z" fill-rule="evenodd" clip-rule="evenodd" fill="white" stroke="none"/>
  <path d="M450.5142 17.4613 C462.6785 1.5909 487.1644 1.6296 499.4858 17.5386 C487.3215 33.4091 462.8356 33.3704 450.5142 17.4613 Z" fill-rule="evenodd" clip-rule="evenodd" fill="white" stroke="none"/>
  <path d="M431.2753 17.4309 C431.2681 15.9683 429.9572 14.7806 428.3472 14.778 C426.7373 14.7755 425.4381 15.9591 425.4453 17.4217 C425.4526 18.8843 426.7635 20.0721 428.3734 20.0746 C429.9833 20.0771 431.2826 18.8935 431.2753 17.4309 Z" fill-rule="evenodd" clip-rule="evenodd" fill="white" stroke="none"/>
  <path d="M524.5546 17.5782 C524.5474 16.1156 523.2365 14.9279 521.6266 14.9253 C520.0167 14.9228 518.7174 16.1064 518.7247 17.569 C518.7319 19.0316 520.0428 20.2193 521.6527 20.2219 C523.2627 20.2245 524.5619 19.0408 524.5546 17.5782 Z" fill-rule="evenodd" clip-rule="evenodd" fill="white" stroke="none"/>
</svg>
