<?xml version="1.0" encoding="UTF-8"?>
<svg width="950" height="35" viewBox="0 0 950 35" fill="none" xmlns="http://www.w3.org/2000/svg">
  <path d="M345.7512 3.0171 C342.2301 3.7004 339.2087 5.1763 338.0066 6.8002 C337.4159 7.5982 336.786 8.2511 336.6067 8.2511 C336.4275 8.2511 335.3083 7.9182 334.1196 7.5114 C329.7964 6.0318 324.7188 5.2164 319.7855 5.2094 C315.2461 5.2029 310.0288 5.8468 307.0597 6.78 C305.8834 7.1497 306.5213 7.1988 312.5054 7.1988 C318.5148 7.1988 319.7015 7.2909 322.9689 8.0112 C325.0083 8.4608 329.5918 10.0357 333.2316 11.5374 C340.9559 14.7243 346.7021 16.1294 355.0492 16.8723 L360.6618 17.3718 L357.2273 17.7662 C352.3704 18.3239 348.8873 19.1793 342.7359 21.325 C335.799 23.7447 333.7967 24.1863 329.7624 24.1863 C326.8732 24.1863 326.2115 24.0653 324.7036 23.2612 C323.7495 22.7525 322.9689 21.9662 322.9689 21.514 C322.9689 19.8774 327.6045 18.7101 329.6696 19.8267 C330.913 20.4989 331.5347 20.3732 331.1723 19.5227 C330.9954 19.1075 329.9202 18.4164 328.7829 17.987 C326.9999 17.3138 326.2553 17.2262 323.376 17.3503 C320.6508 17.4678 319.6535 17.6819 317.9528 18.5146 L315.8689 19.535 L313.0729 18.7788 C311.5351 18.3629 310.2681 17.9392 310.2573 17.8371 C310.2465 17.7351 311.3684 17.3184 312.7504 16.9112 C322.2433 14.1138 333.0839 15.5351 336.3295 20.0025 L337.4722 21.5753 L340.1041 20.5245 C341.5516 19.9465 343.8665 19.1347 345.2483 18.7205 L347.7606 17.9674 L345.1968 17.6228 C341.8819 17.1771 336.0269 15.4514 329.4823 12.9911 C326.6153 11.9133 322.3939 10.5767 320.1014 10.021 C316.4279 9.1305 315.333 9.0101 310.8767 9.0067 C306.3587 9.0032 305.2169 9.1308 300.1556 10.2054 C293.2649 11.6684 288.3294 11.8154 283.56 10.6996 C280.9968 10.0999 280.7434 10.0851 281.3202 10.5688 C284.0165 12.8294 291.4224 13.6031 300.5339 12.5761 C305.58 12.0074 307.9818 12.1902 309.0305 13.2229 C310.1393 14.3149 308.6438 15.3869 305.4043 15.8224 C302.5783 16.2023 299.3917 16.004 290.1809 14.8749 C287.4418 14.5391 283.9742 14.2667 282.4752 14.2696 C278.2975 14.2776 271.2305 15.0364 267.5589 15.8713 C263.6223 16.7664 256.9512 19.1478 255.8915 20.0362 C255.1438 20.6632 255.1555 20.6629 257.2108 20.0062 C267.0747 16.8546 283.6114 15.9583 289.298 18.2671 C290.9326 18.9307 291.2934 20.2392 290.0016 20.8189 C288.1055 21.6696 281.0072 21.037 276.5668 19.6215 C274.4646 18.9513 274.323 19.0575 275.7116 20.2624 C277.1919 21.5469 281.7706 23.1654 285.1114 23.5851 C290.3241 24.24 294.4815 23.6028 301.0828 21.1372 C303.812 20.1179 305.5907 19.6763 306.9674 19.6763 C309.4039 19.6763 312.9445 20.3183 314.1726 20.9827 C315.0066 21.434 314.7883 21.4809 311.8273 21.4869 C308.0825 21.4945 303.4076 22.3463 300.6278 23.5275 C298.4959 24.4335 295.7879 26.5916 296.7831 26.5916 C297.1374 26.5916 297.6114 26.4579 297.8365 26.2945 C298.7344 25.6426 304.2098 24.4663 307.6904 24.1776 C312.3247 23.7932 316.1036 24.2752 317.5522 25.4354 C319.4712 26.9724 316.111 27.674 311.2212 26.7573 C308.1723 26.1857 308.2807 26.5723 311.5398 27.8934 C314.6947 29.1724 318.7218 29.7239 322.9213 29.4522 C326.2581 29.2364 331.9634 28.1728 335.0151 27.1977 L336.943 26.5817 L337.3821 27.2024 C337.9441 27.997 337.134 28.4159 332.1015 29.9332 C327.5668 31.3003 327.3172 31.2697 336.2003 30.4348 C339.1856 30.1542 339.8947 30.1771 340.9028 30.5864 C343.2217 31.5281 348.052 32.2909 351.7378 32.2976 C358.0976 32.3092 363.833 30.4956 363.8405 28.4708 C363.8435 27.6724 364.2374 27.6476 367.425 28.2453 C368.7481 28.4933 370.7449 28.6963 371.8623 28.6963 C373.5123 28.6963 373.894 28.8212 373.894 29.3615 C373.894 29.7273 373.0648 30.3313 372.0513 30.7036 C370.7345 31.1874 370.5148 31.3837 371.2813 31.3914 C373.814 31.417 377.1636 30.604 380.7125 29.1026 C383.7798 27.8049 384.9584 27.4936 386.8041 27.4936 C392.7688 27.4936 399.0363 25.9354 401.3866 23.8682 C402.8097 22.6165 402.5395 22.4178 400.4011 23.1435 C398.8284 23.6773 395.9038 23.7194 394.8001 23.2242 C393.5336 22.6559 393.8507 21.9471 395.7251 21.1569 L397.4541 20.428 L474.1715 20.3491 C543.9558 20.2773 551.0971 20.3145 553.1928 20.7607 C557.1337 21.5998 556.9061 23.585 552.869 23.585 C551.8905 23.585 550.4003 23.3682 549.5574 23.1033 C547.4191 22.4313 547.2784 22.6621 548.9912 24.0322 C551.2094 25.8066 554.9249 26.8194 561.1778 27.3543 C566.152 27.7799 566.7817 27.9208 569.9165 29.3099 C572.9696 30.6628 576.1684 31.4048 578.9302 31.4007 C579.5949 31.3998 579.3231 31.1687 578.1344 30.7243 C577.1415 30.353 576.2369 29.7833 576.1242 29.4583 C575.9534 28.9656 576.4346 28.8332 579.0206 28.6617 C580.7263 28.5485 582.7418 28.307 583.4995 28.1251 C585.655 27.6075 585.9741 27.7048 586.8302 29.1411 C588.799 32.4441 600.7622 33.4091 608.3206 30.8746 L610.5687 30.1207 L615.5428 30.6112 C622.4197 31.2892 622.5524 31.2545 618.0699 29.9508 C613.2697 28.5547 612.1978 28.006 612.7489 27.227 C613.1542 26.6539 613.2795 26.6632 615.9871 27.4653 C624.7177 30.0517 633.13 30.1739 638.8095 27.7968 C641.8525 26.5232 641.8658 26.0262 638.8378 26.7347 C633.6112 27.9577 629.5515 26.4711 633.5338 24.7924 C634.8695 24.2293 635.9601 24.0885 639.0619 24.0783 C643.8857 24.0626 647.1667 24.554 650.9964 25.8656 C654.6078 27.1026 654.9531 26.6083 651.7813 24.7423 C648.5997 22.8706 644.2648 21.7648 639.32 21.5636 C637.0839 21.4726 635.4179 21.2794 635.6178 21.1343 C636.3071 20.6338 641.2022 19.6763 643.0716 19.6763 C644.3123 19.6763 646.1898 20.1401 648.6264 21.0485 C654.0856 23.0837 657.0513 23.7024 661.3528 23.7035 C666.6894 23.7049 672.0878 22.2712 674.479 20.2174 C675.8708 19.0221 675.7378 19.0124 672.0512 20.0407 C668.2481 21.1015 662.1239 21.5404 660.3488 20.8794 C658.9748 20.3677 659.0814 18.9736 660.5398 18.3814 C666.1017 16.1229 680.4702 16.6473 691.0034 19.4934 C693.1224 20.066 694.8562 20.4165 694.8562 20.2724 C694.8562 20.1283 693.3513 19.4278 691.5119 18.7159 C680.6126 14.497 669.8202 13.3842 657.1646 15.1741 C654.8614 15.4998 651.464 15.8492 649.6147 15.9505 C643.4257 16.2896 639.1395 14.8319 641.2132 13.0933 C642.3199 12.1654 644.719 12.0342 649.9871 12.6135 C656.3857 13.3171 661.7267 13.1279 665.2841 12.0716 C666.7758 11.6286 668.3298 10.9866 668.7374 10.6448 C669.4651 10.0347 669.4259 10.0357 666.5883 10.6996 C661.7978 11.8203 656.8332 11.671 650.2967 10.2095 C645.3844 9.1112 644.488 9.0112 639.5757 9.0131 C634.8691 9.0149 633.7247 9.1305 630.1947 9.9605 C627.9835 10.4805 623.0083 12.0883 619.1386 13.5335 C612.6931 15.9408 605.5405 17.8715 603.066 17.8721 C602.5181 17.8722 603.5734 18.3301 605.4112 18.8895 C607.2489 19.4489 609.4836 20.2607 610.3771 20.6935 C611.2705 21.1262 612.1935 21.4803 612.4281 21.4803 C612.6627 21.4803 613.2295 20.8242 613.6875 20.0222 C614.5854 18.4503 617.7547 16.8233 621.6181 15.9512 C625.8667 14.992 633.9178 15.5471 638.2356 17.0969 C639.3412 17.4938 640.095 17.87 639.9107 17.9331 C639.7264 17.9961 638.3474 18.4002 636.8461 18.8312 C634.1919 19.593 634.0943 19.5986 633.3092 19.0345 C632.0304 18.1157 628.4046 17.2734 625.7232 17.2721 C622.8002 17.2708 619.4609 18.3846 618.976 19.5227 C618.6137 20.3732 619.2353 20.4989 620.4788 19.8267 C621.77 19.1285 624.2477 19.2877 625.7907 20.1679 C628.2897 21.5934 627.0112 23.2703 622.8272 24.0547 C619.0421 24.7644 614.8249 24.02 607.4125 21.3341 C601.8046 19.302 598.7054 18.5354 593.3411 17.8538 L589.3206 17.3429 L592.0009 17.1316 C603.1759 16.2505 607.9824 15.1672 616.9248 11.5143 C620.5379 10.0383 625.1525 8.4635 627.1794 8.0148 C630.4177 7.2977 631.6495 7.1988 637.334 7.1988 C640.892 7.1988 643.6422 7.082 643.4457 6.9392 C642.8091 6.4771 637.2562 5.5107 633.8484 5.269 C627.6417 4.8287 619.4601 5.9537 614.9864 7.8626 L613.1793 8.6336 L612.7136 7.7659 C610.8835 4.3563 605.6553 2.5445 597.6343 2.5401 C591.834 2.537 586.3053 4.5671 586.3053 6.7001 C586.3053 7.264 586.0597 7.3667 585.1327 7.1903 C581.6403 6.5258 579.1055 6.1714 577.762 6.1596 C575.6551 6.1412 575.7977 5.1486 578.0199 4.3643 L579.7854 3.7411 L577.6407 3.7411 C574.7146 3.7411 573.086 4.1625 569.5537 5.8334 C566.9973 7.0426 566.0389 7.2895 563.2571 7.4551 C555.7119 7.9042 550.8682 9.1564 548.4031 11.2954 C547.0534 12.4665 547.1268 12.4878 550.0459 11.7703 C552.2512 11.2283 552.9186 11.1851 554.4013 11.4882 C556.606 11.9389 556.6733 12.8553 554.571 13.7986 C553.3787 14.3336 551.9361 14.5565 548.7079 14.7049 C546.3529 14.8131 511.5594 14.8597 471.3888 14.8085 C401.3001 14.7191 398.2768 14.6926 396.5009 14.1523 C394.3479 13.4972 393.488 12.3457 394.6733 11.7048 C395.8078 11.0915 397.936 11.1463 400.5292 11.8558 C401.7269 12.1834 402.7069 12.3792 402.7069 12.2907 C402.7069 11.8292 400.5443 10.3913 398.5762 9.5441 C395.7664 8.3348 392.75 7.7684 387.6304 7.4889 C383.9655 7.2888 383.3434 7.1429 380.5947 5.8382 C377.1064 4.1825 375.4341 3.7411 372.6495 3.7411 L370.6468 3.7411 L372.6496 4.6398 C374.8028 5.606 374.6967 6.1385 372.3468 6.1596 C371.0471 6.1713 368.4115 6.5408 365.1071 7.1746 C364.2477 7.3394 363.9386 7.1367 363.5999 6.1862 C362.5608 3.2706 353.1007 1.5909 345.7512 3.0171 Z" fill-rule="evenodd" clip-rule="evenodd" fill="white" stroke="none"/>
  <path d="M355.7536 6.3373 C356.5174 6.773 357.1423 7.3142 357.1423 7.54 C357.1423 8.0154 354.7794 9.1531 353.792 9.1531 C353.4235 9.1531 352.5189 8.8825 351.7818 8.5518 C350.0399 7.7701 349.7716 7.7928 349.7716 8.7218 C349.7716 9.8315 350.8508 10.5804 353.2528 11.1378 C356.4261 11.8741 360.1227 11.5505 365.1195 10.0991 C370.4185 8.5598 372.0367 8.4669 371.2174 9.7486 C369.629 12.2338 375.0542 14.6681 380.2049 13.7812 C381.6435 13.5335 381.5476 13.0617 380.0586 13.0617 C377.3762 13.0617 376.2526 11.445 378.2973 10.5275 C379.7547 9.8736 383.0101 9.9362 384.5981 10.6488 C387.3412 11.8796 387.155 13.7942 384.1714 15.0349 C379.1796 17.1107 369.6655 15.764 367.8408 12.7233 L367.1294 11.5379 L365.3187 12.1035 C355.7156 15.1031 341.8716 12.1638 345.0769 7.8058 C346.7153 5.5782 352.9255 4.7241 355.7536 6.3373 Z" fill-rule="evenodd" clip-rule="evenodd" fill="white" stroke="none"/>
  <path d="M602.6155 6.1626 C606.1088 7.3955 606.2494 10.3721 602.8813 11.7919 C598.739 13.538 592.5199 13.8162 586.7617 12.513 L583.0088 11.6636 L582.1443 12.8617 C578.977 17.2516 563.523 16.9196 563.523 12.4616 C563.523 10.5843 568.7459 9.3618 571.6786 10.5527 C573.8877 11.4497 572.8669 13.0617 570.0897 13.0617 C568.2936 13.0617 568.6319 13.6232 570.5588 13.8402 C572.9376 14.1081 575.4311 13.7591 577.3774 12.8858 C578.8368 12.2309 579.0255 11.9176 578.8274 10.4786 C578.6027 8.8472 578.6229 8.8267 580.2747 9.0059 C581.1961 9.1058 583.5945 9.6731 585.6046 10.2665 C589.9511 11.5496 593.8304 11.849 596.8955 11.1378 C599.3112 10.5772 600.3768 9.8311 600.3768 8.7 L600.3768 7.9068 L598.6112 8.5299 C596.3569 9.3256 595.3459 9.3156 594.0491 8.4849 C592.6796 7.6076 592.7314 7.2862 594.3948 6.3373 C596.1596 5.3306 600.0254 5.2484 602.6155 6.1626 Z" fill-rule="evenodd" clip-rule="evenodd" fill="white" stroke="none"/>
  <path d="M380.7191 19.0855 C383.9187 19.4842 386.6253 20.9182 386.6253 22.2145 C386.6253 24.1908 382.1075 25.6022 378.8486 24.6441 C376.1466 23.8497 377.3152 21.7893 380.475 21.7764 C381.4461 21.7724 381.4625 21.7319 380.5947 21.4803 C378.7451 20.944 375.4159 21.1499 373.3549 21.928 C371.1079 22.7764 370.4747 23.7682 371.2259 25.2627 C371.5101 25.8282 371.6433 26.2909 371.5219 26.2909 C370.5218 26.2909 366.9148 25.4635 363.9998 24.5655 C361.1708 23.6939 359.8178 23.474 357.1765 23.4565 C354.4085 23.4381 353.5534 23.5758 351.8267 24.3177 C350.4868 24.8935 349.7716 25.4951 349.7716 26.0465 C349.7716 26.9505 350.7169 27.1863 351.3541 26.4413 C351.5781 26.1792 352.581 25.9903 353.7474 25.9903 C357.8732 25.9903 358.0932 28.423 354.0363 29.1836 C349.5104 30.0322 344.9314 28.3746 344.8094 25.8436 C344.7301 24.1999 346.4402 23.0823 350.4809 22.1372 C354.2905 21.246 359.045 21.3586 363.7377 22.451 L367.0618 23.2249 L368.1849 21.9054 C369.3372 20.5515 371.8884 19.5052 375.0944 19.0715 C377.5877 18.7343 377.9074 18.7351 380.7191 19.0855 Z" fill-rule="evenodd" clip-rule="evenodd" fill="white" stroke="none"/>
  <path d="M578.3628 19.8421 C580.0198 20.3193 581.1787 20.9834 581.9638 21.9058 L583.1214 23.2659 L585.9849 22.5129 C591.3908 21.0914 598.0439 21.2397 602.3844 22.8785 C608.7832 25.2944 603.9351 30.438 596.3739 29.2553 C593.9721 28.8796 592.5662 27.5221 593.6435 26.6189 C594.5409 25.8665 598.195 25.7405 598.7943 26.4413 C599.401 27.1508 600.3768 26.9683 600.3768 26.1454 C600.3768 25.7345 599.4965 24.9566 598.4206 24.4165 C596.6864 23.546 596.0826 23.4371 593.097 23.4562 C590.3763 23.4737 589.0078 23.6928 585.9728 24.597 C581.9546 25.7942 579.2846 26.3478 578.7297 26.0988 C578.5412 26.0142 578.6502 25.5333 578.9718 25.0301 C579.6912 23.9046 578.4181 22.3746 576.176 21.6699 C574.4464 21.1263 571.1044 21.0306 569.5537 21.4803 C568.7223 21.7214 568.7131 21.7726 569.5009 21.7764 C571.0321 21.7838 572.904 22.7177 572.904 23.4743 C572.904 24.404 570.2437 25.1775 567.9389 24.9179 C563.6409 24.4338 562.1884 21.9375 565.2538 20.3029 C568.321 18.6673 573.6342 18.4805 578.3628 19.8421 Z" fill-rule="evenodd" clip-rule="evenodd" fill="white" stroke="none"/>
</svg>
