<?xml version="1.0" encoding="UTF-8"?>
<svg width="950" height="35" viewBox="0 0 950 35" fill="none" xmlns="http://www.w3.org/2000/svg">
  <path d="M306 17.5 L312 5.5 L318 11.5 L322 6.5 L328 13.5 L334 7.5 L340 14.5 L346 8.5 L352 17.5 L346 26.5 L340 20.5 L334 27.5 L328 21.5 L322 28.5 L318 23.5 L312 29.5 Z" fill-rule="evenodd" clip-rule="evenodd" fill="#B22222" stroke="none"/>
  <path d="M644 17.5 L638 5.5 L632 11.5 L628 6.5 L622 13.5 L616 7.5 L610 14.5 L604 8.5 L598 17.5 L604 26.5 L610 20.5 L616 27.5 L622 21.5 L628 28.5 L632 23.5 L638 29.5 Z" fill-rule="evenodd" clip-rule="evenodd" fill="#B22222" stroke="none"/>
  <path d="M9.5 17.5 L352 17.5" fill="none" stroke="#B22222" stroke-width="1.2" stroke-linecap="round" stroke-linejoin="round"/>
  <path d="M598 17.5 L940.5 17.5" fill="none" stroke="#B22222" stroke-width="1.2" stroke-linecap="round" stroke-linejoin="round"/>
</svg>
