<?xml version="1.0" encoding="UTF-8"?>
<svg width="950" height="35" viewBox="0 0 950 35" fill="none" xmlns="http://www.w3.org/2000/svg">
  <path d="M352 17.5 L346 9.5 L341 13.1 L348 17.5 L340 6.5 L335 11.45 L342 17.5 L334 10.5 L329 13.65 L336 17.5 L328 7.5 L323 12 L330 17.5 L322 11.5 L317 14.2 L324 17.5 L308 17.5 L314 8.5 L318 13 L320 5.5 L324 11.5 L326 9.5 L330 13.5 L352 17.5 Z" fill-rule="evenodd" clip-rule="evenodd" fill="white" stroke="none"/>
  <path d="M598 17.5 L604 9.5 L609 13.1 L602 17.5 L610 6.5 L615 11.45 L608 17.5 L616 10.5 L621 13.65 L614 17.5 L622 7.5 L627 12 L620 17.5 L628 11.5 L633 14.2 L626 17.5 L642 17.5 L636 8.5 L632 13 L630 5.5 L626 11.5 L624 9.5 L620 13.5 L598 17.5 Z" fill-rule="evenodd" clip-rule="evenodd" fill="white" stroke="none"/>
  <path d="M9.5 17.5 L352 17.5" fill="none" stroke="white" stroke-width="1.2" stroke-linecap="round" stroke-linejoin="round"/>
  <path d="M598 17.5 L940.5 17.5" fill="none" stroke="white" stroke-width="1.2" stroke-linecap="round" stroke-linejoin="round"/>
</svg>
