<?xml version="1.0" encoding="UTF-8"?>
<svg width="950" height="35" viewBox="0 0 950 35" fill="none" xmlns="http://www.w3.org/2000/svg">
  <path d="M335.0539 1.5909 L333.9753 2.6695 L333.9753 5.3659 L334.5147 5.9052 L334.5147 6.4445 L337.2111 9.141 L337.7504 9.141 L340.4469 11.2982 L340.9861 11.2982 L342.604 12.3767 L343.6826 12.3767 L347.4576 15.6125 L347.9969 15.6125 L348.5362 16.1518 L349.6148 16.1518 L350.1541 16.6911 L351.2327 16.6911 L351.772 17.2304 L350.6934 18.3089 L349.6148 18.3089 L349.0755 18.8482 L346.379 19.9268 L344.2219 22.084 L338.2897 24.7804 L336.1325 26.9376 L335.5932 26.9376 L333.9753 29.6341 L333.9753 31.7912 L336.1325 33.4091 L338.829 33.4091 L339.3683 32.8698 L342.0647 32.3305 L344.2219 30.7126 L344.7612 30.7126 L344.7612 30.1733 L343.6826 30.1733 L343.1433 30.7126 L341.5254 30.7126 L340.4469 29.6341 L340.4469 29.0948 L340.9861 28.5555 L341.5254 29.0948 L342.0647 29.0948 L342.604 28.5555 L342.604 28.0162 L342.0647 28.0162 L341.5254 27.4769 L341.5254 26.9376 L340.9861 26.9376 L340.4469 26.3983 L340.9861 25.859 L340.9861 25.3197 L341.5254 24.7804 L343.1433 24.7804 L344.7612 23.7018 L345.3005 23.7018 L347.9969 25.859 L346.379 28.5555 L346.379 30.1733 L346.9183 30.7126 L346.9183 31.2519 L348.5362 32.3305 L355.547 32.3305 L356.0863 31.7912 L357.1649 31.7912 L357.7042 31.2519 L360.4006 30.1733 L362.5578 28.0162 L362.5578 27.4769 L363.0971 26.9376 L363.0971 25.3197 L361.4792 22.6233 L360.9399 22.6233 L360.9399 23.1626 L361.4792 23.7018 L361.4792 26.3983 L359.322 28.5555 L358.7828 28.5555 L358.2435 29.0948 L355.0077 29.0948 L353.3898 28.0162 L353.3898 27.4769 L353.9291 26.9376 L356.6256 26.3983 L357.1649 25.859 L357.1649 24.7804 L353.3898 25.3197 L352.8505 24.7804 L352.8505 23.1626 L353.3898 22.6233 L353.3898 22.084 L355.0077 20.4661 L355.547 20.4661 L357.1649 19.3875 L358.2435 19.3875 L358.7828 18.8482 L364.715 18.8482 L364.715 18.3089 L364.1757 18.3089 L363.6364 17.7696 L362.0185 18.3089 L360.9399 17.2304 L361.4792 16.6911 L362.0185 16.6911 L362.0185 16.1518 L359.8613 16.1518 L359.322 15.6125 L357.7042 15.6125 L357.1649 15.0732 L355.547 14.5339 L353.3898 12.916 L353.3898 12.3767 L352.3112 10.7589 L354.4684 9.141 L355.0077 9.141 L355.547 9.6803 L357.1649 9.6803 L357.1649 8.6017 L356.0863 8.6017 L355.547 8.0624 L353.9291 8.0624 L353.3898 7.5231 L353.3898 6.9838 L355.547 5.3659 L357.7042 5.3659 L358.2435 5.9052 L359.8613 6.4445 L360.9399 7.5231 L360.9399 8.0624 L361.4792 8.6017 L361.4792 11.2982 L362.0185 11.2982 L362.0185 10.7589 L363.0971 9.141 L363.0971 8.0624 L362.5578 7.5231 L362.0185 5.9052 L360.9399 4.8267 L360.4006 4.8267 L357.7042 3.2088 L356.6256 3.2088 L356.0863 2.6695 L354.4684 2.6695 L353.9291 2.1302 L349.6148 2.1302 L349.0755 2.6695 L347.9969 2.6695 L346.379 4.8267 L346.379 5.9052 L346.9183 6.4445 L347.9969 9.141 L345.8398 10.7589 L344.2219 10.7589 L343.6826 10.2196 L343.1433 10.2196 L342.604 10.7589 L340.4469 8.6017 L340.9861 8.0624 L341.5254 8.0624 L341.5254 7.5231 L342.604 6.4445 L342.604 5.9052 L340.9861 5.9052 L340.4469 5.3659 L340.4469 4.8267 L340.9861 4.2874 L344.2219 4.2874 L344.2219 3.7481 L343.6826 3.2088 L343.1433 3.2088 L342.604 2.6695 L341.5254 2.6695 L339.9076 1.5909 L335.0539 1.5909 Z" fill-rule="evenodd" clip-rule="evenodd" fill="white" stroke="none"/>
  <path d="M379.2758 6.9838 L379.8151 6.9838 L383.5901 2.6695 L384.6687 3.2088 L523.2665 3.2088 L523.8058 2.6695 L525.4237 2.6695 L525.963 3.2088 L527.0416 2.6695 L532.4345 2.6695 L532.9738 3.2088 L566.4099 3.2088 L569.6456 6.4445 L570.1849 6.4445 L570.1849 4.8267 L571.2635 3.2088 L569.1063 1.5909 L531.8952 1.5909 L531.3559 2.1302 L529.7381 2.1302 L529.1988 1.5909 L527.0416 1.5909 L526.5023 2.1302 L524.3451 2.1302 L523.8058 1.5909 L383.5901 1.5909 L382.5116 2.1302 L381.433 1.5909 L379.2758 3.2088 L379.2758 4.2874 L379.8151 4.2874 L380.3544 3.2088 L381.433 4.2874 L379.2758 6.9838 Z" fill-rule="evenodd" clip-rule="evenodd" fill="white" stroke="none"/>
  <path d="M614.9461 1.5909 L610.6317 1.5909 L610.0924 2.1302 L607.396 2.6695 L606.3174 3.7481 L605.7781 3.7481 L605.7781 4.2874 L609.0139 4.2874 L610.0924 5.3659 L609.5532 5.9052 L607.396 5.9052 L607.396 6.4445 L608.4746 6.9838 L608.4746 8.0624 L609.5532 8.6017 L608.4746 10.2196 L606.3174 10.2196 L605.7781 10.7589 L604.1602 10.7589 L602.5424 9.141 L602.5424 8.0624 L603.621 6.4445 L603.621 4.2874 L602.0031 2.6695 L600.9245 2.6695 L600.3852 2.1302 L596.0709 2.1302 L595.5316 2.6695 L593.9137 2.6695 L593.3744 3.2088 L592.2958 3.2088 L590.1387 4.2874 L588.5208 5.9052 L587.9815 5.9052 L587.4422 6.9838 L587.4422 10.2196 L588.5208 11.8374 L589.0601 11.8374 L588.5208 10.7589 L588.5208 8.6017 L591.2173 5.9052 L592.2958 5.3659 L594.453 5.3659 L596.6102 6.9838 L596.0709 8.0624 L594.453 8.0624 L593.3744 8.6017 L592.8351 9.6803 L594.453 9.6803 L595.5316 9.141 L597.6888 10.2196 L596.6102 12.916 L593.9137 15.0732 L592.8351 15.0732 L590.678 16.1518 L586.3636 16.1518 L586.3636 16.6911 L591.7565 16.6911 L592.2958 17.2304 L591.7565 17.7696 L587.4422 17.7696 L586.9029 18.3089 L585.2851 18.3089 L585.2851 18.8482 L591.2173 18.8482 L591.7565 19.3875 L592.8351 19.3875 L594.9923 20.4661 L597.1495 22.6233 L597.6888 24.2412 L596.6102 25.3197 L592.8351 24.7804 L592.8351 25.859 L594.9923 26.9376 L596.0709 26.9376 L596.6102 27.4769 L596.6102 28.0162 L594.9923 29.0948 L591.7565 29.0948 L590.678 28.5555 L588.5208 26.3983 L588.5208 23.7018 L587.9815 23.7018 L587.4422 24.2412 L587.4422 28.0162 L589.5994 30.1733 L592.8351 31.7912 L594.453 31.7912 L594.9923 32.3305 L601.4638 32.3305 L602.5424 31.7912 L603.621 30.1733 L603.621 28.5555 L602.0031 25.859 L603.0817 24.7804 L605.2388 23.7018 L606.8567 24.7804 L608.4746 24.7804 L609.5532 25.859 L609.5532 26.3983 L608.4746 26.9376 L608.4746 27.4769 L607.396 28.0162 L607.396 28.5555 L609.5532 28.5555 L610.0924 29.0948 L608.4746 30.7126 L606.8567 30.7126 L605.7781 30.1733 L605.7781 30.7126 L606.8567 31.7912 L607.9353 32.3305 L609.0139 32.3305 L609.5532 32.8698 L611.171 32.8698 L611.7103 33.4091 L614.4068 33.4091 L615.4854 32.8698 L616.0247 31.7912 L616.0247 29.0948 L613.8675 26.3983 L613.3282 26.3983 L611.7103 24.7804 L609.0139 23.7018 L607.9353 22.6233 L606.8567 22.6233 L605.7781 22.084 L603.0817 19.3875 L602.0031 18.8482 L600.9245 18.8482 L600.3852 18.3089 L599.3066 18.3089 L598.228 17.2304 L598.7673 16.6911 L599.8459 16.6911 L600.3852 16.1518 L601.4638 16.1518 L603.621 15.0732 L605.7781 12.916 L612.2496 9.6803 L615.4854 6.4445 L616.0247 5.3659 L616.0247 2.6695 L614.9461 1.5909 Z" fill-rule="evenodd" clip-rule="evenodd" fill="white" stroke="none"/>
  <path d="M373.3436 10.2196 L372.8043 10.2196 L372.265 10.7589 L371.7257 10.7589 L370.6471 11.8374 L370.1079 11.8374 L370.1079 12.3767 L369.0293 13.4553 L369.0293 14.5339 L368.49 15.0732 L366.8721 15.0732 L365.7935 16.1518 L364.715 16.1518 L364.715 16.6911 L366.8721 16.6911 L367.4114 17.2304 L367.4114 17.7696 L366.8721 18.3089 L366.3328 18.3089 L366.8721 19.9268 L367.9507 19.9268 L369.0293 21.0054 L369.0293 21.5447 L371.1864 23.7018 L371.7257 23.7018 L372.265 24.2412 L372.8043 24.2412 L372.8043 23.1626 L372.265 22.6233 L372.265 21.5447 L371.7257 21.5447 L371.1864 21.0054 L371.7257 20.4661 L373.3436 19.9268 L373.8829 20.4661 L374.4222 20.4661 L375.5008 21.5447 L375.5008 22.084 L376.0401 22.084 L376.0401 21.0054 L377.1186 19.9268 L377.1186 19.3875 L375.5008 17.7696 L375.5008 17.2304 L377.1186 15.6125 L377.1186 15.0732 L376.0401 13.9946 L376.0401 12.916 L375.5008 12.916 L375.5008 13.4553 L374.9615 13.9946 L374.4222 13.9946 L373.3436 15.0732 L372.8043 15.0732 L372.265 14.5339 L372.265 13.9946 L371.7257 13.9946 L371.1864 13.4553 L371.7257 12.916 L372.265 12.916 L372.265 11.8374 L373.3436 10.7589 L373.3436 10.2196 Z" fill-rule="evenodd" clip-rule="evenodd" fill="white" stroke="none"/>
  <path d="M577.735 10.2196 L576.6564 10.2196 L576.6564 10.7589 L577.735 11.8374 L577.735 12.916 L578.2743 13.4553 L577.735 13.9946 L577.735 14.5339 L577.1957 15.0732 L576.6564 15.0732 L574.4992 12.916 L574.4992 12.3767 L573.9599 12.3767 L573.9599 13.9946 L572.8814 15.0732 L572.8814 15.6125 L574.4992 17.2304 L574.4992 17.7696 L572.8814 19.3875 L572.8814 19.9268 L573.4206 19.9268 L573.9599 20.4661 L573.9599 22.084 L574.4992 22.084 L575.0385 21.5447 L575.0385 21.0054 L576.6564 19.9268 L577.1957 19.9268 L578.2743 21.0054 L578.2743 21.5447 L577.735 22.084 L577.735 23.1626 L576.6564 24.2412 L576.6564 24.7804 L577.1957 24.7804 L578.2743 23.7018 L578.8136 23.7018 L580.9707 21.5447 L580.9707 20.4661 L583.6672 18.8482 L583.6672 18.3089 L583.1279 18.3089 L582.5886 17.7696 L582.5886 17.2304 L583.6672 16.1518 L583.6672 15.6125 L583.1279 15.0732 L581.51 15.0732 L581.51 15.6125 L580.9707 16.1518 L579.8921 16.1518 L579.3529 15.6125 L579.3529 14.5339 L579.8921 13.9946 L580.9707 13.9946 L580.9707 13.4553 L579.8921 12.3767 L579.8921 11.8374 L579.3529 11.2982 L578.8136 11.2982 L577.735 10.2196 Z" fill-rule="evenodd" clip-rule="evenodd" fill="white" stroke="none"/>
  <path d="M370.1079 13.9946 L370.6471 14.5339 L370.6471 15.6125 L370.1079 16.1518 L369.0293 16.1518 L368.49 15.6125 L368.49 15.0732 L370.1079 13.9946 Z" fill-rule="evenodd" clip-rule="evenodd" fill="white" stroke="none"/>
  <path d="M357.7042 17.2304 L358.2435 16.6911 L359.322 16.6911 L359.8613 17.2304 L359.322 17.7696 L358.2435 17.7696 L357.7042 17.2304 Z" fill-rule="evenodd" clip-rule="evenodd" fill="white" stroke="none"/>
  <path d="M368.49 19.3875 L369.0293 18.8482 L370.1079 18.8482 L370.6471 19.3875 L370.6471 20.4661 L370.1079 21.0054 L368.49 19.3875 Z" fill-rule="evenodd" clip-rule="evenodd" fill="white" stroke="none"/>
  <path d="M579.3529 20.4661 L579.3529 19.3875 L579.8921 18.8482 L580.9707 18.8482 L581.51 19.3875 L581.51 19.9268 L580.9707 20.4661 L580.4314 20.4661 L579.8921 21.0054 L579.3529 20.4661 Z" fill-rule="evenodd" clip-rule="evenodd" fill="white" stroke="none"/>
  <path d="M571.2635 27.4769 L570.7242 27.4769 L568.567 29.6341 L568.0277 29.6341 L566.4099 31.7912 L421.8798 31.7912 L421.8798 32.8698 L566.9492 32.8698 L567.4884 33.4091 L568.567 33.4091 L571.2635 31.2519 L571.2635 30.7126 L570.1849 30.1733 L570.1849 29.0948 L571.2635 28.0162 L571.2635 27.4769 Z" fill-rule="evenodd" clip-rule="evenodd" fill="white" stroke="none"/>
  <path d="M379.2758 28.0162 L379.2758 28.5555 L379.8151 29.0948 L379.8151 30.1733 L379.2758 30.7126 L379.2758 31.7912 L380.3544 32.8698 L380.8937 32.8698 L381.433 33.4091 L383.0508 33.4091 L383.5901 32.8698 L417.5655 32.8698 L417.5655 32.3305 L417.0262 31.7912 L383.5901 31.7912 L383.0508 31.2519 L383.0508 30.7126 L381.433 29.0948 L380.8937 29.0948 L379.8151 28.0162 L379.2758 28.0162 Z" fill-rule="evenodd" clip-rule="evenodd" fill="white" stroke="none"/>
  <path d="M418.6441 31.7912 L418.6441 32.3305 L419.1834 32.8698 L420.8012 32.8698 L420.8012 31.7912 L418.6441 31.7912 Z" fill-rule="evenodd" clip-rule="evenodd" fill="white" stroke="none"/>
</svg>
