<?xml version="1.0" encoding="UTF-8"?>
<svg xmlns="http://www.w3.org/2000/svg" viewBox="0 0 398.0313 33.1482" width="398.0313" height="33.1482">
  <path d="M7.6544 16.2719 L170.3115 16.5288" fill="none" stroke="#000000" stroke-width="0.35" stroke-linecap="round" stroke-linejoin="round"/>
  <path d="M227.7199 16.6195 L390.3769 16.8763" fill="none" stroke="#000000" stroke-width="0.35" stroke-linecap="round" stroke-linejoin="round"/>
  <path d="M175.4145 16.5368 C175.4018 13.9764 173.1068 11.8971 170.2886 11.8927 C167.4703 11.8882 165.1959 13.9603 165.2085 16.5207 C165.2212 19.0811 167.5161 21.1604 170.3344 21.1649 C173.1527 21.1693 175.4271 19.0973 175.4145 16.5368 Z" fill="#000000" fill-rule="evenodd" stroke="none"/>
  <path d="M191.3612 16.562 C191.3454 13.3615 188.4767 10.7624 184.9538 10.7568 C181.431 10.7512 178.588 13.3413 178.6038 16.5419 C178.6196 19.7424 181.4883 22.3415 185.0111 22.3471 C188.534 22.3527 191.377 19.7626 191.3612 16.562 Z" fill="#000000" fill-rule="evenodd" stroke="none"/>
  <path d="M219.4275 16.6063 C219.4117 13.4058 216.543 10.8067 213.0202 10.8011 C209.4973 10.7955 206.6543 13.3856 206.6701 16.5862 C206.6859 19.7868 209.5546 22.3858 213.0775 22.3914 C216.6003 22.3969 219.4433 19.8069 219.4275 16.6063 Z" fill="#000000" fill-rule="evenodd" stroke="none"/>
  <path d="M232.8228 16.6275 C232.8102 14.067 230.5152 11.9878 227.6969 11.9834 C224.8787 11.9789 222.6042 14.0509 222.6169 16.6114 C222.6296 19.1718 224.9245 21.2511 227.7428 21.2555 C230.5611 21.26 232.8355 19.1879 232.8228 16.6275 Z" fill="#000000" fill-rule="evenodd" stroke="none"/>
  <path d="M198.9412 1.5067 C209.7733 12.0709 204.032 24.869 199.0901 31.6414 C194.0812 24.8533 188.2133 12.0369 198.9412 1.5067 Z" fill="#000000" fill-rule="evenodd" stroke="none"/>
</svg>
