<?xml version="1.0" encoding="UTF-8"?>
<svg width="950" height="35" viewBox="0 0 950 35" fill="none" xmlns="http://www.w3.org/2000/svg">
  <path d="M330 17.5 L338 3.5 L342.2426 13.2574 L352 17.5 L342.2426 21.7426 L338 31.5 L333.7574 21.7426 L324 17.5 L333.7574 13.2574 L346 17.5 Z" fill-rule="evenodd" clip-rule="evenodd" fill="#B22222" stroke="none"/>
  <path d="M620 17.5 L612 3.5 L607.7574 13.2574 L598 17.5 L607.7574 21.7426 L612 31.5 L616.2426 21.7426 L626 17.5 L616.2426 13.2574 L604 17.5 Z" fill-rule="evenodd" clip-rule="evenodd" fill="#B22222" stroke="none"/>
  <path d="M348 14.5 L352 17.5 L348 20.5 Z" fill-rule="evenodd" clip-rule="evenodd" fill="#B22222" stroke="none"/>
  <path d="M602 14.5 L598 17.5 L602 20.5 Z" fill-rule="evenodd" clip-rule="evenodd" fill="#B22222" stroke="none"/>
  <path d="M348 14.5 L352 17.5 L348 20.5 Z" fill-rule="evenodd" clip-rule="evenodd" fill="#B22222" stroke="none"/>
  <path d="M602 14.5 L598 17.5 L602 20.5 Z" fill-rule="evenodd" clip-rule="evenodd" fill="#B22222" stroke="none"/>
  <path d="M9.5 17.5 L352 17.5" fill="none" stroke="#B22222" stroke-width="1.2" stroke-linecap="round" stroke-linejoin="round"/>
  <path d="M598 17.5 L940.5 17.5" fill="none" stroke="#B22222" stroke-width="1.2" stroke-linecap="round" stroke-linejoin="round"/>
</svg>
