<?xml version="1.0" encoding="UTF-8"?>
<svg width="950" height="35" viewBox="0 0 950 35" fill="none" xmlns="http://www.w3.org/2000/svg">
  <path d="M304 17.5 L310 7.5 L315 12.5 L312 17.5 L316 4.5 L321 10.5 L318 17.5 L322 6.5 L327 13.5 L324 17.5 L328 5.5 L333 14.5 L330 17.5 L334 8.5 L339 15.5 L336 17.5 L340 10.5 L345 16.5 L342 17.5 L352 17.5 L342 17.5 L345 18.5 L340 24.5 L336 17.5 L339 19.5 L334 26.5 L330 17.5 L333 20.5 L328 29.5 L324 17.5 L327 21.5 L322 28.5 L318 17.5 L321 24.5 L316 30.5 L312 17.5 L315 22.5 L310 27.5 Z" fill-rule="evenodd" clip-rule="evenodd" fill="#B22222" stroke="none"/>
  <path d="M646 17.5 L640 7.5 L635 12.5 L638 17.5 L634 4.5 L629 10.5 L632 17.5 L628 6.5 L623 13.5 L626 17.5 L622 5.5 L617 14.5 L620 17.5 L616 8.5 L611 15.5 L614 17.5 L610 10.5 L605 16.5 L608 17.5 L598 17.5 L608 17.5 L605 18.5 L610 24.5 L614 17.5 L611 19.5 L616 26.5 L620 17.5 L617 20.5 L622 29.5 L626 17.5 L623 21.5 L628 28.5 L632 17.5 L629 24.5 L634 30.5 L638 17.5 L635 22.5 L640 27.5 Z" fill-rule="evenodd" clip-rule="evenodd" fill="#B22222" stroke="none"/>
  <path d="M9.5 17.5 L352 17.5" fill="none" stroke="#B22222" stroke-width="1.2" stroke-linecap="round" stroke-linejoin="round"/>
  <path d="M598 17.5 L940.5 17.5" fill="none" stroke="#B22222" stroke-width="1.2" stroke-linecap="round" stroke-linejoin="round"/>
</svg>
