<?xml version="1.0" encoding="UTF-8"?>
<svg width="950" height="35" viewBox="0 0 950 35" fill="none" xmlns="http://www.w3.org/2000/svg">
  <path d="M9.5 18.8409 L200.5388 18.8409" fill="none" stroke="white" stroke-width="0.5359" stroke-linecap="round" stroke-linejoin="round"/>
  <path d="M758.0833 18.8409 L940.5 18.8409" fill="none" stroke="white" stroke-width="0.5359" stroke-linecap="round" stroke-linejoin="round"/>
  <path d="M9.5 19.4423 L200.5388 19.4423" fill="none" stroke="white" stroke-width="0.5359" stroke-linecap="round" stroke-linejoin="round"/>
  <path d="M758.0833 19.4423 L940.5 19.4423" fill="none" stroke="white" stroke-width="0.5359" stroke-linecap="round" stroke-linejoin="round"/>
  <path d="M9.5 8.4938 L200.5388 8.4938" fill="none" stroke="white" stroke-width="0.5359" stroke-linecap="round" stroke-linejoin="round"/>
  <path d="M758.0833 8.4938 L940.5 8.4938" fill="none" stroke="white" stroke-width="0.5359" stroke-linecap="round" stroke-linejoin="round"/>
  <path d="M9.5 29.7894 L200.5388 29.7894" fill="none" stroke="white" stroke-width="0.5359" stroke-linecap="round" stroke-linejoin="round"/>
  <path d="M758.0833 29.7894 L940.5 29.7894" fill="none" stroke="white" stroke-width="0.5359" stroke-linecap="round" stroke-linejoin="round"/>
  <path d="M419.3217 4.8034 C445.1819 1.5909 458.8281 20.8483 464.2648 33.375 C449.4772 33.0444 424.9217 28.0159 419.3217 4.8034 Z" fill-rule="evenodd" clip-rule="evenodd" fill="white" stroke="none"/>
  <path d="M530.5374 4.979 C525.1668 28.1743 500.6606 33.1253 485.876 33.4091 C491.189 20.8994 504.6449 1.6849 530.5374 4.979 Z" fill-rule="evenodd" clip-rule="evenodd" fill="white" stroke="none"/>
  <path d="M474.9342 5.8319 L489.65 19.1647 L475.0657 32.4513 L460.3499 19.1184 L474.9342 5.8319 Z" fill-rule="evenodd" clip-rule="evenodd" fill="white" stroke="none"/>
  <path d="M418.2918 6.6298 L432.0265 19.0738 L418.4146 31.4746 L404.6798 19.0306 L418.2918 6.6298 Z" fill-rule="evenodd" clip-rule="evenodd" fill="white" stroke="none"/>
  <path d="M531.5853 6.8086 L545.3201 19.2526 L531.7081 31.6534 L517.9734 19.2094 L531.5853 6.8086 Z" fill-rule="evenodd" clip-rule="evenodd" fill="white" stroke="none"/>
</svg>
