<?xml version="1.0" encoding="UTF-8"?>
<svg width="950" height="35" viewBox="0 0 950 35" fill="none" xmlns="http://www.w3.org/2000/svg">
  <path d="M300 17.5 L304 9.5 L309 5.5 L314 10.5 L318 4.5 L324 12.5 L330 6.5 L336 13.5 L342 8.5 L348 14.5 L352 17.5 L348 20.5 L342 26.5 L336 21.5 L330 28.5 L324 22.5 L318 30.5 L314 24.5 L309 29.5 L304 25.5 Z" fill-rule="evenodd" clip-rule="evenodd" fill="white" stroke="none"/>
  <path d="M343.5 14 L348 17.5 L343.5 21 Z" fill-rule="evenodd" clip-rule="evenodd" fill="white" stroke="none"/>
  <path d="M650 17.5 L646 9.5 L641 5.5 L636 10.5 L632 4.5 L626 12.5 L620 6.5 L614 13.5 L608 8.5 L602 14.5 L598 17.5 L602 20.5 L608 26.5 L614 21.5 L620 28.5 L626 22.5 L632 30.5 L636 24.5 L641 29.5 L646 25.5 Z" fill-rule="evenodd" clip-rule="evenodd" fill="white" stroke="none"/>
  <path d="M606.5 14 L602 17.5 L606.5 21 Z" fill-rule="evenodd" clip-rule="evenodd" fill="white" stroke="none"/>
  <path d="M9.5 17.5 L352 17.5" fill="none" stroke="white" stroke-width="1.2" stroke-linecap="round" stroke-linejoin="round"/>
  <path d="M598 17.5 L940.5 17.5" fill="none" stroke="white" stroke-width="1.2" stroke-linecap="round" stroke-linejoin="round"/>
</svg>
