<?xml version="1.0" encoding="UTF-8"?>
<svg width="950" height="35" viewBox="0 0 950 35" fill="none" xmlns="http://www.w3.org/2000/svg">
  <path d="M350.6199 1.5909 L333.2645 1.5909 L333.2645 19.6694 L333.9876 20.3926 L334.7107 20.3926 L334.7107 3.7603 L335.4339 3.0372 L350.6199 3.0372 L350.6199 1.5909 Z" fill-rule="evenodd" clip-rule="evenodd" fill="white" stroke="none"/>
  <path d="M599.3802 1.5909 L598.657 2.314 L598.657 3.0372 L613.843 3.0372 L615.2893 4.4835 L615.2893 19.6694 L616.7355 19.6694 L616.7355 1.5909 L599.3802 1.5909 Z" fill-rule="evenodd" clip-rule="evenodd" fill="white" stroke="none"/>
  <path d="M339.0496 7.376 L339.0496 18.9463 L339.7727 18.9463 L339.7727 9.5455 L340.4959 8.8223 L371.5909 8.8223 L372.314 9.5455 L373.7603 8.8223 L430.8884 8.8223 L433.0579 10.2686 L433.781 10.2686 L434.5041 8.8223 L435.9504 10.2686 L466.3223 10.2686 L467.7686 8.8223 L470.6612 8.8223 L472.1074 10.2686 L477.8926 10.2686 L479.3388 8.8223 L482.2314 8.8223 L483.6777 10.2686 L516.9421 10.2686 L519.1116 8.8223 L576.2396 8.8223 L576.9628 9.5455 L578.4091 8.8223 L584.9174 8.8223 L585.6405 9.5455 L587.0867 8.8223 L608.781 8.8223 L609.5041 9.5455 L609.5041 18.2231 L610.9504 18.2231 L610.9504 8.0992 L610.2273 7.376 L587.0867 7.376 L585.6405 5.2066 L585.6405 3.0372 L580.5785 3.0372 L579.1323 3.7603 L576.2396 7.376 L521.281 7.376 L520.5579 5.9298 L482.9545 5.9298 L482.2314 7.376 L479.3388 7.376 L477.8926 5.9298 L471.3843 5.9298 L470.6612 7.376 L467.7686 7.376 L466.3223 5.9298 L440.2893 5.9298 L439.5661 6.6529 L438.1198 6.6529 L437.3967 5.9298 L435.9504 6.6529 L435.2273 5.9298 L429.4421 5.9298 L427.9959 7.376 L373.7603 7.376 L372.314 5.2066 L369.4215 3.0372 L364.3595 3.0372 L364.3595 4.4835 L362.1901 7.376 L339.0496 7.376 Z" fill-rule="evenodd" clip-rule="evenodd" fill="white" stroke="none"/>
  <path d="M371.5909 11.7149 L370.1446 11.7149 L369.4215 12.438 L368.6983 12.438 L368.6983 13.1612 L371.5909 13.1612 L371.5909 11.7149 Z" fill-rule="evenodd" clip-rule="evenodd" fill="white" stroke="none"/>
  <path d="M578.4091 11.7149 L578.4091 13.1612 L581.3017 13.1612 L581.3017 12.438 L579.8554 12.438 L579.1323 11.7149 L578.4091 11.7149 Z" fill-rule="evenodd" clip-rule="evenodd" fill="white" stroke="none"/>
  <path d="M337.6033 24.0083 L336.8802 24.7314 L336.157 24.7314 L335.4339 25.4545 L334.7107 25.4545 L334.7107 31.2397 L336.8802 33.4091 L339.0496 33.4091 L339.0496 25.4545 L339.7727 24.7314 L339.7727 24.0083 L337.6033 24.0083 Z" fill-rule="evenodd" clip-rule="evenodd" fill="white" stroke="none"/>
  <path d="M610.2273 24.0083 L610.2273 33.4091 L612.3967 33.4091 L613.1198 32.686 L613.843 32.686 L614.5661 31.9628 L614.5661 31.2397 L615.2893 30.5165 L615.2893 24.7314 L614.5661 24.7314 L613.843 25.4545 L613.1198 24.7314 L612.3967 24.7314 L611.6736 24.0083 L610.2273 24.0083 Z" fill-rule="evenodd" clip-rule="evenodd" fill="white" stroke="none"/>
</svg>
