<?xml version="1.0" encoding="UTF-8"?>
<svg width="950" height="35" viewBox="0 0 950 35" fill="none" xmlns="http://www.w3.org/2000/svg">
  <path d="M 441.7976 3.4176 C 475.8213 3.4176 509.845 3.4176 544.8997 3.4176 C 544.8997 13.2211 544.8997 23.0245 544.8997 33.125 C 510.876 33.125 476.8523 33.125 441.7976 33.125 C 441.7976 23.3216 441.7976 13.5181 441.7976 3.4176 Z" fill-rule="evenodd" clip-rule="evenodd" fill="#F4F4F4" stroke="none"/>
  <path d="M 441.7976 3.4176 C 442.5579 3.4216 443.3182 3.4255 444.1015 3.4296 C 445.9548 3.4397 447.808 3.454 449.6613 3.4722 C 449.412 4.8385 449.1558 6.2035 448.8968 7.5679 C 448.7549 8.3282 448.613 9.0884 448.4668 9.8717 C 447.9139 12.2097 447.9139 12.2097 446.1664 16.5784 C 432.6146 16.5784 419.0627 16.5784 405.1003 16.5784 C 408.1543 10.4705 414.6748 7.9459 420.9369 5.8204 C 427.8186 3.5615 434.5966 3.3457 441.7976 3.4176 Z" fill-rule="evenodd" clip-rule="evenodd" fill="#1A1A1A" stroke="none"/>
  <path d="M 441.7976 3.4176 C 454.6318 3.0456 467.0904 5.5832 477.3653 13.6125 C 478.495 14.7763 478.495 14.7763 478.495 16.5238 C 466.3849 16.5238 454.2747 16.5238 441.7976 16.5238 C 441.7976 12.1988 441.7976 7.8737 441.7976 3.4176 Z" fill-rule="evenodd" clip-rule="evenodd" fill="#E8E8E8" stroke="none"/>
  <path d="M 441.7976 3.4176 C 447.6914 3.3772 453.5851 3.3461 459.479 3.3271 C 462.2156 3.3179 464.9522 3.3056 467.6888 3.2858 C 470.3288 3.2668 472.9687 3.2564 475.6088 3.2518 C 476.617 3.2486 477.6252 3.2423 478.6333 3.2329 C 480.0434 3.2202 481.4532 3.2184 482.8633 3.2192 C 483.6666 3.2154 484.4698 3.2115 485.2974 3.2075 C 487.2325 3.4176 487.2325 3.4176 488.9799 5.1651 C 489.2683 4.8768 489.5566 4.5884 489.8537 4.2914 C 491.0354 4.2289 492.2201 4.218 493.4033 4.2368 C 493.7237 4.2407 493.7237 4.2407 495.3453 4.2606 C 495.8398 4.2708 496.3342 4.2809 496.8437 4.2914 C 496.5553 5.733 496.267 7.1747 495.9699 8.6601 C 488.4313 8.7537 480.985 8.7139 473.4778 7.9775 C 470.0921 7.6495 470.0921 7.6495 468.5561 8.2778 C 467.1363 8.6601 467.1363 8.6601 465.498 8.2232 C 463.6413 7.7863 463.6413 7.7863 461.5115 8.2232 C 459.2726 8.6601 459.2726 8.6601 457.4022 8.2539 C 454.1251 7.6406 450.9655 7.6931 447.6408 7.7317 C 447.3173 7.7337 447.3173 7.7337 445.68 7.7437 C 444.0946 7.7539 442.5093 7.7682 440.9239 7.7863 C 441.2122 6.3447 441.5006 4.903 441.7976 3.4176 Z" fill-rule="evenodd" clip-rule="evenodd" fill="#232323" stroke="none"/>
  <path d="M 441.7976 3.4176 C 454.5716 2.9188 467.1591 5.6369 477.3653 13.6125 C 478.495 14.7763 478.495 14.7763 478.495 16.5238 C 475.0349 16.5238 471.5749 16.5238 468.01 16.5238 C 467.4334 15.0821 466.8567 13.6405 466.2625 12.1551 C 465.6859 11.8667 465.1092 11.5784 464.515 11.2813 C 464.2267 11.858 463.9384 12.4347 463.6413 13.0288 C 463.4543 12.6087 463.2674 12.1886 463.0747 11.7558 C 461.6041 10.0769 460.4965 10.0239 458.3237 9.8666 C 458.1018 9.8568 458.1018 9.8568 456.979 9.8069 C 456.7537 9.792 456.7537 9.792 455.6137 9.7164 C 454.504 9.6445 453.3933 9.5877 452.2826 9.5338 C 452.2826 8.9572 452.2826 8.3805 452.2826 7.7863 C 448.8226 7.498 445.3625 7.2097 441.7976 6.9126 C 441.7976 5.7593 441.7976 4.6059 441.7976 3.4176 Z" fill-rule="evenodd" clip-rule="evenodd" fill="#8E8E8E" stroke="none"/>
  <path d="M 441.7976 3.4176 C 443.1916 4.7352 444.3753 6.0982 445.2926 7.7863 C 445.2926 8.6514 445.2926 9.5164 445.2926 10.4076 C 440.1026 10.4076 434.9125 10.4076 429.5652 10.4076 C 430.4389 6.0389 430.4389 6.0389 432.4595 4.5098 C 435.8028 2.9548 438.2716 1.875 441.7976 3.4176 Z" fill-rule="evenodd" clip-rule="evenodd" fill="#212121" stroke="none"/>
  <path d="M 441.7976 3.4176 C 442.6422 6.1453 442.6625 8.2414 442.2891 11.0629 C 442.2001 11.7612 442.1112 12.4595 442.0195 13.179 C 441.9463 13.7061 441.8731 14.2332 441.7976 14.7763 C 439.4909 14.7763 437.1842 14.7763 434.8077 14.7763 C 433.9426 11.893 433.0776 9.0096 432.1864 6.0389 C 433.7507 6.0673 435.3151 6.0957 436.8794 6.1242 C 438.3026 6.0389 438.3026 6.0389 439.1764 5.1651 C 434.8513 5.1651 430.5263 5.1651 426.0702 5.1651 C 426.0702 4.8768 426.0702 4.5884 426.0702 4.2914 C 431.3402 3.3545 436.4622 3.3308 441.7976 3.4176 Z" fill-rule="evenodd" clip-rule="evenodd" fill="#202020" stroke="none"/>
  <path d="M 441.7976 3.4176 C 444.5826 3.3664 447.3675 3.3356 450.1528 3.3084 C 450.9351 3.2938 451.7173 3.2791 452.5232 3.264 C 457.1136 3.2304 461.0697 3.5585 465.3888 5.1651 C 465.1005 6.0301 464.8121 6.8951 464.515 7.7863 C 459.8002 8.7732 459.8002 8.7732 457.3612 8.2505 C 454.1003 7.6346 450.9501 7.6933 447.6408 7.7317 C 447.3173 7.7337 447.3173 7.7337 445.68 7.7437 C 444.0946 7.7539 442.5093 7.7682 440.9239 7.7863 C 441.2122 6.3447 441.5006 4.903 441.7976 3.4176 Z" fill-rule="evenodd" clip-rule="evenodd" fill="#101010" stroke="none"/>
  <path d="M 441.7976 3.4176 C 442.5579 3.4216 443.3182 3.4255 444.1015 3.4296 C 445.9548 3.4397 447.808 3.454 449.6613 3.4722 C 449.3914 4.8927 449.1176 6.3124 448.8422 7.7317 C 448.6902 8.5224 448.5381 9.3131 448.3814 10.1277 C 447.9139 12.2097 447.9139 12.2097 447.0401 13.9572 C 446.4634 13.9572 445.8868 13.9572 445.2926 13.9572 C 445.581 11.0738 445.8693 8.1905 446.1664 5.2197 C 440.9763 5.5081 435.7863 5.7964 430.4389 6.0935 C 430.4389 6.6701 430.4389 7.2468 430.4389 7.841 C 426.6906 8.4176 422.9422 8.9943 419.0802 9.5885 C 418.7919 9.0118 418.5035 8.4351 418.2065 7.841 C 418.7831 7.841 419.3598 7.841 419.954 7.841 C 419.954 7.2643 419.954 6.6876 419.954 6.0935 C 420.8254 5.813 421.6998 5.542 422.5752 5.2743 C 423.0618 5.1223 423.5483 4.9702 424.0497 4.8136 C 429.933 3.452 435.7836 3.3576 441.7976 3.4176 Z" fill-rule="evenodd" clip-rule="evenodd" fill="#818181" stroke="none"/>
  <path d="M 441.7976 3.4176 C 445.8343 3.4176 449.871 3.4176 454.0301 3.4176 C 453.7417 3.5618 453.7417 3.5618 452.2826 4.2914 C 451.9414 5.4427 451.6626 6.6126 451.4088 7.7863 C 450.8544 9.5441 450.2561 11.2841 449.6613 13.0288 C 447.0663 13.0288 444.4713 13.0288 441.7976 13.0288 C 441.7976 9.8571 441.7976 6.6854 441.7976 3.4176 Z" fill-rule="evenodd" clip-rule="evenodd" fill="#212121" stroke="none"/>
  <path d="M 441.7976 3.4176 C 442.6626 4.2826 443.5276 5.1476 444.4189 6.0389 C 443.8422 8.0572 443.2655 10.0756 442.6714 12.1551 C 438.923 12.1551 435.1746 12.1551 431.3127 12.1551 C 433.075 8.6304 434.292 7.6026 437.5381 5.8204 C 437.947 5.5861 438.3558 5.3519 438.7771 5.1105 C 439.7792 4.5379 440.7878 3.9766 441.7976 3.4176 Z" fill-rule="evenodd" clip-rule="evenodd" fill="#686868" stroke="none"/>
  <path d="M 441.7976 3.4176 C 446.7068 4.8576 450.8232 6.433 454.9038 9.5338 C 455.5886 10.0024 456.2734 10.4709 456.979 10.9537 C 457.4475 11.3501 457.9161 11.7466 458.3988 12.1551 C 458.3988 12.7318 458.3988 13.3084 458.3988 13.9026 C 455.5155 13.9026 452.6321 13.9026 449.6613 13.9026 C 449.6613 12.1551 449.6613 10.4076 449.6613 8.6601 C 446.4635 7.5446 443.3953 6.6292 440.0501 6.0389 C 440.6268 5.7505 441.2035 5.4622 441.7976 5.1651 C 441.7976 4.5884 441.7976 4.0118 441.7976 3.4176 Z" fill-rule="evenodd" clip-rule="evenodd" fill="#535353" stroke="none"/>
  <path d="M 441.7976 3.4176 C 444.7956 3.8459 445.7612 4.8745 447.5862 7.2403 C 447.5862 8.1053 447.5862 8.9703 447.5862 9.8615 C 443.8378 9.8615 440.0895 9.8615 436.2275 9.8615 C 438.6033 3.922 438.6033 3.922 441.7976 3.4176 Z" fill-rule="evenodd" clip-rule="evenodd" fill="#5A5A5A" stroke="none"/>
  <path d="M 441.7976 3.4176 C 442.086 4.2826 442.3743 5.1476 442.6714 6.0389 C 443.0825 6.0715 443.4936 6.1042 443.9171 6.1378 C 448.4159 6.6129 448.4159 6.6129 450.4805 8.2778 C 450.7868 8.6923 451.0932 9.1068 451.4088 9.5338 C 449.8798 12.9196 449.8798 12.9196 447.9139 13.9026 C 447.6616 13.1998 447.4093 12.4969 447.1493 11.7728 C 446.1664 9.5338 446.1664 9.5338 444.4189 8.6601 C 444.1305 9.2368 443.8422 9.8134 443.5451 10.4076 C 443.3582 9.9875 443.1712 9.5674 442.9786 9.1345 C 441.508 7.4557 440.4003 7.4026 438.2276 7.2454 C 437.7838 7.2257 437.34 7.206 436.8828 7.1856 C 436.6575 7.1707 436.6575 7.1707 435.5176 7.0952 C 434.4079 7.0233 433.2972 6.9665 432.1864 6.9126 C 432.1864 6.3359 432.1864 5.7593 432.1864 5.1651 C 437.6473 2.4347 437.6473 2.4347 441.7976 3.4176 Z" fill-rule="evenodd" clip-rule="evenodd" fill="#151515" stroke="none"/>
  <path d="M 441.7976 3.4176 C 442.951 3.9943 444.1043 4.571 445.2926 5.1651 C 445.581 4.8768 445.8693 4.5884 446.1664 4.2914 C 447.3481 4.2289 448.5328 4.218 449.716 4.2368 C 450.3568 4.2446 450.9977 4.2525 451.658 4.2606 C 452.1524 4.2708 452.6469 4.2809 453.1563 4.2914 C 452.868 5.733 452.5797 7.1747 452.2826 8.6601 C 450.5896 8.6837 448.897 8.701 447.2039 8.7147 C 446.7258 8.722 446.2477 8.7293 445.7551 8.7369 C 443.4047 8.7511 441.3471 8.7537 439.1764 7.7863 C 439.1764 6.9213 439.1764 6.0563 439.1764 5.1651 C 440.487 4.1275 440.487 4.1275 441.7976 3.4176 Z" fill-rule="evenodd" clip-rule="evenodd" fill="#070707" stroke="none"/>
  <path d="M 441.7976 3.4176 C 442.3437 5.0559 442.3437 5.0559 442.6714 6.9126 C 442.0947 7.4893 441.518 8.0659 440.9239 8.6601 C 440.3061 10.1017 439.7186 11.5571 439.1764 13.0288 C 437.5692 10.8476 436.6373 8.5652 435.6814 6.0389 C 436.8347 5.7505 437.9881 5.4622 439.1764 5.1651 C 434.8513 5.1651 430.5263 5.1651 426.0702 5.1651 C 426.0702 4.8768 426.0702 4.5884 426.0702 4.2914 C 431.3402 3.3545 436.4622 3.3308 441.7976 3.4176 Z" fill-rule="evenodd" clip-rule="evenodd" fill="#7D7D7D" stroke="none"/>
  <path d="M 441.7976 3.4176 C 446.1227 3.4176 450.4477 3.4176 454.9038 3.4176 C 453.2656 11.9366 453.2656 11.9366 452.2826 13.9026 C 451.7059 13.9026 451.1292 13.9026 450.5351 13.9026 C 450.8234 11.0192 451.1118 8.1358 451.4088 5.1651 C 450.7781 5.1831 450.7781 5.1831 447.5862 5.2743 C 445.436 5.3358 445.436 5.3358 443.5451 5.1651 C 442.9685 4.5884 442.3918 4.0118 441.7976 3.4176 Z" fill-rule="evenodd" clip-rule="evenodd" fill="#2B2B2B" stroke="none"/>
  <path d="M 441.7976 3.4176 C 443.816 3.706 445.8343 3.9943 447.9139 4.2914 C 447.9139 5.4447 447.9139 6.5981 447.9139 7.7863 C 445.3188 7.7863 442.7238 7.7863 440.0501 7.7863 C 440.6268 6.3447 441.2035 4.903 441.7976 3.4176 Z" fill-rule="evenodd" clip-rule="evenodd" fill="#F0F0F0" stroke="none"/>
  <path d="M 441.7976 3.4176 C 444.2213 4.5537 445.7626 6.2543 447.0401 8.6055 C 447.0401 9.4705 447.0401 10.3355 447.0401 11.2267 C 446.1751 11.2267 445.3101 11.2267 444.4189 11.2267 C 444.2567 10.5419 444.0945 9.8571 443.9274 9.1516 C 442.6714 6.858 442.6714 6.858 441.1935 6.1788 C 439.6528 5.7524 438.1284 5.3923 436.5552 5.1105 C 438.4018 3.9893 439.614 3.3494 441.7976 3.4176 Z" fill-rule="evenodd" clip-rule="evenodd" fill="#ECECEC" stroke="none"/>
  <path d="M 441.7976 3.4176 C 442.0499 3.5167 442.0499 3.5167 443.3267 4.0183 C 442.6419 4.5229 441.9571 5.0275 441.2515 5.5474 C 439.2415 7.1417 438.1621 8.586 437.2105 11.0083 C 436.6338 11.0083 436.0571 11.0083 435.463 11.0083 C 435.8862 6.2474 435.8862 6.2474 437.9204 4.0729 C 439.8317 3.1446 439.8317 3.1446 441.7976 3.4176 Z" fill-rule="evenodd" clip-rule="evenodd" fill="#DBDBDB" stroke="none"/>
  <path d="M 441.7976 3.4176 C 441.5753 4.7126 441.3353 6.0045 441.0877 7.2949 C 440.9559 8.0146 440.8242 8.7343 440.6884 9.4758 C 440.0501 11.2813 440.0501 11.2813 438.6747 11.9674 C 438.2636 12.0293 437.8525 12.0913 437.4289 12.1551 C 437.159 6.6824 437.159 6.6824 438.1388 4.346 C 439.1764 3.4176 439.1764 3.4176 441.7976 3.4176 Z" fill-rule="evenodd" clip-rule="evenodd" fill="#E5E5E5" stroke="none"/>
  <path d="M 441.7976 3.4176 C 446.5623 3.3329 451.1032 3.3073 455.7776 4.2914 C 454.549 5.4534 453.579 6.0183 451.8752 6.1011 C 450.3472 6.0145 448.8346 5.876 447.3132 5.7112 C 446.7832 5.6616 446.2533 5.6121 445.7073 5.561 C 444.4032 5.4378 443.1003 5.3026 441.7976 5.1651 C 441.7976 4.5884 441.7976 4.0118 441.7976 3.4176 Z" fill-rule="evenodd" clip-rule="evenodd" fill="#2A2A2A" stroke="none"/>
  <path d="M 441.7976 3.4176 C 444.3178 4.5474 446.0547 5.7413 447.9139 7.7863 C 445.6072 7.7863 443.3005 7.7863 440.9239 7.7863 C 440.9239 4.2914 440.9239 4.2914 441.7976 3.4176 Z" fill-rule="evenodd" clip-rule="evenodd" fill="#989898" stroke="none"/>
  <path d="M 441.7976 3.4176 C 443.6543 3.7453 443.6543 3.7453 445.2926 4.2914 C 445.0043 4.4355 445.0043 4.4355 443.5451 5.1651 C 442.9922 6.5884 442.9922 6.5884 442.5622 8.2778 C 442.4157 8.8376 442.2693 9.3974 442.1185 9.9741 C 442.0126 10.4055 441.9067 10.8369 441.7976 11.2813 C 440.9326 11.2813 440.0676 11.2813 439.1764 11.2813 C 439.2764 10.2974 439.3878 9.3146 439.504 8.3324 C 439.5649 7.7851 439.6257 7.2377 439.6884 6.6737 C 440.0501 5.1651 440.0501 5.1651 441.7976 3.4176 Z" fill-rule="evenodd" clip-rule="evenodd" fill="#FBFBFB" stroke="none"/>
  <path d="M 441.7976 3.4176 C 442.149 3.4266 442.149 3.4266 443.9274 3.4722 C 444.2157 4.9139 444.5041 6.3556 444.8011 7.841 C 443.0711 7.841 441.3411 7.841 439.5587 7.841 C 439.0672 6.1481 439.0672 6.1481 438.6849 4.346 C 439.5587 3.4722 439.5587 3.4722 441.7976 3.4176 Z" fill-rule="evenodd" clip-rule="evenodd" fill="#101010" stroke="none"/>
  <path d="M 441.7976 3.4176 C 444.1043 3.4176 446.411 3.4176 448.7876 3.4176 C 448.4993 4.8593 448.2109 6.301 447.9139 7.7863 C 447.0488 7.6422 447.0488 7.6422 442.6714 6.9126 C 443.248 6.6243 443.8247 6.3359 444.4189 6.0389 C 444.4189 5.4622 444.4189 4.8855 444.4189 4.2914 C 443.5539 4.003 442.6889 3.7147 441.7976 3.4176 Z" fill-rule="evenodd" clip-rule="evenodd" fill="#313131" stroke="none"/>
  <path d="M 441.7976 3.4176 C 442.951 3.4176 444.1043 3.4176 445.2926 3.4176 C 446.9158 6.1568 447.2161 8.1138 447.0401 11.2813 C 446.1751 11.2813 445.3101 11.2813 444.4189 11.2813 C 444.3029 10.8601 444.1868 10.4389 444.0673 10.0048 C 443.913 9.453 443.7587 8.9011 443.5997 8.3324 C 443.4477 7.7851 443.2956 7.2377 443.139 6.6737 C 442.6714 5.1651 442.6714 5.1651 441.7976 3.4176 Z" fill-rule="evenodd" clip-rule="evenodd" fill="#EDEDED" stroke="none"/>
  <path d="M 441.7976 3.4176 C 443.816 3.706 445.8343 3.9943 447.9139 4.2914 C 447.6255 5.1564 447.3372 6.0214 447.0401 6.9126 C 443.1151 7.7659 443.1151 7.7659 441.7976 7.7863 C 441.221 7.2097 440.6443 6.633 440.0501 6.0389 C 440.6268 5.1738 441.2035 4.3088 441.7976 3.4176 Z" fill-rule="evenodd" clip-rule="evenodd" fill="#0B0B0B" stroke="none"/>
  <path d="M 441.7976 3.4176 C 442.6626 3.4176 443.5276 3.4176 444.4189 3.4176 C 446.3062 6.4846 446.3253 8.658 446.1664 12.1551 C 445.5897 12.1551 445.013 12.1551 444.4189 12.1551 C 443.5539 9.2717 442.6889 6.3884 441.7976 3.4176 Z" fill-rule="evenodd" clip-rule="evenodd" fill="#ECECEC" stroke="none"/>
  <path d="M 441.7976 3.4176 C 441.221 3.9943 440.6443 4.571 440.0501 5.1651 C 438.1593 5.1446 438.1593 5.1446 436.0091 4.8375 C 435.295 4.7406 434.5809 4.6437 433.8452 4.5439 C 433.2978 4.4606 432.7504 4.3772 432.1864 4.2914 C 432.1864 4.003 432.1864 3.7147 432.1864 3.4176 C 435.7645 2.4705 438.2452 2.6741 441.7976 3.4176 Z" fill-rule="evenodd" clip-rule="evenodd" fill="#414141" stroke="none"/>
  <path d="M 441.7976 3.4176 C 442.6626 3.706 443.5276 3.9943 444.4189 4.2914 C 444.7072 5.733 444.9955 7.1747 445.2926 8.6601 C 444.1393 8.6601 442.9859 8.6601 441.7976 8.6601 C 441.7976 6.9301 441.7976 5.2001 441.7976 3.4176 Z" fill-rule="evenodd" clip-rule="evenodd" fill="#828282" stroke="none"/>
  <path d="M 441.7976 3.4176 C 442.3743 3.5618 442.3743 3.5618 445.2926 4.2914 C 445.0043 4.4355 445.0043 4.4355 443.5451 5.1651 C 444.6985 6.0301 445.8518 6.8951 447.0401 7.7863 C 445.0218 7.7863 443.0034 7.7863 440.9239 7.7863 C 441.2122 6.3447 441.5006 4.903 441.7976 3.4176 Z" fill-rule="evenodd" clip-rule="evenodd" fill="#1E1E1E" stroke="none"/>
  <path d="M 441.7976 3.4176 C 442.3743 3.4176 442.951 3.4176 443.5451 3.4176 C 443.5451 4.8593 443.5451 6.301 443.5451 7.7863 C 440.9501 7.7863 438.3551 7.7863 435.6814 7.7863 C 439.1764 6.0389 439.1764 6.0389 440.9239 6.0389 C 441.2122 5.1738 441.5006 4.3088 441.7976 3.4176 Z" fill-rule="evenodd" clip-rule="evenodd" fill="#9F9F9F" stroke="none"/>
  <path d="M 441.7976 3.4176 C 443.5997 3.7999 443.5997 3.7999 445.2926 4.2914 C 445.2926 5.1564 445.2926 6.0214 445.2926 6.9126 C 443.2743 7.2009 441.2559 7.4893 439.1764 7.7863 C 440.8147 4.4006 440.8147 4.4006 441.7976 3.4176 Z" fill-rule="evenodd" clip-rule="evenodd" fill="#717171" stroke="none"/>
  <path d="M 441.7976 3.4176 C 444.3748 4.6142 446.6248 5.9325 448.7876 7.7863 C 448.7876 8.363 448.7876 8.9397 448.7876 9.5338 C 445.8717 8.5093 443.7423 7.6215 441.7976 5.1651 C 441.7976 4.5884 441.7976 4.0118 441.7976 3.4176 Z" fill-rule="evenodd" clip-rule="evenodd" fill="#3A3A3A" stroke="none"/>
  <path d="M 441.7976 3.4176 C 442.6626 3.706 443.5276 3.9943 444.4189 4.2914 C 444.2116 4.4806 444.2116 4.4806 443.1629 5.4382 C 441.8488 6.8573 441.3631 7.6892 440.9239 9.5338 C 440.3472 9.5338 439.7705 9.5338 439.1764 9.5338 C 439.8317 5.3835 439.8317 5.3835 441.7976 3.4176 Z" fill-rule="evenodd" clip-rule="evenodd" fill="#F1F1F1" stroke="none"/>
  <path d="M 441.7976 3.4176 C 442.951 3.9943 444.1043 4.571 445.2926 5.1651 C 444.752 5.2372 444.2114 5.3093 443.6543 5.3835 C 441.7976 6.0389 441.7976 6.0389 440.7054 7.841 C 440.4892 8.3996 440.2729 8.9583 440.0501 9.5338 C 439.4735 9.5338 438.8968 9.5338 438.3026 9.5338 C 438.7952 6.6771 439.6129 5.3174 441.7976 3.4176 Z" fill-rule="evenodd" clip-rule="evenodd" fill="#2C2C2C" stroke="none"/>
  <path d="M 441.7976 3.4176 C 441.7976 4.571 441.7976 5.7243 441.7976 6.9126 C 440.3559 6.9126 438.9143 6.9126 437.4289 6.9126 C 437.4289 6.0476 437.4289 5.1826 437.4289 4.2914 C 439.0103 3.7163 440.0919 3.4176 441.7976 3.4176 Z" fill-rule="evenodd" clip-rule="evenodd" fill="#060606" stroke="none"/>
  <path d="M 441.7976 3.4176 C 443.5997 3.7999 443.5997 3.7999 445.2926 4.2914 C 445.581 5.4447 445.8693 6.5981 446.1664 7.7863 C 445.5897 7.7863 445.013 7.7863 444.4189 7.7863 C 444.4189 7.2097 444.4189 6.633 444.4189 6.0389 C 443.2655 5.4622 442.1122 4.8855 440.9239 4.2914 C 441.2122 4.003 441.5006 3.7147 441.7976 3.4176 Z" fill-rule="evenodd" clip-rule="evenodd" fill="#F6F6F6" stroke="none"/>
  <path d="M 441.7976 3.4176 C 442.3495 3.5066 442.9014 3.5956 443.47 3.6872 C 443.8913 3.7605 444.3125 3.8337 444.7465 3.9091 C 444.7465 4.1974 444.7465 4.4858 444.7465 4.7828 C 443.7659 4.9769 442.7823 5.1561 441.7976 5.3289 C 441.2502 5.4303 440.7029 5.5317 440.1389 5.6361 C 439.89 5.6395 439.89 5.6395 438.6303 5.6566 C 438.0536 5.0799 437.477 4.5032 436.8828 3.9091 C 438.915 2.893 439.6087 3.0528 441.7976 3.4176 Z" fill-rule="evenodd" clip-rule="evenodd" fill="#363636" stroke="none"/>
  <path d="M 441.7976 3.4176 C 442.3743 3.706 442.3743 3.706 445.2926 5.1651 C 445.2926 6.8951 445.2926 8.6251 445.2926 10.4076 C 443.6854 8.2263 442.7536 5.944 441.7976 3.4176 Z" fill-rule="evenodd" clip-rule="evenodd" fill="#131313" stroke="none"/>
  <path d="M 441.7976 3.4176 C 442.951 3.706 444.1043 3.9943 445.2926 4.2914 C 445.2926 6.3097 445.2926 8.3281 445.2926 10.4076 C 443.6854 8.2263 442.7536 5.944 441.7976 3.4176 Z" fill-rule="evenodd" clip-rule="evenodd" fill="#EDEDED" stroke="none"/>
  <path d="M 441.7976 3.4176 C 441.7976 3.9943 441.7976 4.571 441.7976 5.1651 C 440.9326 5.4534 440.0676 5.7418 439.1764 6.0389 C 439.1764 5.4622 439.1764 4.8855 439.1764 4.2914 C 438.023 4.003 436.8697 3.7147 435.6814 3.4176 C 438.0114 2.2526 439.3221 2.8313 441.7976 3.4176 Z" fill-rule="evenodd" clip-rule="evenodd" fill="#2A2A2A" stroke="none"/>
  <path d="M 441.7976 3.4176 C 442.086 3.9943 442.3743 4.571 442.6714 5.1651 C 444.0366 5.7112 444.0366 5.7112 445.2926 6.0389 C 441.3137 7.1142 441.3137 7.1142 439.3402 6.0935 C 438.9978 5.7871 438.6554 5.4808 438.3026 5.1651 C 439.456 4.5884 440.6093 4.0118 441.7976 3.4176 Z" fill-rule="evenodd" clip-rule="evenodd" fill="#101010" stroke="none"/>
  <path d="M 441.7976 3.4176 C 442.086 3.9943 442.3743 4.571 442.6714 5.1651 C 441.8522 7.0218 441.8522 7.0218 440.9239 8.6601 C 440.3472 8.6601 439.7705 8.6601 439.1764 8.6601 C 439.0126 7.0218 439.0126 7.0218 439.1764 5.1651 C 440.487 4.0729 440.487 4.0729 441.7976 3.4176 Z" fill-rule="evenodd" clip-rule="evenodd" fill="#FAFAFA" stroke="none"/>
  <path d="M 441.7976 3.4176 C 442.951 3.706 444.1043 3.9943 445.2926 4.2914 C 445.0043 4.4355 445.0043 4.4355 443.5451 5.1651 C 442.5622 6.5303 442.5622 6.5303 441.7976 7.7863 C 441.221 7.498 440.6443 7.2097 440.0501 6.9126 C 440.6268 5.7593 441.2035 4.6059 441.7976 3.4176 Z" fill-rule="evenodd" clip-rule="evenodd" fill="#EFEFEF" stroke="none"/>
  <path d="M 441.7976 3.4176 C 442.6626 3.4176 443.5276 3.4176 444.4189 3.4176 C 444.1305 4.8593 443.8422 6.301 443.5451 7.7863 C 442.6801 7.2097 441.8151 6.633 440.9239 6.0389 C 441.2122 5.1738 441.5006 4.3088 441.7976 3.4176 Z" fill-rule="evenodd" clip-rule="evenodd" fill="#3D3D3D" stroke="none"/>
  <path d="M 441.7976 3.4176 C 442.6626 4.2826 443.5276 5.1476 444.4189 6.0389 C 443.2655 6.3272 442.1122 6.6155 440.9239 6.9126 C 440.6355 6.0476 440.3472 5.1826 440.0501 4.2914 C 440.6268 4.003 441.2035 3.7147 441.7976 3.4176 Z" fill-rule="evenodd" clip-rule="evenodd" fill="#636363" stroke="none"/>
  <path d="M 441.7976 3.4176 C 442.1941 3.5798 442.5906 3.742 442.999 3.9091 C 442.999 4.4858 442.999 5.0624 442.999 5.6566 C 441.5573 5.6566 440.1157 5.6566 438.6303 5.6566 C 438.6303 5.0799 438.6303 4.5032 438.6303 3.9091 C 440.3778 3.0354 440.3778 3.0354 441.7976 3.4176 Z" fill-rule="evenodd" clip-rule="evenodd" fill="#515151" stroke="none"/>
  <path d="M 441.7976 3.4176 C 442.6626 3.706 443.5276 3.9943 444.4189 4.2914 C 444.4189 5.4447 444.4189 6.5981 444.4189 7.7863 C 443.8422 7.7863 443.2655 7.7863 442.6714 7.7863 C 442.383 6.3447 442.0947 4.903 441.7976 3.4176 Z" fill-rule="evenodd" clip-rule="evenodd" fill="#F6F6F6" stroke="none"/>
  <path d="M 441.7976 3.4176 C 442.3743 3.4176 442.951 3.4176 443.5451 3.4176 C 443.2568 4.8593 442.9685 6.301 442.6714 7.7863 C 442.0947 6.9213 441.518 6.0563 440.9239 5.1651 C 441.2122 4.5884 441.5006 4.0118 441.7976 3.4176 Z" fill-rule="evenodd" clip-rule="evenodd" fill="#090909" stroke="none"/>
  <path d="M 441.7976 3.4176 C 442.6626 3.706 443.5276 3.9943 444.4189 4.2914 C 444.4189 4.868 444.4189 5.4447 444.4189 6.0389 C 443.2655 6.0389 442.1122 6.0389 440.9239 6.0389 C 441.2122 5.1738 441.5006 4.3088 441.7976 3.4176 Z" fill-rule="evenodd" clip-rule="evenodd" fill="#494949" stroke="none"/>
  <path d="M 441.7976 3.4176 C 442.086 4.2826 442.3743 5.1476 442.6714 6.0389 C 442.0947 6.6155 441.518 7.1922 440.9239 7.7863 C 440.9239 7.2097 440.9239 6.633 440.9239 6.0389 C 440.3472 5.7505 439.7705 5.4622 439.1764 5.1651 C 440.0414 4.5884 440.9064 4.0118 441.7976 3.4176 Z" fill-rule="evenodd" clip-rule="evenodd" fill="#353535" stroke="none"/>
  <path d="M 441.7976 3.4176 C 442.951 3.4176 444.1043 3.4176 445.2926 3.4176 C 445.2926 3.9943 445.2926 4.571 445.2926 5.1651 C 444.4276 5.4534 443.5626 5.7418 442.6714 6.0389 C 442.383 5.1738 442.0947 4.3088 441.7976 3.4176 Z" fill-rule="evenodd" clip-rule="evenodd" fill="#000000" stroke="none"/>
  <path d="M 441.7976 3.4176 C 442.3743 3.9943 442.951 4.571 443.5451 5.1651 C 442.9685 5.4534 442.9685 5.4534 440.0501 6.9126 C 440.6268 5.7593 441.2035 4.6059 441.7976 3.4176 Z" fill-rule="evenodd" clip-rule="evenodd" fill="#292929" stroke="none"/>
</svg>
