<?xml version="1.0" encoding="UTF-8"?>
<svg xmlns="http://www.w3.org/2000/svg" viewBox="0 0 398.0313 48.4474" width="398.0313" height="48.4474">
  <path d="M7.6544 23.9216 L172.2251 24.1814" fill="none" stroke="#000000" stroke-width="0.35" stroke-linecap="round" stroke-linejoin="round"/>
  <path d="M225.8062 24.266 L390.3769 24.5258" fill="none" stroke="#000000" stroke-width="0.35" stroke-linecap="round" stroke-linejoin="round"/>
  <path d="M198.9584 12.6334 L211.7731 24.2438 L199.073 35.8139 L186.2582 24.2036 L198.9584 12.6334 Z" fill="#000000" fill-rule="evenodd" stroke="none"/>
  <path d="M198.9068 2.2022 L223.2548 24.2619 L199.1245 46.2453 L174.7766 24.1854 L198.9068 2.2022 Z" fill="#000000" fill-rule="evenodd" stroke="none"/>
  <path d="M165.2085 24.1703 C165.1974 21.9299 163.1894 20.1105 160.7234 20.1066 C158.2574 20.1028 156.2673 21.9158 156.2783 24.1562 C156.2894 26.3966 158.2975 28.216 160.7635 28.2198 C163.2295 28.2237 165.2196 26.4107 165.2085 24.1703 Z" fill="#000000" fill-rule="evenodd" stroke="none"/>
  <path d="M241.753 24.2911 C241.7419 22.0508 239.7339 20.2314 237.2679 20.2275 C234.8019 20.2236 232.8117 22.0367 232.8228 24.277 C232.8339 26.5174 234.842 28.3368 237.308 28.3407 C239.774 28.3446 241.7641 26.5315 241.753 24.2911 Z" fill="#000000" fill-rule="evenodd" stroke="none"/>
</svg>
