<?xml version="1.0" encoding="UTF-8"?>
<svg width="950" height="35" viewBox="0 0 950 35" fill="none" xmlns="http://www.w3.org/2000/svg">
  <path d="M301.5907 3.1818 L302.3862 7.1591 L300.7953 8.75 L298.4089 7.9546 L298.4089 11.1364 L299.9998 11.9318 L299.9998 13.5227 L299.2043 14.3182 L296.818 13.5227 L296.818 15.9091 L299.2043 17.5 L298.4089 19.0909 L296.818 19.0909 L296.818 21.4773 L299.2043 21.4773 L299.9998 22.2727 L298.4089 23.8636 L299.2043 28.6364 L303.1817 30.2273 L301.5907 32.6136 L311.1362 32.6136 L311.1362 27.8409 L304.7725 20.6818 L301.5907 13.5227 L303.1817 9.5454 L306.3634 6.3636 L308.7498 5.5682 L313.5226 5.5682 L315.1135 6.3636 L319.0908 11.1364 L318.2953 15.9091 L313.5226 19.0909 L308.7498 18.2954 L306.3634 15.1136 L306.3634 11.9318 L308.7498 9.5454 L311.9316 9.5454 L314.318 11.9318 L311.9316 15.1136 L310.3407 15.1136 L309.5453 14.3182 L311.1362 11.9318 L309.5453 11.9318 L308.7498 12.7273 L308.7498 15.1136 L310.3407 16.7046 L312.7271 16.7046 L316.7044 12.7273 L314.318 8.75 L308.7498 7.9546 L304.7725 11.9318 L304.7725 15.9091 L313.5226 26.25 L315.1135 30.2273 L315.1135 32.6136 L324.6589 32.6136 L324.6589 30.2273 L326.2499 26.25 L332.6135 19.8864 L334.9998 15.9091 L334.9998 11.9318 L331.0226 7.9546 L327.0453 7.9546 L323.8635 10.3409 L323.8635 14.3182 L327.0453 16.7046 L329.4316 16.7046 L331.0226 15.1136 L331.0226 12.7273 L330.2271 11.9318 L328.6362 11.9318 L330.2271 14.3182 L329.4316 15.1136 L327.8408 15.1136 L326.2499 13.5227 L326.2499 11.1364 L327.8408 9.5454 L331.0226 9.5454 L333.409 11.9318 L333.409 15.1136 L331.0226 18.2954 L326.2499 19.0909 L320.6817 14.3182 L321.4772 9.5454 L326.2499 5.5682 L333.409 6.3636 L337.3862 10.3409 L337.3862 12.7273 L338.1817 13.5227 L334.9998 20.6818 L329.4316 26.25 L328.6362 27.8409 L328.6362 32.6136 L337.3862 32.6136 L336.5908 30.2273 L340.568 28.6364 L341.3635 23.8636 L338.9772 23.0682 L340.568 21.4773 L342.9544 21.4773 L342.9544 19.0909 L340.568 18.2954 L342.9544 15.9091 L342.9544 13.5227 L341.3635 14.3182 L339.7726 13.5227 L339.7726 11.9318 L342.1589 9.5454 L341.3635 7.9546 L338.9772 8.75 L337.3862 7.1591 L338.1817 6.3636 L338.1817 3.1818 L336.5908 3.1818 L334.9998 4.7727 L332.6135 1.5909 L331.0226 1.5909 L329.4316 3.9772 L327.0453 1.5909 L323.8635 2.3864 L323.068 4.7727 L319.0908 3.9772 L317.4998 5.5682 L315.909 3.9772 L315.909 2.3864 L312.7271 1.5909 L311.1362 3.9772 L308.7498 1.5909 L307.1589 1.5909 L305.568 4.7727 L303.1817 3.1818 L301.5907 3.1818 Z" fill-rule="evenodd" clip-rule="evenodd" fill="white" stroke="none"/>
  <path d="M353.2953 3.1818 L354.0908 7.1591 L352.4998 8.75 L350.1135 7.9546 L349.3181 9.5454 L351.7045 11.9318 L351.7045 13.5227 L350.909 14.3182 L349.3181 13.5227 L347.7271 14.3182 L350.909 17.5 L350.1135 19.0909 L348.5226 19.0909 L348.5226 21.4773 L350.909 21.4773 L352.4998 23.0682 L350.1135 23.8636 L350.909 28.6364 L354.8862 30.2273 L353.2953 32.6136 L357.2727 33.4091 L358.8635 31.8182 L362.8408 31.8182 L362.0453 26.25 L356.4772 20.6818 L353.2953 14.3182 L354.8862 9.5454 L359.6589 5.5682 L365.2271 5.5682 L370.7953 11.1364 L370.7953 14.3182 L365.2271 19.0909 L360.4544 18.2954 L358.068 15.9091 L358.068 11.9318 L360.4544 9.5454 L363.6362 9.5454 L366.0226 12.7273 L362.8408 15.1136 L362.0453 14.3182 L362.8408 11.9318 L361.2499 11.9318 L360.4544 12.7273 L360.4544 15.1136 L362.0453 16.7046 L364.4317 16.7046 L367.6135 14.3182 L367.6135 10.3409 L366.0226 8.75 L360.4544 7.9546 L356.4772 11.1364 L356.4772 15.9091 L357.2727 17.5 L365.2271 26.25 L367.6135 30.2273 L367.6135 32.6136 L373.9772 32.6136 L375.568 31.8182 L375.568 30.2273 L379.5454 23.8636 L384.3181 19.8864 L386.7045 15.9091 L386.7045 11.1364 L382.7271 7.9546 L378.7499 7.9546 L375.568 10.3409 L375.568 14.3182 L378.7499 16.7046 L381.1363 16.7046 L382.7271 15.1136 L381.9317 11.9318 L380.3409 11.9318 L381.1363 13.5227 L380.3409 15.1136 L377.159 11.9318 L379.5454 9.5454 L382.7271 9.5454 L385.1135 11.9318 L385.1135 15.9091 L381.1363 19.0909 L377.9544 19.0909 L374.7727 17.5 L372.3863 14.3182 L373.1817 9.5454 L377.9544 5.5682 L385.1135 6.3636 L388.2953 9.5454 L389.8862 14.3182 L385.909 21.4773 L381.1363 26.25 L379.5454 31.8182 L380.3409 32.6136 L385.909 32.6136 L386.7045 33.4091 L389.0908 32.6136 L388.2953 30.2273 L390.6817 28.6364 L389.0908 26.25 L390.6817 24.6591 L393.0681 25.4546 L393.0681 23.8636 L390.6817 23.0682 L393.8635 20.6818 L391.4772 18.2954 L391.4772 16.7046 L394.659 15.1136 L394.659 14.3182 L392.2727 15.1136 L390.6817 13.5227 L390.6817 11.9318 L392.2727 10.3409 L392.2727 7.9546 L390.6817 8.75 L389.0908 7.1591 L389.8862 3.1818 L388.2953 3.1818 L386.7045 4.7727 L384.3181 1.5909 L382.7271 1.5909 L381.1363 3.9772 L378.7499 1.5909 L375.568 2.3864 L374.7727 4.7727 L372.3863 3.9772 L368.409 4.7727 L367.6135 2.3864 L364.4317 1.5909 L362.8408 3.9772 L360.4544 1.5909 L358.8635 1.5909 L356.4772 4.7727 L354.8862 3.1818 L353.2953 3.1818 Z" fill-rule="evenodd" clip-rule="evenodd" fill="white" stroke="none"/>
  <path d="M411.3635 1.5909 L410.5682 1.5909 L410.5682 3.9772 L408.9772 5.5682 L408.1818 5.5682 L405.7953 3.1818 L404.2045 3.9772 L405 5.5682 L405 7.9546 L404.2045 8.75 L402.6136 7.9546 L401.0226 9.5454 L401.0226 10.3409 L403.409 12.7273 L403.409 13.5227 L402.6136 14.3182 L401.0226 13.5227 L399.4317 14.3182 L399.4317 15.1136 L402.6136 17.5 L402.6136 18.2954 L401.8181 19.0909 L400.2272 19.0909 L399.4317 20.6818 L400.2272 21.4773 L402.6136 21.4773 L404.2045 23.0682 L404.2045 24.6591 L405 25.4546 L405 26.25 L403.409 27.0454 L402.6136 28.6364 L403.409 29.4318 L405.7953 29.4318 L406.5908 30.2273 L406.5908 31.0228 L405 31.8182 L405 32.6136 L414.5454 32.6136 L414.5454 27.8409 L413.7499 26.25 L409.7727 22.2727 L408.9772 22.2727 L407.3863 20.6818 L406.5908 19.0909 L406.5908 17.5 L405.7953 16.7046 L405.7953 15.1136 L405 14.3182 L405.7953 10.3409 L408.9772 7.1591 L408.9772 6.3636 L411.3635 4.7727 L412.9545 4.7727 L411.3635 1.5909 Z" fill-rule="evenodd" clip-rule="evenodd" fill="white" stroke="none"/>
  <path d="M428.8636 1.5909 L427.2727 2.3864 L427.2727 3.9772 L428.0682 5.5682 L434.4318 5.5682 L435.2272 6.3636 L436.8181 6.3636 L440 9.5454 L440.7955 11.1364 L440.7955 15.9091 L440 16.7046 L440 18.2954 L432.8409 26.25 L431.2499 31.8182 L432.0454 32.6136 L440.7955 32.6136 L440 30.2273 L440.7955 29.4318 L443.1818 29.4318 L443.9772 28.6364 L443.9772 26.25 L444.7727 25.4546 L444.7727 23.8636 L443.9772 23.8636 L443.1818 22.2727 L443.9772 21.4773 L446.3637 21.4773 L446.3637 19.0909 L444.7727 19.0909 L443.9772 18.2954 L443.9772 17.5 L446.3637 15.9091 L446.3637 13.5227 L444.7727 14.3182 L443.1818 13.5227 L443.1818 11.9318 L444.7727 11.1364 L444.7727 7.9546 L443.1818 7.9546 L442.3863 8.75 L440.7955 7.1591 L441.5908 5.5682 L441.5908 3.1818 L440 3.1818 L438.4091 4.7727 L437.6136 4.7727 L436.0227 1.5909 L434.4318 1.5909 L432.8409 3.9772 L432.0454 3.9772 L430.4545 1.5909 L428.8636 1.5909 Z" fill-rule="evenodd" clip-rule="evenodd" fill="white" stroke="none"/>
  <path d="M452.7273 8.75 L452.7273 10.3409 L455.1136 11.9318 L455.1136 13.5227 L454.3181 14.3182 L451.9318 13.5227 L451.9318 15.9091 L454.3181 17.5 L451.9318 19.0909 L451.9318 21.4773 L454.3181 21.4773 L455.1136 22.2727 L453.5227 23.8636 L453.5227 25.4546 L454.3181 26.25 L454.3181 28.6364 L458.2955 30.2273 L456.7045 32.6136 L466.25 32.6136 L465.4545 26.25 L459.8863 20.6818 L456.7045 14.3182 L457.5 10.3409 L463.0682 5.5682 L468.6364 5.5682 L470.2273 6.3636 L473.4091 9.5454 L474.2045 11.9318 L473.4091 15.1136 L470.2273 18.2954 L465.4545 19.0909 L462.2727 16.7046 L461.4772 11.9318 L463.8637 9.5454 L467.0454 9.5454 L468.6364 11.1364 L468.6364 13.5227 L467.0454 15.1136 L465.4545 15.1136 L464.6591 14.3182 L466.25 11.9318 L464.6591 11.9318 L463.8637 12.7273 L463.8637 15.1136 L465.4545 16.7046 L467.8409 16.7046 L471.0227 14.3182 L471.0227 10.3409 L467.8409 7.9546 L463.8637 7.9546 L459.8863 11.1364 L459.8863 15.9091 L461.4772 19.0909 L467.8409 25.4546 L470.2273 32.6136 L479.7727 32.6136 L479.7727 29.4318 L481.3636 26.25 L489.3182 17.5 L490.1136 11.9318 L486.1364 7.9546 L482.1591 7.9546 L478.1818 11.1364 L478.1818 13.5227 L481.3636 16.7046 L484.5454 16.7046 L486.1364 14.3182 L485.3409 11.9318 L483.75 11.9318 L485.3409 14.3182 L484.5454 15.1136 L482.9545 15.1136 L480.5682 11.9318 L482.9545 9.5454 L486.1364 9.5454 L488.5227 12.7273 L488.5227 15.1136 L486.1364 18.2954 L481.3636 19.0909 L476.5908 15.9091 L475.7955 11.1364 L481.3636 5.5682 L488.5227 6.3636 L492.5 11.1364 L492.5 15.9091 L490.1136 20.6818 L484.5454 26.25 L482.9545 31.8182 L483.75 32.6136 L492.5 32.6136 L491.7046 30.2273 L495.6818 28.6364 L496.4773 23.8636 L494.091 23.0682 L498.0682 20.6818 L498.0682 19.0909 L495.6818 18.2954 L498.0682 15.9091 L498.0682 13.5227 L496.4773 14.3182 L494.8863 13.5227 L494.8863 11.9318 L496.4773 11.1364 L496.4773 7.9546 L494.091 8.75 L492.5 7.1591 L493.2955 3.1818 L491.7046 3.1818 L489.3182 4.7727 L487.7273 1.5909 L486.1364 1.5909 L483.75 3.9772 L482.1591 1.5909 L480.5682 1.5909 L477.3863 4.7727 L475 3.1818 L473.4091 4.7727 L471.8181 4.7727 L471.0227 2.3864 L467.8409 1.5909 L465.4545 3.9772 L463.8637 1.5909 L461.4772 1.5909 L461.4772 3.9772 L460.6818 4.7727 L458.2955 3.1818 L456.7045 3.1818 L456.7045 7.9546 L455.9091 8.75 L455.1136 7.9546 L452.7273 8.75 Z" fill-rule="evenodd" clip-rule="evenodd" fill="white" stroke="none"/>
  <path d="M507.6136 3.9772 L509.2046 7.1591 L507.6136 8.75 L506.8181 7.9546 L504.4318 8.75 L504.4318 10.3409 L506.8181 13.5227 L506.0228 14.3182 L503.6364 13.5227 L502.8409 15.1136 L506.0228 17.5 L503.6364 19.0909 L503.6364 21.4773 L506.0228 21.4773 L506.8181 22.2727 L505.2273 23.8636 L505.2273 25.4546 L506.0228 26.25 L506.0228 28.6364 L510 30.2273 L508.4091 32.6136 L517.9546 32.6136 L517.9546 27.8409 L510.7955 19.8864 L508.4091 15.1136 L509.2046 10.3409 L514.7727 5.5682 L520.3409 5.5682 L525.9091 11.1364 L525.9091 14.3182 L520.3409 19.0909 L515.5682 18.2954 L513.1818 15.9091 L513.1818 11.9318 L515.5682 9.5454 L518.75 9.5454 L520.3409 11.1364 L520.3409 13.5227 L518.75 15.1136 L517.1591 15.1136 L516.3637 14.3182 L517.9546 11.9318 L516.3637 11.9318 L515.5682 12.7273 L515.5682 15.1136 L517.1591 16.7046 L519.5455 16.7046 L522.7273 14.3182 L522.7273 10.3409 L521.1364 8.75 L515.5682 7.9546 L511.591 11.1364 L511.591 16.7046 L521.1364 27.8409 L521.1364 31.8182 L521.9319 32.6136 L531.4773 32.6136 L531.4773 29.4318 L533.0682 26.25 L541.0228 17.5 L541.8182 11.9318 L537.8409 7.9546 L533.0682 7.9546 L530.6818 9.5454 L529.8865 11.9318 L530.6818 14.3182 L533.0682 16.7046 L536.25 16.7046 L537.8409 14.3182 L537.0455 11.9318 L535.4546 11.9318 L536.25 13.5227 L535.4546 15.1136 L532.2728 11.9318 L534.6592 9.5454 L537.8409 9.5454 L539.4319 11.1364 L540.2273 15.1136 L536.25 19.0909 L533.0682 19.0909 L528.2955 15.9091 L527.5001 10.3409 L533.0682 5.5682 L537.8409 5.5682 L541.0228 7.1591 L544.2046 11.1364 L544.2046 15.9091 L541.0228 21.4773 L536.25 26.25 L534.6592 31.8182 L535.4546 32.6136 L544.2046 32.6136 L543.4091 30.2273 L544.2046 29.4318 L546.591 29.4318 L548.1818 24.6591 L545.7955 23.0682 L549.7727 20.6818 L549.7727 19.0909 L548.1818 19.0909 L546.591 17.5 L549.7727 15.9091 L549.7727 13.5227 L547.3864 14.3182 L546.591 13.5227 L546.591 11.9318 L548.1818 10.3409 L548.1818 7.9546 L545.7955 8.75 L544.2046 7.1591 L545.0001 3.1818 L543.4091 3.1818 L541.0228 4.7727 L539.4319 1.5909 L537.8409 1.5909 L535.4546 3.9772 L532.2728 1.5909 L530.6818 2.3864 L529.8865 4.7727 L528.2955 4.7727 L526.7046 3.1818 L525.1137 4.7727 L523.5228 4.7727 L522.7273 2.3864 L519.5455 1.5909 L517.1591 3.9772 L515.5682 1.5909 L513.1818 1.5909 L513.1818 3.1818 L511.591 4.7727 L510 3.1818 L507.6136 3.9772 Z" fill-rule="evenodd" clip-rule="evenodd" fill="white" stroke="none"/>
  <path d="M559.3183 3.9772 L560.1137 7.9546 L559.3183 8.75 L558.5228 7.9546 L556.1364 8.75 L556.1364 10.3409 L558.5228 12.7273 L556.9319 14.3182 L556.1364 13.5227 L554.5455 14.3182 L557.7274 18.2954 L555.3409 19.0909 L554.5455 20.6818 L558.5228 22.2727 L556.9319 23.8636 L556.9319 25.4546 L557.7274 26.25 L557.7274 28.6364 L561.7046 30.2273 L560.1137 32.6136 L569.6592 32.6136 L569.6592 27.8409 L562.5001 19.8864 L560.1137 15.1136 L560.9091 10.3409 L566.4773 5.5682 L571.2501 5.5682 L574.4319 7.1591 L576.0228 8.75 L577.6137 12.7273 L576.8183 15.1136 L573.6365 18.2954 L568.8637 19.0909 L564.8865 15.9091 L564.8865 11.9318 L567.2728 9.5454 L570.4546 9.5454 L572.0455 11.1364 L572.0455 13.5227 L570.4546 15.1136 L568.8637 15.1136 L568.0683 14.3182 L569.6592 11.9318 L568.0683 11.9318 L567.2728 12.7273 L567.2728 15.1136 L568.8637 16.7046 L571.2501 16.7046 L574.4319 14.3182 L574.4319 10.3409 L572.8409 8.75 L567.2728 7.9546 L562.5001 12.7273 L564.8865 19.0909 L571.2501 25.4546 L573.6365 32.6136 L583.1819 32.6136 L583.9773 27.0454 L591.9319 18.2954 L593.5228 15.1136 L593.5228 11.9318 L591.9319 9.5454 L589.5455 7.9546 L584.7728 7.9546 L581.591 11.1364 L581.591 13.5227 L583.1819 15.9091 L587.9547 16.7046 L589.5455 14.3182 L587.9547 11.9318 L587.1592 11.9318 L587.9547 13.5227 L587.1592 15.1136 L584.7728 14.3182 L583.9773 11.9318 L585.5683 9.5454 L589.5455 9.5454 L591.9319 12.7273 L591.9319 15.1136 L587.9547 19.0909 L584.7728 19.0909 L580.0001 15.9091 L579.2046 10.3409 L584.7728 5.5682 L589.5455 5.5682 L592.7274 7.1591 L595.9091 11.1364 L595.1138 17.5 L587.9547 26.25 L586.3637 29.4318 L586.3637 31.8182 L587.1592 32.6136 L595.9091 32.6136 L595.1138 30.2273 L595.9091 29.4318 L598.2956 29.4318 L598.2956 27.0454 L599.8865 24.6591 L597.5001 23.0682 L599.091 21.4773 L601.4773 21.4773 L601.4773 19.0909 L599.091 18.2954 L601.4773 15.9091 L601.4773 13.5227 L599.091 14.3182 L598.2956 13.5227 L599.8865 8.75 L599.091 7.9546 L597.5001 8.75 L595.9091 7.1591 L596.7046 3.1818 L595.1138 3.1818 L592.7274 4.7727 L591.1364 1.5909 L589.5455 1.5909 L587.1592 3.9772 L583.9773 1.5909 L580.7956 4.7727 L578.4091 3.1818 L575.2274 4.7727 L572.0455 1.5909 L568.8637 3.9772 L567.2728 1.5909 L565.6819 1.5909 L563.2955 4.7727 L561.7046 3.1818 L559.3183 3.9772 Z" fill-rule="evenodd" clip-rule="evenodd" fill="white" stroke="none"/>
  <path d="M611.0229 3.9772 L611.8183 7.9546 L611.0229 8.75 L610.2274 7.9546 L607.841 8.75 L607.841 10.3409 L610.2274 12.7273 L608.6364 14.3182 L607.841 13.5227 L606.2501 14.3182 L609.432 17.5 L606.2501 20.6818 L610.2274 22.2727 L608.6364 23.8636 L608.6364 25.4546 L609.432 26.25 L609.432 28.6364 L613.4092 31.0228 L611.8183 32.6136 L621.3638 32.6136 L621.3638 28.6364 L619.7728 25.4546 L614.2046 19.8864 L611.8183 14.3182 L611.8183 11.9318 L613.4092 8.75 L618.182 5.5682 L622.9547 5.5682 L626.1365 7.1591 L628.5229 10.3409 L628.5229 15.1136 L625.341 18.2954 L622.9547 19.0909 L618.9774 18.2954 L616.5911 15.9091 L615.7956 12.7273 L618.9774 9.5454 L622.1592 9.5454 L623.7501 11.1364 L623.7501 13.5227 L622.1592 15.1136 L620.5683 15.1136 L619.7728 13.5227 L621.3638 11.9318 L619.7728 11.9318 L618.9774 12.7273 L618.9774 15.1136 L620.5683 16.7046 L622.9547 16.7046 L626.1365 13.5227 L626.1365 11.1364 L624.5456 8.75 L618.9774 7.9546 L614.2046 12.7273 L615.0001 16.7046 L616.5911 19.0909 L622.9547 25.4546 L625.341 32.6136 L634.8865 32.6136 L635.682 27.0454 L643.6365 18.2954 L645.2274 15.1136 L645.2274 11.9318 L643.6365 9.5454 L641.2502 7.9546 L636.4774 7.9546 L633.2956 11.1364 L634.0911 15.1136 L636.4774 16.7046 L640.4547 15.9091 L641.2502 14.3182 L640.4547 11.9318 L638.8637 11.9318 L639.6593 13.5227 L638.8637 15.1136 L637.2728 15.1136 L635.682 12.7273 L638.0683 9.5454 L641.2502 9.5454 L642.8411 11.1364 L643.6365 14.3182 L639.6593 19.0909 L636.4774 19.0909 L633.2956 17.5 L630.9092 15.1136 L630.9092 10.3409 L632.5001 7.9546 L636.4774 5.5682 L641.2502 5.5682 L644.4319 7.1591 L647.6138 11.1364 L647.6138 15.1136 L646.0229 19.0909 L638.8637 27.0454 L638.0683 32.6136 L647.6138 32.6136 L646.8184 30.2273 L649.2047 29.4318 L651.5911 25.4546 L649.2047 22.2727 L653.182 20.6818 L653.182 19.0909 L650.7956 18.2954 L653.182 15.9091 L653.182 14.3182 L652.3865 13.5227 L650.7956 14.3182 L649.2047 12.7273 L651.5911 10.3409 L651.5911 7.9546 L649.2047 8.75 L647.6138 7.1591 L648.4093 5.5682 L647.6138 3.1818 L644.4319 4.7727 L642.8411 1.5909 L640.4547 1.5909 L638.8637 3.9772 L635.682 1.5909 L632.5001 4.7727 L630.1138 3.1818 L626.9319 4.7727 L623.7501 1.5909 L620.5683 3.9772 L618.9774 1.5909 L616.5911 1.5909 L616.5911 3.1818 L615.0001 4.7727 L613.4092 3.1818 L611.0229 3.9772 Z" fill-rule="evenodd" clip-rule="evenodd" fill="white" stroke="none"/>
  <path d="M416.9318 2.3864 L416.1363 3.1818 L416.1363 4.7727 L421.7045 9.5454 L422.5 13.5227 L421.7045 15.1136 L418.5226 18.2954 L416.9318 18.2954 L416.1363 19.0909 L410.5682 18.2954 L411.3635 20.6818 L416.9318 26.25 L417.7272 27.8409 L417.7272 30.2273 L418.5226 31.0228 L418.5226 32.6136 L428.0682 32.6136 L428.0682 30.2273 L428.8636 29.4318 L428.8636 27.8409 L429.659 26.25 L431.2499 24.6591 L431.2499 23.8636 L432.8409 23.0682 L432.8409 22.2727 L437.6136 17.5 L438.4091 15.9091 L438.4091 11.9318 L437.6136 10.3409 L434.4318 7.9546 L429.659 7.9546 L428.0682 8.75 L426.4772 12.7273 L427.2727 14.3182 L429.659 16.7046 L432.8409 16.7046 L434.4318 15.1136 L434.4318 13.5227 L433.6363 11.9318 L432.0454 11.9318 L432.8409 13.5227 L432.0454 15.1136 L431.2499 15.1136 L428.8636 12.7273 L428.8636 11.9318 L431.2499 9.5454 L434.4318 9.5454 L436.8181 11.9318 L436.8181 15.1136 L436.0227 16.7046 L432.8409 19.0909 L429.659 19.0909 L426.4772 17.5 L424.0908 14.3182 L424.0908 11.1364 L426.4772 7.9546 L426.4772 6.3636 L425.6817 6.3636 L424.0908 4.7727 L422.5 4.7727 L421.7045 5.5682 L419.3181 5.5682 L418.5226 4.7727 L418.5226 3.1818 L416.9318 2.3864 Z" fill-rule="evenodd" clip-rule="evenodd" fill="white" stroke="none"/>
  <path d="M417.7272 8.75 L416.1363 8.75 L416.1363 9.5454 L417.7272 11.1364 L417.7272 13.5227 L416.1363 15.1136 L413.7499 15.1136 L412.9545 14.3182 L413.7499 13.5227 L413.7499 11.9318 L412.159 12.7273 L412.159 15.1136 L413.7499 16.7046 L416.1363 16.7046 L417.7272 15.1136 L418.5226 15.1136 L418.5226 13.5227 L419.3181 12.7273 L419.3181 10.3409 L417.7272 8.75 Z" fill-rule="evenodd" clip-rule="evenodd" fill="white" stroke="none"/>
  <path d="M411.3635 9.5454 L409.7727 9.5454 L408.1818 11.1364 L408.1818 15.1136 L408.9772 15.9091 L409.7727 15.9091 L409.7727 11.9318 L411.3635 10.3409 L411.3635 9.5454 Z" fill-rule="evenodd" clip-rule="evenodd" fill="white" stroke="none"/>
</svg>
