<?xml version="1.0" encoding="UTF-8"?>
<svg width="950" height="35" viewBox="0 0 950 35" fill="none" xmlns="http://www.w3.org/2000/svg">
  <path d="M302 17.5 L307 10.5 L316 17.5 L307 24.5 L314 5.5 L323 17.5 L314 29.5 L321 1.5 L330 17.5 L321 33.5 L328 -1.5 L337 17.5 L328 36.5 L335 -2.5 L344 17.5 L335 37.5 L352 17.5 L335 37.5 L326 17.5 L335 -2.5 L328 36.5 L319 17.5 L328 -1.5 L321 33.5 L312 17.5 L321 1.5 L314 29.5 L305 17.5 L314 5.5 L307 24.5 L298 17.5 L307 10.5 Z" fill-rule="evenodd" clip-rule="evenodd" fill="white" stroke="none"/>
  <path d="M648 17.5 L643 10.5 L634 17.5 L643 24.5 L636 5.5 L627 17.5 L636 29.5 L629 1.5 L620 17.5 L629 33.5 L622 -1.5 L613 17.5 L622 36.5 L615 -2.5 L606 17.5 L615 37.5 L598 17.5 L615 37.5 L624 17.5 L615 -2.5 L622 36.5 L631 17.5 L622 -1.5 L629 33.5 L638 17.5 L629 1.5 L636 29.5 L645 17.5 L636 5.5 L643 24.5 L652 17.5 L643 10.5 Z" fill-rule="evenodd" clip-rule="evenodd" fill="white" stroke="none"/>
  <path d="M9.5 17.5 L352 17.5" fill="none" stroke="white" stroke-width="1.2" stroke-linecap="round" stroke-linejoin="round"/>
  <path d="M598 17.5 L940.5 17.5" fill="none" stroke="white" stroke-width="1.2" stroke-linecap="round" stroke-linejoin="round"/>
</svg>
