<?xml version="1.0" encoding="UTF-8"?>
<svg width="950" height="35" viewBox="0 0 950 35" fill="none" xmlns="http://www.w3.org/2000/svg">
  <path d="M625.1533 1.5909 L625.5108 2.3059 L703.805 2.3059 L703.805 1.5909 L625.1533 1.5909 Z" fill-rule="evenodd" clip-rule="evenodd" fill="white" stroke="none"/>
  <path d="M245.8375 3.7359 L245.8375 5.166 L614.7855 4.451 L614.7855 3.3784 L245.8375 3.7359 Z" fill-rule="evenodd" clip-rule="evenodd" fill="white" stroke="none"/>
  <path d="M622.6507 4.0935 L621.2207 3.3784 L619.7907 3.3784 L619.0757 4.0935 L616.9306 4.0935 L616.2156 4.8085 L616.2156 5.166 L623.0082 5.166 L622.6507 4.0935 Z" fill-rule="evenodd" clip-rule="evenodd" fill="white" stroke="none"/>
  <path d="M628.7284 3.3784 L628.7284 4.0935 L629.4434 4.451 L630.8734 4.451 L631.5884 5.166 L703.805 5.166 L704.1625 4.8085 L704.1625 4.0935 L703.805 3.3784 L628.7284 3.3784 Z" fill-rule="evenodd" clip-rule="evenodd" fill="white" stroke="none"/>
  <path d="M624.7958 4.451 L625.1533 5.166 L628.3708 5.166 L628.3708 4.8085 L627.6559 4.8085 L627.2983 4.0935 L625.1533 4.0935 L624.7958 4.451 Z" fill-rule="evenodd" clip-rule="evenodd" fill="white" stroke="none"/>
  <path d="M274.0806 6.596 L273.3656 6.596 L271.9356 7.311 L271.2205 8.026 L270.148 8.3835 L269.433 9.0986 L267.6455 9.8136 L267.288 10.1711 L267.288 10.8861 L267.6455 10.8861 L268.3605 11.6011 L269.433 11.9586 L270.148 12.6736 L271.2205 13.0311 L271.9356 13.7461 L273.3656 14.4612 L275.1531 13.7461 L275.8681 13.0311 L276.9407 12.6736 L277.6557 11.9586 L279.8007 10.8861 L279.8007 10.1711 L279.4432 9.8136 L277.6557 9.0986 L276.9407 8.3835 L274.7956 7.311 L274.0806 6.596 Z" fill-rule="evenodd" clip-rule="evenodd" fill="white" stroke="none"/>
  <path d="M303.3962 10.1711 L303.3962 10.8861 L303.7537 11.2436 L304.8263 11.6011 L305.5413 12.3161 L306.6138 12.6736 L307.3288 13.3887 L308.4013 13.7461 L309.1164 14.4612 L309.8314 14.4612 L310.5464 14.1037 L311.2614 13.3887 L313.0489 12.6736 L313.764 11.9586 L315.909 10.8861 L315.909 10.1711 L314.8365 9.8136 L313.0489 8.3835 L311.2614 7.6685 L309.8314 6.596 L309.1164 6.596 L308.4013 7.311 L307.3288 7.6685 L306.6138 8.3835 L304.8263 9.0986 L303.3962 10.1711 Z" fill-rule="evenodd" clip-rule="evenodd" fill="white" stroke="none"/>
  <path d="M358.81 10.1711 L358.81 10.8861 L362.385 12.6736 L363.1 13.3887 L363.4576 13.3887 L364.8876 14.4612 L365.6026 14.4612 L366.3176 13.7461 L367.3901 13.3887 L368.1052 12.6736 L371.6802 10.8861 L371.6802 10.1711 L370.6077 9.8136 L369.8927 9.0986 L368.8202 8.7411 L368.1052 8.026 L367.0326 7.6685 L365.6026 6.596 L364.8876 6.596 L364.1726 6.9535 L363.4576 7.6685 L362.385 8.026 L361.67 8.7411 L358.81 10.1711 Z" fill-rule="evenodd" clip-rule="evenodd" fill="white" stroke="none"/>
  <path d="M394.9182 10.1711 L394.9182 10.8861 L395.9908 11.2436 L396.7058 11.9586 L397.7783 12.3161 L398.4933 13.0311 L399.5659 13.3887 L400.9959 14.4612 L401.7109 14.4612 L402.4259 13.7461 L403.4984 13.3887 L404.2134 12.6736 L405.286 12.3161 L406.001 11.6011 L407.431 10.8861 L407.431 10.1711 L407.0735 9.8136 L406.001 9.4561 L405.286 8.7411 L404.2134 8.3835 L403.4984 7.6685 L402.4259 7.311 L401.7109 6.596 L400.9959 6.596 L400.2809 6.9535 L399.5659 7.6685 L397.7783 8.3835 L395.9908 9.8136 L394.9182 10.1711 Z" fill-rule="evenodd" clip-rule="evenodd" fill="white" stroke="none"/>
  <path d="M450.6895 10.1711 L450.6895 10.8861 L451.0469 10.8861 L451.762 11.6011 L452.8345 11.9586 L453.5495 12.6736 L454.622 13.0311 L455.3371 13.7461 L456.7671 14.4612 L457.4821 14.4612 L459.2696 13.0311 L460.3422 12.6736 L461.0572 11.9586 L463.2022 10.8861 L463.2022 10.1711 L462.8447 9.8136 L461.0572 9.0986 L460.3422 8.3835 L459.2696 8.026 L458.5547 7.311 L457.1246 6.596 L456.4096 6.596 L454.622 8.026 L452.8345 8.7411 L452.1195 9.4561 L450.6895 10.1711 Z" fill-rule="evenodd" clip-rule="evenodd" fill="white" stroke="none"/>
  <path d="M486.4402 10.1711 L486.4402 10.5286 L487.1553 11.2436 L488.2278 11.6011 L488.9428 12.3161 L490.0153 12.6736 L490.7304 13.3887 L491.8029 13.7461 L492.5179 14.4612 L493.2329 14.4612 L493.9479 14.1037 L494.6629 13.3887 L495.7355 13.0311 L496.4504 12.3161 L499.3105 10.8861 L499.3105 10.1711 L498.238 9.8136 L497.523 9.0986 L496.4504 8.7411 L495.7355 8.026 L494.6629 7.6685 L493.2329 6.596 L492.5179 6.596 L491.8029 7.311 L490.7304 7.6685 L490.0153 8.3835 L488.9428 8.7411 L488.2278 9.4561 L486.4402 10.1711 Z" fill-rule="evenodd" clip-rule="evenodd" fill="white" stroke="none"/>
  <path d="M542.2114 10.1711 L542.2114 10.8861 L543.999 11.6011 L544.714 12.3161 L545.7866 12.6736 L546.5016 13.3887 L547.5741 13.7461 L548.2891 14.4612 L549.0041 14.4612 L549.7191 13.7461 L550.7916 13.3887 L551.5067 12.6736 L552.5792 12.3161 L553.2942 11.6011 L554.3667 11.2436 L555.0818 10.5286 L555.0818 10.1711 L554.0092 9.8136 L553.2942 9.0986 L552.2217 8.7411 L551.5067 8.026 L550.4341 7.6685 L549.0041 6.596 L548.2891 6.596 L547.5741 6.9535 L546.8591 7.6685 L545.7866 8.026 L545.0715 8.7411 L542.2114 10.1711 Z" fill-rule="evenodd" clip-rule="evenodd" fill="white" stroke="none"/>
  <path d="M578.3198 10.1711 L578.3198 10.8861 L580.4648 11.9586 L581.1798 12.6736 L582.9674 13.3887 L584.3974 14.4612 L585.1124 14.4612 L585.8274 13.7461 L586.9 13.3887 L587.615 12.6736 L588.6875 12.3161 L589.4025 11.6011 L590.8325 10.8861 L590.8325 10.1711 L590.4751 9.8136 L589.4025 9.4561 L588.6875 8.7411 L587.615 8.3835 L586.9 7.6685 L585.8274 7.311 L585.1124 6.596 L584.3974 6.596 L583.6824 6.9535 L582.9674 7.6685 L581.8948 8.026 L581.1798 8.7411 L578.3198 10.1711 Z" fill-rule="evenodd" clip-rule="evenodd" fill="white" stroke="none"/>
  <path d="M634.091 10.1711 L634.091 10.8861 L634.4485 11.2436 L636.236 11.9586 L636.951 12.6736 L638.0236 13.0311 L638.7386 13.7461 L640.1686 14.4612 L641.9562 13.7461 L642.6712 13.0311 L643.7437 12.6736 L644.4587 11.9586 L646.6038 10.8861 L646.6038 10.1711 L646.2462 9.8136 L644.4587 9.0986 L642.6712 7.6685 L640.5261 6.596 L639.8111 6.596 L639.0961 7.311 L638.0236 7.6685 L637.3086 8.3835 L636.236 8.7411 L635.521 9.4561 L634.091 10.1711 Z" fill-rule="evenodd" clip-rule="evenodd" fill="white" stroke="none"/>
  <path d="M670.1993 10.1711 L670.1993 10.8861 L670.5568 11.2436 L671.6293 11.6011 L672.3443 12.3161 L673.4168 12.6736 L674.1319 13.3887 L675.2044 13.7461 L675.9194 14.4612 L676.6344 14.4612 L677.3494 14.1037 L678.0644 13.3887 L679.1369 13.0311 L679.852 12.3161 L682.712 10.8861 L682.712 10.1711 L681.6395 9.8136 L679.852 8.3835 L678.0644 7.6685 L676.6344 6.596 L675.9194 6.596 L675.2044 7.311 L674.1319 7.6685 L673.4168 8.3835 L672.3443 8.7411 L671.6293 9.4561 L670.1993 10.1711 Z" fill-rule="evenodd" clip-rule="evenodd" fill="white" stroke="none"/>
  <path d="M245.8375 7.6685 L245.8375 26.9739 L246.195 27.3315 L247.2675 27.3315 L247.625 26.9739 L247.625 26.2589 L247.2675 25.9014 L247.2675 24.1139 L246.91 23.7564 L246.91 21.2538 L246.5525 20.8963 L246.5525 18.7513 L246.195 18.3938 L246.195 16.6062 L246.5525 16.2487 L246.5525 14.1037 L246.91 13.7461 L246.91 11.2436 L247.2675 10.8861 L247.2675 8.7411 L247.625 8.3835 L247.625 7.6685 L245.8375 7.6685 Z" fill-rule="evenodd" clip-rule="evenodd" fill="white" stroke="none"/>
  <path d="M250.1276 7.6685 L249.7701 8.026 L249.7701 25.1864 L250.1276 25.5439 L249.7701 25.9014 L249.7701 26.9739 L250.1276 27.3315 L253.3451 27.3315 L253.7027 26.9739 L253.7027 26.2589 L253.3451 25.9014 L253.3451 23.3989 L252.9876 23.0414 L252.9876 20.8963 L252.6301 20.5388 L252.6301 18.7513 L252.2726 18.3938 L252.2726 16.6062 L252.6301 16.2487 L252.6301 14.4612 L252.9876 14.1037 L252.9876 11.9586 L253.3451 11.6011 L253.3451 9.0986 L253.7027 8.7411 L253.7027 7.6685 L250.1276 7.6685 Z" fill-rule="evenodd" clip-rule="evenodd" fill="white" stroke="none"/>
  <path d="M291.956 7.6685 L291.241 7.6685 L290.526 8.026 L289.8109 8.7411 L288.7384 9.0986 L288.0234 9.8136 L286.9509 10.1711 L286.2359 10.8861 L285.1633 11.2436 L284.4483 11.9586 L283.3758 12.3161 L282.6608 13.0311 L281.5883 13.3887 L280.8732 14.1037 L279.8007 14.4612 L279.0857 15.1762 L278.0132 15.5337 L277.2982 16.2487 L275.1531 17.3212 L275.1531 17.6788 L275.5106 17.6788 L276.2256 18.3938 L278.0132 19.1088 L278.7282 19.8238 L279.8007 20.1813 L280.5157 20.8963 L281.5883 21.2538 L282.3033 21.9688 L283.3758 22.3263 L284.0908 23.0414 L285.1633 23.3989 L285.8784 24.1139 L286.9509 24.4714 L287.6659 25.1864 L288.7384 25.5439 L289.4534 26.2589 L290.526 26.6164 L291.241 27.3315 L293.0285 26.6164 L293.7435 25.9014 L294.8161 25.5439 L295.5311 24.8289 L297.3186 24.1139 L299.1061 22.6839 L300.8937 21.9688 L301.6087 21.2538 L302.6812 20.8963 L303.3962 20.1813 L304.4688 19.8238 L305.1838 19.1088 L306.2563 18.7513 L307.6863 17.6788 L307.3288 16.9637 L306.9713 16.9637 L305.1838 15.5337 L301.6087 13.7461 L299.8212 12.3161 L298.0336 11.6011 L297.3186 10.8861 L296.2461 10.5286 L295.5311 9.8136 L294.4585 9.4561 L293.7435 8.7411 L292.671 8.3835 L291.956 7.6685 Z" fill-rule="evenodd" clip-rule="evenodd" fill="white" stroke="none"/>
  <path d="M329.4943 7.6685 L329.4943 9.4561 L329.8518 9.8136 L329.8518 11.9586 L330.2093 12.3161 L330.2093 14.4612 L330.5668 14.8187 L330.5668 16.9637 L330.9243 17.3212 L330.5668 18.0363 L330.5668 20.1813 L330.2093 20.5388 L330.2093 22.3263 L329.8518 22.6839 L329.8518 25.1864 L329.4943 25.5439 L329.4943 27.3315 L333.0694 27.3315 L333.0694 7.6685 L329.4943 7.6685 Z" fill-rule="evenodd" clip-rule="evenodd" fill="white" stroke="none"/>
  <path d="M335.572 7.6685 L335.572 9.0986 L335.9294 9.4561 L335.9294 11.6011 L336.287 11.9586 L336.287 14.4612 L336.6445 14.8187 L336.6445 16.6062 L337.002 16.9637 L337.002 18.0363 L336.6445 18.3938 L336.6445 20.1813 L336.287 20.5388 L336.287 23.0414 L335.9294 23.3989 L335.9294 25.5439 L335.572 25.9014 L335.572 27.3315 L339.147 27.3315 L339.147 25.1864 L338.7895 24.8289 L338.7895 22.6839 L338.432 22.3263 L338.432 20.1813 L338.0745 19.8238 L338.0745 15.1762 L338.432 14.8187 L338.432 12.6736 L338.7895 12.3161 L338.7895 10.1711 L339.147 9.8136 L339.147 7.6685 L335.572 7.6685 Z" fill-rule="evenodd" clip-rule="evenodd" fill="white" stroke="none"/>
  <path d="M341.6496 7.6685 L341.6496 27.3315 L345.2247 27.3315 L345.2247 24.8289 L344.8672 24.4714 L344.8672 22.6839 L344.5096 22.3263 L344.5096 19.4663 L344.1521 19.1088 L344.1521 15.5337 L344.5096 15.1762 L344.5096 12.6736 L344.8672 12.3161 L344.8672 10.1711 L345.2247 9.8136 L345.2247 7.6685 L341.6496 7.6685 Z" fill-rule="evenodd" clip-rule="evenodd" fill="white" stroke="none"/>
  <path d="M383.1205 7.6685 L381.6904 8.3835 L380.9754 9.0986 L379.1879 9.8136 L378.4729 10.5286 L377.4004 10.8861 L376.6853 11.6011 L375.6128 11.9586 L374.8978 12.6736 L373.8253 13.0311 L373.1103 13.7461 L372.0377 14.1037 L371.3227 14.8187 L370.2502 15.1762 L369.5352 15.8912 L368.4627 16.2487 L367.7476 16.9637 L367.3901 16.9637 L367.0326 17.6788 L368.4627 18.3938 L369.1777 19.1088 L370.2502 19.4663 L370.9652 20.1813 L372.0377 20.5388 L372.7528 21.2538 L373.8253 21.6113 L374.5403 22.3263 L375.6128 22.6839 L376.3278 23.3989 L377.4004 23.7564 L378.1154 24.4714 L379.1879 24.8289 L379.9029 25.5439 L383.478 27.3315 L384.193 26.6164 L385.2655 26.2589 L385.9805 25.5439 L387.0531 25.1864 L387.7681 24.4714 L390.2706 23.3989 L390.9856 22.6839 L393.1307 21.6113 L393.8457 20.8963 L394.9182 20.5388 L395.6333 19.8238 L397.4208 19.1088 L398.1358 18.3938 L399.5659 17.6788 L399.5659 17.3212 L398.1358 16.6062 L397.4208 15.8912 L396.3483 15.5337 L395.6333 14.8187 L394.5607 14.4612 L393.8457 13.7461 L392.7732 13.3887 L392.0582 12.6736 L390.9856 12.3161 L390.2706 11.6011 L388.4831 10.8861 L386.6956 9.4561 L383.1205 7.6685 Z" fill-rule="evenodd" clip-rule="evenodd" fill="white" stroke="none"/>
  <path d="M421.0163 7.6685 L421.0163 8.3835 L421.3738 8.7411 L421.3738 10.5286 L421.7313 10.8861 L421.7313 13.0311 L422.0888 13.3887 L422.0888 15.8912 L422.4464 16.2487 L422.4464 18.3938 L422.0888 18.7513 L422.0888 21.6113 L421.7313 21.9688 L421.7313 24.1139 L421.3738 24.4714 L421.3738 26.2589 L421.0163 26.9739 L421.3738 27.3315 L424.5914 27.3315 L424.9489 26.9739 L424.9489 7.6685 L421.0163 7.6685 Z" fill-rule="evenodd" clip-rule="evenodd" fill="white" stroke="none"/>
  <path d="M427.4514 7.6685 L427.4514 10.5286 L427.809 10.8861 L427.809 12.6736 L428.1665 13.0311 L428.1665 15.5337 L428.524 15.8912 L428.524 19.1088 L428.1665 19.4663 L428.1665 21.6113 L427.809 21.9688 L427.809 24.1139 L427.4514 24.4714 L427.4514 27.3315 L430.669 27.3315 L431.0265 26.6164 L430.669 26.2589 L430.669 24.1139 L430.3115 23.7564 L430.3115 21.2538 L429.954 20.8963 L429.954 18.7513 L429.5965 18.3938 L429.5965 16.6062 L429.954 16.2487 L429.954 14.1037 L430.3115 13.7461 L430.3115 11.2436 L430.669 10.8861 L430.669 8.7411 L431.0265 8.3835 L431.0265 7.6685 L427.4514 7.6685 Z" fill-rule="evenodd" clip-rule="evenodd" fill="white" stroke="none"/>
  <path d="M433.5291 7.6685 L433.1716 8.026 L433.1716 26.9739 L433.5291 27.3315 L437.1042 27.3315 L437.1042 26.2589 L436.7467 25.9014 L436.7467 23.3989 L436.3891 23.0414 L436.3891 20.8963 L436.0316 20.5388 L436.0316 18.7513 L435.6741 18.3938 L435.6741 16.6062 L436.0316 16.2487 L436.0316 14.4612 L436.3891 14.1037 L436.3891 11.6011 L436.7467 11.2436 L436.7467 9.0986 L437.1042 8.7411 L437.1042 7.6685 L433.5291 7.6685 Z" fill-rule="evenodd" clip-rule="evenodd" fill="white" stroke="none"/>
  <path d="M474.6425 7.6685 L473.2124 8.7411 L472.14 9.0986 L470.3524 10.5286 L468.5649 11.2436 L467.8498 11.9586 L466.7773 12.3161 L466.0623 13.0311 L464.9898 13.3887 L464.2747 14.1037 L463.2022 14.4612 L462.4872 15.1762 L459.6272 16.6062 L458.9121 17.3212 L458.5547 17.3212 L458.5547 17.6788 L459.6272 18.0363 L460.3422 18.7513 L461.4147 19.1088 L462.1297 19.8238 L464.9898 21.2538 L465.7048 21.9688 L466.0623 21.9688 L467.8498 23.3989 L468.9224 23.7564 L469.6374 24.4714 L471.0674 25.1864 L472.8549 25.1864 L473.9275 25.9014 L473.9275 26.6164 L474.6425 27.3315 L475.3575 27.3315 L476.0725 26.6164 L477.145 26.2589 L477.86 25.5439 L479.6476 24.8289 L481.4351 23.3989 L482.5077 23.0414 L484.2952 21.6113 L486.0827 20.8963 L486.7977 20.1813 L489.6578 18.7513 L490.3728 18.0363 L490.7304 18.0363 L491.0878 17.3212 L490.3728 16.6062 L488.5853 15.8912 L487.8703 15.1762 L486.7977 14.8187 L486.0827 14.1037 L485.0102 13.7461 L484.2952 13.0311 L483.2226 12.6736 L482.5077 11.9586 L481.4351 11.6011 L480.7201 10.8861 L479.6476 10.5286 L478.9326 9.8136 L477.86 9.4561 L477.145 8.7411 L476.0725 8.3835 L475.3575 7.6685 L474.6425 7.6685 Z" fill-rule="evenodd" clip-rule="evenodd" fill="white" stroke="none"/>
  <path d="M512.8958 7.6685 L512.8958 9.4561 L513.2533 9.8136 L513.2533 12.3161 L513.6108 12.6736 L513.6108 14.8187 L513.9684 15.1762 L513.9684 19.8238 L513.6108 20.1813 L513.6108 22.3263 L513.2533 22.6839 L513.2533 25.1864 L512.8958 25.5439 L512.8958 27.3315 L516.4709 27.3315 L516.4709 7.6685 L512.8958 7.6685 Z" fill-rule="evenodd" clip-rule="evenodd" fill="white" stroke="none"/>
  <path d="M518.9734 7.6685 L518.9734 9.0986 L519.331 9.4561 L519.331 11.6011 L519.6885 11.9586 L519.6885 14.4612 L520.046 14.8187 L520.046 16.6062 L520.4035 16.9637 L520.4035 18.0363 L520.046 18.3938 L520.046 20.1813 L519.6885 20.5388 L519.6885 23.0414 L519.331 23.3989 L519.331 25.5439 L518.9734 25.9014 L518.9734 27.3315 L522.5485 27.3315 L522.5485 25.1864 L522.191 24.8289 L522.191 22.6839 L521.8335 22.3263 L521.8335 20.1813 L521.476 19.8238 L521.476 15.1762 L521.8335 14.8187 L521.8335 12.6736 L522.191 12.3161 L522.191 10.1711 L522.5485 9.8136 L522.5485 7.6685 L518.9734 7.6685 Z" fill-rule="evenodd" clip-rule="evenodd" fill="white" stroke="none"/>
  <path d="M525.0511 7.6685 L525.0511 27.3315 L528.6261 27.3315 L528.6261 25.1864 L528.2687 24.8289 L528.2687 22.3263 L527.9112 21.9688 L527.9112 19.4663 L527.5537 19.1088 L527.5537 15.5337 L527.9112 15.1762 L527.9112 12.6736 L528.2687 12.3161 L528.2687 10.5286 L528.6261 10.1711 L528.6261 7.6685 L525.0511 7.6685 Z" fill-rule="evenodd" clip-rule="evenodd" fill="white" stroke="none"/>
  <path d="M566.522 7.6685 L565.092 8.3835 L564.377 9.0986 L562.5894 9.8136 L561.8744 10.5286 L560.8019 10.8861 L560.0869 11.6011 L559.0143 11.9586 L558.2994 12.6736 L557.2268 13.0311 L556.5118 13.7461 L555.4393 14.1037 L554.7242 14.8187 L553.6517 15.1762 L552.9367 15.8912 L551.8642 16.2487 L551.1492 16.9637 L550.7916 16.9637 L550.4341 17.6788 L551.8642 18.3938 L552.5792 19.1088 L553.6517 19.4663 L554.3667 20.1813 L555.4393 20.5388 L556.1542 21.2538 L557.2268 21.6113 L557.9418 22.3263 L559.0143 22.6839 L559.7294 23.3989 L560.8019 23.7564 L561.5169 24.4714 L562.5894 24.8289 L563.3044 25.5439 L564.377 25.9014 L565.092 26.6164 L566.8795 27.3315 L568.3095 26.2589 L569.382 25.9014 L570.0971 25.1864 L571.1696 24.8289 L571.8846 24.1139 L572.9571 23.7564 L573.6722 23.0414 L574.7447 22.6839 L576.5322 21.2538 L578.3198 20.5388 L579.0348 19.8238 L582.6098 18.0363 L582.9674 17.3212 L581.5373 16.6062 L580.8223 15.8912 L579.7498 15.5337 L579.0348 14.8187 L577.2472 14.1037 L575.4597 12.6736 L571.8846 10.8861 L571.1696 10.1711 L569.0246 9.0986 L568.3095 8.3835 L566.522 7.6685 Z" fill-rule="evenodd" clip-rule="evenodd" fill="white" stroke="none"/>
  <path d="M604.4178 7.6685 L604.4178 8.3835 L604.7753 8.7411 L604.7753 10.8861 L605.1328 11.2436 L605.1328 13.3887 L605.4904 13.7461 L605.4904 16.2487 L605.8479 16.6062 L605.8479 18.3938 L605.4904 18.7513 L605.4904 19.4663 L606.2054 20.8963 L606.9204 21.2538 L607.6354 21.2538 L608.3504 20.1813 L608.3504 16.6062 L607.2779 14.4612 L606.5628 14.1037 L606.5628 12.3161 L607.6354 11.2436 L608.3504 9.8136 L608.3504 7.6685 L604.4178 7.6685 Z" fill-rule="evenodd" clip-rule="evenodd" fill="white" stroke="none"/>
  <path d="M610.853 7.6685 L610.853 10.8861 L611.2105 11.2436 L611.2105 13.0311 L611.568 13.3887 L611.568 15.5337 L611.9255 15.8912 L611.9255 19.1088 L611.568 19.4663 L611.568 21.6113 L611.2105 21.9688 L611.2105 23.7564 L610.853 24.1139 L610.853 27.3315 L614.0705 27.3315 L614.4281 26.6164 L614.0705 26.2589 L614.0705 24.1139 L613.713 23.7564 L613.713 21.2538 L613.3555 20.8963 L613.3555 18.7513 L612.998 18.3938 L612.998 15.8912 L613.3555 15.5337 L613.3555 14.1037 L613.713 13.7461 L613.3555 11.9586 L614.0705 10.8861 L614.0705 7.6685 L610.853 7.6685 Z" fill-rule="evenodd" clip-rule="evenodd" fill="white" stroke="none"/>
  <path d="M616.9306 7.6685 L616.9306 8.7411 L617.2881 9.0986 L617.2881 9.8136 L617.6456 9.8136 L619.0757 11.2436 L619.4332 11.2436 L620.1481 10.5286 L620.1481 9.0986 L620.5057 8.7411 L620.5057 7.6685 L616.9306 7.6685 Z" fill-rule="evenodd" clip-rule="evenodd" fill="white" stroke="none"/>
  <path d="M658.759 7.6685 L658.044 7.6685 L657.329 8.026 L656.614 8.7411 L655.5415 9.0986 L654.8264 9.8136 L653.7539 10.1711 L653.0389 10.8861 L651.9663 11.2436 L651.2514 11.9586 L650.1788 12.3161 L649.4638 13.0311 L648.3913 13.3887 L647.6763 14.1037 L646.6038 14.4612 L645.8887 15.1762 L644.8162 15.5337 L644.1012 16.2487 L641.9562 17.3212 L641.9562 17.6788 L642.3137 17.6788 L643.0287 18.3938 L644.8162 19.1088 L645.5312 19.8238 L646.6038 20.1813 L647.3188 20.8963 L648.3913 21.2538 L650.1788 22.6839 L651.9663 23.3989 L652.6814 24.1139 L653.7539 24.4714 L654.469 25.1864 L655.5415 25.5439 L656.2565 26.2589 L657.329 26.6164 L658.044 27.3315 L659.8316 26.6164 L660.5466 25.9014 L661.6191 25.5439 L662.3341 24.8289 L663.4066 24.4714 L664.1216 23.7564 L665.1942 23.3989 L665.9092 22.6839 L666.9817 22.3263 L667.6967 21.6113 L669.4843 20.8963 L670.1993 20.1813 L671.2718 19.8238 L671.9868 19.1088 L673.0593 18.7513 L674.4894 17.6788 L674.1319 16.9637 L673.7743 16.9637 L671.9868 15.5337 L670.1993 14.8187 L669.4843 14.1037 L668.4117 13.7461 L667.6967 13.0311 L666.6242 12.6736 L665.9092 11.9586 L664.8367 11.6011 L664.1216 10.8861 L663.0491 10.5286 L662.3341 9.8136 L661.2616 9.4561 L660.5466 8.7411 L659.474 8.3835 L658.759 7.6685 Z" fill-rule="evenodd" clip-rule="evenodd" fill="white" stroke="none"/>
  <path d="M696.2973 7.6685 L696.2973 9.4561 L696.6549 9.8136 L696.6549 12.3161 L697.0124 12.6736 L697.0124 14.8187 L697.3699 15.1762 L697.3699 19.8238 L697.0124 20.1813 L697.0124 22.3263 L696.6549 22.6839 L696.6549 25.1864 L696.2973 25.5439 L696.2973 27.3315 L699.8724 27.3315 L699.8724 7.6685 L696.2973 7.6685 Z" fill-rule="evenodd" clip-rule="evenodd" fill="white" stroke="none"/>
  <path d="M702.375 7.6685 L702.375 9.0986 L702.7325 9.4561 L702.7325 11.9586 L703.09 12.3161 L703.09 14.4612 L703.4475 14.8187 L703.4475 20.1813 L703.09 20.5388 L703.09 22.6839 L702.7325 23.0414 L702.7325 25.1864 L702.375 25.5439 L702.375 27.3315 L703.805 27.3315 L704.1625 26.9739 L704.1625 8.026 L703.805 7.6685 L702.375 7.6685 Z" fill-rule="evenodd" clip-rule="evenodd" fill="white" stroke="none"/>
  <path d="M255.8477 8.026 L255.8477 19.8238 L256.2052 20.1813 L255.8477 20.5388 L255.8477 25.1864 L256.2052 25.5439 L256.2052 26.9739 L257.9927 26.2589 L258.7078 25.5439 L259.7803 25.1864 L260.4953 24.4714 L261.5678 24.1139 L262.2828 23.3989 L263.3554 23.0414 L264.0704 22.3263 L265.1429 21.9688 L265.8579 21.2538 L266.9304 20.8963 L267.6455 20.1813 L268.718 19.8238 L269.433 19.1088 L272.2931 17.6788 L272.2931 17.3212 L271.9356 17.3212 L271.2205 16.6062 L270.148 16.2487 L269.433 15.5337 L268.3605 15.1762 L267.6455 14.4612 L266.5729 14.1037 L265.8579 13.3887 L264.7854 13.0311 L264.0704 12.3161 L262.9979 11.9586 L262.2828 11.2436 L261.2103 10.8861 L260.4953 10.1711 L259.4228 9.8136 L258.7078 9.0986 L257.6352 8.7411 L256.9202 8.026 L255.8477 8.026 Z" fill-rule="evenodd" clip-rule="evenodd" fill="white" stroke="none"/>
  <path d="M326.2767 8.026 L325.5617 8.7411 L324.4892 9.0986 L323.7742 9.8136 L322.7017 10.1711 L321.9866 10.8861 L320.9141 11.2436 L320.1991 11.9586 L318.4116 12.6736 L317.6966 13.3887 L314.8365 14.8187 L313.0489 16.2487 L311.2614 16.9637 L310.9039 17.6788 L312.3339 18.3938 L313.0489 19.1088 L314.8365 19.8238 L315.5515 20.5388 L316.624 20.8963 L317.339 21.6113 L318.4116 21.9688 L319.1266 22.6839 L320.1991 23.0414 L320.9141 23.7564 L322.7017 24.4714 L323.4167 25.1864 L324.4892 25.5439 L325.2042 26.2589 L326.9917 26.9739 L326.9917 8.026 L326.2767 8.026 Z" fill-rule="evenodd" clip-rule="evenodd" fill="white" stroke="none"/>
  <path d="M348.4422 8.026 L347.7272 8.026 L347.7272 27.3315 L348.0847 27.3315 L348.7997 26.6164 L349.8723 26.2589 L350.5873 25.5439 L351.6598 25.1864 L352.3748 24.4714 L353.4473 24.1139 L354.1624 23.3989 L355.2349 23.0414 L357.0224 21.6113 L358.0949 21.2538 L358.81 20.5388 L359.8825 20.1813 L360.5975 19.4663 L361.67 19.1088 L362.385 18.3938 L363.8151 17.6788 L363.8151 17.3212 L362.385 16.2487 L361.3125 15.8912 L360.5975 15.1762 L359.525 14.8187 L358.81 14.1037 L357.0224 13.3887 L356.3074 12.6736 L355.2349 12.3161 L354.5199 11.6011 L353.4473 11.2436 L352.7323 10.5286 L351.6598 10.1711 L350.9448 9.4561 L349.8723 9.0986 L348.4422 8.026 Z" fill-rule="evenodd" clip-rule="evenodd" fill="white" stroke="none"/>
  <path d="M418.1563 8.026 L416.7262 8.7411 L416.0112 9.4561 L414.9387 9.8136 L414.2237 10.5286 L413.1511 10.8861 L412.4361 11.6011 L411.3636 11.9586 L410.6486 12.6736 L409.5761 13.0311 L408.8611 13.7461 L407.7885 14.1037 L407.0735 14.8187 L405.286 15.5337 L404.5709 16.2487 L403.1409 16.9637 L402.7834 17.6788 L404.2134 18.7513 L406.001 19.4663 L407.7885 20.8963 L408.8611 21.2538 L409.5761 21.9688 L411.3636 22.6839 L412.0786 23.3989 L413.1511 23.7564 L413.8662 24.4714 L416.7262 25.9014 L417.4412 26.6164 L418.1563 26.9739 L418.8713 26.9739 L418.8713 8.026 L418.1563 8.026 Z" fill-rule="evenodd" clip-rule="evenodd" fill="white" stroke="none"/>
  <path d="M439.2492 8.026 L439.2492 8.7411 L439.6067 9.0986 L439.2492 9.8136 L439.6067 10.5286 L439.2492 11.2436 L439.2492 23.0414 L439.6067 23.3989 L439.2492 23.7564 L439.6067 24.4714 L439.2492 24.8289 L439.6067 25.5439 L439.2492 26.6164 L439.6067 26.9739 L441.3943 26.2589 L442.1093 25.5439 L443.1818 25.1864 L443.8968 24.4714 L444.9693 24.1139 L445.6843 23.3989 L446.7569 23.0414 L447.4719 22.3263 L448.5444 21.9688 L449.2594 21.2538 L451.0469 20.5388 L452.8345 19.1088 L455.6946 17.6788 L455.6946 17.3212 L455.3371 17.3212 L454.622 16.6062 L453.5495 16.2487 L452.8345 15.5337 L451.762 15.1762 L451.0469 14.4612 L449.9745 14.1037 L449.2594 13.3887 L448.1869 13.0311 L447.4719 12.3161 L446.3994 11.9586 L445.6843 11.2436 L444.6118 10.8861 L443.8968 10.1711 L442.1093 9.4561 L441.3943 8.7411 L439.9642 8.026 L439.2492 8.026 Z" fill-rule="evenodd" clip-rule="evenodd" fill="white" stroke="none"/>
  <path d="M509.6782 8.026 L508.2482 9.0986 L507.8907 9.0986 L507.1757 9.8136 L506.1032 10.1711 L505.3882 10.8861 L504.3157 11.2436 L503.6006 11.9586 L500.7406 13.3887 L500.0255 14.1037 L498.238 14.8187 L497.523 15.5337 L494.6629 16.9637 L494.3054 17.6788 L494.6629 17.6788 L496.4504 19.1088 L498.238 19.8238 L498.953 20.5388 L500.0255 20.8963 L500.7406 21.6113 L501.8131 21.9688 L502.5281 22.6839 L503.6006 23.0414 L504.3157 23.7564 L507.8907 25.5439 L509.6782 26.9739 L510.3933 26.9739 L510.3933 8.026 L509.6782 8.026 Z" fill-rule="evenodd" clip-rule="evenodd" fill="white" stroke="none"/>
  <path d="M531.1287 8.026 L531.1287 26.9739 L531.8437 26.9739 L532.5588 26.2589 L533.6313 25.9014 L534.3463 25.1864 L536.1338 24.4714 L536.8488 23.7564 L537.9214 23.3989 L538.6364 22.6839 L539.7089 22.3263 L540.4239 21.6113 L541.4965 21.2538 L542.2114 20.5388 L543.284 20.1813 L543.999 19.4663 L546.8591 18.0363 L547.2165 17.3212 L545.7866 16.2487 L543.999 15.5337 L542.2114 14.1037 L541.1389 13.7461 L540.4239 13.0311 L538.6364 12.3161 L536.8488 10.8861 L536.1338 10.8861 L535.4188 10.1711 L533.2738 9.0986 L532.5588 8.3835 L531.8437 8.026 L531.1287 8.026 Z" fill-rule="evenodd" clip-rule="evenodd" fill="white" stroke="none"/>
  <path d="M602.2728 8.026 L601.5577 8.026 L600.1277 8.7411 L599.4127 9.4561 L598.3402 9.8136 L597.6252 10.5286 L595.8377 11.2436 L594.0501 12.6736 L592.9776 13.0311 L592.2626 13.7461 L591.19 14.1037 L590.4751 14.8187 L588.6875 15.5337 L587.9724 16.2487 L586.5424 16.9637 L586.1849 17.6788 L593.6926 22.3263 L595.1226 22.3263 L595.1226 21.9688 L595.8377 21.6113 L595.8377 21.2538 L596.5527 20.5388 L597.2677 20.5388 L597.9827 19.8238 L598.3402 19.8238 L599.0552 20.5388 L599.0552 20.8963 L596.9102 21.9688 L596.1951 22.6839 L596.1951 23.7564 L597.2677 24.4714 L598.6977 24.4714 L599.4127 23.7564 L600.1277 23.7564 L600.4852 23.0414 L600.8428 23.3989 L601.9153 23.3989 L602.2728 22.6839 L602.2728 19.4663 L601.9153 19.1088 L601.9153 18.3938 L600.4852 18.3938 L600.1277 18.0363 L600.4852 17.3212 L600.4852 16.6062 L599.4127 15.5337 L599.4127 14.8187 L600.1277 14.1037 L601.5577 15.5337 L601.5577 15.8912 L601.9153 15.8912 L602.2728 15.1762 L602.2728 8.026 Z" fill-rule="evenodd" clip-rule="evenodd" fill="white" stroke="none"/>
  <path d="M693.0798 8.026 L691.6497 9.0986 L691.2922 9.0986 L690.5772 9.8136 L687.7172 11.2436 L687.0021 11.9586 L685.2146 12.6736 L683.4271 14.1037 L679.1369 16.2487 L678.422 16.9637 L678.0644 16.9637 L677.7069 17.6788 L679.1369 18.3938 L679.852 19.1088 L680.9245 19.4663 L681.6395 20.1813 L685.2146 21.9688 L685.9296 22.6839 L689.5047 24.4714 L690.2197 25.1864 L692.3647 26.2589 L693.0798 26.9739 L693.7948 26.9739 L693.7948 8.026 L693.0798 8.026 Z" fill-rule="evenodd" clip-rule="evenodd" fill="white" stroke="none"/>
  <path d="M639.0961 17.3212 L636.951 16.2487 L636.236 15.5337 L635.1635 15.1762 L634.4485 14.4612 L633.3759 14.1037 L632.661 13.3887 L630.8734 12.6736 L629.0859 11.2436 L627.2983 10.5286 L625.5108 9.0986 L624.0808 8.3835 L623.3657 8.3835 L623.3657 10.8861 L622.6507 12.3161 L622.6507 26.9739 L623.3657 26.9739 L624.7958 26.2589 L625.5108 25.5439 L626.5833 25.1864 L627.2983 24.4714 L628.3708 24.1139 L629.0859 23.3989 L630.1584 23.0414 L630.8734 22.3263 L631.9459 21.9688 L632.661 21.2538 L633.7334 20.8963 L634.4485 20.1813 L635.521 19.8238 L636.236 19.1088 L639.0961 17.6788 L639.0961 17.3212 Z" fill-rule="evenodd" clip-rule="evenodd" fill="white" stroke="none"/>
  <path d="M616.5731 11.2436 L616.5731 12.6736 L616.9306 13.0311 L616.9306 15.5337 L616.5731 15.8912 L616.5731 26.9739 L616.9306 27.3315 L620.5057 27.3315 L620.5057 26.6164 L620.1481 26.2589 L620.1481 23.7564 L619.7907 23.3989 L619.7907 21.2538 L619.4332 20.8963 L619.4332 18.7513 L619.0757 18.3938 L619.0757 16.6062 L619.4332 16.2487 L619.4332 14.1037 L619.7907 13.7461 L619.7907 13.0311 L617.6456 11.9586 L617.2881 11.2436 L616.5731 11.2436 Z" fill-rule="evenodd" clip-rule="evenodd" fill="white" stroke="none"/>
  <path d="M267.288 24.1139 L267.288 24.8289 L267.6455 24.8289 L268.3605 25.5439 L269.433 25.9014 L270.148 26.6164 L271.2205 26.9739 L271.9356 27.689 L273.3656 28.404 L275.1531 27.689 L275.8681 26.9739 L276.9407 26.6164 L277.6557 25.9014 L279.8007 24.8289 L279.8007 24.1139 L279.4432 23.7564 L278.3707 23.3989 L277.6557 22.6839 L276.5832 22.3263 L275.8681 21.6113 L274.7956 21.2538 L274.0806 20.5388 L273.0081 20.5388 L272.2931 21.2538 L271.2205 21.6113 L270.5055 22.3263 L269.433 22.6839 L268.718 23.3989 L267.288 24.1139 Z" fill-rule="evenodd" clip-rule="evenodd" fill="white" stroke="none"/>
  <path d="M303.0387 24.1139 L303.3962 24.8289 L303.7537 24.8289 L304.4688 25.5439 L305.5413 25.9014 L306.2563 26.6164 L307.3288 26.9739 L308.0438 27.689 L309.4739 28.404 L312.3339 26.9739 L313.0489 26.2589 L314.1215 25.9014 L314.8365 25.1864 L315.909 24.8289 L315.909 24.1139 L315.5515 24.1139 L313.764 22.6839 L311.9764 21.9688 L311.2614 21.2538 L309.8314 20.5388 L309.1164 20.5388 L308.4013 20.8963 L307.6863 21.6113 L306.6138 21.9688 L305.8988 22.6839 L303.0387 24.1139 Z" fill-rule="evenodd" clip-rule="evenodd" fill="white" stroke="none"/>
  <path d="M358.81 24.1139 L358.81 24.8289 L362.385 26.6164 L363.1 27.3315 L364.1726 27.689 L364.8876 28.404 L365.6026 28.404 L366.3176 27.689 L367.3901 27.3315 L368.1052 26.6164 L369.1777 26.2589 L369.8927 25.5439 L370.9652 25.1864 L371.6802 24.4714 L371.6802 24.1139 L370.6077 23.7564 L369.8927 23.0414 L368.8202 22.6839 L368.1052 21.9688 L367.0326 21.6113 L365.6026 20.5388 L364.8876 20.5388 L363.4576 21.2538 L361.67 22.6839 L360.955 22.6839 L360.24 23.3989 L358.81 24.1139 Z" fill-rule="evenodd" clip-rule="evenodd" fill="white" stroke="none"/>
  <path d="M401.7109 20.5388 L400.9959 20.5388 L399.5659 21.2538 L398.8508 21.9688 L397.7783 22.3263 L395.9908 23.7564 L394.9182 24.1139 L394.9182 24.8289 L395.9908 25.1864 L396.7058 25.9014 L398.4933 26.6164 L399.2083 27.3315 L401.3534 28.404 L403.4984 27.3315 L404.2134 26.6164 L405.286 26.2589 L406.001 25.5439 L406.3585 25.5439 L407.7885 24.4714 L407.7885 24.1139 L406.716 23.7564 L406.001 23.0414 L404.9285 22.6839 L404.2134 21.9688 L403.1409 21.6113 L401.7109 20.5388 Z" fill-rule="evenodd" clip-rule="evenodd" fill="white" stroke="none"/>
  <path d="M450.6895 24.1139 L450.6895 24.8289 L451.0469 24.8289 L451.762 25.5439 L452.8345 25.9014 L453.5495 26.6164 L454.622 26.9739 L455.3371 27.689 L456.7671 28.404 L458.5547 27.689 L459.2696 26.9739 L460.3422 26.6164 L461.0572 25.9014 L463.2022 24.8289 L463.2022 24.1139 L462.8447 23.7564 L461.7722 23.3989 L461.0572 22.6839 L459.9847 22.3263 L459.2696 21.6113 L458.1971 21.2538 L457.4821 20.5388 L456.4096 20.5388 L455.6946 21.2538 L454.622 21.6113 L453.907 22.3263 L452.8345 22.6839 L452.1195 23.3989 L450.6895 24.1139 Z" fill-rule="evenodd" clip-rule="evenodd" fill="white" stroke="none"/>
  <path d="M486.4402 24.1139 L486.7977 24.8289 L487.1553 24.8289 L487.8703 25.5439 L488.9428 25.9014 L489.6578 26.6164 L490.7304 26.9739 L491.4453 27.689 L492.8754 28.404 L495.0204 27.3315 L495.7355 26.6164 L497.523 25.9014 L498.238 25.1864 L499.3105 24.8289 L499.3105 24.1139 L498.953 23.7564 L497.1655 23.0414 L496.4504 22.3263 L495.3779 21.9688 L494.6629 21.2538 L493.2329 20.5388 L492.5179 20.5388 L491.8029 21.2538 L490.0153 21.9688 L489.3003 22.6839 L486.4402 24.1139 Z" fill-rule="evenodd" clip-rule="evenodd" fill="white" stroke="none"/>
  <path d="M542.2114 24.1139 L542.2114 24.4714 L542.9265 25.1864 L543.999 25.5439 L544.714 26.2589 L545.7866 26.6164 L546.5016 27.3315 L547.5741 27.689 L548.2891 28.404 L549.0041 28.404 L549.7191 27.689 L550.7916 27.3315 L551.5067 26.6164 L552.5792 26.2589 L553.2942 25.5439 L554.3667 25.1864 L555.0818 24.4714 L555.0818 24.1139 L554.0092 23.7564 L553.2942 23.0414 L552.2217 22.6839 L551.5067 21.9688 L550.4341 21.6113 L549.0041 20.5388 L548.2891 20.5388 L547.5741 20.8963 L546.8591 21.6113 L545.7866 21.9688 L545.0715 22.6839 L542.2114 24.1139 Z" fill-rule="evenodd" clip-rule="evenodd" fill="white" stroke="none"/>
  <path d="M578.3198 24.1139 L578.3198 24.8289 L581.8948 26.6164 L582.6098 27.3315 L583.6824 27.689 L584.3974 28.404 L585.1124 28.404 L586.9 26.9739 L589.76 25.5439 L590.8325 24.4714 L590.4751 23.7564 L589.4025 23.3989 L588.6875 22.6839 L587.615 22.3263 L586.9 21.6113 L586.5424 21.6113 L585.1124 20.5388 L584.3974 20.5388 L582.2524 21.6113 L581.5373 22.3263 L580.4648 22.6839 L579.7498 23.3989 L578.3198 24.1139 Z" fill-rule="evenodd" clip-rule="evenodd" fill="white" stroke="none"/>
  <path d="M634.091 24.1139 L634.091 24.8289 L634.4485 24.8289 L635.1635 25.5439 L636.236 25.9014 L636.951 26.6164 L638.0236 26.9739 L638.7386 27.689 L640.1686 28.404 L641.9562 27.689 L642.6712 26.9739 L643.7437 26.6164 L644.4587 25.9014 L646.6038 24.8289 L646.6038 24.1139 L646.2462 23.7564 L645.1737 23.3989 L644.4587 22.6839 L643.3862 22.3263 L642.6712 21.6113 L641.5986 21.2538 L640.8836 20.5388 L639.8111 20.5388 L639.0961 21.2538 L638.0236 21.6113 L637.3086 22.3263 L636.236 22.6839 L635.521 23.3989 L634.091 24.1139 Z" fill-rule="evenodd" clip-rule="evenodd" fill="white" stroke="none"/>
  <path d="M669.8418 24.1139 L670.1993 24.8289 L670.5568 24.8289 L671.2718 25.5439 L672.3443 25.9014 L673.0593 26.6164 L674.1319 26.9739 L674.8469 27.689 L676.2769 28.404 L679.1369 26.9739 L679.852 26.2589 L680.9245 25.9014 L681.6395 25.1864 L682.712 24.8289 L682.712 24.1139 L682.3545 24.1139 L681.6395 23.3989 L680.567 23.0414 L679.852 22.3263 L678.7794 21.9688 L678.0644 21.2538 L676.6344 20.5388 L675.9194 20.5388 L675.2044 21.2538 L673.4168 21.9688 L672.7018 22.6839 L669.8418 24.1139 Z" fill-rule="evenodd" clip-rule="evenodd" fill="white" stroke="none"/>
  <path d="M605.4904 22.3263 L605.1328 22.6839 L605.1328 23.7564 L604.7753 24.1139 L604.7753 26.2589 L604.4178 26.9739 L604.7753 27.3315 L607.9929 27.3315 L608.3504 26.9739 L608.3504 23.0414 L607.9929 22.6839 L606.2054 22.6839 L605.4904 22.3263 Z" fill-rule="evenodd" clip-rule="evenodd" fill="white" stroke="none"/>
  <path d="M599.4127 25.1864 L599.4127 25.5439 L600.8428 26.6164 L601.5577 26.6164 L601.9153 26.2589 L601.9153 25.5439 L601.5577 24.8289 L600.1277 24.8289 L599.4127 25.1864 Z" fill-rule="evenodd" clip-rule="evenodd" fill="white" stroke="none"/>
  <path d="M355.5924 29.834 L355.2349 29.4765 L352.3748 29.4765 L352.0173 29.834 L350.2298 29.834 L349.8723 29.4765 L346.6547 29.4765 L346.2972 29.834 L245.8375 29.834 L245.8375 31.264 L346.2972 31.264 L346.6547 31.6216 L354.8774 31.6216 L355.5924 30.9066 L355.5924 29.834 Z" fill-rule="evenodd" clip-rule="evenodd" fill="white" stroke="none"/>
  <path d="M357.0224 29.834 L357.0224 31.264 L357.3799 31.6216 L360.5975 31.6216 L360.955 31.264 L465.7048 31.264 L466.0623 31.6216 L474.285 31.6216 L475 30.9066 L475 29.4765 L471.7824 29.4765 L471.4249 29.834 L469.9949 29.834 L469.6374 29.4765 L465.7048 29.4765 L465.3473 29.834 L361.3125 29.834 L360.955 29.4765 L357.3799 29.4765 L357.0224 29.834 Z" fill-rule="evenodd" clip-rule="evenodd" fill="white" stroke="none"/>
  <path d="M475.715 29.4765 L475.715 29.834 L476.43 30.1915 L476.43 31.264 L476.7875 31.6216 L480.0051 31.6216 L480.3626 31.264 L582.2524 31.264 L583.3249 30.549 L583.3249 29.834 L480.7201 29.834 L480.3626 29.4765 L475.715 29.4765 Z" fill-rule="evenodd" clip-rule="evenodd" fill="white" stroke="none"/>
  <path d="M588.33 29.834 L588.33 30.9066 L589.045 30.9066 L589.4025 31.264 L591.5476 31.264 L591.5476 30.1915 L590.8325 30.1915 L590.4751 29.834 L588.33 29.834 Z" fill-rule="evenodd" clip-rule="evenodd" fill="white" stroke="none"/>
  <path d="M592.6201 29.834 L592.6201 30.549 L593.6926 31.264 L703.805 31.264 L704.1625 30.9066 L703.805 29.834 L600.4852 29.834 L599.0552 30.549 L597.9827 29.834 L592.6201 29.834 Z" fill-rule="evenodd" clip-rule="evenodd" fill="white" stroke="none"/>
  <path d="M584.3974 30.9066 L584.3974 31.264 L586.9 31.264 L586.9 30.549 L584.7549 30.549 L584.3974 30.9066 Z" fill-rule="evenodd" clip-rule="evenodd" fill="white" stroke="none"/>
  <path d="M245.8375 32.6941 L246.195 33.4091 L352.7323 33.4091 L352.7323 32.6941 L245.8375 32.6941 Z" fill-rule="evenodd" clip-rule="evenodd" fill="white" stroke="none"/>
  <path d="M355.9499 33.0516 L355.9499 33.4091 L472.14 33.4091 L472.14 32.6941 L356.6649 32.6941 L355.9499 33.0516 Z" fill-rule="evenodd" clip-rule="evenodd" fill="white" stroke="none"/>
  <path d="M475.715 33.4091 L574.3872 33.4091 L574.7447 32.6941 L476.0725 32.6941 L475.715 33.4091 Z" fill-rule="evenodd" clip-rule="evenodd" fill="white" stroke="none"/>
  <path d="M576.1747 32.6941 L576.1747 33.0516 L576.8898 33.0516 L577.2472 33.4091 L578.3198 33.4091 L578.6773 33.0516 L579.7498 33.0516 L580.1073 33.4091 L581.5373 33.4091 L581.8948 33.0516 L581.8948 32.6941 L576.1747 32.6941 Z" fill-rule="evenodd" clip-rule="evenodd" fill="white" stroke="none"/>
  <path d="M584.0399 32.6941 L584.3974 33.4091 L586.1849 33.4091 L586.5424 33.0516 L587.615 33.0516 L587.615 32.6941 L584.0399 32.6941 Z" fill-rule="evenodd" clip-rule="evenodd" fill="white" stroke="none"/>
  <path d="M589.76 33.0516 L589.76 33.4091 L592.6201 33.4091 L592.6201 32.6941 L590.1175 32.6941 L589.76 33.0516 Z" fill-rule="evenodd" clip-rule="evenodd" fill="white" stroke="none"/>
  <path d="M595.1226 32.6941 L595.1226 33.0516 L595.8377 33.4091 L703.805 33.4091 L703.805 32.6941 L595.1226 32.6941 Z" fill-rule="evenodd" clip-rule="evenodd" fill="white" stroke="none"/>
</svg>
