<?xml version="1.0" encoding="UTF-8"?>
<svg width="950" height="35" viewBox="0 0 950 35" fill="none" xmlns="http://www.w3.org/2000/svg">
  <path d="M352 17.5 L346 8.5 L342 13.45 L348 17.5 L340 5.5 L336 12.1 L342 17.5 L334 9.5 L330 13.9 L336 17.5 L328 6.5 L324 12.55 L330 17.5 L322 10.5 L318 14.35 L324 17.5 L316 7.5 L312 13 L318 17.5 L310 10.5 L306 14.35 L312 17.5 L304 17.5 L310 9.5 L313 14.3 L316 6.5 L319 13.1 L322 10.5 L325 14.7 L352 17.5 Z" fill-rule="evenodd" clip-rule="evenodd" fill="white" stroke="none"/>
  <path d="M598 17.5 L604 8.5 L608 13.45 L602 17.5 L610 5.5 L614 12.1 L608 17.5 L616 9.5 L620 13.9 L614 17.5 L622 6.5 L626 12.55 L620 17.5 L628 10.5 L632 14.35 L626 17.5 L634 7.5 L638 13 L632 17.5 L640 10.5 L644 14.35 L638 17.5 L646 17.5 L640 9.5 L637 14.3 L634 6.5 L631 13.1 L628 10.5 L625 14.7 L598 17.5 Z" fill-rule="evenodd" clip-rule="evenodd" fill="white" stroke="none"/>
  <path d="M9.5 17.5 L352 17.5" fill="none" stroke="white" stroke-width="1.2" stroke-linecap="round" stroke-linejoin="round"/>
  <path d="M598 17.5 L940.5 17.5" fill="none" stroke="white" stroke-width="1.2" stroke-linecap="round" stroke-linejoin="round"/>
</svg>
