<?xml version="1.0" encoding="UTF-8"?>
<svg width="950" height="35" viewBox="0 0 950 35" fill="none" xmlns="http://www.w3.org/2000/svg">
  <path d="M9.5 18.9189 L198.5388 18.9189 L198.5388 23.9189 L9.5 23.9189 Z" fill-rule="evenodd" clip-rule="evenodd" fill="white" stroke="none"/>
  <path d="M760.0833 18.9189 L940.5 18.9189 L940.5 23.9189 L760.0833 23.9189 Z" fill-rule="evenodd" clip-rule="evenodd" fill="white" stroke="none"/>
  <path d="M9.5 19.4031 L198.5388 19.4031 L198.5388 24.4031 L9.5 24.4031 Z" fill-rule="evenodd" clip-rule="evenodd" fill="white" stroke="none"/>
  <path d="M760.0833 19.4031 L940.5 19.4031 L940.5 24.4031 L760.0833 24.4031 Z" fill-rule="evenodd" clip-rule="evenodd" fill="white" stroke="none"/>
  <path d="M417.7671 21.5706 C430.5609 4.692 452.0361 7.3258 447.8143 21.6181 C444.1521 33.3115 430.6638 25.4907 436.3549 19.0002" fill="none" stroke="white" stroke-width="0.5" stroke-linecap="round" stroke-linejoin="round"/>
  <path d="M532.2328 21.7514 C519.272 4.8321 497.8225 7.398 502.1857 21.7039 C505.9636 33.4091 519.3748 25.6308 513.6194 19.1222" fill="none" stroke="white" stroke-width="0.5" stroke-linecap="round" stroke-linejoin="round"/>
  <path d="M475.0331 28.3463 C455.3443 14.9447 465.9071 1.5909 474.9597 13.4901 C483.8946 1.6193 494.5896 15.0067 475.0331 28.3463 Z" fill-rule="evenodd" clip-rule="evenodd" fill="white" stroke="none"/>
  <path d="M405.5029 21.5513 C405.4928 19.5 403.6543 17.8343 401.3965 17.8307 C399.1387 17.8272 397.3167 19.4871 397.3268 21.5383 C397.3369 23.5896 399.1755 25.2553 401.4332 25.2589 C403.691 25.2624 405.5131 23.6025 405.5029 21.5513 Z" fill-rule="evenodd" clip-rule="evenodd" fill="white" stroke="none"/>
  <path d="M552.6732 21.7837 C552.6631 19.7324 550.8246 18.0667 548.5668 18.0631 C546.309 18.0596 544.4869 19.7195 544.4971 21.7707 C544.5072 23.822 546.3457 25.4877 548.6035 25.4913 C550.8613 25.4948 552.6834 23.8349 552.6732 21.7837 Z" fill-rule="evenodd" clip-rule="evenodd" fill="white" stroke="none"/>
</svg>
