<?xml version="1.0" encoding="UTF-8"?>
<svg width="950" height="35" viewBox="0 0 950 35" fill="none" xmlns="http://www.w3.org/2000/svg">
  <path d="M261.039 1.5909 L261.039 2.8896 L266.2338 8.0844 L272.7273 2.2403 L272.7273 1.5909 L261.039 1.5909 Z" fill-rule="evenodd" clip-rule="evenodd" fill="white" stroke="none"/>
  <path d="M287.6624 1.5909 L287.6624 2.8896 L292.8571 8.0844 L299.3507 2.2403 L299.3507 1.5909 L287.6624 1.5909 Z" fill-rule="evenodd" clip-rule="evenodd" fill="white" stroke="none"/>
  <path d="M315.5844 1.5909 L315.5844 2.8896 L329.2208 16.526 L343.5065 2.8896 L343.5065 1.5909 L315.5844 1.5909 Z" fill-rule="evenodd" clip-rule="evenodd" fill="white" stroke="none"/>
  <path d="M359.7403 1.5909 L365.5844 8.0844 L371.4286 2.8896 L371.4286 1.5909 L359.7403 1.5909 Z" fill-rule="evenodd" clip-rule="evenodd" fill="white" stroke="none"/>
  <path d="M388.3117 1.5909 L388.3117 2.8896 L401.2987 15.8766 L403.2467 15.8766 L416.2338 2.2403 L416.2338 1.5909 L388.3117 1.5909 Z" fill-rule="evenodd" clip-rule="evenodd" fill="white" stroke="none"/>
  <path d="M433.1169 1.5909 L433.1169 2.8896 L438.3117 8.0844 L444.1558 2.8896 L444.1558 1.5909 L433.1169 1.5909 Z" fill-rule="evenodd" clip-rule="evenodd" fill="white" stroke="none"/>
  <path d="M461.039 1.5909 L461.039 2.8896 L474.026 15.8766 L475.974 15.8766 L488.961 2.2403 L488.961 1.5909 L461.039 1.5909 Z" fill-rule="evenodd" clip-rule="evenodd" fill="white" stroke="none"/>
  <path d="M505.1948 1.5909 L511.0389 8.0844 L516.8831 2.8896 L516.8831 1.5909 L505.1948 1.5909 Z" fill-rule="evenodd" clip-rule="evenodd" fill="white" stroke="none"/>
  <path d="M533.7663 1.5909 L533.7663 2.8896 L546.7532 15.8766 L548.7013 15.8766 L561.6883 2.2403 L561.6883 1.5909 L533.7663 1.5909 Z" fill-rule="evenodd" clip-rule="evenodd" fill="white" stroke="none"/>
  <path d="M577.9221 1.5909 L583.7662 8.0844 L589.6104 2.8896 L589.6104 1.5909 L577.9221 1.5909 Z" fill-rule="evenodd" clip-rule="evenodd" fill="white" stroke="none"/>
  <path d="M606.4935 1.5909 L606.4935 2.8896 L619.4805 15.8766 L620.7792 15.8766 L634.4156 2.2403 L634.4156 1.5909 L606.4935 1.5909 Z" fill-rule="evenodd" clip-rule="evenodd" fill="white" stroke="none"/>
  <path d="M650.6493 1.5909 L656.4935 8.0844 L662.3377 2.8896 L662.3377 1.5909 L650.6493 1.5909 Z" fill-rule="evenodd" clip-rule="evenodd" fill="white" stroke="none"/>
  <path d="M677.9221 1.5909 L683.7662 8.0844 L689.6104 2.8896 L689.6104 1.5909 L677.9221 1.5909 Z" fill-rule="evenodd" clip-rule="evenodd" fill="white" stroke="none"/>
  <path d="M279.8701 2.2403 L279.2208 2.2403 L276.6234 5.487 L277.9221 7.4351 L283.7662 12.6299 L283.7662 13.9286 L282.4675 14.5779 L281.1688 16.526 L278.5714 17.1754 L272.7273 10.6818 L270.7792 10.6818 L260.3896 20.4221 L260.3896 21.7208 L270.7792 32.1104 L272.0779 32.1104 L274.6753 28.8636 L267.5325 21.7208 L267.5325 20.4221 L268.8312 19.7727 L270.1299 17.8247 L272.0779 17.1754 L279.8701 24.3182 L290.2597 13.9286 L290.2597 12.6299 L279.8701 2.2403 Z" fill-rule="evenodd" clip-rule="evenodd" fill="white" stroke="none"/>
  <path d="M306.4935 2.2403 L296.1039 12.6299 L296.1039 13.9286 L306.4935 24.3182 L307.7922 24.3182 L314.2857 17.1754 L315.5844 17.1754 L318.8312 20.4221 L318.1818 23.0195 L312.3377 28.2143 L312.3377 30.1623 L314.2857 32.1104 L315.5844 32.1104 L325.974 21.0714 L315.5844 10.6818 L313.6364 10.6818 L307.7922 17.1754 L306.4935 17.1754 L302.5974 13.2792 L309.7403 5.487 L309.7403 4.8377 L306.4935 2.2403 Z" fill-rule="evenodd" clip-rule="evenodd" fill="white" stroke="none"/>
  <path d="M352.5974 2.2403 L349.3506 4.8377 L349.3506 6.1364 L356.4935 12.6299 L352.5974 17.1754 L350 15.8766 L345.4546 10.6818 L343.5065 10.6818 L333.1169 21.0714 L343.5065 32.1104 L344.8052 32.1104 L347.4026 29.513 L340.2597 21.7208 L340.2597 20.4221 L343.5065 17.1754 L344.8052 17.1754 L350 23.0195 L352.5974 24.3182 L362.987 13.9286 L362.987 12.6299 L352.5974 2.2403 Z" fill-rule="evenodd" clip-rule="evenodd" fill="white" stroke="none"/>
  <path d="M379.2208 2.2403 L368.1818 12.6299 L368.1818 13.2792 L379.2208 24.3182 L387.013 17.1754 L388.3117 17.1754 L389.6104 19.1234 L391.5584 20.4221 L391.5584 21.7208 L384.4156 28.8636 L387.013 32.1104 L388.3117 32.1104 L398.7013 21.0714 L388.3117 10.6818 L386.3636 10.6818 L380.5195 17.1754 L377.9221 16.526 L376.6234 14.5779 L375.3247 13.9286 L375.3247 12.6299 L382.4675 6.1364 L382.4675 4.8377 L379.2208 2.2403 Z" fill-rule="evenodd" clip-rule="evenodd" fill="white" stroke="none"/>
  <path d="M425.3247 2.2403 L423.3766 2.8896 L422.0779 4.8377 L422.0779 6.1364 L429.2208 13.2792 L425.3247 17.1754 L424.026 17.1754 L416.2338 10.0325 L415.5844 11.3312 L405.8442 20.4221 L405.8442 21.7208 L416.2338 32.1104 L417.5325 32.1104 L419.4805 30.1623 L419.4805 28.2143 L412.987 21.7208 L412.987 20.4221 L416.2338 17.1754 L417.5325 17.1754 L424.026 24.3182 L425.3247 24.3182 L435.7143 13.9286 L435.7143 12.6299 L425.3247 2.2403 Z" fill-rule="evenodd" clip-rule="evenodd" fill="white" stroke="none"/>
  <path d="M451.2987 2.2403 L440.9091 13.2792 L451.948 24.3182 L459.7403 17.1754 L461.6883 17.8247 L462.987 19.7727 L464.2857 20.4221 L464.2857 21.7208 L457.1429 28.8636 L459.7403 32.1104 L461.039 32.1104 L471.4286 21.0714 L461.039 10.6818 L459.0909 10.6818 L451.948 17.1754 L448.0519 12.6299 L455.1948 4.8377 L452.5974 2.2403 L451.2987 2.2403 Z" fill-rule="evenodd" clip-rule="evenodd" fill="white" stroke="none"/>
  <path d="M498.0519 2.2403 L496.7532 2.2403 L494.8052 4.1883 L494.8052 6.1364 L501.9481 12.6299 L498.0519 17.1754 L496.7532 17.1754 L488.961 10.0325 L484.4156 15.2273 L478.5714 20.4221 L478.5714 21.7208 L488.961 32.1104 L490.2597 32.1104 L492.2078 30.1623 L492.2078 28.8636 L485.7143 22.3701 L485.7143 20.4221 L488.961 17.1754 L490.9091 17.8247 L496.7532 24.3182 L498.0519 24.3182 L508.4416 13.9286 L508.4416 12.6299 L498.0519 2.2403 Z" fill-rule="evenodd" clip-rule="evenodd" fill="white" stroke="none"/>
  <path d="M524.6753 2.2403 L523.3767 2.8896 L513.6364 13.2792 L524.026 24.3182 L525.3247 24.3182 L533.1169 17.1754 L537.013 21.7208 L529.8701 28.8636 L529.8701 30.1623 L530.5195 30.1623 L531.8182 32.1104 L533.7663 32.1104 L544.1558 21.0714 L533.1169 10.0325 L525.3247 17.1754 L524.026 17.1754 L520.7792 13.9286 L520.7792 12.6299 L527.9221 5.487 L527.9221 4.8377 L524.6753 2.2403 Z" fill-rule="evenodd" clip-rule="evenodd" fill="white" stroke="none"/>
  <path d="M570.7792 2.2403 L569.4805 2.2403 L568.1818 3.539 L567.5324 6.1364 L574.6753 13.2792 L570.7792 17.1754 L569.4805 17.1754 L561.6883 10.0325 L560.3896 11.9805 L551.2987 20.4221 L551.2987 21.7208 L561.6883 32.1104 L562.987 32.1104 L564.935 30.1623 L564.935 28.8636 L558.4416 22.3701 L558.4416 20.4221 L561.6883 17.1754 L569.4805 24.3182 L570.7792 24.3182 L581.1688 13.9286 L581.1688 12.6299 L570.7792 2.2403 Z" fill-rule="evenodd" clip-rule="evenodd" fill="white" stroke="none"/>
  <path d="M596.7532 2.2403 L586.3637 13.2792 L591.5584 19.1234 L597.4026 24.3182 L605.8442 17.1754 L609.7403 21.7208 L602.5974 29.513 L604.5455 32.1104 L606.4935 32.1104 L616.8831 21.0714 L605.8442 10.0325 L598.0519 17.1754 L596.7532 17.1754 L593.5065 13.9286 L593.5065 12.6299 L600.6493 5.487 L598.0519 2.2403 L596.7532 2.2403 Z" fill-rule="evenodd" clip-rule="evenodd" fill="white" stroke="none"/>
  <path d="M643.5065 2.2403 L642.2078 2.2403 L640.2597 4.1883 L640.2597 6.1364 L646.7532 12.6299 L646.7532 13.9286 L643.5065 17.1754 L642.2078 17.1754 L634.4156 10.0325 L624.026 20.4221 L624.6753 23.0195 L625.974 23.6688 L634.4156 32.7598 L637.6623 30.1623 L637.6623 28.8636 L630.5195 21.7208 L634.4156 17.1754 L642.2078 24.3182 L643.5065 24.3182 L653.8961 13.9286 L653.8961 12.6299 L643.5065 2.2403 Z" fill-rule="evenodd" clip-rule="evenodd" fill="white" stroke="none"/>
  <path d="M669.4805 2.2403 L668.8312 3.539 L659.0909 12.6299 L659.0909 13.9286 L669.4805 24.3182 L670.7792 24.3182 L678.5714 17.1754 L682.4675 21.7208 L675.3247 28.8636 L675.3247 30.1623 L677.2727 32.1104 L679.2208 32.1104 L689.6104 21.0714 L678.5714 10.0325 L670.7792 17.1754 L669.4805 17.1754 L666.2338 13.9286 L666.2338 12.6299 L673.3766 5.487 L670.7792 2.2403 L669.4805 2.2403 Z" fill-rule="evenodd" clip-rule="evenodd" fill="white" stroke="none"/>
  <path d="M279.2208 32.7598 L279.2208 33.4091 L307.1429 33.4091 L293.5065 19.1234 L279.2208 32.7598 Z" fill-rule="evenodd" clip-rule="evenodd" fill="white" stroke="none"/>
  <path d="M351.948 32.7598 L351.948 33.4091 L379.8701 33.4091 L366.2338 19.1234 L351.948 32.7598 Z" fill-rule="evenodd" clip-rule="evenodd" fill="white" stroke="none"/>
  <path d="M424.6753 32.7598 L424.6753 33.4091 L452.5974 33.4091 L438.961 19.1234 L424.6753 32.7598 Z" fill-rule="evenodd" clip-rule="evenodd" fill="white" stroke="none"/>
  <path d="M497.4026 32.7598 L497.4026 33.4091 L525.3247 33.4091 L511.6883 19.1234 L497.4026 32.7598 Z" fill-rule="evenodd" clip-rule="evenodd" fill="white" stroke="none"/>
  <path d="M570.1299 32.7598 L570.1299 33.4091 L598.0519 33.4091 L584.4156 19.1234 L581.8182 20.4221 L570.1299 32.7598 Z" fill-rule="evenodd" clip-rule="evenodd" fill="white" stroke="none"/>
  <path d="M642.8571 32.7598 L642.8571 33.4091 L670.7792 33.4091 L657.1429 19.1234 L655.8442 19.1234 L642.8571 32.7598 Z" fill-rule="evenodd" clip-rule="evenodd" fill="white" stroke="none"/>
  <path d="M324.026 32.7598 L324.026 33.4091 L335.0649 33.4091 L329.8701 27.5649 L327.9221 28.2143 L324.026 32.7598 Z" fill-rule="evenodd" clip-rule="evenodd" fill="white" stroke="none"/>
  <path d="M396.7533 32.1104 L396.7533 33.4091 L407.7922 33.4091 L402.5974 27.5649 L401.2987 27.5649 L400.6493 28.8636 L396.7533 32.1104 Z" fill-rule="evenodd" clip-rule="evenodd" fill="white" stroke="none"/>
  <path d="M480.5195 32.7598 L474.6753 27.5649 L473.3767 28.2143 L468.8311 33.4091 L480.5195 33.4091 L480.5195 32.7598 Z" fill-rule="evenodd" clip-rule="evenodd" fill="white" stroke="none"/>
  <path d="M541.5584 32.7598 L541.5584 33.4091 L553.2467 33.4091 L548.0519 27.5649 L546.7532 27.5649 L541.5584 32.7598 Z" fill-rule="evenodd" clip-rule="evenodd" fill="white" stroke="none"/>
  <path d="M614.2857 32.7598 L614.2857 33.4091 L625.974 33.4091 L620.7792 27.5649 L619.4805 27.5649 L614.2857 32.7598 Z" fill-rule="evenodd" clip-rule="evenodd" fill="white" stroke="none"/>
</svg>
