<?xml version="1.0" encoding="UTF-8"?>
<svg width="950" height="35" viewBox="0 0 950 35" fill="none" xmlns="http://www.w3.org/2000/svg">
  <path d="M370.3 12 L367.36 17.5 L371.56 24.1 L400.96 26.74 L403.9 17.5 L400.12 9.14 L373.24 14.2 Z" fill-rule="evenodd" clip-rule="evenodd" fill="#FFFFFF" stroke="#000000" stroke-width="1.2" stroke-linejoin="round" stroke-linecap="round"/>
  <path d="M375 17.5 A10 10 0 1 0 395 17.5 A10 10 0 1 0 375 17.5 Z" fill-rule="evenodd" clip-rule="evenodd" fill="#E8E0F8" stroke="none"/>
  <path d="M380.5 17.5 A4.5 4.5 0 1 0 389.5 17.5 A4.5 4.5 0 1 0 380.5 17.5 Z" fill-rule="evenodd" clip-rule="evenodd" fill="#FFFFFF" stroke="none"/>
  <path d="M387 17.5 L393.5 17.5" fill-rule="evenodd" clip-rule="evenodd" fill="none" stroke="#D0C8E8" stroke-width="0.35" stroke-linejoin="round" stroke-linecap="round"/>
  <path d="M386.4142 18.9142 L391.0104 23.5104" fill-rule="evenodd" clip-rule="evenodd" fill="none" stroke="#D0C8E8" stroke-width="0.35" stroke-linejoin="round" stroke-linecap="round"/>
  <path d="M385 19.5 L385 26" fill-rule="evenodd" clip-rule="evenodd" fill="none" stroke="#D0C8E8" stroke-width="0.35" stroke-linejoin="round" stroke-linecap="round"/>
  <path d="M383.5858 18.9142 L378.9896 23.5104" fill-rule="evenodd" clip-rule="evenodd" fill="none" stroke="#D0C8E8" stroke-width="0.35" stroke-linejoin="round" stroke-linecap="round"/>
  <path d="M383 17.5 L376.5 17.5" fill-rule="evenodd" clip-rule="evenodd" fill="none" stroke="#D0C8E8" stroke-width="0.35" stroke-linejoin="round" stroke-linecap="round"/>
  <path d="M383.5858 16.0858 L378.9896 11.4896" fill-rule="evenodd" clip-rule="evenodd" fill="none" stroke="#D0C8E8" stroke-width="0.35" stroke-linejoin="round" stroke-linecap="round"/>
  <path d="M385 15.5 L385 9" fill-rule="evenodd" clip-rule="evenodd" fill="none" stroke="#D0C8E8" stroke-width="0.35" stroke-linejoin="round" stroke-linecap="round"/>
  <path d="M386.4142 16.0858 L391.0104 11.4896" fill-rule="evenodd" clip-rule="evenodd" fill="none" stroke="#D0C8E8" stroke-width="0.35" stroke-linejoin="round" stroke-linecap="round"/>
  <path d="M550.3 12 L547.36 17.5 L551.56 24.1 L580.96 26.74 L583.9 17.5 L580.12 9.14 L553.24 14.2 Z" fill-rule="evenodd" clip-rule="evenodd" fill="#FFFFFF" stroke="#000000" stroke-width="1.2" stroke-linejoin="round" stroke-linecap="round"/>
  <path d="M555 17.5 A10 10 0 1 0 575 17.5 A10 10 0 1 0 555 17.5 Z" fill-rule="evenodd" clip-rule="evenodd" fill="#E8E0F8" stroke="none"/>
  <path d="M560.5 17.5 A4.5 4.5 0 1 0 569.5 17.5 A4.5 4.5 0 1 0 560.5 17.5 Z" fill-rule="evenodd" clip-rule="evenodd" fill="#FFFFFF" stroke="none"/>
  <path d="M567 17.5 L573.5 17.5" fill-rule="evenodd" clip-rule="evenodd" fill="none" stroke="#D0C8E8" stroke-width="0.35" stroke-linejoin="round" stroke-linecap="round"/>
  <path d="M566.4142 18.9142 L571.0104 23.5104" fill-rule="evenodd" clip-rule="evenodd" fill="none" stroke="#D0C8E8" stroke-width="0.35" stroke-linejoin="round" stroke-linecap="round"/>
  <path d="M565 19.5 L565 26" fill-rule="evenodd" clip-rule="evenodd" fill="none" stroke="#D0C8E8" stroke-width="0.35" stroke-linejoin="round" stroke-linecap="round"/>
  <path d="M563.5858 18.9142 L558.9896 23.5104" fill-rule="evenodd" clip-rule="evenodd" fill="none" stroke="#D0C8E8" stroke-width="0.35" stroke-linejoin="round" stroke-linecap="round"/>
  <path d="M563 17.5 L556.5 17.5" fill-rule="evenodd" clip-rule="evenodd" fill="none" stroke="#D0C8E8" stroke-width="0.35" stroke-linejoin="round" stroke-linecap="round"/>
  <path d="M563.5858 16.0858 L558.9896 11.4896" fill-rule="evenodd" clip-rule="evenodd" fill="none" stroke="#D0C8E8" stroke-width="0.35" stroke-linejoin="round" stroke-linecap="round"/>
  <path d="M565 15.5 L565 9" fill-rule="evenodd" clip-rule="evenodd" fill="none" stroke="#D0C8E8" stroke-width="0.35" stroke-linejoin="round" stroke-linecap="round"/>
  <path d="M566.4142 16.0858 L571.0104 11.4896" fill-rule="evenodd" clip-rule="evenodd" fill="none" stroke="#D0C8E8" stroke-width="0.35" stroke-linejoin="round" stroke-linecap="round"/>
</svg>
