<?xml version="1.0" encoding="UTF-8"?>
<svg width="950" height="35" viewBox="0 0 950 35" fill="none" xmlns="http://www.w3.org/2000/svg">
  <path d="M329.1954 1.7422 C329.1954 2.4276 332.7018 4.2249 335.1563 4.7977 C337.2102 5.2769 339.4702 5.4716 344.5264 5.6047 C350.7761 5.7693 351.2843 5.8295 352.7126 6.5745 C357.3318 8.9842 351.1 10.4831 344.2707 8.6051 C340.1558 7.4734 337.3518 7.0471 334.0755 7.055 L331.4426 7.0613 L334.1813 7.6191 C335.6875 7.9259 338.4323 8.8137 340.2807 9.5921 C345.3586 11.7304 346.979 12.013 353.5078 11.899 C358.9901 11.8032 359.0507 11.8097 359.0507 12.4934 C359.0507 13.4312 355.2156 14.0421 350.2602 13.8938 C345.9118 13.7637 345.9833 14.0274 350.4784 14.6973 C352.8949 15.0575 354.7261 15.1351 357.3729 14.9895 C367.0903 14.455 366.6654 14.4505 368.5209 15.1078 C371.8242 16.2779 370.2433 17.957 365.2729 18.5575 C362.5608 18.8852 356.531 18.5246 345.8902 17.3982 C337.2077 16.4792 334.0436 15.6861 328.2323 12.9723 C323.5976 10.8079 322.7637 10.5422 319.6936 10.2516 C317.8223 10.0745 315.3432 9.9296 314.1845 9.9296 C313.0258 9.9296 310.7436 9.6265 309.1128 9.256 C306.6188 8.6895 306.2424 8.6617 306.7424 9.0809 C307.8298 9.9926 311.241 11.0627 314.4034 11.4841 C320.1094 12.2444 322.3346 13.2933 320.8618 14.5282 C319.7445 15.4649 316.8019 15.2549 310.9327 13.8193 C302.4137 11.7356 299.0973 11.8006 288.1043 14.2663 C279.505 16.195 274.3695 16.4524 267.9855 15.2746 C264.4612 14.6244 264.3088 14.618 265.4165 15.1673 C267.3743 16.138 271.6285 17.1107 275.2723 17.4207 C279.6187 17.7906 284.6219 17.4096 291.2542 16.2037 C297.5992 15.05 302.0703 14.9665 304.4235 15.9577 C307.4737 17.2425 306.1261 19.4195 301.9925 19.885 C301.138 19.9813 298.2953 19.7901 295.6753 19.4602 C289.2956 18.657 285.9087 18.6899 281.8627 19.5947 C278.4922 20.3483 275.4986 21.5176 278.1526 21.0438 C283.9003 20.0178 287.7362 20.1279 294.2038 21.5048 C297.8775 22.2869 299.4687 22.4616 302.9183 22.4616 C307.4282 22.4616 308.2772 22.2785 314.9603 19.8641 C318.1916 18.6967 320.3627 18.3851 322.7046 18.7523 C323.8874 18.9378 324.4417 19.2553 324.5897 19.832 C324.8816 20.9697 322.7289 21.901 318.0303 22.6697 C314.395 23.2645 309.934 24.6689 309.934 25.2186 C309.934 25.3553 310.9096 25.2088 312.1021 24.8931 C313.4007 24.5493 316.0399 24.2495 318.6831 24.1457 C324.6014 23.913 327.4496 23.1722 330.2485 21.1375 C331.4773 20.2442 333.2012 19.3665 334.0795 19.1869 C336.013 18.7916 339.4344 18.7686 340.7509 19.142 C341.5914 19.3805 341.5582 19.5434 340.4872 20.4358 C339.8133 20.9973 339.4088 21.5226 339.5885 21.6032 C339.7681 21.6838 341.1869 21.4366 342.7413 21.0538 C346.735 20.0704 349.1798 19.8998 351.9202 20.4136 C356.2915 21.2332 356.6973 23.4462 352.6165 24.2113 C350.8619 24.5402 349.7654 24.5623 347.3425 24.3173 C342.5234 23.8301 337.8248 23.9332 334.7897 24.5928 C333.302 24.9162 330.2066 26.0346 327.9114 27.0782 L323.7381 28.9757 L329.7239 27.5912 C336.5286 26.0174 340.1952 25.8153 343.9747 26.8057 C346.5392 27.4778 346.8347 27.7828 345.6348 28.519 C344.8834 28.9801 343.6413 29.1107 338.6249 29.2562 C330.6556 29.4872 327.2414 30.3294 323.8127 32.9099 C323.5459 33.1106 324.3986 32.9488 325.7076 32.5502 C329.3884 31.4294 332.483 31.1757 339.7589 31.3982 C349.4405 31.6943 352.508 30.9819 356.5307 27.5032 C357.7217 26.4733 359.0648 25.4249 359.5155 25.1735 C362.4922 23.5128 367.7184 24.0283 367.7184 25.9826 C367.7184 26.2763 366.2413 27.1599 364.4359 27.9461 C360.7263 29.5618 359.3688 30.7355 359.378 32.3195 L359.3842 33.4091 L360.9247 31.9247 C362.2532 30.6443 363.0907 30.2762 367.0152 29.2478 C372.4195 27.8315 373.4968 27.0588 373.4968 24.5986 C373.4968 22.3235 374.9155 21.2543 379.4196 20.1345 L382.8065 19.2926 L474.9577 19.2926 L567.1088 19.2926 L570.2355 20.0146 C574.8546 21.0812 575.9781 21.9206 576.423 24.6378 C576.8529 27.2623 577.8525 27.9533 582.8816 29.1021 C586.1485 29.8483 589.012 31.1992 589.616 32.2789 C590.0661 33.0834 591.1531 33.221 591.1478 32.4728 C591.1373 30.9989 589.5778 29.6762 585.972 28.0832 C583.8767 27.1576 582.1626 26.1888 582.1626 25.9304 C582.1626 25.2851 585.0418 24.0461 586.5413 24.0461 C588.6728 24.0461 590.8093 25.0769 593.7377 27.5183 C595.789 29.2284 597.2832 30.095 599.1192 30.6391 C601.5571 31.3617 602.0289 31.3924 610.6916 31.3924 C620.0309 31.3924 621.9955 31.5963 625.3404 32.9123 C626.0976 33.2102 626.464 33.2414 626.464 33.0079 C626.464 32.8173 625.0573 32.0302 623.3378 31.2586 C619.7168 29.6339 617.2266 29.2357 610.6729 29.2334 C605.9106 29.2317 603.9924 28.7926 603.9924 27.704 C603.9924 26.9917 607.7533 26.2434 611.3766 26.2349 C613.9839 26.2288 615.643 26.4794 620.2046 27.5682 C623.2942 28.3057 625.8221 28.8012 625.8221 28.6693 C625.8221 28.2031 617.8082 25.1081 615.2522 24.5871 C612.4656 24.0191 607.4651 23.9093 602.8006 24.3136 C599.2283 24.6233 597.0167 24.352 595.453 23.4122 C593.7558 22.3923 594.6405 21.1993 597.6101 20.5036 C600.3611 19.859 603.7282 20.0383 607.5008 21.0304 C608.9879 21.4214 610.4018 21.7414 610.6428 21.7414 C610.8838 21.7414 610.4714 21.2052 609.7263 20.5499 C608.116 19.1335 608.6046 18.8716 612.8699 18.8648 C615.9215 18.86 617.44 19.4011 620.8473 21.7071 C623.2959 23.3643 625.6819 23.9331 631.0294 24.1343 C633.8616 24.2408 636.3912 24.5257 637.7881 24.8956 C640.9472 25.7319 641.1588 25.6337 638.6753 24.4839 C637.3716 23.8804 634.7954 23.1874 632.2033 22.743 C629.8349 22.3369 627.4527 21.7833 626.9095 21.5129 C625.2959 20.7093 624.9456 19.5829 626.1425 19.0459 C628.3229 18.0676 632.265 18.6371 637.3789 20.6692 C643.1834 22.9758 647.52 23.1851 655.5965 21.5484 C661.6592 20.3197 665.3736 20.0934 669.6771 20.6904 C672.4812 21.0793 672.6858 21.0769 671.9243 20.6638 C670.5447 19.9153 664.8462 18.8668 662.0978 18.8557 C660.6854 18.8501 657.0375 19.1335 653.9914 19.4857 C648.6741 20.1005 648.385 20.1059 646.7392 19.622 C643.0698 18.5432 642.9782 16.6726 646.5453 15.6654 C649.2434 14.9036 652.7483 15.0651 659.3707 16.2563 C668.3139 17.8651 673.7174 18.0102 679.4983 16.797 C680.9466 16.4931 682.9326 15.8693 683.9114 15.4108 L685.6912 14.5773 L681.6318 15.313 C675.2403 16.4714 670.9954 16.217 661.0111 14.0772 C654.0458 12.5845 652.6431 12.3834 649.1782 12.381 C645.7231 12.3787 644.5323 12.546 639.3405 13.7635 C632.3308 15.4073 629.4918 15.5146 629.1437 14.1489 C628.9454 13.3713 631.007 11.9462 632.3304 11.9462 C633.9719 11.9462 640.1838 10.6377 641.8424 9.9425 C644.4869 8.834 644.3175 8.3714 641.5367 9.1076 C640.1877 9.4647 637.3369 9.8041 634.477 9.948 C628.102 10.2688 625.6804 10.8368 622.0107 12.8718 C616.9235 15.6929 613.2569 16.5053 599.5482 17.8485 C591.0863 18.6776 585.1203 18.8403 582.8824 18.3029 C580.569 17.7474 579.4665 16.7442 580.2079 15.8692 C581.0655 14.8571 583.6475 14.4415 587.6201 14.6761 C589.3857 14.7803 591.989 14.9352 593.4053 15.0201 C596.1904 15.1872 600.4416 14.7809 602.305 14.1695 C603.3048 13.8415 602.8983 13.8026 599.396 13.8911 C594.6261 14.0117 590.8304 13.3413 590.8304 12.3784 C590.8304 11.8454 591.1908 11.809 595.6404 11.8932 C602.6207 12.0253 603.9607 11.8332 608.5463 10.0432 C610.8088 9.16 613.9602 8.1191 615.5492 7.7301 L618.4384 7.0227 L614.8135 7.1558 C612.1525 7.2535 609.9186 7.6017 606.4121 8.4652 C601.2628 9.7333 600.4187 9.8174 597.9354 9.3097 C595.8236 8.8779 595.35 8.141 596.5276 7.1191 C597.8516 5.9703 600.0639 5.6086 605.7882 5.6054 C611.8187 5.602 616.387 4.7695 619.0847 3.1826 C620.0636 2.6066 620.7367 2.0779 620.5802 2.0077 C620.4237 1.9375 619.1889 2.2328 617.8363 2.6638 C615.4271 3.4315 615.1834 3.4475 605.8914 3.4475 L596.4059 3.4475 L593.6804 4.3118 C591.7493 4.9241 590.0902 5.8768 587.9889 7.5796 C584.232 10.6243 580.7279 11.5755 578.0888 10.267 C576.3913 9.4253 576.8057 8.8798 580.5197 7.0671 C584.0763 5.3312 585.0623 4.2446 584.6124 2.5567 C584.3927 1.7325 584.3751 1.7376 583.5195 2.8713 C582.4688 4.2635 580.2327 5.3856 576.6116 6.3378 C572.1545 7.5099 571.2478 8.243 571.2478 10.6751 C571.2478 13.2076 570.483 14.0587 567.4457 14.9062 L565.1483 15.5474 L474.9122 15.5474 C389.0193 15.5474 384.5911 15.5224 382.9081 15.0276 C379.7857 14.1095 378.6382 12.9055 378.6356 10.5439 C378.6332 8.4504 378.599 8.407 376.1397 7.3749 C374.7682 6.7993 372.3846 5.9364 370.8428 5.4571 C368.6754 4.7835 367.7972 4.2606 366.9716 3.1524 C365.9843 1.8269 365.8718 1.7757 365.479 2.4725 C364.7161 3.826 366.2713 5.5271 369.6753 7.0625 C373.2035 8.654 373.929 9.9394 371.6129 10.4956 C368.3526 11.2786 365.3711 10.4013 362.4904 7.8116 C360.1295 5.6892 357.9814 4.6008 354.626 3.8266 C352.3678 3.3056 351.3797 3.269 344.3532 3.4466 C335.8216 3.6621 333.9166 3.488 330.9611 2.2229 C329.99 1.8072 329.1954 1.5909 329.1954 1.7422 Z" fill-rule="evenodd" clip-rule="evenodd" fill="white" stroke="none"/>
</svg>
