<?xml version="1.0" encoding="UTF-8"?>
<svg width="950" height="35" viewBox="0 0 950 35" fill="none" xmlns="http://www.w3.org/2000/svg">
  <path d="M290.4546 3.005 L290.4546 5.8333 L292.5758 7.9545 L308.1313 12.197 L306.7172 15.0253 L307.4243 22.803 L303.8889 24.2172 L308.1313 24.2172 L311.6667 28.4596 L315.9091 27.7525 L320.8586 21.3889 L322.9798 24.9242 L324.3939 24.2172 L322.2727 22.0959 L324.3939 21.3889 L331.4647 31.9949 L333.5859 31.2879 L332.8788 27.0455 L340.6566 24.2172 L344.1919 27.7525 L342.7778 24.2172 L348.4344 20.6818 L344.1919 20.6818 L344.1919 13.6111 L347.7273 14.3182 L350.5556 17.1464 L349.8485 19.2676 L351.9697 19.2676 L351.2626 23.5101 L352.6768 19.2676 L354.798 19.9747 L354.0909 23.5101 L350.5556 27.7525 L342.0707 30.5808 L348.4344 33.4091 L356.9192 30.5808 L414.1919 29.8737 L593.0808 30.5808 L595.9091 32.702 L600.8586 33.4091 L607.2222 31.2879 L607.2222 29.8737 L605.101 30.5808 L600.1515 28.4596 L595.202 23.5101 L594.495 19.9747 L595.9091 18.5606 L598.0303 23.5101 L597.3233 19.9747 L598.7374 17.1464 L604.3939 12.904 L605.8081 20.6818 L600.1515 19.9747 L606.5151 24.2172 L605.8081 28.4596 L608.6364 24.2172 L616.4141 27.0455 L616.4141 31.9949 L617.8283 31.9949 L622.0707 24.9242 L620.6565 22.803 L622.0707 21.3889 L627.0202 22.0959 L624.1919 25.6313 L628.4343 21.3889 L634.798 28.4596 L637.6263 28.4596 L641.8687 24.2172 L645.4041 24.2172 L641.8687 22.803 L641.8687 11.4899 L647.5252 10.7828 L641.1617 10.0758 L638.3333 6.5404 L635.5051 5.8333 L628.4343 12.904 L627.0202 10.0758 L622.0707 9.3687 L616.4141 2.298 L615.707 8.6616 L606.5151 9.3687 L605.8081 11.4899 L598.7374 15.7323 L597.3233 15.0253 L597.3233 11.4899 L595.202 15.7323 L595.202 11.4899 L599.4444 6.5404 L607.2222 4.4192 L607.2222 3.005 L602.9798 1.5909 L597.3233 1.5909 L593.0808 3.7121 L446.0101 4.4192 L342.7778 3.005 L342.0707 4.4192 L347.7273 5.1263 L353.3838 10.0758 L354.798 15.0253 L353.3838 15.7323 L351.9697 12.197 L351.9697 15.0253 L350.5556 15.7323 L342.7778 9.3687 L333.5859 8.6616 L332.8788 2.298 L327.2222 9.3687 L323.6869 9.3687 L320.8586 12.904 L314.495 5.8333 L310.9596 6.5404 L308.1313 10.0758 L301.7677 10.0758 L296.1111 6.5404 L296.8182 1.5909 L290.4546 3.005 Z" fill-rule="evenodd" clip-rule="evenodd" fill="white" stroke="none"/>
  <path d="M659.5454 3.7121 L658.8384 3.005 L658.1313 3.005 L657.4242 2.298 L656.0101 2.298 L655.3031 1.5909 L652.4747 1.5909 L652.4747 2.298 L653.8889 3.7121 L653.8889 5.1263 L653.1818 5.8333 L653.1818 6.5404 L650.3536 9.3687 L648.9394 9.3687 L648.9394 10.0758 L651.7677 10.0758 L652.4747 9.3687 L653.8889 9.3687 L654.596 8.6616 L656.7172 7.9545 L659.5454 5.1263 L659.5454 3.7121 Z" fill-rule="evenodd" clip-rule="evenodd" fill="white" stroke="none"/>
  <path d="M356.2121 17.8535 L356.2121 16.4394 L359.0404 12.904 L359.0404 6.5404 L359.7475 5.8333 L445.3031 5.8333 L446.0101 5.1263 L450.9596 5.1263 L451.6667 5.8333 L590.2525 5.8333 L590.9596 6.5404 L590.2525 7.2475 L590.2525 12.197 L591.6667 15.0253 L593.7879 17.1464 L590.2525 22.0959 L590.2525 27.0455 L590.9596 27.7525 L589.5454 29.1666 L359.7475 29.1666 L359.0404 28.4596 L359.0404 22.0959 L356.2121 17.8535 Z" fill-rule="evenodd" clip-rule="evenodd" fill="white" stroke="none"/>
  <path d="M325.8081 10.0758 L326.5152 10.7828 L323.6869 13.6111 L322.9798 13.6111 L322.2727 12.904 L322.2727 12.197 L324.3939 10.0758 L325.8081 10.0758 Z" fill-rule="evenodd" clip-rule="evenodd" fill="white" stroke="none"/>
  <path d="M620.6565 11.4899 L621.3636 10.7828 L622.7778 10.7828 L623.4849 10.0758 L624.899 10.0758 L627.0202 12.197 L627.0202 12.904 L626.3131 13.6111 L625.6061 13.6111 L624.1919 12.197 L623.4849 12.197 L622.0707 13.6111 L620.6565 12.197 L620.6565 11.4899 Z" fill-rule="evenodd" clip-rule="evenodd" fill="white" stroke="none"/>
  <path d="M326.5152 12.904 L326.5152 11.4899 L327.2222 10.7828 L327.9293 10.7828 L328.6364 11.4899 L328.6364 12.197 L327.2222 13.6111 L326.5152 12.904 Z" fill-rule="evenodd" clip-rule="evenodd" fill="white" stroke="none"/>
  <path d="M339.2424 12.904 L339.9495 13.6111 L340.6566 13.6111 L341.3636 14.3182 L341.3636 15.0253 L340.6566 15.7323 L337.8283 15.7323 L337.8283 16.4394 L339.9495 16.4394 L340.6566 17.1464 L339.9495 17.8535 L337.8283 17.8535 L337.8283 18.5606 L338.5354 18.5606 L339.2424 19.2676 L340.6566 19.2676 L341.3636 19.9747 L341.3636 21.3889 L340.6566 22.0959 L339.9495 21.3889 L337.8283 21.3889 L337.1212 20.6818 L336.4141 20.6818 L335 18.5606 L335 15.7323 L337.1212 13.6111 L338.5354 13.6111 L339.2424 12.904 Z" fill-rule="evenodd" clip-rule="evenodd" fill="white" stroke="none"/>
  <path d="M324.3939 15.0253 L325.8081 13.6111 L326.5152 13.6111 L327.2222 14.3182 L327.9293 14.3182 L328.6364 15.0253 L328.6364 15.7323 L327.9293 16.4394 L325.101 16.4394 L324.3939 15.7323 L324.3939 15.0253 Z" fill-rule="evenodd" clip-rule="evenodd" fill="white" stroke="none"/>
  <path d="M612.1717 13.6111 L614.2929 15.7323 L614.2929 18.5606 L612.8788 20.6818 L608.6364 22.0959 L607.9293 21.3889 L608.6364 20.6818 L608.6364 19.9747 L609.3435 19.2676 L611.4646 18.5606 L611.4646 17.8535 L610.0505 17.8535 L609.3435 17.1464 L610.0505 16.4394 L611.4646 16.4394 L611.4646 15.7323 L608.6364 15.7323 L607.9293 15.0253 L609.3435 13.6111 L612.1717 13.6111 Z" fill-rule="evenodd" clip-rule="evenodd" fill="white" stroke="none"/>
  <path d="M620.6565 15.0253 L622.7778 13.6111 L624.1919 13.6111 L625.6061 15.7323 L624.899 16.4394 L621.3636 16.4394 L620.6565 15.7323 L620.6565 15.0253 Z" fill-rule="evenodd" clip-rule="evenodd" fill="white" stroke="none"/>
  <path d="M313.0808 17.1464 L314.495 15.7323 L315.9091 15.7323 L316.6162 15.0253 L320.1515 15.0253 L321.5657 16.4394 L321.5657 17.8535 L319.4444 19.9747 L318.7374 19.2676 L316.6162 19.2676 L315.9091 18.5606 L316.6162 17.8535 L318.0303 17.8535 L318.0303 17.1464 L316.6162 17.1464 L316.6162 17.8535 L315.9091 18.5606 L313.7879 18.5606 L313.0808 17.8535 L313.0808 17.1464 Z" fill-rule="evenodd" clip-rule="evenodd" fill="white" stroke="none"/>
  <path d="M627.7273 17.8535 L627.7273 16.4394 L629.1414 15.0253 L632.6768 15.0253 L633.3838 15.7323 L634.798 15.7323 L636.9192 17.1464 L635.5051 18.5606 L634.0909 18.5606 L633.3838 19.2676 L630.5556 19.2676 L629.8485 19.9747 L627.7273 17.8535 Z" fill-rule="evenodd" clip-rule="evenodd" fill="white" stroke="none"/>
  <path d="M327.2222 17.8535 L328.6364 19.2676 L328.6364 19.9747 L327.9293 20.6818 L327.9293 21.3889 L328.6364 22.0959 L328.6364 23.5101 L327.9293 24.2172 L326.5152 22.803 L326.5152 20.6818 L325.101 20.6818 L324.3939 19.9747 L324.3939 19.2676 L325.101 18.5606 L326.5152 18.5606 L327.2222 17.8535 Z" fill-rule="evenodd" clip-rule="evenodd" fill="white" stroke="none"/>
  <path d="M620.6565 19.2676 L621.3636 18.5606 L624.1919 18.5606 L624.899 19.2676 L624.899 19.9747 L624.1919 20.6818 L623.4849 20.6818 L622.7778 19.9747 L622.0707 19.9747 L621.3636 20.6818 L620.6565 19.9747 L620.6565 19.2676 Z" fill-rule="evenodd" clip-rule="evenodd" fill="white" stroke="none"/>
  <path d="M308.8384 22.0959 L309.5455 21.3889 L310.9596 22.803 L310.2525 23.5101 L309.5455 23.5101 L308.8384 22.803 L308.8384 22.0959 Z" fill-rule="evenodd" clip-rule="evenodd" fill="white" stroke="none"/>
  <path d="M639.7475 21.3889 L640.4546 22.0959 L640.4546 22.803 L639.7475 23.5101 L639.0404 23.5101 L638.3333 22.803 L639.7475 21.3889 Z" fill-rule="evenodd" clip-rule="evenodd" fill="white" stroke="none"/>
  <path d="M301.7677 24.2172 L298.9394 24.2172 L298.2323 24.9242 L296.1111 24.9242 L295.404 25.6313 L294.697 25.6313 L293.9899 26.3384 L291.8687 27.0455 L290.4546 28.4596 L290.4546 31.2879 L292.5758 32.702 L294.697 32.702 L295.404 33.4091 L296.8182 33.4091 L296.8182 31.9949 L295.404 30.5808 L295.404 29.8737 L296.1111 29.1666 L296.8182 27.0455 L297.5253 26.3384 L298.2323 26.3384 L299.6465 24.9242 L301.7677 24.9242 L301.7677 24.2172 Z" fill-rule="evenodd" clip-rule="evenodd" fill="white" stroke="none"/>
  <path d="M647.5252 24.2172 L647.5252 24.9242 L649.6465 24.9242 L653.1818 27.7525 L653.1818 28.4596 L653.8889 29.1666 L653.8889 30.5808 L652.4747 31.9949 L652.4747 33.4091 L653.8889 33.4091 L654.596 32.702 L656.7172 32.702 L657.4242 31.9949 L658.1313 31.9949 L659.5454 30.5808 L658.8384 28.4596 L657.4242 27.0455 L656.7172 27.0455 L653.1818 24.9242 L651.0606 24.9242 L650.3536 24.2172 L647.5252 24.2172 Z" fill-rule="evenodd" clip-rule="evenodd" fill="white" stroke="none"/>
</svg>
