<?xml version="1.0" encoding="UTF-8"?>
<svg xmlns="http://www.w3.org/2000/svg" viewBox="0 0 398.0313 28.0485" width="398.0313" height="28.0485">
  <path d="M7.6544 13.7221 L135.2286 13.9236" fill="none" stroke="#000000" stroke-width="0.35" stroke-linecap="round" stroke-linejoin="round"/>
  <path d="M262.8027 14.125 L390.3769 14.3264" fill="none" stroke="#000000" stroke-width="0.35" stroke-linecap="round" stroke-linejoin="round"/>
  <path d="M175.4145 13.987 C175.4018 11.4265 173.1069 9.3473 170.2886 9.3428 C167.4703 9.3384 165.1959 11.4104 165.2085 13.9709 C165.2212 16.5313 167.5161 18.6106 170.3344 18.615 C173.1527 18.6195 175.4271 16.5474 175.4145 13.987 Z" fill="#000000" fill-rule="evenodd" stroke="none"/>
  <path d="M232.8228 14.0776 C232.8101 11.5172 230.5152 9.4379 227.6969 9.4335 C224.8786 9.429 222.6042 11.5011 222.6169 14.0615 C222.6295 16.6219 224.9245 18.7012 227.7428 18.7057 C230.561 18.7101 232.8355 16.6381 232.8228 14.0776 Z" fill="#000000" fill-rule="evenodd" stroke="none"/>
  <path d="M159.4677 13.9618 C159.455 11.4014 157.1601 9.3221 154.3418 9.3177 C151.5235 9.3132 149.2491 11.3853 149.2617 13.9457 C149.2744 16.5061 151.5693 18.5854 154.3876 18.5898 C157.2059 18.5943 159.4803 16.5222 159.4677 13.9618 Z" fill="#000000" fill-rule="evenodd" stroke="none"/>
  <path d="M248.7696 14.1028 C248.7569 11.5424 246.462 9.4631 243.6437 9.4587 C240.8254 9.4542 238.551 11.5262 238.5637 14.0867 C238.5763 16.6471 240.8713 18.7264 243.6896 18.7309 C246.5078 18.7353 248.7823 16.6633 248.7696 14.1028 Z" fill="#000000" fill-rule="evenodd" stroke="none"/>
  <path d="M170.9494 13.98 C178.5465 2.4018 193.8554 2.4259 201.5672 14.0283 C193.97 25.6065 178.6611 25.5823 170.9494 13.98 Z" fill="#000000" fill-rule="evenodd" stroke="none"/>
  <path d="M196.4642 14.0203 C204.0613 2.4421 219.3702 2.4662 227.082 14.0686 C219.4848 25.6468 204.1759 25.6226 196.4642 14.0203 Z" fill="#000000" fill-rule="evenodd" stroke="none"/>
  <path d="M198.9526 1.2749 C208.1183 10.2139 203.2603 21.043 199.0787 26.7736 C194.8403 21.0297 189.8752 10.1851 198.9526 1.2749 Z" fill="#000000" fill-rule="evenodd" stroke="none"/>
</svg>
