<?xml version="1.0" encoding="UTF-8"?>
<svg width="950" height="35" viewBox="0 0 950 35" fill="none" xmlns="http://www.w3.org/2000/svg">
  <path d="M9.5 17.3285 L200.5388 17.3285" fill="none" stroke="white" stroke-width="0.5" stroke-linecap="round" stroke-linejoin="round"/>
  <path d="M758.0833 17.3285 L940.5 17.3285" fill="none" stroke="white" stroke-width="0.5" stroke-linecap="round" stroke-linejoin="round"/>
  <path d="M9.5 17.6714 L200.5388 17.6714" fill="none" stroke="white" stroke-width="0.5" stroke-linecap="round" stroke-linejoin="round"/>
  <path d="M758.0833 17.6714 L940.5 17.6714" fill="none" stroke="white" stroke-width="0.5" stroke-linecap="round" stroke-linejoin="round"/>
  <path d="M474.9214 1.5909 C486.3587 12.7452 480.2966 26.2582 475.0786 33.4091 C469.7899 26.2417 463.5941 12.7093 474.9214 1.5909 Z" fill-rule="evenodd" clip-rule="evenodd" fill="white" stroke="none"/>
  <path d="M438.2267 17.4419 C444.2979 5.7849 456.5557 5.8042 462.7422 17.4806 C456.671 29.1376 444.4133 29.1182 438.2267 17.4419 Z" fill-rule="evenodd" clip-rule="evenodd" fill="white" stroke="none"/>
  <path d="M487.2578 17.5193 C493.3291 5.8623 505.5869 5.8817 511.7734 17.558 C505.7022 29.2151 493.4444 29.1957 487.2578 17.5193 Z" fill-rule="evenodd" clip-rule="evenodd" fill="white" stroke="none"/>
  <path d="M426.5525 17.4235 C426.5424 15.3733 424.7048 13.7085 422.4482 13.7049 C420.1916 13.7013 418.3705 15.3604 418.3807 17.4106 C418.3908 19.4607 420.2283 21.1256 422.4849 21.1291 C424.7415 21.1327 426.5627 19.4736 426.5525 17.4235 Z" fill-rule="evenodd" clip-rule="evenodd" fill="white" stroke="none"/>
  <path d="M531.6194 17.5894 C531.6092 15.5392 529.7717 13.8743 527.5151 13.8708 C525.2585 13.8672 523.4374 15.5263 523.4475 17.5765 C523.4576 19.6266 525.2952 21.2915 527.5518 21.295 C529.8084 21.2986 531.6295 19.6395 531.6194 17.5894 Z" fill-rule="evenodd" clip-rule="evenodd" fill="white" stroke="none"/>
</svg>
