<?xml version="1.0" encoding="UTF-8"?>
<svg width="950" height="35" viewBox="0 0 950 35" fill="none" xmlns="http://www.w3.org/2000/svg">
  <path d="M376.578 2.0436 C376.578 2.6549 378.5398 4.5191 380.2285 5.5125 C381.131 6.0434 383.8934 7.0082 386.3671 7.6565 C390.9034 8.8453 391.9382 9.375 391.2641 10.1632 C390.1372 11.4809 385.9052 10.7376 378.8751 7.9873 C372.111 5.3411 369.6374 4.8724 362.4669 4.8782 C358.9603 4.881 355.4932 5.0572 353.9347 5.3119 L351.3094 5.7408 L357.0408 5.9448 C361.1888 6.0925 363.5422 6.3394 365.559 6.8386 C368.8746 7.6593 370.2095 8.888 368.5799 9.6191 C367.632 10.0445 367.1201 9.9924 362.7461 9.0255 C357.6075 7.8896 353.8069 7.5192 356.9062 8.4563 C357.7987 8.7262 360.3024 9.6999 362.4699 10.6201 C364.6374 11.5403 367.4408 12.5322 368.6998 12.8243 C371.3854 13.4475 380.3292 13.8458 379.5903 13.3093 C379.3348 13.1239 378.746 12.9721 378.2818 12.9721 C376.9736 12.9721 375.0611 11.8687 375.4933 11.3633 C376.1273 10.6219 379.9334 10.8164 383.1768 11.7558 C386.2079 12.6338 390.8117 14.635 390.3141 14.8582 C390.1573 14.9286 387.5498 15.2116 384.5196 15.4871 C373.8775 16.4547 368.5214 15.6333 358.7048 11.5282 C355.2483 10.0828 351.8385 8.7605 351.1276 8.5898 C349.0816 8.0985 344.1625 7.6793 342.5977 7.8628 L341.1693 8.0305 L342.5749 8.5412 C345.7725 9.703 341.8028 10.6838 336.8587 9.9535 C335.2406 9.7144 333.9167 9.5602 333.9167 9.6108 C333.9167 9.6613 334.9298 10.0494 336.1681 10.4732 C337.7331 11.0088 339.7668 11.3293 342.8381 11.5245 C347.9198 11.8474 350.1351 12.3884 354.2628 14.3146 L357.2163 15.6928 L352.91 15.5488 C347.4438 15.3661 344.2977 14.7252 336.5445 12.2149 C328.8274 9.7163 324.4195 8.8653 319.1493 8.8566 L315.2114 8.8501 L317.4694 9.365 C318.7113 9.6482 319.8276 10.0241 319.95 10.2004 C320.2633 10.6518 312.1571 12.2662 306.6791 12.8434 C303.5961 13.1682 300.4656 13.2799 297.1623 13.183 C292.5106 13.0467 292.3573 13.0613 294.3748 13.4484 C297.2288 13.9959 305.5071 14.5052 307.9785 14.2852 C309.0687 14.1882 313.2451 13.7868 317.2594 13.3932 C328.0418 12.3361 333.3268 12.5321 334.6015 14.0365 C335.3712 14.9449 334.8805 15.4652 332.8652 15.8772 C329.0948 16.6481 324.0718 16.0134 324.0718 14.7661 C324.0718 14.5195 323.4755 14.4539 322.2669 14.5676 C317.1972 15.0446 280.8491 16.8305 267.1212 17.2771 C263.7744 17.386 261.1162 17.5094 261.2143 17.5513 C261.3123 17.5933 268.9239 17.9085 278.1289 18.2517 C296.7923 18.9477 319.5046 19.9573 322.2669 20.2138 C323.6092 20.3384 324.0718 20.2665 324.0718 19.9329 C324.0718 18.299 333.7614 18.1343 334.9034 19.7488 C336.5103 22.0205 328.6421 22.7047 316.3181 21.365 C308.5614 20.5217 303.0227 20.4367 297.5473 21.0766 C291.4387 21.7905 291.5808 21.9612 298.1928 21.8523 C303.1569 21.7704 305.3257 21.8783 309.1255 22.3962 C314.6875 23.1543 320.1338 24.3349 320.1338 24.7826 C320.1338 24.956 319.2478 25.2478 318.1648 25.4312 C314.9747 25.9715 315.8837 26.3191 320.0442 26.1498 C325.1607 25.9416 328.8841 25.1609 336.542 22.6906 C344.3033 20.1869 347.9584 19.4314 353.2039 19.2466 L357.2163 19.1052 L353.2504 20.8672 C349.277 22.6325 346.3509 23.2743 342.2587 23.278 C340.1207 23.2799 335.8816 24.1875 334.5291 24.933 C333.6784 25.4018 333.714 25.429 334.9012 25.217 C338.3552 24.6004 340.4228 24.4624 342.049 24.7398 C344.1388 25.0963 344.2345 25.7094 342.3252 26.5076 L340.8888 27.1081 L343.3976 27.1081 C348.326 27.1081 350.8777 26.5068 357.4493 23.7971 C364.8512 20.745 368.1234 19.8015 373.1995 19.2556 C376.9536 18.852 381.9669 19.0258 388.6386 19.791 L391.1825 20.0828 L388.9668 21.1087 C385.1697 22.8667 380.9408 23.919 378.0958 23.8138 C374.7433 23.6899 374.6123 22.7631 377.8449 22.0391 C382.8142 20.9261 374.4358 21.0175 368.702 22.1389 C367.0776 22.4565 363.9765 23.4893 361.8106 24.4338 C359.6447 25.3783 357.282 26.2962 356.56 26.4734 C355.3291 26.7756 355.3536 26.7962 356.9533 26.8046 C357.8916 26.8096 360.5587 26.3613 362.8801 25.8085 C367.2861 24.7594 369.3584 24.782 369.3584 25.8792 C369.3584 27.5575 364.9133 28.5918 356.56 28.8574 L350.653 29.0452 L354.2179 29.5491 C359.2057 30.2542 366.8883 30.2089 370.6039 29.4525 C372.1914 29.1293 375.8833 27.9572 378.808 26.8478 C386.5602 23.9072 390.1186 23.2766 391.2824 24.6374 C391.9225 25.3859 390.4913 26.185 387.1492 26.9449 C381.2441 28.2876 378.1926 29.9516 376.8589 32.5563 C376.4223 33.4091 376.476 33.3976 378.4029 32.2269 C381.3475 30.4378 383.8089 29.7842 391.2286 28.8211 C398.4856 27.8792 402.386 26.9134 406.41 25.0622 C409.3221 23.7224 409.1988 23.6663 404.8608 24.3577 C399.8357 25.1585 396.4219 24.4024 399.4715 23.164 C401.0152 22.5371 411.9435 20.7698 418.9111 20.0201 C423.8545 19.4883 427.1372 19.4554 475.0271 19.4575 C531.0985 19.4601 527.7885 19.3632 541.5235 21.4033 C549.0894 22.5271 552.3218 23.443 551.6197 24.2639 C551.0971 24.8751 548.3154 24.8989 544.6803 24.3234 C543.191 24.0876 541.9725 24.0059 541.9725 24.1419 C541.9725 24.4733 546.5567 26.3143 549.6529 27.2263 C551.0238 27.6301 554.8037 28.3004 558.0525 28.7159 C566.5901 29.8077 567.3227 29.9788 570.5521 31.6353 C573.5868 33.1919 574.1518 33.1156 572.5253 31.369 C570.9009 29.6245 568.4168 28.4361 563.9383 27.2609 C559.4728 26.0891 558.1159 25.4044 558.7619 24.649 C559.8721 23.3508 563.4408 23.958 570.5423 26.6532 C577.7201 29.3774 581.0219 30.0466 587.304 30.0502 C590.1836 30.0519 593.7698 29.8412 595.8363 29.5491 L599.4011 29.0452 L593.4942 28.8639 C587.2007 28.6708 583.3032 28.0584 581.6576 27.0042 C579.41 25.5643 581.6084 24.4191 585.0146 25.2553 C590.4884 26.5992 591.6092 26.8129 593.1407 26.8046 C594.7114 26.7962 594.7316 26.7772 593.4942 26.4734 C592.7722 26.2962 590.4095 25.3783 588.2436 24.4338 C583.8999 22.5396 580.1588 21.6748 574.9832 21.3686 C570.7547 21.1185 569.2282 21.4424 572.0906 21.9824 C574.6802 22.471 575.4131 23.2299 573.8049 23.7576 C571.6274 24.472 567.5242 23.7197 562.5874 21.7008 C560.4246 20.8164 559.581 20.2847 560.0215 20.0838 C560.3824 19.9191 563.4409 19.5704 566.818 19.3088 C577.2354 18.5019 581.7372 19.2836 592.5936 23.7845 C599.1948 26.5212 601.7584 27.1226 606.6969 27.0926 C609.2053 27.0774 609.2225 27.0698 607.7693 26.615 C603.9838 25.4301 607.6684 24.1062 612.688 24.8477 C614.6262 25.134 615.459 25.1625 615.2938 24.9367 C614.8986 24.3966 610.0522 23.2897 608.0599 23.2844 C603.5185 23.2725 600.6033 22.6591 596.7208 20.8986 L592.879 19.1566 L595.9513 19.1566 C599.7777 19.1566 605.3081 20.0659 609.403 21.3684 C621.3679 25.1739 626.1745 26.2246 631.6196 26.2246 C634.1915 26.2246 634.612 25.7843 632.2899 25.5228 C631.4273 25.4256 630.5428 25.1373 630.3245 24.882 C630.0226 24.529 631.0665 24.1833 634.6823 23.4387 C641.0495 22.1277 645.5801 21.7204 652.3777 21.8479 C658.4903 21.9626 658.521 21.7795 652.5069 21.0766 C647.0315 20.4367 641.4928 20.5217 633.7361 21.365 C623.089 22.5224 616.2305 22.2413 615.2789 20.6084 C614.6884 19.5951 617.4514 18.5676 620.7668 18.5676 C622.94 18.5676 623.8548 18.7444 625.3179 19.4472 C627.0952 20.3009 627.2522 20.3184 630.6677 20.0429 C634.2519 19.7537 652.8269 18.9594 675.859 18.1104 C682.8958 17.851 688.7201 17.6088 688.8019 17.5721 C688.8838 17.5354 681.502 17.2062 672.398 16.8407 C655.4831 16.1614 630.5313 14.8931 627.6086 14.5639 C626.4012 14.4279 625.9824 14.4985 625.9824 14.8377 C625.9824 16.1533 618.9051 16.7164 616.2612 15.6112 C614.4574 14.8571 614.4667 14.6643 616.3544 13.6795 C618.6324 12.4912 623.0758 12.4215 632.5457 13.4253 C641.7159 14.3974 648.7277 14.4547 654.5326 13.605 L658.4706 13.0286 L653.4832 13.1871 C650.0567 13.2959 646.9754 13.1921 643.6382 12.8552 C638.5586 12.3424 630.3271 10.6812 630.3542 10.1744 C630.3628 10.0124 631.3763 9.6373 632.6063 9.3409 L634.8428 8.802 L629.9204 8.9268 C624.1177 9.074 620.7938 9.7406 613.4997 12.2202 C606.9587 14.4438 602.6615 15.315 597.2537 15.514 L592.8378 15.6764 L596.8037 13.9132 C600.8686 12.1061 603.6928 11.5046 608.1301 11.5013 C610.6126 11.4994 613.2996 10.946 615.0568 10.0748 L616.2701 9.4733 L613.0862 9.9242 C608.001 10.6445 604.054 9.5861 607.632 8.4616 C608.9681 8.0417 608.9678 8.0402 607.4997 7.8679 C605.8887 7.6789 600.9914 8.0939 598.8961 8.5971 C598.1684 8.7719 594.8054 10.0839 591.423 11.5127 C581.6834 15.6269 576.2507 16.4614 565.5439 15.4879 C562.5086 15.212 559.8951 14.9278 559.7361 14.8565 C559.1967 14.6145 565.2586 12.0431 567.7072 11.4753 C570.6669 10.7889 574.0228 10.7341 574.5609 11.3633 C574.9931 11.8687 573.0805 12.9721 571.7724 12.9721 C571.3082 12.9721 570.7186 13.1244 570.4623 13.3105 C570.122 13.5576 571.1334 13.6079 574.2102 13.4971 C579.4821 13.3072 583.9546 12.3159 587.9154 10.4593 C589.5398 9.6978 591.7549 8.8257 592.8378 8.5213 C596.3002 7.5481 592.6673 7.8532 587.4592 8.9731 C583.4178 9.8422 582.6107 9.9271 581.5858 9.5908 C579.7018 8.9726 581.1011 7.6787 584.5866 6.816 C586.7298 6.2855 588.9054 6.0579 593.1049 5.9246 L598.7448 5.7457 L596.1195 5.3103 C594.4856 5.0394 591.1395 4.875 587.2591 4.875 C579.8345 4.875 578.1326 5.2022 571.1791 7.9656 C564.1881 10.744 559.9261 11.4915 558.7718 10.1418 C558.1281 9.3891 559.5688 8.5929 562.9766 7.818 C567.0168 6.8994 570.6313 5.2998 572.225 3.7252 C574.168 1.8054 573.6868 1.5909 570.771 3.0773 C567.6333 4.6767 564.8787 5.3731 558.9976 6.0536 C553.6644 6.6708 548.3502 7.9418 544.7619 9.4584 C541.7654 10.7249 541.2936 11.0994 543.121 10.7608 C547.6966 9.913 551.8174 10.0555 551.8174 11.0615 C551.8174 11.9018 546.3384 12.9506 533.3117 14.6038 L527.6043 15.3281 L474.8079 15.3281 L422.0114 15.3281 L416.1951 14.5736 C400.5105 12.5389 395.5802 11.2748 399.5811 10.314 C400.5932 10.071 401.7635 10.1014 404.3156 10.4371 C406.1802 10.6823 407.8638 10.8121 408.0571 10.7253 C408.6651 10.4525 402.6624 8.2793 398.8406 7.3887 C396.8264 6.9193 393.2999 6.3168 391.0041 6.0499 C385.1701 5.3715 382.4115 4.6719 379.2832 3.0773 C377.7953 2.3188 376.578 1.8537 376.578 2.0436 Z" fill-rule="evenodd" clip-rule="evenodd" fill="white" stroke="none"/>
</svg>
