<?xml version="1.0" encoding="UTF-8"?>
<svg width="950" height="35" viewBox="0 0 950 35" fill="none" xmlns="http://www.w3.org/2000/svg">
  <path d="M306 17.5 L285.1855 20.6443 L291.134 22.5741 L299.5165 24.0072 L309.5125 24.8033 L320.1436 24.8845 L330.369 24.2429 L339.1879 22.9413 L345.7371 21.107 L352 17.5 L346.8145 14.3557 L340.866 12.4259 L332.4835 10.9928 L322.4875 10.1967 L311.8564 10.1155 L301.631 10.7571 L292.8121 12.0587 L286.2629 13.893 Z" fill-rule="evenodd" clip-rule="evenodd" fill="white" stroke="none"/>
  <path d="M348 17.5 L345.8 19.7 L343.6 17.5 L345.8 15.3 Z" fill-rule="evenodd" clip-rule="evenodd" fill="white" stroke="none"/>
  <path d="M644 17.5 L664.8145 20.6443 L658.866 22.5741 L650.4835 24.0072 L640.4875 24.8033 L629.8564 24.8845 L619.631 24.2429 L610.8121 22.9413 L604.2629 21.107 L598 17.5 L603.1855 14.3557 L609.134 12.4259 L617.5165 10.9928 L627.5125 10.1967 L638.1436 10.1155 L648.369 10.7571 L657.1879 12.0587 L663.7371 13.893 Z" fill-rule="evenodd" clip-rule="evenodd" fill="white" stroke="none"/>
  <path d="M602 17.5 L604.2 19.7 L606.4 17.5 L604.2 15.3 Z" fill-rule="evenodd" clip-rule="evenodd" fill="white" stroke="none"/>
  <path d="M9.5 17.5 L352 17.5" fill="none" stroke="white" stroke-width="1.2" stroke-linecap="round" stroke-linejoin="round"/>
  <path d="M598 17.5 L940.5 17.5" fill="none" stroke="white" stroke-width="1.2" stroke-linecap="round" stroke-linejoin="round"/>
</svg>
