<?xml version="1.0" encoding="UTF-8"?>
<svg width="950" height="35" viewBox="0 0 950 35" fill="none" xmlns="http://www.w3.org/2000/svg">
  <path d="M353.317 1.5909 L351.5971 1.5909 L351.5971 3.3108 L349.8772 5.0307 L349.8772 5.8907 L347.2973 8.4705 L347.2973 9.3305 L344.7175 11.9103 L344.7175 12.7703 L342.1376 15.3501 L342.1376 16.2101 L339.5578 18.7899 L337.8379 22.2297 L334.398 25.6695 L333.5382 27.3894 L331.8182 27.3894 L330.9583 26.5295 L330.9583 25.6695 L321.4988 16.2101 L321.4988 15.3501 L309.4595 2.4509 L308.5995 2.4509 L308.5995 5.0307 L320.6389 17.93 L320.6389 18.7899 L326.6585 24.8096 L327.5185 24.8096 L330.0983 27.3894 L330.9583 29.1093 L333.5382 29.1093 L336.978 25.6695 L336.978 24.8096 L339.5578 22.2297 L339.5578 21.3698 L342.1376 18.7899 L342.1376 17.93 L344.7175 15.3501 L344.7175 14.4902 L352.457 5.0307 L353.317 3.3108 L353.317 1.5909 Z" fill-rule="evenodd" clip-rule="evenodd" fill="white" stroke="none"/>
  <path d="M345.5774 5.8907 L345.5774 3.3108 L343.8576 1.5909 L342.9976 1.5909 L342.1376 2.4509 L342.9976 4.1708 L342.9976 5.8907 L339.5578 9.3305 L339.5578 10.1904 L336.978 12.7703 L336.978 13.6302 L331.8182 18.7899 L326.6585 13.6302 L326.6585 12.7703 L316.3391 2.4509 L314.6192 2.4509 L314.6192 4.1708 L331.8182 21.3698 L333.5382 21.3698 L333.5382 20.5098 L336.978 17.07 L336.978 16.2101 L339.5578 13.6302 L339.5578 12.7703 L345.5774 5.8907 Z" fill-rule="evenodd" clip-rule="evenodd" fill="white" stroke="none"/>
  <path d="M405.774 1.5909 L404.0541 1.5909 L403.1941 2.4509 L403.1941 4.1708 L398.0345 10.1904 L396.3145 13.6302 L393.7347 16.2101 L393.7347 17.07 L391.1548 19.6499 L391.1548 20.5098 L388.575 23.0897 L388.575 23.9496 L385.1352 27.3894 L384.2752 27.3894 L376.5357 19.6499 L376.5357 18.7899 L372.2359 14.4902 L372.2359 13.6302 L364.4963 5.8907 L364.4963 5.0307 L361.9165 2.4509 L360.1966 2.4509 L360.1966 4.1708 L362.7765 6.7506 L362.7765 7.6106 L371.376 16.2101 L371.376 17.07 L383.4153 29.1093 L385.9951 29.1093 L390.2949 23.9496 L390.2949 23.0897 L393.7347 19.6499 L393.7347 18.7899 L396.3145 16.2101 L396.3145 15.3501 L398.8944 12.7703 L398.8944 11.9103 L401.4743 9.3305 L401.4743 8.4705 L404.9141 4.1708 L405.774 1.5909 Z" fill-rule="evenodd" clip-rule="evenodd" fill="white" stroke="none"/>
  <path d="M398.0345 5.0307 L398.0345 3.3108 L396.3145 1.5909 L394.5946 1.5909 L394.5946 3.3108 L395.4545 5.0307 L384.2752 18.7899 L373.9558 8.4705 L373.9558 7.6106 L368.7961 2.4509 L367.0762 2.4509 L367.0762 4.1708 L383.4153 21.3698 L385.1352 21.3698 L387.715 18.7899 L387.715 17.93 L390.2949 15.3501 L390.2949 14.4902 L393.7347 11.0504 L395.4545 7.6106 L398.0345 5.0307 Z" fill-rule="evenodd" clip-rule="evenodd" fill="white" stroke="none"/>
  <path d="M457.371 1.5909 L455.6511 1.5909 L455.6511 3.3108 L454.7912 5.0307 L451.3514 8.4705 L451.3514 9.3305 L448.7715 11.9103 L447.9115 14.4902 L444.4718 17.93 L444.4718 18.7899 L441.8919 21.3698 L441.8919 22.2297 L437.5922 27.3894 L436.7322 27.3894 L426.4128 17.07 L426.4128 16.2101 L413.5135 2.4509 L412.6536 2.4509 L412.6536 5.0307 L419.5332 11.9103 L419.5332 12.7703 L427.2728 20.5098 L427.2728 21.3698 L429.8526 23.9496 L430.7125 23.9496 L435.8723 29.1093 L438.4522 29.1093 L439.3121 27.3894 L441.8919 24.8096 L441.8919 23.9496 L444.4718 21.3698 L444.4718 20.5098 L447.0516 17.93 L447.0516 17.07 L449.6315 14.4902 L449.6315 13.6302 L452.2114 11.0504 L452.2114 10.1904 L454.7912 7.6106 L454.7912 6.7506 L457.371 3.3108 L457.371 1.5909 Z" fill-rule="evenodd" clip-rule="evenodd" fill="white" stroke="none"/>
  <path d="M449.6315 3.3108 L447.9115 1.5909 L447.0516 1.5909 L447.0516 5.8907 L444.4718 8.4705 L444.4718 9.3305 L441.0319 12.7703 L441.0319 13.6302 L437.5922 17.07 L436.7322 18.7899 L435.0123 17.93 L434.1523 16.2101 L420.3932 2.4509 L419.5332 2.4509 L419.5332 5.0307 L435.8723 21.3698 L437.5922 21.3698 L438.4522 19.6499 L444.4718 12.7703 L444.4718 11.9103 L447.0516 9.3305 L447.0516 8.4705 L449.6315 5.8907 L449.6315 3.3108 Z" fill-rule="evenodd" clip-rule="evenodd" fill="white" stroke="none"/>
  <path d="M441.8919 3.3108 L440.1721 1.5909 L439.3121 1.5909 L439.3121 5.0307 L435.8723 10.1904 L434.1523 10.1904 L430.7125 6.7506 L430.7125 5.8907 L428.1327 3.3108 L428.1327 2.4509 L426.4128 2.4509 L426.4128 5.0307 L434.1523 12.7703 L435.8723 12.7703 L441.8919 5.8907 L441.8919 3.3108 Z" fill-rule="evenodd" clip-rule="evenodd" fill="white" stroke="none"/>
  <path d="M509.8281 1.5909 L508.1081 1.5909 L507.2482 2.4509 L507.2482 4.1708 L505.5283 5.8907 L505.5283 6.7506 L500.3686 12.7703 L500.3686 13.6302 L496.0689 18.7899 L496.0689 19.6499 L489.1892 27.3894 L488.3293 27.3894 L486.6093 25.6695 L486.6093 24.8096 L477.1499 15.3501 L477.1499 14.4902 L469.4104 6.7506 L469.4104 5.8907 L465.9706 2.4509 L464.2507 2.4509 L464.2507 4.1708 L476.29 17.07 L476.29 17.93 L487.4693 29.1093 L490.0492 29.1093 L492.629 26.5295 L492.629 25.6695 L495.2089 23.0897 L495.2089 22.2297 L497.7888 19.6499 L497.7888 18.7899 L501.2285 15.3501 L502.9485 11.9103 L506.3882 8.4705 L506.3882 7.6106 L509.8281 3.3108 L509.8281 1.5909 Z" fill-rule="evenodd" clip-rule="evenodd" fill="white" stroke="none"/>
  <path d="M502.0885 5.0307 L502.0885 3.3108 L500.3686 1.5909 L498.6486 1.5909 L498.6486 3.3108 L499.5086 4.1708 L498.6486 6.7506 L488.3293 18.7899 L472.8501 2.4509 L471.1303 2.4509 L471.1303 4.1708 L478.8698 11.9103 L478.8698 12.7703 L480.5897 14.4902 L481.4497 14.4902 L482.3096 16.2101 L486.6093 20.5098 L489.1892 21.3698 L492.629 17.93 L492.629 17.07 L498.6486 10.1904 L498.6486 9.3305 L501.2285 6.7506 L502.0885 5.0307 Z" fill-rule="evenodd" clip-rule="evenodd" fill="white" stroke="none"/>
  <path d="M561.4251 1.5909 L559.7052 1.5909 L559.7052 3.3108 L558.8452 5.0307 L556.2654 7.6106 L556.2654 8.4705 L553.6855 11.0504 L551.9656 14.4902 L549.3858 17.07 L549.3858 17.93 L541.6463 27.3894 L540.7863 27.3894 L532.1867 18.7899 L532.1867 17.93 L527.0271 12.7703 L527.0271 11.9103 L517.5676 2.4509 L516.7077 2.4509 L516.7077 4.1708 L517.5676 5.8907 L524.4472 12.7703 L524.4472 13.6302 L531.3268 20.5098 L531.3268 21.3698 L532.1867 21.3698 L539.9263 29.1093 L542.5062 29.1093 L543.3661 27.3894 L545.946 24.8096 L545.946 23.9496 L549.3858 20.5098 L549.3858 19.6499 L554.5455 13.6302 L554.5455 12.7703 L557.1253 10.1904 L557.1253 9.3305 L559.7052 6.7506 L561.4251 3.3108 L561.4251 1.5909 Z" fill-rule="evenodd" clip-rule="evenodd" fill="white" stroke="none"/>
  <path d="M554.5455 5.0307 L553.6855 2.4509 L551.1057 1.5909 L551.1057 5.8907 L548.5259 8.4705 L548.5259 9.3305 L540.7863 18.7899 L538.2064 17.07 L538.2064 16.2101 L527.0271 5.0307 L527.0271 4.1708 L525.3071 2.4509 L523.5873 2.4509 L523.5873 4.1708 L527.887 8.4705 L527.887 9.3305 L539.9263 21.3698 L541.6463 21.3698 L542.5062 20.5098 L542.5062 19.6499 L545.946 16.2101 L545.946 15.3501 L549.3858 11.9103 L549.3858 11.0504 L554.5455 5.0307 Z" fill-rule="evenodd" clip-rule="evenodd" fill="white" stroke="none"/>
  <path d="M613.8822 1.5909 L612.1622 1.5909 L612.1622 3.3108 L610.4423 5.0307 L610.4423 5.8907 L607.8624 8.4705 L607.8624 9.3305 L605.2826 11.9103 L605.2826 12.7703 L602.7027 15.3501 L602.7027 16.2101 L600.1229 18.7899 L600.1229 19.6499 L597.543 22.2297 L597.543 23.0897 L594.9631 25.6695 L594.1033 27.3894 L592.3833 27.3894 L591.5234 26.5295 L591.5234 25.6695 L581.204 15.3501 L581.204 14.4902 L573.4644 6.7506 L573.4644 5.8907 L570.0246 2.4509 L568.3047 2.4509 L568.3047 4.1708 L574.3244 10.1904 L574.3244 11.0504 L580.344 17.07 L580.344 17.93 L588.0836 25.6695 L588.9435 25.6695 L591.5234 29.1093 L594.1033 29.1093 L597.543 25.6695 L597.543 24.8096 L600.1229 22.2297 L601.8428 18.7899 L605.2826 15.3501 L605.2826 14.4902 L610.4423 8.4705 L610.4423 7.6106 L613.8822 3.3108 L613.8822 1.5909 Z" fill-rule="evenodd" clip-rule="evenodd" fill="white" stroke="none"/>
  <path d="M606.1425 5.8907 L606.1425 3.3108 L604.4226 1.5909 L602.7027 1.5909 L602.7027 3.3108 L603.5627 4.1708 L602.7027 6.7506 L596.683 13.6302 L596.683 14.4902 L592.3833 18.7899 L576.9042 2.4509 L575.1843 2.4509 L575.1843 4.1708 L583.7838 12.7703 L583.7838 13.6302 L584.6438 13.6302 L592.3833 21.3698 L594.1033 21.3698 L594.1033 20.5098 L596.683 17.93 L596.683 17.07 L600.1229 13.6302 L600.1229 12.7703 L602.7027 10.1904 L602.7027 9.3305 L606.1425 5.8907 Z" fill-rule="evenodd" clip-rule="evenodd" fill="white" stroke="none"/>
  <path d="M666.339 1.5909 L663.7592 1.5909 L663.7592 4.1708 L656.0197 13.6302 L656.0197 14.4902 L651.72 19.6499 L651.72 20.5098 L645.7003 27.3894 L644.8403 27.3894 L636.2408 18.7899 L636.2408 17.93 L631.9411 13.6302 L631.9411 12.7703 L622.4816 3.3108 L622.4816 2.4509 L620.7616 2.4509 L620.7616 4.1708 L623.3416 6.7506 L623.3416 7.6106 L630.2212 14.4902 L630.2212 15.3501 L643.9804 29.1093 L646.5602 29.1093 L650.86 23.9496 L650.86 23.0897 L653.4398 20.5098 L653.4398 19.6499 L656.0197 17.07 L656.0197 16.2101 L659.4594 12.7703 L661.1794 9.3305 L665.4791 4.1708 L666.339 1.5909 Z" fill-rule="evenodd" clip-rule="evenodd" fill="white" stroke="none"/>
  <path d="M658.5996 5.0307 L658.5996 3.3108 L656.8796 1.5909 L655.1597 1.5909 L655.1597 3.3108 L656.0197 5.0307 L644.8403 18.7899 L634.5209 8.4705 L634.5209 7.6106 L629.3612 2.4509 L627.6412 2.4509 L627.6412 4.1708 L643.9804 21.3698 L645.7003 21.3698 L647.4202 19.6499 L647.4202 18.7899 L650.86 15.3501 L650.86 14.4902 L658.5996 5.0307 Z" fill-rule="evenodd" clip-rule="evenodd" fill="white" stroke="none"/>
  <path d="M321.4988 3.3108 L321.4988 4.1708 L330.0983 12.7703 L331.8182 12.7703 L333.5382 11.0504 L333.5382 10.1904 L337.8379 5.8907 L337.8379 3.3108 L336.978 2.4509 L334.398 2.4509 L335.258 4.1708 L334.398 6.7506 L330.9583 10.1904 L330.0983 10.1904 L328.3784 8.4705 L330.0983 7.6106 L332.6782 5.0307 L332.6782 3.3108 L331.8182 2.4509 L330.0983 2.4509 L330.0983 5.0307 L328.3784 8.4705 L325.7986 5.8907 L324.0787 2.4509 L322.3588 2.4509 L321.4988 3.3108 Z" fill-rule="evenodd" clip-rule="evenodd" fill="white" stroke="none"/>
  <path d="M373.9558 2.4509 L373.9558 4.1708 L381.6954 12.7703 L383.4153 12.7703 L389.4349 6.7506 L390.2949 5.0307 L389.4349 2.4509 L386.8551 2.4509 L386.8551 5.8907 L385.9951 7.6106 L383.4153 10.1904 L381.6954 10.1904 L380.8354 8.4705 L384.2752 5.8907 L384.2752 2.4509 L381.6954 2.4509 L382.5553 4.1708 L381.6954 5.0307 L381.6954 7.6106 L380.8354 8.4705 L376.5357 4.1708 L375.6757 2.4509 L373.9558 2.4509 Z" fill-rule="evenodd" clip-rule="evenodd" fill="white" stroke="none"/>
  <path d="M434.1523 2.4509 L434.1523 5.0307 L433.2925 6.7506 L435.8723 6.7506 L436.7322 5.0307 L436.7322 3.3108 L435.8723 2.4509 L434.1523 2.4509 Z" fill-rule="evenodd" clip-rule="evenodd" fill="white" stroke="none"/>
  <path d="M478.0099 2.4509 L478.0099 4.1708 L484.0296 10.1904 L484.0296 11.0504 L485.7494 12.7703 L488.3293 12.7703 L488.3293 11.9103 L493.4889 6.7506 L494.3489 5.0307 L494.3489 3.3108 L493.4889 2.4509 L490.9092 2.4509 L491.769 5.0307 L490.0492 6.7506 L490.0492 7.6106 L487.4693 10.1904 L486.6093 10.1904 L480.5897 4.1708 L479.7297 2.4509 L478.0099 2.4509 Z" fill-rule="evenodd" clip-rule="evenodd" fill="white" stroke="none"/>
  <path d="M488.3293 2.4509 L486.6093 2.4509 L486.6093 5.0307 L485.7494 6.7506 L487.4693 6.7506 L488.3293 5.8907 L488.3293 2.4509 Z" fill-rule="evenodd" clip-rule="evenodd" fill="white" stroke="none"/>
  <path d="M530.4668 2.4509 L530.4668 4.1708 L532.1867 5.8907 L532.1867 6.7506 L538.2064 12.7703 L539.9263 12.7703 L544.226 8.4705 L544.226 7.6106 L545.946 5.8907 L545.946 3.3108 L545.086 2.4509 L543.3661 2.4509 L543.3661 5.8907 L539.9263 10.1904 L538.2064 10.1904 L537.3464 8.4705 L532.1867 3.3108 L532.1867 2.4509 L530.4668 2.4509 Z" fill-rule="evenodd" clip-rule="evenodd" fill="white" stroke="none"/>
  <path d="M538.2064 2.4509 L538.2064 6.7506 L539.9263 6.7506 L540.7863 5.0307 L540.7863 3.3108 L539.9263 2.4509 L538.2064 2.4509 Z" fill-rule="evenodd" clip-rule="evenodd" fill="white" stroke="none"/>
  <path d="M582.0639 2.4509 L582.0639 4.1708 L590.6634 12.7703 L592.3833 12.7703 L594.1033 11.0504 L594.1033 10.1904 L598.403 5.8907 L598.403 3.3108 L597.543 2.4509 L594.9631 2.4509 L595.8231 4.1708 L594.9631 6.7506 L591.5234 10.1904 L590.6634 10.1904 L588.9435 8.4705 L590.6634 7.6106 L593.2433 5.0307 L593.2433 3.3108 L592.3833 2.4509 L590.6634 2.4509 L590.6634 4.1708 L589.8034 5.0307 L589.8034 7.6106 L588.9435 8.4705 L583.7838 2.4509 L582.0639 2.4509 Z" fill-rule="evenodd" clip-rule="evenodd" fill="white" stroke="none"/>
  <path d="M634.5209 2.4509 L634.5209 4.1708 L642.2605 12.7703 L643.9804 12.7703 L649.1401 7.6106 L649.1401 6.7506 L650.86 5.0307 L650 2.4509 L647.4202 2.4509 L647.4202 5.8907 L643.1204 11.0504 L641.4005 9.3305 L641.4005 8.4705 L644.8403 5.8907 L644.8403 3.3108 L643.9804 2.4509 L642.2605 2.4509 L642.2605 7.6106 L641.4005 8.4705 L637.1008 4.1708 L636.2408 2.4509 L634.5209 2.4509 Z" fill-rule="evenodd" clip-rule="evenodd" fill="white" stroke="none"/>
  <path d="M283.661 31.6892 L283.661 33.4091 L285.3809 33.4091 L285.3809 31.6892 L286.2408 29.9693 L289.6806 26.5295 L291.4005 23.0897 L293.9804 20.5098 L293.9804 19.6499 L296.5602 17.07 L296.5602 16.2101 L299.1401 13.6302 L299.1401 12.7703 L302.5799 9.3305 L302.5799 8.4705 L304.2998 7.6106 L312.8993 16.2101 L312.8993 17.07 L317.1991 21.3698 L317.1991 22.2297 L326.6585 31.6892 L326.6585 32.5491 L328.3784 32.5491 L328.3784 30.8292 L325.7986 28.2494 L325.7986 27.3894 L318.919 20.5098 L318.919 19.6499 L305.1598 5.8907 L303.4398 5.8907 L301.7199 6.7506 L301.7199 7.6106 L299.1401 10.1904 L299.1401 11.0504 L296.5602 13.6302 L296.5602 14.4902 L293.9804 17.07 L292.2605 20.5098 L288.8207 23.9496 L288.8207 24.8096 L286.2408 27.3894 L286.2408 28.2494 L283.661 31.6892 Z" fill-rule="evenodd" clip-rule="evenodd" fill="white" stroke="none"/>
  <path d="M335.258 31.6892 L335.258 33.4091 L336.978 33.4091 L337.8379 32.5491 L337.8379 30.8292 L340.4178 28.2494 L340.4178 27.3894 L342.9976 24.8096 L342.9976 23.9496 L350.7371 14.4902 L352.457 11.0504 L355.8968 7.6106 L356.7568 7.6106 L357.6167 9.3305 L375.6757 28.2494 L375.6757 29.1093 L379.1155 32.5491 L380.8354 32.5491 L380.8354 30.8292 L367.9362 17.07 L367.9362 16.2101 L361.9165 10.1904 L361.0565 10.1904 L357.6167 5.8907 L355.0369 5.8907 L353.317 7.6106 L353.317 8.4705 L347.2973 15.3501 L347.2973 16.2101 L339.5578 25.6695 L337.8379 29.1093 L335.258 31.6892 Z" fill-rule="evenodd" clip-rule="evenodd" fill="white" stroke="none"/>
  <path d="M387.715 31.6892 L387.715 33.4091 L389.4349 33.4091 L389.4349 31.6892 L393.7347 26.5295 L393.7347 25.6695 L396.3145 23.0897 L398.0345 19.6499 L404.0541 12.7703 L404.0541 11.9103 L406.6339 9.3305 L406.6339 8.4705 L408.3538 7.6106 L417.8133 17.07 L417.8133 17.93 L422.1131 22.2297 L422.1131 23.0897 L431.5725 32.5491 L433.2925 32.5491 L431.5725 29.1093 L423.833 21.3698 L423.833 20.5098 L409.2138 5.8907 L407.4939 5.8907 L404.0541 9.3305 L404.0541 10.1904 L401.4743 12.7703 L401.4743 13.6302 L398.8944 16.2101 L398.8944 17.07 L396.3145 19.6499 L396.3145 20.5098 L393.7347 23.0897 L393.7347 23.9496 L391.1548 26.5295 L391.1548 27.3894 L388.575 29.9693 L387.715 31.6892 Z" fill-rule="evenodd" clip-rule="evenodd" fill="white" stroke="none"/>
  <path d="M439.3121 33.4091 L441.8919 33.4091 L441.8919 30.8292 L444.4718 28.2494 L444.4718 27.3894 L447.0516 24.8096 L447.0516 23.9496 L449.6315 21.3698 L449.6315 20.5098 L452.2114 17.93 L452.2114 17.07 L459.9509 7.6106 L460.8108 7.6106 L462.5307 9.3305 L462.5307 10.1904 L471.9902 19.6499 L471.9902 20.5098 L479.7297 28.2494 L479.7297 29.1093 L483.1696 32.5491 L484.8895 32.5491 L484.8895 30.8292 L472.8501 17.93 L472.8501 17.07 L461.6708 5.8907 L459.091 5.8907 L458.231 7.6106 L455.6511 10.1904 L455.6511 11.0504 L453.0713 13.6302 L453.0713 14.4902 L449.6315 17.93 L449.6315 18.7899 L441.8919 28.2494 L439.3121 33.4091 Z" fill-rule="evenodd" clip-rule="evenodd" fill="white" stroke="none"/>
  <path d="M491.769 31.6892 L491.769 33.4091 L493.4889 33.4091 L493.4889 31.6892 L498.6486 25.6695 L500.3686 22.2297 L502.9485 19.6499 L502.9485 18.7899 L505.5283 16.2101 L505.5283 15.3501 L508.9681 11.9103 L510.688 8.4705 L512.4079 7.6106 L522.7273 17.93 L522.7273 18.7899 L527.0271 23.0897 L527.0271 23.9496 L527.887 23.9496 L535.6266 32.5491 L537.3464 32.5491 L536.4866 29.9693 L529.6069 23.0897 L529.6069 22.2297 L522.7273 15.3501 L522.7273 14.4902 L520.1475 11.9103 L519.2875 11.9103 L513.2678 5.8907 L511.5479 5.8907 L508.9681 8.4705 L508.9681 9.3305 L502.9485 16.2101 L502.9485 17.07 L500.3686 19.6499 L500.3686 20.5098 L497.7888 23.0897 L496.0689 26.5295 L491.769 31.6892 Z" fill-rule="evenodd" clip-rule="evenodd" fill="white" stroke="none"/>
  <path d="M543.3661 33.4091 L545.946 33.4091 L545.946 31.6892 L546.8059 29.9693 L550.2457 26.5295 L551.9656 23.0897 L554.5455 20.5098 L554.5455 19.6499 L557.1253 17.07 L557.1253 16.2101 L559.7052 13.6302 L559.7052 12.7703 L564.0049 7.6106 L564.8649 7.6106 L566.5848 9.3305 L566.5848 10.1904 L567.4448 10.1904 L568.3047 11.9103 L571.7445 14.4902 L571.7445 15.3501 L584.6438 29.1093 L584.6438 29.9693 L586.3637 30.8292 L587.2237 32.5491 L588.9435 32.5491 L588.9435 30.8292 L585.5037 27.3894 L585.5037 26.5295 L578.6241 19.6499 L578.6241 18.7899 L565.7249 5.8907 L563.145 5.8907 L562.2851 7.6106 L559.7052 10.1904 L559.7052 11.0504 L557.1253 13.6302 L557.1253 14.4902 L554.5455 17.07 L554.5455 17.93 L551.9656 20.5098 L551.9656 21.3698 L548.5259 24.8096 L548.5259 25.6695 L546.8059 27.3894 L546.8059 28.2494 L545.086 29.9693 L543.3661 33.4091 Z" fill-rule="evenodd" clip-rule="evenodd" fill="white" stroke="none"/>
  <path d="M595.8231 31.6892 L595.8231 33.4091 L597.543 33.4091 L598.403 30.8292 L603.5627 24.8096 L605.2826 21.3698 L610.4423 15.3501 L610.4423 14.4902 L614.742 9.3305 L614.742 8.4705 L615.602 7.6106 L617.3219 7.6106 L618.1819 9.3305 L635.3809 27.3894 L635.3809 28.2494 L639.6806 32.5491 L641.4005 32.5491 L641.4005 30.8292 L628.5013 17.07 L628.5013 16.2101 L622.4816 10.1904 L621.6217 10.1904 L619.0418 7.6106 L619.0418 6.7506 L617.3219 5.8907 L615.602 5.8907 L613.0221 8.4705 L613.0221 9.3305 L610.4423 11.9103 L610.4423 12.7703 L607.8624 15.3501 L607.8624 16.2101 L605.2826 18.7899 L605.2826 19.6499 L602.7027 22.2297 L602.7027 23.0897 L600.1229 25.6695 L600.1229 26.5295 L595.8231 31.6892 Z" fill-rule="evenodd" clip-rule="evenodd" fill="white" stroke="none"/>
  <path d="M290.5406 29.9693 L290.5406 31.6892 L292.2605 33.4091 L293.9804 33.4091 L293.9804 29.1093 L300 22.2297 L300 21.3698 L302.5799 18.7899 L302.5799 17.93 L303.4398 17.07 L305.1598 17.07 L319.7789 32.5491 L321.4988 32.5491 L321.4988 30.8292 L316.3391 25.6695 L316.3391 24.8096 L305.1598 13.6302 L303.4398 13.6302 L303.4398 14.4902 L296.5602 22.2297 L296.5602 23.0897 L293.9804 25.6695 L293.9804 26.5295 L290.5406 29.9693 Z" fill-rule="evenodd" clip-rule="evenodd" fill="white" stroke="none"/>
  <path d="M342.9976 29.9693 L342.9976 31.6892 L344.7175 33.4091 L346.4374 33.4091 L346.4374 31.6892 L345.5774 29.9693 L347.2973 28.2494 L347.2973 27.3894 L350.7371 23.9496 L350.7371 23.0897 L354.1769 19.6499 L354.1769 18.7899 L355.8968 17.07 L357.6167 17.07 L372.2359 32.5491 L373.9558 32.5491 L373.9558 30.8292 L356.7568 13.6302 L355.8968 13.6302 L354.1769 15.3501 L354.1769 16.2101 L350.7371 19.6499 L350.7371 20.5098 L347.2973 23.9496 L347.2973 24.8096 L342.9976 29.9693 Z" fill-rule="evenodd" clip-rule="evenodd" fill="white" stroke="none"/>
  <path d="M395.4545 29.1093 L395.4545 32.5491 L396.3145 33.4091 L398.8944 33.4091 L398.0345 31.6892 L398.0345 29.1093 L401.4743 25.6695 L401.4743 24.8096 L404.9141 21.3698 L404.9141 20.5098 L408.3538 17.07 L409.2138 17.07 L421.2531 29.1093 L421.2531 29.9693 L423.833 32.5491 L426.4128 32.5491 L426.4128 31.6892 L423.833 29.1093 L423.833 28.2494 L422.973 28.2494 L421.2531 26.5295 L421.2531 25.6695 L409.2138 13.6302 L408.3538 13.6302 L404.0541 17.93 L404.0541 18.7899 L401.4743 21.3698 L401.4743 22.2297 L398.8944 24.8096 L398.8944 25.6695 L395.4545 29.1093 Z" fill-rule="evenodd" clip-rule="evenodd" fill="white" stroke="none"/>
  <path d="M447.0516 29.9693 L447.0516 31.6892 L448.7715 33.4091 L450.4914 33.4091 L450.4914 31.6892 L449.6315 29.9693 L460.8108 16.2101 L476.29 32.5491 L478.0099 32.5491 L478.0099 30.8292 L470.2703 23.0897 L470.2703 22.2297 L467.6904 19.6499 L466.8305 19.6499 L460.8108 13.6302 L459.9509 13.6302 L458.231 15.3501 L458.231 16.2101 L455.6511 18.7899 L455.6511 19.6499 L452.2114 23.0897 L452.2114 23.9496 L447.0516 29.9693 Z" fill-rule="evenodd" clip-rule="evenodd" fill="white" stroke="none"/>
  <path d="M499.5086 29.1093 L499.5086 32.5491 L501.2285 33.4091 L502.9485 33.4091 L502.0885 31.6892 L502.0885 29.9693 L502.9485 28.2494 L506.3882 24.8096 L506.3882 23.9496 L508.9681 21.3698 L508.9681 20.5098 L512.4079 17.07 L514.1278 17.07 L514.9877 18.7899 L527.887 31.6892 L527.887 32.5491 L530.4668 32.5491 L529.6069 29.9693 L513.2678 13.6302 L512.4079 13.6302 L508.9681 17.07 L508.9681 17.93 L506.3882 20.5098 L506.3882 21.3698 L503.8084 23.9496 L503.8084 24.8096 L499.5086 29.1093 Z" fill-rule="evenodd" clip-rule="evenodd" fill="white" stroke="none"/>
  <path d="M551.1057 29.9693 L551.1057 31.6892 L552.8256 33.4091 L554.5455 33.4091 L554.5455 31.6892 L553.6855 30.8292 L554.5455 29.1093 L560.5652 22.2297 L560.5652 21.3698 L563.145 18.7899 L563.145 17.93 L564.0049 17.07 L565.7249 17.07 L580.344 32.5491 L582.0639 32.5491 L582.0639 30.8292 L575.1843 23.9496 L575.1843 23.0897 L566.5848 14.4902 L564.0049 13.6302 L562.2851 15.3501 L562.2851 16.2101 L559.7052 18.7899 L559.7052 19.6499 L557.1253 22.2297 L557.1253 23.0897 L554.5455 25.6695 L554.5455 26.5295 L551.1057 29.9693 Z" fill-rule="evenodd" clip-rule="evenodd" fill="white" stroke="none"/>
  <path d="M603.5627 29.9693 L603.5627 31.6892 L605.2826 33.4091 L607.0026 33.4091 L607.0026 31.6892 L606.1425 30.8292 L607.0026 28.2494 L611.3022 23.9496 L611.3022 23.0897 L613.8822 20.5098 L613.8822 19.6499 L616.462 17.07 L618.1819 17.07 L620.7616 19.6499 L620.7616 20.5098 L632.8011 32.5491 L634.5209 32.5491 L634.5209 30.8292 L617.3219 13.6302 L616.462 13.6302 L613.8822 16.2101 L613.8822 17.07 L610.4423 20.5098 L610.4423 21.3698 L607.8624 23.9496 L607.8624 24.8096 L603.5627 29.9693 Z" fill-rule="evenodd" clip-rule="evenodd" fill="white" stroke="none"/>
  <path d="M299.1401 29.1093 L299.1401 32.5491 L301.7199 33.4091 L301.7199 29.9693 L305.1598 24.8096 L306.8796 24.8096 L307.7396 26.5295 L304.2998 29.9693 L304.2998 32.5491 L306.8796 32.5491 L306.8796 29.1093 L308.5995 27.3894 L312.0393 30.8292 L312.8993 32.5491 L314.6192 32.5491 L314.6192 30.8292 L306.8796 22.2297 L305.1598 22.2297 L303.4398 23.9496 L303.4398 24.8096 L301.7199 25.6695 L301.7199 26.5295 L299.1401 29.1093 Z" fill-rule="evenodd" clip-rule="evenodd" fill="white" stroke="none"/>
  <path d="M350.7371 29.9693 L350.7371 31.6892 L352.457 33.4091 L354.1769 33.4091 L354.1769 31.6892 L353.317 30.8292 L355.8968 27.3894 L355.8968 26.5295 L357.6167 24.8096 L358.4767 24.8096 L360.1966 26.5295 L360.1966 27.3894 L356.7568 29.1093 L355.8968 30.8292 L356.7568 32.5491 L358.4767 32.5491 L358.4767 30.8292 L360.1966 27.3894 L361.0565 27.3894 L362.7765 29.1093 L364.4963 32.5491 L367.0762 32.5491 L367.0762 30.8292 L358.4767 22.2297 L357.6167 22.2297 L352.457 27.3894 L352.457 28.2494 L350.7371 29.9693 Z" fill-rule="evenodd" clip-rule="evenodd" fill="white" stroke="none"/>
  <path d="M403.1941 29.1093 L403.1941 32.5491 L405.774 33.4091 L405.774 29.9693 L409.2138 24.8096 L410.9337 24.8096 L412.6536 26.5295 L412.6536 27.3894 L414.3735 28.2494 L414.3735 29.1093 L416.9534 31.6892 L416.9534 32.5491 L418.6733 32.5491 L418.6733 30.8292 L416.9534 29.1093 L416.9534 28.2494 L410.9337 22.2297 L409.2138 22.2297 L407.4939 23.9496 L407.4939 24.8096 L403.1941 29.1093 Z" fill-rule="evenodd" clip-rule="evenodd" fill="white" stroke="none"/>
  <path d="M455.6511 29.1093 L455.6511 32.5491 L456.5111 33.4091 L458.231 33.4091 L458.231 31.6892 L457.371 30.8292 L459.9509 27.3894 L459.9509 26.5295 L461.6708 24.8096 L462.5307 24.8096 L468.5504 30.8292 L468.5504 32.5491 L469.4104 33.4091 L471.1303 32.5491 L471.1303 30.8292 L462.5307 22.2297 L461.6708 22.2297 L456.5111 27.3894 L455.6511 29.1093 Z" fill-rule="evenodd" clip-rule="evenodd" fill="white" stroke="none"/>
  <path d="M507.2482 29.1093 L507.2482 32.5491 L509.8281 33.4091 L509.8281 29.9693 L511.5479 28.2494 L511.5479 27.3894 L514.1278 24.8096 L514.9877 24.8096 L521.0074 31.6892 L521.0074 32.5491 L523.5873 32.5491 L522.7273 29.9693 L514.9877 22.2297 L513.2678 22.2297 L513.2678 23.0897 L507.2482 29.1093 Z" fill-rule="evenodd" clip-rule="evenodd" fill="white" stroke="none"/>
  <path d="M559.7052 29.1093 L559.7052 32.5491 L560.5652 33.4091 L562.2851 33.4091 L562.2851 29.1093 L564.8649 26.5295 L565.7249 24.8096 L567.4448 24.8096 L568.3047 26.5295 L572.6045 30.8292 L572.6045 31.6892 L573.4644 32.5491 L575.1843 32.5491 L575.1843 30.8292 L567.4448 22.2297 L565.7249 22.2297 L561.4251 26.5295 L561.4251 27.3894 L559.7052 29.1093 Z" fill-rule="evenodd" clip-rule="evenodd" fill="white" stroke="none"/>
  <path d="M611.3022 29.9693 L611.3022 31.6892 L613.0221 33.4091 L614.742 33.4091 L614.742 31.6892 L613.8822 29.9693 L615.602 28.2494 L615.602 27.3894 L618.1819 24.8096 L619.0418 24.8096 L620.7616 26.5295 L619.0418 27.3894 L616.462 29.9693 L616.462 31.6892 L617.3219 32.5491 L619.0418 32.5491 L619.0418 30.8292 L620.7616 27.3894 L621.6217 27.3894 L623.3416 29.1093 L625.0615 32.5491 L627.6412 32.5491 L627.6412 30.8292 L619.0418 22.2297 L618.1819 22.2297 L612.1622 28.2494 L611.3022 29.9693 Z" fill-rule="evenodd" clip-rule="evenodd" fill="white" stroke="none"/>
  <path d="M410.9337 28.2494 L410.0737 28.2494 L408.3538 29.9693 L408.3538 31.6892 L409.2138 32.5491 L410.9337 32.5491 L410.9337 28.2494 Z" fill-rule="evenodd" clip-rule="evenodd" fill="white" stroke="none"/>
  <path d="M461.6708 28.2494 L460.8108 29.1093 L460.8108 32.5491 L461.6708 33.4091 L463.3907 33.4091 L463.3907 28.2494 L461.6708 28.2494 Z" fill-rule="evenodd" clip-rule="evenodd" fill="white" stroke="none"/>
  <path d="M515.8477 28.2494 L514.1278 28.2494 L512.4079 29.9693 L512.4079 31.6892 L513.2678 32.5491 L514.9877 32.5491 L514.9877 29.9693 L515.8477 28.2494 Z" fill-rule="evenodd" clip-rule="evenodd" fill="white" stroke="none"/>
  <path d="M565.7249 28.2494 L564.8649 29.9693 L564.8649 32.5491 L567.4448 32.5491 L567.4448 28.2494 L565.7249 28.2494 Z" fill-rule="evenodd" clip-rule="evenodd" fill="white" stroke="none"/>
</svg>
