<?xml version="1.0" encoding="UTF-8"?>
<svg width="950" height="35" viewBox="0 0 950 35" fill="none" xmlns="http://www.w3.org/2000/svg">
  <path d="M300 17.5 L304 5.5 L314 9.5 L307 17.5 L311 9.5 L321 12.5 L314 17.5 L318 13.5 L328 15.5 L321 17.5 L325 17.5 L335 19.5 L328 17.5 L332 21.5 L342 22.5 L335 17.5 L339 25.5 L349 25.5 L342 17.5 L352 17.5 L307 17.5 L314 9.5 L304 9.5 L314 17.5 L321 12.5 L311 13.5 L321 17.5 L328 15.5 L318 17.5 L328 17.5 L335 19.5 L325 21.5 L335 17.5 L342 22.5 L332 25.5 L342 17.5 L349 25.5 L339 29.5 Z" fill-rule="evenodd" clip-rule="evenodd" fill="#B22222" stroke="none"/>
  <path d="M650 17.5 L646 5.5 L636 9.5 L643 17.5 L639 9.5 L629 12.5 L636 17.5 L632 13.5 L622 15.5 L629 17.5 L625 17.5 L615 19.5 L622 17.5 L618 21.5 L608 22.5 L615 17.5 L611 25.5 L601 25.5 L608 17.5 L598 17.5 L643 17.5 L636 9.5 L646 9.5 L636 17.5 L629 12.5 L639 13.5 L629 17.5 L622 15.5 L632 17.5 L622 17.5 L615 19.5 L625 21.5 L615 17.5 L608 22.5 L618 25.5 L608 17.5 L601 25.5 L611 29.5 Z" fill-rule="evenodd" clip-rule="evenodd" fill="#B22222" stroke="none"/>
  <path d="M9.5 17.5 L352 17.5" fill="none" stroke="#B22222" stroke-width="1.2" stroke-linecap="round" stroke-linejoin="round"/>
  <path d="M598 17.5 L940.5 17.5" fill="none" stroke="#B22222" stroke-width="1.2" stroke-linecap="round" stroke-linejoin="round"/>
</svg>
