<?xml version="1.0" encoding="UTF-8"?>
<svg xmlns="http://www.w3.org/2000/svg" viewBox="0 0 398.0314 38.2479" width="398.0314" height="38.2479">
  <path d="M7.6544 18.8218 L146.7103 19.0414" fill="none" stroke="#000000" stroke-width="0.35" stroke-linecap="round" stroke-linejoin="round"/>
  <path d="M251.3211 19.2065 L390.3769 19.4261" fill="none" stroke="#000000" stroke-width="0.35" stroke-linecap="round" stroke-linejoin="round"/>
  <path d="M154.3246 10.9402 L163.2949 19.0675 L154.4048 27.1666 L145.4345 19.0393 L154.3246 10.9402 Z" fill="#000000" fill-rule="evenodd" stroke="none"/>
  <path d="M173.4636 11.55 L181.7932 19.0967 L173.5381 26.6174 L165.2085 19.0705 L173.4636 11.55 Z" fill="#000000" fill-rule="evenodd" stroke="none"/>
  <path d="M198.9297 1.7385 L218.1518 19.1542 L199.1016 36.5094 L179.8796 19.0937 L198.9297 1.7385 Z" fill="#000000" fill-rule="evenodd" stroke="none"/>
  <path d="M224.4932 11.6305 L232.8228 19.1773 L224.5677 26.6979 L216.2382 19.1511 L224.4932 11.6305 Z" fill="#000000" fill-rule="evenodd" stroke="none"/>
  <path d="M243.6265 11.0812 L252.5968 19.2085 L243.7067 27.3076 L234.7364 19.1803 L243.6265 11.0812 Z" fill="#000000" fill-rule="evenodd" stroke="none"/>
  <path d="M70.1658 18.9205 C70.1531 16.36 67.8582 14.2808 65.0399 14.2763 C62.2216 14.2719 59.9472 16.3439 59.9599 18.9044 C59.9725 21.4648 62.2674 23.5441 65.0857 23.5485 C67.904 23.553 70.1784 21.4809 70.1658 18.9205 Z" fill="#000000" fill-rule="evenodd" stroke="none"/>
  <path d="M338.0715 19.3435 C338.0588 16.7831 335.7639 14.7038 332.9456 14.6993 C330.1273 14.6949 327.8529 16.7669 327.8655 19.3274 C327.8782 21.8878 330.1731 23.9671 332.9914 23.9715 C335.8097 23.976 338.0841 21.9039 338.0715 19.3435 Z" fill="#000000" fill-rule="evenodd" stroke="none"/>
  <path d="M14.0332 18.8318 L28.0319 11.8998 L23.6012 18.8469 L28.1007 25.8082 L14.0332 18.8318 Z" fill="#000000" fill-rule="evenodd" stroke="none"/>
  <path d="M383.9982 19.416 L369.9307 12.4397 L374.4301 19.4009 L369.9994 26.348 L383.9982 19.416 Z" fill="#000000" fill-rule="evenodd" stroke="none"/>
</svg>
