<?xml version="1.0" encoding="UTF-8"?>
<svg width="950" height="35" viewBox="0 0 950 35" fill="none" xmlns="http://www.w3.org/2000/svg">
  <path d="M9.5 22.8052 L198.5388 22.8052 L198.5388 27.8052 L9.5 27.8052 Z" fill-rule="evenodd" clip-rule="evenodd" fill="white" stroke="none"/>
  <path d="M760.0833 22.8052 L940.5 22.8052 L940.5 27.8052 L760.0833 27.8052 Z" fill-rule="evenodd" clip-rule="evenodd" fill="white" stroke="none"/>
  <path d="M9.5 23.1123 L198.5388 23.1123 L198.5388 28.1123 L9.5 28.1123 Z" fill-rule="evenodd" clip-rule="evenodd" fill="white" stroke="none"/>
  <path d="M760.0833 23.1123 L940.5 23.1123 L940.5 28.1123 L760.0833 28.1123 Z" fill-rule="evenodd" clip-rule="evenodd" fill="white" stroke="none"/>
  <path d="M475.0393 33.4091 C451.6249 17.4716 464.1865 1.5909 474.952 15.7417 C485.5777 1.6247 498.2964 17.5453 475.0393 33.4091 Z" fill-rule="evenodd" clip-rule="evenodd" fill="white" stroke="none"/>
  <path d="M331.6825 19.6533 L337.8511 25.2422 L331.7377 30.8117 L325.5691 25.2228 L331.6825 19.6533 Z" fill-rule="evenodd" clip-rule="evenodd" fill="white" stroke="none"/>
  <path d="M618.2624 20.1058 L624.4309 25.6948 L618.3176 31.2642 L612.1489 25.6753 L618.2624 20.1058 Z" fill-rule="evenodd" clip-rule="evenodd" fill="white" stroke="none"/>
</svg>
