<?xml version="1.0" encoding="UTF-8"?>
<svg width="950" height="35" viewBox="0 0 950 35" fill="none" xmlns="http://www.w3.org/2000/svg">
  <path d="M329.0799 1.9066 C329.0799 2.5044 335.1697 5.1863 337.9714 5.8224 C339.5934 6.1906 342.966 6.7647 345.4661 7.0983 C347.9662 7.4319 350.7743 8.0219 351.7064 8.4096 C355.0308 9.792 353.1339 11.8694 348.5997 11.8117 C347.0418 11.7919 344.9509 11.3202 341.2898 10.1625 C337.6277 9.0045 335.1515 8.4459 332.6277 8.2083 C328.8028 7.8483 326.8503 8.0387 315.6462 9.8643 C309.9998 10.7843 305.0848 10.7509 299.9192 9.7574 L296.7582 9.1494 L298.9847 10.0111 C304.283 12.0616 311.7684 12.5032 320.7594 11.2956 C328.768 10.22 332.3002 10.3832 333.5749 11.8875 C335.5851 14.26 328.9221 15.1809 321.744 13.5226 L319.8484 13.0847 L320.8524 13.7697 C321.4046 14.1465 323.2376 14.8409 324.9257 15.3129 C327.4244 16.0115 328.8398 16.1896 332.5377 16.2705 C336.5049 16.3572 337.7288 16.2499 342.2005 15.4234 C346.2771 14.67 348.234 14.4748 351.801 14.4659 C355.8405 14.4558 356.7219 14.5649 360.7614 15.5752 C363.2256 16.1915 366.3938 16.8629 367.8019 17.0672 C370.1293 17.4049 370.2271 17.4566 368.8777 17.6367 C368.0613 17.7456 364.6051 18.4764 361.1973 19.2606 C355.2178 20.6366 354.8557 20.6813 350.841 20.5364 C348.3659 20.4472 344.7364 20.0324 341.8805 19.5125 C336.687 18.5671 332.1332 18.3777 328.3753 18.9507 C325.8064 19.3424 321.7879 20.5714 320.8333 21.2573 C320.2328 21.6887 320.4554 21.6816 322.8591 21.192 C324.3444 20.8894 326.9069 20.639 328.5534 20.6356 C331.0343 20.6303 331.7743 20.7589 332.8736 21.3859 C334.5923 22.3663 334.5458 22.7977 332.6292 23.6578 C330.592 24.5718 328.3207 24.5633 321.0518 23.6141 C311.9483 22.4255 304.6861 22.8929 298.6783 25.0542 L296.7582 25.745 L301.5584 25.0216 C307.6356 24.1058 311.2056 24.2362 319.5165 25.6777 C329.8554 27.4711 334.6801 27.2874 341.4187 24.844 C344.9461 23.5649 346.5218 23.2139 348.7363 23.2139 C353.0881 23.2139 354.9522 25.1287 351.9234 26.4878 C351.1108 26.8524 348.0146 27.5074 345.0431 27.9433 C336.7024 29.1669 333.0614 30.2815 330.0028 32.5475 L328.8399 33.4091 L331.04 32.4913 C334.1422 31.1971 339.3357 30.2102 346.5472 29.5444 C356.126 28.66 358.2522 28.0223 361.6418 25.0168 C363.1828 23.6506 366.4231 21.8988 368.1975 21.4726 C369.3203 21.203 369.3177 21.235 368.1447 22.1298 C367.4665 22.6471 366.6045 23.975 366.229 25.0807 C365.229 28.0248 363.9015 29.3875 360.9159 30.5342 C357.807 31.7282 358.1109 31.7909 362.3432 30.8286 C366.0848 29.9778 368.2604 28.7741 369.7321 26.7403 L370.8172 25.2409 L372.6379 25.6633 C373.6392 25.8957 374.9769 26.0853 375.6104 26.0847 C377.47 26.083 380.7809 25.0314 381.8515 24.1024 C383.2283 22.9078 383.101 22.7939 381.1562 23.4803 C378.9036 24.2754 376.7116 24.2398 375.4678 23.3879 C374.1917 22.514 374.7309 21.4965 376.9832 20.5283 C380.9498 18.823 375.9543 18.9061 474.5335 18.9061 C542.9071 18.9061 565.4051 18.9897 567.3484 19.251 C571.2218 19.7717 574.2124 21.1717 574.2124 22.4642 C574.2124 23.9005 572.0177 24.397 568.7551 23.6989 C567.5324 23.4373 566.532 23.2922 566.532 23.3764 C566.532 23.9451 568.7858 25.287 570.3512 25.6502 C572.7088 26.1972 574.0431 26.1967 576.3877 25.6481 C577.4082 25.4093 578.2871 25.2486 578.3409 25.2909 C578.3948 25.3332 578.9338 26.0982 579.5386 26.991 C580.7514 28.7807 584.0883 30.4018 588.113 31.1563 C591.0803 31.7126 591.4592 31.4701 588.7824 30.7277 C585.8053 29.9021 583.8137 28.1549 583.0679 25.7146 C582.72 24.5762 581.8999 23.098 581.2454 22.4297 L580.0556 21.2148 L581.5746 21.6613 C583.5027 22.2282 585.7856 23.5712 587.6311 25.2242 C589.3475 26.7615 591.7787 27.9893 594.2557 28.5697 C595.247 28.802 598.9186 29.2366 602.4149 29.5356 C609.6606 30.1551 613.4953 30.8376 617.2732 32.1802 L619.9102 33.1174 L618.6624 32.1461 C616.4872 30.4529 612.0749 29.1452 604.9642 28.0865 C596.1819 26.7788 593.2788 25.2846 596.6136 23.7883 C598.7071 22.8489 602.3713 23.0188 605.6843 24.209 C611.8762 26.4335 613.8016 26.8055 619.0147 26.7842 C623.0152 26.7678 624.8281 26.5829 629.8953 25.6743 C639.1031 24.0233 642.3314 24.0205 651.3364 25.6558 C652.0403 25.7836 651.5108 25.4854 650.1593 24.9929 C644.3488 22.8757 637.0183 22.4302 627.9752 23.6447 C619.1457 24.8305 615.1746 24.4317 615.1746 22.359 C615.1746 20.6201 620.8697 20.0166 626.0625 21.2053 C627.5347 21.5423 628.8649 21.7616 629.0187 21.6926 C629.5566 21.4513 624.4941 19.6796 621.6583 19.1168 C617.7672 18.3445 611.9965 18.5665 605.574 19.7356 C598.3042 21.059 595.2912 20.9681 587.3976 19.187 C583.9129 18.4007 580.6727 17.7574 580.1972 17.7574 C579.7217 17.7574 579.3327 17.6281 579.3327 17.4702 C579.3327 17.3122 579.7758 17.183 580.3174 17.183 C580.859 17.183 583.9216 16.5691 587.1232 15.8188 C592.5296 14.5519 593.2687 14.4561 597.4991 14.4745 C601.0798 14.49 603.1181 14.6896 607.0307 15.4078 C615.4647 16.956 622.2073 16.5415 627.3555 14.1581 C629.8437 13.0061 629.5744 12.9311 625.939 13.7633 C620.7309 14.9555 615.1614 14.361 615.1843 12.6153 C615.1962 11.7093 615.7048 11.3395 617.5325 10.9079 C619.6863 10.3992 622.4986 10.5093 628.3847 11.3327 C635.3122 12.3019 641.3372 12.2109 646.2161 11.0635 C649.8067 10.2191 653.5491 8.9321 651.3364 9.3026 C644.0476 10.5233 642.8886 10.635 639.1757 10.4752 C636.9892 10.3811 632.8551 9.8571 629.5753 9.2584 C624.9656 8.4169 622.92 8.2011 619.3347 8.1777 C614.3763 8.1454 612.7095 8.4404 607.0866 10.3453 C602.911 11.7599 600.6581 12.0636 598.0249 11.5668 C595.5247 11.0951 594.7624 10.0064 596.229 9.002 C597.5173 8.1198 599.5288 7.6481 605.2583 6.8847 C611.9693 5.9905 616.3005 4.6159 619.4101 2.3933 C620.5325 1.5909 620.3963 1.614 617.4146 2.7316 C613.5615 4.1757 609.0505 5.0109 602.8391 5.4301 C594.2914 6.007 590.5061 7.1507 587.1167 10.1803 C585.5419 11.5881 582.876 13.0597 581.15 13.4742 C579.9234 13.7688 579.9236 13.757 581.1674 12.6631 C581.8614 12.0526 582.7453 10.5336 583.1316 9.2877 C583.7767 7.2067 586.2246 4.5586 587.5201 4.5403 C587.7692 4.5368 588.6932 4.2827 589.5732 3.9756 L591.1733 3.4172 L588.7979 3.7395 C587.4915 3.9168 585.3662 4.4526 584.0751 4.9301 C581.625 5.8363 578.7097 8.2406 578.6988 9.3638 C578.6931 9.9699 578.5897 9.9874 577.2525 9.6091 C573.5971 8.5747 569.7309 8.9544 567.6239 10.5549 C566.0029 11.7861 566.296 12.1091 568.4006 11.4109 C571.9748 10.2252 575.3386 11.4664 573.8158 13.4092 C573.1334 14.2799 569.8723 15.3355 566.6073 15.7425 C563.4245 16.1391 385.95 16.1391 382.7673 15.7425 C377.2851 15.0591 373.7871 13.1469 375.3827 11.7055 C376.4024 10.7843 378.738 10.6691 381.0235 11.4273 L382.8702 12.04 L382.0295 11.1154 C380.3238 9.2397 374.888 8.3844 372.0351 9.5428 C370.7914 10.0479 370.7492 10.0325 370.0309 8.8105 C368.4707 6.1557 365.3742 4.559 360.1143 3.6967 L358.2014 3.3831 L360.5436 4.3239 C364.0258 5.7225 364.9101 6.5428 365.9034 9.2965 C366.3991 10.6703 367.3793 12.2313 368.0817 12.7655 C368.7841 13.2997 369.1404 13.7367 368.8735 13.7367 C367.8913 13.7367 363.0937 11.2583 361.7608 10.0622 C358.5032 7.1392 355.0325 6.1269 345.7812 5.4012 C339.7011 4.9243 335.3288 4.0942 332.0259 2.7896 C330.4056 2.1496 329.0799 1.7523 329.0799 1.9066 Z" fill-rule="evenodd" clip-rule="evenodd" fill="white" stroke="none"/>
  <path d="M293.238 13.254 C290.9499 13.6316 287.3497 14.2337 285.2376 14.5921 C280.2614 15.4366 274.338 15.46 269.6769 14.6537 C265.1676 13.8736 266.4698 14.5721 271.361 15.557 C277.4614 16.7854 280.8925 16.8214 289.3142 15.745 C298.1775 14.6123 301.8729 14.6501 304.7886 15.9035 C307.2555 16.964 307.2504 17.9785 304.7728 19.0436 C301.9293 20.266 297.6258 20.3464 290.3023 19.314 C283.1418 18.3046 277.7539 18.2528 272.7569 19.1454 C270.8209 19.4913 268.5168 20.0291 267.6367 20.3406 C266.0939 20.8865 266.1742 20.8851 269.8768 20.3018 C276.235 19.3002 280.787 19.4525 288.7578 20.9336 C294.7436 22.0459 296.0378 22.1834 300.5984 22.1913 C305.7153 22.2002 305.7245 22.1989 314.511 20.1483 C319.3468 19.0197 324.4603 18.0085 325.8743 17.9014 C328.8117 17.6787 328.7427 17.3127 325.7123 17.042 C324.5723 16.9402 319.574 15.9475 314.6049 14.836 C303.6228 12.3796 300.1128 12.1197 293.238 13.254 Z" fill-rule="evenodd" clip-rule="evenodd" fill="white" stroke="none"/>
  <path d="M642.9661 12.9758 C641.5307 13.1869 638.0745 13.9335 635.2856 14.6348 C629.144 16.1791 624.026 17.183 622.294 17.183 C619.9035 17.183 620.302 17.6844 622.8369 17.8663 C624.2222 17.9658 629.4408 18.9835 634.4339 20.1279 L643.5122 22.2087 L648.7043 22.1882 C653.3235 22.17 654.6382 22.0295 660.6168 20.9154 C668.9928 19.3545 673.3274 19.2433 679.8178 20.4227 C684.8324 21.3339 683.1761 20.6573 677.2577 19.3767 C671.763 18.1879 666.4783 18.1597 658.8237 19.2784 C650.3365 20.5187 645.1787 20.2084 643.0103 18.3269 C642.1206 17.5548 642.1206 17.3855 643.0103 16.6135 C645.2442 14.6751 649.874 14.4452 659.9767 15.7709 C669.0923 16.9671 673.5023 16.7736 680.7297 14.8602 C683.9522 14.0071 683.2363 13.8857 679.4367 14.641 C674.0806 15.7057 668.725 15.5352 660.6168 14.0417 C653.0605 12.6499 647.4738 12.3125 642.9661 12.9758 Z" fill-rule="evenodd" clip-rule="evenodd" fill="white" stroke="none"/>
</svg>
