<?xml version="1.0" encoding="UTF-8"?>
<svg width="950" height="35" viewBox="0 0 950 35" fill="none" xmlns="http://www.w3.org/2000/svg">
  <path d="M306 17.5 L312 6.5 L318 12.5 L323 4.5 L329 14.5 L335 7.5 L341 16.5 L347 9.5 L352 17.5 L347 25.5 L341 18.5 L335 27.5 L329 20.5 L323 30.5 L318 22.5 L312 28.5 Z" fill-rule="evenodd" clip-rule="evenodd" fill="white" stroke="none"/>
  <path d="M644 17.5 L638 6.5 L632 12.5 L627 4.5 L621 14.5 L615 7.5 L609 16.5 L603 9.5 L598 17.5 L603 25.5 L609 18.5 L615 27.5 L621 20.5 L627 30.5 L632 22.5 L638 28.5 Z" fill-rule="evenodd" clip-rule="evenodd" fill="white" stroke="none"/>
  <path d="M9.5 17.5 L352 17.5" fill="none" stroke="white" stroke-width="1.2" stroke-linecap="round" stroke-linejoin="round"/>
  <path d="M598 17.5 L940.5 17.5" fill="none" stroke="white" stroke-width="1.2" stroke-linecap="round" stroke-linejoin="round"/>
</svg>
