<?xml version="1.0" encoding="UTF-8"?>
<svg width="950" height="35" viewBox="0 0 950 35" fill="none" xmlns="http://www.w3.org/2000/svg">
  <path d="M302 17.5 L309 6.5 L318 10.5 L324 4.5 L332 12.5 L340 6.5 L346 14.5 L352 17.5 L346 20.5 L340 28.5 L332 22.5 L324 30.5 L318 24.5 L309 28.5 Z" fill-rule="evenodd" clip-rule="evenodd" fill="white" stroke="none"/>
  <path d="M348 17.5 L347.7412 18.8011 L347.0042 19.9042 L345.9011 20.6412 L344.6 20.9 L343.2989 20.6412 L342.1958 19.9042 L341.4588 18.8011 L341.2 17.5 L341.4588 16.1989 L342.1958 15.0958 L343.2989 14.3588 L344.6 14.1 L345.9011 14.3588 L347.0042 15.0958 L347.7412 16.1989 Z" fill-rule="evenodd" clip-rule="evenodd" fill="white" stroke="none"/>
  <path d="M648 17.5 L641 6.5 L632 10.5 L626 4.5 L618 12.5 L610 6.5 L604 14.5 L598 17.5 L604 20.5 L610 28.5 L618 22.5 L626 30.5 L632 24.5 L641 28.5 Z" fill-rule="evenodd" clip-rule="evenodd" fill="white" stroke="none"/>
  <path d="M602 17.5 L602.2588 18.8011 L602.9958 19.9042 L604.0989 20.6412 L605.4 20.9 L606.7011 20.6412 L607.8042 19.9042 L608.5412 18.8011 L608.8 17.5 L608.5412 16.1989 L607.8042 15.0958 L606.7011 14.3588 L605.4 14.1 L604.0989 14.3588 L602.9958 15.0958 L602.2588 16.1989 Z" fill-rule="evenodd" clip-rule="evenodd" fill="white" stroke="none"/>
  <path d="M9.5 17.5 L352 17.5" fill="none" stroke="white" stroke-width="1.2" stroke-linecap="round" stroke-linejoin="round"/>
  <path d="M598 17.5 L940.5 17.5" fill="none" stroke="white" stroke-width="1.2" stroke-linecap="round" stroke-linejoin="round"/>
</svg>
