<?xml version="1.0" encoding="UTF-8"?>
<svg width="950" height="35" viewBox="0 0 950 35" fill="none" xmlns="http://www.w3.org/2000/svg">
  <path d="M352 21 L345.9378 24.5 L339.8756 21 L339.8756 14 L345.9378 10.5 L352 14 Z" fill-rule="evenodd" clip-rule="evenodd" fill="#B22222" stroke="none"/>
  <path d="M598 21 L604.0622 24.5 L610.1244 21 L610.1244 14 L604.0622 10.5 L598 14 Z" fill-rule="evenodd" clip-rule="evenodd" fill="#B22222" stroke="none"/>
  <path d="M352 17.5 L351.8858 18.074 L351.5607 18.5607 L351.074 18.8858 L350.5 19 L349.926 18.8858 L349.4393 18.5607 L349.1142 18.074 L349 17.5 L349.1142 16.926 L349.4393 16.4393 L349.926 16.1142 L350.5 16 L351.074 16.1142 L351.5607 16.4393 L351.8858 16.926 Z" fill-rule="evenodd" clip-rule="evenodd" fill="#B22222" stroke="none"/>
  <path d="M598 17.5 L598.1142 18.074 L598.4393 18.5607 L598.926 18.8858 L599.5 19 L600.074 18.8858 L600.5607 18.5607 L600.8858 18.074 L601 17.5 L600.8858 16.926 L600.5607 16.4393 L600.074 16.1142 L599.5 16 L598.926 16.1142 L598.4393 16.4393 L598.1142 16.926 Z" fill-rule="evenodd" clip-rule="evenodd" fill="#B22222" stroke="none"/>
  <path d="M352 13.5 L351.901 13.9975 L351.6192 14.4192 L351.1975 14.701 L350.7 14.8 L350.2025 14.701 L349.7808 14.4192 L349.499 13.9975 L349.4 13.5 L349.499 13.0025 L349.7808 12.5808 L350.2025 12.299 L350.7 12.2 L351.1975 12.299 L351.6192 12.5808 L351.901 13.0025 Z" fill-rule="evenodd" clip-rule="evenodd" fill="#B22222" stroke="none"/>
  <path d="M598 13.5 L598.099 13.9975 L598.3808 14.4192 L598.8025 14.701 L599.3 14.8 L599.7975 14.701 L600.2192 14.4192 L600.501 13.9975 L600.6 13.5 L600.501 13.0025 L600.2192 12.5808 L599.7975 12.299 L599.3 12.2 L598.8025 12.299 L598.3808 12.5808 L598.099 13.0025 Z" fill-rule="evenodd" clip-rule="evenodd" fill="#B22222" stroke="none"/>
  <path d="M352 10.5 L351.9087 10.9592 L351.6485 11.3485 L351.2592 11.6087 L350.8 11.7 L350.3408 11.6087 L349.9515 11.3485 L349.6913 10.9592 L349.6 10.5 L349.6913 10.0408 L349.9515 9.6515 L350.3408 9.3913 L350.8 9.3 L351.2592 9.3913 L351.6485 9.6515 L351.9087 10.0408 Z" fill-rule="evenodd" clip-rule="evenodd" fill="#B22222" stroke="none"/>
  <path d="M598 10.5 L598.0913 10.9592 L598.3515 11.3485 L598.7408 11.6087 L599.2 11.7 L599.6592 11.6087 L600.0485 11.3485 L600.3087 10.9592 L600.4 10.5 L600.3087 10.0408 L600.0485 9.6515 L599.6592 9.3913 L599.2 9.3 L598.7408 9.3913 L598.3515 9.6515 L598.0913 10.0408 Z" fill-rule="evenodd" clip-rule="evenodd" fill="#B22222" stroke="none"/>
  <path d="M316 17.5 L338 17.5" fill="none" stroke="#B22222" stroke-width="1.2" stroke-linecap="round" stroke-linejoin="round"/>
  <path d="M634 17.5 L612 17.5" fill="none" stroke="#B22222" stroke-width="1.2" stroke-linecap="round" stroke-linejoin="round"/>
  <path d="M320 13.5 L338 13.5" fill="none" stroke="#B22222" stroke-width="1.2" stroke-linecap="round" stroke-linejoin="round"/>
  <path d="M630 13.5 L612 13.5" fill="none" stroke="#B22222" stroke-width="1.2" stroke-linecap="round" stroke-linejoin="round"/>
  <path d="M324 21.5 L338 21.5" fill="none" stroke="#B22222" stroke-width="1.2" stroke-linecap="round" stroke-linejoin="round"/>
  <path d="M626 21.5 L612 21.5" fill="none" stroke="#B22222" stroke-width="1.2" stroke-linecap="round" stroke-linejoin="round"/>
  <path d="M9.5 17.5 L352 17.5" fill="none" stroke="#B22222" stroke-width="1.2" stroke-linecap="round" stroke-linejoin="round"/>
  <path d="M598 17.5 L940.5 17.5" fill="none" stroke="#B22222" stroke-width="1.2" stroke-linecap="round" stroke-linejoin="round"/>
</svg>
