<?xml version="1.0" encoding="UTF-8"?>
<svg width="950" height="35" viewBox="0 0 950 35" fill="none" xmlns="http://www.w3.org/2000/svg">
  <path d="M312 17.5 L333.7959 8.3228 L325.618 11.7661 L316.631 15.5501 L307.369 19.4499 L298.382 23.2339 L290.2041 26.6772 L352 17.5 L290.2041 8.3228 L298.382 11.7661 L307.369 15.5501 L316.631 19.4499 L325.618 23.2339 L333.7959 26.6772 Z" fill-rule="evenodd" clip-rule="evenodd" fill="white" stroke="none"/>
  <path d="M348 17.5 L345.2 20.3 L342.4 17.5 L345.2 14.7 Z" fill-rule="evenodd" clip-rule="evenodd" fill="white" stroke="none"/>
  <path d="M638 17.5 L616.2041 8.3228 L624.382 11.7661 L633.369 15.5501 L642.631 19.4499 L651.618 23.2339 L659.7959 26.6772 L598 17.5 L659.7959 8.3228 L651.618 11.7661 L642.631 15.5501 L633.369 19.4499 L624.382 23.2339 L616.2041 26.6772 Z" fill-rule="evenodd" clip-rule="evenodd" fill="white" stroke="none"/>
  <path d="M602 17.5 L604.8 20.3 L607.6 17.5 L604.8 14.7 Z" fill-rule="evenodd" clip-rule="evenodd" fill="white" stroke="none"/>
  <path d="M9.5 17.5 L352 17.5" fill="none" stroke="white" stroke-width="1.2" stroke-linecap="round" stroke-linejoin="round"/>
  <path d="M598 17.5 L940.5 17.5" fill="none" stroke="white" stroke-width="1.2" stroke-linecap="round" stroke-linejoin="round"/>
</svg>
