<?xml version="1.0" encoding="UTF-8"?>
<svg width="950" height="35" viewBox="0 0 950 35" fill="none" xmlns="http://www.w3.org/2000/svg">
  <path d="M306 17.5 L311 5.5 L317 12.5 L322 4.5 L328 14.5 L334 7.5 L340 16.5 L346 9.5 L352 17.5 L346 25.5 L340 18.5 L334 27.5 L328 20.5 L322 30.5 L317 22.5 L311 29.5 Z" fill-rule="evenodd" clip-rule="evenodd" fill="white" stroke="none"/>
  <path d="M348 17.5 L347.7564 18.7246 L347.0627 19.7627 L346.0246 20.4564 L344.8 20.7 L343.5754 20.4564 L342.5373 19.7627 L341.8436 18.7246 L341.6 17.5 L341.8436 16.2754 L342.5373 15.2373 L343.5754 14.5436 L344.8 14.3 L346.0246 14.5436 L347.0627 15.2373 L347.7564 16.2754 Z" fill-rule="evenodd" clip-rule="evenodd" fill="white" stroke="none"/>
  <path d="M644 17.5 L639 5.5 L633 12.5 L628 4.5 L622 14.5 L616 7.5 L610 16.5 L604 9.5 L598 17.5 L604 25.5 L610 18.5 L616 27.5 L622 20.5 L628 30.5 L633 22.5 L639 29.5 Z" fill-rule="evenodd" clip-rule="evenodd" fill="white" stroke="none"/>
  <path d="M602 17.5 L602.2436 18.7246 L602.9373 19.7627 L603.9754 20.4564 L605.2 20.7 L606.4246 20.4564 L607.4627 19.7627 L608.1564 18.7246 L608.4 17.5 L608.1564 16.2754 L607.4627 15.2373 L606.4246 14.5436 L605.2 14.3 L603.9754 14.5436 L602.9373 15.2373 L602.2436 16.2754 Z" fill-rule="evenodd" clip-rule="evenodd" fill="white" stroke="none"/>
  <path d="M9.5 17.5 L352 17.5" fill="none" stroke="white" stroke-width="1.2" stroke-linecap="round" stroke-linejoin="round"/>
  <path d="M598 17.5 L940.5 17.5" fill="none" stroke="white" stroke-width="1.2" stroke-linecap="round" stroke-linejoin="round"/>
</svg>
