<?xml version="1.0" encoding="UTF-8"?>
<svg width="950" height="35" viewBox="0 0 950 35" fill="none" xmlns="http://www.w3.org/2000/svg">
  <path d="M306 17.5 L311 8.5 L315 13.5 L312 17.5 L316 5.5 L320 11.5 L317 17.5 L322 7.5 L326 14.5 L323 17.5 L328 6.5 L332 15.5 L329 17.5 L334 9.5 L338 16.5 L335 17.5 L340 11.5 L344 17.5 L341 17.5 L346 12.5 L350 18.5 L347 17.5 L352 17.5 L347 17.5 L350 16.5 L346 22.5 L341 17.5 L344 17.5 L340 23.5 L335 17.5 L338 18.5 L334 25.5 L329 17.5 L332 19.5 L328 28.5 L323 17.5 L326 20.5 L322 27.5 L317 17.5 L320 23.5 L316 29.5 L312 17.5 L315 21.5 L311 26.5 Z" fill-rule="evenodd" clip-rule="evenodd" fill="#B22222" stroke="none"/>
  <path d="M644 17.5 L639 8.5 L635 13.5 L638 17.5 L634 5.5 L630 11.5 L633 17.5 L628 7.5 L624 14.5 L627 17.5 L622 6.5 L618 15.5 L621 17.5 L616 9.5 L612 16.5 L615 17.5 L610 11.5 L606 17.5 L609 17.5 L604 12.5 L600 18.5 L603 17.5 L598 17.5 L603 17.5 L600 16.5 L604 22.5 L609 17.5 L606 17.5 L610 23.5 L615 17.5 L612 18.5 L616 25.5 L621 17.5 L618 19.5 L622 28.5 L627 17.5 L624 20.5 L628 27.5 L633 17.5 L630 23.5 L634 29.5 L638 17.5 L635 21.5 L639 26.5 Z" fill-rule="evenodd" clip-rule="evenodd" fill="#B22222" stroke="none"/>
  <path d="M9.5 17.5 L352 17.5" fill="none" stroke="#B22222" stroke-width="1.2" stroke-linecap="round" stroke-linejoin="round"/>
  <path d="M598 17.5 L940.5 17.5" fill="none" stroke="#B22222" stroke-width="1.2" stroke-linecap="round" stroke-linejoin="round"/>
</svg>
