<?xml version="1.0" encoding="UTF-8"?>
<svg width="950" height="35" viewBox="0 0 950 35" fill="none" xmlns="http://www.w3.org/2000/svg">
  <path d="M300 17.5 L308 3.5 L314 12.5 L318 4.5 L324 15.5 L330 6.5 L336 13.5 L342 5.5 L348 16.5 L352 17.5 L348 18.5 L342 29.5 L336 21.5 L330 28.5 L324 19.5 L318 30.5 L314 22.5 L308 31.5 Z" fill-rule="evenodd" clip-rule="evenodd" fill="#B22222" stroke="none"/>
  <path d="M650 17.5 L642 3.5 L636 12.5 L632 4.5 L626 15.5 L620 6.5 L614 13.5 L608 5.5 L602 16.5 L598 17.5 L602 18.5 L608 29.5 L614 21.5 L620 28.5 L626 19.5 L632 30.5 L636 22.5 L642 31.5 Z" fill-rule="evenodd" clip-rule="evenodd" fill="#B22222" stroke="none"/>
  <path d="M9.5 17.5 L352 17.5" fill="none" stroke="#B22222" stroke-width="1.2" stroke-linecap="round" stroke-linejoin="round"/>
  <path d="M598 17.5 L940.5 17.5" fill="none" stroke="#B22222" stroke-width="1.2" stroke-linecap="round" stroke-linejoin="round"/>
</svg>
