<?xml version="1.0" encoding="UTF-8"?>
<svg width="950" height="35" viewBox="0 0 950 35" fill="none" xmlns="http://www.w3.org/2000/svg">
  <path d="M302.0309 3.6219 L302.0309 7.0068 L304.0619 9.0377 L304.7389 9.0377 L306.0928 10.3917 L306.7698 10.3917 L308.8008 11.7456 L310.1547 11.7456 L310.8317 12.4226 L312.1857 12.4226 L312.8627 13.0996 L314.2166 13.0996 L314.8936 13.7766 L316.9245 13.7766 L317.6015 14.4536 L320.3095 14.4536 L323.0174 16.4845 L323.0174 17.8385 L324.3714 17.8385 L324.3714 16.4845 L323.6944 16.4845 L323.0174 15.8076 L323.6944 15.1306 L326.4023 15.1306 L327.0793 14.4536 L327.7563 14.4536 L329.7872 13.0996 L331.1412 13.0996 L331.8182 12.4226 L334.5261 12.4226 L335.2031 13.0996 L335.2031 13.7766 L335.8801 14.4536 L335.8801 15.8076 L336.5571 16.4845 L336.5571 18.5155 L335.8801 19.1925 L335.8801 19.8695 L335.2031 20.5464 L335.2031 21.9004 L334.5261 22.5774 L333.1721 22.5774 L332.4952 21.9004 L329.1102 21.2234 L325.7253 19.1925 L321.6634 19.1925 L320.9865 19.8695 L318.2785 19.8695 L317.6015 20.5464 L315.5706 20.5464 L314.8936 21.2234 L313.5396 21.2234 L312.8627 21.9004 L309.4777 22.5774 L308.8008 23.2544 L305.4159 24.6083 L304.0619 25.9623 L303.3849 25.9623 L302.0309 27.9932 L302.0309 30.7012 L304.7389 32.7321 L307.4468 32.7321 L308.1238 33.4091 L308.8008 33.4091 L309.4777 32.7321 L314.2166 32.7321 L314.8936 32.0551 L316.9245 32.0551 L317.6015 31.3781 L317.6015 30.7012 L315.5706 30.7012 L314.8936 30.0242 L313.5396 30.0242 L312.1857 28.6702 L312.1857 25.2853 L312.8627 24.6083 L313.5396 24.6083 L314.8936 26.6393 L316.2476 26.6393 L315.5706 24.6083 L317.6015 22.5774 L319.6325 22.5774 L320.3095 23.2544 L320.3095 24.6083 L319.6325 25.2853 L319.6325 26.6393 L320.3095 27.3163 L320.3095 29.3472 L322.3404 30.7012 L325.7253 30.7012 L326.4023 30.0242 L328.4333 29.3472 L329.7872 27.9932 L330.4642 27.9932 L330.4642 27.3163 L331.1412 26.6393 L330.4642 24.6083 L331.1412 23.9313 L333.1721 24.6083 L335.2031 26.6393 L335.2031 27.9932 L337.234 30.7012 L340.6189 30.7012 L341.9729 29.3472 L342.6499 29.3472 L345.3578 26.6393 L346.7118 26.6393 L347.3888 25.9623 L349.4197 25.9623 L350.7737 23.9313 L351.4507 24.6083 L351.4507 25.2853 L352.1277 25.2853 L352.8046 24.6083 L352.1277 21.2234 L353.4816 19.1925 L354.1586 19.1925 L354.8356 19.8695 L354.8356 20.5464 L355.5126 20.5464 L355.5126 19.8695 L354.1586 17.8385 L354.1586 16.4845 L354.8356 15.8076 L354.8356 15.1306 L353.4816 15.1306 L352.1277 13.0996 L352.1277 11.7456 L352.8046 11.0687 L352.1277 9.0377 L351.4507 9.0377 L351.4507 9.7147 L350.7737 10.3917 L349.4197 9.0377 L349.4197 8.3608 L347.3888 8.3608 L346.7118 7.6838 L344.6808 7.6838 L341.2959 4.2988 L340.6189 4.2988 L339.942 3.6219 L337.911 3.6219 L337.234 4.2988 L336.5571 4.2988 L336.5571 4.9758 L335.2031 6.3298 L335.2031 7.6838 L334.5261 8.3608 L334.5261 9.0377 L333.8491 9.7147 L332.4952 9.7147 L331.8182 10.3917 L331.1412 10.3917 L330.4642 9.7147 L331.1412 7.6838 L329.1102 5.6528 L328.4333 5.6528 L325.0483 3.6219 L322.3404 3.6219 L320.3095 4.9758 L320.3095 7.6838 L319.6325 8.3608 L319.6325 9.0377 L320.3095 9.7147 L320.3095 11.0687 L318.9555 12.4226 L318.2785 11.7456 L317.6015 11.7456 L315.5706 9.7147 L316.2476 7.6838 L314.8936 7.6838 L313.5396 9.7147 L312.8627 9.7147 L312.1857 9.0377 L312.1857 6.3298 L314.2166 4.2988 L314.8936 4.2988 L315.5706 3.6219 L317.6015 3.6219 L317.6015 2.9449 L316.2476 2.9449 L315.5706 2.2679 L313.5396 2.2679 L312.8627 1.5909 L305.4159 1.5909 L304.7389 2.2679 L303.3849 2.2679 L302.0309 3.6219 Z" fill-rule="evenodd" clip-rule="evenodd" fill="white" stroke="none"/>
  <path d="M355.5126 3.6219 L358.8975 3.6219 L359.5745 4.2988 L360.9284 4.2988 L362.2824 2.9449 L513.9265 2.9449 L513.9265 2.2679 L513.2495 2.2679 L512.5725 1.5909 L357.5435 1.5909 L356.8665 2.2679 L356.1895 2.2679 L355.5126 2.9449 L355.5126 3.6219 Z" fill-rule="evenodd" clip-rule="evenodd" fill="white" stroke="none"/>
  <path d="M515.2804 1.5909 L515.2804 2.9449 L588.3946 2.9449 L589.7485 4.2988 L590.4255 4.2988 L591.1025 3.6219 L594.4874 3.6219 L594.4874 2.9449 L593.1334 1.5909 L515.2804 1.5909 Z" fill-rule="evenodd" clip-rule="evenodd" fill="white" stroke="none"/>
  <path d="M647.9691 3.6219 L646.615 2.2679 L645.2611 2.2679 L644.5841 1.5909 L637.1373 1.5909 L636.4603 2.2679 L634.4294 2.2679 L633.7524 2.9449 L632.3985 2.9449 L632.3985 3.6219 L634.4294 3.6219 L635.1063 4.2988 L635.7833 4.2988 L637.8143 6.3298 L637.8143 9.7147 L637.1373 10.3917 L636.4603 10.3917 L635.7833 9.7147 L635.7833 8.3608 L635.1063 7.6838 L633.7524 7.6838 L634.4294 9.7147 L632.3985 11.7456 L631.7214 11.7456 L631.0444 12.4226 L629.6905 11.0687 L630.3675 10.3917 L630.3675 7.0068 L629.6905 6.3298 L629.6905 4.9758 L627.6596 3.6219 L624.9516 3.6219 L624.2747 4.2988 L623.5977 4.2988 L622.9207 4.9758 L620.8897 5.6528 L619.5358 7.0068 L619.5358 9.7147 L618.8588 10.3917 L618.1818 10.3917 L617.5048 9.7147 L616.1509 9.7147 L615.4738 9.0377 L615.4738 8.3608 L614.7969 7.6838 L614.7969 6.3298 L613.4429 4.2988 L612.766 4.2988 L612.089 3.6219 L610.058 3.6219 L609.3811 4.2988 L608.7041 4.2988 L605.3191 7.6838 L603.2882 7.6838 L602.6112 8.3608 L600.5802 8.3608 L600.5802 9.0377 L599.2263 10.3917 L598.5493 9.7147 L597.8723 9.7147 L597.8723 13.0996 L596.5184 15.1306 L595.1644 15.1306 L595.1644 15.8076 L595.8414 16.4845 L595.8414 18.5155 L595.1644 19.1925 L595.1644 19.8695 L595.8414 19.8695 L596.5184 19.1925 L597.1953 19.8695 L597.1953 20.5464 L597.8723 21.2234 L597.8723 23.2544 L597.1953 23.9313 L597.1953 24.6083 L597.8723 25.2853 L598.5493 25.2853 L598.5493 24.6083 L599.2263 23.9313 L600.5802 25.2853 L600.5802 25.9623 L602.6112 25.9623 L603.2882 26.6393 L604.6421 26.6393 L605.3191 27.3163 L605.9961 27.3163 L608.7041 30.0242 L609.3811 30.0242 L610.058 30.7012 L612.766 30.7012 L614.7969 28.6702 L614.7969 26.6393 L616.8278 24.6083 L617.5048 24.6083 L618.1818 23.9313 L618.8588 23.9313 L619.5358 24.6083 L619.5358 27.3163 L621.5667 29.3472 L622.2437 29.3472 L622.9207 30.0242 L624.2747 30.0242 L624.9516 30.7012 L628.3366 30.7012 L629.6905 29.3472 L629.6905 27.9932 L630.3675 27.3163 L630.3675 23.9313 L629.6905 23.2544 L630.3675 22.5774 L632.3985 22.5774 L634.4294 24.6083 L633.7524 26.6393 L635.1063 26.6393 L635.7833 25.9623 L635.7833 24.6083 L636.4603 23.9313 L637.1373 23.9313 L637.8143 24.6083 L637.8143 28.6702 L636.4603 30.0242 L635.7833 30.0242 L635.1063 30.7012 L632.3985 30.7012 L632.3985 31.3781 L633.0754 31.3781 L633.7524 32.0551 L635.1063 32.0551 L635.7833 32.7321 L639.8453 32.7321 L640.5222 33.4091 L642.5532 33.4091 L643.2302 32.7321 L645.2611 32.7321 L645.9381 32.0551 L646.615 32.0551 L647.9691 30.7012 L647.9691 27.3163 L645.9381 25.2853 L645.2611 25.2853 L644.5841 24.6083 L643.9072 24.6083 L640.5222 22.5774 L639.1683 22.5774 L637.1373 21.2234 L635.1063 21.2234 L634.4294 20.5464 L632.3985 20.5464 L631.7214 19.8695 L629.0135 19.8695 L626.9825 17.8385 L626.9825 16.4845 L628.3366 15.1306 L629.0135 15.1306 L629.6905 14.4536 L632.3985 14.4536 L633.0754 13.7766 L635.1063 13.7766 L635.7833 13.0996 L637.1373 13.0996 L637.8143 12.4226 L639.1683 12.4226 L639.8453 11.7456 L641.1992 11.7456 L641.8762 11.0687 L642.5532 11.0687 L643.2302 10.3917 L645.2611 9.7147 L647.9691 7.0068 L647.9691 3.6219 Z" fill-rule="evenodd" clip-rule="evenodd" fill="white" stroke="none"/>
  <path d="M356.8665 7.0068 L356.8665 9.0377 L357.5435 9.7147 L358.2205 9.7147 L358.2205 8.3608 L357.5435 7.6838 L357.5435 7.0068 L356.8665 7.0068 Z" fill-rule="evenodd" clip-rule="evenodd" fill="white" stroke="none"/>
  <path d="M593.1334 7.6838 L592.4565 7.6838 L591.7795 8.3608 L591.7795 9.7147 L591.1025 10.3917 L590.4255 10.3917 L589.0715 9.0377 L588.3946 9.0377 L588.3946 10.3917 L589.0715 11.0687 L591.1025 11.0687 L591.1025 10.3917 L591.7795 9.7147 L593.1334 9.7147 L593.1334 7.6838 Z" fill-rule="evenodd" clip-rule="evenodd" fill="white" stroke="none"/>
  <path d="M339.265 11.0687 L339.942 11.7456 L339.942 13.0996 L337.234 15.8076 L336.5571 15.1306 L336.5571 12.4226 L337.911 11.0687 L339.265 11.0687 Z" fill-rule="evenodd" clip-rule="evenodd" fill="white" stroke="none"/>
  <path d="M611.412 11.0687 L612.766 11.0687 L613.4429 11.7456 L613.4429 15.1306 L612.766 15.8076 L610.058 13.0996 L610.058 12.4226 L611.412 11.0687 Z" fill-rule="evenodd" clip-rule="evenodd" fill="white" stroke="none"/>
  <path d="M613.4429 16.4845 L614.7969 14.4536 L614.7969 13.0996 L616.1509 11.7456 L616.8278 12.4226 L618.1818 12.4226 L618.8588 13.0996 L620.2127 13.0996 L620.8897 13.7766 L622.2437 13.7766 L623.5977 15.1306 L626.3056 15.1306 L626.9825 15.8076 L626.3056 16.4845 L625.6286 16.4845 L625.6286 17.8385 L626.3056 17.8385 L626.9825 18.5155 L626.3056 19.1925 L624.2747 19.1925 L620.8897 21.2234 L619.5358 21.2234 L618.8588 21.9004 L617.5048 21.9004 L616.8278 22.5774 L615.4738 22.5774 L614.7969 21.9004 L614.7969 20.5464 L614.1199 19.8695 L614.1199 18.5155 L613.4429 17.8385 L613.4429 16.4845 Z" fill-rule="evenodd" clip-rule="evenodd" fill="white" stroke="none"/>
  <path d="M322.3404 13.0996 L323.0174 12.4226 L325.0483 12.4226 L325.7253 13.0996 L325.0483 13.7766 L323.0174 13.7766 L322.3404 13.0996 Z" fill-rule="evenodd" clip-rule="evenodd" fill="white" stroke="none"/>
  <path d="M624.2747 13.0996 L624.9516 12.4226 L626.9825 12.4226 L627.6596 13.0996 L626.9825 13.7766 L624.9516 13.7766 L624.2747 13.0996 Z" fill-rule="evenodd" clip-rule="evenodd" fill="white" stroke="none"/>
  <path d="M338.588 16.4845 L339.942 15.1306 L340.6189 15.1306 L342.6499 13.7766 L347.3888 13.7766 L348.0658 14.4536 L349.4197 14.4536 L352.1277 17.1615 L352.1277 17.8385 L350.7737 19.1925 L350.0967 19.1925 L348.0658 20.5464 L342.6499 20.5464 L341.9729 19.8695 L340.6189 19.8695 L338.588 17.8385 L338.588 16.4845 Z" fill-rule="evenodd" clip-rule="evenodd" fill="white" stroke="none"/>
  <path d="M597.8723 17.8385 L597.8723 17.1615 L599.9033 15.1306 L600.5802 15.1306 L602.6112 13.7766 L607.3501 13.7766 L608.0271 14.4536 L610.058 15.1306 L612.089 17.1615 L609.3811 19.8695 L608.7041 19.8695 L608.0271 20.5464 L601.9342 20.5464 L601.2572 19.8695 L599.2263 19.1925 L597.8723 17.8385 Z" fill-rule="evenodd" clip-rule="evenodd" fill="white" stroke="none"/>
  <path d="M612.766 18.5155 L613.4429 19.1925 L613.4429 22.5774 L612.766 23.2544 L610.735 23.2544 L610.058 22.5774 L610.058 21.2234 L612.766 18.5155 Z" fill-rule="evenodd" clip-rule="evenodd" fill="white" stroke="none"/>
  <path d="M336.5571 19.8695 L337.234 19.1925 L337.911 19.1925 L339.942 21.2234 L339.942 22.5774 L339.265 23.2544 L337.234 23.2544 L336.5571 22.5774 L336.5571 19.8695 Z" fill-rule="evenodd" clip-rule="evenodd" fill="white" stroke="none"/>
  <path d="M322.3404 21.2234 L323.0174 20.5464 L325.0483 20.5464 L326.4023 21.9004 L325.7253 22.5774 L323.0174 22.5774 L322.3404 21.9004 L322.3404 21.2234 Z" fill-rule="evenodd" clip-rule="evenodd" fill="white" stroke="none"/>
  <path d="M623.5977 21.9004 L624.9516 20.5464 L626.9825 20.5464 L627.6596 21.2234 L627.6596 21.9004 L626.9825 22.5774 L624.2747 22.5774 L623.5977 21.9004 Z" fill-rule="evenodd" clip-rule="evenodd" fill="white" stroke="none"/>
  <path d="M359.5745 23.2544 L359.5745 23.9313 L360.9284 25.2853 L361.6054 25.2853 L361.6054 23.9313 L360.9284 23.2544 L359.5745 23.2544 Z" fill-rule="evenodd" clip-rule="evenodd" fill="white" stroke="none"/>
  <path d="M358.2205 24.6083 L357.5435 24.6083 L356.8665 25.2853 L356.8665 27.3163 L357.5435 27.3163 L358.2205 26.6393 L358.2205 24.6083 Z" fill-rule="evenodd" clip-rule="evenodd" fill="white" stroke="none"/>
  <path d="M594.4874 27.3163 L594.4874 27.9932 L596.5184 27.9932 L596.5184 26.6393 L595.1644 26.6393 L594.4874 27.3163 Z" fill-rule="evenodd" clip-rule="evenodd" fill="white" stroke="none"/>
  <path d="M355.5126 30.7012 L355.5126 31.3781 L356.8665 32.7321 L382.5919 32.7321 L382.5919 31.3781 L361.6054 31.3781 L360.2514 30.0242 L359.5745 30.0242 L358.2205 31.3781 L357.5435 31.3781 L356.8665 30.7012 L355.5126 30.7012 Z" fill-rule="evenodd" clip-rule="evenodd" fill="white" stroke="none"/>
  <path d="M595.1644 30.0242 L594.4874 30.0242 L592.4565 31.3781 L591.7795 31.3781 L590.4255 30.0242 L589.7485 30.0242 L588.3946 31.3781 L580.9478 31.3781 L580.2707 32.0551 L580.2707 32.7321 L593.1334 32.7321 L595.1644 30.7012 L595.1644 30.0242 Z" fill-rule="evenodd" clip-rule="evenodd" fill="white" stroke="none"/>
  <path d="M384.6228 31.3781 L384.6228 32.7321 L385.9768 32.7321 L386.6538 32.0551 L389.3617 32.0551 L390.0387 32.7321 L568.7621 32.7321 L569.4391 32.0551 L570.793 32.7321 L577.5629 32.7321 L576.8859 31.3781 L571.47 31.3781 L570.793 32.0551 L570.116 31.3781 L394.1006 31.3781 L393.4236 32.0551 L392.0696 32.0551 L391.3926 31.3781 L384.6228 31.3781 Z" fill-rule="evenodd" clip-rule="evenodd" fill="white" stroke="none"/>
</svg>
