<?xml version="1.0" encoding="UTF-8"?>
<svg width="950" height="35" viewBox="0 0 950 35" fill="none" xmlns="http://www.w3.org/2000/svg">
  <path d="M331 17.5 L337 2.5 L340.8891 13.6109 L352 17.5 L340.8891 21.3891 L337 32.5 L333.1109 21.3891 L322 17.5 L333.1109 13.6109 L345 17.5 Z" fill-rule="evenodd" clip-rule="evenodd" fill="#B22222" stroke="none"/>
  <path d="M619 17.5 L613 2.5 L609.1109 13.6109 L598 17.5 L609.1109 21.3891 L613 32.5 L616.8891 21.3891 L628 17.5 L616.8891 13.6109 L605 17.5 Z" fill-rule="evenodd" clip-rule="evenodd" fill="#B22222" stroke="none"/>
  <path d="M348.5 15 L352 17.5 L348.5 20 Z" fill-rule="evenodd" clip-rule="evenodd" fill="#B22222" stroke="none"/>
  <path d="M601.5 15 L598 17.5 L601.5 20 Z" fill-rule="evenodd" clip-rule="evenodd" fill="#B22222" stroke="none"/>
  <path d="M348.5 15 L352 17.5 L348.5 20 Z" fill-rule="evenodd" clip-rule="evenodd" fill="#B22222" stroke="none"/>
  <path d="M601.5 15 L598 17.5 L601.5 20 Z" fill-rule="evenodd" clip-rule="evenodd" fill="#B22222" stroke="none"/>
  <path d="M348.5 15 L352 17.5 L348.5 20 Z" fill-rule="evenodd" clip-rule="evenodd" fill="#B22222" stroke="none"/>
  <path d="M601.5 15 L598 17.5 L601.5 20 Z" fill-rule="evenodd" clip-rule="evenodd" fill="#B22222" stroke="none"/>
  <path d="M9.5 17.5 L352 17.5" fill="none" stroke="#B22222" stroke-width="1.2" stroke-linecap="round" stroke-linejoin="round"/>
  <path d="M598 17.5 L940.5 17.5" fill="none" stroke="#B22222" stroke-width="1.2" stroke-linecap="round" stroke-linejoin="round"/>
</svg>
