<?xml version="1.0" encoding="UTF-8"?>
<svg width="950" height="35" viewBox="0 0 950 35" fill="none" xmlns="http://www.w3.org/2000/svg">
  <path d="M311.6883 26.9156 L314.9351 26.2662 L317.5325 28.2143 L316.2338 30.1623 L312.987 30.1623 L314.2857 33.4091 L318.1818 33.4091 L325.3247 28.2143 L333.7662 33.4091 L337.6623 33.4091 L339.6104 30.8117 L348.052 26.9156 L357.1429 29.513 L361.039 29.513 L364.2857 27.5649 L537.6624 27.5649 L537.013 26.2662 L365.5844 26.2662 L361.039 21.0714 L352.5974 17.8247 L353.2468 15.2273 L350.6494 10.0325 L353.8961 9.3831 L354.5455 13.2792 L357.1429 11.9805 L357.1429 13.9286 L354.5455 15.8766 L356.4935 16.526 L361.6883 13.9286 L364.9351 9.3831 L562.3377 9.3831 L562.3377 8.0844 L385.7143 8.7338 L364.2857 8.0844 L361.6883 6.1364 L355.8442 6.1364 L348.052 8.7338 L343.5065 5.487 L339.6104 4.8377 L337.013 1.5909 L331.8182 2.8896 L325.974 7.4351 L320.1299 2.8896 L314.9351 1.5909 L312.987 5.487 L316.8831 5.487 L317.5325 7.4351 L314.9351 9.3831 L311.6883 8.7338 L312.3377 10.0325 L320.1299 10.6818 L318.8312 8.7338 L320.1299 5.487 L323.3766 9.3831 L324.026 7.4351 L325.3247 8.0844 L325.3247 10.6818 L328.5714 12.6299 L332.4675 18.474 L325.3247 24.9675 L324.026 28.2143 L322.7273 26.9156 L320.1299 29.513 L318.8312 26.9156 L320.1299 24.9675 L314.9351 24.9675 L311.6883 26.9156 Z" fill-rule="evenodd" clip-rule="evenodd" fill="white" stroke="none"/>
  <path d="M637.013 4.8377 L635.7143 3.539 L635.7143 1.5909 L634.4156 1.5909 L633.7662 2.2402 L631.8182 2.2402 L629.2208 3.539 L624.6753 7.4351 L624.026 7.4351 L621.4286 4.8377 L619.4805 4.1883 L618.1818 2.8896 L612.987 1.5909 L610.3896 4.8377 L607.1428 5.487 L603.2468 7.4351 L601.948 8.7338 L600.6494 8.7338 L600 8.0844 L598.7013 8.0844 L594.1558 6.1364 L588.961 6.1364 L585.7143 8.0844 L572.7273 8.0844 L572.7273 9.3831 L585.0649 9.3831 L588.3117 13.9286 L593.5065 16.526 L595.4546 16.526 L595.4546 15.8766 L594.8052 15.8766 L592.8572 13.9286 L592.8572 11.9805 L594.1558 11.3312 L594.8052 12.6299 L596.1039 13.2792 L596.1039 10.0325 L596.7532 9.3831 L598.7013 9.3831 L599.3506 10.0325 L598.7013 10.6818 L598.7013 11.9805 L597.4026 13.2792 L597.4026 15.2273 L596.7532 15.8766 L597.4026 17.8247 L594.8052 19.1234 L592.8572 19.1234 L588.3117 21.7208 L586.3637 23.6688 L585.0649 26.2662 L551.2987 26.2662 L550.6494 26.9156 L548.7013 26.2662 L548.7013 26.9156 L550 27.5649 L585.7143 27.5649 L589.6104 29.513 L596.1039 28.8636 L596.7532 28.2143 L601.948 26.9156 L607.1428 30.1623 L609.0909 30.1623 L610.3896 30.8117 L612.3377 33.4091 L616.2338 33.4091 L620.1299 31.461 L624.026 28.2143 L625.3247 28.2143 L625.974 29.513 L629.2208 32.1104 L631.8182 32.7597 L632.4675 33.4091 L635.7143 33.4091 L635.7143 32.1104 L637.013 30.8117 L637.013 30.1623 L633.7662 30.1623 L632.4675 28.8636 L632.4675 28.2143 L633.7662 26.9156 L635.065 26.2662 L637.6624 26.2662 L637.6624 25.6169 L631.1688 24.9675 L631.1688 26.9156 L630.5195 27.5649 L631.1688 28.8636 L630.5195 29.513 L629.2208 29.513 L627.2727 27.5649 L627.2727 26.9156 L626.6234 26.9156 L625.974 28.2143 L624.6753 26.9156 L624.6753 24.3182 L623.3766 24.9675 L617.5325 18.474 L617.5325 17.1753 L623.3766 10.6818 L624.6753 11.3312 L624.6753 8.0844 L625.3247 7.4351 L625.974 7.4351 L626.6234 8.7338 L627.2727 8.7338 L627.2727 8.0844 L629.8701 5.487 L631.1688 6.1364 L631.1688 8.7338 L629.8701 10.0325 L629.2208 10.0325 L629.2208 10.6818 L635.065 10.6818 L635.7143 10.0325 L637.6624 10.0325 L637.6624 9.3831 L635.065 9.3831 L632.4675 7.4351 L632.4675 6.1364 L633.1169 5.487 L637.013 5.487 L637.013 4.8377 Z" fill-rule="evenodd" clip-rule="evenodd" fill="white" stroke="none"/>
  <path d="M297.4026 8.0844 L298.7013 9.3831 L299.3507 9.3831 L300 10.0325 L302.5974 10.0325 L302.5974 8.7338 L303.8961 7.4351 L307.1429 7.4351 L307.1429 6.7857 L304.5455 6.7857 L303.8961 6.1364 L298.7013 6.1364 L297.4026 7.4351 L297.4026 8.0844 Z" fill-rule="evenodd" clip-rule="evenodd" fill="white" stroke="none"/>
  <path d="M643.5065 6.7857 L643.5065 7.4351 L646.1039 7.4351 L647.4026 8.7338 L647.4026 10.0325 L650 10.0325 L651.2987 8.7338 L651.9481 8.7338 L651.9481 6.7857 L651.2987 6.1364 L646.7533 6.1364 L646.1039 6.7857 L643.5065 6.7857 Z" fill-rule="evenodd" clip-rule="evenodd" fill="white" stroke="none"/>
  <path d="M327.9221 8.0844 L328.5714 8.0844 L330.5195 6.7857 L333.1169 6.7857 L334.4156 8.0844 L334.4156 14.5779 L333.7662 15.2273 L332.4675 15.2273 L327.2727 10.0325 L327.2727 8.7338 L327.9221 8.0844 Z" fill-rule="evenodd" clip-rule="evenodd" fill="white" stroke="none"/>
  <path d="M344.1559 9.3831 L344.1559 10.6818 L342.8571 11.9805 L340.2597 11.9805 L340.2597 13.2792 L339.6104 13.9286 L337.6623 13.9286 L337.013 14.5779 L336.3636 13.9286 L336.3636 11.9805 L337.6623 10.6818 L337.6623 9.3831 L338.3117 8.7338 L338.3117 8.0844 L339.6104 6.7857 L340.2597 7.4351 L341.5584 7.4351 L342.8571 8.7338 L343.5065 8.7338 L344.1559 9.3831 Z" fill-rule="evenodd" clip-rule="evenodd" fill="white" stroke="none"/>
  <path d="M619.4805 6.7857 L620.1299 7.4351 L622.0779 8.0844 L622.7273 8.7338 L622.7273 10.0325 L617.5325 15.2273 L616.2338 15.2273 L615.5844 14.5779 L615.5844 11.9805 L616.2338 11.3312 L616.2338 8.7338 L615.5844 8.0844 L616.8831 6.7857 L619.4805 6.7857 Z" fill-rule="evenodd" clip-rule="evenodd" fill="white" stroke="none"/>
  <path d="M605.8442 10.0325 L608.4416 7.4351 L611.039 7.4351 L612.3377 9.3831 L612.3377 10.6818 L613.6364 11.9805 L613.6364 13.9286 L612.987 14.5779 L612.3377 13.9286 L611.039 13.9286 L609.7402 12.6299 L609.7402 11.9805 L607.7922 11.9805 L607.1428 11.3312 L606.4935 11.3312 L605.8442 10.6818 L605.8442 10.0325 Z" fill-rule="evenodd" clip-rule="evenodd" fill="white" stroke="none"/>
  <path d="M564.2857 8.0844 L564.2857 9.3831 L570.7792 9.3831 L571.4286 8.7338 L571.4286 8.0844 L568.8311 8.0844 L568.1818 8.7338 L567.5325 8.7338 L566.8831 8.0844 L564.2857 8.0844 Z" fill-rule="evenodd" clip-rule="evenodd" fill="white" stroke="none"/>
  <path d="M340.2597 15.2273 L340.2597 14.5779 L340.9091 13.9286 L342.2078 13.9286 L342.8571 13.2792 L344.1559 13.2792 L344.8052 13.9286 L343.5065 15.8766 L340.9091 15.8766 L340.2597 15.2273 Z" fill-rule="evenodd" clip-rule="evenodd" fill="white" stroke="none"/>
  <path d="M605.1948 13.9286 L605.8442 13.2792 L607.1428 13.2792 L607.7922 13.9286 L609.0909 13.9286 L609.7402 14.5779 L609.7402 15.2273 L609.0909 15.8766 L606.4935 15.8766 L605.1948 13.9286 Z" fill-rule="evenodd" clip-rule="evenodd" fill="white" stroke="none"/>
  <path d="M336.3636 13.9286 L337.013 14.5779 L337.013 15.2273 L335.7143 16.526 L335.0649 16.526 L334.4156 15.8766 L336.3636 13.9286 Z" fill-rule="evenodd" clip-rule="evenodd" fill="white" stroke="none"/>
  <path d="M612.987 14.5779 L613.6364 13.9286 L614.2857 13.9286 L615.5844 15.2273 L615.5844 15.8766 L614.9351 16.526 L614.2857 15.8766 L613.6364 15.8766 L612.987 15.2273 L612.987 14.5779 Z" fill-rule="evenodd" clip-rule="evenodd" fill="white" stroke="none"/>
  <path d="M334.4156 19.7727 L335.0649 19.1234 L335.7143 19.1234 L337.013 20.4221 L337.013 21.0714 L336.3636 21.7208 L334.4156 19.7727 Z" fill-rule="evenodd" clip-rule="evenodd" fill="white" stroke="none"/>
  <path d="M354.5455 19.1234 L357.1429 21.7208 L357.1429 23.0195 L356.4935 23.6688 L355.8442 23.6688 L355.1948 23.0195 L355.1948 22.3701 L354.5455 22.3701 L354.5455 23.6688 L353.8961 24.3182 L353.8961 24.9675 L353.2468 25.6169 L351.9481 25.6169 L351.2987 24.9675 L351.9481 24.3182 L351.9481 23.0195 L353.2468 21.7208 L353.2468 21.0714 L352.5974 20.4221 L353.8961 19.1234 L354.5455 19.1234 Z" fill-rule="evenodd" clip-rule="evenodd" fill="white" stroke="none"/>
  <path d="M595.4546 19.1234 L596.1039 19.1234 L597.4026 20.4221 L597.4026 21.7208 L598.7013 23.6688 L598.7013 24.9675 L598.052 25.6169 L597.4026 25.6169 L596.1039 24.3182 L596.1039 22.3701 L594.8052 22.3701 L594.8052 23.6688 L594.1558 24.3182 L592.8572 23.0195 L592.8572 21.7208 L595.4546 19.1234 Z" fill-rule="evenodd" clip-rule="evenodd" fill="white" stroke="none"/>
  <path d="M614.9351 19.1234 L615.5844 19.7727 L615.5844 20.4221 L613.6364 21.7208 L612.987 21.0714 L612.987 20.4221 L614.2857 19.1234 L614.9351 19.1234 Z" fill-rule="evenodd" clip-rule="evenodd" fill="white" stroke="none"/>
  <path d="M339.6104 20.4221 L340.2597 19.7727 L343.5065 19.7727 L344.8052 21.0714 L344.8052 21.7208 L344.1559 22.3701 L343.5065 22.3701 L342.8571 21.7208 L341.5584 21.7208 L339.6104 20.4221 Z" fill-rule="evenodd" clip-rule="evenodd" fill="white" stroke="none"/>
  <path d="M605.8442 21.7208 L605.8442 20.4221 L606.4935 19.7727 L609.7402 19.7727 L610.3896 20.4221 L607.1428 22.3701 L606.4935 22.3701 L605.8442 21.7208 Z" fill-rule="evenodd" clip-rule="evenodd" fill="white" stroke="none"/>
  <path d="M333.7662 20.4221 L334.4156 21.0714 L334.4156 27.5649 L333.1169 28.8636 L331.1688 28.8636 L330.5195 28.2143 L329.2208 28.2143 L327.2727 26.2662 L327.2727 25.6169 L332.4675 20.4221 L333.7662 20.4221 Z" fill-rule="evenodd" clip-rule="evenodd" fill="white" stroke="none"/>
  <path d="M615.5844 21.0714 L616.2338 20.4221 L617.5325 20.4221 L618.1818 21.0714 L618.8312 21.0714 L620.1299 22.3701 L620.1299 23.0195 L622.7273 25.6169 L622.7273 26.2662 L620.7792 28.2143 L620.1299 28.2143 L619.4805 28.8636 L616.8831 28.8636 L615.5844 27.5649 L615.5844 26.9156 L616.2338 26.2662 L616.2338 24.3182 L615.5844 23.6688 L615.5844 21.0714 Z" fill-rule="evenodd" clip-rule="evenodd" fill="white" stroke="none"/>
  <path d="M336.3636 21.7208 L337.013 21.0714 L338.3117 21.0714 L338.961 21.7208 L339.6104 21.7208 L340.2597 22.3701 L340.2597 23.0195 L341.5584 23.0195 L342.2078 23.6688 L342.8571 23.6688 L344.1559 24.9675 L344.1559 25.6169 L342.2078 27.5649 L341.5584 27.5649 L340.9091 28.2143 L338.961 28.2143 L338.3117 27.5649 L338.3117 26.2662 L336.3636 23.0195 L336.3636 21.7208 Z" fill-rule="evenodd" clip-rule="evenodd" fill="white" stroke="none"/>
  <path d="M612.987 21.0714 L613.6364 21.7208 L613.6364 23.6688 L612.3377 24.9675 L612.3377 26.2662 L611.039 28.2143 L609.0909 28.2143 L608.4416 27.5649 L607.7922 27.5649 L605.8442 25.6169 L605.8442 24.9675 L607.1428 23.6688 L607.7922 23.6688 L608.4416 23.0195 L609.7402 23.0195 L609.7402 22.3701 L611.6883 21.0714 L612.987 21.0714 Z" fill-rule="evenodd" clip-rule="evenodd" fill="white" stroke="none"/>
  <path d="M298.052 26.9156 L298.052 28.8636 L298.7013 28.8636 L299.3507 29.513 L301.9481 29.513 L302.5974 28.8636 L305.8442 28.8636 L305.8442 28.2143 L303.8961 28.2143 L302.5974 26.9156 L302.5974 25.6169 L300 25.6169 L298.052 26.9156 Z" fill-rule="evenodd" clip-rule="evenodd" fill="white" stroke="none"/>
  <path d="M644.8052 28.8636 L647.4026 28.8636 L648.0519 29.513 L650.6493 29.513 L651.2987 28.8636 L651.9481 28.8636 L652.5974 28.2143 L652.5974 27.5649 L651.2987 26.2662 L650.6493 26.2662 L650 25.6169 L647.4026 25.6169 L647.4026 26.9156 L646.1039 28.2143 L644.8052 28.2143 L644.8052 28.8636 Z" fill-rule="evenodd" clip-rule="evenodd" fill="white" stroke="none"/>
  <path d="M538.961 26.2662 L538.961 26.9156 L540.2598 26.9156 L540.9091 27.5649 L543.5065 27.5649 L543.5065 26.2662 L538.961 26.2662 Z" fill-rule="evenodd" clip-rule="evenodd" fill="white" stroke="none"/>
  <path d="M544.8052 26.2662 L544.8052 26.9156 L545.4545 27.5649 L547.4026 27.5649 L547.4026 26.9156 L546.7532 26.2662 L544.8052 26.2662 Z" fill-rule="evenodd" clip-rule="evenodd" fill="white" stroke="none"/>
</svg>
