<?xml version="1.0" encoding="UTF-8"?>
<svg width="950" height="35" viewBox="0 0 950 35" fill="none" xmlns="http://www.w3.org/2000/svg">
  <path d="M336.7544 17.2817 L455.6456 17.4694" fill="none" stroke="white" stroke-width="0.5" stroke-linecap="round" stroke-linejoin="round"/>
  <path d="M494.3544 17.5306 L613.2456 17.7183" fill="none" stroke="white" stroke-width="0.5" stroke-linecap="round" stroke-linejoin="round"/>
  <path d="M474.9586 9.1268 L484.2164 17.5145 L475.0414 25.8732 L465.7836 17.4855 L474.9586 9.1268 Z" fill-rule="evenodd" clip-rule="evenodd" fill="white" stroke="none"/>
  <path d="M474.9214 1.5909 L492.5111 17.5276 L475.0787 33.4091 L457.4889 17.4723 L474.9214 1.5909 Z" fill-rule="evenodd" clip-rule="evenodd" fill="white" stroke="none"/>
  <path d="M450.5766 17.4614 C450.5686 15.8429 449.1179 14.5285 447.3364 14.5257 C445.5549 14.5229 444.1171 15.8327 444.1251 17.4512 C444.1331 19.0698 445.5838 20.3841 447.3654 20.3869 C449.1469 20.3898 450.5846 19.0799 450.5766 17.4614 Z" fill-rule="evenodd" clip-rule="evenodd" fill="white" stroke="none"/>
  <path d="M505.8748 17.5487 C505.8669 15.9302 504.4162 14.6158 502.6346 14.613 C500.8531 14.6102 499.4154 15.92 499.4234 17.5385 C499.4314 19.1571 500.8821 20.4714 502.6636 20.4742 C504.4451 20.4771 505.8828 19.1673 505.8748 17.5487 Z" fill-rule="evenodd" clip-rule="evenodd" fill="white" stroke="none"/>
</svg>
