<?xml version="1.0" encoding="UTF-8"?>
<svg width="950" height="35" viewBox="0 0 950 35" fill="none" xmlns="http://www.w3.org/2000/svg">
  <path d="M302 17.5 L310 7.5 L320 11.5 L326 5.5 L334 13.5 L342 7.5 L348 15.5 L352 17.5 L348 19.5 L342 27.5 L334 21.5 L326 29.5 L320 23.5 L310 27.5 Z" fill-rule="evenodd" clip-rule="evenodd" fill="white" stroke="none"/>
  <path d="M348 17.5 L344.8 20.7 L341.6 17.5 L344.8 14.3 Z" fill-rule="evenodd" clip-rule="evenodd" fill="white" stroke="none"/>
  <path d="M648 17.5 L640 7.5 L630 11.5 L624 5.5 L616 13.5 L608 7.5 L602 15.5 L598 17.5 L602 19.5 L608 27.5 L616 21.5 L624 29.5 L630 23.5 L640 27.5 Z" fill-rule="evenodd" clip-rule="evenodd" fill="white" stroke="none"/>
  <path d="M602 17.5 L605.2 20.7 L608.4 17.5 L605.2 14.3 Z" fill-rule="evenodd" clip-rule="evenodd" fill="white" stroke="none"/>
  <path d="M9.5 17.5 L352 17.5" fill="none" stroke="white" stroke-width="1.2" stroke-linecap="round" stroke-linejoin="round"/>
  <path d="M598 17.5 L940.5 17.5" fill="none" stroke="white" stroke-width="1.2" stroke-linecap="round" stroke-linejoin="round"/>
</svg>
