<?xml version="1.0" encoding="UTF-8"?>
<svg width="950" height="35" viewBox="0 0 950 35" fill="none" xmlns="http://www.w3.org/2000/svg">
  <path d="M9.5 17.324 L200.5388 17.324" fill="none" stroke="white" stroke-width="0.5" stroke-linecap="round" stroke-linejoin="round"/>
  <path d="M758.0833 17.324 L940.5 17.324" fill="none" stroke="white" stroke-width="0.5" stroke-linecap="round" stroke-linejoin="round"/>
  <path d="M9.5 17.676 L200.5388 17.676" fill="none" stroke="white" stroke-width="0.5" stroke-linecap="round" stroke-linejoin="round"/>
  <path d="M758.0833 17.676 L940.5 17.676" fill="none" stroke="white" stroke-width="0.5" stroke-linecap="round" stroke-linejoin="round"/>
  <path d="M434.104 10.0112 L442.3125 17.4484 L434.1773 24.8597 L425.9688 17.4226 L434.104 10.0112 Z" fill-rule="evenodd" clip-rule="evenodd" fill="white" stroke="none"/>
  <path d="M451.6177 10.5692 L459.24 17.4751 L451.6859 24.3571 L444.0636 17.4511 L451.6177 10.5692 Z" fill-rule="evenodd" clip-rule="evenodd" fill="white" stroke="none"/>
  <path d="M474.9214 1.5909 L492.5111 17.5276 L475.0786 33.4091 L457.4889 17.4723 L474.9214 1.5909 Z" fill-rule="evenodd" clip-rule="evenodd" fill="white" stroke="none"/>
  <path d="M498.3141 10.6429 L505.9364 17.5488 L498.3823 24.4308 L490.76 17.5249 L498.3141 10.6429 Z" fill-rule="evenodd" clip-rule="evenodd" fill="white" stroke="none"/>
  <path d="M515.8226 10.1402 L524.0312 17.5774 L515.896 24.9888 L507.6875 17.5516 L515.8226 10.1402 Z" fill-rule="evenodd" clip-rule="evenodd" fill="white" stroke="none"/>
  <path d="M357.0916 17.3138 C357.08 14.9708 354.98 13.0681 352.401 13.064 C349.822 13.0599 347.7408 14.956 347.7524 17.2991 C347.7639 19.6421 349.864 21.5448 352.443 21.5488 C355.0219 21.5529 357.1032 19.6568 357.0916 17.3138 Z" fill-rule="evenodd" clip-rule="evenodd" fill="white" stroke="none"/>
  <path d="M602.2476 17.7009 C602.236 15.3579 600.136 13.4552 597.557 13.4511 C594.978 13.447 592.8968 15.3431 592.9083 17.6862 C592.9199 20.0292 595.02 21.9319 597.5989 21.936 C600.1779 21.94 602.2592 20.0439 602.2476 17.7009 Z" fill-rule="evenodd" clip-rule="evenodd" fill="white" stroke="none"/>
  <path d="M305.7256 17.2327 L318.5357 10.8893 L314.4812 17.2465 L318.5986 23.6166 L305.7256 17.2327 Z" fill-rule="evenodd" clip-rule="evenodd" fill="white" stroke="none"/>
  <path d="M644.2744 17.7673 L631.4014 11.3834 L635.5188 17.7535 L631.4643 24.1106 L644.2744 17.7673 Z" fill-rule="evenodd" clip-rule="evenodd" fill="white" stroke="none"/>
</svg>
