<?xml version="1.0" encoding="UTF-8"?>
<svg width="950" height="35" viewBox="0 0 950 35" fill="none" xmlns="http://www.w3.org/2000/svg">
  <path d="M302 17.5 L307 6.5 L316 10.5 L310 17.5 L314 10.5 L323 13.5 L317 17.5 L321 14.5 L330 16.5 L324 17.5 L328 18.5 L337 19.5 L331 17.5 L335 22.5 L344 22.5 L338 17.5 L342 26.5 L351 25.5 L345 17.5 L352 17.5 L307 8.5 L316 9.5 L310 17.5 L314 12.5 L323 12.5 L317 17.5 L321 16.5 L330 15.5 L324 17.5 L328 20.5 L337 18.5 L331 17.5 L335 24.5 L344 21.5 L338 17.5 L342 28.5 L351 24.5 L345 17.5 Z" fill-rule="evenodd" clip-rule="evenodd" fill="white" stroke="none"/>
  <path d="M343 13.5 L348 17.5 L343 21.5 Z" fill-rule="evenodd" clip-rule="evenodd" fill="white" stroke="none"/>
  <path d="M648 17.5 L643 6.5 L634 10.5 L640 17.5 L636 10.5 L627 13.5 L633 17.5 L629 14.5 L620 16.5 L626 17.5 L622 18.5 L613 19.5 L619 17.5 L615 22.5 L606 22.5 L612 17.5 L608 26.5 L599 25.5 L605 17.5 L598 17.5 L643 8.5 L634 9.5 L640 17.5 L636 12.5 L627 12.5 L633 17.5 L629 16.5 L620 15.5 L626 17.5 L622 20.5 L613 18.5 L619 17.5 L615 24.5 L606 21.5 L612 17.5 L608 28.5 L599 24.5 L605 17.5 Z" fill-rule="evenodd" clip-rule="evenodd" fill="white" stroke="none"/>
  <path d="M607 13.5 L602 17.5 L607 21.5 Z" fill-rule="evenodd" clip-rule="evenodd" fill="white" stroke="none"/>
  <path d="M9.5 17.5 L352 17.5" fill="none" stroke="white" stroke-width="1.2" stroke-linecap="round" stroke-linejoin="round"/>
  <path d="M598 17.5 L940.5 17.5" fill="none" stroke="white" stroke-width="1.2" stroke-linecap="round" stroke-linejoin="round"/>
</svg>
