<?xml version="1.0" encoding="UTF-8"?>
<svg width="950" height="35" viewBox="0 0 950 35" fill="none" xmlns="http://www.w3.org/2000/svg">
  <path d="M 445.5338 3.219 C 479.785 3.219 514.0361 3.219 549.3252 3.219 C 549.3252 13.088 549.3252 22.957 549.3252 33.125 C 515.074 33.125 480.8229 33.125 445.5338 33.125 C 445.5338 23.256 445.5338 13.3871 445.5338 3.219 Z" fill-rule="evenodd" clip-rule="evenodd" fill="#FBFBFB" stroke="none"/>
  <path d="M 445.5338 3.219 C 444.561 10.9872 442.8928 18.4917 436.3616 23.5815 C 433.6385 25.0537 430.7077 24.7737 427.6844 24.7036 C 427.3381 24.7022 427.3381 24.7022 425.586 24.6949 C 424.1289 24.6857 422.6718 24.6682 421.2148 24.6429 C 418.9795 24.604 416.745 24.5888 414.5095 24.5782 C 413.0921 24.5664 411.6748 24.5533 410.2575 24.5387 C 409.9227 24.5355 409.9227 24.5355 408.228 24.519 C 407.9181 24.5134 407.9181 24.5134 406.3503 24.4848 C 406.0776 24.4805 406.0776 24.4805 404.6977 24.4586 C 403.3136 24.3291 403.3136 24.3291 401.5544 23.4495 C 402.1766 20.2144 403.5447 17.5368 405.0728 14.6537 C 403.6215 15.2342 402.1701 15.8147 400.6748 16.4128 C 404.8758 9.5253 412.6921 6.4081 420.2339 4.5539 C 428.5934 2.7565 437.0272 2.9501 445.5338 3.219 Z" fill-rule="evenodd" clip-rule="evenodd" fill="#1D1D1D" stroke="none"/>
  <path d="M 445.5338 3.219 C 457.8566 3.6476 469.8922 4.8251 479.8377 12.8945 C 480.9544 14.8186 480.9544 14.8186 481.5969 16.4128 C 480.7261 16.4128 479.8553 16.4128 478.9581 16.4128 C 479.1486 16.7734 479.3391 17.134 479.5354 17.5054 C 479.7803 17.9794 480.0252 18.4533 480.2775 18.9416 C 480.5224 19.4111 480.7673 19.8805 481.0197 20.3641 C 481.5969 21.6904 481.5969 21.6904 481.5969 23.4495 C 479.6437 24.4262 478.6485 24.4359 476.489 24.429 C 475.8024 24.4289 475.1157 24.4288 474.4082 24.4288 C 473.667 24.4242 472.9257 24.4197 472.162 24.415 C 471.7825 24.4144 471.7825 24.4144 469.8622 24.4112 C 467.4334 24.4063 465.0046 24.3953 462.5758 24.3841 C 460.9312 24.3797 459.2865 24.3757 457.6419 24.3721 C 453.6058 24.3631 449.5699 24.3459 445.5338 24.3291 C 445.5338 17.3628 445.5338 10.3965 445.5338 3.219 Z" fill-rule="evenodd" clip-rule="evenodd" fill="#171717" stroke="none"/>
  <path d="M 445.5338 3.219 C 446.7195 3.7789 447.8931 4.3652 449.0522 4.9782 C 450.2169 5.3017 451.3885 5.6045 452.5705 5.8578 C 452.8593 10.7679 453.0096 14.1965 449.9318 18.172 C 448.7707 17.8817 447.6096 17.5915 446.4134 17.2924 C 446.7037 17.0294 446.7037 17.0294 448.1726 15.6982 C 449.9318 13.7741 449.9318 13.7741 449.9318 11.1353 C 449.8099 11.3207 449.8099 11.3207 449.193 12.2588 C 448.8744 12.7407 448.5558 13.2226 448.2276 13.7191 C 447.9112 14.1987 447.5949 14.6783 447.2689 15.1725 C 446.4134 16.4128 446.4134 16.4128 445.5338 17.2924 C 442.0602 17.7773 439.339 17.7976 436.2981 15.973 C 434.4244 12.8501 434.4112 10.2881 434.9788 6.7374 C 436.7532 2.0054 441.1597 2.5671 445.5338 3.219 Z" fill-rule="evenodd" clip-rule="evenodd" fill="#EBEBEB" stroke="none"/>
  <path d="M 445.5338 3.219 C 450.178 3.5093 454.8223 3.7995 459.6072 4.0986 C 459.6072 4.6791 459.6072 5.2597 459.6072 5.8578 C 461.3488 6.4383 463.0904 7.0188 464.8847 7.617 C 462.1296 8.5043 460.4017 8.4578 457.6281 7.6719 C 457.0068 7.5007 456.3855 7.3295 455.7453 7.1531 C 455.5117 7.0845 455.5117 7.0845 454.3297 6.7374 C 454.62 7.6082 454.9102 8.479 455.2093 9.3761 C 454.919 9.5213 454.919 9.5213 453.4501 10.2557 C 452.4369 14.301 451.9002 18.4346 453.8349 22.2401 C 454.2885 22.9295 454.742 23.6189 455.2093 24.3291 C 452.0164 24.3291 448.8235 24.3291 445.5338 24.3291 C 445.5338 17.3628 445.5338 10.3965 445.5338 3.219 Z" fill-rule="evenodd" clip-rule="evenodd" fill="#1F1F1F" stroke="none"/>
  <path d="M 445.5338 3.219 C 447.7326 4.6645 448.7466 6.4012 449.382 8.9295 C 449.587 11.4026 449.0833 13.3098 447.7878 15.4233 C 445.9486 17.4536 444.261 17.6829 441.5757 17.8422 C 438.8903 17.6829 437.2027 17.4536 435.3636 15.4233 C 434.081 13.3213 433.5131 11.3927 433.7109 8.9295 C 435.3353 3.4384 440.342 1.875 445.5338 3.219 Z" fill-rule="evenodd" clip-rule="evenodd" fill="#242424" stroke="none"/>
  <path d="M 445.5338 3.219 C 445.2435 4.0898 444.9533 4.9606 444.6542 5.8578 C 443.3085 6.0582 441.9628 6.2586 440.6171 6.4591 C 439.3767 6.7374 439.3767 6.7374 438.4971 7.617 C 439.0776 8.1975 439.6582 8.778 440.2563 9.3761 C 440.4281 10.8948 440.4281 10.8948 440.3662 12.5646 C 440.3504 13.1202 440.3345 13.6758 440.3181 14.2482 C 440.3079 14.4603 440.3079 14.4603 440.2563 15.5332 C 441.723 14.0666 441.4373 11.9889 441.5963 9.9843 C 442.0155 8.4965 442.0155 8.4965 443.3692 7.4211 C 443.7933 7.1955 444.2173 6.9698 444.6542 6.7374 C 444.6236 7.3213 444.593 7.9052 444.5615 8.5069 C 444.5376 9.2835 444.5138 10.0602 444.4893 10.8604 C 444.4587 11.6258 444.4281 12.3911 444.3965 13.1797 C 444.718 16.1161 445.6371 17.5191 447.293 19.9312 C 444.9841 19.9567 442.6752 19.9723 440.3662 19.9862 C 439.7097 19.9935 439.0532 20.0009 438.3769 20.0085 C 437.7476 20.0113 437.1183 20.0142 436.4699 20.0171 C 436.1797 20.0194 436.1797 20.0194 434.7112 20.031 C 433.2196 19.9312 433.2196 19.9312 431.4604 19.0516 C 432.0825 15.8165 433.4507 13.1389 434.9788 10.2557 C 433.5274 10.8362 432.0761 11.4168 430.5808 12.0149 C 434.2816 6.8986 438.7571 2.3976 445.5338 3.219 Z" fill-rule="evenodd" clip-rule="evenodd" fill="#2C2C2C" stroke="none"/>
  <path d="M 445.5338 3.219 C 451.0488 3.219 456.5638 3.219 462.246 3.219 C 460.4751 15.9372 460.4751 15.9372 456.0889 20.8108 C 453.7422 21.4636 453.7422 21.4636 451.6909 21.6904 C 450.9174 19.7116 450.7564 18.1959 450.8663 16.083 C 450.9231 13.1096 450.3427 11.1582 449.0522 8.4965 C 450.2132 8.4965 451.3743 8.4965 452.5705 8.4965 C 453.3378 11.1307 453.5454 13.4537 453.5051 16.1929 C 453.4971 16.8959 453.4892 17.5989 453.481 18.3232 C 453.4708 18.8538 453.4606 19.3845 453.4501 19.9312 C 454.0306 19.9312 454.6112 19.9312 455.2093 19.9312 C 455.0744 19.599 454.9394 19.2668 454.8004 18.9245 C 454.1657 16.7238 454.0228 14.5706 453.8349 12.2898 C 453.7969 11.8402 453.759 11.3906 453.7198 10.9274 C 453.627 9.8242 453.5382 8.7206 453.4501 7.617 C 454.3209 7.9072 455.1917 8.1975 456.0889 8.4965 C 456.0889 10.5284 456.0889 12.5602 456.0889 14.6537 C 456.6694 14.6537 457.2499 14.6537 457.848 14.6537 C 458.1383 12.3315 458.4286 10.0094 458.7276 7.617 C 452.0516 7.617 445.3755 7.617 438.4971 7.617 C 438.4971 7.3267 438.4971 7.0364 438.4971 6.7374 C 442.3332 5.7783 445.99 5.7698 449.9318 5.8578 C 449.9318 5.2773 449.9318 4.6967 449.9318 4.0986 C 448.4804 4.0986 447.0291 4.0986 445.5338 4.0986 C 445.5338 3.8083 445.5338 3.5181 445.5338 3.219 Z" fill-rule="evenodd" clip-rule="evenodd" fill="#3F3F3F" stroke="none"/>
  <path d="M 445.5338 3.219 C 446.0894 3.3086 446.645 3.3982 447.2174 3.4905 C 447.6415 3.5642 448.0655 3.6379 448.5024 3.7138 C 449.1086 5.7965 449.4899 7.6961 449.382 9.8709 C 447.9158 12.4242 446.0226 13.9443 443.2249 14.8186 C 440.5345 13.9778 438.6571 12.1832 437.0678 9.8709 C 437.0678 9.0001 437.0678 8.1293 437.0678 7.2321 C 437.6483 7.2321 438.2288 7.2321 438.827 7.2321 C 439.0809 6.6698 439.3349 6.1074 439.5966 5.5279 C 441.1707 2.6421 442.5356 2.7193 445.5338 3.219 Z" fill-rule="evenodd" clip-rule="evenodd" fill="#141414" stroke="none"/>
  <path d="M 445.5338 3.219 C 446.6949 3.219 447.8559 3.219 449.0522 3.219 C 449.0522 4.3801 449.0522 5.5411 449.0522 6.7374 C 449.2546 6.7833 449.2546 6.7833 450.2788 7.0157 C 452.0669 7.7771 452.3712 8.4608 453.1752 10.2007 C 453.2858 10.4315 453.2858 10.4315 453.8452 11.5992 C 454.3297 12.8945 454.3297 12.8945 454.3297 14.6537 C 452.5386 15.5492 451.8342 15.6381 449.8974 15.6191 C 449.6423 15.6177 449.6423 15.6177 448.3512 15.6106 C 447.8206 15.6032 447.29 15.5958 446.7432 15.5882 C 446.4745 15.5862 446.4745 15.5862 445.1146 15.5762 C 443.7883 15.5658 442.4621 15.5501 441.1359 15.5332 C 441.4148 14.8768 441.6937 14.2203 441.9811 13.5439 C 442.7452 11.5302 443.1958 9.8983 443.4448 7.7819 C 443.5106 7.2501 443.5763 6.7183 443.6441 6.1704 C 443.6872 5.777 443.7302 5.3836 443.7746 4.9782 C 444.3552 4.9782 444.9357 4.9782 445.5338 4.9782 C 445.5338 4.3977 445.5338 3.8171 445.5338 3.219 Z" fill-rule="evenodd" clip-rule="evenodd" fill="#252525" stroke="none"/>
  <path d="M 445.5338 3.219 C 446.082 3.2236 446.6301 3.2282 447.1949 3.233 C 447.7873 3.2358 448.3797 3.2386 448.9901 3.2416 C 449.612 3.2489 450.2339 3.2563 450.8747 3.2639 C 451.5 3.2679 452.1253 3.2718 452.7696 3.2759 C 454.3187 3.2863 455.8676 3.3008 457.4166 3.3189 C 458.5008 5.4873 458.1796 6.0175 457.4716 8.2666 C 457.3004 8.8221 457.1292 9.3777 456.9528 9.9501 C 456.8156 10.3742 456.6784 10.7983 456.537 11.2352 C 455.9565 11.2352 455.376 11.2352 454.7779 11.2352 C 454.7348 10.8009 454.6917 10.3666 454.6473 9.9192 C 454.6144 9.6375 454.6144 9.6375 454.448 8.2116 C 454.3868 7.6503 454.3256 7.0891 454.2625 6.5108 C 454.1423 6.038 454.0221 5.5652 453.8983 5.0781 C 453.3177 4.7878 452.7372 4.4975 452.1391 4.1985 C 452.4294 4.9241 452.7196 5.6498 453.0187 6.3974 C 454.1616 9.7618 454.0588 12.9982 453.8983 16.5127 C 453.3177 16.5127 452.7372 16.5127 452.1391 16.5127 C 451.8488 12.7393 451.5586 8.9658 451.2595 5.0781 C 450.3887 5.3683 449.5179 5.6586 448.6207 5.9576 C 448.911 6.4543 449.2013 6.9509 449.5003 7.4626 C 450.4843 9.7149 450.5102 11.1103 450.3799 13.5441 C 450.27 15.6125 450.27 15.6125 450.3799 17.3923 C 450.9604 17.9728 451.541 18.5533 452.1391 19.1515 C 450.3799 20.9106 450.3799 20.9106 449.0537 21.0824 C 448.3951 21.0538 448.3951 21.0538 445.1024 20.9106 C 445.6829 20.6204 446.2635 20.3301 446.8616 20.031 C 448.3944 16.199 448.3489 11.2524 447.0265 7.387 C 445.9349 5.8932 444.9601 5.0804 443.3432 4.1985 C 444.2228 3.3189 444.2228 3.3189 445.5338 3.219 Z" fill-rule="evenodd" clip-rule="evenodd" fill="#171717" stroke="none"/>
  <path d="M 445.5338 3.219 C 447.7326 4.6645 448.7466 6.4012 449.382 8.9295 C 449.587 11.4026 449.0833 13.3098 447.7878 15.4233 C 445.9486 17.4536 444.261 17.6829 441.5757 17.8422 C 438.8903 17.6829 437.2027 17.4536 435.3636 15.4233 C 434.081 13.3213 433.5131 11.3927 433.7109 8.9295 C 435.3353 3.4384 440.342 1.875 445.5338 3.219 Z M 436.7379 4.9782 C 436.1574 7.01 435.5769 9.0419 434.9788 11.1353 C 437.3009 12.8769 439.623 14.6185 442.0155 16.4128 C 442.7411 15.8686 443.4668 15.3243 444.2144 14.7636 C 444.6226 14.4575 445.0308 14.1513 445.4514 13.8359 C 445.7688 13.5252 446.0863 13.2146 446.4134 12.8945 C 446.4134 12.314 446.4134 11.7334 446.4134 11.1353 C 446.9939 11.1353 447.5745 11.1353 448.1726 11.1353 C 446.9049 8.1773 445.3527 6.1839 442.8951 4.0986 C 440.5895 4.0986 438.9287 4.3739 436.7379 4.9782 Z" fill-rule="evenodd" clip-rule="evenodd" fill="#ECECEC" stroke="none"/>
  <path d="M 445.5338 3.219 C 445.2435 4.0898 444.9533 4.9606 444.6542 5.8578 C 443.3085 6.0582 441.9628 6.2586 440.6171 6.4591 C 439.3767 6.7374 439.3767 6.7374 438.4971 7.617 C 439.0776 8.1975 439.6582 8.778 440.2563 9.3761 C 440.6617 11.0427 440.9845 12.6359 441.2458 14.3238 C 441.3218 14.7774 441.3978 15.2309 441.476 15.6982 C 441.6622 16.8149 441.8397 17.9332 442.0155 19.0516 C 441.1447 19.0516 440.2739 19.0516 439.3767 19.0516 C 438.4225 17.1432 438.4033 16.2 438.4421 14.1039 C 438.4501 13.5483 438.458 12.9928 438.4662 12.4203 C 438.4764 11.9963 438.4866 11.5722 438.4971 11.1353 C 438.2068 11.2804 438.2068 11.2804 436.7379 12.0149 C 437.0282 14.337 437.3185 16.6591 437.6175 19.0516 C 437.037 19.0516 436.4565 19.0516 435.8583 19.0516 C 435.5681 17.8905 435.2778 16.7295 434.9788 15.5332 C 434.3982 15.5332 433.8177 15.5332 433.2196 15.5332 C 433.8001 13.7917 434.3806 12.0501 434.9788 10.2557 C 433.5274 10.8362 432.0761 11.4168 430.5808 12.0149 C 434.2816 6.8986 438.7571 2.3976 445.5338 3.219 Z" fill-rule="evenodd" clip-rule="evenodd" fill="#616161" stroke="none"/>
  <path d="M 445.5338 3.219 C 445.8241 4.0898 446.1143 4.9606 446.4134 5.8578 C 445.8329 6.4383 445.2523 7.0188 444.6542 7.617 C 444.4515 9.2353 444.4515 9.2353 444.4893 11.0803 C 444.495 11.6869 444.5006 12.2935 444.5065 12.9185 C 444.6436 14.5294 444.9468 15.7945 445.5338 17.2924 C 448.5241 17.6006 451.3509 17.7561 454.3297 17.2924 C 456.1338 15.7969 456.9037 14.1243 457.848 12.0149 C 458.4202 11.126 459.0029 10.2435 459.6072 9.3761 C 459.8989 11.885 460.0726 13.6853 458.9681 15.9833 C 457.1787 18.2298 455.7182 18.9515 452.8866 19.5086 C 446.8451 19.8559 446.8451 19.8559 444.0942 18.1686 C 441.8264 15.3756 441.8527 12.6508 442.0704 9.1562 C 442.4958 5.3104 442.4958 5.3104 444.266 3.8375 C 444.6844 3.6334 445.1027 3.4293 445.5338 3.219 Z" fill-rule="evenodd" clip-rule="evenodd" fill="#2C2C2C" stroke="none"/>
  <path d="M 445.5338 3.219 C 450.178 3.5093 454.8223 3.7995 459.6072 4.0986 C 459.6072 4.6791 459.6072 5.2597 459.6072 5.8578 C 461.3488 6.4383 463.0904 7.0188 464.8847 7.617 C 462.2725 8.4042 460.2613 8.5257 457.5594 8.1976 C 456.8564 8.1154 456.1535 8.0332 455.4292 7.9485 C 455.0663 7.9029 455.0663 7.9029 453.2302 7.6719 C 452.4909 7.5841 451.7517 7.4962 450.99 7.4057 C 449.1705 7.1886 447.3519 6.9656 445.5338 6.7374 C 445.5338 5.5763 445.5338 4.4153 445.5338 3.219 Z" fill-rule="evenodd" clip-rule="evenodd" fill="#979797" stroke="none"/>
  <path d="M 445.5338 3.219 C 447.4029 3.5489 447.4029 3.5489 449.0522 4.0986 C 448.7619 4.2437 448.7619 4.2437 447.293 4.9782 C 446.2798 9.0234 445.7431 13.1571 447.6778 16.9626 C 448.1313 17.652 448.5849 18.3413 449.0522 19.0516 C 446.9631 18.8867 446.9631 18.8867 444.6542 18.172 C 442.1744 14.6777 442.9299 11.0259 443.3486 6.9195 C 443.7746 4.9782 443.7746 4.9782 445.5338 3.219 Z" fill-rule="evenodd" clip-rule="evenodd" fill="#F6F6F6" stroke="none"/>
  <path d="M 445.5338 3.219 C 447.3445 3.5145 447.3445 3.5145 449.1037 5.2737 C 447.3026 6.0842 446.6707 6.2263 444.7607 5.5486 C 444.1621 5.4578 443.5634 5.3671 442.9466 5.2737 C 441.0775 6.9779 441.0775 6.9779 439.4282 8.792 C 438.8477 8.792 438.2672 8.792 437.6691 8.792 C 439.2541 12.3943 440.8886 14.9542 443.8262 17.5879 C 438.8563 17.0477 438.8563 17.0477 437.5144 15.5676 C 436.1816 12.8135 436.4295 10.0149 436.7895 7.0329 C 438.4113 2.7081 441.4409 3.1518 445.5338 3.219 Z" fill-rule="evenodd" clip-rule="evenodd" fill="#E5E5E5" stroke="none"/>
  <path d="M 445.5338 3.219 C 449.571 3.1331 449.571 3.1331 450.8113 3.219 C 451.6909 4.0986 451.6909 4.0986 451.8558 6.2426 C 451.6909 8.4965 451.6909 8.4965 449.9318 10.2557 C 447.6778 10.4206 447.6778 10.4206 445.5338 10.2557 C 445.2435 9.9655 444.9533 9.6752 444.6542 9.3761 C 444.7607 7.9434 444.7607 7.9434 445.039 6.2426 C 445.1286 5.6791 445.2182 5.1156 445.3105 4.535 C 445.3842 4.1007 445.4579 3.6664 445.5338 3.219 Z" fill-rule="evenodd" clip-rule="evenodd" fill="#E7E7E7" stroke="none"/>
  <path d="M 445.5338 3.219 C 455.6931 3.219 465.8523 3.219 476.3194 3.219 C 476.0291 4.0898 475.7389 4.9606 475.4398 5.8578 C 474.8593 5.8578 474.2787 5.8578 473.6806 5.8578 C 473.6806 5.2773 473.6806 4.6967 473.6806 4.0986 C 473.2928 4.1621 472.9051 4.2256 472.5055 4.291 C 467.5419 4.9757 462.6339 5.076 457.6281 5.0881 C 456.9417 5.0921 456.2553 5.0961 455.5481 5.1002 C 452.0828 5.0912 448.8985 4.9465 445.5338 4.0986 C 445.5338 3.8083 445.5338 3.5181 445.5338 3.219 Z" fill-rule="evenodd" clip-rule="evenodd" fill="#1E1E1E" stroke="none"/>
  <path d="M 445.5338 3.219 C 446.2067 3.2333 446.2067 3.2333 449.571 3.3049 C 450.43 7.2562 450.43 7.2562 450.4506 8.5824 C 449.87 9.163 449.2895 9.7435 448.6914 10.3416 C 444.6844 9.853 444.6844 9.853 443.4139 8.5824 C 443.3039 6.3835 443.3039 6.3835 443.4139 4.1845 C 444.2935 3.3049 444.2935 3.3049 445.5338 3.219 Z" fill-rule="evenodd" clip-rule="evenodd" fill="#DBDBDB" stroke="none"/>
  <path d="M 445.5338 3.219 C 447.71 3.5092 448.7564 3.7289 450.1516 5.473 C 451.3166 9.2591 451.2803 12.9908 450.2066 16.7977 C 448.5849 18.7283 447.0975 18.7944 444.6542 19.0516 C 445.0896 18.4892 445.525 17.9268 445.9736 17.3474 C 447.9385 14.088 447.8002 10.4199 447.293 6.7374 C 446.3962 4.7342 446.3962 4.7342 445.5338 3.219 Z" fill-rule="evenodd" clip-rule="evenodd" fill="#EDEDED" stroke="none"/>
  <path d="M 445.5338 3.219 C 447.348 3.6038 447.348 3.6038 449.0522 4.0986 C 448.7619 4.2437 448.7619 4.2437 447.293 4.9782 C 447.5833 5.4748 447.8735 5.9714 448.1726 6.4831 C 449.1565 8.7355 449.1824 10.1309 449.0522 12.5646 C 448.9422 14.633 448.9422 14.633 449.0522 16.4128 C 449.6327 16.9934 450.2132 17.5739 450.8113 18.172 C 449.0522 19.9312 449.0522 19.9312 447.7259 20.103 C 447.0674 20.0743 447.0674 20.0743 443.7746 19.9312 C 444.3552 19.6409 444.9357 19.3507 445.5338 19.0516 C 447.1108 15.109 447.1155 9.7952 445.5338 5.8578 C 445.2435 5.2773 444.9533 4.6967 444.6542 4.0986 C 444.9445 3.8083 445.2348 3.5181 445.5338 3.219 Z" fill-rule="evenodd" clip-rule="evenodd" fill="#292929" stroke="none"/>
  <path d="M 445.5338 3.219 C 445.5338 3.7995 445.5338 4.3801 445.5338 4.9782 C 444.6755 5.095 443.8172 5.2118 442.9328 5.3321 C 441.8024 5.4889 440.672 5.6458 439.5416 5.8028 C 438.9764 5.8793 438.4112 5.9559 437.8288 6.0347 C 437.5553 6.073 437.5553 6.073 436.171 6.2667 C 435.6689 6.3357 435.1669 6.4048 434.6496 6.476 C 433.2196 6.7374 433.2196 6.7374 431.8257 7.2616 C 430.5808 7.617 430.5808 7.617 428.8216 6.7374 C 428.5314 7.3179 428.2411 7.8984 427.9421 8.4965 C 427.9421 7.916 427.9421 7.3355 427.9421 6.7374 C 427.3615 6.4471 426.781 6.1568 426.1829 5.8578 C 432.8678 3.6855 438.5129 2.8524 445.5338 3.219 Z" fill-rule="evenodd" clip-rule="evenodd" fill="#474747" stroke="none"/>
  <path d="M 445.5338 3.219 C 446.6949 3.219 447.8559 3.219 449.0522 3.219 C 449.0522 4.3801 449.0522 5.5411 449.0522 6.7374 C 449.466 6.8269 449.8799 6.9165 450.3063 7.0088 C 451.6909 7.617 451.6909 7.617 452.3334 8.8573 C 452.3998 9.0971 452.3998 9.0971 452.7354 10.3107 C 452.8749 10.7926 453.0144 11.2745 453.1581 11.7709 C 453.2544 12.1417 453.3508 12.5125 453.4501 12.8945 C 451.8558 13.829 451.8558 13.829 449.9318 14.6537 C 449.061 14.3634 448.1902 14.0731 447.293 13.7741 C 447.8735 12.0325 448.454 10.2909 449.0522 8.4965 C 448.4716 7.9523 447.8911 7.4081 447.293 6.8473 C 445.5338 4.9782 445.5338 4.9782 445.5338 3.219 Z" fill-rule="evenodd" clip-rule="evenodd" fill="#828282" stroke="none"/>
  <path d="M 445.5338 3.219 C 446.4046 3.5093 447.2754 3.7995 448.1726 4.0986 C 447.8823 4.6791 447.592 5.2597 447.293 5.8578 C 447.0918 7.5118 446.9267 9.1461 446.7982 10.8055 C 446.7602 11.259 446.7223 11.7125 446.6831 12.1798 C 446.59 13.2974 446.5013 14.4153 446.4134 15.5332 C 445.8329 15.5332 445.2523 15.5332 444.6542 15.5332 C 444.6542 16.404 444.6542 17.2748 444.6542 18.172 C 445.2348 18.4623 445.8153 18.7525 446.4134 19.0516 C 445.5426 19.0516 444.6718 19.0516 443.7746 19.0516 C 443.7235 16.9077 443.6923 14.7639 443.6647 12.6196 C 443.6499 12.0124 443.6352 11.4053 443.62 10.7797 C 443.6144 10.1929 443.6087 9.6062 443.6028 9.0016 C 443.5936 8.4627 443.5844 7.9238 443.5749 7.3685 C 443.8109 5.5831 444.4427 4.6291 445.5338 3.219 Z" fill-rule="evenodd" clip-rule="evenodd" fill="#D8D8D8" stroke="none"/>
  <path d="M 445.5338 3.219 C 447.0554 3.3203 448.5762 3.4324 450.0967 3.5489 C 450.9437 3.6101 451.7906 3.6713 452.6633 3.7344 C 455.306 4.1124 457.1933 4.7722 459.6072 5.8578 C 459.317 6.4383 459.0267 7.0188 458.7276 7.617 C 452.0516 7.617 445.3755 7.617 438.4971 7.617 C 438.4971 7.3267 438.4971 7.0364 438.4971 6.7374 C 442.3332 5.7783 445.99 5.7698 449.9318 5.8578 C 449.9318 5.2773 449.9318 4.6967 449.9318 4.0986 C 448.4804 4.0986 447.0291 4.0986 445.5338 4.0986 C 445.5338 3.8083 445.5338 3.5181 445.5338 3.219 Z" fill-rule="evenodd" clip-rule="evenodd" fill="#9A9A9A" stroke="none"/>
  <path d="M 445.5338 3.219 C 446.536 5.2234 446.4297 6.13 446.3035 8.3316 C 446.239 11.8674 446.9502 13.6102 449.0522 16.4128 C 446.4625 16.1449 445.6577 15.6784 443.9396 13.6641 C 442.5933 11.1545 442.8619 9.083 443.3177 6.3422 C 443.7746 4.9782 443.7746 4.9782 445.5338 3.219 Z" fill-rule="evenodd" clip-rule="evenodd" fill="#D1D1D1" stroke="none"/>
  <path d="M 445.5338 3.219 C 446.6949 3.5093 447.8559 3.7995 449.0522 4.0986 C 449.341 9.0087 449.4912 12.4373 446.4134 16.4128 C 445.2523 16.1226 444.0913 15.8323 442.8951 15.5332 C 443.4756 15.0979 444.0561 14.6625 444.6542 14.2139 C 446.013 12.8791 446.3875 12.1854 446.678 10.2763 C 446.7037 5.5588 446.7037 5.5588 445.5338 3.219 Z" fill-rule="evenodd" clip-rule="evenodd" fill="#EEEEEE" stroke="none"/>
  <path d="M 445.5338 3.219 C 446.6949 3.219 447.8559 3.219 449.0522 3.219 C 449.7783 5.7841 450.0982 8.1406 450.1516 10.8055 C 450.1743 11.488 450.197 12.1706 450.2204 12.8739 C 449.9318 14.6537 449.9318 14.6537 448.5986 15.7738 C 448.1678 15.9847 447.7369 16.1955 447.293 16.4128 C 447.3134 15.8289 447.3338 15.245 447.3548 14.6434 C 447.5125 6.9291 447.5125 6.9291 445.5338 3.219 Z" fill-rule="evenodd" clip-rule="evenodd" fill="#F8F8F8" stroke="none"/>
  <path d="M 445.5338 3.219 C 447.229 3.3577 448.7225 3.5779 450.3715 3.9337 C 450.8103 4.0182 451.2491 4.1026 451.7012 4.1897 C 453.6081 4.5705 455.2221 4.9846 456.9685 5.8578 C 456.6782 6.7286 456.3879 7.5994 456.0889 8.4965 C 455.2181 8.3514 455.2181 8.3514 450.8113 7.617 C 450.8113 7.0364 450.8113 6.4559 450.8113 5.8578 C 448.4892 5.5675 446.1671 5.2773 443.7746 4.9782 C 444.3552 4.3977 444.9357 3.8171 445.5338 3.219 Z" fill-rule="evenodd" clip-rule="evenodd" fill="#393939" stroke="none"/>
  <path d="M 445.5338 3.219 C 449.3072 3.219 453.0807 3.219 456.9685 3.219 C 456.6782 5.2509 456.3879 7.2827 456.0889 9.3761 C 455.8916 8.8183 455.6943 8.2604 455.491 7.6857 C 454.3297 5.8578 454.3297 5.8578 452.2338 5.1294 C 451.8358 5.0681 451.8358 5.0681 449.8218 4.7583 C 449.0213 4.6268 448.2208 4.4952 447.3961 4.3597 C 447.0888 4.3166 447.0888 4.3166 445.5338 4.0986 C 445.5338 3.8083 445.5338 3.5181 445.5338 3.219 Z" fill-rule="evenodd" clip-rule="evenodd" fill="#2F2F2F" stroke="none"/>
  <path d="M 445.5338 3.219 C 447.348 4.3185 447.348 4.3185 448.1726 5.8578 C 447.8977 7.7819 447.8977 7.7819 447.293 9.3761 C 447.1116 8.8137 446.9302 8.2514 446.7432 7.6719 C 445.5338 5.8578 445.5338 5.8578 444.3038 5.3974 C 441.9256 4.9682 440.7119 4.7504 438.4971 5.8578 C 437.9166 5.2773 437.3361 4.6967 436.7379 4.0986 C 439.5466 2.6943 442.4508 2.8667 445.5338 3.219 Z" fill-rule="evenodd" clip-rule="evenodd" fill="#EFEFEF" stroke="none"/>
  <path d="M 445.5338 3.219 C 447.5657 3.3642 447.5657 3.3642 457.848 4.0986 C 456.0889 5.8578 456.0889 5.8578 454.5015 6.0605 C 448.4009 5.9339 448.4009 5.9339 445.5338 4.9782 C 445.5338 4.3977 445.5338 3.8171 445.5338 3.219 Z" fill-rule="evenodd" clip-rule="evenodd" fill="#393939" stroke="none"/>
  <path d="M 445.5338 3.219 C 446.1143 3.5093 446.6949 3.7995 447.293 4.0986 C 447.7105 5.7504 448.0271 7.3146 448.2825 8.9913 C 448.3585 9.4488 448.4345 9.9063 448.5127 10.3777 C 448.6995 11.5087 448.8767 12.6413 449.0522 13.7741 C 448.1814 13.7741 447.3106 13.7741 446.4134 13.7741 C 445.4592 11.8656 445.44 10.9225 445.4788 8.8264 C 445.4868 8.2708 445.4947 7.7152 445.5029 7.1428 C 445.508 6.9308 445.508 6.9308 445.5338 5.8578 C 444.9533 5.5675 444.3728 5.2773 443.7746 4.9782 C 444.3552 4.3977 444.9357 3.8171 445.5338 3.219 Z" fill-rule="evenodd" clip-rule="evenodd" fill="#E3E3E3" stroke="none"/>
  <path d="M 445.5338 3.219 C 446.9851 3.5093 448.4365 3.7995 449.9318 4.0986 C 449.9318 4.3889 449.9318 4.6791 449.9318 4.9782 C 448.4804 4.9782 447.0291 4.9782 445.5338 4.9782 C 445.5338 7.5906 445.5338 10.2029 445.5338 12.8945 C 443.7746 11.3002 443.7746 11.3002 442.0155 9.3761 C 442.0155 8.5053 442.0155 7.6345 442.0155 6.7374 C 442.596 6.7374 443.1765 6.7374 443.7746 6.7374 C 444.3552 5.5763 444.9357 4.4153 445.5338 3.219 Z" fill-rule="evenodd" clip-rule="evenodd" fill="#2B2B2B" stroke="none"/>
  <path d="M 445.5338 3.219 C 445.8241 3.219 446.1143 3.219 446.4134 3.219 C 446.7224 6.5408 446.8051 8.3822 444.6542 11.0254 C 444.0737 11.6422 443.4932 12.259 442.8951 12.8945 C 442.0243 12.6042 441.1535 12.314 440.2563 12.0149 C 440.7984 11.1306 441.35 10.2521 441.9055 9.3761 C 442.0586 9.1312 442.0586 9.1312 442.8332 7.8918 C 443.1439 7.5109 443.4546 7.1299 443.7746 6.7374 C 444.3552 6.7374 444.9357 6.7374 445.5338 6.7374 C 445.5338 5.5763 445.5338 4.4153 445.5338 3.219 Z" fill-rule="evenodd" clip-rule="evenodd" fill="#DDDDDD" stroke="none"/>
  <path d="M 445.5338 3.219 C 446.5447 4.0583 447.5519 4.9021 448.5574 5.7478 C 449.1186 6.2172 449.6799 6.6867 450.2582 7.1703 C 451.6909 8.4965 451.6909 8.4965 452.5705 10.2557 C 447.6547 9.7214 447.6547 9.7214 446.0836 8.2217 C 445.4373 6.4767 445.4957 5.0665 445.5338 3.219 Z" fill-rule="evenodd" clip-rule="evenodd" fill="#EFEFEF" stroke="none"/>
  <path d="M 445.5338 3.219 C 447.2349 5.7706 447.558 6.6466 447.8427 9.5411 C 447.9085 10.1703 447.9743 10.7996 448.042 11.448 C 448.0636 11.6866 448.0636 11.6866 448.1726 12.8945 C 447.592 12.8945 447.0115 12.8945 446.4134 12.8945 C 446.1231 11.7334 445.8329 10.5724 445.5338 9.3761 C 444.9533 9.3761 444.3728 9.3761 443.7746 9.3761 C 444.3552 7.3443 444.9357 5.3124 445.5338 3.219 Z" fill-rule="evenodd" clip-rule="evenodd" fill="#9C9C9C" stroke="none"/>
  <path d="M 445.5338 3.219 C 448.5025 4.2621 450.501 5.2207 452.5705 7.617 C 452.2803 8.1975 451.99 8.778 451.6909 9.3761 C 450.2396 9.0859 448.7883 8.7956 447.293 8.4965 C 447.293 7.3355 447.293 6.1744 447.293 4.9782 C 446.4222 5.2685 445.5514 5.5587 444.6542 5.8578 C 444.9445 4.987 445.2348 4.1162 445.5338 3.219 Z" fill-rule="evenodd" clip-rule="evenodd" fill="#3C3C3C" stroke="none"/>
  <path d="M 445.5338 3.219 C 446.2067 3.2333 446.2067 3.2333 449.571 3.3049 C 449.571 4.1757 449.571 5.0465 449.571 5.9437 C 448.4099 5.6534 447.2489 5.3632 446.0526 5.0641 C 446.0708 5.6083 446.0889 6.1526 446.1076 6.7133 C 446.0526 8.5824 446.0526 8.5824 445.173 10.3416 C 443.4139 8.5824 443.4139 8.5824 443.2489 6.3285 C 443.4772 3.3614 443.4772 3.3614 445.5338 3.219 Z" fill-rule="evenodd" clip-rule="evenodd" fill="#FAFAFA" stroke="none"/>
  <path d="M 445.5338 3.219 C 446.4046 3.219 447.2754 3.219 448.1726 3.219 C 448.2814 3.7814 448.3903 4.3438 448.5024 4.9232 C 448.5931 5.2226 448.5931 5.2226 449.0522 6.7374 C 449.6327 7.0276 450.2132 7.3179 450.8113 7.617 C 448.7795 7.3267 446.7476 7.0364 444.6542 6.7374 C 444.9445 5.5763 445.2348 4.4153 445.5338 3.219 Z" fill-rule="evenodd" clip-rule="evenodd" fill="#050505" stroke="none"/>
  <path d="M 445.5338 3.219 C 445.8241 3.219 446.1143 3.219 446.4134 3.219 C 446.9434 7.7769 446.9434 7.7769 445.4342 9.8262 C 444.3331 10.9087 443.2167 11.9249 442.0155 12.8945 C 441.1447 12.6042 440.2739 12.314 439.3767 12.0149 C 439.6738 11.7484 439.9708 11.482 440.2769 11.2075 C 442.9494 8.6972 444.433 6.7214 445.5338 3.219 Z" fill-rule="evenodd" clip-rule="evenodd" fill="#181818" stroke="none"/>
  <path d="M 445.5338 3.219 C 446.1385 4.3185 446.1385 4.3185 446.4134 5.8578 C 445.5465 7.04 444.6651 8.2116 443.7746 9.3761 C 443.1699 11.795 443.1699 11.795 442.8951 13.7741 C 442.6048 13.7741 442.3145 13.7741 442.0155 13.7741 C 442.092 12.3439 442.1871 10.9146 442.2903 9.4861 C 442.3414 8.6901 442.3924 7.8942 442.4449 7.0741 C 442.8951 4.9782 442.8951 4.9782 444.2522 3.8169 C 444.6752 3.6196 445.0981 3.4223 445.5338 3.219 Z" fill-rule="evenodd" clip-rule="evenodd" fill="#212121" stroke="none"/>
  <path d="M 445.5338 3.219 C 448.4365 3.5093 451.3391 3.7995 454.3297 4.0986 C 454.0394 4.9694 453.7492 5.8402 453.4501 6.7374 C 451.128 6.4471 448.8059 6.1568 446.4134 5.8578 C 446.1231 4.987 445.8329 4.1162 445.5338 3.219 Z" fill-rule="evenodd" clip-rule="evenodd" fill="#131313" stroke="none"/>
  <path d="M 445.5338 3.219 C 449.017 3.219 452.5001 3.219 456.0889 3.219 C 455.7986 4.0898 455.5083 4.9606 455.2093 5.8578 C 454.6287 5.8578 454.0482 5.8578 453.4501 5.8578 C 453.4501 5.2773 453.4501 4.6967 453.4501 4.0986 C 451.128 4.3889 448.8059 4.6791 446.4134 4.9782 C 446.1231 4.3977 445.8329 3.8171 445.5338 3.219 Z" fill-rule="evenodd" clip-rule="evenodd" fill="#141414" stroke="none"/>
  <path d="M 445.5338 3.219 C 445.7878 3.7633 446.0418 4.3075 446.3035 4.8682 C 447.293 6.7374 447.293 6.7374 449.0522 8.4965 C 447.0203 8.2063 444.9885 7.916 442.8951 7.617 C 442.8951 6.7462 442.8951 5.8754 442.8951 4.9782 C 443.7658 4.9782 444.6366 4.9782 445.5338 4.9782 C 445.5338 4.3977 445.5338 3.8171 445.5338 3.219 Z" fill-rule="evenodd" clip-rule="evenodd" fill="#2D2D2D" stroke="none"/>
  <path d="M 445.5338 3.219 C 446.1143 3.7995 446.6949 4.3801 447.293 4.9782 C 447.2724 6.4969 447.2724 6.4969 446.9631 8.1667 C 446.8656 8.7223 446.7681 9.2779 446.6677 9.8503 C 446.5838 10.2743 446.4998 10.6984 446.4134 11.1353 C 445.5426 11.1353 444.6718 11.1353 443.7746 11.1353 C 444.3552 8.5229 444.9357 5.9106 445.5338 3.219 Z" fill-rule="evenodd" clip-rule="evenodd" fill="#EFEFEF" stroke="none"/>
  <path d="M 445.5338 3.219 C 446.2595 3.3642 446.2595 3.3642 449.9318 4.0986 C 449.9318 5.5499 449.9318 7.0012 449.9318 8.4965 C 448.4804 8.7868 447.0291 9.0771 445.5338 9.3761 C 446.1143 8.7956 446.6949 8.2151 447.293 7.617 C 447.293 6.7462 447.293 5.8754 447.293 4.9782 C 446.7125 4.3977 446.1319 3.8171 445.5338 3.219 Z" fill-rule="evenodd" clip-rule="evenodd" fill="#F1F1F1" stroke="none"/>
  <path d="M 445.5338 3.219 C 446.1143 4.0898 446.6949 4.9606 447.293 5.8578 C 446.8876 7.4623 446.8876 7.4623 446.0836 9.1013 C 445.8228 9.6489 445.562 10.1966 445.2933 10.7608 C 445.0824 11.1746 444.8715 11.5885 444.6542 12.0149 C 444.0737 11.4344 443.4932 10.8538 442.8951 10.2557 C 443.7658 7.9336 444.6366 5.6115 445.5338 3.219 Z" fill-rule="evenodd" clip-rule="evenodd" fill="#6C6C6C" stroke="none"/>
  <path d="M 445.5338 3.219 C 445.8241 4.0898 446.1143 4.9606 446.4134 5.8578 C 445.5426 6.7286 444.6718 7.5994 443.7746 8.4965 C 442.9038 8.2063 442.0331 7.916 441.1359 7.617 C 442.5872 6.1656 444.0385 4.7143 445.5338 3.219 Z" fill-rule="evenodd" clip-rule="evenodd" fill="#F4F4F4" stroke="none"/>
  <path d="M 445.5338 3.219 C 448.9848 2.9123 448.9848 2.9123 450.8113 3.219 C 452.6061 5.0137 453.4501 5.931 453.4501 8.4965 C 452.5793 8.4965 451.7085 8.4965 450.8113 8.4965 C 450.5211 7.0452 450.2308 5.5939 449.9318 4.0986 C 448.4804 4.0986 447.0291 4.0986 445.5338 4.0986 C 445.5338 3.8083 445.5338 3.5181 445.5338 3.219 Z" fill-rule="evenodd" clip-rule="evenodd" fill="#383838" stroke="none"/>
  <path d="M 445.5338 3.219 C 446.4046 4.3801 447.2754 5.5411 448.1726 6.7374 C 445.7426 7.2628 443.6336 7.617 441.1359 7.617 C 442.5872 6.1656 444.0385 4.7143 445.5338 3.219 Z" fill-rule="evenodd" clip-rule="evenodd" fill="#363636" stroke="none"/>
  <path d="M 445.5338 3.219 C 446.7982 3.5489 446.7982 3.5489 448.1726 4.0986 C 449.1784 6.1103 449.1431 7.2587 449.1071 9.4861 C 449.0992 10.1233 449.0913 10.7605 449.0831 11.4171 C 449.0729 11.9046 449.0627 12.3922 449.0522 12.8945 C 448.7619 12.8945 448.4716 12.8945 448.1726 12.8945 C 448.0558 12.4171 447.939 11.9398 447.8187 11.448 C 447.6633 10.8187 447.508 10.1894 447.348 9.5411 C 447.1949 8.9186 447.0418 8.2961 446.8841 7.6548 C 446.4896 6.1486 446.0481 4.6876 445.5338 3.219 Z" fill-rule="evenodd" clip-rule="evenodd" fill="#101010" stroke="none"/>
  <path d="M 445.5338 3.219 C 446.4046 3.5093 447.2754 3.7995 448.1726 4.0986 C 448.1726 6.4207 448.1726 8.7428 448.1726 11.1353 C 446.1903 8.1619 445.993 6.6631 445.5338 3.219 Z" fill-rule="evenodd" clip-rule="evenodd" fill="#E0E0E0" stroke="none"/>
  <path d="M 445.5338 3.219 C 445.5338 4.0898 445.5338 4.9606 445.5338 5.8578 C 444.1923 7.022 442.7214 7.6641 441.1359 8.4965 C 440.5553 7.6258 439.9748 6.755 439.3767 5.8578 C 439.7475 5.741 440.1182 5.6242 440.5002 5.5039 C 440.9821 5.3485 441.464 5.1932 441.9605 5.0332 C 442.4401 4.8801 442.9197 4.727 443.4139 4.5693 C 444.6542 4.0986 444.6542 4.0986 445.5338 3.219 Z" fill-rule="evenodd" clip-rule="evenodd" fill="#0E0E0E" stroke="none"/>
  <path d="M 445.5338 3.219 C 446.8532 3.9887 446.8532 3.9887 448.1726 4.9782 C 448.1726 5.5587 448.1726 6.1393 448.1726 6.7374 C 447.0115 7.0276 445.8505 7.3179 444.6542 7.617 C 444.6164 6.4448 444.6187 5.2709 444.6542 4.0986 C 444.9445 3.8083 445.2348 3.5181 445.5338 3.219 Z" fill-rule="evenodd" clip-rule="evenodd" fill="#3E3E3E" stroke="none"/>
  <path d="M 445.5338 3.219 C 446.1143 3.5093 446.1143 3.5093 449.0522 4.9782 C 448.7619 6.4295 448.4716 7.8808 448.1726 9.3761 C 446.8532 8.2766 446.8532 8.2766 445.5338 6.7374 C 445.3689 4.8133 445.3689 4.8133 445.5338 3.219 Z" fill-rule="evenodd" clip-rule="evenodd" fill="#8B8B8B" stroke="none"/>
  <path d="M 445.5338 3.219 C 447.348 3.6038 447.348 3.6038 449.0522 4.0986 C 448.7619 4.2437 448.7619 4.2437 447.293 4.9782 C 446.3035 6.7923 446.3035 6.7923 445.5338 8.4965 C 444.9533 8.2063 444.3728 7.916 443.7746 7.617 C 444.5443 4.2086 444.5443 4.2086 445.5338 3.219 Z" fill-rule="evenodd" clip-rule="evenodd" fill="#F0F0F0" stroke="none"/>
  <path d="M 445.5338 3.219 C 446.4046 3.5093 447.2754 3.7995 448.1726 4.0986 C 447.8823 5.2597 447.592 6.4207 447.293 7.617 C 446.4222 7.3267 445.5514 7.0364 444.6542 6.7374 C 444.9445 5.5763 445.2348 4.4153 445.5338 3.219 Z" fill-rule="evenodd" clip-rule="evenodd" fill="#333333" stroke="none"/>
  <path d="M 445.5338 3.219 C 446.6949 3.219 447.8559 3.219 449.0522 3.219 C 449.3424 4.9606 449.6327 6.7022 449.9318 8.4965 C 449.1937 7.9536 448.4619 7.4022 447.7328 6.8473 C 447.5287 6.6942 447.5287 6.6942 446.4959 5.9196 C 446.1784 5.609 445.8609 5.2983 445.5338 4.9782 C 445.5338 4.3977 445.5338 3.8171 445.5338 3.219 Z" fill-rule="evenodd" clip-rule="evenodd" fill="#9E9E9E" stroke="none"/>
  <path d="M 445.5338 3.219 C 446.4046 3.5093 447.2754 3.7995 448.1726 4.0986 C 447.592 6.1305 447.0115 8.1623 446.4134 10.2557 C 445.1561 8.1848 444.578 7.1945 444.9841 4.7583 C 445.1655 4.2503 445.3469 3.7424 445.5338 3.219 Z" fill-rule="evenodd" clip-rule="evenodd" fill="#090909" stroke="none"/>
  <path d="M 445.5338 3.219 C 447.5657 3.5093 449.5975 3.7995 451.6909 4.0986 C 451.1104 5.2597 450.5299 6.4207 449.9318 7.617 C 447.7328 6.4075 447.7328 6.4075 445.5338 4.9782 C 445.5338 4.3977 445.5338 3.8171 445.5338 3.219 Z" fill-rule="evenodd" clip-rule="evenodd" fill="#121212" stroke="none"/>
  <path d="M 445.5338 3.219 C 446.6949 3.219 447.8559 3.219 449.0522 3.219 C 449.3424 4.6703 449.6327 6.1217 449.9318 7.617 C 449.061 7.617 448.1902 7.617 447.293 7.617 C 446.7125 6.1656 446.1319 4.7143 445.5338 3.219 Z" fill-rule="evenodd" clip-rule="evenodd" fill="#EEEEEE" stroke="none"/>
  <path d="M 445.5338 3.219 C 446.1143 3.219 446.6949 3.219 447.293 3.219 C 447.293 5.8314 447.293 8.4438 447.293 11.1353 C 446.7125 11.1353 446.1319 11.1353 445.5338 11.1353 C 445.362 10.1469 445.1987 9.1571 445.039 8.1667 C 444.9472 7.6157 444.8554 7.0646 444.7607 6.4969 C 444.6542 4.9782 444.6542 4.9782 445.5338 3.219 Z" fill-rule="evenodd" clip-rule="evenodd" fill="#090909" stroke="none"/>
  <path d="M 445.5338 3.219 C 446.4421 5.6715 446.4531 6.621 445.5888 9.1562 C 445.2804 9.8093 444.972 10.4624 444.6542 11.1353 C 444.364 11.1353 444.0737 11.1353 443.7746 11.1353 C 443.5233 5.4808 443.5233 5.4808 445.5338 3.219 Z" fill-rule="evenodd" clip-rule="evenodd" fill="#D7D7D7" stroke="none"/>
  <path d="M 445.5338 3.219 C 446.6949 4.3801 447.8559 5.5411 449.0522 6.7374 C 448.1814 7.8984 447.3106 9.0595 446.4134 10.2557 C 446.1231 7.9336 445.8329 5.6115 445.5338 3.219 Z" fill-rule="evenodd" clip-rule="evenodd" fill="#1E1E1E" stroke="none"/>
  <path d="M 445.5338 3.219 C 447.8427 3.5489 447.8427 3.5489 449.9318 4.0986 C 449.3512 4.6791 448.7707 5.2597 448.1726 5.8578 C 445.8637 5.5279 445.8637 5.5279 443.7746 4.9782 C 444.3552 4.3977 444.9357 3.8171 445.5338 3.219 Z" fill-rule="evenodd" clip-rule="evenodd" fill="#222222" stroke="none"/>
  <path d="M 445.5338 3.219 C 448.9422 4.7583 448.9422 4.7583 449.9318 6.7374 C 448.2276 6.4625 448.2276 6.4625 446.4134 5.8578 C 445.7537 4.4834 445.7537 4.4834 445.5338 3.219 Z" fill-rule="evenodd" clip-rule="evenodd" fill="#EFEFEF" stroke="none"/>
  <path d="M 445.5338 3.219 C 446.4046 3.219 447.2754 3.219 448.1726 3.219 C 448.4628 4.0898 448.7531 4.9606 449.0522 5.8578 C 448.1814 5.8578 447.3106 5.8578 446.4134 5.8578 C 445.8329 5.2773 445.2523 4.6967 444.6542 4.0986 C 444.9445 3.8083 445.2348 3.5181 445.5338 3.219 Z" fill-rule="evenodd" clip-rule="evenodd" fill="#232323" stroke="none"/>
  <path d="M 445.5338 3.219 C 446.9851 3.219 448.4365 3.219 449.9318 3.219 C 449.6415 4.0898 449.3512 4.9606 449.0522 5.8578 C 447.8911 5.2773 446.7301 4.6967 445.5338 4.0986 C 445.5338 3.8083 445.5338 3.5181 445.5338 3.219 Z" fill-rule="evenodd" clip-rule="evenodd" fill="#121212" stroke="none"/>
  <path d="M 445.5338 3.219 C 446.1143 3.5093 446.1143 3.5093 449.0522 4.9782 C 448.4716 5.2685 448.4716 5.2685 445.5338 6.7374 C 445.5338 5.5763 445.5338 4.4153 445.5338 3.219 Z" fill-rule="evenodd" clip-rule="evenodd" fill="#141414" stroke="none"/>
  <path d="M 445.5338 3.219 C 445.2435 4.0898 444.9533 4.9606 444.6542 5.8578 C 443.2029 5.5675 441.7516 5.2773 440.2563 4.9782 C 442.2935 3.426 442.8188 3.219 445.5338 3.219 Z" fill-rule="evenodd" clip-rule="evenodd" fill="#292929" stroke="none"/>
  <path d="M 445.5338 3.219 C 446.1143 3.5093 446.1143 3.5093 449.0522 4.9782 C 448.1814 5.5587 447.3106 6.1393 446.4134 6.7374 C 446.1231 5.5763 445.8329 4.4153 445.5338 3.219 Z" fill-rule="evenodd" clip-rule="evenodd" fill="#202020" stroke="none"/>
  <path d="M 445.5338 3.219 C 445.2435 4.0898 444.9533 4.9606 444.6542 5.8578 C 443.4932 5.5675 442.3321 5.2773 441.1359 4.9782 C 443.5547 3.219 443.5547 3.219 445.5338 3.219 Z" fill-rule="evenodd" clip-rule="evenodd" fill="#FCFCFC" stroke="none"/>
  <path d="M 445.5338 3.219 C 445.2435 4.0898 444.9533 4.9606 444.6542 5.8578 C 443.7834 5.2773 442.9126 4.6967 442.0155 4.0986 C 443.7746 3.219 443.7746 3.219 445.5338 3.219 Z" fill-rule="evenodd" clip-rule="evenodd" fill="#DADADA" stroke="none"/>
  <path d="M 445.5338 3.219 C 446.1143 3.7995 446.6949 4.3801 447.293 4.9782 C 446.4222 5.2685 445.5514 5.5587 444.6542 5.8578 C 444.9445 4.987 445.2348 4.1162 445.5338 3.219 Z" fill-rule="evenodd" clip-rule="evenodd" fill="#353535" stroke="none"/>
  <path d="M 445.5338 3.219 C 446.1143 3.7995 446.6949 4.3801 447.293 4.9782 C 446.4222 4.9782 445.5514 4.9782 444.6542 4.9782 C 444.9445 4.3977 445.2348 3.8171 445.5338 3.219 Z" fill-rule="evenodd" clip-rule="evenodd" fill="#EFEFEF" stroke="none"/>
</svg>
