<?xml version="1.0" encoding="UTF-8"?>
<svg width="950" height="35" viewBox="0 0 950 35" fill="none" xmlns="http://www.w3.org/2000/svg">
  <path d="M9.5 22.7559 L198.5388 22.7559 L198.5388 27.7559 L9.5 27.7559 Z" fill-rule="evenodd" clip-rule="evenodd" fill="white" stroke="none"/>
  <path d="M760.0833 22.7559 L940.5 22.7559 L940.5 27.7559 L760.0833 27.7559 Z" fill-rule="evenodd" clip-rule="evenodd" fill="white" stroke="none"/>
  <path d="M9.5 23.1617 L198.5388 23.1617 L198.5388 28.1617 L9.5 28.1617 Z" fill-rule="evenodd" clip-rule="evenodd" fill="white" stroke="none"/>
  <path d="M760.0833 23.1617 L940.5 23.1617 L940.5 28.1617 L760.0833 28.1617 Z" fill-rule="evenodd" clip-rule="evenodd" fill="white" stroke="none"/>
  <path d="M475.0393 33.4091 C451.6249 17.4716 464.1864 1.5909 474.952 15.7417 C485.5777 1.6247 498.2965 17.5453 475.0393 33.4091 Z" fill-rule="evenodd" clip-rule="evenodd" fill="white" stroke="none"/>
  <path d="M441.6351 19.7273 L447.9138 25.416 L441.6912 31.0849 L435.4125 25.3963 L441.6351 19.7273 Z" fill-rule="evenodd" clip-rule="evenodd" fill="white" stroke="none"/>
  <path d="M508.3087 19.8326 L514.5874 25.5212 L508.3649 31.1902 L502.0861 25.5016 L508.3087 19.8326 Z" fill-rule="evenodd" clip-rule="evenodd" fill="white" stroke="none"/>
</svg>
