<?xml version="1.0" encoding="UTF-8"?>
<svg width="950" height="35" viewBox="0 0 950 35" fill="none" xmlns="http://www.w3.org/2000/svg">
  <path d="M9.5 14.8333 L198.5388 14.8333 L198.5388 19.8333 L9.5 19.8333 Z" fill-rule="evenodd" clip-rule="evenodd" fill="white" stroke="none"/>
  <path d="M760.0833 14.8333 L940.5 14.8333 L940.5 19.8333 L760.0833 19.8333 Z" fill-rule="evenodd" clip-rule="evenodd" fill="white" stroke="none"/>
  <path d="M9.5 15.1667 L198.5388 15.1667 L198.5388 20.1667 L9.5 20.1667 Z" fill-rule="evenodd" clip-rule="evenodd" fill="white" stroke="none"/>
  <path d="M760.0833 15.1667 L940.5 15.1667 L940.5 20.1667 L760.0833 20.1667 Z" fill-rule="evenodd" clip-rule="evenodd" fill="white" stroke="none"/>
  <path d="M433.7557 9.0125 L443.0679 17.4496 L433.839 25.8574 L424.5267 17.4203 L433.7557 9.0125 Z" fill-rule="evenodd" clip-rule="evenodd" fill="white" stroke="none"/>
  <path d="M451.7703 6.7014 L463.6692 17.4821 L451.8767 28.2254 L439.9777 17.4447 L451.7703 6.7014 Z" fill-rule="evenodd" clip-rule="evenodd" fill="white" stroke="none"/>
  <path d="M474.9214 1.5909 L492.5111 17.5277 L475.0786 33.4091 L457.4889 17.4724 L474.9214 1.5909 Z" fill-rule="evenodd" clip-rule="evenodd" fill="white" stroke="none"/>
  <path d="M498.1233 6.7746 L510.0223 17.5553 L498.2297 28.2986 L486.3307 17.5179 L498.1233 6.7746 Z" fill-rule="evenodd" clip-rule="evenodd" fill="white" stroke="none"/>
  <path d="M516.161 9.1426 L525.4732 17.5797 L516.2443 25.9875 L506.932 17.5504 L516.161 9.1426 Z" fill-rule="evenodd" clip-rule="evenodd" fill="white" stroke="none"/>
</svg>
