<?xml version="1.0" encoding="UTF-8"?>
<svg width="950" height="35" viewBox="0 0 950 35" fill="none" xmlns="http://www.w3.org/2000/svg">
  <path d="M346.0555 28.3646 L343.8946 28.2469 L341.7609 28.0932 L339.6614 27.904 L337.6033 27.68 L335.5933 27.4219 L333.6383 27.1306 L331.7448 26.807 L329.9191 26.4523 L328.1673 26.0677 L326.4953 25.6543 L324.9087 25.2136 L323.4128 24.7471 L322.0127 24.2563 L320.7129 23.743 L319.5179 23.2087 L318.4316 22.6553 L317.4578 22.0846 L316.5995 21.4986 L315.8599 20.8992 L352 17.5 Z" fill-rule="evenodd" clip-rule="evenodd" fill="#B22222" stroke="none"/>
  <path d="M603.9445 28.3646 L606.1054 28.2469 L608.2391 28.0932 L610.3386 27.904 L612.3967 27.68 L614.4067 27.4219 L616.3617 27.1306 L618.2552 26.807 L620.0809 26.4523 L621.8327 26.0677 L623.5047 25.6543 L625.0913 25.2136 L626.5872 24.7471 L627.9873 24.2563 L629.2871 23.743 L630.4821 23.2087 L631.5684 22.6553 L632.5422 22.0846 L633.4005 21.4986 L634.1401 20.8992 L598 17.5 Z" fill-rule="evenodd" clip-rule="evenodd" fill="#B22222" stroke="none"/>
  <path d="M350 17.5 L350 12.5 L352 17.5 L350 22.5 L348 17.5 Z" fill-rule="evenodd" clip-rule="evenodd" fill="#B22222" stroke="none"/>
  <path d="M600 17.5 L600 12.5 L598 17.5 L600 22.5 L602 17.5 Z" fill-rule="evenodd" clip-rule="evenodd" fill="#B22222" stroke="none"/>
  <path d="M9.5 17.5 L352 17.5" fill="none" stroke="#B22222" stroke-width="1.2" stroke-linecap="round" stroke-linejoin="round"/>
  <path d="M598 17.5 L940.5 17.5" fill="none" stroke="#B22222" stroke-width="1.2" stroke-linecap="round" stroke-linejoin="round"/>
</svg>
