<?xml version="1.0" encoding="UTF-8"?>
<svg width="950" height="35" viewBox="0 0 950 35" fill="none" xmlns="http://www.w3.org/2000/svg">
  <path d="M352 19.75 L348.1029 22 L344.2058 19.75 L344.2058 15.25 L348.1029 13 L352 15.25 Z" fill-rule="evenodd" clip-rule="evenodd" fill="#B22222" stroke="none"/>
  <path d="M598 19.75 L601.8971 22 L605.7942 19.75 L605.7942 15.25 L601.8971 13 L598 15.25 Z" fill-rule="evenodd" clip-rule="evenodd" fill="#B22222" stroke="none"/>
  <path d="M352 19.1 L349.2287 20.7 L346.4574 19.1 L346.4574 15.9 L349.2287 14.3 L352 15.9 Z" fill-rule="evenodd" clip-rule="evenodd" fill="#B22222" stroke="none"/>
  <path d="M598 19.1 L600.7713 20.7 L603.5426 19.1 L603.5426 15.9 L600.7713 14.3 L598 15.9 Z" fill-rule="evenodd" clip-rule="evenodd" fill="#B22222" stroke="none"/>
  <path d="M352 12.4 L348.7091 14.3 L345.4182 12.4 L345.4182 8.6 L348.7091 6.7 L352 8.6 Z" fill-rule="evenodd" clip-rule="evenodd" fill="#B22222" stroke="none"/>
  <path d="M598 12.4 L601.2909 14.3 L604.5818 12.4 L604.5818 8.6 L601.2909 6.7 L598 8.6 Z" fill-rule="evenodd" clip-rule="evenodd" fill="#B22222" stroke="none"/>
  <path d="M352 26.4 L348.7091 28.3 L345.4182 26.4 L345.4182 22.6 L348.7091 20.7 L352 22.6 Z" fill-rule="evenodd" clip-rule="evenodd" fill="#B22222" stroke="none"/>
  <path d="M598 26.4 L601.2909 28.3 L604.5818 26.4 L604.5818 22.6 L601.2909 20.7 L598 22.6 Z" fill-rule="evenodd" clip-rule="evenodd" fill="#B22222" stroke="none"/>
  <path d="M352 15 L349.4019 16.5 L346.8038 15 L346.8038 12 L349.4019 10.5 L352 12 Z" fill-rule="evenodd" clip-rule="evenodd" fill="#B22222" stroke="none"/>
  <path d="M598 15 L600.5981 16.5 L603.1962 15 L603.1962 12 L600.5981 10.5 L598 12 Z" fill-rule="evenodd" clip-rule="evenodd" fill="#B22222" stroke="none"/>
  <path d="M352 23 L349.4019 24.5 L346.8038 23 L346.8038 20 L349.4019 18.5 L352 20 Z" fill-rule="evenodd" clip-rule="evenodd" fill="#B22222" stroke="none"/>
  <path d="M598 23 L600.5981 24.5 L603.1962 23 L603.1962 20 L600.5981 18.5 L598 20 Z" fill-rule="evenodd" clip-rule="evenodd" fill="#B22222" stroke="none"/>
  <path d="M352 18.75 L349.8349 20 L347.6699 18.75 L347.6699 16.25 L349.8349 15 L352 16.25 Z" fill-rule="evenodd" clip-rule="evenodd" fill="#B22222" stroke="none"/>
  <path d="M598 18.75 L600.1651 20 L602.3301 18.75 L602.3301 16.25 L600.1651 15 L598 16.25 Z" fill-rule="evenodd" clip-rule="evenodd" fill="#B22222" stroke="none"/>
  <path d="M9.5 17.5 L352 17.5" fill="none" stroke="#B22222" stroke-width="1.2" stroke-linecap="round" stroke-linejoin="round"/>
  <path d="M598 17.5 L940.5 17.5" fill="none" stroke="#B22222" stroke-width="1.2" stroke-linecap="round" stroke-linejoin="round"/>
</svg>
