<?xml version="1.0" encoding="UTF-8"?>
<svg width="950" height="35" viewBox="0 0 950 35" fill="none" xmlns="http://www.w3.org/2000/svg">
  <path d="M317.8979 1.5909 L315.5115 1.5909 L314.7161 2.3864 L309.1479 2.3864 L305.9661 3.9773 L305.9661 8.75 L305.1706 9.5455 L305.1706 19.8863 L304.3752 20.6818 L304.3752 32.6136 L305.1706 33.4091 L313.9206 33.4091 L315.5115 31.8182 L315.5115 28.6363 L316.307 27.8409 L316.307 21.4773 L317.1024 20.6818 L317.1024 15.9091 L317.8979 15.1137 L317.8979 11.1364 L318.6933 10.3409 L318.6933 5.5682 L319.4888 4.7727 L319.4888 3.1818 L317.8979 1.5909 Z" fill-rule="evenodd" clip-rule="evenodd" fill="white" stroke="none"/>
  <path d="M328.2388 1.5909 L327.4433 2.3864 L327.4433 9.5455 L326.6479 10.3409 L326.6479 11.9318 L325.8524 13.5227 L326.6479 14.3182 L330.6251 14.3182 L331.4206 13.5227 L331.4206 6.3637 L332.216 5.5682 L332.216 1.5909 L328.2388 1.5909 Z" fill-rule="evenodd" clip-rule="evenodd" fill="white" stroke="none"/>
  <path d="M359.2615 1.5909 L356.8751 1.5909 L356.0797 2.3864 L350.5115 2.3864 L347.3297 3.9773 L347.3297 9.5455 L346.5342 10.3409 L346.5342 22.2727 L345.7388 23.0682 L345.7388 31.8182 L347.3297 33.4091 L356.0797 33.4091 L356.8751 32.6136 L356.8751 31.0227 L357.6706 30.2273 L357.6706 23.8636 L358.466 23.0682 L358.466 16.7045 L359.2615 15.9091 L359.2615 11.1364 L360.0569 10.3409 L360.0569 6.3637 L360.8524 5.5682 L360.8524 3.1818 L359.2615 1.5909 Z" fill-rule="evenodd" clip-rule="evenodd" fill="white" stroke="none"/>
  <path d="M369.6024 1.5909 L368.8069 2.3864 L368.8069 10.3409 L367.216 13.5227 L368.0115 14.3182 L372.7842 14.3182 L372.7842 7.1591 L373.5796 6.3637 L373.5796 1.5909 L369.6024 1.5909 Z" fill-rule="evenodd" clip-rule="evenodd" fill="white" stroke="none"/>
  <path d="M401.4205 1.5909 L399.0342 1.5909 L398.2387 2.3864 L391.8751 2.3864 L388.6933 4.7727 L388.6933 12.7273 L387.8978 13.5227 L387.8978 23.0682 L387.1024 23.8636 L387.1024 31.8182 L388.6933 33.4091 L397.4433 33.4091 L399.0342 30.2273 L399.0342 24.6591 L399.8296 23.8636 L399.8296 17.5 L400.6251 16.7045 L400.6251 12.7273 L401.4205 11.9318 L401.4205 7.9545 L402.216 7.1591 L402.216 2.3864 L401.4205 1.5909 Z" fill-rule="evenodd" clip-rule="evenodd" fill="white" stroke="none"/>
  <path d="M413.3523 1.5909 L409.3751 1.5909 L407.7842 3.9773 L407.7842 5.5682 L408.5796 6.3637 L408.5796 9.5455 L407.7842 10.3409 L406.9887 14.3182 L411.7614 14.3182 L412.5569 13.5227 L412.5569 6.3637 L413.3523 5.5682 L413.3523 1.5909 Z" fill-rule="evenodd" clip-rule="evenodd" fill="white" stroke="none"/>
  <path d="M440.3978 1.5909 L438.0114 1.5909 L437.2159 2.3864 L431.6478 2.3864 L428.466 3.9773 L428.466 8.75 L427.6705 9.5455 L427.6705 20.6818 L426.8751 21.4773 L426.8751 31.8182 L428.466 33.4091 L437.2159 33.4091 L438.0114 32.6136 L438.0114 30.2273 L438.8069 29.4318 L438.8069 23.8636 L439.6023 23.0682 L439.6023 16.7045 L440.3978 15.9091 L440.3978 10.3409 L441.1932 9.5455 L441.1932 5.5682 L441.9887 4.7727 L441.9887 3.1818 L440.3978 1.5909 Z" fill-rule="evenodd" clip-rule="evenodd" fill="white" stroke="none"/>
  <path d="M450.7387 1.5909 L449.9432 2.3864 L449.9432 9.5455 L449.1477 10.3409 L448.3523 14.3182 L453.9205 14.3182 L453.9205 6.3637 L454.7159 5.5682 L454.7159 1.5909 L450.7387 1.5909 Z" fill-rule="evenodd" clip-rule="evenodd" fill="white" stroke="none"/>
  <path d="M482.5568 1.5909 L479.375 1.5909 L478.5795 2.3864 L473.0114 2.3864 L469.8295 6.3637 L469.8295 10.3409 L469.0341 11.1364 L469.0341 16.7045 L468.2386 17.5 L468.2386 31.8182 L469.8295 33.4091 L477.7841 33.4091 L479.375 31.8182 L479.375 30.2273 L480.1704 29.4318 L480.1704 23.8636 L480.9659 23.0682 L480.9659 19.0909 L481.7614 18.2955 L481.7614 14.3182 L480.9659 14.3182 L480.1704 12.7273 L480.9659 11.9318 L480.9659 7.9545 L482.5568 6.3637 L483.3523 6.3637 L483.3523 2.3864 L482.5568 1.5909 Z" fill-rule="evenodd" clip-rule="evenodd" fill="white" stroke="none"/>
  <path d="M489.7159 1.5909 L488.9204 3.1818 L489.7159 8.75 L488.125 11.9318 L488.125 14.3182 L492.8977 14.3182 L493.6932 13.5227 L493.6932 5.5682 L494.4886 4.7727 L494.4886 1.5909 L489.7159 1.5909 Z" fill-rule="evenodd" clip-rule="evenodd" fill="white" stroke="none"/>
  <path d="M521.534 1.5909 L519.1477 1.5909 L518.3522 2.3864 L512.784 2.3864 L509.6022 3.9773 L509.6022 7.9545 L508.8068 8.75 L508.8068 20.6818 L508.0114 21.4773 L508.0114 31.8182 L509.6022 33.4091 L518.3522 33.4091 L519.1477 32.6136 L519.1477 30.2273 L519.9432 29.4318 L519.9432 23.0682 L520.7386 22.2727 L520.7386 15.9091 L521.534 15.1137 L521.534 10.3409 L522.3295 9.5455 L522.3295 4.7727 L523.1249 3.9773 L523.1249 3.1818 L521.534 1.5909 Z" fill-rule="evenodd" clip-rule="evenodd" fill="white" stroke="none"/>
  <path d="M535.8522 1.5909 L531.875 1.5909 L531.0795 2.3864 L531.0795 9.5455 L529.4886 11.9318 L529.4886 14.3182 L534.2613 14.3182 L535.0568 13.5227 L535.0568 6.3637 L535.8522 5.5682 L535.8522 1.5909 Z" fill-rule="evenodd" clip-rule="evenodd" fill="white" stroke="none"/>
  <path d="M563.6931 1.5909 L561.3068 1.5909 L560.5113 2.3864 L554.1476 2.3864 L553.3522 3.1818 L551.7612 3.1818 L550.9658 4.7727 L550.9658 11.9318 L550.1704 12.7273 L550.1704 21.4773 L549.375 22.2727 L549.375 31.8182 L550.9658 33.4091 L558.9204 33.4091 L560.5113 31.8182 L560.5113 30.2273 L561.3068 29.4318 L561.3068 23.0682 L562.1022 22.2727 L562.1022 16.7045 L562.8976 15.9091 L562.8976 11.9318 L563.6931 11.1364 L563.6931 7.9545 L564.4885 7.1591 L564.4885 2.3864 L563.6931 1.5909 Z" fill-rule="evenodd" clip-rule="evenodd" fill="white" stroke="none"/>
  <path d="M575.6249 1.5909 L571.6476 1.5909 L570.0567 3.1818 L570.0567 5.5682 L570.8522 6.3637 L570.8522 9.5455 L569.2613 11.9318 L569.2613 14.3182 L574.034 14.3182 L574.8294 13.5227 L574.8294 5.5682 L575.6249 4.7727 L575.6249 1.5909 Z" fill-rule="evenodd" clip-rule="evenodd" fill="white" stroke="none"/>
  <path d="M602.6704 1.5909 L600.2839 1.5909 L599.4885 2.3864 L593.9203 2.3864 L590.7385 3.9773 L590.7385 7.1591 L589.9431 7.9545 L589.9431 17.5 L589.1476 18.2955 L589.1476 31.8182 L590.7385 33.4091 L598.6931 33.4091 L600.2839 32.6136 L600.2839 29.4318 L601.0794 28.6363 L601.0794 23.0682 L601.8749 22.2727 L601.8749 15.9091 L602.6704 15.1137 L602.6704 9.5455 L603.4658 8.75 L603.4658 2.3864 L602.6704 1.5909 Z" fill-rule="evenodd" clip-rule="evenodd" fill="white" stroke="none"/>
  <path d="M616.9885 1.5909 L613.0112 1.5909 L611.4203 3.9773 L611.4203 5.5682 L612.2157 6.3637 L612.2157 9.5455 L610.6249 11.9318 L610.6249 14.3182 L615.3976 14.3182 L616.193 13.5227 L616.193 6.3637 L616.9885 5.5682 L616.9885 1.5909 Z" fill-rule="evenodd" clip-rule="evenodd" fill="white" stroke="none"/>
  <path d="M644.8294 1.5909 L642.443 1.5909 L641.6475 2.3864 L635.284 2.3864 L634.4885 3.1818 L632.8976 3.1818 L632.1021 4.7727 L632.1021 11.1364 L631.3067 11.9318 L631.3067 19.8863 L630.5112 20.6818 L630.5112 32.6136 L632.1021 33.4091 L640.0566 33.4091 L641.6475 31.8182 L641.6475 29.4318 L642.443 28.6363 L642.443 23.0682 L643.2385 22.2727 L643.2385 16.7045 L644.0339 15.9091 L644.0339 11.9318 L644.8294 11.1364 L644.8294 7.1591 L645.6248 6.3637 L645.6248 2.3864 L644.8294 1.5909 Z" fill-rule="evenodd" clip-rule="evenodd" fill="white" stroke="none"/>
  <path d="M338.5797 2.3864 L338.5797 7.9545 L337.7842 8.75 L337.7842 11.9318 L336.9888 12.7273 L336.9888 14.3182 L341.7615 14.3182 L342.5569 13.5227 L342.5569 9.5455 L341.7615 7.9545 L343.3524 4.7727 L343.3524 2.3864 L338.5797 2.3864 Z" fill-rule="evenodd" clip-rule="evenodd" fill="white" stroke="none"/>
  <path d="M379.9433 2.3864 L379.9433 8.75 L379.1478 9.5455 L379.1478 14.3182 L383.1251 14.3182 L383.9205 13.5227 L383.9205 9.5455 L383.1251 7.9545 L385.5115 3.1818 L384.716 2.3864 L379.9433 2.3864 Z" fill-rule="evenodd" clip-rule="evenodd" fill="white" stroke="none"/>
  <path d="M419.716 2.3864 L419.716 7.1591 L418.9205 7.9545 L418.9205 11.1364 L418.1251 11.9318 L418.1251 14.3182 L422.8978 14.3182 L423.6932 13.5227 L423.6932 10.3409 L422.8978 9.5455 L422.8978 7.9545 L424.4887 4.7727 L424.4887 2.3864 L419.716 2.3864 Z" fill-rule="evenodd" clip-rule="evenodd" fill="white" stroke="none"/>
  <path d="M461.0796 2.3864 L461.0796 5.5682 L460.2841 6.3637 L460.2841 11.9318 L459.4886 12.7273 L459.4886 14.3182 L464.2614 14.3182 L465.0568 13.5227 L465.0568 7.1591 L465.8523 6.3637 L466.6477 2.3864 L461.0796 2.3864 Z" fill-rule="evenodd" clip-rule="evenodd" fill="white" stroke="none"/>
  <path d="M500.8522 2.3864 L500.8522 4.7727 L500.0568 5.5682 L500.0568 11.1364 L499.2613 11.9318 L499.2613 14.3182 L504.0341 14.3182 L504.8295 13.5227 L504.8295 10.3409 L504.0341 9.5455 L504.0341 7.9545 L505.625 4.7727 L505.625 2.3864 L500.8522 2.3864 Z" fill-rule="evenodd" clip-rule="evenodd" fill="white" stroke="none"/>
  <path d="M542.2158 2.3864 L542.2158 5.5682 L541.4204 6.3637 L541.4204 11.9318 L540.6249 12.7273 L540.6249 14.3182 L545.3977 14.3182 L546.1931 13.5227 L546.1931 10.3409 L545.3977 9.5455 L545.3977 7.9545 L546.9886 4.7727 L546.9886 2.3864 L542.2158 2.3864 Z" fill-rule="evenodd" clip-rule="evenodd" fill="white" stroke="none"/>
  <path d="M581.9885 2.3864 L581.9885 5.5682 L581.193 6.3637 L581.193 11.1364 L580.3976 11.9318 L580.3976 14.3182 L585.1704 14.3182 L585.9658 12.7273 L585.9658 10.3409 L585.1704 9.5455 L585.1704 7.9545 L586.7613 4.7727 L586.7613 2.3864 L581.9885 2.3864 Z" fill-rule="evenodd" clip-rule="evenodd" fill="white" stroke="none"/>
  <path d="M623.3521 2.3864 L622.5567 3.1818 L623.3521 4.7727 L622.5567 5.5682 L622.5567 11.9318 L621.7612 12.7273 L621.7612 14.3182 L626.534 14.3182 L627.3294 13.5227 L627.3294 10.3409 L626.534 9.5455 L626.534 7.9545 L628.1248 4.7727 L628.1248 2.3864 L623.3521 2.3864 Z" fill-rule="evenodd" clip-rule="evenodd" fill="white" stroke="none"/>
  <path d="M325.8524 20.6818 L325.057 21.4773 L325.057 29.4318 L323.4661 32.6136 L324.2615 33.4091 L329.0342 33.4091 L329.0342 26.25 L329.8297 25.4545 L329.8297 23.0682 L330.6251 21.4773 L329.8297 20.6818 L325.8524 20.6818 Z" fill-rule="evenodd" clip-rule="evenodd" fill="white" stroke="none"/>
  <path d="M367.216 20.6818 L366.4206 21.4773 L366.4206 26.25 L367.216 27.0455 L366.4206 27.8409 L366.4206 29.4318 L364.8297 32.6136 L365.6251 33.4091 L370.3978 33.4091 L370.3978 27.8409 L371.1933 27.0455 L371.1933 23.0682 L371.9887 21.4773 L371.1933 20.6818 L367.216 20.6818 Z" fill-rule="evenodd" clip-rule="evenodd" fill="white" stroke="none"/>
  <path d="M406.9887 20.6818 L406.1933 21.4773 L406.1933 29.4318 L404.6023 32.6136 L405.3978 33.4091 L410.1705 33.4091 L410.1705 26.25 L410.966 25.4545 L410.966 23.0682 L411.7614 21.4773 L410.966 20.6818 L406.9887 20.6818 Z" fill-rule="evenodd" clip-rule="evenodd" fill="white" stroke="none"/>
  <path d="M448.3523 20.6818 L447.5568 21.4773 L447.5568 26.25 L448.3523 27.0455 L445.9659 31.8182 L445.9659 33.4091 L451.5341 33.4091 L451.5341 27.0455 L452.3296 26.25 L452.3296 23.0682 L453.125 21.4773 L452.3296 20.6818 L448.3523 20.6818 Z" fill-rule="evenodd" clip-rule="evenodd" fill="white" stroke="none"/>
  <path d="M488.125 20.6818 L486.5341 23.0682 L487.3295 24.6591 L487.3295 28.6363 L486.5341 29.4318 L485.7386 33.4091 L491.3068 33.4091 L491.3068 26.25 L492.1023 25.4545 L492.1023 20.6818 L488.125 20.6818 Z" fill-rule="evenodd" clip-rule="evenodd" fill="white" stroke="none"/>
  <path d="M529.4886 20.6818 L528.6931 21.4773 L528.6931 29.4318 L527.1022 32.6136 L527.8976 33.4091 L532.6704 33.4091 L532.6704 26.25 L533.4658 25.4545 L533.4658 20.6818 L529.4886 20.6818 Z" fill-rule="evenodd" clip-rule="evenodd" fill="white" stroke="none"/>
  <path d="M573.2386 20.6818 L569.2613 20.6818 L567.6704 23.0682 L567.6704 24.6591 L568.4658 25.4545 L568.4658 28.6363 L567.6704 29.4318 L566.8749 33.4091 L571.6476 33.4091 L572.4431 32.6136 L572.4431 25.4545 L573.2386 24.6591 L573.2386 20.6818 Z" fill-rule="evenodd" clip-rule="evenodd" fill="white" stroke="none"/>
  <path d="M614.6022 20.6818 L610.6249 20.6818 L609.8294 21.4773 L609.8294 29.4318 L608.2385 31.8182 L608.2385 33.4091 L613.0112 33.4091 L613.8067 32.6136 L613.8067 26.25 L614.6022 25.4545 L614.6022 20.6818 Z" fill-rule="evenodd" clip-rule="evenodd" fill="white" stroke="none"/>
  <path d="M336.1933 21.4773 L336.1933 28.6363 L335.3979 29.4318 L335.3979 31.0227 L334.6024 32.6136 L335.3979 33.4091 L339.3751 33.4091 L340.1706 32.6136 L340.1706 25.4545 L341.7615 22.2727 L340.966 21.4773 L336.1933 21.4773 Z" fill-rule="evenodd" clip-rule="evenodd" fill="white" stroke="none"/>
  <path d="M378.3524 21.4773 L377.5569 22.2727 L377.5569 28.6363 L376.7615 29.4318 L376.7615 33.4091 L380.7387 33.4091 L381.5342 32.6136 L381.5342 25.4545 L383.1251 22.2727 L382.3296 21.4773 L378.3524 21.4773 Z" fill-rule="evenodd" clip-rule="evenodd" fill="white" stroke="none"/>
  <path d="M417.3296 21.4773 L417.3296 27.8409 L416.5341 28.6363 L416.5341 31.0227 L415.7387 31.8182 L415.7387 33.4091 L420.5114 33.4091 L421.3069 32.6136 L421.3069 25.4545 L422.8978 22.2727 L422.1023 21.4773 L417.3296 21.4773 Z" fill-rule="evenodd" clip-rule="evenodd" fill="white" stroke="none"/>
  <path d="M458.6932 21.4773 L458.6932 27.8409 L457.8977 28.6363 L457.8977 33.4091 L461.875 33.4091 L462.6705 32.6136 L462.6705 25.4545 L464.2614 23.0682 L464.2614 21.4773 L458.6932 21.4773 Z" fill-rule="evenodd" clip-rule="evenodd" fill="white" stroke="none"/>
  <path d="M498.4659 21.4773 L498.4659 27.0455 L497.6704 27.8409 L497.6704 31.0227 L496.875 31.8182 L496.875 33.4091 L501.6477 33.4091 L502.4432 32.6136 L502.4432 28.6363 L501.6477 27.0455 L503.2386 23.8636 L503.2386 21.4773 L498.4659 21.4773 Z" fill-rule="evenodd" clip-rule="evenodd" fill="white" stroke="none"/>
  <path d="M539.8294 21.4773 L539.8294 27.8409 L539.034 28.6363 L539.034 31.0227 L538.2386 31.8182 L538.2386 33.4091 L543.0113 33.4091 L543.8068 32.6136 L543.8068 28.6363 L543.0113 27.8409 L543.8068 27.0455 L543.8068 25.4545 L545.3977 22.2727 L544.6022 21.4773 L539.8294 21.4773 Z" fill-rule="evenodd" clip-rule="evenodd" fill="white" stroke="none"/>
  <path d="M579.6022 21.4773 L579.6022 26.25 L578.8067 27.0455 L578.8067 31.0227 L578.0113 31.8182 L578.0113 33.4091 L582.784 33.4091 L583.5794 32.6136 L583.5794 28.6363 L582.784 27.0455 L584.3749 23.8636 L584.3749 21.4773 L579.6022 21.4773 Z" fill-rule="evenodd" clip-rule="evenodd" fill="white" stroke="none"/>
  <path d="M620.9658 21.4773 L620.9658 27.0455 L620.1703 27.8409 L620.1703 31.8182 L619.3749 33.4091 L624.1475 33.4091 L624.943 32.6136 L624.943 28.6363 L624.1475 27.8409 L624.943 27.0455 L624.943 25.4545 L626.534 22.2727 L625.7385 21.4773 L620.9658 21.4773 Z" fill-rule="evenodd" clip-rule="evenodd" fill="white" stroke="none"/>
</svg>
