<?xml version="1.0" encoding="UTF-8"?>
<svg width="950" height="35" viewBox="0 0 950 35" fill="none" xmlns="http://www.w3.org/2000/svg">
  <path d="M302 17.5 L307 10.5 L312 6.5 L318 8.5 L323 4.5 L329 11.5 L335 6.5 L341 13.5 L346 9.5 L352 17.5 L346 25.5 L341 21.5 L335 28.5 L329 23.5 L323 30.5 L318 26.5 L312 28.5 L307 24.5 Z" fill-rule="evenodd" clip-rule="evenodd" fill="#B22222" stroke="none"/>
  <path d="M648 17.5 L643 10.5 L638 6.5 L632 8.5 L627 4.5 L621 11.5 L615 6.5 L609 13.5 L604 9.5 L598 17.5 L604 25.5 L609 21.5 L615 28.5 L621 23.5 L627 30.5 L632 26.5 L638 28.5 L643 24.5 Z" fill-rule="evenodd" clip-rule="evenodd" fill="#B22222" stroke="none"/>
  <path d="M9.5 17.5 L352 17.5" fill="none" stroke="#B22222" stroke-width="1.2" stroke-linecap="round" stroke-linejoin="round"/>
  <path d="M598 17.5 L940.5 17.5" fill="none" stroke="#B22222" stroke-width="1.2" stroke-linecap="round" stroke-linejoin="round"/>
</svg>
