<?xml version="1.0" encoding="UTF-8"?>
<svg width="950" height="35" viewBox="0 0 950 35" fill="none" xmlns="http://www.w3.org/2000/svg">
  <path d="M304 17.5 L310 9.5 L318 17.5 L310 25.5 L318 3.5 L326 17.5 L318 31.5 L326 -0.5 L334 17.5 L326 35.5 L334 -2.5 L342 17.5 L334 37.5 L352 17.5 L334 37.5 L326 17.5 L334 -2.5 L326 35.5 L318 17.5 L326 -0.5 L318 31.5 L310 17.5 L318 3.5 L310 25.5 L302 17.5 L310 9.5 Z" fill-rule="evenodd" clip-rule="evenodd" fill="white" stroke="none"/>
  <path d="M646 17.5 L640 9.5 L632 17.5 L640 25.5 L632 3.5 L624 17.5 L632 31.5 L624 -0.5 L616 17.5 L624 35.5 L616 -2.5 L608 17.5 L616 37.5 L598 17.5 L616 37.5 L624 17.5 L616 -2.5 L624 35.5 L632 17.5 L624 -0.5 L632 31.5 L640 17.5 L632 3.5 L640 25.5 L648 17.5 L640 9.5 Z" fill-rule="evenodd" clip-rule="evenodd" fill="white" stroke="none"/>
  <path d="M9.5 17.5 L352 17.5" fill="none" stroke="white" stroke-width="1.2" stroke-linecap="round" stroke-linejoin="round"/>
  <path d="M598 17.5 L940.5 17.5" fill="none" stroke="white" stroke-width="1.2" stroke-linecap="round" stroke-linejoin="round"/>
</svg>
