<?xml version="1.0" encoding="UTF-8"?>
<svg width="950" height="35" viewBox="0 0 950 35" fill="none" xmlns="http://www.w3.org/2000/svg">
  <path d="M204.2558 1.5909 L204.2558 1.9652 L205.1046 1.9652 L220.3816 8.7032 L221.6547 8.7032 L228.8689 5.3342 L229.7177 5.3342 L236.9318 1.9652 L237.7806 1.9652 L237.7806 1.5909 L204.2558 1.5909 Z" fill-rule="evenodd" clip-rule="evenodd" fill="white" stroke="none"/>
  <path d="M240.3268 1.5909 L240.3268 1.9652 L241.1755 1.9652 L245.8435 4.2112 L246.6922 4.2112 L256.4526 8.7032 L258.15 8.7032 L259.8475 7.5802 L260.6962 7.5802 L270.4566 3.0883 L271.3053 3.0883 L273.8515 1.9652 L273.8515 1.5909 L240.3268 1.5909 Z" fill-rule="evenodd" clip-rule="evenodd" fill="white" stroke="none"/>
  <path d="M276.822 1.5909 L276.822 1.9652 L277.6708 2.3395 L278.5195 2.3395 L292.9479 8.7032 L294.221 8.7032 L298.889 6.4572 L299.7377 6.4572 L301.4352 5.3342 L302.2839 5.3342 L309.4981 1.9652 L310.3468 1.9652 L310.3468 1.5909 L276.822 1.5909 Z" fill-rule="evenodd" clip-rule="evenodd" fill="white" stroke="none"/>
  <path d="M313.3174 1.5909 L313.3174 1.9652 L315.8635 3.0883 L316.7123 3.0883 L317.561 3.8369 L318.4097 4.2112 L319.2584 4.2112 L320.5315 4.9599 L323.9264 4.9599 L325.6239 5.7085 L326.4726 6.4572 L326.4726 6.8315 L327.3214 7.2059 L329.0188 8.7032 L330.2919 8.7032 L331.1406 8.3289 L331.1406 7.5802 L330.2919 6.8315 L324.3508 4.2112 L325.1996 3.4626 L326.4726 3.4626 L326.897 3.0883 L326.897 1.9652 L326.4726 1.5909 L313.3174 1.5909 Z" fill-rule="evenodd" clip-rule="evenodd" fill="white" stroke="none"/>
  <path d="M328.1701 1.9652 L328.1701 2.7139 L329.0188 3.4626 L334.5355 3.4626 L334.9599 3.8369 L334.5355 4.5856 L331.9894 5.7085 L331.9894 6.4572 L332.4137 7.2059 L334.1112 7.2059 L336.6574 6.0829 L337.0817 5.7085 L337.0817 4.5856 L339.6279 3.4626 L339.6279 3.0883 L340.4766 2.3395 L340.4766 1.5909 L329.0188 1.5909 L328.1701 1.9652 Z" fill-rule="evenodd" clip-rule="evenodd" fill="white" stroke="none"/>
  <path d="M342.1741 3.4626 L343.0228 3.0883 L343.8716 3.0883 L346.4177 1.9652 L346.4177 1.5909 L343.0228 1.5909 L342.1741 2.7139 L342.1741 3.4626 Z" fill-rule="evenodd" clip-rule="evenodd" fill="white" stroke="none"/>
  <path d="M349.3883 1.5909 L349.3883 1.9652 L350.237 2.3395 L351.0857 2.3395 L365.5141 8.7032 L366.7872 8.7032 L374.0014 5.3342 L374.8501 5.3342 L382.0643 1.9652 L382.913 1.9652 L382.913 1.5909 L349.3883 1.5909 Z" fill-rule="evenodd" clip-rule="evenodd" fill="white" stroke="none"/>
  <path d="M385.8836 1.5909 L385.8836 1.9652 L391.8247 4.5856 L392.6734 4.5856 L401.5851 8.7032 L403.2825 8.7032 L404.98 7.5802 L405.8287 7.5802 L415.589 3.0883 L416.4378 3.0883 L418.984 1.9652 L418.984 1.5909 L385.8836 1.5909 Z" fill-rule="evenodd" clip-rule="evenodd" fill="white" stroke="none"/>
  <path d="M421.9545 1.5909 L421.9545 1.9652 L422.8032 2.3395 L423.652 2.3395 L424.5007 3.0883 L425.3494 3.0883 L438.0803 8.7032 L439.3534 8.7032 L444.8702 6.0829 L445.7189 6.0829 L446.5676 5.3342 L447.4163 5.3342 L454.6305 1.9652 L455.4793 1.9652 L455.4793 1.5909 L421.9545 1.5909 Z" fill-rule="evenodd" clip-rule="evenodd" fill="white" stroke="none"/>
  <path d="M458.0254 1.5909 L458.0254 1.9652 L458.8742 1.9652 L463.5422 4.2112 L464.3909 4.2112 L468.2102 6.0829 L469.0589 6.0829 L469.9076 6.8315 L474.1513 8.7032 L475.4243 8.7032 L476.2731 7.9545 L478.3949 7.5802 L480.0924 6.4572 L480.9411 6.4572 L485.6091 4.2112 L486.4578 4.2112 L488.1553 3.0883 L489.004 3.0883 L491.5502 1.9652 L491.5502 1.5909 L458.0254 1.5909 Z" fill-rule="evenodd" clip-rule="evenodd" fill="white" stroke="none"/>
  <path d="M494.5207 1.5909 L494.5207 1.9652 L497.0669 3.0883 L497.9156 3.0883 L510.6466 8.7032 L511.9197 8.7032 L519.1338 5.3342 L519.9826 5.3342 L527.1968 1.9652 L528.0455 1.9652 L528.0455 1.5909 L494.5207 1.5909 Z" fill-rule="evenodd" clip-rule="evenodd" fill="white" stroke="none"/>
  <path d="M531.016 1.5909 L531.016 1.9652 L536.9571 4.5856 L537.8059 4.5856 L546.7175 8.7032 L547.9906 8.7032 L550.1124 7.5802 L550.9612 7.5802 L560.7215 3.0883 L561.5702 3.0883 L564.1164 1.9652 L564.1164 1.5909 L531.016 1.5909 Z" fill-rule="evenodd" clip-rule="evenodd" fill="white" stroke="none"/>
  <path d="M567.087 1.5909 L567.087 1.9652 L567.9357 1.9652 L583.2128 8.7032 L584.4859 8.7032 L591.7001 5.3342 L592.5488 5.3342 L599.763 1.9652 L600.6117 1.9652 L600.6117 1.5909 L567.087 1.5909 Z" fill-rule="evenodd" clip-rule="evenodd" fill="white" stroke="none"/>
  <path d="M603.1579 1.5909 L603.1579 1.9652 L604.0066 1.9652 L608.6747 4.2112 L609.5233 4.2112 L611.2208 4.9599 L611.2208 4.2112 L610.7965 3.8369 L610.7965 3.0883 L611.2208 2.7139 L611.2208 1.5909 L603.1579 1.5909 Z" fill-rule="evenodd" clip-rule="evenodd" fill="white" stroke="none"/>
  <path d="M612.9183 4.5856 L613.3426 5.3342 L615.8888 7.2059 L619.2837 8.7032 L620.5568 8.7032 L631.5903 3.8369 L632.439 3.8369 L633.2878 3.0883 L634.1365 3.0883 L636.6827 1.9652 L636.6827 1.5909 L626.9223 1.5909 L626.4979 1.9652 L626.9223 2.7139 L626.4979 3.4626 L626.4979 4.2112 L625.6492 4.5856 L625.6492 4.9599 L622.6786 7.2059 L622.2543 7.2059 L621.4056 6.4572 L619.7081 6.4572 L617.5863 5.3342 L616.7375 5.3342 L615.8888 4.5856 L615.4644 4.5856 L615.0401 3.8369 L615.4644 3.4626 L624.8004 3.4626 L625.2248 3.0883 L625.2248 1.9652 L624.3761 1.9652 L623.9517 1.5909 L623.103 1.5909 L622.6786 1.9652 L620.5568 1.9652 L620.1325 2.7139 L619.2837 2.7139 L618.435 3.0883 L617.5863 2.7139 L617.1619 1.9652 L616.3132 1.9652 L615.8888 1.5909 L614.6157 1.5909 L614.1914 1.9652 L613.3426 1.9652 L612.9183 2.7139 L612.9183 4.5856 Z" fill-rule="evenodd" clip-rule="evenodd" fill="white" stroke="none"/>
  <path d="M639.6532 1.5909 L639.6532 1.9652 L640.502 2.3395 L641.3506 2.3395 L642.1994 3.0883 L643.0481 3.0883 L655.779 8.7032 L657.0521 8.7032 L664.2663 5.3342 L665.1151 5.3342 L666.8125 4.2112 L667.6612 4.2112 L672.3293 1.9652 L673.1779 1.9652 L673.1779 1.5909 L639.6532 1.5909 Z" fill-rule="evenodd" clip-rule="evenodd" fill="white" stroke="none"/>
  <path d="M675.7241 1.5909 L675.7241 1.9652 L676.5729 1.9652 L681.2408 4.2112 L682.0896 4.2112 L691.85 8.7032 L693.5475 8.7032 L695.2449 7.5802 L696.0936 7.5802 L705.854 3.0883 L706.7027 3.0883 L709.2489 1.9652 L709.2489 1.5909 L675.7241 1.5909 Z" fill-rule="evenodd" clip-rule="evenodd" fill="white" stroke="none"/>
  <path d="M712.2194 1.5909 L712.2194 1.9652 L713.0682 1.9652 L714.7656 3.0883 L715.6144 3.0883 L728.3453 8.7032 L729.6183 8.7032 L736.8325 5.3342 L737.6813 5.3342 L738.53 4.9599 L739.3787 4.2112 L740.2274 4.2112 L744.8955 1.9652 L745.7441 1.9652 L745.7441 1.5909 L712.2194 1.5909 Z" fill-rule="evenodd" clip-rule="evenodd" fill="white" stroke="none"/>
  <path d="M202.9827 27.0455 L220.806 19.5588 L238.6293 27.0455 L256.877 19.5588 L274.7002 27.0455 L293.3722 19.5588 L309.4981 25.9224 L305.2544 21.4305 L296.7671 17.3128 L310.3468 11.3235 L310.7712 8.7032 L313.3174 10.9492 L315.8635 9.8262 L316.2879 12.8209 L326.4726 17.3128 L317.1366 22.5535 L309.4981 23.3021 L311.1955 27.0455 L329.4432 19.5588 L347.2665 27.0455 L365.9385 19.5588 L383.7618 27.0455 L402.0094 19.5588 L419.8327 27.0455 L438.5047 19.5588 L456.328 27.0455 L474.5756 19.5588 L492.3989 27.0455 L511.0709 19.5588 L528.8942 27.0455 L547.1419 19.5588 L566.2382 27.0455 L583.6371 19.5588 L589.5783 21.8048 L587.032 17.6871 L590.0026 15.8155 L589.5783 13.5695 L593.3975 14.3182 L596.3681 12.0722 L593.3975 10.9492 L583.2128 15.0668 L565.3895 7.5802 L547.1419 15.0668 L528.8942 7.5802 L510.6466 15.0668 L492.8233 7.5802 L474.5756 15.0668 L456.328 7.5802 L438.0803 15.0668 L420.257 7.5802 L402.0094 15.0668 L383.7618 7.5802 L365.5141 15.0668 L347.6908 7.5802 L330.2919 15.0668 L324.7752 15.4412 L318.4097 10.2005 L311.1955 7.5802 L292.9479 15.0668 L275.1246 7.5802 L256.877 15.0668 L238.6293 7.5802 L220.3816 15.0668 L202.9827 7.9545 L203.4071 10.9492 L217.8355 17.3128 L203.4071 23.6765 L202.9827 27.0455 Z" fill-rule="evenodd" clip-rule="evenodd" fill="white" stroke="none"/>
  <path d="M589.5783 18.8101 L589.5783 19.9331 L590.8514 20.3075 L592.1245 22.5535 L601.4604 27.0455 L602.7335 27.0455 L620.1325 19.5588 L637.5314 27.0455 L642.6238 25.5481 L656.2034 19.5588 L674.0267 27.0455 L676.1485 26.6711 L692.2743 19.5588 L710.0976 27.0455 L711.3707 27.0455 L729.194 19.5588 L746.5929 27.0455 L746.5929 23.6765 L732.5889 18.0615 L732.1646 17.3128 L746.5929 10.9492 L747.0173 7.9545 L745.7441 7.9545 L730.467 14.6925 L728.3453 15.0668 L710.5219 7.5802 L692.2743 15.0668 L674.0267 7.5802 L657.9008 14.6925 L655.779 15.0668 L637.9557 7.5802 L620.5568 15.0668 L614.6157 13.1952 L613.3426 15.4412 L616.3132 16.5642 L616.7375 17.6871 L602.7335 23.6765 L598.4899 23.3021 L594.6706 20.6818 L589.5783 18.8101 Z" fill-rule="evenodd" clip-rule="evenodd" fill="white" stroke="none"/>
  <path d="M603.5822 11.3235 L603.5822 10.5749 L602.7335 9.0775 L602.7335 7.9545 L602.3092 7.5802 L601.4604 7.5802 L597.6412 9.4519 L596.7924 9.4519 L596.3681 10.5749 L597.2168 10.5749 L597.6412 10.9492 L598.4899 10.9492 L600.1873 10.2005 L601.0361 10.9492 L602.7335 10.9492 L603.5822 11.3235 Z" fill-rule="evenodd" clip-rule="evenodd" fill="white" stroke="none"/>
  <path d="M604.8554 9.0775 L604.8554 10.2005 L605.7041 10.9492 L605.7041 11.6978 L606.5528 11.6978 L608.2503 10.9492 L608.2503 10.2005 L606.9772 9.8262 L606.1284 9.0775 L604.8554 9.0775 Z" fill-rule="evenodd" clip-rule="evenodd" fill="white" stroke="none"/>
  <path d="M607.8259 12.4465 L607.8259 12.8209 L608.6747 13.5695 L610.3721 14.3182 L611.6452 14.3182 L612.4939 13.5695 L612.4939 12.0722 L611.2208 11.3235 L609.099 11.3235 L609.099 11.6978 L607.8259 12.4465 Z" fill-rule="evenodd" clip-rule="evenodd" fill="white" stroke="none"/>
  <path d="M204.2558 33.4091 L205.1046 33.0347 L237.3562 33.0347 L237.3562 32.6604 L234.81 31.5374 L233.9613 31.5374 L224.2009 27.0455 L223.3522 27.0455 L222.5035 26.2968 L220.3816 25.9224 L210.6213 30.4144 L209.7726 30.4144 L204.6802 32.6604 L204.2558 33.4091 Z" fill-rule="evenodd" clip-rule="evenodd" fill="white" stroke="none"/>
  <path d="M240.7511 32.6604 L240.7511 33.0347 L273.8515 33.0347 L273.8515 32.6604 L273.0028 32.6604 L257.7257 25.9224 L256.877 25.9224 L244.146 31.5374 L243.2973 31.5374 L242.4486 32.2861 L241.5998 32.2861 L240.7511 32.6604 Z" fill-rule="evenodd" clip-rule="evenodd" fill="white" stroke="none"/>
  <path d="M293.7966 25.9224 L292.9479 25.9224 L289.553 27.4198 L289.553 28.1685 L289.9773 28.5428 L291.2504 28.5428 L291.6748 28.1685 L291.6748 27.4198 L293.3722 26.6711 L293.7966 25.9224 Z" fill-rule="evenodd" clip-rule="evenodd" fill="white" stroke="none"/>
  <path d="M313.3174 32.6604 L313.3174 33.0347 L346.4177 33.0347 L346.4177 32.6604 L345.569 32.6604 L330.2919 25.9224 L329.4432 25.9224 L327.3214 27.0455 L326.4726 27.0455 L325.6239 27.7941 L324.7752 27.7941 L315.0148 32.2861 L314.1661 32.2861 L313.3174 32.6604 Z" fill-rule="evenodd" clip-rule="evenodd" fill="white" stroke="none"/>
  <path d="M349.8127 32.6604 L349.8127 33.0347 L382.4887 33.0347 L382.4887 32.6604 L379.9425 31.5374 L379.0938 31.5374 L369.3334 27.0455 L368.4847 27.0455 L366.7872 25.9224 L365.5141 25.9224 L355.7537 30.4144 L354.905 30.4144 L349.8127 32.6604 Z" fill-rule="evenodd" clip-rule="evenodd" fill="white" stroke="none"/>
  <path d="M385.4592 33.4091 L386.3079 33.0347 L418.984 33.0347 L418.984 32.6604 L418.1353 32.6604 L410.9211 29.2914 L410.0723 29.2914 L409.2236 28.9171 L408.3749 28.1685 L407.5261 28.1685 L402.8581 25.9224 L402.0094 25.9224 L399.8876 27.0455 L399.0389 27.0455 L398.1901 27.7941 L397.3414 27.7941 L395.6439 28.5428 L394.7952 29.2914 L393.9465 29.2914 L389.2785 31.5374 L388.4298 31.5374 L387.5811 32.2861 L386.7323 32.2861 L385.8836 32.6604 L385.4592 33.4091 Z" fill-rule="evenodd" clip-rule="evenodd" fill="white" stroke="none"/>
  <path d="M422.3789 32.6604 L422.3789 33.0347 L454.6305 33.0347 L455.4793 33.4091 L455.0549 32.6604 L452.5087 31.5374 L451.66 31.5374 L449.9625 30.4144 L449.1138 30.4144 L443.5971 27.7941 L442.7484 27.7941 L441.8996 27.0455 L441.0509 27.0455 L439.3534 25.9224 L438.0803 25.9224 L428.32 30.4144 L427.4712 30.4144 L422.3789 32.6604 Z" fill-rule="evenodd" clip-rule="evenodd" fill="white" stroke="none"/>
  <path d="M458.4498 32.6604 L458.4498 33.0347 L491.5502 33.0347 L491.5502 32.6604 L490.7015 32.6604 L475.4243 25.9224 L474.5756 25.9224 L460.1473 32.2861 L459.2985 32.2861 L458.4498 32.6604 Z" fill-rule="evenodd" clip-rule="evenodd" fill="white" stroke="none"/>
  <path d="M494.9451 32.6604 L494.9451 33.0347 L527.1968 33.0347 L528.0455 33.4091 L527.6211 32.6604 L525.075 31.5374 L524.2262 31.5374 L511.4953 25.9224 L510.6466 25.9224 L500.8862 30.4144 L500.0375 30.4144 L494.9451 32.6604 Z" fill-rule="evenodd" clip-rule="evenodd" fill="white" stroke="none"/>
  <path d="M531.016 32.6604 L531.016 33.0347 L564.1164 33.0347 L564.1164 32.6604 L563.2677 32.6604 L547.9906 25.9224 L547.1419 25.9224 L534.411 31.5374 L533.5623 31.5374 L531.016 32.6604 Z" fill-rule="evenodd" clip-rule="evenodd" fill="white" stroke="none"/>
  <path d="M581.9397 26.6711 L581.9397 27.4198 L582.3641 28.1685 L584.0615 28.1685 L585.3346 28.9171 L586.1833 28.9171 L585.3346 27.0455 L583.6371 25.9224 L581.9397 26.6711 Z" fill-rule="evenodd" clip-rule="evenodd" fill="white" stroke="none"/>
  <path d="M603.5822 32.6604 L603.5822 33.0347 L636.6827 33.0347 L636.6827 32.6604 L635.8339 32.6604 L631.1659 30.4144 L630.3172 30.4144 L629.4685 29.6658 L628.6197 29.2914 L627.771 29.2914 L620.5568 25.9224 L619.7081 25.9224 L616.7375 27.4198 L615.8888 27.4198 L605.2797 32.2861 L604.431 32.2861 L603.5822 32.6604 Z" fill-rule="evenodd" clip-rule="evenodd" fill="white" stroke="none"/>
  <path d="M640.0776 32.6604 L640.0776 33.0347 L672.7536 33.0347 L672.7536 32.6604 L671.9049 32.2861 L671.0561 32.2861 L670.2074 31.5374 L669.3587 31.5374 L659.5983 27.0455 L658.7496 27.0455 L657.0521 25.9224 L655.779 25.9224 L646.0186 30.4144 L645.1699 30.4144 L640.0776 32.6604 Z" fill-rule="evenodd" clip-rule="evenodd" fill="white" stroke="none"/>
  <path d="M676.1485 32.6604 L676.1485 33.0347 L709.2489 33.0347 L709.2489 32.6604 L708.4001 32.6604 L693.1231 25.9224 L692.2743 25.9224 L679.5434 31.5374 L678.6947 31.5374 L677.846 32.2861 L676.9972 32.2861 L676.1485 32.6604 Z" fill-rule="evenodd" clip-rule="evenodd" fill="white" stroke="none"/>
  <path d="M712.6438 32.6604 L712.6438 33.0347 L744.8955 33.0347 L745.7441 33.4091 L745.3198 32.6604 L744.4711 32.2861 L743.6224 32.2861 L742.7736 31.5374 L741.9249 31.5374 L729.194 25.9224 L728.3453 25.9224 L721.1311 29.2914 L720.2823 29.2914 L718.5849 30.4144 L717.7361 30.4144 L712.6438 32.6604 Z" fill-rule="evenodd" clip-rule="evenodd" fill="white" stroke="none"/>
  <path d="M293.7966 27.7941 L294.221 28.5428 L296.7671 29.6658 L297.6159 29.6658 L297.6159 29.2914 L296.7671 28.5428 L296.3428 28.5428 L295.9184 27.7941 L293.7966 27.7941 Z" fill-rule="evenodd" clip-rule="evenodd" fill="white" stroke="none"/>
  <path d="M575.1499 30.0401 L575.5743 31.1631 L575.9986 31.1631 L576.8474 31.9117 L576.8474 32.6604 L577.6961 33.0347 L584.0615 33.0347 L584.4859 32.6604 L584.4859 32.2861 L584.0615 32.2861 L582.3641 31.1631 L578.9692 31.1631 L578.5448 30.7888 L578.9692 30.0401 L579.8179 30.0401 L580.6666 29.6658 L580.6666 28.5428 L580.2423 28.1685 L578.1204 28.1685 L576.423 29.2914 L575.9986 29.2914 L575.1499 30.0401 Z" fill-rule="evenodd" clip-rule="evenodd" fill="white" stroke="none"/>
  <path d="M298.889 28.5428 L298.889 28.9171 L299.7377 29.2914 L300.5864 30.7888 L301.4352 31.1631 L301.8595 31.9117 L301.8595 33.0347 L309.9224 33.0347 L309.9224 32.6604 L307.3762 31.5374 L306.5275 31.5374 L305.6788 30.7888 L304.8301 30.4144 L303.9814 30.4144 L302.2839 29.2914 L301.4352 29.2914 L300.1621 28.5428 L298.889 28.5428 Z" fill-rule="evenodd" clip-rule="evenodd" fill="white" stroke="none"/>
  <path d="M290.8261 32.2861 L290.4017 32.2861 L289.9773 31.5374 L289.1286 31.5374 L288.2799 30.7888 L288.2799 29.6658 L287.8555 28.9171 L286.1581 28.9171 L283.1875 30.4144 L282.3388 30.4144 L277.2464 32.6604 L276.822 33.4091 L277.6708 33.0347 L283.6119 33.0347 L284.0362 32.6604 L286.5824 32.6604 L287.0068 33.0347 L290.8261 33.0347 L290.8261 32.2861 Z" fill-rule="evenodd" clip-rule="evenodd" fill="white" stroke="none"/>
  <path d="M585.3346 31.5374 L586.1833 33.0347 L600.1873 33.0347 L600.1873 32.6604 L596.7924 31.1631 L595.9437 31.1631 L595.095 30.4144 L594.2463 30.4144 L592.9732 29.6658 L590.4269 29.6658 L590.0026 30.0401 L588.7296 29.6658 L589.1539 30.4144 L588.7296 31.1631 L585.759 31.1631 L585.3346 31.5374 Z" fill-rule="evenodd" clip-rule="evenodd" fill="white" stroke="none"/>
  <path d="M570.9062 31.5374 L570.9062 33.0347 L575.1499 33.0347 L573.8768 30.7888 L571.755 30.7888 L570.9062 31.5374 Z" fill-rule="evenodd" clip-rule="evenodd" fill="white" stroke="none"/>
  <path d="M292.0992 31.5374 L292.0992 31.9117 L293.7966 33.0347 L300.1621 33.0347 L300.5864 32.6604 L300.5864 32.2861 L300.1621 32.2861 L298.4646 31.1631 L292.5235 31.1631 L292.0992 31.5374 Z" fill-rule="evenodd" clip-rule="evenodd" fill="white" stroke="none"/>
</svg>
