<?xml version="1.0" encoding="UTF-8"?>
<svg width="950" height="35" viewBox="0 0 950 35" fill="none" xmlns="http://www.w3.org/2000/svg">
  <path d="M311.4693 16.3901 L314.4291 17.13 L326.2685 6.7706 L337.3678 17.13 L341.0677 18.61 L352.167 7.5106 L355.1268 6.7706 L364.7463 16.3901 L369.1861 18.61 L383.2452 6.7706 L397.3044 18.61 L412.1036 6.7706 L425.4228 18.61 L440.222 6.7706 L450.5814 17.13 L454.2811 18.61 L468.3404 6.7706 L482.3996 18.61 L497.1987 6.7706 L510.518 18.61 L525.3171 6.7706 L535.6765 17.13 L539.3763 18.61 L553.4355 6.7706 L567.4947 18.61 L581.5539 6.7706 L591.9133 17.13 L595.6131 18.61 L602.2727 12.6903 L603.0126 8.2506 L606.7125 8.9905 L608.9323 5.2907 L620.0317 17.13 L623.7314 18.61 L638.5307 4.5507 L638.5307 2.3309 L635.5708 1.5909 L622.2516 12.6903 L611.1522 2.3309 L607.4524 1.5909 L605.2325 3.8108 L606.7125 6.0307 L600.7928 7.5106 L594.8731 13.4303 L580.8139 1.5909 L567.4947 12.6903 L551.9555 1.5909 L539.3763 13.4303 L524.5771 1.5909 L510.518 13.4303 L496.4587 1.5909 L492.7589 3.0708 L482.3996 13.4303 L467.6004 1.5909 L453.5412 13.4303 L439.482 1.5909 L425.4228 13.4303 L411.3636 1.5909 L406.9239 3.8108 L397.3044 13.4303 L383.2452 2.3309 L367.7061 13.4303 L352.9069 1.5909 L340.3277 13.4303 L327.7484 2.3309 L324.7886 1.5909 L311.4693 14.1702 L311.4693 16.3901 Z" fill-rule="evenodd" clip-rule="evenodd" fill="white" stroke="none"/>
  <path d="M379.5455 11.9503 L379.5455 13.4303 L380.2853 14.1702 L383.9852 14.1702 L383.9852 11.2104 L382.5052 10.4704 L381.0253 10.4704 L379.5455 11.9503 Z" fill-rule="evenodd" clip-rule="evenodd" fill="white" stroke="none"/>
  <path d="M464.6405 11.9503 L464.6405 12.6903 L466.1205 14.1702 L469.0803 14.1702 L469.8203 13.4303 L469.8203 11.9503 L467.6004 10.4704 L464.6405 11.9503 Z" fill-rule="evenodd" clip-rule="evenodd" fill="white" stroke="none"/>
  <path d="M549.7357 11.9503 L549.7357 12.6903 L551.2157 14.1702 L554.1754 14.1702 L554.9154 13.4303 L554.9154 11.9503 L552.6955 10.4704 L551.2157 10.4704 L549.7357 11.9503 Z" fill-rule="evenodd" clip-rule="evenodd" fill="white" stroke="none"/>
  <path d="M323.3087 11.9503 L323.3087 13.4303 L325.5285 14.9101 L327.0084 14.1702 L328.4884 14.1702 L328.4884 11.9503 L327.7484 11.2104 L324.0486 11.2104 L323.3087 11.9503 Z" fill-rule="evenodd" clip-rule="evenodd" fill="white" stroke="none"/>
  <path d="M409.1437 11.2104 L409.1437 14.1702 L410.6237 14.9101 L412.1036 14.9101 L413.5834 14.1702 L413.5834 11.9503 L412.8436 11.2104 L409.1437 11.2104 Z" fill-rule="evenodd" clip-rule="evenodd" fill="white" stroke="none"/>
  <path d="M437.2621 12.6903 L437.2621 13.4303 L438.7421 14.9101 L441.7019 14.9101 L442.4418 14.1702 L442.4418 12.6903 L440.962 11.2104 L438.7421 11.2104 L437.2621 12.6903 Z" fill-rule="evenodd" clip-rule="evenodd" fill="white" stroke="none"/>
  <path d="M494.2389 11.9503 L494.2389 13.4303 L495.7188 14.9101 L497.1987 14.9101 L498.6786 14.1702 L498.6786 11.9503 L497.9386 11.2104 L494.9788 11.2104 L494.2389 11.9503 Z" fill-rule="evenodd" clip-rule="evenodd" fill="white" stroke="none"/>
  <path d="M522.3573 12.6903 L522.3573 13.4303 L524.5771 14.9101 L526.797 14.9101 L527.537 14.1702 L527.537 11.9503 L526.057 11.2104 L523.8372 11.2104 L522.3573 12.6903 Z" fill-rule="evenodd" clip-rule="evenodd" fill="white" stroke="none"/>
  <path d="M578.5941 11.2104 L577.8541 11.9503 L577.8541 13.4303 L579.3341 14.9101 L581.5539 14.9101 L582.2939 14.1702 L582.2939 11.9503 L581.5539 11.2104 L578.5941 11.2104 Z" fill-rule="evenodd" clip-rule="evenodd" fill="white" stroke="none"/>
  <path d="M605.9725 12.6903 L605.9725 13.4303 L607.4524 14.9101 L610.4122 14.9101 L611.8922 13.4303 L611.8922 12.6903 L610.4122 11.2104 L607.4524 11.2104 L605.9725 12.6903 Z" fill-rule="evenodd" clip-rule="evenodd" fill="white" stroke="none"/>
  <path d="M352.167 12.6903 L352.9069 14.1702 L355.8668 14.1702 L356.6068 13.4303 L355.8668 11.9503 L352.9069 11.9503 L352.167 12.6903 Z" fill-rule="evenodd" clip-rule="evenodd" fill="white" stroke="none"/>
  <path d="M311.4693 31.9292 L314.4291 32.6692 L320.3488 26.0095 L327.0084 22.3097 L335.148 30.4493 L341.0677 32.6692 L346.9873 28.9693 L350.6871 23.7896 L355.8668 22.3097 L364.0063 31.1892 L369.9259 33.4091 L383.2452 22.3097 L394.3446 32.6692 L398.0444 33.4091 L412.1036 22.3097 L422.463 32.6692 L426.9027 33.4091 L440.222 22.3097 L449.1014 31.1892 L455.0211 33.4091 L468.3404 22.3097 L479.4398 32.6692 L483.1395 33.4091 L497.1987 22.3097 L507.5581 32.6692 L511.9979 33.4091 L525.3171 22.3097 L534.9366 31.9292 L540.1163 33.4091 L553.4355 22.3097 L564.5348 32.6692 L568.2347 33.4091 L581.5539 22.3097 L591.1733 31.9292 L596.353 33.4091 L609.6723 22.3097 L620.7716 32.6692 L624.4714 33.4091 L637.7907 20.8298 L638.5307 17.87 L635.5708 17.13 L622.2516 28.2294 L614.852 20.8298 L607.4524 17.13 L594.8731 28.9693 L580.8139 17.13 L576.3742 19.3499 L567.4947 28.2294 L554.9154 17.87 L551.2157 17.13 L538.6363 28.9693 L527.537 18.61 L523.0973 17.13 L510.518 28.9693 L500.8985 20.0899 L494.9788 17.13 L482.3996 28.9693 L469.8203 17.87 L466.1205 17.13 L453.5412 28.9693 L442.4418 18.61 L438.0021 17.13 L425.4228 28.9693 L412.8436 17.87 L409.1437 17.13 L396.5645 28.9693 L384.7252 17.87 L381.0253 17.13 L368.4461 28.9693 L354.3868 17.13 L340.3277 28.9693 L324.7886 17.13 L311.4693 29.7093 L311.4693 31.9292 Z" fill-rule="evenodd" clip-rule="evenodd" fill="white" stroke="none"/>
  <path d="M337.3678 20.8298 L337.3678 22.3097 L338.8478 23.7896 L341.0677 23.7896 L342.5475 22.3097 L342.5475 21.5698 L341.0677 20.0899 L338.8478 20.0899 L337.3678 20.8298 Z" fill-rule="evenodd" clip-rule="evenodd" fill="white" stroke="none"/>
  <path d="M366.2262 20.0899 L365.4862 20.8298 L365.4862 23.0497 L366.9662 23.7896 L369.1861 23.7896 L369.9259 23.0497 L369.9259 20.8298 L369.1861 20.0899 L366.2262 20.0899 Z" fill-rule="evenodd" clip-rule="evenodd" fill="white" stroke="none"/>
  <path d="M393.6046 21.5698 L393.6046 22.3097 L395.0846 23.7896 L398.0444 23.7896 L398.7843 23.0497 L398.7843 21.5698 L397.3044 20.0899 L395.0846 20.0899 L393.6046 21.5698 Z" fill-rule="evenodd" clip-rule="evenodd" fill="white" stroke="none"/>
  <path d="M422.463 21.5698 L422.463 22.3097 L423.9429 23.7896 L426.9027 23.7896 L427.6427 23.0497 L427.6427 21.5698 L426.1627 20.0899 L423.9429 20.0899 L422.463 21.5698 Z" fill-rule="evenodd" clip-rule="evenodd" fill="white" stroke="none"/>
  <path d="M450.5814 20.8298 L450.5814 22.3097 L452.0613 23.7896 L454.2811 23.7896 L455.7611 22.3097 L455.7611 21.5698 L454.2811 20.0899 L452.0613 20.0899 L450.5814 20.8298 Z" fill-rule="evenodd" clip-rule="evenodd" fill="white" stroke="none"/>
  <path d="M480.1796 20.0899 L479.4398 20.8298 L479.4398 23.0497 L480.9196 23.7896 L483.1395 23.7896 L483.8795 23.0497 L483.8795 20.8298 L482.3996 20.0899 L480.1796 20.0899 Z" fill-rule="evenodd" clip-rule="evenodd" fill="white" stroke="none"/>
  <path d="M507.5581 21.5698 L507.5581 22.3097 L509.038 23.7896 L511.9979 23.7896 L512.7379 23.0497 L512.7379 20.8298 L511.2579 20.0899 L509.038 20.0899 L507.5581 21.5698 Z" fill-rule="evenodd" clip-rule="evenodd" fill="white" stroke="none"/>
  <path d="M535.6765 20.8298 L535.6765 22.3097 L537.1564 23.7896 L540.1163 23.7896 L540.8562 23.0497 L540.8562 21.5698 L539.3763 20.0899 L537.1564 20.0899 L535.6765 20.8298 Z" fill-rule="evenodd" clip-rule="evenodd" fill="white" stroke="none"/>
  <path d="M592.6532 20.0899 L591.9133 20.8298 L591.9133 23.0497 L593.3932 23.7896 L595.6131 23.7896 L596.353 23.0497 L596.353 20.8298 L595.6131 20.0899 L592.6532 20.0899 Z" fill-rule="evenodd" clip-rule="evenodd" fill="white" stroke="none"/>
  <path d="M619.2917 22.3097 L620.7716 23.7896 L623.7314 23.7896 L624.4714 23.0497 L624.4714 20.8298 L623.7314 20.0899 L620.0317 20.0899 L619.2917 22.3097 Z" fill-rule="evenodd" clip-rule="evenodd" fill="white" stroke="none"/>
  <path d="M564.5348 22.3097 L564.5348 24.5296 L565.2748 25.2696 L568.2347 25.2696 L568.9746 24.5296 L568.9746 23.0497 L567.4947 21.5698 L566.0148 21.5698 L564.5348 22.3097 Z" fill-rule="evenodd" clip-rule="evenodd" fill="white" stroke="none"/>
</svg>
