<?xml version="1.0" encoding="UTF-8"?>
<svg width="950" height="35" viewBox="0 0 950 35" fill="none" xmlns="http://www.w3.org/2000/svg">
  <path d="M312 17.5 L331.0771 9.5512 L321.9229 13.3654 L312 17.5 L302.0771 21.6346 L292.9229 25.4488 L352 17.5 L292.9229 9.5512 L302.0771 13.3654 L312 17.5 L321.9229 21.6346 L331.0771 25.4488 Z" fill-rule="evenodd" clip-rule="evenodd" fill="white" stroke="none"/>
  <path d="M348 17.5 L347.8021 18.495 L347.2385 19.3385 L346.395 19.9021 L345.4 20.1 L344.405 19.9021 L343.5615 19.3385 L342.9979 18.495 L342.8 17.5 L342.9979 16.505 L343.5615 15.6615 L344.405 15.0979 L345.4 14.9 L346.395 15.0979 L347.2385 15.6615 L347.8021 16.505 Z" fill-rule="evenodd" clip-rule="evenodd" fill="white" stroke="none"/>
  <path d="M638 17.5 L618.9229 9.5512 L628.0771 13.3654 L638 17.5 L647.9229 21.6346 L657.0771 25.4488 L598 17.5 L657.0771 9.5512 L647.9229 13.3654 L638 17.5 L628.0771 21.6346 L618.9229 25.4488 Z" fill-rule="evenodd" clip-rule="evenodd" fill="white" stroke="none"/>
  <path d="M602 17.5 L602.1979 18.495 L602.7615 19.3385 L603.605 19.9021 L604.6 20.1 L605.595 19.9021 L606.4385 19.3385 L607.0021 18.495 L607.2 17.5 L607.0021 16.505 L606.4385 15.6615 L605.595 15.0979 L604.6 14.9 L603.605 15.0979 L602.7615 15.6615 L602.1979 16.505 Z" fill-rule="evenodd" clip-rule="evenodd" fill="white" stroke="none"/>
  <path d="M9.5 17.5 L352 17.5" fill="none" stroke="white" stroke-width="1.2" stroke-linecap="round" stroke-linejoin="round"/>
  <path d="M598 17.5 L940.5 17.5" fill="none" stroke="white" stroke-width="1.2" stroke-linecap="round" stroke-linejoin="round"/>
</svg>
