<?xml version="1.0" encoding="UTF-8"?>
<svg xmlns="http://www.w3.org/2000/svg" viewBox="0 0 398.0314 38.2944" width="398.0314" height="38.2944">
  <path d="M7.6544 18.845 L122.4712 19.0263" fill="none" stroke="#000000" stroke-width="0.35" stroke-linecap="round" stroke-linejoin="round"/>
  <path d="M275.5602 19.268 L390.3769 19.4494" fill="none" stroke="#000000" stroke-width="0.35" stroke-linecap="round" stroke-linejoin="round"/>
  <path d="M172.1621 6.3556 L186.2582 19.127 L172.2881 31.8542 L158.192 19.0827 L172.1621 6.3556 Z" fill="#000000" fill-rule="evenodd" stroke="none"/>
  <path d="M225.7433 6.4402 L239.8394 19.2116 L225.8693 31.9388 L211.7731 19.1673 L225.7433 6.4402 Z" fill="#000000" fill-rule="evenodd" stroke="none"/>
  <path d="M172.2251 19.1049 C185.5344 1.7407 212.325 1.7829 225.8062 19.1895 C212.4969 36.5538 185.7063 36.5115 172.2251 19.1049 Z" fill="#000000" fill-rule="evenodd" stroke="none"/>
  <path d="M151.1753 19.0716 C151.1674 17.4713 149.7331 16.1718 147.9717 16.169 C146.2102 16.1662 144.7887 17.4613 144.7966 19.0616 C144.8046 20.6619 146.2389 21.9614 148.0003 21.9642 C149.7618 21.9669 151.1833 20.6719 151.1753 19.0716 Z" fill="#000000" fill-rule="evenodd" stroke="none"/>
  <path d="M253.2347 19.2328 C253.2268 17.6325 251.7925 16.333 250.031 16.3302 C248.2696 16.3274 246.8481 17.6225 246.856 19.2227 C246.8639 20.823 248.2982 22.1225 250.0597 22.1254 C251.8211 22.1281 253.2426 20.8331 253.2347 19.2328 Z" fill="#000000" fill-rule="evenodd" stroke="none"/>
</svg>
