<?xml version="1.0" encoding="UTF-8"?>
<svg width="950" height="35" viewBox="0 0 950 35" fill="none" xmlns="http://www.w3.org/2000/svg">
  <path d="M302 17.5 L308 6.5 L316 9.5 L322 4.5 L330 12.5 L338 6.5 L346 15.5 L352 17.5 L346 19.5 L338 28.5 L330 22.5 L322 30.5 L316 25.5 L308 28.5 Z" fill-rule="evenodd" clip-rule="evenodd" fill="#B22222" stroke="none"/>
  <path d="M648 17.5 L642 6.5 L634 9.5 L628 4.5 L620 12.5 L612 6.5 L604 15.5 L598 17.5 L604 19.5 L612 28.5 L620 22.5 L628 30.5 L634 25.5 L642 28.5 Z" fill-rule="evenodd" clip-rule="evenodd" fill="#B22222" stroke="none"/>
  <path d="M9.5 17.5 L352 17.5" fill="none" stroke="#B22222" stroke-width="1.2" stroke-linecap="round" stroke-linejoin="round"/>
  <path d="M598 17.5 L940.5 17.5" fill="none" stroke="#B22222" stroke-width="1.2" stroke-linecap="round" stroke-linejoin="round"/>
</svg>
