<?xml version="1.0" encoding="UTF-8"?>
<svg width="950" height="35" viewBox="0 0 950 35" fill="none" xmlns="http://www.w3.org/2000/svg">
  <path d="M344.7481 2.1239 C352.8823 3.4678 357.7158 6.0873 354.3645 7.3354 C352.6638 7.9687 349.9093 7.4321 348.0401 6.1035 C344.9543 3.9101 343.0097 3.4416 337.7427 3.6231 C334.9665 3.7187 331.5308 4.1087 329.0628 4.6085 C323.4399 5.747 318.7164 5.7242 313.4536 4.5331 C311.2604 4.0367 309.4659 3.7416 309.4659 3.8774 C309.4659 4.2982 315.4468 6.3481 318.1575 6.8563 C321.6761 7.5159 325.0184 7.4618 329.8075 6.6677 C337.0171 5.4722 339.8634 5.5769 339.8634 7.0378 C339.8634 8.0337 337.8573 8.6069 334.3343 8.6177 C331.2237 8.6272 331.1111 8.6565 332.4408 9.1104 C333.5536 9.4902 335.5158 9.5725 341.6568 9.4968 C350.9362 9.3824 351.7989 9.5572 356.1519 12.4334 C357.7536 13.4917 360.0722 14.6334 361.3046 14.9706 C362.5369 15.3078 363.1682 15.5842 362.7076 15.5848 C360.7446 15.5876 357.9804 14.8666 354.7411 13.5071 C351.4792 12.138 345.596 10.8162 342.8602 10.8376 C341.7979 10.846 341.823 10.895 343.0445 11.1982 C347.3833 12.2749 348.847 13.6877 346.2661 14.3075 C344.3343 14.7714 341.5943 14.1464 339.7778 12.8277 C338.0037 11.5396 335.1455 10.828 331.7462 10.828 C328.9002 10.828 324.6947 10.1258 322.6498 9.3092 C321.3191 8.7777 321.3138 8.7869 322.4006 9.7409 C323.8199 10.9867 325.228 11.5042 328.8315 12.1045 C330.8727 12.4446 331.8009 12.7975 331.9598 13.294 C332.1548 13.9034 331.862 14 329.8191 14 C326.7772 14 323.9199 13.0665 319.4212 10.603 C317.443 9.5197 314.3142 8.235 312.4684 7.7482 C307.5679 6.4556 301.2778 6.5229 293.6048 7.95 C287.9145 9.0083 283.4024 9.1613 279.422 8.431 C276.6501 7.9225 279.9211 9.3001 282.9565 9.9197 C286.4825 10.6394 290.5996 10.6623 295.971 9.9922 C298.2571 9.707 300.9471 9.566 301.9487 9.6788 C305.6651 10.0973 306.1706 12.2914 302.7135 12.9982 C301.183 13.3111 300.3372 13.2671 297.6582 12.7354 C295.8887 12.3842 294.2964 12.0968 294.1197 12.0968 C293.943 12.0968 294.4606 12.5775 295.27 13.1651 C298.2797 15.3503 296.1024 15.5832 290.4572 13.6799 C283.7225 11.4092 279.5983 11.4897 269.4094 14.0906 C259.0264 16.7409 253.4359 17.1149 246.5417 15.6203 C243.0614 14.8658 242.8927 15.2267 246.197 16.3576 C252.6442 18.5641 259.3897 18.6688 270.382 16.7329 C273.9638 16.1021 277.949 15.586 279.238 15.586 C282.6973 15.586 284.7238 16.3516 284.7238 17.6584 C284.7238 19.1965 282.3179 19.8647 277.8176 19.5765 C269.0587 19.0156 267.149 19.0096 263.6448 19.5318 C259.6084 20.1334 256.7408 21.2154 260.3884 20.7604 C264.1576 20.2904 270.0564 20.5122 273.7666 21.2637 C278.2304 22.1677 283.725 22.4443 287.1483 21.9373 C288.5938 21.7233 292.2945 20.6968 295.3722 19.6561 C307.1016 15.6903 311.946 14.7975 316.7989 15.7073 C319.2732 16.1712 319.3628 16.1647 319.3628 15.5207 C319.3628 15.1503 318.0515 14.2936 316.4153 13.5952 C313.9924 12.561 313.7722 12.3793 315.1782 12.5743 C322.5857 13.6017 326.8732 16.648 322.7401 17.947 C320.7367 18.5766 318.3503 18.5717 314.1486 17.9293 C312.3086 17.648 310.6619 17.4812 310.4892 17.5587 C310.3165 17.6362 311.6857 18.1875 313.5319 18.7839 C316.3808 19.7041 317.4768 19.8682 320.7766 19.8682 C324.1653 19.8682 325.3638 19.6768 330.1077 18.378 C336.0401 16.7538 340.4745 16.0684 342.9026 16.4001 C346.9384 16.9514 348.134 18.5361 345.4297 19.7496 L343.9268 20.4239 L342.1973 19.4324 C340.777 18.618 339.9653 18.4408 337.6563 18.4408 C334.6182 18.4408 331.5236 19.0241 329.9151 19.8999 C328.839 20.4858 328.7951 20.4863 333.8546 19.8554 C334.6322 19.7585 335.9047 19.8918 336.6823 20.1516 C339.14 20.9728 337.2701 21.7392 332.2764 21.9575 C327.227 22.1781 323.8038 22.9934 321.9516 24.4165 L320.6022 25.4531 L323.2348 24.6516 C326.7139 23.5921 330.1324 23.3389 334.94 23.7845 C337.1115 23.9857 340.8328 24.1504 343.2096 24.1504 C348.0832 24.1504 350.0719 23.6113 353.5822 21.3384 C355.3727 20.1791 359.0177 19.0752 361.0553 19.0752 C361.5124 19.0752 360.9196 19.4402 359.738 19.8863 C358.5563 20.3325 356.4379 21.5482 355.0303 22.588 C351.5167 25.1832 349.7042 25.5574 341.8568 25.3075 C337.8122 25.1786 334.9837 25.2372 333.6996 25.4762 L331.7339 25.8422 L334.6771 26.0448 C339.2569 26.3602 341.2734 27.5144 339.0151 28.5277 C337.7462 29.0971 335.5912 28.9941 330.3881 28.1154 C327.8056 27.6792 324.4901 27.3224 323.0201 27.3224 C319.6085 27.3224 313.9969 28.574 310.8527 30.0362 L308.4056 31.1743 L312.1869 30.2972 C318.0023 28.9483 322.712 28.915 329.66 30.1738 C338.961 31.8589 344.3538 31.4638 347.6176 28.8581 C349.3548 27.4711 351.3215 26.8827 353.2854 27.1624 C358.5038 27.9056 352.7799 31.5507 344.9119 32.495 C342.2673 32.8124 342.0645 32.8911 343.4954 33.0449 C346.0672 33.3212 351.8291 32.8121 355.3872 31.994 C357.5558 31.4954 359.4992 30.6695 361.3794 29.4475 C363.721 27.9254 364.2106 27.3247 364.4686 25.6567 L364.7752 23.6746 L363.2253 24.5469 C361.3777 25.5867 359.99 25.6566 358.9248 24.7635 C358.315 24.2522 358.3955 23.9348 359.2904 23.3219 C361.6352 21.7162 366.2583 21.6877 369.2083 23.2608 C372.2225 24.8681 371.1996 27.0121 366.588 28.7533 L364.2781 29.6255 L366.7393 29.3861 C372.887 28.7883 379.0374 26.8683 382.3795 24.5036 C384.946 22.6877 384.9193 22.4274 382.2307 23.0513 C379.6297 23.6548 377.4035 23.5596 376.3419 22.7995 C375.2548 22.0212 376.994 20.7354 380.1577 19.9783 C382.5421 19.4077 386.0118 19.3892 475.7167 19.4686 L568.8013 19.551 L570.7972 20.2159 C576.7661 22.2048 573.9526 24.6045 567.6677 22.8851 C564.9802 22.1498 564.9283 22.201 566.7432 23.7972 C568.7749 25.5842 575.3251 28.1194 579.891 28.886 C585.3519 29.8028 585.829 29.7165 582.8557 28.3502 C577.8006 26.0273 577.9779 23.5808 583.2832 22.4512 C585.5438 21.9698 586.0807 21.9608 588.2504 22.3676 C590.833 22.8518 591.91 23.7426 591.1727 24.7848 C590.536 25.685 588.3608 25.5703 586.6592 24.5469 L585.2087 23.6746 L585.1864 24.6479 C585.1216 27.4616 589.6359 30.8385 595.149 32.1005 C598.5924 32.8888 604.4734 33.4091 606.3738 33.0937 C607.5667 32.8957 607.276 32.7858 604.6308 32.4353 C600.2787 31.8587 595.0608 29.7693 595.0608 28.603 C595.0608 26.5139 599.6531 26.5467 602.2539 28.6543 C605.653 31.4089 611.4675 31.9092 620.2944 30.2066 C626.7755 28.9565 631.3266 28.9071 636.695 30.0284 C638.7928 30.4666 640.6463 30.7636 640.8138 30.6883 C641.2754 30.4812 633.8687 28.0488 631.5979 27.6616 C628.5801 27.1471 625.1435 27.2515 620.6689 27.9935 C613.3555 29.2062 610.613 29.087 610.613 27.5564 C610.613 26.6487 612.6274 26.0772 615.915 26.0524 C618.7281 26.0312 618.7335 26.0287 616.9753 25.5751 C615.6072 25.222 613.6087 25.1624 608.1274 25.311 C601.1901 25.4991 601.001 25.4858 598.7915 24.6515 C597.551 24.1832 595.5538 23.0297 594.3535 22.0883 C593.1531 21.1468 591.3101 20.0883 590.258 19.7359 C589.0437 19.3292 588.7324 19.092 589.4054 19.0864 C591.3678 19.07 594.9032 20.2855 597.1442 21.747 C598.3679 22.545 600.2926 23.4122 601.4213 23.6741 C603.8687 24.242 610.076 24.2905 615.5364 23.7845 C620.4292 23.331 624.0637 23.6145 626.8514 24.667 C629.4789 25.659 629.6519 25.1848 627.1494 23.8503 C624.619 22.501 623.2162 22.2209 617.7824 21.9797 C613.6253 21.7953 613.0615 21.6899 612.8623 21.0607 C612.5104 19.9491 615.3156 19.5224 618.7472 20.1658 L621.4642 20.6752 L620.105 20.0013 C615.8911 17.9119 608.5609 17.9481 606.9166 20.0664 C606.6489 20.4113 606.2645 20.3777 605.0791 19.9057 C600.651 18.1424 604.2134 15.8938 610.6604 16.3826 C612.0824 16.4904 615.914 17.2832 619.1753 18.1445 C628.061 20.4912 631.1039 20.5594 637.2334 18.5495 C639.8118 17.704 640.2208 17.4711 638.8898 17.6062 C637.9178 17.705 635.4829 17.9585 633.479 18.1696 C630.3016 18.5045 629.6006 18.4845 628.0004 18.0141 C623.5169 16.6959 627.9325 13.2799 635.0448 12.5643 L637.1225 12.3553 L634.8593 13.005 C632.7381 13.614 630.4068 15.1275 630.4068 15.8956 C630.4068 16.1017 631.288 16.0322 632.6342 15.7198 C637.0158 14.7031 642.7791 15.678 653.4087 19.2339 C656.893 20.3996 660.8166 21.5544 662.1277 21.8002 C665.6957 22.4692 670.2086 22.343 675.1333 21.4365 C680.5607 20.4375 685.0571 20.166 688.699 20.6172 C692.7632 21.1207 692.5309 20.8445 688.0659 19.8642 C683.9361 18.9576 682.6495 18.9347 671.6667 19.5725 C668.5437 19.7538 667.8288 19.6896 666.5417 19.112 C663.4389 17.7197 665.6703 15.586 670.2289 15.586 C671.5244 15.586 676.1513 16.1569 680.5112 16.8548 C692.1991 18.7256 698.2559 18.5653 704.0252 16.2323 L707.1073 14.986 L702.5495 15.7997 C695.6747 17.027 692.3322 16.7744 681.1404 14.1819 C669.268 11.4316 665.6861 11.3796 658.9406 13.8598 C657.3075 14.4603 655.4682 14.9516 654.8531 14.9516 C653.2394 14.9516 653.4381 13.5845 655.1532 12.888 C657.2142 12.0511 656.509 12.0028 652.8455 12.73 C649.1824 13.457 646.6171 13.2413 645.2448 12.0907 C644.6148 11.5625 644.6828 11.2568 645.5642 10.6531 C647.1144 9.5915 649.2656 9.4331 654.255 10.0133 C661.8928 10.9013 667.3356 10.4531 671.0015 8.6344 L672.3623 7.9592 L669.7871 8.442 C665.8382 9.1823 662.2443 9.0273 655.2465 7.8146 C648.1056 6.5772 645.7778 6.4801 640.4052 7.196 C637.5295 7.5792 635.9026 8.0797 633.0309 9.4648 C625.5616 13.0672 623.4815 13.9137 621.7296 14.064 C619.5921 14.2473 617.6823 13.8323 617.6823 13.1844 C617.6823 12.7321 618.1634 12.6083 623.2445 11.7545 C624.554 11.5344 626.223 10.9147 626.953 10.3775 C628.8551 8.978 628.5998 8.7499 626.1619 9.6704 C624.8554 10.1637 622.7465 10.5487 620.6833 10.6706 C614.0169 11.0645 613.4635 11.1778 610.496 12.757 C608.0974 14.0334 607.148 14.3172 605.2761 14.3172 C601.1851 14.3172 601.34 12.9081 605.577 11.5789 L608.1388 10.7751 L605.6646 10.9963 C601.5014 11.3685 599.1035 11.9425 595.33 13.4704 C591.9933 14.8215 589.0316 15.586 587.1341 15.586 C586.7132 15.586 587.4288 15.2648 588.7245 14.8723 C590.0202 14.4798 592.5516 13.2308 594.3496 12.0968 C598.0947 9.735 600.5799 9.1567 605.7873 9.4353 C611.3778 9.7344 615.3319 9.6334 617.4362 9.1379 L619.4495 8.6638 L615.9782 8.6867 C613.1704 8.7052 612.2547 8.5699 611.1876 7.9786 C610.0309 7.3376 609.9896 7.1654 610.8521 6.5795 C612.2293 5.6438 614.414 5.5897 618.5528 6.3885 C620.5124 6.7668 623.7949 7.1541 625.8469 7.2491 C630.4492 7.4623 634.4297 6.6909 638.5577 4.7859 L641.364 3.4909 L636.769 4.463 C630.8025 5.7253 627.2029 5.7298 620.2688 4.484 C611.3893 2.8886 606.175 3.2713 602.3596 5.7984 C601.2614 6.5259 599.806 7.2764 599.1256 7.4662 C597.3587 7.9592 595.4559 7.3373 595.241 6.1966 C594.9716 4.767 597.6804 3.588 604.0125 2.3788 L608.1388 1.5909 L603.5231 1.7265 C598.7313 1.8673 594.008 2.7065 590.926 3.9647 C588.5325 4.9418 585.9093 7.4207 585.4232 9.1647 L585.0038 10.6694 L586.8797 9.7971 C589.0807 8.7737 588.9892 8.7834 590.4153 9.4232 C591.9741 10.1227 591.8018 10.7332 589.791 11.6354 C586.439 13.1395 581.0614 12.4634 579.5009 10.3417 C578.4535 8.9178 579.407 7.5847 582.4954 6.1549 C585.204 4.9009 584.1317 4.8234 578.9761 5.9004 C572.4503 7.2636 567.2738 9.5629 565.7305 11.7837 C565.2066 12.5378 565.2411 12.5491 566.5147 12.0396 C567.2475 11.7464 568.727 11.3564 569.8025 11.1729 C571.428 10.8956 571.9915 10.9442 573.143 11.4609 C574.6219 12.1245 574.4447 12.7795 572.5087 13.8059 C569.6642 15.3138 572.6721 15.2689 474.7307 15.2676 L382.6319 15.2664 L380.1703 14.593 C377.1331 13.7623 375.968 13.0998 375.9388 12.1872 C375.9013 11.0171 378.3597 10.6764 381.6192 11.4 C383.1482 11.7395 384.3993 11.9581 384.3993 11.8858 C384.3993 11.8135 383.7899 11.2183 383.045 10.5632 C381.1618 8.9069 375.8355 6.7938 371.2503 5.8839 C366.3467 4.9108 364.1447 4.8659 366.9228 5.7958 C370.7591 7.0798 372.0206 9.3116 369.9336 11.1225 C368.7565 12.1438 367.5818 12.414 364.3175 12.414 C361.5433 12.414 358.9502 11.3094 358.9502 10.1278 C358.9502 8.9682 360.8184 8.7699 362.7826 9.7208 C364.9393 10.765 365.3548 10.7175 364.89 9.4799 C363.7106 6.3383 359.8173 3.7508 354.4035 2.5103 C352.5662 2.0893 349.7405 1.8075 346.5792 1.7301 L341.6307 1.6088 L344.7481 2.1239 Z" fill-rule="evenodd" clip-rule="evenodd" fill="white" stroke="none"/>
  <path d="M301.8597 19.7445 C298.9813 20.3838 295.4553 22.093 296.2651 22.4564 C296.4768 22.5514 297.3776 22.4004 298.2668 22.1209 C303.2505 20.5546 310.3141 22.8465 305.9565 24.616 C304.5147 25.2015 301.1363 25.1834 293.2068 24.5478 C288.8574 24.1992 284.5825 24.5296 281.5931 25.4455 C278.3559 26.4373 277.5573 27.2081 280.4662 26.5331 C283.7676 25.7671 288.9795 25.9367 294.9741 27.0052 C301.5558 28.1783 306.8653 28.2711 311.3737 27.2919 C313.9759 26.7266 318.6971 24.4849 323.6684 21.4542 C323.9969 21.2539 322.8363 21.1313 320.52 21.1215 C317.729 21.1098 315.9051 20.8632 312.8959 20.0906 C308.2653 18.9018 305.9767 18.8301 301.8597 19.7445 Z" fill-rule="evenodd" clip-rule="evenodd" fill="white" stroke="none"/>
  <path d="M636.8575 20.0828 C634.1065 20.8023 632.1079 21.0848 629.6159 21.1068 C627.7229 21.1234 626.1719 21.1881 626.1695 21.2506 C626.1609 21.4773 633.1555 25.2824 635.1133 26.116 C639.8592 28.1368 646.6362 28.4898 654.2933 27.1153 C662.0873 25.7162 663.8862 25.6487 669.9886 26.5262 C671.5952 26.7572 671.6617 26.7315 670.7428 26.2347 C669.3986 25.508 665.2735 24.5994 662.218 24.3572 C660.8572 24.2493 657.8352 24.3676 655.5024 24.6202 C649.3611 25.285 645.5489 25.2352 643.8382 24.4676 C643.0606 24.1186 642.4243 23.6191 642.4243 23.3574 C642.4243 22.5291 645.1182 21.6127 647.5495 21.614 C648.813 21.6146 650.8809 21.898 652.1444 22.2437 C653.4081 22.5894 654.4419 22.7808 654.4419 22.669 C654.4419 22.0984 650.4871 20.2607 648.0669 19.7066 C644.218 18.8256 641.2891 18.9239 636.8575 20.0828 Z" fill-rule="evenodd" clip-rule="evenodd" fill="white" stroke="none"/>
</svg>
