<?xml version="1.0" encoding="UTF-8"?>
<svg width="950" height="35" viewBox="0 0 950 35" fill="none" xmlns="http://www.w3.org/2000/svg">
  <path d="M370.3 12 L367.36 17.5 L371.56 24.1 L400.96 26.74 L403.9 17.5 L400.12 9.14 L373.24 14.2 Z" fill-rule="evenodd" clip-rule="evenodd" fill="#FFFFFF" stroke="#000000" stroke-width="1.4" stroke-linejoin="round" stroke-linecap="round"/>
  <path d="M374.5 17.5 A10.5 10.5 0 1 0 395.5 17.5 A10.5 10.5 0 1 0 374.5 17.5 Z" fill-rule="evenodd" clip-rule="evenodd" fill="#B8A0D0" stroke="none"/>
  <path d="M382.5 17.5 A2.5 2.5 0 1 0 387.5 17.5 A2.5 2.5 0 1 0 382.5 17.5 Z" fill-rule="evenodd" clip-rule="evenodd" fill="none" stroke="#000000" stroke-width="0.5" stroke-linejoin="round" stroke-linecap="round"/>
  <path d="M380 17.5 A5 5 0 1 0 390 17.5 A5 5 0 1 0 380 17.5 Z" fill-rule="evenodd" clip-rule="evenodd" fill="none" stroke="#000000" stroke-width="0.5" stroke-linejoin="round" stroke-linecap="round"/>
  <path d="M377.5 17.5 A7.5 7.5 0 1 0 392.5 17.5 A7.5 7.5 0 1 0 377.5 17.5 Z" fill-rule="evenodd" clip-rule="evenodd" fill="none" stroke="#000000" stroke-width="0.5" stroke-linejoin="round" stroke-linecap="round"/>
  <path d="M375.2 17.5 A9.8 9.8 0 1 0 394.8 17.5 A9.8 9.8 0 1 0 375.2 17.5 Z" fill-rule="evenodd" clip-rule="evenodd" fill="none" stroke="#000000" stroke-width="0.5" stroke-linejoin="round" stroke-linecap="round"/>
  <path d="M383.2 17.5 A1.8 1.8 0 1 0 386.8 17.5 A1.8 1.8 0 1 0 383.2 17.5 Z" fill-rule="evenodd" clip-rule="evenodd" fill="#000000" stroke="none"/>
  <path d="M389.125 17.5 C391.1315 19.566 390.81 16.5795 384.805 17.5 C393.21 16.5795 389.9315 19.566 389.125 17.5 Z" fill-rule="evenodd" clip-rule="evenodd" fill="#000000" stroke="none"/>
  <path d="M382.9375 21.0724 C380.145 21.7771 382.8922 22.9918 385.0975 17.3311 C381.6922 25.0703 380.745 20.7378 382.9375 21.0724 Z" fill-rule="evenodd" clip-rule="evenodd" fill="#000000" stroke="none"/>
  <path d="M382.9375 13.9276 C383.7234 11.157 381.2978 12.9287 385.0975 17.6689 C380.0978 10.8502 384.3234 12.1962 382.9375 13.9276 Z" fill-rule="evenodd" clip-rule="evenodd" fill="#000000" stroke="none"/>
  <path d="M385.2375 17.9114 C385.8139 15.8795 384.0351 17.1788 386.8215 20.6549 C383.1551 15.6546 386.2539 16.6416 385.2375 17.9114 Z" fill-rule="evenodd" clip-rule="evenodd" fill="#000000" stroke="none"/>
  <path d="M384.525 17.5 C385.9964 19.0151 385.7606 16.825 381.357 17.5 C387.5206 16.825 385.1164 19.0151 384.525 17.5 Z" fill-rule="evenodd" clip-rule="evenodd" fill="#000000" stroke="none"/>
  <path d="M385.2375 17.0886 C383.1897 17.6054 385.2043 18.4962 386.8215 14.3451 C384.3243 20.0205 383.6297 16.8433 385.2375 17.0886 Z" fill-rule="evenodd" clip-rule="evenodd" fill="#000000" stroke="none"/>
  <path d="M550.3 12 L547.36 17.5 L551.56 24.1 L580.96 26.74 L583.9 17.5 L580.12 9.14 L553.24 14.2 Z" fill-rule="evenodd" clip-rule="evenodd" fill="#FFFFFF" stroke="#000000" stroke-width="1.4" stroke-linejoin="round" stroke-linecap="round"/>
  <path d="M554.5 17.5 A10.5 10.5 0 1 0 575.5 17.5 A10.5 10.5 0 1 0 554.5 17.5 Z" fill-rule="evenodd" clip-rule="evenodd" fill="#B8A0D0" stroke="none"/>
  <path d="M562.5 17.5 A2.5 2.5 0 1 0 567.5 17.5 A2.5 2.5 0 1 0 562.5 17.5 Z" fill-rule="evenodd" clip-rule="evenodd" fill="none" stroke="#000000" stroke-width="0.5" stroke-linejoin="round" stroke-linecap="round"/>
  <path d="M560 17.5 A5 5 0 1 0 570 17.5 A5 5 0 1 0 560 17.5 Z" fill-rule="evenodd" clip-rule="evenodd" fill="none" stroke="#000000" stroke-width="0.5" stroke-linejoin="round" stroke-linecap="round"/>
  <path d="M557.5 17.5 A7.5 7.5 0 1 0 572.5 17.5 A7.5 7.5 0 1 0 557.5 17.5 Z" fill-rule="evenodd" clip-rule="evenodd" fill="none" stroke="#000000" stroke-width="0.5" stroke-linejoin="round" stroke-linecap="round"/>
  <path d="M555.2 17.5 A9.8 9.8 0 1 0 574.8 17.5 A9.8 9.8 0 1 0 555.2 17.5 Z" fill-rule="evenodd" clip-rule="evenodd" fill="none" stroke="#000000" stroke-width="0.5" stroke-linejoin="round" stroke-linecap="round"/>
  <path d="M563.2 17.5 A1.8 1.8 0 1 0 566.8 17.5 A1.8 1.8 0 1 0 563.2 17.5 Z" fill-rule="evenodd" clip-rule="evenodd" fill="#000000" stroke="none"/>
  <path d="M569.125 17.5 C571.1315 19.566 570.81 16.5795 564.805 17.5 C573.21 16.5795 569.9315 19.566 569.125 17.5 Z" fill-rule="evenodd" clip-rule="evenodd" fill="#000000" stroke="none"/>
  <path d="M562.9375 21.0724 C560.145 21.7771 562.8922 22.9918 565.0975 17.3311 C561.6922 25.0703 560.745 20.7378 562.9375 21.0724 Z" fill-rule="evenodd" clip-rule="evenodd" fill="#000000" stroke="none"/>
  <path d="M562.9375 13.9276 C563.7234 11.157 561.2978 12.9287 565.0975 17.6689 C560.0978 10.8502 564.3234 12.1962 562.9375 13.9276 Z" fill-rule="evenodd" clip-rule="evenodd" fill="#000000" stroke="none"/>
  <path d="M565.2375 17.9114 C565.8139 15.8795 564.0351 17.1788 566.8215 20.6549 C563.1551 15.6546 566.2539 16.6416 565.2375 17.9114 Z" fill-rule="evenodd" clip-rule="evenodd" fill="#000000" stroke="none"/>
  <path d="M564.525 17.5 C565.9964 19.0151 565.7606 16.825 561.357 17.5 C567.5206 16.825 565.1164 19.0151 564.525 17.5 Z" fill-rule="evenodd" clip-rule="evenodd" fill="#000000" stroke="none"/>
  <path d="M565.2375 17.0886 C563.1897 17.6054 565.2043 18.4962 566.8215 14.3451 C564.3243 20.0205 563.6297 16.8433 565.2375 17.0886 Z" fill-rule="evenodd" clip-rule="evenodd" fill="#000000" stroke="none"/>
</svg>
