<?xml version="1.0" encoding="UTF-8"?>
<svg xmlns="http://www.w3.org/2000/svg" viewBox="0 0 398.0314 22.8588" width="398.0314" height="22.8588">
  <path d="M7.6544 12.1994 L141.6073 12.4109" fill="none" stroke="#000000" stroke-width="0.35" stroke-linecap="round" stroke-linejoin="round"/>
  <path d="M256.424 12.5922 L390.3769 12.8037" fill="none" stroke="#000000" stroke-width="0.35" stroke-linecap="round" stroke-linejoin="round"/>
  <path d="M33.1349 5.2855 L364.8277 5.8092" fill="none" stroke="#000000" stroke-width="0.35" stroke-linecap="round" stroke-linejoin="round"/>
  <path d="M33.2036 19.1939 L364.8964 19.7176" fill="none" stroke="#000000" stroke-width="0.35" stroke-linecap="round" stroke-linejoin="round"/>
  <path d="M162.6517 3.1371 C179.5412 1.039 188.4536 13.6162 192.0044 21.7975 C182.3465 21.5816 166.3091 18.2975 162.6517 3.1371 Z" fill="#000000" fill-rule="evenodd" stroke="none"/>
  <path d="M235.2876 3.2518 C231.7801 18.4009 215.7749 21.6344 206.1189 21.8198 C209.5889 13.6496 218.377 1.1004 235.2876 3.2518 Z" fill="#000000" fill-rule="evenodd" stroke="none"/>
  <path d="M198.9727 3.8088 L208.5837 12.5166 L199.0586 21.1942 L189.4476 12.4864 L198.9727 3.8088 Z" fill="#000000" fill-rule="evenodd" stroke="none"/>
  <path d="M161.9791 4.33 L170.9493 12.4573 L162.0593 20.5563 L153.089 12.4291 L161.9791 4.33 Z" fill="#000000" fill-rule="evenodd" stroke="none"/>
  <path d="M235.9721 4.4468 L244.9424 12.574 L236.0523 20.6731 L227.082 12.5458 L235.9721 4.4468 Z" fill="#000000" fill-rule="evenodd" stroke="none"/>
</svg>
