<?xml version="1.0" encoding="UTF-8"?>
<svg width="950" height="35" viewBox="0 0 950 35" fill="none" xmlns="http://www.w3.org/2000/svg">
  <path d="M345.3291 1.5909 L344.0762 3.2655 L344.0762 4.9402 L344.7026 5.7775 L346.5819 5.7775 L347.2084 4.9402 L347.2084 3.2655 L345.9555 1.5909 L345.3291 1.5909 Z" fill-rule="evenodd" clip-rule="evenodd" fill="white" stroke="none"/>
  <path d="M369.7598 2.4282 L369.7598 4.9402 L370.3862 5.7775 L372.2655 5.7775 L372.892 4.9402 L372.892 3.2655 L371.6391 1.5909 L369.7598 2.4282 Z" fill-rule="evenodd" clip-rule="evenodd" fill="white" stroke="none"/>
  <path d="M421.1271 1.5909 L420.5006 2.4282 L420.5006 5.7775 L423.0063 5.7775 L423.0063 2.4282 L421.1271 1.5909 Z" fill-rule="evenodd" clip-rule="evenodd" fill="white" stroke="none"/>
  <path d="M446.1842 1.5909 L445.5578 2.4282 L445.5578 5.7775 L448.0635 5.7775 L448.0635 2.4282 L446.1842 1.5909 Z" fill-rule="evenodd" clip-rule="evenodd" fill="white" stroke="none"/>
  <path d="M471.8679 1.5909 L470.615 3.2655 L470.615 4.9402 L471.2414 5.7775 L473.1207 5.7775 L473.7471 4.9402 L473.7471 3.2655 L472.4943 1.5909 L471.8679 1.5909 Z" fill-rule="evenodd" clip-rule="evenodd" fill="white" stroke="none"/>
  <path d="M496.925 1.5909 L495.6722 3.2655 L495.6722 4.9402 L496.2986 5.7775 L498.1779 5.7775 L498.8043 4.9402 L498.8043 3.2655 L497.5515 1.5909 L496.925 1.5909 Z" fill-rule="evenodd" clip-rule="evenodd" fill="white" stroke="none"/>
  <path d="M522.6086 1.5909 L521.3558 3.2655 L521.3558 4.9402 L521.9822 5.7775 L523.8615 5.7775 L524.488 3.2655 L523.2351 1.5909 L522.6086 1.5909 Z" fill-rule="evenodd" clip-rule="evenodd" fill="white" stroke="none"/>
  <path d="M547.6658 1.5909 L546.413 3.2655 L546.413 4.9402 L547.0394 5.7775 L548.9187 5.7775 L549.5451 3.2655 L548.2922 1.5909 L547.6658 1.5909 Z" fill-rule="evenodd" clip-rule="evenodd" fill="white" stroke="none"/>
  <path d="M394.817 2.4282 L394.817 4.9402 L395.4434 5.7775 L397.3227 5.7775 L397.9492 4.9402 L397.9492 3.2655 L397.3227 2.4282 L394.817 2.4282 Z" fill-rule="evenodd" clip-rule="evenodd" fill="white" stroke="none"/>
  <path d="M572.0966 2.4282 L572.0966 5.7775 L574.6023 5.7775 L574.6023 2.4282 L572.0966 2.4282 Z" fill-rule="evenodd" clip-rule="evenodd" fill="white" stroke="none"/>
  <path d="M597.1538 2.4282 L597.1538 5.7775 L599.0331 5.7775 L599.6595 4.9402 L599.6595 2.4282 L597.1538 2.4282 Z" fill-rule="evenodd" clip-rule="evenodd" fill="white" stroke="none"/>
  <path d="M434.2821 4.1029 L434.2821 9.9641 L433.6556 10.8014 L431.7764 8.2895 L431.7764 7.4522 L431.1499 7.4522 L431.1499 8.2895 L432.4028 10.8014 L432.4028 12.4761 L434.2821 14.988 L434.9085 14.988 L436.1614 13.3134 L438.0406 7.4522 L437.4142 7.4522 L437.4142 8.2895 L436.1614 9.9641 L435.5349 9.9641 L434.9085 9.1268 L434.9085 4.1029 L434.2821 4.1029 Z" fill-rule="evenodd" clip-rule="evenodd" fill="white" stroke="none"/>
  <path d="M459.9657 4.1029 L459.3392 4.1029 L459.3392 9.9641 L458.7128 10.8014 L456.8335 8.2895 L456.8335 7.4522 L456.2071 7.4522 L456.8335 9.1268 L456.8335 10.8014 L458.7128 14.1507 L458.7128 14.988 L459.9657 14.988 L461.2185 13.3134 L463.0978 8.2895 L463.0978 7.4522 L462.4714 7.4522 L462.4714 8.2895 L461.2185 9.9641 L460.5921 9.9641 L459.9657 9.1268 L459.9657 4.1029 Z" fill-rule="evenodd" clip-rule="evenodd" fill="white" stroke="none"/>
  <path d="M510.7065 4.1029 L510.0801 4.1029 L510.0801 6.6148 L509.4536 7.4522 L509.4536 9.9641 L508.8272 10.8014 L508.2007 9.1268 L506.9479 8.2895 L509.4536 14.988 L510.7065 14.988 L511.3329 14.1507 L513.2122 9.1268 L513.2122 8.2895 L512.5858 8.2895 L511.3329 10.8014 L510.7065 9.9641 L510.7065 4.1029 Z" fill-rule="evenodd" clip-rule="evenodd" fill="white" stroke="none"/>
  <path d="M611.5617 4.1029 L610.9352 4.1029 L610.9352 9.9641 L610.3088 10.8014 L608.4295 8.2895 L608.4295 7.4522 L607.8031 7.4522 L609.0559 10.8014 L609.0559 12.4761 L610.3088 14.1507 L610.3088 14.988 L611.5617 14.988 L612.8145 13.3134 L614.6938 8.2895 L614.6938 7.4522 L614.0674 7.4522 L614.0674 8.2895 L612.8145 9.9641 L612.1881 9.9641 L611.5617 9.1268 L611.5617 4.1029 Z" fill-rule="evenodd" clip-rule="evenodd" fill="white" stroke="none"/>
  <path d="M359.1105 4.9402 L358.4841 4.9402 L358.4841 8.2895 L357.2312 10.8014 L355.9784 7.4522 L355.3519 7.4522 L355.3519 9.1268 L357.8577 14.988 L359.1105 14.988 L360.3634 11.6388 L361.6162 9.9641 L361.6162 8.2895 L360.9898 8.2895 L360.3634 9.9641 L359.1105 9.1268 L359.1105 4.9402 Z" fill-rule="evenodd" clip-rule="evenodd" fill="white" stroke="none"/>
  <path d="M383.5413 4.9402 L383.5413 9.9641 L382.9148 10.8014 L381.662 9.1268 L381.662 8.2895 L381.0356 8.2895 L381.0356 9.9641 L382.2884 13.3134 L383.5413 14.988 L384.7941 14.988 L387.2999 8.2895 L386.6734 8.2895 L385.4206 9.9641 L384.7941 9.1268 L384.7941 4.9402 L383.5413 4.9402 Z" fill-rule="evenodd" clip-rule="evenodd" fill="white" stroke="none"/>
  <path d="M408.5985 4.9402 L408.5985 9.9641 L407.972 10.8014 L406.7192 9.1268 L406.7192 8.2895 L406.0927 8.2895 L406.0927 9.9641 L407.3456 13.3134 L408.5985 14.988 L409.8513 14.988 L409.8513 14.1507 L411.1042 12.4761 L411.1042 10.8014 L412.357 9.1268 L412.357 7.4522 L411.7306 7.4522 L411.7306 8.2895 L410.4778 9.9641 L409.8513 9.9641 L409.2249 9.1268 L409.2249 4.9402 L408.5985 4.9402 Z" fill-rule="evenodd" clip-rule="evenodd" fill="white" stroke="none"/>
  <path d="M485.6493 4.9402 L485.0229 4.9402 L485.0229 9.9641 L484.3964 10.8014 L483.77 10.8014 L482.5171 7.4522 L481.8907 7.4522 L481.8907 9.1268 L484.3964 14.988 L485.6493 14.988 L486.9022 11.6388 L488.155 9.9641 L488.155 8.2895 L487.5286 8.2895 L486.2757 10.8014 L485.6493 9.9641 L485.6493 4.9402 Z" fill-rule="evenodd" clip-rule="evenodd" fill="white" stroke="none"/>
  <path d="M536.3901 4.9402 L535.7637 4.9402 L535.1372 6.6148 L535.1372 9.9641 L534.5108 10.8014 L533.258 9.1268 L533.258 8.2895 L532.0051 7.4522 L533.8844 13.3134 L535.1372 14.988 L536.3901 14.988 L536.3901 14.1507 L537.643 12.4761 L538.8958 9.1268 L538.8958 8.2895 L538.2694 8.2895 L537.0165 10.8014 L536.3901 9.9641 L536.3901 4.9402 Z" fill-rule="evenodd" clip-rule="evenodd" fill="white" stroke="none"/>
  <path d="M560.1944 4.9402 L560.1944 9.9641 L559.568 10.8014 L557.6887 7.4522 L557.0623 7.4522 L557.0623 8.2895 L558.9415 13.3134 L560.1944 14.988 L561.4473 14.988 L563.953 8.2895 L563.3266 8.2895 L562.0737 9.9641 L561.4473 9.1268 L561.4473 4.9402 L560.1944 4.9402 Z" fill-rule="evenodd" clip-rule="evenodd" fill="white" stroke="none"/>
  <path d="M586.5045 4.9402 L585.878 4.9402 L585.878 9.1268 L584.6252 10.8014 L583.9988 9.9641 L583.9988 8.2895 L582.7459 7.4522 L583.3723 9.1268 L583.3723 10.8014 L584.6252 12.4761 L584.6252 14.1507 L585.2516 14.988 L586.5045 14.988 L587.7573 13.3134 L589.6366 8.2895 L589.6366 7.4522 L589.0102 7.4522 L589.0102 8.2895 L587.7573 9.9641 L587.1309 9.9641 L586.5045 9.1268 L586.5045 4.9402 Z" fill-rule="evenodd" clip-rule="evenodd" fill="white" stroke="none"/>
  <path d="M365.3748 8.2895 L364.122 9.9641 L364.122 10.8014 L364.7484 11.6388 L366.6277 11.6388 L366.6277 9.1268 L365.3748 8.2895 Z" fill-rule="evenodd" clip-rule="evenodd" fill="white" stroke="none"/>
  <path d="M466.23 8.2895 L465.6036 9.1268 L465.6036 11.6388 L467.4828 11.6388 L468.1093 9.9641 L466.8564 8.2895 L466.23 8.2895 Z" fill-rule="evenodd" clip-rule="evenodd" fill="white" stroke="none"/>
  <path d="M491.2872 8.2895 L490.6607 9.1268 L490.6607 11.6388 L492.54 11.6388 L493.1664 9.9641 L491.9136 8.2895 L491.2872 8.2895 Z" fill-rule="evenodd" clip-rule="evenodd" fill="white" stroke="none"/>
  <path d="M578.9873 8.2895 L578.3609 9.1268 L578.3609 11.6388 L580.2402 11.6388 L580.8666 9.9641 L579.6138 8.2895 L578.9873 8.2895 Z" fill-rule="evenodd" clip-rule="evenodd" fill="white" stroke="none"/>
  <path d="M344.7026 9.1268 L343.4498 12.4761 L342.1969 14.1507 L341.5705 16.6627 L340.3176 18.3373 L340.3176 19.1747 L339.0648 20.8493 L339.0648 21.6866 L337.1855 25.0359 L337.1855 26.7105 L337.8119 28.3852 L336.559 31.7344 L337.8119 32.5718 L339.6912 32.5718 L339.6912 29.2225 L340.3176 28.3852 L342.8234 28.3852 L344.0762 30.0598 L344.0762 32.5718 L344.7026 33.4091 L346.5819 33.4091 L347.2084 32.5718 L347.2084 30.8971 L346.5819 30.0598 L347.2084 29.2225 L349.7141 29.2225 L350.3405 28.3852 L351.5934 28.3852 L352.2198 29.2225 L352.2198 31.7344 L353.4727 33.4091 L354.7255 33.4091 L355.9784 32.5718 L355.9784 30.0598 L354.7255 28.3852 L354.7255 26.7105 L353.4727 23.3612 L350.9669 19.1747 L350.3405 16.6627 L349.0876 14.988 L349.0876 14.1507 L347.8348 12.4761 L346.5819 9.1268 L344.7026 9.1268 Z" fill-rule="evenodd" clip-rule="evenodd" fill="white" stroke="none"/>
  <path d="M338.4383 9.9641 L339.0648 11.6388 L340.9441 11.6388 L341.5705 10.8014 L340.9441 9.1268 L339.0648 9.1268 L338.4383 9.9641 Z" fill-rule="evenodd" clip-rule="evenodd" fill="white" stroke="none"/>
  <path d="M350.3405 9.9641 L350.9669 11.6388 L352.8462 11.6388 L352.8462 9.1268 L350.9669 9.1268 L350.3405 9.9641 Z" fill-rule="evenodd" clip-rule="evenodd" fill="white" stroke="none"/>
  <path d="M370.3862 9.1268 L368.507 12.4761 L368.507 13.3134 L367.2541 14.988 L366.6277 17.5 L365.3748 19.1747 L364.7484 21.6866 L362.8691 25.0359 L362.8691 26.7105 L363.4955 28.3852 L362.2427 31.7344 L363.4955 32.5718 L364.7484 32.5718 L365.3748 31.7344 L365.3748 29.2225 L366.0012 28.3852 L368.507 28.3852 L369.1334 29.2225 L369.1334 31.7344 L370.3862 33.4091 L372.2655 33.4091 L372.892 32.5718 L372.2655 30.8971 L372.892 29.2225 L375.3977 29.2225 L376.6506 28.3852 L377.9034 30.0598 L377.9034 31.7344 L379.7827 33.4091 L381.662 32.5718 L381.662 30.8971 L380.4091 28.3852 L380.4091 26.7105 L379.7827 25.0359 L377.277 20.8493 L376.6506 18.3373 L374.1448 14.1507 L373.5184 11.6388 L371.6391 9.1268 L370.3862 9.1268 Z" fill-rule="evenodd" clip-rule="evenodd" fill="white" stroke="none"/>
  <path d="M376.0241 9.1268 L376.0241 11.6388 L378.5298 11.6388 L378.5298 9.9641 L377.9034 9.1268 L376.0241 9.1268 Z" fill-rule="evenodd" clip-rule="evenodd" fill="white" stroke="none"/>
  <path d="M395.4434 9.1268 L393.5641 12.4761 L393.5641 13.3134 L392.3113 14.988 L391.6849 17.5 L387.9263 24.1986 L387.9263 29.2225 L387.2999 30.0598 L387.2999 31.7344 L388.5527 32.5718 L389.8056 32.5718 L390.432 31.7344 L390.432 29.2225 L391.0584 28.3852 L393.5641 28.3852 L394.1906 29.2225 L394.1906 31.7344 L395.4434 33.4091 L397.3227 33.4091 L397.9492 32.5718 L397.3227 30.8971 L397.9492 29.2225 L400.4549 29.2225 L401.7077 28.3852 L402.9606 30.0598 L402.9606 31.7344 L404.2135 33.4091 L405.4663 33.4091 L406.7192 32.5718 L406.7192 30.0598 L405.4663 28.3852 L404.8399 26.7105 L404.8399 25.0359 L403.587 23.3612 L402.9606 20.8493 L401.7077 19.1747 L401.7077 18.3373 L400.4549 16.6627 L400.4549 15.8254 L399.202 14.1507 L397.9492 10.8014 L396.6963 9.1268 L395.4434 9.1268 Z" fill-rule="evenodd" clip-rule="evenodd" fill="white" stroke="none"/>
  <path d="M389.1791 9.9641 L389.8056 11.6388 L391.6849 11.6388 L391.6849 9.1268 L389.8056 9.1268 L389.1791 9.9641 Z" fill-rule="evenodd" clip-rule="evenodd" fill="white" stroke="none"/>
  <path d="M401.0813 9.1268 L401.0813 11.6388 L403.587 11.6388 L403.587 9.9641 L402.9606 9.1268 L401.0813 9.1268 Z" fill-rule="evenodd" clip-rule="evenodd" fill="white" stroke="none"/>
  <path d="M421.1271 9.1268 L419.8742 10.8014 L419.2477 13.3134 L417.3685 15.8254 L416.742 18.3373 L415.4892 20.012 L415.4892 20.8493 L413.6099 24.1986 L413.6099 29.2225 L412.9835 30.0598 L412.9835 31.7344 L414.2363 32.5718 L415.4892 32.5718 L416.1156 31.7344 L416.1156 29.2225 L416.742 28.3852 L418.6213 28.3852 L419.8742 30.0598 L419.8742 32.5718 L420.5006 33.4091 L423.0063 33.4091 L423.0063 30.0598 L423.6328 29.2225 L426.1385 29.2225 L427.3914 28.3852 L428.6442 30.0598 L428.6442 32.5718 L429.8971 33.4091 L431.1499 33.4091 L432.4028 31.7344 L432.4028 30.8971 L431.1499 29.2225 L429.8971 24.1986 L428.6442 22.5239 L428.0178 20.012 L424.2592 13.3134 L423.6328 10.8014 L422.3799 9.1268 L421.1271 9.1268 Z" fill-rule="evenodd" clip-rule="evenodd" fill="white" stroke="none"/>
  <path d="M414.8628 9.1268 L414.8628 11.6388 L417.3685 11.6388 L417.3685 9.9641 L416.742 9.1268 L414.8628 9.1268 Z" fill-rule="evenodd" clip-rule="evenodd" fill="white" stroke="none"/>
  <path d="M426.7649 9.1268 L426.7649 11.6388 L428.6442 11.6388 L429.2706 10.8014 L428.6442 9.1268 L426.7649 9.1268 Z" fill-rule="evenodd" clip-rule="evenodd" fill="white" stroke="none"/>
  <path d="M446.1842 9.1268 L444.9314 10.8014 L444.9314 11.6388 L443.6785 13.3134 L441.7992 18.3373 L440.5463 20.012 L440.5463 20.8493 L438.6671 24.1986 L438.6671 29.2225 L438.0406 30.0598 L438.0406 31.7344 L438.6671 32.5718 L440.5463 32.5718 L441.1728 31.7344 L441.1728 29.2225 L441.7992 28.3852 L443.6785 28.3852 L444.9314 30.0598 L444.9314 32.5718 L445.5578 33.4091 L448.0635 33.4091 L448.0635 30.0598 L448.69 29.2225 L451.1957 29.2225 L452.4485 28.3852 L453.7014 30.0598 L453.7014 32.5718 L454.9543 33.4091 L456.2071 33.4091 L457.46 31.7344 L457.46 30.8971 L456.2071 29.2225 L454.9543 24.1986 L452.4485 20.012 L451.8221 17.5 L450.5692 15.8254 L450.5692 14.988 L449.3164 13.3134 L448.0635 9.9641 L447.4371 9.1268 L446.1842 9.1268 Z" fill-rule="evenodd" clip-rule="evenodd" fill="white" stroke="none"/>
  <path d="M439.9199 9.1268 L439.9199 11.6388 L441.7992 11.6388 L442.4256 10.8014 L441.7992 9.1268 L439.9199 9.1268 Z" fill-rule="evenodd" clip-rule="evenodd" fill="white" stroke="none"/>
  <path d="M451.1957 9.9641 L451.8221 11.6388 L453.7014 11.6388 L454.3278 10.8014 L453.7014 9.1268 L451.8221 9.1268 L451.1957 9.9641 Z" fill-rule="evenodd" clip-rule="evenodd" fill="white" stroke="none"/>
  <path d="M471.2414 9.1268 L471.2414 9.9641 L468.7357 14.1507 L468.1093 16.6627 L465.6036 20.8493 L464.9771 23.3612 L463.7242 25.0359 L463.7242 26.7105 L464.3507 28.3852 L463.0978 31.7344 L464.3507 32.5718 L466.23 32.5718 L466.8564 31.7344 L466.23 30.0598 L467.4828 28.3852 L469.3621 28.3852 L470.615 30.0598 L470.615 32.5718 L471.2414 33.4091 L473.1207 33.4091 L473.7471 32.5718 L473.1207 30.8971 L473.7471 29.2225 L476.2529 29.2225 L476.8793 28.3852 L478.1321 28.3852 L478.7586 29.2225 L478.7586 30.8971 L479.385 32.5718 L480.6379 33.4091 L482.5171 32.5718 L482.5171 30.0598 L481.2643 28.3852 L481.2643 26.7105 L480.0114 23.3612 L478.7586 21.6866 L478.1321 19.1747 L476.8793 17.5 L476.8793 16.6627 L475.6264 14.988 L475.6264 14.1507 L474.3736 12.4761 L473.1207 9.1268 L471.2414 9.1268 Z" fill-rule="evenodd" clip-rule="evenodd" fill="white" stroke="none"/>
  <path d="M476.8793 9.9641 L477.5057 11.6388 L479.385 11.6388 L479.385 9.1268 L477.5057 9.1268 L476.8793 9.9641 Z" fill-rule="evenodd" clip-rule="evenodd" fill="white" stroke="none"/>
  <path d="M496.2986 9.1268 L496.2986 9.9641 L495.0458 11.6388 L495.0458 12.4761 L493.7929 14.1507 L491.9136 19.1747 L490.6607 20.8493 L490.6607 21.6866 L488.7814 25.0359 L488.7814 26.7105 L489.4079 28.3852 L488.155 31.7344 L489.4079 32.5718 L491.2872 32.5718 L491.9136 31.7344 L491.2872 29.2225 L491.9136 28.3852 L494.4193 28.3852 L495.6722 30.0598 L495.6722 32.5718 L496.2986 33.4091 L498.1779 33.4091 L498.8043 32.5718 L498.8043 30.8971 L498.1779 30.0598 L498.8043 29.2225 L501.31 29.2225 L501.9365 28.3852 L503.1893 28.3852 L503.8157 29.2225 L503.8157 31.7344 L505.6951 33.4091 L507.5743 32.5718 L508.2007 30.8971 L506.3215 28.3852 L506.3215 26.7105 L505.0686 23.3612 L501.31 16.6627 L500.6836 14.1507 L499.4308 12.4761 L498.1779 9.1268 L496.2986 9.1268 Z" fill-rule="evenodd" clip-rule="evenodd" fill="white" stroke="none"/>
  <path d="M501.9365 9.9641 L502.5629 11.6388 L504.4422 11.6388 L504.4422 9.1268 L502.5629 9.1268 L501.9365 9.9641 Z" fill-rule="evenodd" clip-rule="evenodd" fill="white" stroke="none"/>
  <path d="M521.9822 9.1268 L520.1029 12.4761 L520.1029 13.3134 L518.8501 14.988 L518.2236 17.5 L516.9708 19.1747 L516.9708 20.012 L515.7179 21.6866 L514.4651 25.0359 L514.4651 26.7105 L515.0915 28.3852 L513.8386 30.0598 L513.8386 31.7344 L515.0915 32.5718 L516.3444 32.5718 L516.9708 31.7344 L516.9708 29.2225 L517.5972 28.3852 L519.4765 28.3852 L520.7294 30.0598 L520.7294 31.7344 L521.9822 33.4091 L523.8615 33.4091 L524.488 32.5718 L523.8615 30.8971 L524.488 29.2225 L526.9936 29.2225 L528.2465 28.3852 L529.4994 30.0598 L529.4994 31.7344 L531.3786 33.4091 L533.258 32.5718 L533.258 30.0598 L531.3786 27.5478 L531.3786 25.0359 L530.1258 23.3612 L529.4994 20.8493 L525.7408 14.1507 L525.1144 11.6388 L523.2351 9.1268 L521.9822 9.1268 Z" fill-rule="evenodd" clip-rule="evenodd" fill="white" stroke="none"/>
  <path d="M515.7179 9.9641 L516.3444 11.6388 L518.2236 11.6388 L518.2236 9.1268 L516.3444 9.1268 L515.7179 9.9641 Z" fill-rule="evenodd" clip-rule="evenodd" fill="white" stroke="none"/>
  <path d="M527.6201 9.1268 L527.6201 11.6388 L530.1258 11.6388 L530.1258 9.9641 L529.4994 9.1268 L527.6201 9.1268 Z" fill-rule="evenodd" clip-rule="evenodd" fill="white" stroke="none"/>
  <path d="M547.0394 9.1268 L545.1601 12.4761 L545.1601 13.3134 L543.9073 14.988 L541.4015 21.6866 L539.5223 24.1986 L539.5223 29.2225 L538.8958 30.0598 L538.8958 31.7344 L540.1487 32.5718 L541.4015 32.5718 L542.028 31.7344 L542.028 29.2225 L542.6544 28.3852 L545.1601 28.3852 L545.7865 29.2225 L545.7865 31.7344 L547.0394 33.4091 L548.9187 33.4091 L549.5451 32.5718 L548.9187 30.8971 L549.5451 29.2225 L552.0508 29.2225 L553.3037 28.3852 L554.5565 30.0598 L554.5565 31.7344 L556.4359 33.4091 L558.3151 32.5718 L558.3151 30.0598 L557.0623 28.3852 L556.4359 26.7105 L556.4359 25.0359 L553.9301 20.8493 L553.3037 18.3373 L552.0508 16.6627 L552.0508 15.8254 L550.798 14.1507 L549.5451 10.8014 L548.2922 9.1268 L547.0394 9.1268 Z" fill-rule="evenodd" clip-rule="evenodd" fill="white" stroke="none"/>
  <path d="M540.7751 9.9641 L541.4015 11.6388 L543.2809 11.6388 L543.2809 9.1268 L541.4015 9.1268 L540.7751 9.9641 Z" fill-rule="evenodd" clip-rule="evenodd" fill="white" stroke="none"/>
  <path d="M552.6773 9.1268 L552.6773 11.6388 L554.5565 11.6388 L555.183 10.8014 L554.5565 9.1268 L552.6773 9.1268 Z" fill-rule="evenodd" clip-rule="evenodd" fill="white" stroke="none"/>
  <path d="M572.723 9.1268 L571.4701 10.8014 L569.5909 15.8254 L568.338 17.5 L568.338 18.3373 L567.0851 20.012 L567.0851 20.8493 L565.2059 24.1986 L565.2059 29.2225 L564.5794 30.0598 L564.5794 31.7344 L565.8323 32.5718 L567.0851 32.5718 L567.7116 31.7344 L567.7116 29.2225 L568.338 28.3852 L570.2173 28.3852 L571.4701 30.0598 L571.4701 32.5718 L572.0966 33.4091 L574.6023 33.4091 L574.6023 30.0598 L575.2287 29.2225 L577.7344 29.2225 L578.9873 28.3852 L580.2402 30.0598 L580.2402 32.5718 L581.493 33.4091 L582.7459 32.5718 L583.9988 32.5718 L583.9988 30.8971 L582.7459 29.2225 L581.493 24.1986 L580.2402 22.5239 L579.6138 20.012 L575.8552 13.3134 L575.2287 10.8014 L573.9759 9.1268 L572.723 9.1268 Z" fill-rule="evenodd" clip-rule="evenodd" fill="white" stroke="none"/>
  <path d="M566.4587 9.1268 L566.4587 10.8014 L567.0851 11.6388 L568.9644 11.6388 L568.9644 9.9641 L568.338 9.1268 L566.4587 9.1268 Z" fill-rule="evenodd" clip-rule="evenodd" fill="white" stroke="none"/>
  <path d="M597.7802 9.1268 L596.5273 10.8014 L596.5273 11.6388 L595.2745 13.3134 L593.3952 18.3373 L592.1423 20.012 L592.1423 20.8493 L590.263 24.1986 L590.263 29.2225 L589.6366 30.0598 L589.6366 31.7344 L590.8895 32.5718 L592.1423 32.5718 L592.7688 31.7344 L592.7688 29.2225 L593.3952 28.3852 L595.2745 28.3852 L596.5273 30.0598 L596.5273 32.5718 L597.1538 33.4091 L599.6595 33.4091 L599.6595 30.0598 L600.2859 29.2225 L602.1652 29.2225 L602.7916 28.3852 L604.0445 28.3852 L605.2974 30.0598 L605.2974 32.5718 L606.5502 33.4091 L608.4295 32.5718 L609.0559 30.8971 L607.8031 29.2225 L607.1767 27.5478 L607.1767 25.8732 L605.2974 22.5239 L604.6709 20.012 L600.9123 13.3134 L600.2859 10.8014 L599.0331 9.1268 L597.7802 9.1268 Z" fill-rule="evenodd" clip-rule="evenodd" fill="white" stroke="none"/>
  <path d="M591.5159 9.1268 L591.5159 11.6388 L594.0216 11.6388 L594.0216 9.9641 L593.3952 9.1268 L591.5159 9.1268 Z" fill-rule="evenodd" clip-rule="evenodd" fill="white" stroke="none"/>
  <path d="M603.4181 9.1268 L603.4181 11.6388 L605.2974 11.6388 L605.9237 10.8014 L605.2974 9.1268 L603.4181 9.1268 Z" fill-rule="evenodd" clip-rule="evenodd" fill="white" stroke="none"/>
  <path d="M335.9326 16.6627 L335.3062 17.5 L335.3062 19.1747 L336.559 20.012 L337.1855 19.1747 L337.1855 17.5 L335.9326 16.6627 Z" fill-rule="evenodd" clip-rule="evenodd" fill="white" stroke="none"/>
  <path d="M356.6048 16.6627 L355.3519 16.6627 L354.7255 17.5 L354.7255 19.1747 L355.3519 20.012 L356.6048 19.1747 L356.6048 16.6627 Z" fill-rule="evenodd" clip-rule="evenodd" fill="white" stroke="none"/>
  <path d="M360.9898 16.6627 L360.9898 20.012 L362.8691 19.1747 L362.8691 17.5 L362.2427 16.6627 L360.9898 16.6627 Z" fill-rule="evenodd" clip-rule="evenodd" fill="white" stroke="none"/>
  <path d="M381.0356 16.6627 L380.4091 17.5 L380.4091 19.1747 L381.662 20.012 L382.2884 19.1747 L382.2884 17.5 L381.0356 16.6627 Z" fill-rule="evenodd" clip-rule="evenodd" fill="white" stroke="none"/>
  <path d="M386.047 16.6627 L385.4206 17.5 L385.4206 19.1747 L387.2999 19.1747 L387.9263 17.5 L387.2999 16.6627 L386.047 16.6627 Z" fill-rule="evenodd" clip-rule="evenodd" fill="white" stroke="none"/>
  <path d="M405.4663 16.6627 L405.4663 19.1747 L407.3456 19.1747 L407.3456 17.5 L406.7192 16.6627 L405.4663 16.6627 Z" fill-rule="evenodd" clip-rule="evenodd" fill="white" stroke="none"/>
  <path d="M412.9835 16.6627 L411.7306 16.6627 L411.1042 17.5 L411.1042 19.1747 L411.7306 20.012 L412.9835 19.1747 L412.9835 16.6627 Z" fill-rule="evenodd" clip-rule="evenodd" fill="white" stroke="none"/>
  <path d="M430.5235 17.5 L431.1499 19.1747 L433.0292 19.1747 L433.0292 17.5 L432.4028 16.6627 L431.1499 16.6627 L430.5235 17.5 Z" fill-rule="evenodd" clip-rule="evenodd" fill="white" stroke="none"/>
  <path d="M436.7878 16.6627 L436.1614 17.5 L436.1614 19.1747 L437.4142 20.012 L438.0406 19.1747 L438.0406 17.5 L436.7878 16.6627 Z" fill-rule="evenodd" clip-rule="evenodd" fill="white" stroke="none"/>
  <path d="M455.5807 17.5 L455.5807 19.1747 L458.0864 19.1747 L458.0864 17.5 L457.46 16.6627 L456.2071 16.6627 L455.5807 17.5 Z" fill-rule="evenodd" clip-rule="evenodd" fill="white" stroke="none"/>
  <path d="M462.4714 16.6627 L461.845 17.5 L461.845 19.1747 L463.0978 20.012 L463.7242 19.1747 L463.7242 17.5 L462.4714 16.6627 Z" fill-rule="evenodd" clip-rule="evenodd" fill="white" stroke="none"/>
  <path d="M483.1436 16.6627 L481.8907 16.6627 L481.2643 17.5 L481.2643 19.1747 L481.8907 20.012 L483.1436 19.1747 L483.1436 16.6627 Z" fill-rule="evenodd" clip-rule="evenodd" fill="white" stroke="none"/>
  <path d="M487.5286 16.6627 L486.9022 17.5 L486.9022 19.1747 L488.155 20.012 L488.7814 19.1747 L488.7814 17.5 L487.5286 16.6627 Z" fill-rule="evenodd" clip-rule="evenodd" fill="white" stroke="none"/>
  <path d="M506.9479 16.6627 L506.3215 17.5 L506.3215 19.1747 L507.5743 20.012 L508.2007 19.1747 L508.2007 17.5 L506.9479 16.6627 Z" fill-rule="evenodd" clip-rule="evenodd" fill="white" stroke="none"/>
  <path d="M512.5858 16.6627 L512.5858 20.012 L514.4651 19.1747 L514.4651 17.5 L513.8386 16.6627 L512.5858 16.6627 Z" fill-rule="evenodd" clip-rule="evenodd" fill="white" stroke="none"/>
  <path d="M532.0051 16.6627 L532.0051 19.1747 L533.258 20.012 L533.8844 19.1747 L533.8844 17.5 L533.258 16.6627 L532.0051 16.6627 Z" fill-rule="evenodd" clip-rule="evenodd" fill="white" stroke="none"/>
  <path d="M537.643 16.6627 L537.643 20.012 L538.8958 20.012 L538.8958 16.6627 L537.643 16.6627 Z" fill-rule="evenodd" clip-rule="evenodd" fill="white" stroke="none"/>
  <path d="M557.0623 16.6627 L557.0623 19.1747 L558.3151 20.012 L558.9415 19.1747 L558.9415 17.5 L558.3151 16.6627 L557.0623 16.6627 Z" fill-rule="evenodd" clip-rule="evenodd" fill="white" stroke="none"/>
  <path d="M563.3266 16.6627 L562.7002 17.5 L562.7002 19.1747 L563.953 20.012 L564.5794 19.1747 L564.5794 17.5 L563.3266 16.6627 Z" fill-rule="evenodd" clip-rule="evenodd" fill="white" stroke="none"/>
  <path d="M582.7459 16.6627 L582.1194 18.3373 L583.3723 20.012 L583.9988 20.012 L584.6252 19.1747 L584.6252 17.5 L583.9988 16.6627 L582.7459 16.6627 Z" fill-rule="evenodd" clip-rule="evenodd" fill="white" stroke="none"/>
  <path d="M588.3838 16.6627 L587.7573 17.5 L587.7573 19.1747 L589.0102 20.012 L589.6366 19.1747 L589.6366 17.5 L588.3838 16.6627 Z" fill-rule="evenodd" clip-rule="evenodd" fill="white" stroke="none"/>
  <path d="M607.8031 16.6627 L607.1767 17.5 L607.1767 19.1747 L609.0559 19.1747 L609.6824 17.5 L609.0559 16.6627 L607.8031 16.6627 Z" fill-rule="evenodd" clip-rule="evenodd" fill="white" stroke="none"/>
  <path d="M383.5413 20.8493 L383.5413 30.8971 L384.1677 30.8971 L384.1677 29.2225 L384.7941 28.3852 L384.7941 21.6866 L383.5413 20.8493 Z" fill-rule="evenodd" clip-rule="evenodd" fill="white" stroke="none"/>
  <path d="M357.8577 21.6866 L357.8577 29.2225 L359.1105 29.2225 L359.1105 21.6866 L357.8577 21.6866 Z" fill-rule="evenodd" clip-rule="evenodd" fill="white" stroke="none"/>
  <path d="M408.5985 21.6866 L408.5985 30.8971 L409.2249 30.8971 L409.2249 25.8732 L409.8513 25.0359 L409.8513 22.5239 L408.5985 21.6866 Z" fill-rule="evenodd" clip-rule="evenodd" fill="white" stroke="none"/>
  <path d="M434.2821 21.6866 L434.2821 30.8971 L434.9085 30.8971 L434.9085 21.6866 L434.2821 21.6866 Z" fill-rule="evenodd" clip-rule="evenodd" fill="white" stroke="none"/>
  <path d="M459.3392 21.6866 L459.3392 30.8971 L459.9657 30.8971 L459.9657 21.6866 L459.3392 21.6866 Z" fill-rule="evenodd" clip-rule="evenodd" fill="white" stroke="none"/>
  <path d="M485.0229 21.6866 L485.0229 30.0598 L485.6493 30.0598 L485.6493 21.6866 L485.0229 21.6866 Z" fill-rule="evenodd" clip-rule="evenodd" fill="white" stroke="none"/>
  <path d="M509.4536 21.6866 L509.4536 30.0598 L510.7065 30.0598 L510.7065 21.6866 L509.4536 21.6866 Z" fill-rule="evenodd" clip-rule="evenodd" fill="white" stroke="none"/>
  <path d="M536.3901 21.6866 L535.1372 21.6866 L535.1372 30.8971 L535.7637 30.8971 L536.3901 29.2225 L536.3901 21.6866 Z" fill-rule="evenodd" clip-rule="evenodd" fill="white" stroke="none"/>
  <path d="M561.4473 21.6866 L560.1944 21.6866 L560.1944 30.8971 L560.8209 30.8971 L560.8209 29.2225 L561.4473 28.3852 L561.4473 21.6866 Z" fill-rule="evenodd" clip-rule="evenodd" fill="white" stroke="none"/>
  <path d="M585.878 21.6866 L585.878 30.8971 L586.5045 30.8971 L586.5045 21.6866 L585.878 21.6866 Z" fill-rule="evenodd" clip-rule="evenodd" fill="white" stroke="none"/>
  <path d="M610.9352 21.6866 L610.9352 30.8971 L611.5617 30.8971 L611.5617 21.6866 L610.9352 21.6866 Z" fill-rule="evenodd" clip-rule="evenodd" fill="white" stroke="none"/>
</svg>
