<?xml version="1.0" encoding="UTF-8"?>
<svg width="950" height="35" viewBox="0 0 950 35" fill="none" xmlns="http://www.w3.org/2000/svg">
  <path d="M298 17.5 L302 11.5 L307 7.5 L313 5.5 L320 10.5 L326 5.5 L333 12.5 L339 8.5 L346 15.5 L352 17.5 L346 19.5 L339 26.5 L333 22.5 L326 29.5 L320 24.5 L313 29.5 L307 27.5 L302 23.5 Z" fill-rule="evenodd" clip-rule="evenodd" fill="#B22222" stroke="none"/>
  <path d="M652 17.5 L648 11.5 L643 7.5 L637 5.5 L630 10.5 L624 5.5 L617 12.5 L611 8.5 L604 15.5 L598 17.5 L604 19.5 L611 26.5 L617 22.5 L624 29.5 L630 24.5 L637 29.5 L643 27.5 L648 23.5 Z" fill-rule="evenodd" clip-rule="evenodd" fill="#B22222" stroke="none"/>
  <path d="M9.5 17.5 L352 17.5" fill="none" stroke="#B22222" stroke-width="1.2" stroke-linecap="round" stroke-linejoin="round"/>
  <path d="M598 17.5 L940.5 17.5" fill="none" stroke="#B22222" stroke-width="1.2" stroke-linecap="round" stroke-linejoin="round"/>
</svg>
