<?xml version="1.0" encoding="UTF-8"?>
<svg xmlns="http://www.w3.org/2000/svg" viewBox="0 0 398.0314 25.6538" width="398.0314" height="25.6538">
  <path d="M7.6544 12.5247 L109.7138 12.6859" fill="none" stroke="#000000" stroke-width="0.35" stroke-linecap="round" stroke-linejoin="round"/>
  <path d="M288.3176 12.9679 L390.3769 13.1291" fill="none" stroke="#000000" stroke-width="0.35" stroke-linecap="round" stroke-linejoin="round"/>
  <path d="M17.2225 12.5399 L31.2213 5.6079 L26.7906 12.555 L31.29 19.5162 L17.2225 12.5399 Z" fill="#000000" fill-rule="evenodd" stroke="none"/>
  <path d="M380.8088 13.1139 L366.7413 6.1376 L371.2407 13.0989 L366.81 20.046 L380.8088 13.1139 Z" fill="#000000" fill-rule="evenodd" stroke="none"/>
  <path d="M79.7338 12.6386 C79.7212 10.0782 77.4262 7.9989 74.608 7.9944 C71.7897 7.99 69.5152 10.062 69.5279 12.6225 C69.5406 15.1829 71.8355 17.2622 74.6538 17.2666 C77.4721 17.2711 79.7465 15.199 79.7338 12.6386 Z" fill="#000000" fill-rule="evenodd" stroke="none"/>
  <path d="M328.5035 13.0313 C328.4908 10.4709 326.1958 8.3916 323.3775 8.3872 C320.5593 8.3827 318.2848 10.4548 318.2975 13.0152 C318.3102 15.5757 320.6051 17.6549 323.4234 17.6594 C326.2417 17.6638 328.5161 15.5918 328.5035 13.0313 Z" fill="#000000" fill-rule="evenodd" stroke="none"/>
  <path d="M154.3074 1.1661 L167.1221 12.7766 L154.422 24.3467 L141.6073 12.7362 L154.3074 1.1661 Z" fill="#000000" fill-rule="evenodd" stroke="none"/>
  <path d="M243.6093 1.3071 L256.424 12.9176 L243.7239 24.4877 L230.9092 12.8773 L243.6093 1.3071 Z" fill="#000000" fill-rule="evenodd" stroke="none"/>
  <path d="M198.9698 3.5547 L209.2216 12.843 L199.0615 22.0991 L188.8098 12.8108 L198.9698 3.5547 Z" fill="#000000" fill-rule="evenodd" stroke="none"/>
</svg>
