<?xml version="1.0" encoding="UTF-8"?>
<svg width="950" height="35" viewBox="0 0 950 35" fill="none" xmlns="http://www.w3.org/2000/svg">
  <path d="M9.5 17.2487 L200.5388 17.2487" fill="none" stroke="white" stroke-width="0.5" stroke-linecap="round" stroke-linejoin="round"/>
  <path d="M758.0833 17.2487 L940.5 17.2487" fill="none" stroke="white" stroke-width="0.5" stroke-linecap="round" stroke-linejoin="round"/>
  <path d="M9.5 17.7514 L200.5388 17.7514" fill="none" stroke="white" stroke-width="0.5" stroke-linecap="round" stroke-linejoin="round"/>
  <path d="M758.0833 17.7514 L940.5 17.7514" fill="none" stroke="white" stroke-width="0.5" stroke-linecap="round" stroke-linejoin="round"/>
  <path d="M445.5495 17.4535 C445.5337 14.2585 442.67 11.6639 439.1533 11.6583 C435.6365 11.6528 432.7984 14.2383 432.8142 17.4334 C432.83 20.6284 435.6937 23.223 439.2104 23.2285 C442.7272 23.2341 445.5653 20.6485 445.5495 17.4535 Z" fill-rule="evenodd" clip-rule="evenodd" fill="white" stroke="none"/>
  <path d="M517.1858 17.5666 C517.17 14.3716 514.3063 11.777 510.7895 11.7714 C507.2728 11.7659 504.4347 14.3515 504.4505 17.5465 C504.4663 20.7415 507.33 23.3361 510.8467 23.3417 C514.3635 23.3472 517.2016 20.7616 517.1858 17.5666 Z" fill-rule="evenodd" clip-rule="evenodd" fill="white" stroke="none"/>
  <path d="M425.6505 17.422 C425.6347 14.227 422.771 11.6325 419.2543 11.6269 C415.7375 11.6214 412.8994 14.2069 412.9152 17.402 C412.931 20.597 415.7947 23.1915 419.3114 23.1971 C422.8282 23.2027 425.6663 20.6171 425.6505 17.422 Z" fill-rule="evenodd" clip-rule="evenodd" fill="white" stroke="none"/>
  <path d="M537.0848 17.598 C537.069 14.403 534.2053 11.8084 530.6885 11.8029 C527.1718 11.7973 524.3337 14.3829 524.3495 17.5779 C524.3653 20.7729 527.229 23.3675 530.7457 23.3731 C534.2625 23.3786 537.1006 20.7931 537.0848 17.598 Z" fill-rule="evenodd" clip-rule="evenodd" fill="white" stroke="none"/>
  <path d="M439.9778 17.4447 C449.4578 2.997 468.5608 3.0272 478.1838 17.5051 C468.7038 31.9527 449.6008 31.9226 439.9778 17.4447 Z" fill-rule="evenodd" clip-rule="evenodd" fill="white" stroke="none"/>
  <path d="M471.8162 17.495 C481.2962 3.0473 500.3992 3.0774 510.0222 17.5553 C500.5422 32.003 481.4391 31.9729 471.8162 17.495 Z" fill-rule="evenodd" clip-rule="evenodd" fill="white" stroke="none"/>
  <path d="M474.9213 1.5909 C486.3586 12.7453 480.2965 26.2582 475.0786 33.4091 C469.7899 26.2417 463.5942 12.7093 474.9213 1.5909 Z" fill-rule="evenodd" clip-rule="evenodd" fill="white" stroke="none"/>
</svg>
