<?xml version="1.0" encoding="UTF-8"?>
<svg width="950" height="35" viewBox="0 0 950 35" fill="none" xmlns="http://www.w3.org/2000/svg">
  <path d="M302 17.5 L306 12.5 L310 8.5 L316 6.5 L322 9.5 L328 5.5 L334 11.5 L340 7.5 L344 14.5 L348 10.5 L352 17.5 L348 24.5 L344 20.5 L340 27.5 L334 23.5 L328 29.5 L322 25.5 L316 28.5 L310 26.5 L306 22.5 Z" fill-rule="evenodd" clip-rule="evenodd" fill="white" stroke="none"/>
  <path d="M343 14.5 L348 17.5 L343 20.5 Z" fill-rule="evenodd" clip-rule="evenodd" fill="white" stroke="none"/>
  <path d="M648 17.5 L644 12.5 L640 8.5 L634 6.5 L628 9.5 L622 5.5 L616 11.5 L610 7.5 L606 14.5 L602 10.5 L598 17.5 L602 24.5 L606 20.5 L610 27.5 L616 23.5 L622 29.5 L628 25.5 L634 28.5 L640 26.5 L644 22.5 Z" fill-rule="evenodd" clip-rule="evenodd" fill="white" stroke="none"/>
  <path d="M607 14.5 L602 17.5 L607 20.5 Z" fill-rule="evenodd" clip-rule="evenodd" fill="white" stroke="none"/>
  <path d="M9.5 17.5 L352 17.5" fill="none" stroke="white" stroke-width="1.2" stroke-linecap="round" stroke-linejoin="round"/>
  <path d="M598 17.5 L940.5 17.5" fill="none" stroke="white" stroke-width="1.2" stroke-linecap="round" stroke-linejoin="round"/>
</svg>
