<?xml version="1.0" encoding="UTF-8"?>
<svg width="950" height="35" viewBox="0 0 950 35" fill="none" xmlns="http://www.w3.org/2000/svg">
  <path d="M332.2303 17.9224 L333.1688 19.8934 L335.7497 22.7092 L338.3306 24.3986 L339.5037 24.6802 L340.9115 25.8065 L340.9115 31.7196 L341.3807 33.1275 L350.5311 33.1275 L351.9389 32.2828 L353.3466 32.2828 L355.6929 33.4091 L358.0391 33.4091 L360.1508 32.8459 L361.3239 31.7196 L362.2624 31.7196 L363.4355 32.5643 L365.0779 33.1275 L367.6588 33.1275 L367.8934 33.4091 L373.0552 33.1275 L373.5244 32.5643 L373.5244 26.9328 L374.2283 25.8065 L376.5746 24.6802 L379.6247 22.146 L380.7978 21.8645 L381.2671 22.146 L381.9709 21.8645 L382.2056 22.146 L397.9255 22.146 L398.6294 21.8645 L398.3947 21.3013 L381.2671 21.3013 L380.7978 20.4565 L381.7363 19.6118 L400.0371 19.6118 L400.2717 19.3303 L403.3219 19.6118 L403.5565 19.3303 L403.3219 18.7671 L402.3834 19.0487 L401.9141 17.9224 L388.3058 17.9224 L388.0712 17.6408 L382.9094 17.6408 L382.6748 17.9224 L381.9709 17.6408 L379.1554 13.9803 L376.8092 12.0092 L374.2283 10.6014 L373.5244 9.7566 L373.5244 2.7172 L372.5859 1.8725 L364.374 1.8725 L362.9663 2.1541 L361.5585 2.9988 L357.8045 1.5909 L355.2236 1.8725 L353.8159 2.7172 L352.4081 2.7172 L350.5311 1.8725 L342.5538 1.8725 L341.3807 2.4357 L340.9115 3.2804 L340.9115 8.9119 L339.973 10.0382 L337.8613 11.1645 L336.2189 12.5724 L332.9342 16.5145 L332.2303 17.9224 Z" fill-rule="evenodd" clip-rule="evenodd" fill="white" stroke="none"/>
  <path d="M617.7697 17.3592 L609.5578 9.475 L609.0885 2.1541 L600.642 1.8725 L597.5919 3.2804 L592.4301 1.5909 L589.8492 2.7172 L577.1795 2.4357 L576.4756 9.475 L571.0792 13.4171 L568.2637 17.6408 L403.7911 18.4855 L405.1989 19.6118 L568.9676 19.6118 L569.6714 21.3013 L407.5451 21.8645 L571.3138 22.146 L576.7102 25.8065 L576.7102 32.0012 L577.6487 33.1275 L589.38 32.2828 L594.5418 33.4091 L598.2958 31.7196 L600.8767 33.1275 L608.3846 33.4091 L609.7924 32.2828 L610.027 26.0881 L615.4234 22.146 L617.7697 17.3592 Z" fill-rule="evenodd" clip-rule="evenodd" fill="white" stroke="none"/>
  <path d="M355.6929 7.2224 L355.6929 7.7856 L354.7544 8.9119 L354.5197 8.9119 L354.2851 9.1935 L353.8159 9.1935 L353.3466 8.6303 L353.112 8.6303 L352.4081 7.7856 L352.1735 7.7856 L351.9389 7.504 L351.7042 7.504 L351.235 6.9409 L350.7657 6.9409 L350.5311 6.6593 L349.8272 6.6593 L349.5926 6.3777 L348.4195 6.3777 L348.1849 6.0961 L345.1347 6.0961 L344.6655 6.6593 L344.6655 10.3198 L344.4308 10.6014 L344.4308 10.883 L344.6655 11.1645 L344.6655 19.0487 L344.4308 19.3303 L344.4308 19.6118 L343.9616 20.175 L343.727 20.175 L343.4923 20.4565 L342.7885 20.4565 L342.0846 19.8934 L342.0846 19.6118 L341.85 19.3303 L341.85 15.1066 L341.6153 14.825 L341.6153 4.4067 L341.85 4.1251 L341.85 3.5619 L342.0846 3.2804 L342.3192 3.2804 L342.5538 2.9988 L343.4923 2.9988 L343.727 2.7172 L349.8272 2.7172 L350.0619 2.9988 L350.7657 2.9988 L351.0004 3.2804 L351.235 3.2804 L351.4696 3.5619 L351.7042 3.5619 L351.9389 3.8435 L352.1735 3.8435 L352.4081 4.1251 L353.112 4.4067 L354.0505 5.533 L354.2851 5.533 L355.6929 7.2224 Z" fill-rule="evenodd" clip-rule="evenodd" fill="white" stroke="none"/>
  <path d="M352.1735 14.5434 L352.1735 13.9803 L352.4081 13.6987 L352.4081 13.4171 L352.6427 13.1356 L352.8774 13.1356 L357.8045 7.2224 L358.5084 6.9409 L358.5084 6.6593 L358.2738 6.3777 L357.8045 6.3777 L357.5699 6.0961 L356.1621 6.0961 L355.9275 5.8146 L355.2236 5.533 L354.2851 4.1251 L354.2851 3.5619 L354.7544 2.9988 L355.2236 2.9988 L355.4582 2.7172 L358.5084 2.7172 L358.743 2.9988 L359.2123 2.9988 L359.4469 3.2804 L359.6815 3.2804 L359.9161 3.5619 L360.62 3.8435 L361.5585 4.9698 L361.7931 4.9698 L362.497 5.8146 L362.7316 5.8146 L363.6701 6.9409 L363.9048 6.9409 L365.3125 8.6303 L365.3125 8.9119 L365.5471 9.1935 L365.5471 10.0382 L364.374 11.4461 L363.6701 11.4461 L362.9663 10.6014 L362.7316 10.6014 L361.3239 8.9119 L361.0893 8.9119 L360.8546 8.6303 L360.3854 8.6303 L357.5699 12.0092 L357.5699 12.2908 L356.1621 13.9803 L356.1621 14.2619 L354.989 15.6697 L354.989 15.9513 L354.2851 16.5145 L354.0505 16.5145 L353.5812 15.9513 L353.3466 15.9513 L352.1735 14.5434 Z" fill-rule="evenodd" clip-rule="evenodd" fill="white" stroke="none"/>
  <path d="M362.2624 3.5619 L362.9663 2.9988 L364.1394 2.9988 L364.374 2.7172 L371.6474 2.7172 L371.882 2.9988 L372.1167 2.9988 L372.5859 3.5619 L372.5859 4.1251 L372.8205 4.4067 L372.8205 9.1935 L372.1167 10.0382 L371.4128 10.0382 L371.1782 9.7566 L370.2397 9.7566 L369.7704 9.1935 L369.7704 8.9119 L369.5358 8.6303 L369.5358 6.6593 L369.3012 6.3777 L365.0779 6.3777 L364.374 5.8146 L363.9048 5.8146 L362.2624 3.8435 L362.2624 3.5619 Z" fill-rule="evenodd" clip-rule="evenodd" fill="white" stroke="none"/>
  <path d="M591.4916 6.6593 L591.4916 6.9409 L591.9609 7.504 L591.9609 7.7856 L591.0224 8.9119 L590.7877 8.9119 L590.5531 9.1935 L589.8492 9.1935 L589.38 8.6303 L589.1454 8.6303 L588.4415 7.7856 L588.2069 7.7856 L587.7376 7.2224 L587.503 7.2224 L586.7991 6.6593 L586.0952 6.6593 L585.8606 6.3777 L584.6875 6.3777 L584.4528 6.0961 L580.9335 6.0961 L580.4642 6.9409 L580.4642 10.6014 L580.6988 10.883 L580.6988 18.4855 L580.4642 18.7671 L580.4642 19.3303 L579.7603 20.175 L579.2911 20.175 L579.0564 20.4565 L578.5872 20.4565 L578.118 19.8934 L578.118 19.6118 L577.8833 19.3303 L577.8833 18.2039 L577.6487 17.9224 L577.6487 3.8435 L578.3526 2.9988 L579.5257 2.9988 L579.7603 2.7172 L585.626 2.7172 L585.8606 2.9988 L587.0337 2.9988 L587.2684 3.2804 L587.503 3.2804 L587.7376 3.5619 L588.4415 3.8435 L589.6146 4.9698 L589.8492 4.9698 L590.7877 6.0961 L591.0224 6.0961 L591.4916 6.6593 Z" fill-rule="evenodd" clip-rule="evenodd" fill="white" stroke="none"/>
  <path d="M588.2069 14.825 L588.2069 13.9803 L593.8379 7.2224 L594.5418 6.9409 L594.5418 6.3777 L594.0725 6.3777 L593.8379 6.0961 L592.8994 6.0961 L592.6648 5.8146 L591.9609 5.8146 L591.7262 5.533 L591.4916 5.533 L590.3185 4.1251 L590.3185 3.8435 L591.0224 2.9988 L591.4916 2.9988 L591.7262 2.7172 L594.5418 2.7172 L594.7764 2.9988 L595.4802 2.9988 L595.7149 3.2804 L596.4187 3.5619 L596.888 4.1251 L597.1226 4.1251 L598.0611 5.2514 L598.2958 5.2514 L598.9996 6.0961 L599.2343 6.0961 L600.1728 7.2224 L600.4074 7.2224 L601.3459 8.3488 L601.3459 8.6303 L601.8151 9.475 L601.8151 9.7566 L600.4074 11.4461 L599.7035 11.4461 L598.0611 9.475 L597.8265 9.475 L597.3572 8.9119 L596.4187 8.9119 L590.3185 16.2329 L589.6146 16.2329 L589.38 15.9513 L589.1454 15.9513 L588.2069 14.825 Z" fill-rule="evenodd" clip-rule="evenodd" fill="white" stroke="none"/>
  <path d="M598.5304 3.5619 L598.765 3.2804 L599.2343 3.2804 L599.4689 2.9988 L603.2229 2.9988 L603.4575 2.7172 L607.6808 2.7172 L607.9154 2.9988 L608.15 2.9988 L608.6193 3.8435 L608.6193 9.1935 L608.15 10.0382 L607.9154 10.0382 L607.6808 9.7566 L606.273 9.7566 L605.8038 9.1935 L605.8038 6.9409 L605.5691 6.6593 L605.5691 6.3777 L601.3459 6.3777 L601.1112 6.0961 L600.642 6.0961 L600.4074 5.8146 L600.1728 5.8146 L599.7035 5.2514 L599.4689 5.2514 L598.765 4.4067 L598.5304 3.5619 Z" fill-rule="evenodd" clip-rule="evenodd" fill="white" stroke="none"/>
  <path d="M351.0004 7.7856 L351.235 8.0672 L351.4696 8.0672 L352.4081 9.1935 L352.4081 9.7566 L352.1735 10.0382 L352.1735 10.3198 L351.0004 11.7277 L350.7657 11.7277 L350.0619 12.2908 L349.8272 12.0092 L349.5926 12.0092 L348.6541 10.883 L348.6541 10.3198 L348.8887 10.0382 L349.1234 9.1935 L350.0619 8.0672 L350.2965 8.0672 L350.5311 7.7856 L351.0004 7.7856 Z" fill-rule="evenodd" clip-rule="evenodd" fill="white" stroke="none"/>
  <path d="M587.7376 8.0672 L588.2069 8.6303 L588.2069 8.9119 L588.4415 9.1935 L588.4415 9.7566 L587.9722 10.3198 L587.9722 10.6014 L586.7991 12.0092 L586.5645 12.0092 L586.3299 12.2908 L585.626 12.2908 L585.3913 12.0092 L585.1567 12.0092 L584.4528 11.1645 L584.4528 10.6014 L584.6875 10.3198 L584.9221 9.475 L586.0952 8.0672 L586.3299 8.0672 L586.5645 7.7856 L587.2684 7.7856 L587.503 8.0672 L587.7376 8.0672 Z" fill-rule="evenodd" clip-rule="evenodd" fill="white" stroke="none"/>
  <path d="M363.9048 13.6987 L364.374 13.1356 L364.374 12.854 L364.6086 12.5724 L364.8433 12.5724 L365.5471 11.7277 L365.7818 11.7277 L366.4857 11.1645 L366.9549 11.1645 L367.1895 10.883 L367.6588 10.883 L367.8934 10.6014 L372.1167 10.6014 L372.3513 10.883 L372.8205 10.883 L373.0552 11.1645 L373.5244 11.1645 L373.759 11.4461 L374.2283 11.4461 L374.4629 11.7277 L374.6976 11.7277 L374.9322 12.0092 L375.636 12.2908 L376.1053 12.854 L376.3399 12.854 L376.8092 13.4171 L377.0438 13.4171 L377.9823 14.5434 L378.2169 14.5434 L380.0939 16.7961 L380.0939 17.0776 L380.5632 17.6408 L380.5632 18.7671 L380.3286 19.0487 L380.3286 19.3303 L379.8593 19.8934 L379.8593 20.175 L378.2169 22.146 L377.9823 22.146 L376.8092 23.2723 L376.5746 23.2723 L376.3399 23.5539 L376.1053 23.5539 L375.8707 23.8355 L375.636 23.8355 L374.4629 24.6802 L373.9937 24.6802 L373.5244 24.117 L373.5244 22.146 L373.759 21.8645 L373.759 21.5829 L373.9937 21.3013 L374.2283 21.3013 L374.6976 20.7381 L375.4014 20.4565 L376.1053 19.6118 L376.3399 19.6118 L376.8092 19.0487 L376.8092 18.7671 L377.0438 18.4855 L376.8092 17.6408 L375.636 16.2329 L375.4014 16.2329 L374.6976 15.3882 L374.4629 15.3882 L374.2283 15.1066 L373.9937 15.1066 L372.8205 14.2619 L372.3513 14.2619 L372.1167 13.9803 L371.1782 13.9803 L370.9435 13.6987 L370.005 13.6987 L369.7704 13.9803 L368.5973 13.9803 L368.3627 14.2619 L367.8934 14.2619 L367.6588 14.5434 L367.4242 14.5434 L367.1895 14.825 L366.9549 14.825 L365.7818 15.6697 L365.0779 15.6697 L364.1394 14.5434 L363.9048 13.6987 Z" fill-rule="evenodd" clip-rule="evenodd" fill="white" stroke="none"/>
  <path d="M599.9381 13.4171 L600.8767 12.2908 L601.1112 12.2908 L601.8151 11.4461 L602.0498 11.4461 L602.2844 11.1645 L602.7537 11.1645 L602.9883 10.883 L603.4575 10.883 L603.6922 10.6014 L608.15 10.6014 L608.3846 10.883 L609.0885 10.883 L609.3232 11.1645 L609.7924 11.1645 L610.027 11.4461 L610.2617 11.4461 L610.4963 11.7277 L610.7309 11.7277 L610.9656 12.0092 L611.2002 12.0092 L611.4348 12.2908 L611.6694 12.2908 L611.904 12.5724 L612.6079 12.854 L613.3118 13.6987 L613.5464 13.6987 L614.4849 14.825 L614.7196 14.825 L616.5965 17.3592 L616.5965 18.7671 L616.3619 19.0487 L616.3619 19.3303 L614.2503 21.8645 L614.0157 21.8645 L613.3118 22.7092 L613.0772 22.7092 L611.904 23.8355 L611.6694 23.8355 L610.4963 24.6802 L610.027 24.6802 L609.5578 23.8355 L609.5578 21.8645 L610.2617 21.0197 L610.4963 21.0197 L610.7309 20.7381 L610.9656 20.7381 L611.4348 20.175 L611.6694 20.175 L612.6079 19.0487 L612.8426 19.0487 L612.8426 18.7671 L613.0772 18.4855 L613.0772 17.9224 L611.2002 15.6697 L610.9656 15.6697 L610.4963 15.1066 L610.2617 15.1066 L609.0885 14.2619 L608.3846 14.2619 L608.15 13.9803 L607.4462 13.9803 L607.2115 13.6987 L605.5691 13.6987 L605.3345 13.9803 L604.396 13.9803 L604.1614 14.2619 L603.6922 14.2619 L603.4575 14.5434 L603.2229 14.5434 L602.7537 15.1066 L602.519 15.1066 L602.0498 15.6697 L601.3459 15.9513 L599.9381 14.2619 L599.9381 13.4171 Z" fill-rule="evenodd" clip-rule="evenodd" fill="white" stroke="none"/>
  <path d="M333.4034 17.9224 L333.6381 17.6408 L333.6381 17.3592 L334.3419 16.5145 L334.3419 16.2329 L335.9843 14.2619 L336.2189 14.2619 L337.1574 13.1356 L337.3921 13.1356 L338.5652 12.0092 L338.7998 12.0092 L339.0345 11.7277 L339.2691 11.7277 L340.4422 10.883 L340.9115 11.4461 L340.9115 13.1356 L340.6768 13.4171 L340.6768 13.9803 L339.5037 15.3882 L339.2691 15.3882 L338.5652 16.2329 L338.3306 16.2329 L337.3921 17.3592 L337.3921 18.2039 L338.096 19.0487 L338.3306 19.0487 L339.5037 20.175 L339.7383 20.175 L339.973 20.4565 L340.4422 20.4565 L340.6768 20.7381 L341.3807 20.7381 L341.6153 21.0197 L343.9616 21.0197 L344.1962 20.7381 L344.6655 20.7381 L344.9001 20.4565 L345.3693 20.4565 L345.8386 19.8934 L346.5425 19.6118 L347.0117 19.0487 L347.2464 19.0487 L348.4195 17.9224 L348.8887 17.9224 L349.1234 18.2039 L349.358 18.2039 L350.5311 19.6118 L350.5311 19.8934 L349.1234 21.5829 L348.8887 21.5829 L348.1849 22.4276 L347.481 22.7092 L347.0117 23.2723 L346.7771 23.2723 L346.5425 23.5539 L346.0732 23.5539 L345.8386 23.8355 L345.604 23.8355 L345.3693 24.117 L344.9001 24.117 L344.6655 24.3986 L343.727 24.3986 L343.4923 24.6802 L342.5538 24.6802 L342.3192 24.3986 L341.1461 24.3986 L340.9115 24.117 L340.4422 24.117 L340.2076 23.8355 L339.7383 23.8355 L339.5037 23.5539 L339.0345 23.5539 L338.7998 23.2723 L338.5652 23.2723 L338.3306 22.9907 L338.096 22.9907 L337.8613 22.7092 L337.1574 22.4276 L336.6882 21.8645 L336.4536 21.8645 L335.2804 20.4565 L335.0458 20.4565 L334.8112 20.175 L334.8112 19.8934 L334.5766 19.8934 L334.3419 19.6118 L334.3419 19.3303 L333.6381 18.4855 L333.6381 18.2039 L333.4034 17.9224 Z" fill-rule="evenodd" clip-rule="evenodd" fill="white" stroke="none"/>
  <path d="M345.604 11.4461 L346.3078 10.883 L346.7771 10.883 L347.0117 11.1645 L347.7156 11.4461 L348.4195 12.2908 L348.6541 12.2908 L349.358 13.1356 L349.5926 13.1356 L350.7657 14.5434 L351.0004 14.5434 L352.1735 15.9513 L352.4081 15.9513 L353.5812 17.3592 L353.8159 17.3592 L354.989 18.7671 L355.2236 18.7671 L355.6929 19.3303 L355.6929 19.6118 L356.1621 20.175 L356.1621 20.4565 L354.989 21.8645 L354.2851 21.8645 L354.0505 21.5829 L353.8159 21.5829 L353.3466 21.0197 L353.112 21.0197 L352.1735 19.8934 L351.9389 19.8934 L350.7657 18.4855 L350.5311 18.4855 L349.8272 17.6408 L349.5926 17.6408 L348.4195 16.2329 L348.1849 16.2329 L347.481 15.3882 L347.2464 15.3882 L346.7771 14.825 L346.5425 14.825 L345.604 13.6987 L345.604 13.4171 L345.3693 13.1356 L345.3693 12.0092 L345.604 11.7277 L345.604 11.4461 Z" fill-rule="evenodd" clip-rule="evenodd" fill="white" stroke="none"/>
  <path d="M569.6714 17.3592 L569.906 17.0776 L569.906 16.7961 L570.3753 16.2329 L570.3753 15.9513 L572.7216 13.1356 L572.9562 13.1356 L573.4254 12.5724 L573.6601 12.5724 L574.8332 11.4461 L575.0678 11.4461 L575.7717 10.883 L576.241 10.883 L576.7102 11.4461 L576.7102 13.1356 L576.4756 13.4171 L576.4756 13.9803 L575.5371 15.1066 L575.3025 15.1066 L574.364 16.2329 L574.1293 16.2329 L573.4254 17.0776 L573.4254 17.9224 L573.6601 18.2039 L573.6601 18.4855 L574.1293 19.0487 L574.364 19.0487 L574.8332 19.6118 L575.0678 19.6118 L575.3025 19.8934 L575.5371 19.8934 L576.7102 20.7381 L577.4141 20.7381 L577.6487 21.0197 L579.7603 21.0197 L579.995 20.7381 L580.6988 20.7381 L580.9335 20.4565 L581.1681 20.4565 L581.4027 20.175 L581.6374 20.175 L581.872 19.8934 L582.5758 19.6118 L583.0451 19.0487 L583.2797 19.0487 L584.2182 17.9224 L585.1567 17.9224 L586.5645 19.6118 L586.3299 19.8934 L586.3299 20.175 L585.3913 21.3013 L585.1567 21.3013 L584.4528 22.146 L584.2182 22.146 L583.749 22.7092 L583.5143 22.7092 L583.2797 22.9907 L583.0451 22.9907 L582.8105 23.2723 L582.5758 23.2723 L581.4027 24.117 L580.9335 24.117 L580.6988 24.3986 L579.5257 24.3986 L579.2911 24.6802 L578.8218 24.6802 L578.5872 24.3986 L577.1795 24.3986 L576.9448 24.117 L576.241 24.117 L575.5371 23.5539 L575.0678 23.5539 L574.8332 23.2723 L574.5986 23.2723 L574.364 22.9907 L573.6601 22.7092 L573.1908 22.146 L572.9562 22.146 L572.4869 21.5829 L572.2523 21.5829 L569.906 18.7671 L569.906 18.4855 L569.6714 18.2039 L569.6714 17.3592 Z" fill-rule="evenodd" clip-rule="evenodd" fill="white" stroke="none"/>
  <path d="M581.4027 11.4461 L581.872 10.883 L582.5758 10.883 L582.8105 11.1645 L583.0451 11.1645 L583.5143 11.7277 L583.749 11.7277 L584.2182 12.2908 L584.4528 12.2908 L585.3913 13.4171 L585.626 13.4171 L586.5645 14.5434 L586.7991 14.5434 L587.7376 15.6697 L587.9722 15.6697 L588.9107 16.7961 L589.1454 16.7961 L590.0839 17.9224 L590.3185 17.9224 L592.1955 20.175 L592.1955 20.7381 L591.4916 21.5829 L591.257 21.5829 L591.0224 21.8645 L589.8492 21.8645 L589.1454 21.0197 L588.9107 21.0197 L587.7376 19.6118 L587.503 19.6118 L586.5645 18.4855 L586.3299 18.4855 L585.1567 17.0776 L584.9221 17.0776 L583.9836 15.9513 L583.749 15.9513 L583.0451 15.1066 L582.8105 15.1066 L581.4027 13.4171 L581.4027 12.854 L581.1681 12.5724 L581.1681 12.2908 L581.4027 12.0092 L581.4027 11.4461 Z" fill-rule="evenodd" clip-rule="evenodd" fill="white" stroke="none"/>
  <path d="M358.0391 12.5724 L359.2123 11.4461 L359.9161 11.4461 L360.1508 11.7277 L360.3854 11.7277 L363.4355 15.3882 L363.6701 15.3882 L368.128 20.7381 L368.3627 20.7381 L368.8319 21.3013 L368.8319 21.5829 L369.0665 21.8645 L369.0665 23.5539 L368.8319 23.8355 L368.8319 24.117 L368.5973 24.3986 L367.8934 24.3986 L367.6588 24.117 L366.9549 23.8355 L364.6086 21.0197 L364.374 21.0197 L364.1394 20.7381 L364.1394 20.4565 L363.9048 20.4565 L358.2738 13.6987 L358.2738 13.4171 L358.0391 13.1356 L358.0391 12.5724 Z" fill-rule="evenodd" clip-rule="evenodd" fill="white" stroke="none"/>
  <path d="M593.8379 13.1356 L595.011 11.7277 L596.1841 11.7277 L596.6534 12.2908 L596.888 12.2908 L600.4074 16.5145 L600.642 16.5145 L600.8767 16.7961 L600.8767 17.0776 L601.1112 17.0776 L603.6922 20.175 L603.9268 20.175 L605.0999 21.5829 L605.0999 21.8645 L605.3345 22.146 L605.3345 23.5539 L604.6306 24.3986 L603.6922 24.3986 L603.2229 23.8355 L602.9883 23.8355 L600.4074 20.7381 L600.1728 20.7381 L597.3572 17.3592 L597.1226 17.3592 L594.0725 13.6987 L594.0725 13.4171 L593.8379 13.1356 Z" fill-rule="evenodd" clip-rule="evenodd" fill="white" stroke="none"/>
  <path d="M371.882 14.5434 L372.5859 15.3882 L372.5859 15.9513 L372.8205 16.2329 L372.8205 31.1565 L372.3513 32.0012 L370.2397 32.0012 L370.005 32.2828 L366.9549 32.2828 L366.7203 32.0012 L364.6086 32.0012 L364.374 31.7196 L364.1394 31.7196 L363.9048 31.4381 L363.2009 31.1565 L362.7316 30.5933 L362.497 30.5933 L361.7931 29.7486 L361.5585 29.7486 L360.62 28.6223 L360.3854 28.6223 L359.6815 27.7776 L359.4469 27.7776 L358.0391 26.0881 L358.0391 25.8065 L358.5084 25.2434 L358.5084 24.9618 L359.2123 24.117 L359.4469 24.117 L359.9161 23.5539 L360.1508 23.5539 L360.62 24.117 L360.8546 24.117 L362.7316 26.3697 L362.9663 26.3697 L363.9048 27.496 L364.1394 27.496 L364.6086 28.0591 L364.8433 28.0591 L365.0779 28.3407 L365.5471 28.3407 L365.7818 28.6223 L366.251 28.6223 L366.4857 28.9039 L368.8319 28.9039 L369.0665 29.1854 L369.5358 29.1854 L370.005 28.6223 L370.005 23.8355 L369.7704 23.5539 L369.7704 23.2723 L370.005 22.9907 L370.005 22.7092 L369.7704 22.4276 L369.7704 15.3882 L370.2397 14.5434 L371.882 14.5434 Z" fill-rule="evenodd" clip-rule="evenodd" fill="white" stroke="none"/>
  <path d="M608.6193 15.3882 L608.6193 15.6697 L608.8539 15.9513 L608.8539 31.4381 L608.3846 32.0012 L600.8767 32.0012 L600.642 31.7196 L600.4074 31.7196 L600.1728 31.4381 L599.4689 31.1565 L598.9996 30.5933 L598.765 30.5933 L598.2958 30.0302 L598.0611 30.0302 L597.5919 29.467 L597.3572 29.467 L596.4187 28.3407 L596.1841 28.3407 L594.0725 26.0881 L594.5418 25.525 L594.5418 25.2434 L595.2456 24.3986 L595.2456 24.117 L595.4802 23.8355 L595.7149 23.8355 L595.9495 23.5539 L596.4187 23.5539 L598.0611 25.525 L598.2958 25.525 L599.4689 26.9328 L599.7035 26.9328 L600.4074 27.7776 L600.642 27.7776 L601.3459 28.3407 L602.0498 28.3407 L602.2844 28.6223 L603.6922 28.6223 L603.9268 28.9039 L605.8038 28.9039 L606.0384 28.6223 L606.0384 15.1066 L606.5076 14.5434 L607.9154 14.5434 L608.6193 15.3882 Z" fill-rule="evenodd" clip-rule="evenodd" fill="white" stroke="none"/>
  <path d="M360.8546 17.9224 L361.5585 18.7671 L361.5585 19.8934 L356.866 25.525 L356.6314 25.525 L355.6929 26.6512 L354.7544 26.6512 L353.8159 25.525 L353.8159 25.2434 L353.5812 24.9618 L353.8159 24.6802 L353.8159 24.3986 L354.989 22.9907 L355.2236 22.9907 L355.2236 22.7092 L355.9275 21.8645 L356.1621 21.8645 L359.4469 17.9224 L359.6815 17.9224 L359.9161 17.6408 L360.3854 17.6408 L360.62 17.9224 L360.8546 17.9224 Z" fill-rule="evenodd" clip-rule="evenodd" fill="white" stroke="none"/>
  <path d="M596.6534 17.6408 L597.5919 18.7671 L597.5919 19.8934 L596.888 20.7381 L596.888 21.0197 L595.4802 22.7092 L595.2456 22.7092 L592.4301 26.0881 L592.1955 26.0881 L591.7262 26.6512 L590.7877 26.6512 L590.5531 26.3697 L590.3185 26.3697 L589.8492 25.8065 L589.6146 24.9618 L593.134 20.7381 L593.3686 20.7381 L593.3686 20.4565 L593.6033 20.175 L593.8379 20.175 L595.7149 17.9224 L595.9495 17.9224 L596.1841 17.6408 L596.6534 17.6408 Z" fill-rule="evenodd" clip-rule="evenodd" fill="white" stroke="none"/>
  <path d="M399.0986 21.5829 L399.0986 21.8645 L399.5679 21.8645 L399.8025 22.146 L404.7296 22.146 L404.9643 21.8645 L406.8413 21.8645 L406.8413 21.3013 L406.6066 21.3013 L406.372 21.5829 L404.7296 21.5829 L404.495 21.3013 L400.0371 21.3013 L399.8025 21.5829 L399.0986 21.5829 Z" fill-rule="evenodd" clip-rule="evenodd" fill="white" stroke="none"/>
  <path d="M364.1394 22.4276 L364.6086 22.4276 L365.0779 22.9907 L365.3125 22.9907 L365.7818 23.5539 L365.7818 23.8355 L366.0164 24.117 L366.0164 25.2434 L364.8433 26.6512 L364.374 26.6512 L364.1394 26.3697 L363.9048 26.3697 L362.9663 25.2434 L362.9663 24.6802 L362.7316 24.3986 L362.9663 24.117 L362.9663 23.8355 L364.1394 22.4276 Z" fill-rule="evenodd" clip-rule="evenodd" fill="white" stroke="none"/>
  <path d="M600.1728 22.4276 L600.642 22.4276 L600.8767 22.7092 L601.1112 22.7092 L601.8151 23.5539 L601.8151 23.8355 L602.2844 24.6802 L602.0498 25.525 L601.1112 26.6512 L600.642 26.6512 L600.1728 26.0881 L599.9381 26.0881 L599.2343 25.2434 L599.2343 24.9618 L598.9996 24.6802 L598.9996 23.8355 L600.1728 22.4276 Z" fill-rule="evenodd" clip-rule="evenodd" fill="white" stroke="none"/>
  <path d="M583.0451 24.3986 L583.749 23.5539 L583.9836 23.5539 L584.4528 22.9907 L584.6875 22.9907 L584.9221 22.7092 L585.1567 22.9907 L585.8606 23.2723 L586.7991 24.3986 L587.0337 24.3986 L588.2069 25.8065 L588.4415 25.8065 L589.1454 26.6512 L589.38 26.6512 L589.8492 27.2144 L590.0839 27.2144 L591.257 28.0591 L591.7262 28.0591 L591.9609 28.3407 L592.8994 28.3407 L593.134 28.6223 L593.6033 28.6223 L593.8379 28.3407 L594.7764 28.3407 L595.011 28.6223 L595.2456 28.6223 L596.888 30.5933 L596.888 30.8749 L596.1841 31.7196 L595.9495 31.7196 L595.7149 32.0012 L595.2456 32.0012 L595.011 32.2828 L594.0725 32.2828 L593.8379 32.5643 L592.8994 32.5643 L592.6648 32.2828 L591.7262 32.2828 L591.4916 32.0012 L591.0224 32.0012 L590.7877 31.7196 L590.5531 31.7196 L590.3185 31.4381 L590.0839 31.4381 L589.8492 31.1565 L589.1454 30.8749 L588.6761 30.3118 L587.9722 30.0302 L587.2684 29.1854 L587.0337 29.1854 L586.0952 28.0591 L585.8606 28.0591 L584.9221 26.9328 L584.6875 26.9328 L583.2797 25.2434 L583.0451 24.3986 Z" fill-rule="evenodd" clip-rule="evenodd" fill="white" stroke="none"/>
  <path d="M347.0117 24.3986 L347.7156 23.5539 L347.9502 23.5539 L348.6541 22.9907 L349.358 22.9907 L349.8272 23.5539 L350.0619 23.5539 L351.0004 24.6802 L351.235 24.6802 L351.9389 25.525 L352.1735 25.525 L353.112 26.6512 L353.3466 26.6512 L353.8159 27.2144 L354.0505 27.2144 L354.2851 27.496 L354.5197 27.496 L355.6929 28.3407 L356.3967 28.3407 L356.6314 28.6223 L358.0391 28.6223 L358.2738 28.3407 L358.743 28.3407 L360.62 30.5933 L360.62 31.1565 L359.4469 32.0012 L358.9776 32.0012 L358.743 32.2828 L357.8045 32.2828 L357.5699 32.5643 L356.6314 32.5643 L356.3967 32.2828 L355.6929 32.2828 L355.4582 32.0012 L354.7544 32.0012 L354.5197 31.7196 L354.2851 31.7196 L354.0505 31.4381 L353.3466 31.1565 L352.6427 30.3118 L352.4081 30.3118 L351.9389 29.7486 L351.7042 29.7486 L351.0004 28.9039 L350.7657 28.9039 L350.0619 28.0591 L349.8272 28.0591 L349.1234 27.2144 L348.8887 27.2144 L347.0117 24.9618 L347.0117 24.3986 Z" fill-rule="evenodd" clip-rule="evenodd" fill="white" stroke="none"/>
  <path d="M341.85 26.0881 L342.5538 25.525 L344.1962 25.525 L344.6655 26.0881 L344.6655 26.3697 L344.9001 26.6512 L344.9001 28.9039 L347.0117 28.9039 L347.2464 28.6223 L347.9502 28.6223 L348.1849 28.3407 L348.8887 28.3407 L349.5926 29.1854 L349.8272 29.1854 L351.235 30.8749 L351.235 31.1565 L350.7657 31.7196 L350.5311 31.7196 L350.2965 32.0012 L342.3192 32.0012 L341.85 31.4381 L341.85 26.0881 Z" fill-rule="evenodd" clip-rule="evenodd" fill="white" stroke="none"/>
  <path d="M577.6487 26.0881 L578.3526 25.525 L580.2296 25.525 L580.6988 26.0881 L580.6988 28.6223 L580.9335 28.9039 L582.8105 28.9039 L583.0451 28.6223 L583.5143 28.6223 L583.749 28.3407 L584.9221 28.3407 L585.1567 28.6223 L585.3913 28.6223 L586.3299 29.7486 L586.5645 29.7486 L587.2684 30.5933 L587.2684 31.1565 L586.7991 31.7196 L586.0952 31.7196 L585.8606 32.0012 L581.872 32.0012 L581.6374 32.2828 L579.7603 32.2828 L579.5257 32.0012 L578.118 32.0012 L577.6487 31.4381 L577.6487 26.0881 Z" fill-rule="evenodd" clip-rule="evenodd" fill="white" stroke="none"/>
</svg>
