<?xml version="1.0" encoding="UTF-8"?>
<svg width="950" height="35" viewBox="0 0 950 35" fill="none" xmlns="http://www.w3.org/2000/svg">
  <path d="M9.5 16.8579 L198.5388 16.8579 L198.5388 21.8579 L9.5 21.8579 Z" fill-rule="evenodd" clip-rule="evenodd" fill="white" stroke="none"/>
  <path d="M760.0833 16.8579 L940.5 16.8579 L940.5 21.8579 L760.0833 21.8579 Z" fill-rule="evenodd" clip-rule="evenodd" fill="white" stroke="none"/>
  <path d="M9.5 17.1826 L198.5388 17.1826 L198.5388 22.1826 L9.5 22.1826 Z" fill-rule="evenodd" clip-rule="evenodd" fill="white" stroke="none"/>
  <path d="M760.0833 17.1826 L940.5 17.1826 L940.5 22.1826 L760.0833 22.1826 Z" fill-rule="evenodd" clip-rule="evenodd" fill="white" stroke="none"/>
  <path d="M426.466 14.6531 C436.3671 1.5909 452.9865 3.6291 449.7193 14.6899 C446.8851 23.7393 436.4467 17.6869 440.8509 12.6639" fill="none" stroke="white" stroke-width="0.5" stroke-linecap="round" stroke-linejoin="round"/>
  <path d="M523.4867 14.8063 C513.4563 1.7126 496.8568 3.6984 500.2334 14.7696 C503.1571 23.8282 513.5359 17.8086 509.0818 12.7716" fill="none" stroke="white" stroke-width="0.5" stroke-linecap="round" stroke-linejoin="round"/>
  <path d="M426.5134 24.2341 C436.4145 11.1719 453.0339 13.21 449.7667 24.2708 C446.9325 33.3202 436.494 27.2678 440.8983 22.2448" fill="none" stroke="white" stroke-width="0.5" stroke-linecap="round" stroke-linejoin="round"/>
  <path d="M523.534 24.3872 C513.5037 11.2936 496.9041 13.2793 500.2807 24.3505 C503.2044 33.4091 513.5832 27.3895 509.1291 22.3525" fill="none" stroke="white" stroke-width="0.5" stroke-linecap="round" stroke-linejoin="round"/>
  <path d="M470.2544 19.5127 C470.2453 17.6607 468.5854 16.1568 466.5468 16.1536 C464.5083 16.1504 462.8633 17.6491 462.8724 19.5011 C462.8816 21.3531 464.5415 22.857 466.58 22.8602 C468.6185 22.8634 470.2636 21.3647 470.2544 19.5127 Z" fill-rule="evenodd" clip-rule="evenodd" fill="white" stroke="none"/>
  <path d="M487.1275 19.5394 C487.1184 17.6874 485.4585 16.1834 483.42 16.1802 C481.3815 16.177 479.7364 17.6757 479.7456 19.5277 C479.7547 21.3797 481.4147 22.8836 483.4531 22.8869 C485.4916 22.8901 487.1367 21.3913 487.1275 19.5394 Z" fill-rule="evenodd" clip-rule="evenodd" fill="white" stroke="none"/>
</svg>
