<?xml version="1.0" encoding="UTF-8"?>
<svg width="950" height="35" viewBox="0 0 950 35" fill="none" xmlns="http://www.w3.org/2000/svg">
  <path d="M370.3 12 L367.36 17.5 L371.56 24.1 L400.96 26.74 L403.9 17.5 L400.12 9.14 L373.24 14.2 Z" fill-rule="evenodd" clip-rule="evenodd" fill="#FFFFFF" stroke="#000000" stroke-width="1.4" stroke-linejoin="round" stroke-linecap="round"/>
  <path d="M374.5 17.5 A10.5 10.5 0 1 0 395.5 17.5 A10.5 10.5 0 1 0 374.5 17.5 Z" fill-rule="evenodd" clip-rule="evenodd" fill="#E02020" stroke="none"/>
  <path d="M385 17.5 L385 7 L394.0933 22.75 Z" fill-rule="evenodd" clip-rule="evenodd" fill="#000000" stroke="none"/>
  <path d="M385 17.5 L394.0933 22.75 L375.9067 22.75 Z" fill-rule="evenodd" clip-rule="evenodd" fill="#000000" stroke="none"/>
  <path d="M385 17.5 L375.9067 22.75 L385 7 Z" fill-rule="evenodd" clip-rule="evenodd" fill="#000000" stroke="none"/>
  <path d="M383 17.5 A2 2 0 1 0 387 17.5 A2 2 0 1 0 383 17.5 Z" fill-rule="evenodd" clip-rule="evenodd" fill="#000000" stroke="none"/>
  <path d="M550.3 12 L547.36 17.5 L551.56 24.1 L580.96 26.74 L583.9 17.5 L580.12 9.14 L553.24 14.2 Z" fill-rule="evenodd" clip-rule="evenodd" fill="#FFFFFF" stroke="#000000" stroke-width="1.4" stroke-linejoin="round" stroke-linecap="round"/>
  <path d="M554.5 17.5 A10.5 10.5 0 1 0 575.5 17.5 A10.5 10.5 0 1 0 554.5 17.5 Z" fill-rule="evenodd" clip-rule="evenodd" fill="#E02020" stroke="none"/>
  <path d="M565 17.5 L565 7 L574.0933 22.75 Z" fill-rule="evenodd" clip-rule="evenodd" fill="#000000" stroke="none"/>
  <path d="M565 17.5 L574.0933 22.75 L555.9067 22.75 Z" fill-rule="evenodd" clip-rule="evenodd" fill="#000000" stroke="none"/>
  <path d="M565 17.5 L555.9067 22.75 L565 7 Z" fill-rule="evenodd" clip-rule="evenodd" fill="#000000" stroke="none"/>
  <path d="M563 17.5 A2 2 0 1 0 567 17.5 A2 2 0 1 0 563 17.5 Z" fill-rule="evenodd" clip-rule="evenodd" fill="#000000" stroke="none"/>
</svg>
