<?xml version="1.0" standalone="no"?>
<!DOCTYPE svg PUBLIC "-//W3C//DTD SVG 20010904//EN"
 "http://www.w3.org/TR/2001/REC-SVG-20010904/DTD/svg10.dtd">
<svg version="1.0" xmlns="http://www.w3.org/2000/svg"
 width="1280.000000pt" height="1143.000000pt" viewBox="0 0 1280.000000 1143.000000"
 preserveAspectRatio="xMidYMid meet">
<metadata>
Created by potrace 1.15, written by Peter Selinger 2001-2017
</metadata>
<g transform="translate(0.000000,1143.000000) scale(0.100000,-0.100000)"
fill="#000000" stroke="none">
<path d="M8730 11416 c-24 -14 -70 -24 -270 -61 -117 -22 -275 -76 -381 -131
-83 -43 -123 -78 -172 -148 -10 -14 -36 -35 -57 -46 -34 -17 -150 -121 -255
-228 -58 -60 -95 -110 -95 -129 0 -11 -9 -32 -20 -45 -10 -14 -28 -49 -39 -79
-12 -30 -43 -87 -71 -128 -27 -41 -50 -81 -50 -90 0 -9 -6 -25 -14 -36 -7 -11
-16 -39 -19 -63 -3 -24 -17 -60 -31 -81 -14 -20 -26 -47 -26 -58 0 -12 -10
-29 -22 -37 -15 -11 -23 -31 -29 -71 -5 -35 -15 -65 -28 -78 -11 -12 -55 -60
-98 -105 -85 -92 -148 -136 -325 -231 -65 -34 -120 -66 -123 -72 -4 -5 -23
-18 -43 -28 -31 -16 -170 -133 -294 -246 -15 -14 -30 -25 -33 -25 -4 0 -30
-20 -57 -45 -28 -25 -56 -45 -63 -45 -7 0 -15 -6 -18 -14 -3 -8 -30 -22 -59
-31 -29 -10 -72 -26 -95 -36 -62 -28 -344 -70 -762 -114 -245 -26 -256 -23
-270 64 -5 29 -15 57 -22 62 -21 13 -71 11 -136 -6 -66 -17 -82 -18 -102 -6
-12 8 -10 16 13 49 20 29 26 50 24 74 -3 29 -8 34 -43 45 -22 6 -66 15 -98 18
-31 4 -55 11 -52 16 7 10 181 65 240 75 22 4 48 11 58 16 24 12 22 55 -4 68
-11 6 -90 16 -175 21 -270 17 -572 -13 -804 -81 -118 -34 -220 -49 -220 -32 0
47 400 263 641 347 211 74 204 70 188 113 -8 20 -14 22 -90 22 -169 0 -618
-109 -819 -200 -97 -43 -258 -96 -267 -87 -10 11 6 37 23 37 10 0 31 11 48 23
49 37 218 137 231 137 7 0 15 6 18 14 3 8 23 20 44 27 21 6 54 25 73 40 19 15
95 48 170 74 229 79 291 120 223 146 -92 36 -641 -43 -773 -111 -30 -16 -93
-46 -140 -68 -73 -33 -279 -151 -415 -237 -66 -41 -155 -116 -155 -129 0 -7
-11 -23 -25 -36 -21 -20 -35 -70 -20 -70 15 0 150 74 209 115 146 100 347 204
409 213 37 5 41 3 29 -10 -7 -9 -55 -46 -106 -82 -51 -36 -101 -75 -111 -86
-10 -11 -23 -20 -30 -20 -6 0 -36 -21 -65 -46 -30 -26 -66 -54 -80 -62 -14 -9
-65 -48 -115 -88 -49 -39 -102 -78 -117 -85 -34 -18 -96 -111 -104 -159 -4
-19 -14 -40 -22 -46 -25 -19 -10 -49 27 -52 35 -4 76 19 161 88 25 20 63 46
85 57 22 11 118 61 214 112 169 90 349 171 378 171 23 0 10 -23 -23 -40 -38
-20 -85 -51 -104 -67 -8 -8 -35 -27 -60 -43 -48 -32 -124 -90 -151 -115 -9 -8
-21 -15 -27 -15 -6 0 -25 -20 -42 -44 -18 -24 -78 -81 -133 -127 -118 -97
-397 -371 -397 -390 0 -7 -9 -22 -20 -34 -11 -12 -24 -44 -30 -73 -5 -28 -19
-70 -30 -92 -14 -27 -20 -56 -18 -83 3 -41 4 -42 40 -45 28 -2 42 2 55 17 10
12 25 21 35 21 9 0 22 9 28 20 6 11 18 20 27 20 9 0 21 7 27 16 18 24 145 111
211 144 58 29 105 39 105 22 0 -12 -126 -132 -138 -132 -6 0 -15 -14 -21 -30
-6 -17 -19 -43 -31 -57 -26 -33 -27 -102 -2 -133 13 -16 33 -24 77 -29 72 -8
85 -15 85 -45 0 -23 -37 -66 -57 -66 -6 0 -13 -7 -17 -15 -3 -8 -28 -31 -56
-51 -27 -20 -50 -42 -50 -49 0 -8 -24 -40 -54 -72 -107 -116 -126 -167 -86
-228 44 -67 16 -128 -75 -165 -30 -12 -55 -26 -55 -30 0 -7 -124 -98 -293
-215 -24 -16 -72 -55 -108 -86 -35 -31 -90 -75 -122 -98 -34 -25 -63 -55 -69
-71 -5 -16 -33 -46 -61 -68 -29 -21 -77 -67 -107 -101 -63 -72 -196 -221 -240
-269 -17 -18 -30 -38 -30 -45 0 -7 -21 -37 -46 -67 -25 -30 -63 -87 -85 -126
-21 -39 -48 -79 -59 -89 -11 -10 -20 -24 -20 -31 0 -8 -13 -20 -30 -29 -16 -9
-30 -20 -30 -26 0 -7 -20 -40 -45 -75 -25 -34 -48 -71 -52 -81 -3 -10 -19 -30
-35 -45 -15 -15 -28 -36 -28 -48 0 -13 -9 -24 -25 -30 -15 -6 -25 -17 -25 -29
0 -27 -56 -90 -86 -97 -13 -3 -24 -10 -24 -15 0 -5 -11 -14 -25 -19 -14 -5
-25 -14 -25 -20 0 -6 -33 -46 -73 -88 -40 -42 -82 -90 -93 -107 -26 -42 -98
-134 -134 -172 -16 -18 -30 -39 -30 -47 0 -8 -11 -28 -25 -44 -14 -17 -25 -38
-25 -48 0 -11 -14 -39 -30 -63 -17 -24 -30 -52 -30 -62 0 -9 -11 -31 -25 -47
-14 -17 -25 -41 -25 -54 0 -14 -11 -38 -25 -54 -14 -16 -45 -51 -69 -79 -24
-27 -48 -60 -55 -72 -16 -32 -13 -85 8 -134 10 -24 22 -64 26 -89 4 -25 15
-61 25 -80 10 -19 25 -84 34 -143 9 -59 25 -125 36 -147 11 -22 20 -49 20 -60
0 -12 24 -47 55 -79 30 -32 55 -61 55 -64 0 -3 11 -23 25 -43 14 -20 25 -51
25 -69 0 -18 9 -43 19 -56 10 -14 26 -41 34 -62 9 -20 20 -37 26 -37 5 0 15
-26 22 -57 7 -32 20 -71 29 -88 10 -16 23 -52 29 -80 7 -27 23 -69 37 -92 13
-23 24 -51 24 -62 0 -11 6 -24 14 -28 21 -12 85 -111 92 -142 4 -14 17 -36 30
-49 13 -13 24 -32 24 -42 0 -11 11 -30 24 -41 13 -12 27 -32 30 -45 4 -13 11
-24 17 -24 5 0 19 -21 30 -47 12 -29 50 -79 95 -124 44 -46 74 -85 74 -98 0
-24 56 -68 145 -113 123 -62 267 -176 286 -225 5 -13 16 -23 25 -23 16 0 70
-36 137 -91 18 -14 46 -33 63 -42 34 -17 55 -34 144 -114 32 -28 78 -64 102
-79 23 -15 64 -44 90 -65 26 -20 65 -43 85 -50 21 -6 52 -22 68 -34 17 -12 39
-25 50 -29 11 -4 58 -30 104 -58 47 -28 134 -68 194 -89 118 -42 123 -45 150
-67 16 -15 16 -16 0 -35 -15 -16 -18 -39 -18 -137 0 -110 2 -120 23 -143 18
-19 23 -34 20 -68 l-3 -44 -48 -7 c-67 -9 -135 -45 -160 -84 -12 -18 -49 -49
-83 -68 -33 -20 -76 -55 -94 -78 l-34 -42 0 -205 -1 -206 60 -32 c33 -18 89
-42 125 -53 46 -14 85 -36 135 -76 39 -31 99 -70 133 -87 56 -26 71 -29 123
-23 33 3 71 9 84 12 22 5 27 2 36 -25 8 -23 20 -33 47 -41 50 -14 102 -12 131
4 20 11 29 11 50 0 37 -18 229 -37 266 -26 17 5 50 19 74 32 24 12 52 19 62
17 11 -3 19 -1 19 3 0 5 32 20 71 35 41 16 98 49 133 77 33 27 73 56 88 66 16
9 33 32 39 49 6 18 17 36 25 41 10 5 18 49 28 148 8 78 21 154 29 170 8 16 20
65 27 109 6 44 20 107 31 140 18 51 21 88 22 280 l2 220 95 -95 c107 -106 230
-186 418 -270 524 -234 1212 -362 1867 -347 456 11 813 85 1100 230 296 149
470 339 569 621 6 17 10 14 41 -20 20 -21 42 -51 50 -66 12 -22 23 -28 50 -28
46 0 127 31 166 64 17 14 35 26 40 26 6 0 37 18 69 40 56 38 100 51 100 30 0
-5 -9 -14 -20 -20 -11 -6 -20 -19 -20 -29 0 -9 -11 -27 -25 -39 -23 -20 -25
-29 -25 -98 0 -41 4 -83 10 -93 5 -10 33 -28 62 -41 70 -30 137 -23 292 30
135 47 214 84 222 105 3 8 27 28 53 43 26 16 93 71 149 121 56 50 106 91 111
91 5 0 14 14 21 30 7 17 21 35 31 41 11 5 19 16 19 25 0 8 11 19 24 25 14 7
27 22 30 34 3 12 17 30 31 39 14 9 25 22 25 29 0 7 23 35 50 62 28 27 50 55
50 61 0 7 16 31 36 55 19 24 46 64 59 89 13 26 35 60 49 77 13 16 28 41 31 55
4 15 15 34 26 44 10 9 19 28 19 42 0 13 14 40 30 59 17 18 30 40 30 48 0 8 9
24 19 34 10 10 32 47 49 82 26 53 28 64 16 76 -7 8 -19 33 -25 56 -6 23 -16
48 -21 54 -17 20 -54 15 -86 -12 -17 -14 -33 -25 -37 -25 -4 0 -28 -23 -54
-50 -62 -66 -76 -66 -67 4 3 29 13 70 21 89 8 20 20 60 26 89 6 29 18 64 27
78 11 17 16 49 17 100 0 69 -2 77 -28 102 -15 16 -37 28 -47 28 -29 0 -77 -73
-90 -135 -6 -29 -17 -59 -25 -65 -7 -6 -21 -44 -30 -83 -9 -40 -22 -79 -29
-87 -7 -8 -17 -28 -20 -45 -4 -16 -14 -37 -21 -45 -7 -8 -42 -64 -78 -125 -36
-60 -76 -122 -91 -136 -14 -15 -26 -33 -26 -42 0 -8 -11 -22 -25 -31 -14 -9
-25 -24 -25 -34 0 -10 -16 -35 -35 -56 -19 -21 -35 -34 -35 -29 0 35 25 133
40 158 10 17 24 59 30 95 7 36 21 90 31 121 35 102 21 281 -26 349 -28 40 -73
70 -105 70 -12 0 -35 -11 -52 -25 -16 -14 -36 -25 -43 -25 -8 0 -17 -10 -20
-22 -4 -13 -16 -33 -27 -44 -10 -12 -27 -49 -38 -82 -10 -34 -25 -69 -34 -77
-9 -9 -16 -25 -16 -36 0 -11 -11 -36 -24 -57 -14 -20 -28 -49 -31 -64 -4 -14
-15 -34 -26 -44 -10 -9 -19 -24 -19 -33 0 -26 -36 -78 -59 -84 -34 -9 -46 17
-27 58 21 44 35 199 35 390 0 198 -11 284 -39 307 -36 29 -83 23 -120 -14 -43
-44 -54 -69 -74 -160 -17 -75 -46 -131 -62 -116 -4 4 3 65 14 136 12 70 22
141 22 158 0 18 7 50 15 73 8 24 19 118 25 219 22 340 24 357 41 360 24 4 49
-42 60 -111 12 -75 35 -103 91 -110 46 -6 90 -43 109 -91 18 -45 47 -75 104
-103 28 -14 58 -32 68 -41 27 -24 154 -23 172 1 23 31 102 49 250 54 114 5
164 2 265 -15 241 -40 630 -59 679 -32 33 17 138 7 227 -22 63 -21 87 -23 289
-22 121 0 285 6 364 14 133 13 152 12 255 -5 194 -33 274 -23 419 53 62 32 85
53 144 130 25 33 67 191 83 317 7 50 19 102 26 117 8 15 19 51 25 80 6 29 19
65 30 80 10 15 19 32 19 38 0 6 11 15 24 20 13 5 28 19 31 32 4 12 29 51 56
85 37 49 50 75 55 113 5 37 13 53 30 65 13 8 24 21 24 29 0 7 11 33 24 58 13
25 27 65 31 89 4 24 15 58 24 74 10 17 21 57 25 90 4 40 14 67 29 83 17 18 19
25 8 31 -11 7 -10 13 4 34 13 20 18 66 25 227 7 155 12 207 24 225 20 30 20
35 1 35 -8 0 -15 7 -15 16 0 8 7 22 15 30 22 22 20 155 -2 197 -25 47 -31 256
-9 317 38 107 49 1059 13 1155 -8 22 -20 94 -27 160 -6 66 -16 138 -21 160
-26 104 -39 171 -45 228 -4 34 -13 76 -21 94 -9 22 -13 79 -13 180 0 183 -16
358 -36 398 -8 16 -22 66 -30 110 -9 44 -22 87 -29 95 -7 8 -18 35 -25 60 -7
24 -20 55 -31 68 -10 14 -19 32 -19 41 0 9 -9 31 -20 49 -12 19 -28 70 -36
115 -9 44 -24 92 -34 105 -28 35 -56 116 -70 202 -16 101 -26 125 -65 155 -24
18 -38 40 -50 80 -8 30 -19 55 -23 55 -5 0 -19 19 -32 42 -27 49 -227 258
-246 258 -7 0 -29 21 -48 48 -19 26 -43 56 -53 67 -11 11 -25 35 -33 53 -7 18
-21 39 -31 46 -10 7 -22 30 -27 51 -6 33 -18 46 -72 85 l-65 45 -108 0 c-101
0 -110 -2 -127 -22 -10 -13 -26 -23 -34 -23 -9 0 -19 -7 -22 -15 -3 -8 -26
-17 -52 -21 -72 -10 -367 -130 -459 -186 -48 -29 -89 -48 -98 -44 -21 8 -74
93 -86 141 -6 22 -20 58 -30 81 -10 23 -19 47 -19 53 0 40 -106 186 -146 201
-13 5 -27 16 -30 25 -3 8 -32 31 -65 50 -73 45 -149 118 -149 144 0 11 -11 28
-24 38 -13 10 -30 32 -39 48 -8 17 -32 46 -52 65 -20 19 -44 54 -54 76 -24 53
-82 117 -146 160 -27 19 -67 47 -87 62 -20 16 -63 37 -95 47 -69 21 -242 107
-297 147 -21 15 -43 28 -48 28 -5 0 -21 9 -36 20 -31 23 -138 50 -199 50 -23
0 -66 9 -95 21 -69 27 -212 36 -248 15z m-5144 -2377 c8 -14 -10 -26 -61 -40
-22 -6 -67 -24 -100 -40 -33 -16 -111 -49 -172 -75 -62 -25 -116 -50 -119 -55
-9 -16 -114 -65 -207 -98 -49 -17 -90 -31 -92 -31 -3 0 5 15 16 34 24 42 133
117 259 179 72 36 125 53 218 73 68 14 145 33 170 44 55 22 78 24 88 9z m6996
-146 c15 -16 35 -48 46 -73 11 -25 29 -54 41 -64 11 -11 21 -25 21 -33 0 -8 7
-21 15 -29 8 -8 17 -31 21 -52 12 -67 44 -121 91 -153 55 -38 204 -109 229
-109 37 0 106 -42 119 -74 7 -17 25 -41 39 -53 14 -13 26 -30 26 -38 0 -8 4
-15 8 -15 5 0 35 -20 66 -45 32 -25 65 -45 73 -45 8 0 34 -9 58 -20 40 -18 44
-24 51 -66 9 -62 -3 -142 -27 -172 -10 -14 -19 -32 -19 -40 0 -9 -10 -26 -21
-39 -21 -21 -38 -61 -79 -183 -10 -31 -27 -74 -38 -95 -11 -22 -23 -62 -27
-90 -4 -27 -15 -63 -25 -80 -9 -16 -20 -57 -23 -89 -3 -32 -11 -64 -16 -69 -6
-6 -11 -20 -11 -32 0 -12 -5 -26 -11 -32 -5 -5 -14 -47 -18 -92 -6 -52 -15
-88 -25 -100 -9 -10 -23 -38 -32 -63 -8 -26 -45 -82 -85 -129 -38 -46 -69 -89
-69 -96 0 -6 -8 -18 -19 -25 -10 -7 -25 -27 -33 -43 -9 -17 -25 -39 -37 -49
-12 -11 -21 -25 -21 -32 0 -8 -16 -43 -35 -80 -19 -36 -35 -71 -35 -78 0 -6
-9 -19 -19 -28 -11 -9 -25 -35 -31 -57 -6 -22 -16 -44 -23 -48 -7 -4 -17 -21
-22 -38 -6 -16 -19 -31 -28 -33 -25 -5 -93 44 -118 85 -12 19 -32 41 -44 49
-27 18 -148 43 -250 53 -75 7 -95 14 -95 35 0 8 -7 19 -15 26 -9 7 -12 16 -7
19 12 8 26 51 16 51 -4 0 -12 -7 -18 -15 -10 -14 -28 -12 -153 15 -79 16 -145
30 -148 30 -2 0 -2 42 1 93 3 50 1 106 -4 122 -8 28 -12 30 -64 33 -31 2 -61
9 -67 16 -27 32 31 95 133 148 51 26 69 11 38 -32 -77 -103 -23 -164 78 -87
66 49 82 57 126 57 94 0 194 56 194 108 0 8 10 26 22 39 21 23 21 23 2 38 -35
27 -85 12 -133 -39 -17 -18 -35 -26 -57 -26 -39 0 -54 21 -54 74 0 54 33 85
102 96 104 16 138 62 76 100 -50 30 -104 26 -185 -15 -76 -38 -153 -111 -153
-145 0 -11 12 -27 26 -37 l26 -17 -28 -23 c-40 -32 -72 -30 -80 5 -10 40 -11
41 -50 30 -36 -9 -130 -76 -171 -120 -30 -31 -53 -90 -53 -132 0 -49 -15 -82
-59 -132 -21 -25 -42 -60 -45 -78 -4 -19 -20 -48 -35 -65 -26 -27 -36 -31 -83
-31 -139 1 -259 53 -304 134 -12 21 -25 37 -30 35 -5 -1 -17 14 -26 34 -10 19
-26 38 -37 42 -10 3 -31 23 -46 44 -30 45 -236 248 -277 275 -36 23 -35 44 1
90 20 25 31 52 35 90 9 67 29 87 97 94 30 3 53 10 56 18 3 8 11 14 17 14 7 0
28 12 47 26 39 30 151 84 174 84 9 0 28 -9 43 -20 44 -32 131 -46 200 -32 81
17 104 37 124 111 9 35 21 68 27 74 5 7 17 55 25 107 11 59 22 98 31 103 8 4
15 16 15 26 0 10 9 26 20 36 12 11 26 47 37 98 23 106 35 121 102 118 45 -1
52 1 60 22 16 42 37 50 129 52 136 3 184 31 202 121 6 29 18 58 26 64 7 7 14
23 14 37 0 48 31 95 119 181 49 49 93 100 96 114 4 16 16 29 30 32 15 4 24 16
28 35 4 17 29 55 57 86 27 30 50 61 50 67 0 18 52 68 70 68 9 0 28 -12 42 -27z
m-891 -2263 c44 -24 12 -123 -51 -155 -37 -19 -55 -19 -74 1 -25 24 -20 37 36
103 54 65 58 67 89 51z m-6943 -2192 c3 -37 4 -38 42 -38 26 0 61 12 103 35
35 19 66 32 69 29 9 -8 -12 -76 -28 -94 -7 -9 -21 -36 -29 -60 -9 -25 -22 -48
-30 -53 -8 -4 -15 -21 -15 -37 0 -29 18 -80 29 -80 3 0 16 -3 27 -6 16 -4 33
4 62 30 l39 36 6 -88 c3 -48 12 -105 20 -127 8 -22 20 -93 26 -158 6 -65 18
-137 26 -160 7 -23 21 -93 29 -155 9 -63 21 -122 26 -133 6 -10 18 -67 26
-126 9 -60 22 -119 29 -133 7 -14 18 -61 24 -103 6 -43 18 -91 26 -107 8 -16
22 -61 30 -100 8 -39 26 -92 40 -118 14 -26 25 -52 25 -59 0 -6 11 -33 24 -60
13 -26 27 -63 31 -82 l7 -35 -28 25 c-61 51 -254 260 -254 274 0 8 -8 15 -18
15 -10 0 -25 11 -32 25 -8 14 -50 62 -94 105 -45 44 -103 107 -131 140 -27 33
-62 73 -77 90 -16 17 -28 38 -28 46 0 9 -9 29 -20 45 -12 15 -25 53 -30 83 -5
30 -16 65 -24 78 -8 13 -20 54 -26 92 -6 38 -17 81 -25 97 -8 15 -20 63 -26
106 -7 43 -20 94 -30 113 -9 20 -20 53 -24 73 -4 20 -16 48 -26 61 -10 13 -23
45 -29 72 -6 27 -21 67 -34 89 -13 22 -26 55 -29 73 -4 18 -16 45 -27 60 -21
28 -30 117 -16 141 4 6 37 19 74 30 37 11 105 36 152 56 47 19 96 34 110 32
21 -2 25 -8 28 -39z m730 -2062 c-6 -39 -33 -24 -36 19 l-3 39 21 -19 c11 -10
20 -28 18 -39z"/>
<path d="M10571 7914 c-23 -26 -41 -53 -41 -61 0 -8 -12 -26 -26 -40 -15 -15
-32 -41 -40 -58 -7 -17 -20 -37 -28 -45 -9 -7 -16 -18 -16 -24 0 -7 -13 -25
-30 -41 -16 -16 -30 -34 -30 -40 0 -6 -11 -22 -25 -35 -14 -13 -25 -32 -25
-42 0 -11 -11 -29 -25 -42 -32 -30 -32 -56 0 -86 l25 -24 28 21 c39 28 69 76
86 137 9 30 22 59 30 65 8 6 17 26 20 44 4 18 20 50 36 71 17 22 30 45 30 51
0 7 9 22 20 35 11 13 20 33 20 46 0 12 11 36 25 52 25 30 33 62 16 62 -5 0
-28 -21 -50 -46z"/>
<path d="M9950 7708 c-25 -41 -25 -49 0 -71 13 -11 20 -29 20 -51 0 -40 24
-65 48 -49 25 15 26 56 3 99 -12 21 -21 53 -21 71 0 43 -24 44 -50 1z"/>
<path d="M10768 7562 c-26 -15 -71 -43 -100 -63 -29 -20 -72 -48 -96 -63 -54
-34 -74 -72 -48 -91 24 -18 34 -13 146 61 111 72 180 135 180 164 0 28 -25 25
-82 -8z"/>
<path d="M10487 7112 c-37 -41 12 -77 141 -102 47 -10 69 -10 87 -2 32 15 32
28 1 36 -14 3 -27 14 -30 24 -8 25 -70 53 -131 59 -42 4 -53 2 -68 -15z"/>
<path d="M10382 6808 c-22 -28 -24 -65 -4 -84 11 -11 27 -35 37 -54 10 -19 26
-46 36 -59 11 -13 19 -30 19 -39 0 -8 10 -25 23 -37 12 -13 29 -33 37 -45 15
-21 17 -22 33 -6 21 21 22 69 2 89 -8 8 -22 45 -31 83 -10 37 -25 75 -35 85
-9 9 -23 30 -31 45 -15 32 -66 45 -86 22z"/>
<path d="M10130 6639 c0 -11 4 -18 10 -14 5 3 7 12 3 20 -7 21 -13 19 -13 -6z"/>
<path d="M10310 6503 c0 -21 3 -24 9 -14 5 8 7 20 4 28 -8 21 -13 15 -13 -14z"/>
<path d="M3810 10744 c-246 -33 -502 -85 -530 -108 -8 -7 -36 -21 -63 -30 -90
-33 -215 -145 -190 -170 11 -11 36 -7 53 9 9 8 57 29 106 46 49 18 112 40 139
49 133 48 882 54 1100 10 119 -25 415 -132 415 -151 0 -16 -49 -19 -481 -28
-417 -9 -452 -11 -574 -36 -223 -44 -358 -86 -554 -171 -69 -31 -134 -63 -144
-71 -9 -9 -25 -21 -35 -27 -10 -6 -33 -20 -51 -31 -152 -91 -232 -159 -255
-215 -16 -41 -13 -70 8 -70 7 0 50 23 96 50 46 28 100 55 120 60 20 5 45 20
56 31 10 12 44 33 74 46 30 14 82 37 115 53 146 68 536 190 748 234 159 33
570 47 747 26 112 -14 188 -31 350 -80 166 -50 206 -51 246 -9 26 27 29 37 29
97 0 55 -4 73 -22 96 -13 16 -23 39 -23 51 0 28 -17 43 -58 51 -17 4 -39 15
-48 25 -9 11 -23 19 -29 19 -7 0 -20 11 -29 25 -9 13 -34 30 -57 36 -23 7 -43
19 -46 26 -3 7 -15 13 -27 13 -12 0 -89 16 -171 35 -83 19 -184 40 -225 45
-41 5 -97 14 -125 19 -136 28 -575 57 -665 45z"/>
<path d="M9911 2035 c-34 -25 -69 -61 -80 -82 -40 -78 -393 -417 -466 -447
-16 -7 -50 -30 -75 -51 -25 -21 -81 -63 -124 -93 -43 -31 -88 -71 -98 -89 -11
-18 -24 -33 -29 -33 -4 0 -14 -18 -20 -40 -11 -37 -10 -43 9 -70 12 -16 25
-48 28 -71 9 -57 36 -82 77 -74 55 10 277 128 300 159 12 15 43 50 70 76 26
27 47 53 47 58 0 6 22 24 49 41 28 16 55 40 62 53 6 13 30 42 51 66 22 24 46
58 53 76 8 19 21 36 30 40 8 3 24 25 34 49 11 24 26 47 35 50 9 4 16 15 16 26
0 11 21 46 46 77 26 32 53 77 60 102 8 24 23 59 34 77 19 32 27 96 14 129 -11
29 -59 18 -123 -29z"/>
</g>
</svg>
