<?xml version="1.0" standalone="no"?>
<!DOCTYPE svg PUBLIC "-//W3C//DTD SVG 20010904//EN"
 "http://www.w3.org/TR/2001/REC-SVG-20010904/DTD/svg10.dtd">
<svg version="1.0" xmlns="http://www.w3.org/2000/svg"
 width="1280.000000pt" height="830.000000pt" viewBox="0 0 1280.000000 830.000000"
 preserveAspectRatio="xMidYMid meet">
<metadata>
Created by potrace 1.15, written by Peter Selinger 2001-2017
</metadata>
<g transform="translate(0.000000,830.000000) scale(0.100000,-0.100000)"
fill="#000000" stroke="none">
<path d="M10200 8285 c14 -8 36 -14 50 -15 33 0 211 -42 381 -90 135 -38 303
-106 348 -141 13 -11 29 -19 35 -19 17 0 69 -59 92 -104 29 -59 102 -127 178
-166 43 -22 90 -59 132 -101 l64 -67 -16 -43 c-8 -24 -18 -82 -21 -129 -3 -47
-11 -103 -19 -125 -7 -22 -14 -50 -14 -63 0 -12 -4 -30 -8 -40 -5 -9 -19 -39
-32 -67 -13 -27 -33 -63 -44 -80 -12 -16 -28 -42 -36 -56 -14 -25 -183 -230
-186 -226 -1 1 3 33 8 71 10 72 18 89 95 184 69 85 113 188 112 262 0 39 6 46
-64 -65 -79 -125 -116 -181 -150 -223 -19 -24 -39 -60 -45 -81 -5 -20 -30 -64
-56 -96 -67 -87 -110 -165 -133 -242 -41 -138 -71 -147 -96 -28 l-17 84 31 61
c51 98 65 117 141 202 74 80 82 101 33 79 -127 -56 -303 -215 -360 -322 l-28
-54 0 -227 c0 -226 0 -226 -24 -252 -14 -14 -34 -26 -46 -26 -40 0 -58 -33
-51 -92 9 -68 34 -146 58 -181 32 -46 13 -42 -25 5 -55 68 -57 77 -57 220 -1
129 -11 204 -44 318 -9 30 -27 109 -40 175 -29 146 -28 239 3 309 18 40 20 55
11 76 -16 38 -5 130 20 173 27 46 37 135 17 161 -13 17 -14 14 -21 -40 -5 -44
-17 -74 -46 -119 -64 -99 -85 -166 -61 -203 6 -10 13 -1 26 30 l18 43 7 -38
c5 -29 1 -53 -16 -95 -13 -31 -24 -67 -24 -79 0 -17 -6 -23 -22 -23 -63 -1
-98 -36 -98 -99 0 -46 17 -46 32 1 11 38 17 43 45 46 42 4 45 -3 72 -188 11
-80 30 -185 41 -235 21 -94 22 -217 4 -560 -5 -108 -3 -151 15 -252 11 -67 29
-146 39 -176 17 -52 17 -57 1 -105 -31 -92 -49 -241 -49 -415 0 -91 -4 -188
-10 -214 -17 -85 -19 -156 -5 -236 8 -42 17 -82 20 -87 3 -6 1 -10 -4 -10 -6
0 -11 7 -11 16 0 9 -5 14 -11 12 -8 -3 -12 -56 -14 -163 -2 -126 1 -181 16
-257 11 -53 24 -164 29 -245 12 -184 14 -187 149 -248 56 -25 230 -14 269 18
35 28 42 62 27 135 -8 38 -17 76 -20 83 -2 8 -7 25 -9 39 -14 68 -26 103 -50
144 -30 52 -116 132 -162 151 -20 8 -51 38 -78 75 -58 79 -59 97 -2 34 24 -27
79 -78 121 -114 151 -126 151 -126 190 -217 30 -69 39 -105 44 -173 l6 -85 5
75 c5 61 7 69 13 45 22 -85 82 -265 99 -298 28 -56 101 -148 139 -177 25 -18
46 -25 77 -24 52 1 84 24 34 24 -24 0 -40 10 -69 41 -21 22 -44 53 -52 67 -7
15 -26 47 -41 72 -43 71 -96 241 -125 403 l-26 148 32 100 c17 55 33 98 36 95
7 -7 -27 -196 -39 -220 -7 -13 -7 -17 3 -14 7 2 27 30 45 62 l31 57 5 -148 c4
-117 9 -160 26 -207 28 -78 46 -96 94 -96 21 0 51 -6 66 -14 28 -14 34 -14
272 13 47 6 128 19 180 31 54 12 149 23 220 26 l125 5 24 -33 c13 -18 55 -55
92 -83 71 -52 284 -268 360 -365 23 -30 52 -62 63 -70 12 -8 42 -35 68 -60
l47 -45 -23 -70 c-21 -64 -52 -142 -109 -280 -11 -27 -38 -88 -60 -135 -22
-46 -55 -118 -74 -160 -106 -229 -110 -234 -178 -226 -98 12 -110 13 -150 15
l-40 1 53 49 c46 43 52 52 52 89 0 29 -7 49 -26 71 -14 17 -30 31 -35 31 -5 0
-28 19 -52 43 -23 23 -76 68 -117 99 -41 32 -88 69 -105 84 -75 65 -112 79
-231 82 -89 3 -113 1 -126 -11 -8 -8 -37 -19 -64 -22 -73 -11 -76 -19 -9 -27
105 -12 124 -19 147 -52 12 -17 37 -48 55 -69 31 -35 39 -50 63 -112 17 -43
29 -104 40 -190 12 -92 32 -155 50 -155 5 0 10 -17 10 -38 0 -28 -7 -45 -25
-62 l-24 -23 -78 17 c-43 10 -92 20 -109 23 -29 5 -32 8 -38 56 -9 75 -8 87 8
87 28 0 66 51 66 89 0 46 -27 77 -79 91 -25 6 -48 22 -65 44 -76 100 -365 89
-606 -22 -101 -46 -200 -152 -263 -277 -15 -32 -47 -193 -46 -235 3 -112 29
-162 43 -82 4 20 11 48 16 62 4 14 11 37 14 51 8 36 79 114 133 145 l44 27 27
-25 c66 -60 130 -77 205 -54 l46 14 36 -64 c39 -69 61 -86 160 -119 33 -11 60
-25 60 -31 0 -6 -17 -30 -39 -54 l-38 -42 -59 17 c-55 17 -62 17 -126 1 -253
-62 -369 -180 -465 -473 -17 -52 -19 -69 -10 -82 7 -9 17 -28 23 -44 16 -39
44 -35 69 10 11 21 33 53 50 72 l30 35 23 -22 c13 -12 36 -22 53 -22 16 0 40
-7 53 -17 19 -13 48 -16 135 -16 102 0 117 2 166 27 47 23 63 27 105 21 28 -3
70 -17 94 -30 24 -14 54 -25 67 -25 34 0 31 -22 -13 -91 l-38 -59 -54 0 c-106
0 -264 -107 -288 -195 -17 -61 -33 -202 -33 -293 0 -124 36 -192 103 -192 35
0 54 21 61 68 10 64 106 245 150 281 14 12 16 11 16 -8 0 -11 13 -35 28 -52
22 -24 40 -33 82 -40 60 -9 199 -3 245 11 17 5 62 11 102 13 119 6 149 38 158
167 3 47 7 92 9 100 24 125 23 123 115 213 90 89 108 99 246 147 162 56 362
132 420 159 33 16 70 32 83 35 l22 7 0 3570 0 3569 -1312 0 c-1143 -1 -1310
-3 -1288 -15z m345 -2615 c105 -113 306 -438 340 -550 4 -14 15 -43 25 -65 41
-94 68 -205 94 -390 24 -177 29 -259 20 -373 l-8 -107 -7 155 c-7 172 -22 265
-52 325 -11 21 -64 82 -119 135 -110 105 -178 186 -225 270 -31 56 -72 199
-74 254 l0 31 -11 -25 c-5 -14 -8 -67 -5 -120 3 -76 10 -109 33 -165 39 -92
116 -195 203 -273 112 -100 139 -139 157 -223 37 -176 36 -395 -3 -619 l-17
-95 -12 42 c-26 87 -104 216 -176 288 -57 57 -178 199 -178 208 0 4 -13 27
-29 52 -63 99 -83 169 -91 315 -7 131 10 364 30 399 5 9 22 -15 54 -74 27 -47
49 -85 51 -83 2 2 -10 50 -27 108 -38 132 -44 166 -28 185 7 9 10 19 6 22 -4
4 -11 1 -16 -7 -10 -16 -8 -19 -29 55 -26 99 -39 321 -25 428 l7 47 39 -58
c22 -31 55 -73 73 -92z m253 -226 c188 -294 269 -463 298 -623 9 -47 23 -120
31 -161 24 -117 26 -148 12 -212 -29 -141 -35 -141 -42 2 -12 226 -60 470
-126 632 -66 166 -190 384 -265 467 l-31 34 30 -20 c17 -12 58 -65 93 -119z
m-404 -930 c24 -95 136 -267 258 -395 31 -33 63 -72 71 -87 8 -15 30 -56 49
-92 31 -57 48 -111 63 -200 3 -14 -6 -2 -19 25 -17 38 -49 74 -132 147 -179
158 -224 219 -272 365 -32 95 -55 282 -35 270 6 -4 14 -19 17 -33z m611 -409
c-3 -31 -9 -55 -11 -52 -3 2 -2 30 2 61 4 31 9 54 12 52 2 -3 1 -30 -3 -61z"/>
<path d="M10342 8017 c-6 -7 -20 -33 -31 -58 -22 -48 -29 -162 -11 -189 7 -10
10 6 10 55 0 69 31 162 59 179 6 4 11 11 11 17 0 13 -26 11 -38 -4z"/>
<path d="M9425 7993 c18 -119 10 -177 -39 -283 -14 -30 -26 -67 -26 -82 0 -33
52 -150 78 -176 18 -18 19 -23 7 -39 -15 -19 -20 -73 -7 -73 5 0 18 13 30 30
33 45 68 63 141 75 55 9 66 14 66 31 0 16 -8 19 -55 22 -43 2 -65 -2 -101 -21
l-46 -25 -26 41 c-49 74 -48 106 7 250 33 85 34 160 5 222 -26 54 -40 66 -34
28z"/>
<path d="M9842 8007 c-6 -7 -16 -26 -22 -41 -17 -46 3 -86 74 -149 44 -39 74
-76 95 -119 17 -33 31 -54 31 -44 0 36 -46 104 -116 173 -63 61 -74 76 -74
105 0 18 7 44 16 56 17 25 14 41 -4 19z"/>
<path d="M10118 8009 c-3 -8 -3 -39 0 -70 6 -70 -23 -189 -73 -295 l-36 -78
-20 40 c-11 23 -55 83 -99 134 -66 77 -81 102 -91 147 -12 52 -13 53 -25 31
-28 -49 -11 -112 51 -199 19 -27 35 -60 35 -73 0 -54 -46 -120 -107 -154 -9
-5 -13 -14 -9 -21 5 -7 22 -3 55 14 39 19 54 35 75 77 14 28 26 62 26 75 0 28
16 30 30 4 13 -25 13 -44 0 -36 -22 14 -31 -8 -11 -27 24 -21 19 -47 -5 -27
-10 8 -18 9 -25 2 -7 -7 -5 -14 6 -23 8 -7 15 -21 15 -32 0 -19 -1 -19 -19 3
-22 28 -38 20 -22 -9 17 -31 13 -54 -14 -94 -31 -45 -31 -58 -3 -58 14 0 43
22 79 59 l56 60 46 -47 c85 -87 137 -235 137 -389 0 -57 4 -93 10 -93 19 0 30
50 30 132 0 62 -7 100 -30 169 -36 109 -63 153 -131 212 l-53 46 52 108 c45
94 66 156 86 253 3 14 3 3 0 -25 -2 -27 -7 -63 -10 -80 -6 -27 -5 -28 8 -15
48 48 50 212 4 275 -10 15 -14 15 -18 4z"/>
<path d="M6745 7960 c-96 -39 -164 -63 -243 -84 -149 -40 -193 -66 -322 -196
-112 -112 -191 -173 -315 -240 -104 -57 -138 -81 -217 -157 -78 -74 -115 -96
-80 -45 57 80 102 215 102 305 0 30 -9 91 -20 136 -12 45 -18 92 -14 106 7 27
-13 115 -26 115 -9 0 -29 -66 -36 -126 -8 -57 -22 -89 -70 -151 -37 -48 -84
-134 -84 -153 0 -6 -12 -36 -27 -66 -28 -58 -62 -90 -183 -171 -41 -28 -106
-76 -144 -107 -38 -31 -72 -56 -77 -56 -5 0 -4 12 1 26 6 14 10 51 10 82 0 50
6 67 50 142 57 97 113 232 108 264 -3 17 -9 12 -32 -29 -16 -27 -39 -61 -51
-75 -24 -27 -56 -83 -117 -198 -20 -40 -56 -96 -78 -125 -22 -30 -45 -69 -52
-87 -17 -51 -60 -110 -118 -163 -72 -66 -92 -64 -44 7 14 21 38 76 54 123 l27
86 -58 -6 c-83 -7 -126 -35 -181 -120 -111 -171 -112 -172 -185 -202 -37 -15
-106 -45 -153 -65 -47 -21 -96 -41 -110 -44 -14 -4 -38 -14 -55 -21 -239 -106
-413 -169 -652 -236 -34 -10 -43 -17 -45 -38 -3 -22 -12 -28 -78 -47 -41 -13
-91 -23 -112 -23 -38 -1 -66 -29 -250 -249 -26 -31 -67 -73 -90 -93 -29 -25
-40 -41 -33 -47 23 -23 126 -46 235 -51 l115 -6 -75 -27 c-96 -35 -111 -37
-319 -43 -162 -4 -177 -6 -230 -32 -31 -14 -58 -28 -60 -30 -2 -1 3 -11 12
-21 16 -17 14 -19 -26 -39 -41 -20 -43 -20 -65 -3 -40 33 -33 40 95 96 82 36
146 78 205 135 23 21 48 39 57 39 34 1 228 213 413 452 76 98 155 221 238 373
18 33 55 93 82 134 27 40 47 75 45 78 -3 2 -50 -51 -106 -119 -178 -216 -233
-279 -365 -420 -71 -76 -136 -138 -145 -138 -44 0 -391 -96 -481 -133 -51 -21
-268 -71 -485 -112 -104 -20 -203 -41 -220 -46 -43 -14 -172 -29 -190 -23 -45
18 30 131 103 155 73 23 81 44 19 52 -69 10 -403 -84 -517 -144 -161 -87 -381
-276 -521 -449 -48 -59 -120 -194 -156 -295 -50 -135 -53 -148 -67 -230 -31
-180 -30 -200 15 -193 16 2 31 19 52 61 17 33 53 84 80 114 120 131 265 190
354 145 86 -44 157 -34 239 33 72 59 160 95 251 102 76 5 82 4 92 -16 7 -12
11 -41 10 -64 -2 -24 1 -49 5 -55 10 -17 36 -15 57 4 16 14 55 30 216 86 41
14 50 6 29 -24 -20 -29 -21 -87 0 -116 16 -23 67 -31 79 -11 11 17 135 93 190
116 52 21 130 37 248 49 75 7 81 1 47 -44 -12 -17 -22 -46 -23 -73 -2 -41 0
-44 23 -43 14 1 63 16 110 34 116 44 180 44 278 1 100 -44 152 -49 225 -21 31
12 55 25 52 29 -2 5 -37 11 -77 14 -70 5 -198 43 -198 58 0 24 221 60 405 66
158 6 175 8 240 35 77 32 128 50 285 98 58 18 132 42 165 53 105 34 325 33
317 -2 -2 -9 5 -10 20 -6 21 6 20 4 -7 -22 -16 -15 -59 -48 -94 -72 -54 -37
-67 -42 -82 -33 -10 7 -30 12 -44 12 -14 0 -25 3 -25 7 0 3 18 24 40 46 23 22
38 42 36 45 -23 22 -616 -133 -601 -157 2 -4 -22 -22 -53 -41 -31 -18 -91 -54
-132 -80 -41 -26 -118 -69 -170 -97 -108 -57 -250 -136 -327 -181 -29 -17
-120 -65 -202 -107 -114 -58 -173 -81 -253 -100 -56 -13 -122 -29 -146 -35
-54 -13 -143 -13 -178 0 -24 10 -126 90 -164 130 -8 9 -28 42 -45 74 -23 47
-41 67 -88 97 -38 25 -75 40 -105 44 -26 3 -73 10 -105 16 -116 21 -276 -10
-423 -81 -71 -35 -122 -73 -225 -170 -56 -53 -126 -194 -190 -384 -26 -78 -29
-98 -23 -153 7 -69 20 -82 29 -28 3 19 7 51 10 70 9 52 58 149 109 215 88 111
262 277 326 310 18 9 11 -2 -25 -41 -27 -30 -58 -65 -70 -78 -11 -12 -28 -31
-37 -41 -37 -41 -126 -179 -155 -240 -31 -67 -54 -200 -34 -200 9 0 22 27 27
58 1 7 21 44 44 82 47 79 195 222 357 347 97 76 249 118 328 91 38 -13 40 -15
57 -83 21 -85 59 -199 81 -242 33 -63 118 -110 282 -154 63 -17 83 -18 205 -8
149 11 293 32 378 54 90 24 224 65 276 86 27 10 50 18 52 17 1 -2 -41 -42 -95
-89 -90 -80 -101 -87 -152 -93 -37 -5 -70 -2 -104 9 -65 19 -138 19 -181 -1
-19 -9 -56 -36 -82 -59 -57 -51 -82 -65 -118 -65 -18 0 -41 -14 -73 -46 -47
-47 -59 -52 -266 -113 -38 -12 -107 -22 -153 -24 -87 -3 -102 -11 -102 -52 0
-16 -16 -25 -91 -49 -111 -35 -206 -34 -281 4 -43 21 -78 22 -78 2 0 -5 11
-25 24 -44 14 -21 25 -55 28 -85 6 -66 33 -115 128 -237 89 -116 169 -181 305
-249 111 -56 126 -62 250 -98 181 -53 334 -49 430 12 25 16 45 32 45 37 0 9
-53 42 -95 59 l-30 11 45 1 c54 1 124 33 204 92 l58 44 -73 3 -73 3 44 26
c284 162 575 283 684 283 56 0 93 14 117 44 14 18 34 26 71 31 29 4 87 21 128
37 112 43 152 48 250 32 307 -52 492 -41 955 57 55 11 122 25 149 29 26 5 62
13 80 19 17 5 49 12 71 16 160 26 466 141 595 223 73 47 127 181 88 220 -19
19 -113 15 -155 -8 -51 -27 -96 -19 -218 40 -60 29 -122 51 -155 55 l-55 8 44
38 c48 43 49 43 173 29 86 -10 197 -1 258 20 14 5 66 21 115 35 50 15 99 31
110 36 45 18 164 49 192 49 47 0 69 -34 62 -95 -3 -27 -16 -68 -28 -90 -27
-51 -28 -121 0 -180 11 -24 53 -82 93 -127 l73 -83 6 -90 c20 -280 255 -609
542 -757 111 -57 235 -95 440 -134 189 -35 255 -46 429 -65 50 -6 123 -14 161
-19 101 -13 368 -28 520 -30 155 -1 252 8 460 45 431 77 470 87 508 123 74 70
106 208 82 344 -9 45 -18 99 -21 118 -3 19 -28 104 -55 188 -80 246 -96 427
-55 617 33 151 71 249 153 392 133 233 147 317 83 516 -17 50 -50 110 -70 127
-4 3 -20 26 -38 51 -17 26 -38 49 -45 52 -14 5 -15 35 -2 76 9 30 -2 26 -51
-19 -23 -21 -55 -42 -71 -46 -15 -4 -55 -26 -88 -51 -84 -61 -182 -125 -251
-163 -33 -18 -74 -41 -91 -52 -39 -24 -42 -16 -8 24 15 18 26 44 27 66 1 20 2
44 4 52 1 8 2 25 3 37 1 16 30 43 110 100 97 69 151 126 136 141 -16 16 -157
-66 -285 -166 -14 -10 -50 -27 -80 -37 -30 -10 -64 -25 -75 -35 -22 -20 -85
-53 -85 -46 0 3 -11 1 -25 -4 -13 -5 -66 -16 -117 -25 -50 -9 -111 -25 -135
-36 -119 -54 -125 -42 -16 33 96 66 149 119 168 165 9 20 54 74 100 120 89 88
116 123 93 123 -17 -1 -94 -46 -156 -93 -49 -36 -55 -38 -131 -40 l-79 -2 39
34 c43 36 73 85 66 106 -3 7 -26 21 -51 31 -25 11 -46 22 -46 25 0 12 93 19
129 10 57 -15 193 -22 226 -13 l30 9 -42 6 c-24 4 -62 16 -85 26 -24 11 -79
29 -123 42 -44 12 -96 34 -115 49 -63 48 -148 56 -257 24 -18 -5 -25 -1 -33
20 -5 15 -27 53 -49 84 -21 31 -48 78 -60 104 -11 25 -28 54 -37 63 -9 9 -14
18 -11 21 12 12 65 -28 118 -88 62 -70 164 -145 219 -161 50 -15 148 -10 198
8 44 18 56 17 282 -5 63 -6 140 -7 170 -4 30 4 62 6 70 5 12 -2 12 0 3 10 -12
12 -55 20 -210 38 -130 16 -159 27 -223 86 -58 53 -87 67 -178 81 -41 6 -126
60 -146 92 -51 84 -183 161 -275 162 -14 0 -63 15 -110 33 l-86 32 125 5 c100
4 134 9 173 27 26 12 47 26 47 31 0 5 15 17 34 26 43 20 166 21 272 2 118 -22
319 -26 299 -7 -40 36 -539 151 -561 128 -3 -3 -31 3 -61 14 -47 16 -85 19
-232 19 -107 0 -221 -6 -291 -16 -63 -9 -137 -15 -165 -13 -85 5 -176 4 -265
-3 -90 -8 -82 -3 45 28 117 28 173 50 520 201 114 50 150 55 480 59 171 3 325
7 343 10 18 3 48 18 66 34 23 21 44 30 68 30 45 0 143 26 198 52 l45 22 -55 7
c-30 3 -73 11 -95 17 -22 6 -64 13 -92 17 -30 4 -64 16 -80 28 -24 19 -42 22
-143 24 -63 1 -135 7 -160 13 -25 5 -99 11 -165 11 -66 1 -158 5 -205 10 -92
11 -193 2 -300 -25 -36 -9 -87 -21 -115 -27 -199 -45 -386 -120 -535 -214 -22
-14 -42 -25 -44 -25 -2 0 -48 -30 -103 -67 -82 -55 -193 -111 -193 -97 0 7
132 89 236 147 141 79 228 148 381 302 72 74 151 146 174 162 62 41 140 81
174 88 17 3 66 15 110 25 44 10 106 24 138 31 31 6 57 16 57 21 0 13 -140 9
-209 -7 -36 -9 -114 -22 -175 -31 -171 -24 -353 -62 -384 -81 -15 -9 -65 -53
-112 -97 -86 -81 -219 -183 -259 -198 -18 -6 -21 -4 -21 17 0 13 5 27 10 30 6
3 10 17 10 31 0 21 104 159 166 221 7 7 15 22 19 32 11 37 158 122 320 185
l90 35 -95 0 c-52 0 -104 -4 -115 -9z m1075 -2235 c-7 -9 -15 -13 -17 -11 -7
7 7 26 19 26 6 0 6 -6 -2 -15z m-2905 -1070 c-33 -27 -45 -31 -45 -15 0 6 15
17 33 25 45 20 46 18 12 -10z m989 -93 c3 -5 -6 -30 -19 -57 l-25 -48 0 56 c0
50 2 57 19 57 11 0 22 -4 25 -8z"/>
<path d="M10339 7933 c-6 -16 -9 -56 -6 -89 5 -64 26 -116 92 -229 19 -33 35
-66 35 -73 0 -7 -24 -39 -54 -71 -30 -33 -67 -78 -82 -100 l-27 -41 -14 27
c-26 51 -40 59 -63 38 -24 -22 -46 -93 -32 -107 6 -6 16 7 26 33 l17 42 30
-29 c29 -30 30 -30 14 -73 -16 -45 -20 -107 -8 -136 4 -11 16 16 33 77 32 110
37 122 100 208 82 114 92 134 80 166 -6 16 -28 53 -49 84 -21 31 -46 70 -55
88 -25 49 -39 136 -27 177 11 42 5 46 -10 8z"/>
<path d="M9406 7873 c-3 -10 -39 -53 -80 -95 -87 -92 -107 -141 -87 -216 14
-55 42 -96 82 -119 31 -19 45 -51 35 -80 -5 -15 -4 -15 9 1 8 11 15 26 15 33
0 20 -29 73 -40 73 -19 0 -60 87 -60 126 0 43 34 105 96 178 19 22 37 54 40
73 7 37 0 56 -10 26z"/>
<path d="M10169 7709 c-47 -28 -72 -72 -72 -126 0 -48 27 -95 58 -101 23 -5
35 15 35 58 0 70 66 132 106 100 10 -9 13 -23 9 -44 -5 -25 -4 -28 5 -13 6 9
15 15 21 12 12 -8 12 41 -2 68 -10 21 -9 21 10 -2 33 -38 26 -86 -22 -138 -11
-13 -15 -23 -9 -23 19 0 63 75 64 108 3 90 -120 151 -203 101z"/>
<path d="M9206 7647 c-38 -49 -66 -117 -66 -160 0 -26 21 -88 64 -185 80 -183
85 -202 93 -337 4 -86 2 -128 -12 -193 -21 -98 -13 -141 35 -187 31 -30 40
-24 14 10 -29 39 -35 87 -18 151 9 32 19 113 23 178 l6 119 38 -35 c37 -35 37
-37 31 -89 -7 -57 4 -112 38 -190 22 -53 77 -86 122 -75 39 10 31 23 -22 36
-42 9 -52 17 -67 48 -34 72 -56 145 -45 156 22 22 11 82 -25 129 -49 64 -47
99 7 149 47 43 58 47 58 19 0 -22 39 -53 103 -81 50 -22 62 -34 71 -72 l6 -28
44 43 c86 84 119 108 128 95 19 -31 -3 -111 -28 -101 -19 7 -96 -42 -123 -78
-13 -17 -26 -49 -28 -70 -3 -22 -10 -42 -14 -45 -18 -11 -9 -25 10 -15 12 7
20 25 24 57 3 30 13 54 27 68 13 11 20 15 16 9 -11 -21 22 -15 54 8 15 12 26
27 24 34 -3 7 5 15 19 19 17 4 30 19 41 47 16 40 16 42 -9 85 -30 51 -50 56
-58 14 -5 -21 -21 -40 -56 -65 -27 -20 -52 -41 -55 -48 -3 -7 -5 -6 -5 4 -1
22 -48 63 -109 93 -51 26 -52 27 -37 49 8 12 15 27 15 33 0 19 -36 23 -69 7
-42 -21 -118 -89 -126 -113 -8 -25 -25 -26 -25 -2 0 9 -16 52 -34 95 l-34 78
24 24 c13 13 24 29 24 35 0 18 -25 11 -38 -11 -10 -16 -17 -18 -25 -10 -8 8
-6 16 6 29 9 10 17 26 17 35 0 22 -26 22 -34 1 -4 -9 -9 -14 -12 -11 -3 3 1
16 10 29 9 12 16 26 16 30 0 14 -23 8 -36 -9 -12 -16 -13 -15 -14 14 0 17 5
35 10 38 6 4 8 11 4 16 -3 5 -10 6 -16 3 -18 -11 1 66 27 114 28 50 25 54 -9
9z"/>
<path d="M10004 7358 c-9 -18 -31 -54 -49 -79 -46 -64 -64 -102 -71 -146 -3
-20 -16 -58 -29 -83 -12 -25 -28 -61 -34 -81 -7 -20 -34 -62 -61 -94 -28 -31
-50 -63 -50 -71 0 -8 -9 -22 -21 -32 -22 -18 -63 -91 -56 -98 7 -7 61 65 85
112 12 23 39 57 60 75 41 35 72 85 72 116 0 10 12 36 25 58 14 23 25 55 25 75
0 28 8 44 39 74 57 56 124 206 92 206 -6 0 -18 -15 -27 -32z"/>
<path d="M9432 7108 c3 -7 18 -15 34 -16 16 -2 37 -11 48 -20 17 -16 16 -17
-28 -22 -46 -5 -63 -22 -29 -29 10 -1 26 -10 36 -19 13 -11 20 -13 29 -4 8 8
17 8 30 1 11 -6 22 -8 25 -5 10 10 -30 87 -55 107 -28 22 -96 27 -90 7z"/>
<path d="M10080 7078 c-22 -48 -25 -87 -10 -137 7 -27 6 -38 -11 -60 l-20 -28
22 -42 c12 -23 19 -45 15 -48 -4 -4 -52 40 -108 98 -82 85 -95 95 -68 54 86
-129 106 -150 179 -188 40 -21 76 -35 82 -31 13 8 -8 34 -27 34 -8 0 -14 6
-14 13 0 6 -11 34 -24 60 -13 27 -22 57 -19 68 6 23 11 24 34 3 10 -9 25 -14
33 -11 12 5 9 12 -13 35 -46 46 -51 121 -15 210 3 6 1 12 -6 12 -6 0 -20 -19
-30 -42z"/>
<path d="M9139 7090 c-20 -11 -63 -49 -95 -85 -63 -73 -104 -99 -141 -92 -13
2 -26 0 -30 -6 -9 -15 27 -37 60 -37 31 0 73 37 151 133 21 27 56 62 79 78 45
33 31 38 -24 9z"/>
<path d="M9165 7059 c-25 -23 -43 -44 -40 -47 3 -3 20 8 38 25 17 17 46 38 62
46 27 15 28 16 7 17 -13 0 -41 -17 -67 -41z"/>
<path d="M8820 6901 c0 -9 159 -157 251 -233 47 -39 48 -38 -27 -57 -22 -6
-58 -26 -79 -44 -36 -32 -39 -38 -43 -98 -4 -68 26 -212 49 -233 9 -8 10 -7 6
7 -10 27 -1 20 22 -18 32 -56 51 -44 26 16 -5 13 6 22 47 41 30 14 71 40 91
58 30 26 37 29 37 14 0 -9 -36 -52 -80 -95 -44 -43 -80 -83 -80 -88 0 -5 14
-25 30 -43 19 -21 30 -43 30 -63 0 -16 14 -77 31 -135 18 -58 38 -142 45 -188
9 -60 23 -101 49 -147 19 -35 40 -67 45 -70 17 -10 50 -82 50 -107 0 -13 7
-34 16 -46 25 -36 30 -130 9 -196 -24 -77 -34 -79 -18 -3 7 34 12 87 11 117
-1 48 -2 45 -9 -27 -10 -104 -54 -234 -110 -320 -23 -38 -55 -88 -71 -112 -73
-114 -117 -307 -118 -506 0 -185 38 -332 126 -485 48 -84 58 -125 58 -240 0
-103 -4 -124 -49 -250 -21 -57 -73 -160 -91 -181 -8 -8 -14 -19 -14 -24 0 -11
-84 -109 -150 -175 -64 -64 -217 -196 -343 -295 -49 -39 -108 -86 -132 -105
-146 -117 -293 -230 -340 -260 -29 -19 -118 -78 -197 -130 -174 -117 -237
-154 -443 -260 -530 -275 -536 -278 -1033 -456 -72 -26 -131 -49 -129 -50 1
-2 36 5 77 16 41 11 76 17 78 15 4 -4 -117 -42 -363 -116 -77 -22 -216 -68
-310 -101 -93 -33 -201 -68 -240 -78 l-70 -19 49 0 c67 -1 270 42 456 96 85
26 200 58 255 73 184 50 343 112 665 260 74 34 151 68 170 76 34 15 34 14 -15
-31 l-50 -47 60 33 c33 18 110 59 170 92 61 33 175 95 255 137 162 86 305 173
486 295 67 45 136 88 155 95 19 7 54 30 79 50 25 20 106 78 180 128 204 137
434 337 581 502 93 105 254 320 283 378 36 71 65 162 67 213 5 77 -21 220 -61
339 -21 63 -46 144 -55 180 -9 36 -21 76 -26 89 -21 51 -59 278 -59 345 1 159
33 248 198 541 31 54 64 122 74 150 29 82 58 201 58 237 0 32 -28 119 -43 134
-4 4 -7 14 -7 21 0 8 -25 51 -55 95 -63 93 -121 210 -155 313 -12 39 -32 90
-44 115 -11 24 -20 50 -18 58 2 7 -4 25 -14 39 -15 25 -15 26 2 36 11 5 47 38
81 72 l63 61 69 -67 c38 -38 97 -86 132 -109 54 -35 70 -40 109 -38 l45 3 -4
40 c-6 71 -86 199 -188 301 -63 64 -322 279 -388 324 -27 18 -85 60 -127 92
-43 33 -78 55 -78 49z m384 -347 c141 -129 223 -217 277 -297 63 -95 71 -114
39 -97 -33 18 -154 110 -173 133 -10 12 -55 61 -99 109 -44 48 -87 96 -95 107
-8 12 -23 26 -34 31 -35 20 -32 -15 7 -74 l37 -57 -32 -33 c-40 -41 -127 -84
-142 -69 -16 16 -23 145 -10 186 14 41 29 51 101 73 27 8 52 19 55 24 10 16
15 13 69 -36z"/>
<path d="M9000 6848 c0 -17 -3 -19 -12 -10 -19 19 -30 14 -18 -8 6 -11 28 -29
50 -40 22 -11 44 -29 50 -40 13 -24 91 -83 98 -75 3 3 -21 32 -54 64 -33 33
-69 76 -79 95 -22 41 -35 46 -35 14z"/>
<path d="M9583 6853 c9 -9 19 -14 23 -11 10 10 -6 28 -24 28 -15 0 -15 -1 1
-17z"/>
<path d="M9527 6794 c-3 -3 4 -17 16 -30 15 -18 31 -24 59 -24 37 0 51 13 26
23 -7 3 -1 6 15 6 41 1 32 21 -10 22 -21 0 -52 2 -69 4 -17 3 -34 2 -37 -1z"/>
<path d="M9962 6701 c-74 -26 -173 -95 -220 -155 -92 -118 -130 -237 -123
-386 2 -40 5 -34 27 59 20 91 92 262 114 276 15 9 78 -17 102 -42 50 -53 47
-73 -25 -155 -64 -73 -87 -107 -87 -127 0 -23 47 14 115 89 39 43 73 75 76 72
3 -4 12 -27 19 -52 7 -25 19 -55 27 -67 11 -19 10 -29 -8 -75 -74 -187 -88
-379 -35 -494 l22 -48 -4 124 c-6 168 12 269 76 430 35 87 76 237 91 331 14
84 14 199 1 199 -5 0 -10 -14 -10 -30 0 -60 -85 -400 -100 -400 -3 0 -14 27
-24 61 -20 64 -80 161 -115 185 -11 8 -37 21 -58 28 l-37 13 54 42 c70 55 202
110 235 97 19 -7 26 4 14 25 -13 24 -57 24 -127 0z"/>
<path d="M9374 6611 c10 -11 34 -31 54 -45 21 -14 57 -50 81 -81 24 -30 48
-55 52 -55 4 0 9 10 11 23 2 15 19 31 53 49 55 30 75 52 74 82 0 20 0 20 -16
-1 -8 -13 -20 -23 -25 -23 -5 0 -29 -16 -54 -36 l-44 -36 -57 52 c-73 65 -174
121 -129 71z"/>
<path d="M10206 6523 c-7 -22 -51 -991 -61 -1323 -3 -96 -10 -251 -16 -344 -6
-93 -8 -179 -5 -191 16 -63 -31 -995 -74 -1480 -6 -66 -18 -193 -25 -282 -15
-166 -25 -242 -69 -513 -40 -243 -56 -462 -56 -757 0 -240 -2 -265 -15 -247
-14 17 -15 11 -9 -66 6 -74 3 -99 -20 -183 l-27 -98 35 -39 c53 -59 55 -84 26
-355 -12 -107 -11 -110 10 -127 12 -10 48 -27 81 -39 l59 -22 1 -71 2 -71 10
61 9 62 82 0 c44 0 97 5 116 11 19 6 91 11 160 11 117 0 128 2 162 25 20 14
43 25 51 25 19 0 29 38 16 61 -5 10 -9 25 -9 34 0 47 -77 105 -140 105 -58 0
-87 20 -142 98 -47 65 -78 121 -119 213 -4 9 -1 29 7 44 21 40 18 53 -25 104
-75 90 -91 153 -91 350 1 176 14 305 49 472 45 216 87 337 213 609 65 140 63
122 21 198 -37 66 -37 68 -36 172 1 128 21 205 77 296 22 35 23 43 11 48 -23
8 -74 -68 -160 -243 -116 -233 -122 -252 -135 -443 -5 -75 -12 -150 -15 -165
-5 -22 -4 -24 4 -12 6 9 24 91 41 182 31 170 58 255 110 355 l30 57 -6 -50
c-8 -71 11 -171 41 -216 33 -50 32 -63 -10 -132 -19 -32 -35 -60 -35 -63 0 -2
-24 -55 -53 -117 -61 -127 -88 -193 -116 -287 -42 -144 -41 -142 -36 -65 3 39
9 273 15 520 5 248 14 630 20 850 12 485 22 937 25 1180 7 488 17 719 36 774
20 56 26 185 11 195 -5 3 -9 -27 -10 -66 -1 -39 -4 -73 -7 -76 -5 -6 -2 280
11 761 5 205 4 287 -4 287 -6 0 -13 -8 -16 -17z m-109 -3095 c-2 -13 -4 -5 -4
17 -1 22 1 32 4 23 2 -10 2 -28 0 -40z m-10 -345 c-4 -170 -12 -436 -17 -593
-27 -777 -31 -974 -31 -1452 1 -508 0 -518 -19 -518 -11 0 -35 8 -55 17 l-35
17 7 70 c4 39 7 135 8 212 l0 142 -33 41 -33 41 16 45 c8 26 15 80 15 125 0
59 3 78 13 75 9 -4 11 43 8 222 -5 326 13 597 59 908 21 143 44 321 50 395 6
74 18 201 26 283 8 81 14 176 14 212 0 36 3 65 7 65 3 0 3 -138 0 -307z m72
-1938 c27 -37 29 -43 19 -81 -11 -38 -8 -46 36 -138 52 -109 146 -240 185
-260 14 -7 43 -11 63 -8 62 7 84 -4 107 -51 23 -48 26 -73 10 -83 -6 -3 -79
-10 -162 -15 -84 -5 -176 -13 -206 -19 -59 -11 -130 -4 -137 15 -3 6 2 83 11
171 8 87 15 247 15 354 1 171 2 193 15 175 8 -11 27 -38 44 -60z"/>
<path d="M9695 6051 c-3 -6 -22 -10 -43 -9 -48 0 -88 -16 -102 -41 -21 -40
-39 -331 -22 -358 9 -14 26 88 42 242 6 54 14 102 18 106 12 10 75 30 80 24 3
-2 0 -10 -5 -17 -10 -13 -46 -120 -57 -168 -6 -31 -33 -361 -41 -520 -6 -116
2 -157 32 -167 19 -7 21 19 38 347 16 311 28 393 68 479 l20 43 54 -4 c39 -3
53 -1 53 8 0 31 -118 61 -135 35z"/>
<path d="M9871 6007 c-24 -52 -71 -271 -95 -442 -8 -60 -26 -153 -40 -205 -66
-255 -124 -854 -111 -1145 10 -205 44 -568 66 -700 28 -169 35 -478 16 -650
-25 -214 -108 -724 -159 -980 -20 -101 -32 -194 -35 -285 -7 -175 10 -266 78
-405 47 -97 48 -99 49 -60 0 22 -11 103 -25 179 -36 201 -30 376 19 586 28
116 132 765 147 910 6 52 14 113 19 135 15 63 2 -212 -15 -335 -37 -262 -67
-459 -76 -500 -15 -69 -39 -251 -38 -290 0 -43 73 234 127 485 64 295 81 465
82 805 0 338 -12 510 -74 1015 -31 257 -39 391 -39 670 -1 244 3 316 21 455
13 91 27 181 32 200 5 19 12 72 15 118 4 46 13 120 20 165 40 250 46 290 42
305 -3 11 -12 0 -26 -31z m-147 -1633 c4 -65 14 -177 22 -249 42 -387 65 -681
63 -835 -1 -106 -14 -73 -24 61 -3 52 -15 153 -25 224 -49 345 -60 481 -59
750 1 231 11 253 23 49z"/>
<path d="M3858 5513 c7 -3 16 -2 19 1 4 3 -2 6 -13 5 -11 0 -14 -3 -6 -6z"/>
<path d="M10250 4953 c-18 -61 -8 -1056 12 -1203 36 -263 41 -323 34 -469 -4
-80 -12 -153 -17 -163 -6 -12 -6 -18 0 -18 25 0 51 180 51 350 0 63 -5 167
-12 230 -9 79 -13 291 -13 680 0 456 -3 571 -14 598 -18 42 -28 41 -41 -5z"/>
<path d="M9451 3151 c-42 -52 -93 -124 -137 -191 -20 -30 -48 -68 -63 -85 -15
-16 -45 -51 -65 -77 -33 -41 -36 -49 -21 -54 20 -8 114 80 180 168 24 32 58
75 77 97 l34 40 29 -132 c39 -184 43 -255 15 -320 -12 -29 -28 -59 -35 -67
-29 -34 -180 -429 -272 -710 -56 -174 -83 -302 -83 -402 0 -95 15 -96 23 -1
10 102 101 368 206 601 28 62 67 151 86 197 37 89 108 230 129 255 7 8 30 47
52 85 37 67 39 74 39 160 -1 80 -5 103 -45 215 -25 73 -46 152 -49 190 -6 64
-6 65 -37 68 -26 3 -37 -3 -63 -37z"/>
<path d="M9106 2753 c-3 -21 -6 -70 -6 -109 0 -163 -37 -270 -178 -519 -91
-160 -153 -235 -262 -315 -55 -41 -111 -91 -125 -111 -29 -44 -25 -69 34 -209
41 -98 62 -118 97 -90 32 27 7 98 -70 199 -22 29 -45 60 -51 67 -12 16 21 53
85 94 183 118 238 177 345 371 138 248 168 353 158 552 -6 110 -16 136 -27 70z"/>
<path d="M1622 1538 c-123 -128 -97 -389 50 -497 54 -40 271 -128 388 -158
281 -71 495 -88 1095 -88 460 0 506 3 850 40 188 20 408 35 670 45 242 10 418
33 533 71 35 12 61 23 59 25 -2 2 -37 0 -78 -6 -41 -5 -231 -14 -424 -20 -360
-10 -517 -19 -760 -45 -425 -45 -711 -59 -1065 -51 -588 12 -819 47 -1124 167
-123 48 -162 78 -207 161 -32 59 -34 69 -34 158 0 81 4 102 24 140 13 25 26
47 30 50 11 9 34 40 29 40 -2 0 -18 -15 -36 -32z"/>
<path d="M8676 1348 c-31 -35 -80 -95 -109 -135 -28 -39 -55 -72 -59 -72 -4
-1 -1 20 7 46 8 26 13 49 11 50 -5 5 -23 -44 -36 -97 -16 -62 -112 -211 -168
-261 -55 -48 -138 -96 -243 -140 -124 -52 -448 -149 -554 -165 -175 -26 -589
-46 -1400 -65 -516 -12 -909 -6 -1350 21 -515 31 -809 52 -935 65 -80 9 -212
20 -295 25 -82 5 -208 15 -280 21 -127 10 -911 14 -990 4 -22 -3 -170 -12
-330 -20 -159 -9 -360 -20 -445 -26 -164 -11 -676 -13 -719 -2 -14 3 -23 3
-19 -1 3 -4 37 -14 75 -22 87 -19 667 -22 918 -5 455 32 1123 42 1400 21 72
-5 213 -14 315 -20 102 -6 237 -17 300 -26 63 -8 286 -26 495 -39 209 -14 488
-33 620 -42 536 -37 2269 -9 2621 42 117 18 164 30 405 106 145 45 388 153
404 178 13 22 24 11 14 -13 -9 -19 -8 -35 5 -72 22 -65 20 -92 -15 -219 -17
-60 -33 -133 -36 -162 -5 -50 -4 -52 28 -72 33 -20 134 -53 197 -65 77 -14
208 37 262 101 38 45 37 85 -4 162 -14 27 -30 71 -37 98 -6 26 -15 60 -21 74
-7 21 -5 35 10 65 23 47 58 154 67 208 4 22 29 77 57 123 45 75 84 170 74 180
-2 2 -13 -11 -24 -29 -12 -18 -32 -45 -45 -59 -54 -57 -106 -155 -122 -229 -8
-40 -27 -100 -41 -134 -14 -33 -28 -74 -31 -89 -8 -41 21 -146 62 -227 40 -78
34 -111 -30 -148 -76 -46 -165 -55 -257 -26 -102 31 -110 35 -105 58 3 12 19
75 36 141 35 137 38 203 12 260 -18 40 -18 40 7 90 13 28 48 86 77 130 29 44
97 157 150 250 54 94 106 182 117 198 32 45 13 31 -46 -35z"/>
<path d="M951 1089 c-2 -69 53 -176 124 -241 59 -54 224 -115 370 -137 150
-23 1034 -55 1297 -47 117 3 366 11 553 16 187 6 397 15 468 20 70 6 184 14
255 20 70 5 199 14 287 20 296 19 945 73 1260 106 77 7 199 16 270 19 179 8
382 35 358 49 -27 15 -340 20 -493 7 -229 -19 -349 -30 -510 -46 -85 -8 -236
-22 -335 -30 -176 -14 -264 -21 -665 -50 -107 -8 -285 -21 -395 -29 -231 -18
-623 -33 -1080 -42 -335 -7 -1084 9 -1241 27 -87 9 -214 40 -297 71 -83 32
-178 133 -198 213 -5 22 -14 49 -19 60 -8 18 -9 18 -9 -6z"/>
</g>
</svg>
