<?xml version="1.0" standalone="no"?>
<!DOCTYPE svg PUBLIC "-//W3C//DTD SVG 20010904//EN"
 "http://www.w3.org/TR/2001/REC-SVG-20010904/DTD/svg10.dtd">
<svg version="1.0" xmlns="http://www.w3.org/2000/svg"
 width="1280.000000pt" height="640.000000pt" viewBox="0 0 1280.000000 640.000000"
 preserveAspectRatio="xMidYMid meet">
<metadata>
Created by potrace 1.15, written by Peter Selinger 2001-2017
</metadata>
<g transform="translate(0.000000,640.000000) scale(0.100000,-0.100000)"
fill="#000000" stroke="none">
<path d="M1170 4530 c-304 -43 -568 -175 -780 -389 -355 -359 -476 -864 -324
-1346 103 -328 356 -623 669 -783 108 -55 269 -108 390 -128 130 -21 371 -14
496 15 521 119 913 518 1025 1041 21 102 29 305 16 421 -15 125 -62 288 -117
405 -180 385 -536 664 -956 749 -91 19 -331 27 -419 15z"/>
<path d="M3576 4499 c-138 -22 -251 -41 -253 -43 -2 -2 -98 -401 -214 -887
-115 -486 -246 -1034 -289 -1218 -44 -184 -80 -340 -80 -346 0 -7 8 -15 18
-18 9 -3 51 -17 92 -32 179 -63 374 -89 602 -82 132 3 182 9 259 30 461 121
789 519 827 1002 35 437 -144 741 -478 811 -105 22 -242 15 -340 -19 -41 -14
-76 -24 -78 -22 -2 2 42 192 97 422 56 231 101 425 101 431 0 7 -3 12 -7 11
-5 -1 -120 -19 -257 -40z m306 -1199 c107 -30 159 -138 159 -334 0 -242 -115
-474 -295 -594 -103 -69 -163 -86 -308 -86 -64 0 -120 2 -123 6 -4 4 43 215
104 469 79 328 116 466 129 476 77 61 234 90 334 63z"/>
<path d="M5349 4500 c-151 -26 -276 -161 -287 -311 -9 -124 37 -202 147 -253
70 -32 188 -29 261 5 78 37 131 87 171 161 31 58 34 70 34 148 0 115 -33 171
-125 220 -27 14 -151 45 -154 39 -1 -1 -22 -5 -47 -9z"/>
<path d="M10919 4500 c-150 -25 -276 -161 -287 -311 -9 -124 37 -202 147 -253
70 -32 188 -29 261 5 78 37 131 88 169 159 78 146 40 303 -89 370 -32 16 -56
22 -135 34 -11 2 -41 0 -66 -4z"/>
<path d="M6325 4195 c-77 -12 -192 -30 -256 -40 l-116 -17 -106 -452 c-59
-248 -136 -575 -172 -726 -79 -334 -96 -434 -98 -570 -1 -170 39 -285 130
-371 92 -88 183 -123 361 -139 175 -16 431 17 568 75 30 12 33 17 28 47 -2 18
-11 102 -19 187 -8 85 -16 156 -18 158 -3 2 -17 -1 -33 -7 -63 -24 -174 -42
-269 -43 -88 -2 -106 1 -150 23 -38 19 -55 35 -72 70 -42 82 -34 137 97 678
l52 212 279 0 279 0 5 23 c22 92 87 355 91 370 5 16 -13 17 -275 17 -155 0
-281 2 -281 5 0 6 119 484 126 508 3 9 2 17 -3 16 -4 -1 -71 -11 -148 -24z"/>
<path d="M7762 3726 c-342 -66 -598 -255 -746 -553 -78 -157 -114 -299 -123
-486 -17 -352 112 -610 369 -735 117 -57 190 -73 359 -79 176 -7 268 5 419 53
l110 35 -5 37 c-3 20 -12 109 -20 196 -8 87 -16 160 -17 162 -2 1 -41 -9 -87
-22 -173 -50 -357 -52 -449 -5 -78 40 -129 120 -153 239 -15 77 -7 240 16 327
53 204 183 346 364 399 89 26 250 22 352 -10 46 -14 93 -27 104 -30 18 -5 30
18 103 183 45 103 82 191 82 194 0 12 -96 48 -196 75 -123 32 -363 42 -482 20z"/>
<path d="M9229 3725 c-98 -19 -165 -44 -261 -99 -272 -155 -459 -426 -534
-776 -26 -119 -26 -365 -1 -473 45 -190 166 -354 317 -430 122 -61 181 -72
370 -72 142 0 177 4 247 24 358 101 626 415 719 842 22 102 30 329 15 425 -27
167 -88 293 -190 394 -72 71 -170 126 -276 155 -85 23 -309 29 -406 10z m246
-434 c54 -25 81 -57 107 -127 20 -51 23 -78 22 -209 0 -177 -18 -259 -86 -395
-48 -96 -136 -193 -206 -229 -96 -49 -231 -47 -298 4 -136 104 -137 485 -1
728 62 111 153 202 233 231 58 21 180 20 229 -3z"/>
<path d="M11860 3715 c-97 -15 -249 -51 -355 -84 l-59 -19 -87 -358 c-271
-1122 -319 -1325 -319 -1334 0 -6 89 -10 249 -10 229 0 250 1 254 18 3 9 51
208 106 442 239 1002 215 912 242 923 13 6 78 11 144 11 136 1 183 -13 216
-68 60 -97 52 -159 -101 -805 -66 -278 -120 -509 -120 -513 0 -4 112 -8 250
-8 l249 0 10 38 c45 171 243 1024 252 1087 39 279 -59 523 -251 620 -113 57
-171 68 -385 71 -136 2 -230 -2 -295 -11z"/>
<path d="M5006 3673 c-3 -10 -44 -182 -91 -383 -48 -201 -140 -591 -206 -867
-65 -276 -119 -505 -119 -508 0 -3 113 -5 250 -5 138 0 250 2 250 4 0 4 44
186 301 1259 65 275 119 503 119 508 0 5 -106 9 -249 9 -229 0 -250 -1 -255
-17z"/>
<path d="M10576 3673 c-3 -10 -37 -153 -76 -318 -39 -165 -132 -555 -206 -866
-73 -311 -134 -568 -134 -572 0 -4 113 -7 250 -7 138 0 250 2 250 5 0 3 66
278 146 612 80 335 174 729 210 877 35 148 64 273 64 277 0 5 -112 9 -249 9
-229 0 -250 -1 -255 -17z"/>
</g>
</svg>
