<?xml version="1.0" standalone="no"?>
<!DOCTYPE svg PUBLIC "-//W3C//DTD SVG 20010904//EN"
 "http://www.w3.org/TR/2001/REC-SVG-20010904/DTD/svg10.dtd">
<svg version="1.0" xmlns="http://www.w3.org/2000/svg"
 width="1280.000000pt" height="843.000000pt" viewBox="0 0 1280.000000 843.000000"
 preserveAspectRatio="xMidYMid meet">
<metadata>
Created by potrace 1.15, written by Peter Selinger 2001-2017
</metadata>
<g transform="translate(0.000000,843.000000) scale(0.100000,-0.100000)"
fill="#000000" stroke="none">
<path d="M5630 8424 c-145 -25 -198 -42 -307 -96 -293 -146 -491 -448 -510
-778 -21 -355 211 -732 539 -879 129 -58 219 -75 383 -76 175 0 240 14 381 80
121 56 195 108 275 191 76 80 113 132 162 229 73 144 101 265 100 435 -1 105
-5 139 -27 213 -42 142 -121 284 -212 386 -104 115 -298 230 -460 271 -76 19
-269 34 -324 24z"/>
<path d="M3963 7235 c-170 -37 -328 -184 -403 -374 -59 -152 -93 -364 -92
-591 0 -598 279 -1213 712 -1575 216 -180 483 -305 785 -368 158 -33 284 -45
611 -57 527 -19 686 -12 883 44 124 36 411 104 411 99 0 -12 -224 -277 -286
-339 -190 -188 -503 -290 -959 -309 -138 -6 -167 -4 -355 25 -207 32 -470 50
-527 35 l-28 -7 50 -45 c33 -30 106 -72 220 -128 244 -119 290 -132 660 -190
127 -19 244 -37 260 -40 105 -17 350 -25 480 -15 568 42 953 279 1302 802 194
290 285 509 344 823 30 159 37 405 15 514 -57 279 -229 431 -475 419 -152 -7
-221 -55 -300 -208 -68 -132 -95 -222 -216 -730 -61 -258 -148 -528 -172 -537
-7 -3 -75 2 -151 11 -76 8 -246 20 -377 26 -277 13 -416 28 -580 65 -289 65
-514 157 -724 295 -111 73 -182 144 -257 256 -171 257 -230 532 -254 1179 -17
466 -31 576 -91 722 -35 83 -83 132 -164 169 -97 44 -206 54 -322 29z"/>
<path d="M5887 6500 c-394 -71 -693 -373 -767 -774 -16 -85 -8 -256 16 -346
55 -208 189 -411 352 -532 73 -54 220 -123 322 -150 113 -30 329 -32 435 -4
94 25 226 83 300 131 183 120 328 333 386 567 29 115 29 293 0 408 -27 108
-115 286 -184 370 -70 86 -201 190 -301 239 -134 65 -241 92 -386 96 -69 2
-147 0 -173 -5z"/>
<path d="M2109 4866 c-75 -21 -149 -67 -226 -140 -202 -191 -299 -476 -378
-1111 -84 -675 -95 -723 -296 -1240 -60 -154 -125 -320 -144 -370 -72 -186
-207 -395 -376 -581 -89 -98 -272 -273 -512 -488 l-177 -159 0 -184 c0 -101 2
-183 5 -183 8 0 485 284 582 347 244 157 559 417 818 677 309 309 515 569 717
906 319 531 527 1158 556 1679 13 242 -19 475 -83 608 -90 183 -305 288 -486
239z"/>
<path d="M9255 4784 c-110 -21 -221 -82 -294 -159 -148 -158 -414 -533 -561
-788 -202 -353 -403 -837 -484 -1162 -75 -301 -65 -582 27 -794 38 -87 152
-264 254 -391 300 -376 961 -913 1577 -1282 129 -78 316 -160 316 -140 0 11
-98 123 -291 334 -97 106 -224 251 -283 321 -297 356 -589 798 -761 1152 -130
269 -147 377 -81 521 38 82 79 137 218 288 231 251 536 678 662 926 174 341
247 614 217 808 -32 205 -139 329 -318 367 -81 17 -106 17 -198 -1z"/>
<path d="M3128 4760 c-168 -26 -315 -136 -353 -264 -63 -208 19 -461 237 -737
256 -324 668 -665 1173 -970 169 -102 264 -218 285 -345 7 -41 5 -91 -6 -178
-64 -508 -270 -1100 -640 -1836 -106 -212 -196 -395 -199 -408 -6 -22 -5 -22
47 9 104 64 554 558 812 893 119 155 363 519 445 663 229 405 342 804 298
1050 -24 131 -56 218 -142 388 -248 491 -761 1069 -1305 1472 -195 144 -317
221 -382 241 -77 24 -194 33 -270 22z"/>
<path d="M10171 4718 c-119 -67 -169 -112 -209 -185 -59 -112 -77 -198 -76
-378 1 -565 279 -1309 715 -1917 484 -673 1153 -1208 2042 -1632 l157 -75 0
177 0 177 -63 50 c-34 28 -150 117 -257 199 -250 191 -285 219 -402 327 -114
106 -229 240 -311 364 -72 109 -460 883 -510 1015 -37 100 -58 182 -156 625
-108 484 -186 724 -305 940 -56 101 -187 228 -293 283 -88 46 -183 82 -217 82
-12 0 -63 -24 -115 -52z"/>
</g>
</svg>
