<?xml version="1.0" standalone="no"?>
<!DOCTYPE svg PUBLIC "-//W3C//DTD SVG 20010904//EN"
 "http://www.w3.org/TR/2001/REC-SVG-20010904/DTD/svg10.dtd">
<svg version="1.0" xmlns="http://www.w3.org/2000/svg"
 width="1280.000000pt" height="659.000000pt" viewBox="0 0 1280.000000 659.000000"
 preserveAspectRatio="xMidYMid meet">
<metadata>
Created by potrace 1.15, written by Peter Selinger 2001-2017
</metadata>
<g transform="translate(0.000000,659.000000) scale(0.100000,-0.100000)"
fill="#000000" stroke="none">
<path d="M12665 6537 c-120 -63 -166 -92 -268 -169 -194 -147 -355 -345 -472
-578 -32 -63 -212 -370 -263 -449 -14 -21 -7 -19 63 19 225 122 301 199 501
512 54 84 121 185 149 223 28 39 61 86 72 105 28 45 93 107 219 208 55 44 108
92 118 107 20 30 18 69 -4 72 -8 2 -60 -21 -115 -50z"/>
<path d="M6 6524 c-17 -44 13 -81 178 -212 65 -53 130 -112 145 -133 131 -189
198 -288 293 -434 146 -223 243 -322 404 -413 61 -34 114 -62 118 -62 4 0 -1
12 -12 28 -41 59 -207 342 -274 466 -146 274 -322 468 -568 628 -71 46 -259
148 -274 148 -2 0 -7 -7 -10 -16z"/>
<path d="M11534 6252 c-162 -90 -251 -180 -470 -472 -111 -149 -138 -183 -319
-403 -109 -132 -135 -172 -135 -206 0 -33 15 -33 85 3 132 69 323 215 441 338
108 112 219 273 260 379 18 48 67 123 170 263 36 49 63 96 62 105 -5 26 -39
23 -94 -7z"/>
<path d="M1181 6216 c-16 -20 0 -49 108 -196 43 -58 100 -152 128 -210 114
-236 299 -437 570 -619 101 -67 177 -106 193 -96 27 17 -5 82 -87 180 -130
155 -275 338 -387 490 -147 198 -298 352 -406 412 -97 54 -104 57 -119 39z"/>
<path d="M9411 6137 c-52 -124 -129 -277 -166 -327 -52 -71 -88 -100 -275
-225 -397 -266 -555 -411 -659 -607 -45 -84 -81 -187 -81 -233 0 -115 -124
-265 -218 -265 -47 0 -69 14 -93 61 -49 97 -36 173 65 375 35 71 66 146 69
168 l6 38 -22 -18 c-115 -95 -188 -185 -249 -309 -54 -109 -72 -184 -72 -310
-1 -101 1 -115 28 -172 48 -106 119 -160 326 -253 154 -70 225 -122 278 -204
48 -73 107 -129 167 -157 48 -22 132 -25 178 -5 40 17 300 282 348 356 50 76
84 146 98 203 10 43 9 57 -18 150 -66 228 -68 377 -8 494 9 17 64 82 122 144
107 115 168 195 162 213 -7 22 -39 17 -85 -12 -26 -16 -74 -43 -107 -58 -88
-42 -192 -149 -237 -244 -57 -120 -72 -193 -73 -370 -2 -163 -9 -195 -56 -262
-33 -46 -106 -88 -152 -88 -32 0 -46 7 -77 38 -54 53 -65 101 -65 267 0 165
17 232 96 385 94 184 224 332 484 551 194 163 277 270 326 421 28 84 31 223 8
295 l-14 42 -34 -82z"/>
<path d="M3327 6203 c-3 -5 -11 -40 -18 -77 -38 -221 80 -455 329 -653 131
-104 311 -281 382 -375 159 -211 228 -407 217 -618 -6 -126 -26 -189 -73 -230
-75 -66 -190 -16 -255 110 -21 41 -23 60 -24 205 -2 128 -6 176 -23 238 -50
183 -141 303 -290 381 -48 25 -100 54 -117 66 -35 23 -63 26 -71 6 -8 -22 43
-91 159 -213 58 -62 113 -130 125 -157 62 -131 55 -261 -29 -552 -11 -36 -10
-50 10 -112 35 -109 108 -210 269 -374 159 -162 177 -173 273 -166 78 6 155
58 218 148 70 100 122 144 229 196 54 25 134 64 180 86 149 73 221 160 243
296 26 159 -28 351 -147 518 -40 56 -183 198 -191 190 -11 -11 26 -113 81
-223 80 -159 96 -225 73 -304 -9 -31 -28 -68 -41 -82 -52 -56 -150 -26 -221
67 -32 42 -65 126 -65 165 0 38 -36 154 -68 216 -106 210 -264 356 -707 653
-83 55 -171 122 -196 149 -60 64 -116 160 -184 318 -63 143 -61 140 -68 128z"/>
<path d="M11555 5780 c-45 -37 -119 -112 -166 -166 -46 -55 -124 -144 -171
-200 -132 -155 -247 -249 -505 -414 -375 -239 -528 -351 -611 -445 -43 -49
-125 -210 -237 -465 -161 -366 -239 -496 -383 -643 -61 -62 -70 -68 -99 -64
-76 13 -113 65 -120 167 -6 80 16 181 58 266 38 77 167 211 409 426 353 313
412 388 546 695 90 207 113 318 78 384 -8 17 -17 29 -18 27 -2 -1 -20 -43 -41
-93 -93 -219 -186 -355 -354 -517 -70 -68 -182 -166 -251 -218 -350 -268 -438
-340 -517 -418 -191 -191 -292 -375 -339 -621 -18 -95 -22 -258 -14 -656 6
-288 -5 -375 -67 -530 -160 -406 -365 -687 -635 -872 -37 -25 -65 -50 -62 -55
11 -17 71 -7 132 22 87 41 201 119 295 202 209 184 408 305 811 489 288 132
429 272 783 773 275 388 333 452 537 588 83 55 168 117 189 137 37 35 73 89
65 97 -7 7 -227 -85 -341 -142 -378 -189 -598 -390 -917 -834 -114 -160 -193
-234 -281 -265 -35 -13 -45 -13 -55 -3 -18 19 -44 115 -44 163 0 104 66 274
145 370 37 46 130 100 495 290 318 165 423 228 589 353 232 175 343 296 527
574 48 73 130 198 183 278 220 333 416 536 698 723 107 70 112 75 95 90 -43
39 -142 11 -352 -99 -385 -202 -673 -472 -981 -922 -120 -175 -212 -273 -296
-314 -53 -26 -67 -29 -88 -20 -31 14 -40 63 -27 139 35 198 137 330 442 573
448 357 690 621 864 944 43 79 121 265 114 271 -1 1 -39 -28 -83 -65z"/>
<path d="M1160 5786 c0 -14 63 -163 101 -237 160 -319 415 -603 853 -953 338
-269 451 -419 472 -625 12 -109 -34 -138 -128 -83 -87 50 -155 119 -242 247
-285 417 -530 677 -811 860 -110 72 -356 199 -434 224 -79 26 -102 26 -131 3
l-22 -18 89 -58 c217 -144 336 -248 481 -417 122 -143 185 -231 339 -469 256
-397 342 -498 575 -677 196 -151 318 -225 699 -421 282 -145 388 -207 421
-245 40 -47 116 -203 134 -277 28 -110 -1 -270 -48 -270 -35 0 -121 49 -171
98 -27 26 -121 143 -209 260 -254 338 -369 451 -625 620 -172 113 -573 300
-573 267 0 -38 73 -105 230 -210 227 -151 284 -212 587 -640 167 -235 248
-339 355 -451 136 -142 234 -211 413 -290 410 -182 660 -331 860 -512 76 -69
209 -157 255 -170 20 -5 50 -7 67 -5 l32 5 -92 77 c-317 267 -567 653 -640
991 -19 86 -21 119 -17 355 9 555 4 639 -51 808 -62 189 -168 350 -336 507
-49 45 -198 166 -332 269 -482 367 -628 534 -767 876 l-32 79 -16 -38 c-34
-82 -12 -179 99 -431 107 -243 199 -361 472 -601 92 -81 227 -207 300 -279
107 -107 138 -144 162 -196 102 -218 74 -411 -61 -426 -44 -5 -44 -5 -115 71
-134 143 -207 271 -388 676 -140 316 -177 380 -264 463 -102 97 -208 174 -483
350 -371 237 -442 297 -668 562 -71 83 -154 175 -187 206 -65 63 -153 135
-153 125z"/>
<path d="M5320 4200 c-518 -64 -976 -423 -1159 -910 -69 -183 -86 -284 -86
-515 1 -168 4 -215 22 -297 83 -367 291 -709 594 -974 136 -119 253 -207 542
-406 320 -222 458 -330 611 -478 145 -141 243 -266 345 -438 39 -64 83 -132
99 -151 l29 -35 50 75 c27 41 72 110 98 154 146 242 341 439 625 630 63 42
236 149 384 237 309 184 423 260 553 365 302 245 564 648 653 1006 46 186 46
451 1 642 -134 557 -590 990 -1138 1080 -88 15 -117 15 -205 5 -356 -41 -729
-280 -911 -583 l-35 -57 -68 102 c-91 137 -277 325 -398 404 -92 59 -194 107
-281 131 -65 18 -230 24 -325 13z"/>
</g>
</svg>
