<?xml version="1.0" standalone="no"?>
<!DOCTYPE svg PUBLIC "-//W3C//DTD SVG 20010904//EN"
 "http://www.w3.org/TR/2001/REC-SVG-20010904/DTD/svg10.dtd">
<svg version="1.0" xmlns="http://www.w3.org/2000/svg"
 width="826.000000pt" height="1280.000000pt" viewBox="0 0 826.000000 1280.000000"
 preserveAspectRatio="xMidYMid meet">
<metadata>
Created by potrace 1.15, written by Peter Selinger 2001-2017
</metadata>
<g transform="translate(0.000000,1280.000000) scale(0.100000,-0.100000)"
fill="#000000" stroke="none">
<path d="M1444 12789 c-17 -5 -39 -18 -49 -29 -10 -11 -25 -20 -34 -20 -24 0
-92 -42 -142 -86 -101 -89 -239 -236 -239 -254 0 -10 -5 -22 -11 -25 -5 -4 -8
-12 -6 -18 2 -7 -7 -36 -21 -65 -18 -40 -27 -84 -35 -171 -5 -64 -9 -129 -9
-146 1 -16 0 -50 0 -75 -2 -50 -2 -57 4 -214 3 -74 8 -111 16 -114 7 -2 9 -9
5 -15 -4 -7 1 -6 10 2 9 7 17 11 17 8 0 -12 -23 -57 -29 -57 -3 0 -28 16 -56
35 -27 20 -66 41 -87 47 -62 18 -84 -6 -133 -144 -23 -63 -54 -136 -69 -162
l-28 -48 22 -23 22 -23 -59 -64 c-68 -73 -135 -160 -185 -238 -65 -104 -170
-291 -205 -368 -19 -42 -47 -102 -63 -134 -21 -44 -28 -72 -29 -128 -1 -40 -3
-76 -6 -79 -2 -4 -7 -45 -10 -92 -3 -46 -10 -109 -15 -139 -12 -69 -16 -428
-6 -495 5 -27 9 -59 10 -70 0 -11 5 -26 9 -32 5 -7 6 -17 3 -22 -7 -10 39
-243 88 -455 20 -82 36 -167 38 -190 1 -23 5 -48 9 -56 4 -8 19 -73 34 -145
33 -160 74 -303 133 -460 l44 -120 -5 -105 c-3 -69 -12 -125 -26 -164 -12 -33
-21 -71 -21 -85 0 -54 -43 -180 -106 -310 -69 -144 -99 -253 -110 -410 -2 -31
-13 -91 -25 -134 -25 -89 -18 -112 25 -83 l26 16 -7 -46 -6 -47 31 6 c28 6 32
4 32 -16 1 -23 28 -127 103 -396 52 -184 61 -200 180 -324 112 -116 137 -158
139 -238 1 -70 27 -152 61 -195 15 -19 24 -50 30 -98 4 -39 9 -80 11 -91 4
-21 4 -23 29 -101 9 -28 21 -80 26 -116 5 -35 21 -88 35 -116 18 -36 26 -67
26 -103 0 -29 14 -106 31 -172 30 -116 31 -125 23 -241 -11 -164 -6 -335 10
-389 8 -27 10 -51 5 -58 -5 -8 -9 -33 -9 -55 0 -23 -6 -57 -14 -75 -8 -20 -12
-52 -9 -79 4 -35 -4 -69 -34 -155 -22 -60 -45 -137 -53 -170 -7 -33 -25 -109
-41 -170 -38 -150 -47 -205 -59 -385 -9 -132 -8 -192 9 -410 11 -140 24 -268
29 -285 5 -16 9 -73 11 -125 1 -75 -4 -114 -24 -188 -14 -52 -22 -98 -19 -103
3 -6 1 -15 -4 -22 -13 -17 -14 -91 -1 -160 11 -64 0 -281 -25 -462 -7 -55 -14
-113 -13 -130 0 -16 -6 -79 -13 -140 -18 -161 -11 -225 32 -315 31 -65 37 -88
43 -179 8 -127 14 -143 62 -176 36 -24 170 -73 223 -80 14 -2 25 -4 25 -5 0
-1 14 -3 30 -4 17 -2 58 -7 92 -11 l63 -7 49 44 c27 25 70 53 95 62 46 18 46
18 189 -18 78 -20 209 -45 291 -57 173 -24 219 -22 571 32 92 14 297 72 338
96 41 24 49 73 18 100 -12 10 -21 27 -21 38 0 11 -11 38 -23 61 l-24 40 66 12
c86 17 117 32 113 57 -2 11 -9 25 -16 30 -7 6 -16 28 -20 50 -10 52 -30 89
-59 108 -21 14 -129 41 -322 81 -144 29 -238 64 -282 106 -24 21 -63 48 -88
59 -25 11 -48 27 -51 35 -3 9 -13 16 -21 16 -17 0 -86 39 -91 52 -2 4 -12 8
-23 8 -11 0 -22 7 -25 15 -4 8 -12 15 -19 15 -18 0 -45 34 -45 56 0 11 -8 36
-19 56 l-18 37 36 23 c33 22 36 27 34 70 0 30 -14 72 -38 123 -35 73 -37 82
-32 146 4 48 2 80 -8 102 -11 27 -12 91 -4 362 10 356 16 424 53 579 14 56 39
178 56 271 17 94 44 213 60 265 34 117 44 160 66 275 9 50 32 139 50 198 32
103 53 183 76 292 15 74 16 86 28 250 6 83 21 195 33 250 28 127 30 382 3 482
-14 55 -16 108 -12 395 7 475 -9 731 -60 954 -8 33 -14 87 -14 120 0 53 -13
111 -55 252 -7 23 -8 42 -3 42 5 0 36 -14 69 -30 40 -21 67 -42 81 -65 44 -75
51 -17 14 115 -47 166 -58 228 -54 316 2 47 6 88 10 90 13 8 -1 237 -17 292
-9 30 -14 56 -12 59 3 2 58 -53 122 -123 93 -101 125 -144 156 -208 32 -65 51
-90 96 -126 93 -75 124 -95 226 -151 55 -29 133 -83 174 -119 117 -101 133
-111 178 -109 22 2 49 -3 61 -9 16 -8 37 -7 94 8 64 17 76 17 94 4 26 -18 69
-18 106 1 26 14 33 13 70 -1 51 -20 108 -7 138 31 l19 24 24 -25 c13 -14 37
-33 53 -41 26 -14 31 -13 55 5 42 31 49 64 22 118 -20 42 -20 46 -4 39 69 -29
71 -29 97 -11 38 24 49 59 32 99 -7 18 -20 38 -30 46 -36 30 39 73 133 75 79
1 132 25 210 91 91 78 110 85 386 145 284 61 537 145 824 272 104 45 136 56
143 46 5 -7 6 -44 2 -83 -3 -38 -8 -106 -9 -150 -2 -44 -13 -118 -24 -164 -32
-122 -41 -168 -46 -246 -8 -106 -22 -165 -67 -277 -113 -289 -175 -499 -229
-773 -6 -27 -14 -69 -20 -93 -5 -24 -7 -48 -3 -53 3 -5 0 -16 -6 -24 -6 -8 -9
-18 -6 -24 3 -5 -1 -60 -9 -123 -8 -62 -15 -118 -15 -124 0 -14 71 -35 145
-43 l60 -6 7 -105 c6 -103 15 -221 22 -290 2 -19 11 -84 20 -145 9 -60 19
-126 21 -145 3 -19 9 -50 15 -69 5 -19 7 -38 4 -42 -3 -5 -2 -14 2 -20 3 -6 8
-30 11 -53 2 -22 6 -59 8 -81 3 -22 10 -188 16 -370 9 -276 14 -341 31 -400
10 -38 30 -116 43 -172 13 -56 34 -121 46 -145 12 -24 23 -61 24 -83 1 -22 7
-101 13 -175 23 -286 35 -895 22 -1192 -6 -156 -16 -314 -21 -353 -6 -38 -13
-101 -15 -140 -3 -38 -10 -74 -15 -79 -6 -6 -9 -6 -9 0 -1 19 -60 -113 -70
-157 -6 -26 -22 -57 -35 -69 -13 -12 -29 -35 -35 -51 -7 -16 -16 -29 -21 -29
-5 0 -29 -18 -53 -40 -24 -22 -47 -40 -52 -40 -5 0 -20 -10 -34 -21 -75 -60
-225 -146 -295 -169 -22 -7 -76 -30 -120 -51 -44 -20 -138 -54 -210 -75 -159
-47 -182 -64 -191 -146 l-7 -56 39 -11 c118 -34 607 -48 681 -20 64 24 258 29
653 17 161 -5 238 -3 270 5 l45 12 6 55 c3 30 12 98 19 150 12 89 11 101 -10
195 -20 89 -29 191 -21 250 6 44 -7 158 -18 165 -10 5 -11 31 -7 96 4 49 7 98
7 109 2 42 32 197 70 360 22 94 53 232 70 308 16 76 45 191 63 256 19 65 37
135 41 157 4 21 9 47 11 56 4 12 34 -16 112 -105 59 -67 136 -153 171 -192
238 -263 643 -818 648 -890 7 -86 11 -113 25 -144 18 -39 11 -87 -18 -127 -32
-44 -83 -127 -98 -159 -8 -16 -23 -41 -33 -55 -11 -14 -31 -45 -45 -70 -15
-25 -55 -76 -90 -113 -67 -69 -113 -94 -344 -181 -39 -15 -81 -37 -92 -49 -21
-22 -47 -120 -37 -137 10 -17 70 -18 320 -9 328 12 366 20 489 104 163 111
295 185 550 310 138 67 259 131 270 143 17 19 17 24 3 69 -9 26 -21 73 -27
103 -25 113 -81 217 -171 316 -28 31 -65 85 -81 120 -17 35 -42 74 -57 87 -16
12 -39 37 -52 55 -15 21 -30 32 -40 29 -9 -3 -21 -2 -26 2 -11 7 -95 132 -145
216 -55 92 -354 687 -403 803 -126 293 -301 489 -595 667 -375 226 -367 217
-356 389 9 133 15 152 152 472 58 137 121 294 139 349 32 95 73 269 81 345 9
76 14 130 24 255 5 72 13 163 16 202 l7 73 36 10 c46 13 98 13 106 0 4 -6 12
-7 18 -3 7 4 59 10 117 12 167 6 203 5 244 -1 l38 -7 -5 42 c-4 23 -13 76 -20
117 -8 41 -13 78 -11 82 3 4 0 9 -6 13 -6 4 -8 10 -5 15 3 5 1 28 -5 51 -12
44 -15 77 -30 297 -5 78 -11 146 -15 151 -3 6 -7 31 -10 58 -12 140 -17 174
-36 246 -25 91 -144 338 -253 522 -57 97 -75 136 -71 154 3 13 -3 51 -14 85
-21 63 -42 204 -33 220 2 4 8 45 12 90 9 89 34 269 50 356 6 30 51 190 100
355 49 165 98 343 109 395 36 172 63 315 66 340 9 97 26 294 29 337 5 59 -17
329 -34 413 -23 120 -93 287 -162 388 -22 31 -34 41 -47 37 -14 -4 -39 22
-110 112 -113 147 -138 197 -139 282 -1 55 3 70 29 107 35 52 103 197 120 257
7 23 15 75 18 116 4 51 11 76 21 82 8 4 40 19 72 33 31 13 59 30 63 36 12 19
25 -10 25 -55 0 -40 38 -137 59 -149 18 -11 13 26 -8 60 -24 39 -37 129 -21
139 9 6 10 -1 5 -24 -4 -20 -3 -31 4 -31 6 0 11 -6 11 -14 0 -8 14 -30 30 -48
17 -18 28 -38 26 -45 -3 -6 -7 -29 -10 -50 -4 -21 3 -6 14 32 11 39 24 77 30
87 5 9 7 33 4 55 l-6 38 25 -50 c14 -27 26 -48 26 -45 1 3 -6 43 -14 90 -20
111 -20 116 1 99 15 -12 16 -11 11 6 -3 11 -17 65 -30 121 -32 128 -56 176
-157 302 -81 102 -116 126 -144 103 -10 -8 -18 -6 -32 10 -65 72 -175 59 -205
-25 -7 -19 -19 -38 -26 -40 -7 -3 -33 19 -59 49 -79 91 -211 133 -388 122
-184 -11 -406 -108 -539 -236 -58 -55 -77 -88 -77 -133 0 -27 -6 -37 -32 -51
l-33 -19 20 23 20 22 -30 -7 c-55 -13 -61 -26 -45 -108 15 -85 16 -94 5 -208
-6 -68 -4 -98 9 -142 29 -101 23 -131 -59 -278 -43 -78 -43 -80 -26 -102 10
-12 34 -27 52 -33 32 -11 34 -14 34 -59 1 -37 6 -52 22 -64 16 -12 22 -27 21
-51 -1 -26 5 -40 27 -57 21 -16 30 -35 36 -74 9 -59 29 -86 76 -106 28 -12 44
-11 130 7 135 28 184 28 226 -1 65 -45 130 -176 130 -264 0 -43 -4 -53 -31
-75 -40 -33 -122 -138 -144 -182 -9 -19 -41 -86 -72 -149 -30 -63 -76 -139
-101 -168 -25 -30 -45 -58 -45 -63 0 -5 -24 -37 -54 -72 -99 -117 -183 -265
-244 -432 -22 -60 -26 -88 -27 -200 l-2 -130 -69 -113 c-126 -206 -130 -210
-369 -358 -143 -88 -276 -186 -400 -295 -133 -117 -314 -261 -400 -319 -59
-40 -76 -46 -107 -42 -24 3 -70 -7 -135 -28 -54 -18 -134 -36 -178 -41 -110
-11 -210 -35 -257 -61 -34 -19 -41 -20 -48 -8 -5 8 -52 71 -106 140 -134 173
-200 276 -290 453 -189 373 -256 485 -387 644 -87 104 -135 176 -183 275 -26
54 -27 58 -11 76 20 22 22 51 3 77 -7 11 -16 32 -20 47 -3 14 -17 39 -29 55
-13 15 -42 63 -65 106 -22 43 -55 94 -71 113 -17 19 -31 44 -31 56 0 11 -11
46 -24 77 -47 107 -74 187 -91 266 -18 85 -155 454 -211 568 -33 67 -33 68
-14 87 18 18 20 34 20 185 l0 164 -32 37 c-18 20 -73 69 -123 110 -49 40 -106
86 -124 102 l-35 30 30 35 c52 62 58 63 178 22 118 -40 153 -41 200 -4 33 26
56 69 56 105 0 17 12 37 35 58 19 18 35 42 35 53 0 11 10 24 25 31 23 10 29
24 37 77 3 15 11 20 38 21 42 1 81 16 99 37 10 13 9 38 -9 139 -11 68 -23 135
-27 151 -3 18 -1 27 7 27 7 0 10 7 6 16 -4 9 9 30 34 57 47 48 57 79 66 200 4
59 11 92 21 103 13 12 15 30 10 90 -4 46 -3 74 3 74 12 0 13 77 1 84 -15 10
-96 150 -97 169 -2 28 -82 105 -139 134 -27 14 -60 34 -73 44 -13 10 -47 25
-75 35 -29 9 -65 27 -80 40 -15 13 -44 26 -65 29 -20 4 -50 11 -67 16 -36 12
-264 39 -320 38 -22 0 -54 -5 -71 -10z m5630 -1644 c10 -30 16 -60 13 -67 -6
-19 -35 43 -43 92 -10 60 9 45 30 -25z m-4240 -3866 c28 -30 35 -44 25 -49
-20 -13 -34 -2 -67 55 -36 65 -19 62 42 -6z"/>
<path d="M7004 10987 c3 -10 6 -30 6 -43 0 -13 5 -24 11 -24 13 0 2 60 -14 75
-7 7 -8 4 -3 -8z"/>
<path d="M7062 10910 c0 -14 2 -19 5 -12 2 6 2 18 0 25 -3 6 -5 1 -5 -13z"/>
<path d="M7070 10846 c0 -8 4 -17 9 -20 5 -4 7 3 4 14 -6 23 -13 26 -13 6z"/>
</g>
</svg>
