<?xml version="1.0" standalone="no"?>
<!DOCTYPE svg PUBLIC "-//W3C//DTD SVG 20010904//EN"
 "http://www.w3.org/TR/2001/REC-SVG-20010904/DTD/svg10.dtd">
<svg version="1.0" xmlns="http://www.w3.org/2000/svg"
 width="1248.000000pt" height="1280.000000pt" viewBox="0 0 1248.000000 1280.000000"
 preserveAspectRatio="xMidYMid meet">
<metadata>
Created by potrace 1.15, written by Peter Selinger 2001-2017
</metadata>
<g transform="translate(0.000000,1280.000000) scale(0.100000,-0.100000)"
fill="#000000" stroke="none">
<path d="M10310 12442 c-1534 -1586 -1863 -1929 -1858 -1940 1 -4 59 -57 128
-117 170 -148 485 -465 601 -605 302 -364 530 -744 713 -1190 26 -63 55 -126
66 -140 l19 -25 93 90 c51 49 614 606 1251 1238 l1157 1149 0 949 0 949 -912
-1 -913 -1 -345 -356z"/>
<path d="M5368 10850 c-258 -20 -473 -65 -745 -156 -519 -172 -905 -383 -1300
-708 -214 -177 -507 -487 -660 -701 -353 -492 -733 -1477 -623 -1617 27 -35
162 -123 309 -202 197 -106 222 -113 258 -73 34 37 53 83 68 169 18 103 87
353 154 558 189 575 672 1182 1241 1556 478 314 918 448 1594 486 356 19 666
-9 947 -87 439 -122 874 -356 1234 -666 111 -95 318 -306 411 -418 345 -420
549 -870 638 -1411 34 -209 46 -370 46 -623 0 -553 -92 -936 -346 -1437 -158
-313 -250 -426 -838 -1040 -665 -693 -668 -697 -884 -1021 -210 -315 -396
-637 -642 -1109 -256 -492 -375 -669 -534 -796 -234 -186 -625 -264 -934 -184
-115 29 -230 78 -382 164 -148 84 -224 116 -272 116 -76 0 -190 -92 -236 -189
-47 -102 -25 -230 58 -324 92 -106 368 -263 580 -332 206 -66 291 -79 530 -79
186 -1 230 2 328 22 361 73 671 241 933 504 219 220 320 380 491 777 161 375
318 646 563 976 214 289 421 521 798 894 283 281 494 502 617 651 343 412 546
802 715 1374 115 393 126 483 126 1066 0 560 -11 667 -106 988 -290 988 -809
1707 -1615 2237 -555 364 -1040 545 -1665 620 -152 19 -693 28 -857 15z"/>
<path d="M5615 9684 c-16 -2 -77 -11 -135 -20 -365 -54 -776 -204 -1080 -394
-240 -150 -528 -410 -687 -620 -133 -177 -279 -438 -302 -541 -20 -88 9 -132
147 -223 204 -135 277 -155 336 -93 17 19 53 72 80 118 291 499 578 776 997
966 247 111 431 157 692 174 188 11 479 -1 597 -27 276 -59 609 -222 855 -418
91 -73 262 -242 336 -332 75 -92 165 -227 222 -334 160 -300 284 -808 263
-1075 -30 -372 -186 -824 -384 -1109 -73 -105 -106 -179 -93 -204 31 -57 218
-190 322 -228 61 -23 90 -14 156 49 179 169 441 719 508 1067 38 199 38 901 0
1100 -52 270 -230 685 -409 953 -434 650 -1075 1044 -1906 1172 -100 15 -451
28 -515 19z"/>
<path d="M2907 4878 c-85 -71 -906 -892 -1995 -1998 l-912 -925 0 -977 0 -978
879 0 878 0 109 113 c59 61 408 418 774 792 1248 1276 2356 2420 2484 2564 66
74 77 105 50 131 -51 48 -1907 1179 -2094 1276 -115 59 -102 59 -173 2z"/>
</g>
</svg>
