<?xml version="1.0" standalone="no"?>
<!DOCTYPE svg PUBLIC "-//W3C//DTD SVG 20010904//EN"
 "http://www.w3.org/TR/2001/REC-SVG-20010904/DTD/svg10.dtd">
<svg version="1.0" xmlns="http://www.w3.org/2000/svg"
 width="1280.000000pt" height="905.000000pt" viewBox="0 0 1280.000000 905.000000"
 preserveAspectRatio="xMidYMid meet">
<metadata>
Created by potrace 1.15, written by Peter Selinger 2001-2017
</metadata>
<g transform="translate(0.000000,905.000000) scale(0.100000,-0.100000)"
fill="#000000" stroke="none">
<path d="M7340 8400 c-130 -16 -244 -75 -337 -174 -173 -182 -209 -426 -97
-655 43 -87 141 -191 220 -233 l51 -28 7 63 c4 34 24 134 45 222 27 113 36
167 30 183 -12 32 -11 95 2 129 19 51 48 73 95 73 79 0 92 -54 49 -199 -32
-108 -31 -126 4 -162 49 -49 123 -34 176 36 62 80 86 265 46 343 -41 80 -106
116 -211 116 -63 1 -85 -4 -134 -28 -60 -30 -109 -84 -133 -149 -19 -52 -16
-143 7 -187 23 -46 25 -69 6 -95 -13 -18 -14 -18 -47 3 -19 11 -46 40 -59 64
-22 37 -25 56 -25 133 0 75 4 97 24 135 77 145 192 211 366 212 125 1 189 -24
272 -107 48 -48 65 -73 77 -115 51 -171 -26 -379 -164 -450 -79 -40 -160 -38
-225 6 -21 14 -38 24 -40 22 -1 -2 -10 -35 -20 -75 -9 -40 -30 -99 -46 -133
l-28 -61 27 -10 c53 -21 165 -23 246 -5 201 45 352 178 423 373 13 35 23 75
23 89 0 38 29 43 57 8 30 -38 189 -332 247 -457 l46 -98 0 -164 c0 -189 5
-179 -98 -191 -56 -6 -62 -9 -62 -29 0 -13 -3 -30 -6 -39 -6 -14 20 -16 245
-16 l251 0 0 -189 c0 -202 9 -252 53 -299 53 -57 55 -57 409 -57 181 0 328 -2
328 -5 0 -3 -7 -14 -15 -24 -8 -11 -15 -23 -15 -28 0 -4 36 -8 80 -8 80 0 106
-13 50 -25 -16 -4 -30 -10 -30 -13 0 -14 153 -467 160 -475 4 -5 30 58 57 140
l50 148 -36 97 c-33 92 -36 97 -68 103 -18 3 -33 10 -33 15 0 6 58 10 140 10
82 0 140 -4 140 -10 0 -5 -15 -12 -34 -15 -41 -8 -46 18 58 -285 41 -118 77
-208 79 -200 37 103 70 227 74 275 5 56 2 65 -36 138 -22 43 -41 90 -41 105 0
32 25 72 45 72 26 0 28 23 4 42 -59 47 -135 76 -241 93 l-38 6 0 237 c0 136
-5 253 -11 275 -14 52 -72 114 -117 127 -50 14 -825 13 -875 -1 -52 -14 -102
-61 -123 -115 l-17 -45 -66 3 -66 3 -9 84 c-4 46 -5 125 -1 176 8 115 27 150
189 351 l112 139 73 26 c73 25 100 49 101 92 0 16 -17 17 -226 17 l-225 0 3
-42 3 -43 65 -16 c45 -11 66 -21 68 -33 2 -10 -13 -43 -34 -74 -51 -78 -163
-222 -173 -222 -4 0 -51 89 -104 198 -103 214 -132 280 -125 288 3 2 38 10 79
17 72 12 74 13 77 43 4 42 -4 44 -225 44 l-183 0 -5 28 c-12 59 -39 139 -60
182 -53 105 -167 212 -276 258 -87 37 -207 54 -299 42z m1917 -1692 c95 -56
170 -104 166 -108 -15 -12 -340 -200 -346 -200 -4 0 -7 92 -7 205 0 113 3 205
7 205 3 0 84 -46 180 -102z"/>
<path d="M6465 8382 c-51 -24 -101 -80 -114 -129 -6 -21 -11 -79 -11 -130 l0
-92 -62 -3 -63 -3 -3 -87 -3 -88 66 0 65 0 0 -295 0 -296 118 3 117 3 3 293 2
292 90 0 c102 0 95 -9 104 113 l5 67 -99 0 -100 0 0 73 c0 100 12 111 115 105
61 -3 76 -1 79 12 13 46 28 161 22 167 -3 4 -70 8 -149 10 -123 3 -147 1 -182
-15z"/>
<path d="M5615 8176 c-74 -33 -121 -132 -96 -199 6 -16 11 -52 11 -81 0 -90
25 -152 85 -212 63 -64 111 -80 265 -89 99 -6 107 -5 139 17 70 47 76 66 73
201 -3 142 -18 197 -68 256 -50 58 -120 91 -218 102 -45 5 -99 12 -121 14 -23
3 -53 -1 -70 -9z m286 -121 c52 -27 65 -75 26 -99 -16 -9 -24 -5 -51 27 -29
35 -36 38 -76 35 -69 -5 -83 -61 -19 -79 156 -43 189 -64 189 -118 0 -78 -58
-121 -160 -121 -66 0 -90 9 -132 48 -35 32 -38 77 -6 88 17 5 27 0 45 -22 46
-59 53 -64 88 -64 44 0 86 37 79 68 -6 19 -42 42 -69 42 -28 0 -110 32 -132
52 -60 56 -25 135 70 159 39 10 113 2 148 -16z"/>
<path d="M5343 7914 c-3 -9 7 -31 26 -55 18 -22 44 -65 59 -97 23 -49 27 -70
27 -147 0 -77 -4 -98 -27 -148 -15 -32 -42 -76 -59 -98 -32 -41 -33 -69 -2
-69 18 0 53 38 90 100 62 102 71 283 20 393 -50 109 -116 168 -134 121z"/>
<path d="M5016 7805 c-92 -69 -103 -75 -147 -75 l-48 0 -3 -102 -3 -103 -41 3
c-23 2 -60 -2 -83 -8 l-41 -11 -2 -132 -2 -132 -6 120 c-4 66 -8 121 -9 123 0
1 -8 2 -16 2 -13 0 -15 -23 -16 -137 -2 -147 -4 -145 -14 10 -5 74 -10 97 -21
97 -12 0 -14 -38 -14 -224 0 -205 6 -257 25 -226 4 6 10 32 15 58 l8 47 1 -52
c2 -84 30 -80 42 7 l6 45 2 -57 1 -58 221 0 c245 0 270 5 312 64 17 24 22 45
22 94 0 62 -1 64 -43 104 -41 38 -46 40 -98 36 -43 -2 -54 0 -54 12 0 33 -49
117 -88 153 -73 65 -14 43 88 -33 51 -38 99 -70 107 -70 10 0 13 51 13 260 0
143 -3 260 -7 260 -5 0 -53 -34 -107 -75z"/>
<path d="M5272 7848 c-18 -18 -15 -27 23 -82 70 -102 65 -227 -12 -320 -13
-16 -23 -36 -21 -45 6 -30 41 -17 75 27 73 97 82 233 20 345 -37 68 -66 94
-85 75z"/>
<path d="M5201 7766 c-9 -10 -4 -27 20 -72 38 -73 33 -116 -23 -196 -9 -13 -9
-20 1 -32 20 -24 49 -3 77 57 38 83 27 175 -28 234 -25 27 -31 28 -47 9z"/>
<path d="M4405 7366 c-4 -36 -6 -132 -4 -215 4 -149 4 -150 -19 -156 -33 -8
-100 -73 -124 -119 -13 -26 -22 -61 -22 -95 l-1 -53 -61 5 c-119 11 -271 87
-364 182 -24 25 -47 45 -51 45 -13 0 -29 -63 -29 -117 0 -62 20 -116 58 -157
l27 -29 -27 7 c-14 3 -33 9 -42 12 -13 5 -16 -1 -16 -27 1 -68 54 -147 125
-183 l30 -16 -37 0 c-21 0 -38 -5 -38 -10 0 -46 89 -133 152 -150 l43 -12 -23
-18 c-35 -29 -129 -60 -199 -67 l-63 -6 0 57 c0 56 0 56 -30 56 l-30 0 0 -121
c0 -121 -8 -159 -35 -159 -13 0 -15 24 -15 140 l0 140 -30 0 -30 0 0 -154 c0
-85 3 -161 6 -170 8 -20 57 -21 74 -1 16 19 30 19 30 -1 0 -11 8 -14 28 -12
l27 3 3 98 3 97 40 -21 c68 -34 185 -59 279 -59 252 0 471 136 583 361 48 97
77 200 77 280 0 41 5 50 55 102 30 31 55 61 55 66 0 5 -17 3 -37 -5 -61 -21
-65 -17 -28 32 51 67 46 76 -22 48 -67 -27 -86 -29 -102 -11 -6 8 -28 22 -48
31 l-38 17 0 192 c0 106 -4 201 -8 212 -18 45 -27 -17 -27 -202 0 -106 -3
-193 -7 -193 -5 0 -8 90 -9 200 0 109 -3 203 -8 207 -20 20 -26 -36 -24 -215
2 -139 0 -192 -8 -192 -9 0 -10 29 -7 103 6 117 -5 317 -17 317 -5 0 -12 -29
-15 -64z"/>
<path d="M4355 7285 c-9 -157 1 -293 18 -276 23 23 20 411 -3 411 -4 0 -11
-61 -15 -135z"/>
<path d="M4318 7394 c-5 -4 -9 -48 -9 -98 -2 -126 -16 -179 -18 -64 -1 95 -8
129 -22 106 -12 -18 -11 -325 0 -332 14 -9 21 19 22 82 1 70 17 43 18 -30 1
-50 14 -64 25 -25 7 29 6 303 -3 340 -3 16 -9 25 -13 21z"/>
<path d="M4127 7267 c-10 -26 -9 -235 2 -241 19 -12 27 138 13 219 -6 30 -9
36 -15 22z"/>
<path d="M4166 7209 c-7 -75 2 -199 14 -199 12 0 20 130 13 203 -3 37 -9 67
-13 67 -4 0 -10 -32 -14 -71z"/>
<path d="M4217 7243 c-9 -49 -7 -181 2 -213 13 -49 23 0 23 117 0 117 -14 168
-25 96z"/>
<path d="M4075 7198 c-4 -36 -4 -90 0 -120 7 -47 9 -50 17 -28 12 32 12 158 0
190 -8 21 -11 15 -17 -42z"/>
<path d="M4037 7200 c-10 -36 -9 -108 2 -114 13 -9 22 63 13 104 -8 33 -8 34
-15 10z"/>
<path d="M6668 6943 c7 -3 16 -2 19 1 4 3 -2 6 -13 5 -11 0 -14 -3 -6 -6z"/>
<path d="M6493 6933 c9 -2 23 -2 30 0 6 3 -1 5 -18 5 -16 0 -22 -2 -12 -5z"/>
<path d="M6928 6933 c6 -2 18 -2 25 0 6 3 1 5 -13 5 -14 0 -19 -2 -12 -5z"/>
<path d="M6715 6920 c-4 -6 7 -10 27 -10 25 0 29 3 18 10 -19 13 -37 13 -45 0z"/>
<path d="M6520 6910 c-20 -6 -21 -8 -5 -8 11 0 34 4 50 8 27 7 27 8 5 8 -14 0
-36 -4 -50 -8z"/>
<path d="M6830 6911 c0 -10 80 -25 88 -16 3 3 -2 5 -11 5 -9 0 -17 5 -17 10 0
6 -13 10 -30 10 -16 0 -30 -4 -30 -9z"/>
<path d="M7088 6913 c7 -3 16 -2 19 1 4 3 -2 6 -13 5 -11 0 -14 -3 -6 -6z"/>
<path d="M6348 6893 c7 -3 16 -2 19 1 4 3 -2 6 -13 5 -11 0 -14 -3 -6 -6z"/>
<path d="M7040 6891 c14 -4 43 -11 65 -15 l40 -6 -34 15 c-18 8 -47 15 -65 14
-30 -1 -30 -1 -6 -8z"/>
<path d="M7260 6886 c0 -2 9 -6 20 -9 11 -3 20 -1 20 4 0 5 -9 9 -20 9 -11 0
-20 -2 -20 -4z"/>
<path d="M6278 6873 c7 -3 16 -2 19 1 4 3 -2 6 -13 5 -11 0 -14 -3 -6 -6z"/>
<path d="M6434 6861 c4 -6 21 -11 37 -11 18 0 28 -4 24 -10 -11 -17 -70 -38
-236 -81 -88 -23 -158 -44 -155 -46 2 -2 24 1 50 8 25 6 55 9 66 6 11 -3 18
-2 15 3 -3 4 31 17 75 29 44 12 115 30 158 41 90 24 111 35 97 49 -15 15 -140
27 -131 12z"/>
<path d="M6752 6859 c-74 -9 -132 -27 -132 -39 0 -5 9 -14 19 -20 23 -12 398
-73 415 -67 6 2 -23 9 -64 16 -217 35 -280 51 -280 71 0 16 42 29 128 39 61 7
67 8 27 8 -27 0 -78 -3 -113 -8z"/>
<path d="M7270 6855 c6 -7 27 -16 46 -20 20 -3 43 -8 52 -11 9 -3 4 2 -13 12
-41 24 -100 37 -85 19z"/>
<path d="M6935 6831 c-16 -3 -30 -11 -30 -16 0 -13 57 -31 120 -38 l50 -6 -35
14 c-41 15 -30 23 53 35 l52 8 -70 1 c-38 1 -79 3 -90 5 -11 2 -33 1 -50 -3z"/>
<path d="M6060 6819 c0 -5 5 -7 10 -4 6 3 10 8 10 11 0 2 -4 4 -10 4 -5 0 -10
-5 -10 -11z"/>
<path d="M6199 6815 c-1 -3 -2 -11 -3 -17 0 -7 -17 -21 -36 -30 -19 -9 -31
-17 -26 -18 20 -1 143 41 161 54 19 14 16 15 -37 16 -32 0 -59 -2 -59 -5z"/>
<path d="M5840 6790 c-9 -6 -10 -10 -3 -10 6 0 15 5 18 10 8 12 4 12 -15 0z"/>
<path d="M5881 6784 c-19 -8 -32 -17 -28 -20 5 -6 67 23 67 31 0 6 0 7 -39
-11z"/>
<path d="M7305 6780 c3 -5 -14 -13 -37 -18 -24 -6 -34 -10 -22 -11 11 -1 48
-12 82 -26 67 -27 116 -35 74 -11 l-24 13 33 13 32 14 -34 11 c-48 17 -110 25
-104 15z"/>
<path d="M7530 6780 c0 -5 5 -10 11 -10 5 0 7 5 4 10 -3 6 -8 10 -11 10 -2 0
-4 -4 -4 -10z"/>
<path d="M5965 6755 c-31 -15 -131 -85 -122 -85 3 0 27 10 54 21 26 12 59 21
71 20 13 0 31 3 40 9 15 8 15 9 -2 10 -18 0 -18 1 -1 20 22 24 5 26 -40 5z"/>
<path d="M5710 6715 c-14 -8 -20 -14 -14 -15 5 0 19 7 30 15 24 18 16 19 -16
0z"/>
<path d="M6685 6719 c-173 -21 -341 -81 -420 -150 -78 -68 -85 -137 -23 -205
10 -12 18 -28 16 -35 -2 -9 5 -13 20 -11 12 2 22 -2 22 -8 0 -12 122 -70 160
-75 14 -2 26 -4 28 -4 1 -1 -2 -10 -8 -20 -8 -17 -6 -20 20 -26 44 -10 184
-23 192 -18 8 4 829 -176 837 -183 3 -2 -4 -10 -14 -18 -17 -12 -14 -15 34
-25 68 -14 78 -14 88 4 13 23 161 3 180 -25 14 -20 63 -28 63 -10 0 5 23 19
50 31 37 16 50 27 50 43 1 20 2 19 15 -4 l13 -25 11 28 c11 28 7 52 -7 43 -4
-2 -7 17 -8 44 -2 144 -203 349 -445 452 -96 41 -225 67 -254 51 -14 -8 -32
-4 -79 18 -105 49 -178 64 -316 64 -110 0 -130 -3 -167 -22 -45 -25 -60 -51
-44 -81 13 -24 78 -82 94 -83 7 -1 1 -4 -11 -8 -23 -6 -22 -8 18 -30 44 -25
62 -22 39 5 -13 16 -11 16 19 0 29 -15 32 -19 20 -33 -12 -15 -8 -16 31 -10
32 4 86 -4 195 -30 87 -20 181 -35 223 -36 40 -1 73 -5 73 -8 0 -4 17 -9 38
-13 28 -5 46 -18 77 -55 43 -54 112 -88 102 -50 -6 22 13 25 44 9 10 -6 19 -8
19 -4 0 9 -63 95 -141 194 -38 47 -69 90 -71 95 -1 6 -11 18 -22 28 -21 18
-20 18 26 13 93 -11 305 -137 383 -229 48 -55 95 -152 95 -194 0 -81 -45 -106
-185 -107 -128 0 -274 26 -640 115 -317 77 -533 143 -637 195 -68 34 -132 91
-144 126 -20 65 46 157 144 201 116 52 171 61 382 62 107 0 220 -3 250 -7 54
-7 54 -7 -10 7 -83 19 -322 27 -425 14z m410 -93 c80 -21 153 -63 206 -119 51
-54 63 -78 57 -118 -7 -54 -148 -43 -286 21 -58 27 -175 128 -171 147 1 4 -2
17 -6 27 -22 50 87 73 200 42z m812 -682 c-3 -3 -12 -4 -19 -1 -8 3 -5 6 6 6
11 1 17 -2 13 -5z"/>
<path d="M5991 6685 c-41 -13 -77 -28 -80 -32 -3 -5 -17 -14 -31 -21 l-25 -13
25 6 c144 31 220 27 220 -12 0 -26 -93 -109 -221 -197 -63 -44 -198 -137 -301
-208 -103 -71 -190 -133 -193 -138 -21 -33 51 9 463 273 127 82 140 88 177 83
39 -6 39 -5 12 7 l-28 13 45 32 c31 23 56 32 83 32 25 0 33 3 24 9 -11 7 -10
10 3 18 10 5 19 16 20 24 2 8 8 25 13 39 24 58 -16 76 -145 66 -47 -3 -84 -4
-81 -2 2 2 31 13 64 24 33 11 53 21 45 21 -8 0 -48 -11 -89 -24z"/>
<path d="M7208 6703 c7 -3 16 -2 19 1 4 3 -2 6 -13 5 -11 0 -14 -3 -6 -6z"/>
<path d="M5740 6689 c0 -5 5 -7 10 -4 6 3 10 8 10 11 0 2 -4 4 -10 4 -5 0 -10
-5 -10 -11z"/>
<path d="M7310 6680 c41 -10 93 -21 115 -24 22 -3 7 3 -33 14 -40 10 -91 21
-115 24 -23 3 -8 -3 33 -14z"/>
<path d="M7628 6688 c10 -13 9 -17 -10 -23 -22 -7 -22 -8 6 -12 42 -7 52 11
19 32 -21 14 -25 14 -15 3z"/>
<path d="M7770 6691 c0 -5 8 -11 18 -14 9 -2 25 -8 35 -12 28 -12 19 9 -10 23
-32 14 -43 15 -43 3z"/>
<path d="M7198 6683 c6 -2 18 -2 25 0 6 3 1 5 -13 5 -14 0 -19 -2 -12 -5z"/>
<path d="M7248 6673 c7 -3 16 -2 19 1 4 3 -2 6 -13 5 -11 0 -14 -3 -6 -6z"/>
<path d="M7365 6641 c50 -16 103 -34 119 -40 16 -7 31 -10 33 -7 6 6 -168 67
-207 72 -19 3 6 -9 55 -25z"/>
<path d="M7558 6663 c6 -2 18 -2 25 0 6 3 1 5 -13 5 -14 0 -19 -2 -12 -5z"/>
<path d="M5714 6648 c-10 -15 1 -19 26 -10 l24 9 -22 5 c-12 4 -25 2 -28 -4z"/>
<path d="M7732 6649 c2 -6 26 -27 53 -46 l50 -36 -39 35 c-24 21 -36 39 -32
46 5 8 0 12 -14 12 -12 0 -20 -5 -18 -11z"/>
<path d="M5550 6640 c-8 -5 -12 -11 -9 -14 2 -3 11 -1 19 4 8 5 12 11 9 14 -2
3 -11 1 -19 -4z"/>
<path d="M7478 6643 c7 -3 16 -2 19 1 4 3 -2 6 -13 5 -11 0 -14 -3 -6 -6z"/>
<path d="M7518 6633 c6 -2 18 -2 25 0 6 3 1 5 -13 5 -14 0 -19 -2 -12 -5z"/>
<path d="M7575 6620 c11 -5 29 -8 40 -8 16 0 15 2 -5 8 -34 11 -60 11 -35 0z"/>
<path d="M7977 6619 c7 -7 15 -10 18 -7 3 3 -2 9 -12 12 -14 6 -15 5 -6 -5z"/>
<path d="M5726 6606 c-27 -12 -27 -13 -7 -19 11 -3 21 -2 21 2 0 5 10 13 23
19 31 15 -2 13 -37 -2z"/>
<path d="M5453 6535 c-92 -65 -111 -75 -97 -53 5 7 3 8 -5 3 -9 -5 -10 -10 -2
-18 7 -7 17 -5 33 7 13 9 41 29 63 44 87 59 118 82 109 82 -5 0 -50 -29 -101
-65z"/>
<path d="M7980 6592 c0 -10 50 -35 57 -28 3 2 -9 12 -26 21 -17 8 -31 12 -31
7z"/>
<path d="M5631 6579 c-40 -16 -17 -20 25 -5 22 8 30 15 19 15 -11 0 -31 -5
-44 -10z"/>
<path d="M7614 6544 c48 -25 90 -43 92 -41 5 5 -159 87 -173 86 -4 0 32 -20
81 -45z"/>
<path d="M5680 6565 c-14 -8 -20 -14 -15 -14 6 0 21 6 35 14 14 8 21 14 15 14
-5 0 -21 -6 -35 -14z"/>
<path d="M7955 6539 c54 -46 123 -112 108 -104 -7 3 -13 4 -13 1 0 -8 76 -46
91 -46 14 0 -114 119 -145 135 -11 6 -34 19 -51 29 -22 14 -20 10 10 -15z"/>
<path d="M5746 6535 c-38 -13 -74 -29 -80 -36 -6 -6 7 -3 29 6 22 10 51 20 65
23 23 5 24 4 11 -12 -30 -37 -417 -320 -438 -320 -12 -1 -25 -5 -29 -9 -5 -4
-2 -6 6 -4 8 2 12 2 8 0 -4 -3 -10 -4 -14 -3 -4 1 -11 -4 -15 -12 -5 -7 -9 -8
-9 -2 0 31 117 147 230 228 70 50 80 59 56 50 -13 -5 -17 -4 -12 4 9 15 7 15
-32 1 -17 -6 -32 -16 -34 -23 -2 -7 -39 -43 -83 -80 -101 -87 -217 -199 -258
-250 -29 -36 -29 -38 -6 -26 13 7 43 30 65 52 l42 40 -4 -31 c-4 -35 7 -40 27
-12 8 11 68 52 134 92 66 39 190 120 275 178 85 58 159 105 163 103 5 -1 6 2
3 7 -3 5 1 14 9 21 8 7 15 19 15 26 0 21 -46 17 -124 -11z"/>
<path d="M8156 6481 c-7 -11 32 -36 41 -27 4 3 12 1 20 -5 9 -9 13 -8 13 0 0
10 -14 15 -24 9 -2 -2 -13 5 -24 15 -12 11 -22 14 -26 8z"/>
<path d="M5252 6409 c-19 -17 -32 -32 -30 -35 3 -2 20 12 38 31 42 43 37 45
-8 4z"/>
<path d="M8010 6426 c0 -3 9 -10 20 -16 11 -6 20 -8 20 -6 0 3 -9 10 -20 16
-11 6 -20 8 -20 6z"/>
<path d="M5147 6343 c-37 -42 -65 -78 -63 -80 7 -7 36 10 30 18 -3 5 23 38 57
74 34 36 58 65 53 64 -5 0 -39 -35 -77 -76z"/>
<path d="M8238 6356 c39 -37 72 -74 72 -81 0 -8 14 -23 30 -35 20 -14 30 -17
30 -9 0 16 -121 135 -170 168 -19 13 -2 -6 38 -43z"/>
<path d="M3100 6397 c0 -7 16 -60 35 -117 30 -90 35 -117 35 -199 0 -53 4
-102 9 -109 4 -8 19 -12 32 -10 23 3 24 7 30 103 4 75 15 129 42 217 21 64 37
119 37 122 0 3 -15 6 -33 6 -33 0 -34 0 -52 -75 -11 -41 -22 -75 -25 -75 -4 0
-15 34 -25 75 -19 74 -19 75 -52 75 -20 0 -33 -5 -33 -13z"/>
<path d="M5700 6376 c0 -2 7 -6 15 -10 8 -3 15 -1 15 4 0 6 -7 10 -15 10 -8 0
-15 -2 -15 -4z"/>
<path d="M8042 6344 c10 -10 188 -94 188 -89 0 2 -19 15 -42 29 -45 26 -158
73 -146 60z"/>
<path d="M5210 6325 l-25 -15 30 6 c33 7 58 24 35 24 -8 -1 -26 -7 -40 -15z"/>
<path d="M5079 6303 c-13 -16 -12 -17 4 -4 16 13 21 21 13 21 -2 0 -10 -8 -17
-17z"/>
<path d="M5760 6273 c-31 -19 -63 -46 -73 -59 l-18 -24 38 21 c77 42 101 60
107 76 10 26 3 24 -54 -14z"/>
<path d="M3349 6274 c-23 -24 -24 -32 -24 -144 0 -112 1 -120 24 -144 32 -34
80 -35 118 -2 26 23 28 30 32 116 5 155 -14 200 -87 200 -28 0 -45 -7 -63 -26z
m85 -50 c3 -9 6 -53 6 -99 0 -61 -4 -86 -15 -95 -12 -10 -18 -10 -30 0 -11 9
-15 34 -15 95 0 96 5 115 30 115 10 0 21 -7 24 -16z"/>
<path d="M5229 6253 l-24 -28 30 25 c17 14 32 26 34 28 2 1 0 2 -6 2 -5 0 -20
-12 -34 -27z"/>
<path d="M8406 6230 c39 -44 84 -105 84 -113 0 -14 -23 -6 -68 25 -29 19 -40
24 -29 11 9 -11 15 -22 12 -24 -2 -3 35 -43 83 -90 48 -46 69 -64 47 -40 -22
24 -59 62 -83 84 -55 52 -47 59 14 13 51 -39 64 -44 64 -22 0 19 -79 124 -121
161 l-34 30 31 -35z"/>
<path d="M8274 6236 c1 -8 5 -18 8 -22 4 -3 5 1 4 10 -1 8 -5 18 -8 22 -4 3
-5 -1 -4 -10z"/>
<path d="M5115 6221 c-17 -10 -45 -35 -64 -54 -19 -20 -38 -34 -43 -31 -4 3
-11 -3 -15 -13 -4 -10 -40 -66 -80 -126 -68 -100 -87 -137 -63 -122 5 3 48 63
94 133 82 124 159 212 172 199 9 -9 -8 -33 -209 -297 -194 -254 -224 -290
-243 -290 -19 0 0 59 52 163 24 48 42 87 39 87 -3 0 -30 -50 -60 -111 -49
-100 -69 -170 -47 -169 23 1 88 81 338 410 175 231 193 261 129 221z"/>
<path d="M8073 6215 c-10 -27 4 -82 37 -147 107 -211 485 -717 612 -818 22
-18 38 -40 39 -53 0 -20 1 -21 8 -3 7 19 8 19 29 -2 14 -14 22 -17 26 -9 3 8
5 6 5 -3 1 -8 11 3 22 25 60 111 -16 375 -175 614 -35 53 -74 105 -87 116 -13
11 -7 0 13 -25 163 -203 288 -570 218 -640 -26 -26 -29 -25 -76 6 -70 47 -173
163 -315 354 -187 251 -303 442 -316 524 -11 72 62 70 155 -4 59 -46 72 -76
107 -239 22 -108 26 -117 62 -148 45 -38 53 -40 53 -12 0 15 12 3 41 -40 61
-91 134 -163 162 -159 67 9 -3 206 -128 358 -50 60 -114 112 -134 108 -9 -2
-31 16 -52 42 -44 55 -111 111 -174 145 -55 29 -122 34 -132 10z m451 -275
c54 -58 101 -151 116 -229 10 -54 6 -91 -10 -91 -20 0 -86 90 -121 164 -38 81
-62 157 -40 126 6 -8 11 -10 11 -4 0 5 -7 19 -15 30 -18 24 -19 54 -1 54 7 0
34 -23 60 -50z"/>
<path d="M8304 6215 c1 -8 8 -21 16 -28 10 -10 11 -9 5 2 -5 9 -3 12 6 9 8 -3
13 -10 12 -16 -1 -5 4 -15 12 -22 18 -15 15 11 -5 35 -21 26 -49 38 -46 20z"/>
<path d="M5134 6158 c-121 -126 -194 -255 -180 -314 6 -23 10 -25 39 -19 41 9
182 83 204 107 16 18 16 18 -2 11 -11 -4 -48 -22 -83 -40 -67 -35 -119 -43
-128 -18 -15 37 60 162 166 278 70 77 58 73 -16 -5z"/>
<path d="M8480 6185 c0 -9 75 -115 105 -150 15 -16 6 0 -19 36 -25 37 -46 74
-46 82 0 9 -9 21 -20 27 -11 6 -20 8 -20 5z"/>
<path d="M10190 6048 c0 -40 -19 -109 -79 -283 -43 -126 -82 -238 -86 -247
-13 -32 13 -19 74 38 133 122 183 320 126 486 -23 67 -35 68 -35 6z"/>
<path d="M9348 6028 c-20 -65 -17 -222 5 -286 29 -81 93 -169 160 -218 32 -24
63 -42 67 -39 9 6 -200 585 -211 585 -5 0 -14 -19 -21 -42z"/>
<path d="M4854 5978 c-78 -107 -122 -212 -61 -149 12 13 16 21 10 17 -7 -4
-13 -4 -13 -1 0 11 51 97 88 148 18 26 31 47 28 47 -3 0 -27 -28 -52 -62z"/>
<path d="M4830 6015 c-6 -8 -10 -19 -8 -26 2 -6 9 0 16 15 13 29 10 33 -8 11z"/>
<path d="M8655 5974 c53 -84 63 -90 23 -15 -19 36 -40 67 -47 69 -7 2 4 -22
24 -54z"/>
<path d="M8610 5996 c0 -2 8 -10 18 -17 15 -13 16 -12 3 4 -13 16 -21 21 -21
13z"/>
<path d="M6566 5954 c-205 -27 -458 -128 -649 -258 -128 -86 -192 -142 -285
-246 -183 -207 -286 -427 -326 -703 -50 -331 33 -668 228 -932 79 -107 174
-204 268 -275 54 -41 72 -60 62 -64 -22 -9 -9 -23 29 -31 40 -9 174 -81 185
-101 4 -8 45 -30 91 -49 75 -32 86 -34 128 -25 25 6 48 8 51 5 3 -3 -3 -5 -13
-5 -25 0 -16 -6 20 -14 23 -5 27 -4 15 5 -12 8 -8 9 15 4 17 -4 73 -15 125
-24 85 -16 95 -20 93 -38 -3 -26 6 -29 88 -38 53 -6 67 -4 78 9 7 8 10 20 6
26 -4 6 17 10 62 11 37 0 101 4 141 8 l74 7 -4 -26 -4 -26 58 9 c45 8 59 14
65 31 4 11 6 24 6 27 -2 4 103 37 212 66 11 3 1 -8 -22 -26 -24 -17 -43 -35
-43 -41 0 -22 115 33 184 89 41 33 92 71 115 85 43 27 46 33 32 54 -6 11 -24
6 -82 -23 -500 -252 -1108 -230 -1565 57 -103 64 -254 199 -327 290 -168 213
-246 463 -234 747 9 197 61 381 169 599 58 116 89 164 73 111 -4 -13 -10 -31
-12 -39 -3 -8 5 1 17 20 45 71 170 219 238 281 66 61 178 133 322 206 56 29
60 33 30 28 -32 -4 -30 -2 18 20 89 42 170 66 306 91 l129 23 266 -24 c146
-14 283 -25 304 -25 23 0 36 -4 32 -10 -3 -5 0 -7 8 -4 8 3 45 -7 83 -21 192
-72 386 -217 508 -379 149 -198 211 -386 211 -641 -1 -150 -11 -224 -50 -360
-81 -280 -289 -530 -537 -645 -66 -30 -166 -60 -204 -60 -23 0 -84 45 -84 62
0 5 11 34 25 64 14 30 25 57 25 59 0 2 13 27 30 55 l30 50 -26 -16 c-21 -14
-16 -2 31 79 30 53 92 171 137 262 51 104 84 160 88 150 8 -23 121 279 131
353 5 35 18 96 28 135 10 40 22 95 25 122 l7 50 -113 40 c-62 22 -118 41 -124
43 -6 2 -32 -51 -58 -117 -26 -67 -51 -123 -55 -126 -5 -2 -14 23 -21 58 -28
146 -112 255 -235 306 -217 91 -467 86 -696 -13 -164 -71 -330 -198 -434 -331
-241 -310 -299 -634 -163 -915 33 -69 57 -101 126 -169 46 -46 76 -81 66 -77
-46 19 -46 16 -4 -13 120 -85 240 -122 389 -120 61 1 87 4 71 9 -30 9 -21 12
65 29 71 13 201 74 266 123 26 20 56 41 67 47 19 10 22 8 27 -26 25 -150 41
-178 129 -224 51 -27 172 -52 216 -44 92 15 97 17 75 27 -14 6 -8 7 20 3 25
-3 35 -1 26 4 -10 6 -4 11 20 16 58 11 214 92 286 147 37 28 62 45 55 36 -11
-13 -9 -16 11 -20 37 -7 84 40 81 80 -1 24 9 45 46 91 27 33 65 87 86 121 20
33 39 60 41 60 2 0 2 -4 -2 -10 -3 -5 -3 -21 1 -36 6 -25 9 -22 40 42 62 126
125 359 124 453 -1 23 -2 24 -13 10 -10 -13 -12 4 -9 91 11 314 -98 596 -318
820 -111 114 -207 180 -374 261 -277 134 -630 187 -950 143z m520 -64 c32 -9
-23 -6 -171 10 -75 8 -73 9 31 4 61 -3 124 -9 140 -14z m79 -638 c123 -49 180
-198 155 -412 -14 -125 -31 -182 -96 -320 -152 -319 -407 -591 -627 -667 -60
-21 -85 -25 -157 -21 -95 5 -122 16 -192 77 -72 64 -121 190 -94 243 6 13 13
39 14 58 8 94 81 319 132 406 10 17 21 47 25 65 17 82 161 277 300 408 66 61
94 78 208 122 35 14 56 28 53 35 -14 36 190 41 279 6z"/>
<path d="M3084 5901 c-61 -8 -98 -30 -121 -74 -15 -26 -18 -65 -21 -224 -5
-234 4 -289 54 -332 19 -17 42 -32 52 -32 9 -1 76 -4 147 -8 l130 -6 3 -34 c3
-32 5 -33 39 -28 20 4 54 19 77 34 39 26 48 28 197 34 179 7 208 17 243 84 19
37 21 56 21 255 0 243 -8 276 -75 315 -33 19 -53 20 -365 22 -181 0 -353 -2
-381 -6z m126 -135 c0 -21 -6 -25 -32 -28 l-33 -3 -3 -187 -2 -188 -30 0 -30
0 0 190 0 190 -35 0 c-31 0 -35 3 -35 25 l0 25 100 0 c99 0 100 0 100 -24z
m290 -41 c0 -60 9 -80 25 -55 9 14 58 13 73 -2 17 -17 17 -279 0 -296 -32 -32
-38 -14 -38 117 0 134 -8 159 -44 145 -13 -5 -16 -23 -16 -108 0 -100 -1 -103
-25 -114 -14 -7 -28 -12 -30 -12 -8 0 -6 376 2 383 3 4 17 7 30 7 22 0 23 -4
23 -65z m-220 -178 c0 -74 3 -137 6 -140 4 -3 15 -2 25 4 16 8 19 25 21 137
l3 127 28 3 27 3 0 -160 0 -161 -25 0 c-14 0 -28 7 -31 15 -5 12 -9 12 -29 -1
-33 -22 -68 -14 -76 16 -9 33 -11 275 -2 283 3 4 17 7 30 7 23 0 23 0 23 -133z
m530 108 c18 -19 23 -36 24 -82 l1 -58 -57 -3 -58 -3 0 -43 c0 -54 24 -81 46
-51 8 10 14 27 14 37 0 23 48 25 56 3 8 -21 -15 -74 -37 -85 -31 -17 -77 -11
-106 14 -25 22 -28 31 -31 105 -7 144 14 191 86 191 28 0 45 -7 62 -25z"/>
<path d="M3731 5626 c-7 -8 -11 -27 -9 -43 2 -22 8 -28 28 -28 20 0 26 6 28
28 3 27 -12 57 -28 57 -4 0 -13 -6 -19 -14z"/>
<path d="M4736 5883 c-6 -14 -5 -15 5 -6 7 7 10 15 7 18 -3 3 -9 -2 -12 -12z"/>
<path d="M8742 5895 c2 -5 11 -26 20 -45 9 -19 19 -43 22 -52 3 -10 10 -18 16
-18 6 0 -1 21 -14 48 -25 46 -51 87 -44 67z"/>
<path d="M9727 5653 c-44 -129 -64 -200 -58 -206 6 -6 46 -12 90 -15 62 -3 80
-8 85 -21 2 -9 13 -29 23 -45 15 -23 15 -30 4 -34 -26 -9 -93 -76 -111 -112
-10 -19 -20 -51 -22 -70 l-3 -35 305 0 305 0 3 25 c5 42 -48 131 -100 169
l-47 35 25 42 c34 58 13 66 -23 9 -20 -32 -32 -43 -43 -38 -26 12 -175 15
-213 5 -35 -10 -36 -9 -61 29 -32 47 -32 49 -3 49 13 0 31 6 41 13 16 12 12
26 -50 197 -37 102 -70 188 -73 192 -3 4 -37 -81 -74 -189z m197 -389 c18 -7
22 -39 6 -49 -6 -3 -19 -3 -30 0 -22 7 -27 40 -7 48 6 3 13 6 14 6 1 1 8 -2
17 -5z m271 -10 c12 -12 13 -19 4 -30 -15 -18 -33 -18 -49 1 -10 12 -10 18 0
30 16 19 25 19 45 -1z"/>
<path d="M4992 5735 c-259 -130 -467 -623 -423 -1002 12 -103 35 -166 62 -171
17 -3 35 32 41 78 3 18 7 10 17 -30 27 -109 69 -171 120 -175 9 0 22 -4 29 -9
15 -9 19 3 26 69 7 70 25 127 47 148 15 14 16 22 8 40 -8 17 -5 71 12 203 32
261 34 308 16 301 -11 -4 -15 8 -19 57 -12 149 -82 171 -156 47 l-20 -34 5 41
c5 37 4 40 -15 35 -17 -4 -25 -22 -41 -97 -30 -130 -47 -257 -61 -441 -7 -88
-16 -164 -20 -168 -4 -5 -15 14 -24 41 -22 65 -22 267 -1 378 59 312 215 576
386 653 52 24 80 26 117 7 30 -15 43 -37 63 -101 14 -47 6 -304 -15 -435 -8
-47 -30 -197 -50 -335 -61 -416 -90 -539 -150 -633 -50 -80 -110 -95 -190 -48
-65 38 -148 172 -178 288 -6 26 -16 48 -21 48 -5 0 -7 -6 -4 -12 2 -7 12 -40
22 -73 27 -93 84 -202 137 -260 28 -31 48 -62 48 -76 0 -22 -1 -22 -32 8 -18
17 -43 36 -55 42 -49 25 -91 3 -75 -39 6 -16 11 -19 16 -12 19 31 80 3 103
-46 7 -15 11 -18 8 -7 -11 43 117 -115 261 -322 241 -348 355 -538 370 -620
22 -118 -140 -55 -351 137 l-80 72 87 -85 c95 -93 220 -181 313 -220 33 -14
59 -29 57 -34 -4 -13 48 -16 63 -3 8 7 19 9 25 5 6 -4 10 7 10 28 0 34 -48
136 -114 242 -67 109 -402 575 -503 701 -56 70 -73 99 -73 122 0 30 1 31 25
20 13 -6 22 -15 19 -19 -2 -4 11 -11 30 -14 24 -5 33 -11 29 -21 -4 -10 4 -14
28 -14 25 0 30 3 21 12 -8 8 0 18 32 39 24 15 52 41 62 58 10 16 21 28 26 25
16 -10 28 7 18 25 -7 14 -2 29 22 66 24 36 28 49 18 55 -10 6 -9 22 5 81 25
100 51 173 64 177 15 5 14 39 -1 44 -10 4 -6 45 15 179 35 218 65 391 78 448
19 82 22 141 7 146 -9 4 -14 32 -15 101 -4 172 -35 261 -106 304 -47 29 -94
25 -175 -15z m-149 -431 c-1 -5 -5 -22 -9 -38 -5 -21 -4 -27 5 -22 15 10 15
-1 -10 -334 -21 -280 -37 -378 -66 -387 -34 -11 -63 121 -63 284 0 107 31 312
62 413 17 56 48 101 67 97 9 -2 15 -8 14 -13z"/>
<path d="M8800 5668 c0 -12 42 -150 94 -307 52 -157 104 -325 116 -374 13 -48
25 -85 28 -83 7 7 -93 357 -153 536 -60 179 -65 206 -38 195 11 -4 7 5 -11 24
-35 37 -36 37 -36 9z"/>
<path d="M8915 5560 c3 -5 8 -10 11 -10 2 0 4 5 4 10 0 6 -5 10 -11 10 -5 0
-7 -4 -4 -10z"/>
<path d="M4606 5490 c-20 -22 -36 -43 -36 -48 0 -4 13 8 29 27 36 44 56 35 47
-23 -9 -56 -134 -566 -157 -641 l-19 -60 5 85 c4 85 46 272 84 384 22 62 21
89 -1 41 l-13 -28 -5 24 c-6 23 -8 22 -27 -16 -26 -51 -69 -186 -78 -247 -4
-27 -11 -48 -15 -48 -15 0 41 246 75 327 9 20 13 38 11 40 -4 5 -46 -101 -46
-117 0 -6 -4 -10 -8 -10 -5 0 -9 -6 -10 -12 -1 -7 -10 -53 -21 -103 -20 -94
-25 -133 -21 -175 2 -21 4 -20 11 10 6 29 7 24 7 -30 0 -93 1 -110 10 -110 4
0 8 42 8 93 2 96 47 298 79 355 l16 27 -4 -25 c-2 -14 -21 -99 -42 -190 -38
-164 -46 -262 -26 -298 8 -15 12 -12 24 18 8 19 27 87 42 150 15 63 43 176 62
250 79 309 92 390 63 390 -4 0 -24 -18 -44 -40z"/>
<path d="M8900 5495 c-1 -15 123 -405 127 -401 5 4 -45 178 -77 270 -11 33
-20 69 -20 81 0 21 -29 69 -30 50z"/>
<path d="M4490 5439 c0 -5 5 -7 10 -4 6 3 10 8 10 11 0 2 -4 4 -10 4 -5 0 -10
-5 -10 -11z"/>
<path d="M4540 5389 c-12 -23 -20 -43 -18 -45 3 -2 14 17 26 41 27 56 20 60
-8 4z"/>
<path d="M4477 5373 c-4 -3 -7 -11 -7 -17 0 -6 5 -5 12 2 6 6 9 14 7 17 -3 3
-9 2 -12 -2z"/>
<path d="M8980 5352 c0 -11 5 -33 11 -49 24 -62 60 -227 55 -248 -4 -14 0 -28
10 -36 15 -12 16 -9 10 31 -4 25 -21 97 -38 160 -16 63 -32 123 -34 134 -5 27
-14 33 -14 8z"/>
<path d="M9040 5280 c0 -5 5 -10 11 -10 5 0 7 5 4 10 -3 6 -8 10 -11 10 -2 0
-4 -4 -4 -10z"/>
<path d="M8501 5198 c-106 -72 -160 -304 -205 -878 -19 -242 -9 -433 26 -507
24 -52 67 -77 106 -62 31 12 41 11 20 -2 -10 -5 -23 -20 -29 -32 -7 -12 17 6
53 39 36 34 79 66 96 72 28 10 31 8 46 -21 10 -20 16 -25 16 -14 0 9 6 17 13
17 22 0 66 54 107 131 22 41 40 69 40 62 0 -7 7 -10 15 -7 14 6 14 8 1 18 -13
10 -13 19 3 76 10 36 22 64 27 62 5 -2 10 2 13 9 2 8 -1 9 -10 3 -11 -6 -12
-5 -3 7 6 8 14 37 17 64 3 28 3 40 -1 27 -4 -13 -7 35 -7 105 -1 150 -15 223
-55 287 -40 62 -73 64 -99 5 -21 -45 -31 -35 -31 30 0 38 -10 51 -60 83 l-25
15 0 -271 c0 -210 -4 -296 -18 -381 -27 -173 -53 -254 -95 -304 -35 -43 -64
-36 -93 20 -16 33 -18 43 -8 55 10 12 10 15 -1 12 -10 -2 -16 15 -22 62 -4 35
-3 67 1 70 5 3 12 55 15 115 4 61 9 126 11 145 l5 35 -15 -30 c-14 -30 -14
-29 -10 25 9 100 36 335 41 353 5 15 8 16 21 5 14 -11 15 -10 8 12 -4 14 -11
30 -16 36 -10 12 0 72 27 177 20 76 22 81 40 66 21 -17 27 -6 13 24 -12 26 -7
59 8 55 4 -1 30 12 57 30 28 18 55 32 60 33 6 0 2 4 -9 9 -18 8 -17 9 7 9 20
1 32 -7 43 -26 14 -25 15 -25 9 -4 l-6 23 32 -18 c85 -50 170 -195 212 -360
20 -77 22 -114 22 -274 -1 -199 -16 -301 -70 -462 -20 -62 -29 -76 -42 -71
-14 4 -15 3 -2 -6 13 -9 10 -20 -18 -77 -111 -224 -269 -375 -424 -404 -69
-13 -119 1 -168 50 l-38 38 -22 -23 c-19 -20 -20 -26 -9 -47 7 -12 13 -26 14
-30 0 -5 3 -8 8 -8 14 1 66 -34 61 -41 -2 -4 14 -5 37 -2 40 6 41 5 28 -15
-22 -35 1 -39 29 -6 15 18 42 35 60 39 75 16 216 115 294 207 289 339 378 926
200 1318 -90 198 -254 315 -351 248z m271 -604 c24 -70 24 -303 -1 -444 -27
-154 -83 -285 -121 -285 -22 0 -24 40 -3 72 17 27 17 28 -1 13 -18 -14 -18
-12 -11 60 4 41 14 98 22 125 23 78 53 311 51 402 -1 122 32 151 64 57z m-231
-757 l-24 -22 19 27 c10 14 21 24 23 22 3 -3 -6 -15 -18 -27z"/>
<path d="M4415 5190 c-4 -6 -9 -39 -11 -73 l-4 -62 14 70 c13 71 14 86 1 65z"/>
<path d="M8860 5190 c0 -5 5 -10 11 -10 5 0 7 5 4 10 -3 6 -8 10 -11 10 -2 0
-4 -4 -4 -10z"/>
<path d="M3045 5147 c-104 -50 -167 -138 -184 -259 -25 -176 66 -421 200 -542
l50 -45 -166 -102 c-91 -56 -165 -106 -165 -110 0 -4 47 -46 104 -94 l105 -85
158 96 c87 53 164 102 171 109 11 9 -7 28 -87 94 -56 45 -101 83 -101 84 0 1
19 3 43 3 23 1 62 11 87 23 59 27 149 28 209 1 24 -11 52 -20 63 -20 11 0 18
-4 16 -9 -1 -5 -45 -43 -96 -86 -73 -61 -90 -80 -81 -91 12 -14 296 -190 317
-196 12 -3 207 149 215 168 3 6 -66 55 -154 108 l-158 98 42 29 c23 15 63 56
89 91 46 61 108 167 108 184 0 5 -18 19 -40 32 -21 12 -52 41 -69 65 -77 113
-61 245 41 331 l43 36 -35 31 c-94 82 -184 97 -321 52 l-82 -26 -76 23 c-110
35 -184 36 -246 7z"/>
<path d="M4551 5144 c0 -11 3 -14 6 -6 3 7 2 16 -1 19 -3 4 -6 -2 -5 -13z"/>
<path d="M9102 5070 c0 -14 2 -19 5 -12 2 6 2 18 0 25 -3 6 -5 1 -5 -13z"/>
<path d="M9586 5059 l-26 -20 0 -173 c0 -193 4 -206 68 -206 55 0 62 22 62
212 0 155 -2 170 -20 188 -26 26 -51 25 -84 -1z"/>
<path d="M9735 5057 c-3 -12 -5 -129 -3 -259 3 -216 5 -238 22 -257 13 -14 31
-21 58 -21 l38 0 0 -90 c0 -84 2 -93 25 -116 l26 -26 -41 -44 c-48 -52 -75
-111 -89 -191 -10 -63 -2 -150 14 -145 9 3 159 136 290 257 l40 37 -66 62 -67
61 5 98 5 97 54 0 54 0 0 -74 0 -74 -40 -7 c-24 -4 -40 -12 -40 -20 0 -17 261
-256 272 -249 4 3 8 59 8 124 l0 120 -35 15 -36 14 3 73 3 73 43 6 c71 9 71
10 72 302 l0 257 -305 0 -305 0 -5 -23z"/>
<path d="M10419 5061 c-23 -18 -24 -25 -27 -171 -2 -84 -1 -163 2 -176 15 -58
79 -73 115 -28 19 24 21 40 21 186 0 155 -1 159 -25 183 -29 30 -55 32 -86 6z"/>
<path d="M4391 5014 c0 -11 3 -14 6 -6 3 7 2 16 -1 19 -3 4 -6 -2 -5 -13z"/>
<path d="M4381 4954 c0 -11 3 -14 6 -6 3 7 2 16 -1 19 -3 4 -6 -2 -5 -13z"/>
<path d="M9045 4866 c15 -73 55 -128 55 -76 0 11 -5 19 -12 18 -6 -2 -20 17
-30 42 -12 30 -17 35 -13 16z"/>
<path d="M4361 4864 c0 -11 3 -14 6 -6 3 7 2 16 -1 19 -3 4 -6 -2 -5 -13z"/>
<path d="M9141 4804 c0 -11 3 -14 6 -6 3 7 2 16 -1 19 -3 4 -6 -2 -5 -13z"/>
<path d="M4393 4740 c0 -41 2 -58 4 -37 2 20 2 54 0 75 -2 20 -4 3 -4 -38z"/>
<path d="M4371 4784 c0 -11 3 -14 6 -6 3 7 2 16 -1 19 -3 4 -6 -2 -5 -13z"/>
<path d="M4356 4719 c-8 -42 0 -50 9 -9 4 17 5 34 2 36 -2 3 -7 -10 -11 -27z"/>
<path d="M9035 4676 c-8 -18 -33 -125 -55 -237 -23 -112 -64 -304 -91 -425
-48 -218 -58 -287 -40 -298 13 -8 53 27 74 65 l19 34 -27 -32 c-14 -18 -33
-33 -41 -33 -25 0 -22 18 55 345 22 94 54 249 71 345 18 96 38 191 47 210 14
33 15 34 29 16 16 -23 19 -4 4 25 -15 28 -29 23 -45 -15z"/>
<path d="M4405 4614 c5 -62 29 -124 48 -124 16 0 37 42 37 73 -1 18 -3 16 -15
-10 -24 -57 -47 -36 -65 59 l-9 53 4 -51z"/>
<path d="M9145 4630 c-3 -5 -1 -10 4 -10 6 0 11 5 11 10 0 6 -2 10 -4 10 -3 0
-8 -4 -11 -10z"/>
<path d="M9130 4540 c0 -5 5 -10 10 -10 6 0 10 5 10 10 0 6 -4 10 -10 10 -5 0
-10 -4 -10 -10z"/>
<path d="M4395 4447 c-8 -40 11 -280 25 -322 9 -28 9 -27 5 10 -3 22 -8 100
-11 174 -6 111 -4 133 7 129 8 -2 26 -38 41 -79 31 -85 37 -82 9 6 -36 118
-64 148 -76 82z"/>
<path d="M9032 4378 c-27 -91 -89 -348 -98 -407 -7 -47 5 -51 27 -9 8 16 8 19
-1 13 -8 -5 -10 -2 -7 11 11 34 85 348 92 387 4 20 11 40 16 43 11 7 12 34 0
34 -4 0 -18 -33 -29 -72z"/>
<path d="M9051 4288 c-12 -68 -35 -161 -50 -209 -17 -52 -25 -93 -20 -105 8
-22 14 -11 22 41 3 17 17 74 31 129 29 109 56 266 46 266 -3 0 -16 -55 -29
-122z"/>
<path d="M9111 4313 c0 -12 -4 -30 -7 -40 -5 -17 -5 -17 6 0 6 10 9 28 7 40
-4 22 -4 22 -6 0z"/>
<path d="M8861 4304 c0 -11 3 -14 6 -6 3 7 2 16 -1 19 -3 4 -6 -2 -5 -13z"/>
<path d="M10330 4090 l0 -221 83 3 82 3 14 55 c15 63 4 153 -29 228 -21 47
-115 152 -136 152 -11 0 -14 -42 -14 -220z"/>
<path d="M4430 4243 c0 -49 21 -151 50 -246 34 -111 31 -73 -6 73 -19 74 -33
146 -30 160 3 14 1 32 -5 40 -6 11 -9 3 -9 -27z"/>
<path d="M4383 4215 c0 -22 2 -30 4 -17 2 12 2 30 0 40 -3 9 -5 -1 -4 -23z"/>
<path d="M4501 4240 c0 -8 4 -22 9 -30 12 -18 12 -2 0 25 -6 13 -9 15 -9 5z"/>
<path d="M4474 4141 c3 -21 22 -94 42 -162 21 -68 37 -133 38 -145 1 -11 9
-28 19 -38 9 -10 17 -23 17 -30 0 -8 7 -19 16 -26 11 -10 10 -1 -7 41 -37 94
-49 131 -79 244 -19 73 -24 103 -15 91 19 -25 19 -18 0 28 -21 49 -39 47 -31
-3z"/>
<path d="M4631 4054 c0 -11 3 -14 6 -6 3 7 2 16 -1 19 -3 4 -6 -2 -5 -13z"/>
<path d="M4424 4029 c-3 -6 -1 -16 5 -22 8 -8 11 -5 11 11 0 24 -5 28 -16 11z"/>
<path d="M9052 4028 c-7 -7 -12 -16 -12 -21 0 -5 7 -1 16 8 9 9 14 18 12 20
-2 3 -10 -1 -16 -7z"/>
<path d="M9873 3934 c-40 -36 -73 -73 -73 -83 0 -39 109 -171 140 -171 6 0 10
64 10 160 0 88 -1 160 -2 160 -2 0 -36 -30 -75 -66z"/>
<path d="M4510 3915 c0 -5 5 -17 10 -25 5 -8 10 -10 10 -5 0 6 -5 17 -10 25
-5 8 -10 11 -10 5z"/>
<path d="M4657 3893 c-27 -26 14 -206 67 -298 21 -36 16 -21 -18 61 -30 73
-50 184 -36 198 18 18 48 -25 74 -107 14 -45 39 -133 57 -194 22 -80 39 -121
58 -140 14 -14 20 -23 12 -18 -10 6 -12 4 -7 -4 6 -9 11 -9 21 -1 9 8 19 1 41
-27 43 -57 184 -197 184 -183 0 6 9 23 19 36 16 21 17 30 8 66 -24 94 -188
347 -262 403 -34 27 -65 28 -65 3 0 -7 -18 23 -39 67 -36 76 -84 145 -100 145
-4 0 -11 -3 -14 -7z m267 -296 c73 -106 134 -307 93 -307 -49 0 -158 187 -173
298 -13 99 15 103 80 9z"/>
<path d="M2894 3805 c-49 -41 -90 -81 -92 -89 -2 -8 59 -49 153 -105 86 -50
159 -91 162 -91 6 0 164 139 175 155 4 6 8 12 8 15 0 5 -302 190 -311 190 -3
0 -45 -34 -95 -75z"/>
<path d="M3541 3789 c-79 -48 -148 -92 -153 -97 -8 -8 66 -80 164 -160 15 -12
32 -5 150 64 158 92 190 114 186 124 -5 14 -183 160 -193 159 -5 -1 -75 -41
-154 -90z"/>
<path d="M9000 3859 c0 -5 5 -7 10 -4 6 3 10 8 10 11 0 2 -4 4 -10 4 -5 0 -10
-5 -10 -11z"/>
<path d="M9990 3745 c0 -95 0 -96 28 -106 44 -18 155 -23 211 -9 28 6 77 29
110 50 57 37 131 119 131 146 0 11 -45 14 -240 14 l-240 0 0 -95z"/>
<path d="M4610 3829 c0 -4 7 -22 15 -40 8 -19 14 -27 14 -19 0 14 -28 72 -29
59z"/>
<path d="M4643 3740 c2 -8 14 -46 27 -83 22 -69 22 -86 -2 -71 -19 12 -39 14
-32 3 3 -5 9 -7 13 -4 5 2 16 -4 26 -15 42 -46 46 -14 10 79 -28 71 -48 115
-42 91z"/>
<path d="M8834 3658 c-22 -24 -82 -99 -134 -168 -52 -69 -156 -203 -232 -298
-77 -95 -148 -188 -160 -207 l-20 -35 35 2 c19 2 35 7 34 12 -1 5 4 11 12 14
9 3 11 0 6 -9 -5 -8 -4 -10 0 -6 5 4 10 14 11 22 2 12 -2 13 -18 4 -11 -6 -22
-8 -25 -5 -8 8 17 45 116 171 48 61 144 187 213 280 140 188 198 252 199 219
0 -17 1 -17 11 4 8 15 8 26 1 33 -6 6 -23 -4 -49 -33z"/>
<path d="M3225 3585 c-55 -46 -107 -84 -115 -84 -8 0 -33 11 -55 24 -22 14
-43 25 -47 25 -5 0 -8 -15 -8 -33 0 -32 5 -37 150 -125 82 -51 156 -95 165
-98 13 -5 15 17 15 185 0 105 -1 191 -2 191 -2 -1 -48 -39 -103 -85z"/>
<path d="M3360 3479 c0 -161 2 -190 14 -186 10 4 8 -9 -10 -46 -55 -118 -10
-263 99 -318 23 -12 69 -24 102 -27 l60 -4 -3 -39 c-2 -22 3 -51 12 -70 9 -18
15 -33 14 -34 -2 -1 -37 -7 -79 -13 -42 -6 -101 -20 -130 -31 -164 -62 -226
-224 -128 -336 112 -127 414 -125 562 4 l36 32 3 -306 3 -307 37 -34 38 -34
370 0 c203 0 370 -2 370 -4 0 -2 -29 -54 -65 -115 -36 -62 -65 -117 -65 -122
0 -19 163 -290 170 -282 15 18 363 629 363 638 0 13 -156 285 -164 285 -3 0
-23 -31 -45 -70 l-39 -70 -5 313 c-5 302 -6 313 -27 343 -12 17 -35 37 -51 43
-20 8 -139 11 -424 9 -361 -3 -398 -5 -415 -21 -19 -16 -20 -16 -33 9 -8 14
-49 57 -92 96 -98 88 -102 111 -32 178 115 113 134 239 53 357 l-30 43 31 0
c34 0 120 45 120 63 0 7 -63 8 -202 4 l-202 -6 52 30 c47 27 52 33 52 64 l0
35 -55 -27 c-49 -24 -56 -25 -72 -12 -10 9 -57 48 -105 88 l-88 72 0 -192z
m277 -119 c7 0 31 -16 53 -36 71 -64 112 -230 76 -307 -34 -70 -130 -86 -201
-33 -72 55 -119 224 -85 306 20 48 79 83 125 74 11 -2 26 -4 32 -4z m126 -706
c32 -25 67 -59 77 -77 43 -69 14 -159 -64 -199 -32 -18 -59 -22 -126 -22 -100
-1 -149 14 -201 61 -94 85 -64 217 59 257 67 21 81 24 142 25 51 1 59 -2 113
-45z m971 -74 c25 -9 26 -13 26 -84 0 -89 -7 -96 -99 -96 -79 0 -91 13 -91 93
0 69 6 82 35 90 35 9 103 7 129 -3z m-234 -214 c137 -90 100 -283 -63 -327
-86 -23 -190 31 -222 116 -63 163 135 310 285 211z m258 -300 l-3 -211 -354
-3 c-253 -2 -358 1 -367 9 -11 9 -14 55 -14 215 l0 204 38 0 38 0 0 -72 c0
-89 24 -148 84 -208 60 -60 119 -84 210 -84 116 -1 208 52 267 152 22 37 28
61 31 132 l4 86 34 -4 34 -4 -2 -212z"/>
<path d="M4595 3625 c9 -37 52 -135 60 -135 3 0 -2 14 -11 32 -36 69 -36 95
-1 89 5 -1 5 3 2 9 -4 6 -10 9 -13 6 -3 -3 -14 2 -24 11 -19 17 -19 16 -13
-12z"/>
<path d="M9733 3618 c-28 -9 -35 -18 -47 -62 -31 -107 -40 -146 -34 -151 3 -3
17 -1 32 5 40 15 101 12 141 -7 19 -9 37 -14 40 -11 8 7 55 169 55 188 0 39
-112 62 -187 38z"/>
<path d="M9935 3473 c-14 -49 -28 -94 -30 -101 -8 -23 56 -52 116 -52 84 0
117 15 129 58 5 21 19 68 29 105 18 63 19 68 3 61 -38 -16 -148 -16 -180 0
-17 9 -33 16 -36 16 -3 0 -17 -39 -31 -87z"/>
<path d="M4760 3520 c6 -11 13 -20 16 -20 2 0 0 9 -6 20 -6 11 -13 20 -16 20
-2 0 0 -9 6 -20z"/>
<path d="M8790 3515 c-11 -13 -10 -14 4 -9 9 3 16 10 16 15 0 13 -6 11 -20 -6z"/>
<path d="M4690 3465 c0 -11 70 -135 76 -135 2 0 -5 18 -16 40 -11 21 -20 45
-20 53 0 8 -9 22 -20 32 -11 10 -20 14 -20 10z"/>
<path d="M4796 3458 c21 -38 95 -136 111 -149 10 -7 6 2 -10 21 -15 19 -44 59
-64 88 -32 47 -55 71 -37 40z"/>
<path d="M8654 3371 c-142 -186 -188 -261 -151 -249 6 3 18 18 26 34 8 16 46
76 84 134 91 136 100 149 110 150 12 0 -31 -78 -89 -163 -56 -81 -64 -98 -39
-77 26 22 179 270 158 257 -6 -4 -13 -2 -15 5 -3 7 -40 -34 -84 -91z"/>
<path d="M4160 3340 l0 -80 -80 0 -80 0 0 -40 0 -40 80 0 80 0 0 -81 0 -80 38
3 37 3 3 78 3 77 74 0 75 0 0 40 0 40 -75 0 -75 0 0 80 0 80 -40 0 -40 0 0
-80z"/>
<path d="M8350 3395 c-13 -14 -49 -39 -79 -56 -53 -30 -442 -259 -450 -265 -1
-1 -1 -7 0 -13 4 -9 43 12 284 154 119 70 269 143 311 151 48 9 67 -10 61 -58
-17 -128 -289 -404 -540 -546 -221 -126 -534 -208 -601 -159 -17 12 -16 15 10
46 15 18 66 59 113 90 123 83 419 247 479 265 83 26 -73 -116 -283 -256 -108
-73 -116 -80 -80 -73 22 3 58 17 80 29 28 16 51 22 75 19 49 -6 232 86 360
183 148 111 264 248 229 270 -17 10 -116 -51 -257 -160 -11 -8 -13 -5 -10 10
10 58 -148 -6 -464 -187 -174 -100 -242 -146 -288 -194 l-35 -36 25 -21 c22
-18 34 -20 106 -14 375 28 844 309 1062 634 67 100 75 121 70 173 -3 31 -6 34
-39 37 -20 2 -60 -6 -90 -18 l-53 -21 18 20 c27 30 14 26 -14 -4z m-105 -293
c-10 -32 -183 -192 -275 -255 -81 -55 -199 -111 -210 -101 -5 6 50 54 139 121
58 44 83 55 60 26 -17 -20 -8 -16 60 30 33 22 40 32 30 39 -11 7 -5 17 28 46
48 44 164 124 171 118 2 -3 1 -13 -3 -24z"/>
<path d="M9663 3369 c-29 -8 -34 -16 -53 -78 -11 -37 -20 -72 -20 -77 -1 -32
-17 -34 -95 -14 -43 11 -100 20 -127 20 l-49 0 3 -72 3 -73 60 -6 c231 -22
446 -211 500 -440 8 -35 15 -81 15 -101 l0 -38 70 0 70 0 0 53 c0 30 -9 88
-19 129 -50 195 -176 359 -356 464 l-50 29 44 3 c25 2 64 -4 88 -13 25 -10 46
-15 49 -13 7 8 54 171 54 191 0 38 -108 59 -187 36z"/>
<path d="M4790 3346 c0 -15 63 -120 86 -143 26 -27 27 -27 12 -3 -80 136 -98
163 -98 146z"/>
<path d="M9870 3246 c-12 -39 -25 -84 -31 -100 -5 -16 -9 -31 -9 -33 0 -2 19
-13 43 -23 50 -23 115 -25 162 -6 30 13 36 22 54 83 12 38 24 84 27 101 6 32
6 32 -20 22 -44 -16 -128 -12 -169 9 l-37 19 -20 -72z"/>
<path d="M5620 3264 c-149 -40 -157 -168 -22 -330 28 -34 48 -65 45 -68 -4 -3
0 -6 9 -6 8 0 39 -18 69 -41 145 -108 347 -201 543 -248 364 -89 725 -62 915
66 31 21 63 41 71 45 8 4 10 7 5 7 -7 1 -9 16 -7 37 6 51 -31 86 -121 116 -65
21 -90 23 -252 23 -175 0 -181 -1 -235 -27 l-54 -27 -63 40 c-74 46 -198 90
-340 118 -160 33 -220 26 -252 -30 -12 -22 -12 -29 3 -59 29 -61 145 -174 204
-198 29 -13 56 -21 61 -18 4 3 62 -8 127 -25 100 -25 134 -30 214 -27 86 3 96
1 116 -19 12 -12 38 -25 59 -29 27 -5 33 -9 23 -16 -9 -7 -6 -8 12 -4 14 3 33
6 42 6 11 0 15 5 12 15 -4 10 0 15 11 15 13 0 16 6 11 26 -5 18 -3 24 5 19 16
-10 1 35 -19 54 -11 11 -13 29 -9 67 4 36 2 54 -6 57 -7 2 4 12 23 22 57 31
184 23 288 -16 22 -8 24 -12 12 -20 -12 -8 -10 -9 7 -4 30 8 70 -30 52 -51 -8
-10 -8 -14 0 -14 37 0 -34 -82 -101 -116 -100 -51 -205 -68 -413 -68 -193 1
-283 13 -455 61 -202 57 -415 184 -498 297 -73 100 -91 152 -66 192 22 33 92
70 107 55 15 -15 30 -14 24 3 -7 17 39 26 131 26 45 0 62 -4 62 -14 0 -19 147
-30 202 -15 29 7 37 13 28 19 -8 5 4 7 31 4 83 -10 264 -35 287 -40 l23 -5
-22 -18 c-22 -18 -22 -18 52 -28 78 -11 153 -7 143 8 -7 12 12 11 132 -7 l105
-17 -23 -26 c-13 -14 -19 -23 -15 -20 5 4 20 4 35 -1 17 -4 41 -2 65 8 54 21
146 1 175 -37 22 -30 121 -68 149 -57 14 6 14 8 -3 20 -18 14 -18 15 9 27 15
7 27 15 27 19 0 10 -100 46 -196 70 -77 20 -331 67 -509 95 -49 8 -205 33
-345 55 -451 71 -595 82 -700 54z m357 -80 c-3 -3 -12 -4 -19 -1 -8 3 -5 6 6
6 11 1 17 -2 13 -5z m361 -285 c73 -22 159 -69 143 -78 -6 -4 5 -13 23 -19 42
-16 98 -94 94 -132 -5 -42 -48 -55 -141 -42 -126 18 -252 93 -313 187 -19 30
-4 65 29 65 21 0 21 0 -3 18 l-25 17 35 6 c42 8 75 3 158 -22z"/>
<path d="M4955 3179 c6 -16 4 -20 -6 -14 -8 5 -11 4 -6 -1 5 -5 14 -9 20 -9 5
0 12 -6 15 -14 3 -9 0 -11 -9 -6 -8 5 -11 4 -6 -1 5 -5 12 -9 15 -9 4 0 13 -4
21 -9 8 -5 7 1 -4 18 -10 15 -15 29 -11 33 6 6 54 -30 200 -147 75 -59 268
-203 388 -288 41 -29 88 -67 104 -84 l29 -31 -27 7 c-14 3 -34 8 -45 11 -10 3
1 -3 24 -14 54 -25 113 -37 113 -23 0 6 -46 44 -102 83 -271 191 -378 269
-513 375 -201 157 -213 165 -200 123z"/>
<path d="M4975 3100 c3 -5 11 -10 16 -10 6 0 7 5 4 10 -3 6 -11 10 -16 10 -6
0 -7 -4 -4 -10z"/>
<path d="M5180 2954 c105 -109 120 -123 135 -124 5 0 -16 26 -48 58 -32 32
-55 61 -51 65 4 3 -6 12 -22 19 -16 7 -37 23 -47 36 -10 12 -28 27 -40 33 -12
7 21 -33 73 -87z"/>
<path d="M8405 2990 c-3 -5 -2 -10 4 -10 5 0 13 5 16 10 3 6 2 10 -4 10 -5 0
-13 -4 -16 -10z"/>
<path d="M5060 2976 c0 -2 8 -10 18 -17 15 -13 16 -12 3 4 -13 16 -21 21 -21
13z"/>
<path d="M9320 2907 l0 -74 58 -12 c70 -14 148 -57 192 -107 36 -42 80 -128
80 -159 1 -59 8 -65 76 -65 76 0 80 4 65 87 -14 73 -67 185 -115 239 -69 80
-192 144 -303 158 l-53 7 0 -74z"/>
<path d="M5250 2929 c8 -9 63 -55 123 -103 59 -48 107 -91 107 -95 0 -4 16
-15 35 -24 69 -33 32 4 -107 109 -173 130 -178 133 -158 113z"/>
<path d="M8269 2863 c-13 -16 -12 -17 4 -4 16 13 21 21 13 21 -2 0 -10 -8 -17
-17z"/>
<path d="M8226 2834 c-23 -23 -20 -30 4 -9 11 10 20 20 20 22 0 7 -9 2 -24
-13z"/>
<path d="M8179 2793 c-13 -16 -12 -17 4 -4 16 13 21 21 13 21 -2 0 -10 -8 -17
-17z"/>
<path d="M8912 2769 c-74 -13 -129 -43 -184 -101 -79 -82 -92 -131 -92 -339
l-1 -176 -50 45 c-106 95 -208 148 -339 177 -158 35 -350 5 -496 -78 -71 -39
-208 -176 -247 -247 -48 -84 -83 -201 -90 -295 l-6 -84 -29 15 c-48 25 -177
54 -238 54 -137 0 -272 -50 -370 -138 l-54 -49 -41 57 c-112 150 -310 250
-500 250 -153 0 -320 -67 -430 -174 l-66 -62 -47 80 c-26 45 -97 167 -157 273
l-110 192 -169 1 c-156 0 -168 -1 -161 -17 3 -10 86 -156 183 -325 l177 -308
108 0 c112 0 123 -5 95 -43 -12 -15 -45 -17 -313 -19 l-299 -3 -79 -137 c-43
-76 -76 -142 -72 -148 4 -6 131 -10 360 -10 l353 0 16 -72 c27 -119 79 -211
171 -303 91 -92 165 -136 281 -165 189 -49 383 -9 540 110 l52 39 -26 -79
c-14 -44 -23 -82 -20 -86 4 -3 66 15 140 40 73 25 143 46 154 46 12 0 46 -11
77 -25 86 -40 203 -52 302 -32 119 25 197 67 286 156 85 85 137 176 158 277
l13 61 57 -34 c31 -18 92 -46 136 -60 69 -23 97 -27 210 -27 109 -1 142 3 205
22 118 37 195 85 290 181 68 69 94 103 127 171 52 107 73 193 73 299 0 93 -7
88 79 56 38 -14 84 -16 305 -13 l261 3 63 34 c70 38 120 92 154 167 21 44 23
67 26 235 4 185 3 187 -19 203 -15 10 -44 16 -76 16 -66 0 -87 19 -96 84 -5
35 -3 54 8 69 44 64 -5 157 -84 157 -22 0 -43 5 -46 10 -4 6 -34 25 -68 42
-60 31 -67 32 -197 34 -74 2 -159 -1 -188 -7z m289 -298 c24 -30 24 -46 -1
-71 -18 -18 -33 -20 -140 -20 -116 0 -120 1 -136 25 -20 31 -11 72 19 85 12 5
71 9 130 7 101 -2 110 -4 128 -26z m-1133 -298 l-3 -148 -30 3 c-55 5 -165 34
-165 43 0 33 124 236 148 242 54 14 53 19 50 -140z m110 141 c30 -9 167 -232
151 -248 -8 -8 -120 -35 -159 -38 l-35 -3 -3 134 c-3 168 -3 168 46 155z
m-268 -29 c0 -3 -13 -26 -30 -53 -16 -27 -39 -70 -50 -95 l-21 -47 -47 24
c-89 46 -90 47 -38 84 25 18 74 46 108 62 64 29 78 34 78 25z m463 -29 c40
-18 89 -47 109 -63 43 -35 42 -36 -37 -76 l-50 -25 -52 99 c-28 54 -49 99 -46
99 2 0 37 -15 76 -34z m998 -147 c39 -20 41 -77 5 -101 -6 -4 -104 -8 -218 -8
-195 0 -209 1 -228 20 -31 31 -21 78 20 93 29 10 401 7 421 -4z m-1667 -40
c42 -22 76 -44 76 -47 0 -4 -11 -46 -24 -94 -14 -48 -28 -112 -31 -143 l-7
-55 -119 0 -119 0 0 33 c0 45 26 141 55 205 20 44 83 142 91 142 1 0 37 -18
78 -41z m900 3 c14 -21 33 -64 41 -95 8 -31 28 -81 45 -110 20 -36 30 -67 30
-95 l0 -42 -119 0 -118 0 -7 61 c-4 34 -18 99 -32 146 -14 47 -22 88 -19 91 8
8 139 81 146 82 4 0 18 -17 33 -38z m-685 -91 c36 -11 85 -22 109 -26 l42 -7
0 -109 0 -109 -145 0 -145 0 4 23 c3 12 8 44 11 71 8 56 43 176 52 176 3 0 36
-9 72 -19z m460 -43 c17 -52 41 -168 41 -200 0 -5 -65 -8 -145 -8 l-145 0 0
109 0 110 48 7 c26 4 70 15 97 24 79 28 81 27 104 -42z m-2114 -243 c38 -8 94
-27 123 -41 69 -34 158 -117 201 -188 l34 -57 -23 -75 c-19 -65 -21 -92 -17
-182 3 -59 8 -116 12 -128 5 -16 -5 -36 -42 -84 -81 -108 -206 -175 -346 -186
-189 -16 -381 97 -466 275 -35 75 -36 78 -36 201 0 123 1 126 36 201 78 162
244 270 429 278 14 0 56 -6 95 -14z m1464 -117 c7 -44 21 -108 32 -142 10 -34
19 -64 19 -68 0 -4 -22 -19 -49 -32 l-49 -25 -26 72 c-28 75 -108 193 -151
221 -14 9 -25 25 -25 36 0 19 7 20 118 20 l119 0 12 -82z m341 -27 l0 -110
-47 -7 c-27 -4 -73 -15 -103 -25 -30 -10 -60 -19 -67 -19 -19 0 -79 239 -66
263 2 4 67 7 144 7 l139 0 0 -109z m345 62 c-9 -66 -45 -206 -55 -216 -4 -5
-37 0 -72 11 -35 11 -85 23 -111 27 l-47 7 0 102 c0 57 3 106 7 109 3 4 69 7
145 7 l139 0 -6 -47z m305 11 c0 -84 -61 -241 -124 -317 l-23 -28 -77 42 c-67
36 -77 45 -71 63 27 93 55 214 55 242 l0 34 120 0 120 0 0 -36z m-1727 -186
c20 -16 47 -90 47 -131 0 -18 -9 -40 -22 -54 -18 -19 -20 -27 -10 -47 26 -57
150 -166 188 -166 7 0 28 16 47 36 l34 36 71 -36 c78 -39 85 -52 57 -105 -18
-35 -70 -61 -124 -61 -125 0 -328 154 -401 304 -18 38 -21 59 -18 113 4 59 7
69 36 94 35 31 68 37 95 17z m1077 -225 l0 -145 -32 6 c-17 3 -32 7 -33 9 -1
1 -15 22 -32 47 -27 40 -103 183 -103 193 0 12 177 48 193 40 4 -2 7 -70 7
-150z m218 126 c48 -13 48 -16 5 -103 -42 -83 -93 -154 -116 -160 -47 -13 -47
-14 -47 137 0 79 2 146 5 149 6 6 95 -7 153 -23z m-453 -94 c14 -30 36 -73 50
-95 30 -48 20 -51 -57 -16 -66 29 -141 83 -136 98 3 9 102 68 115 68 2 0 15
-25 28 -55z m632 18 c23 -13 44 -27 47 -32 8 -13 -89 -77 -159 -106 -33 -13
-61 -22 -63 -20 -2 2 9 23 24 46 15 24 38 67 50 96 26 58 23 57 101 16z"/>
<path d="M6100 1617 c0 -42 -1 -43 -50 -60 -58 -21 -114 -66 -137 -111 -21
-40 -20 -123 1 -163 23 -45 74 -81 135 -96 l51 -12 0 -67 c0 -50 -4 -68 -13
-68 -19 0 -45 30 -58 68 -11 31 -12 32 -74 32 -75 0 -80 -7 -55 -79 22 -66 78
-124 147 -153 52 -21 53 -22 53 -65 l0 -43 65 0 65 0 0 43 0 43 55 18 c64 20
137 87 155 142 16 48 8 129 -17 162 -30 41 -78 69 -139 83 l-54 12 0 64 c0 34
4 63 9 63 13 0 61 -51 61 -66 0 -17 125 -20 135 -4 13 20 -18 93 -57 136 -29
31 -56 48 -94 61 l-54 17 0 43 0 43 -65 0 -65 0 0 -43z m0 -242 c0 -30 -3 -55
-8 -55 -20 0 -52 34 -52 55 0 21 32 55 52 55 5 0 8 -25 8 -55z m194 -246 c14
-11 26 -24 26 -29 0 -16 -44 -58 -67 -65 -22 -6 -23 -4 -23 54 0 53 2 61 19
61 10 0 30 -9 45 -21z"/>
<path d="M8079 2745 c-1 -3 -2 -8 -3 -12 -1 -5 -5 -14 -10 -21 -7 -11 -4 -12
12 -3 27 14 39 33 16 24 -12 -4 -15 -3 -10 5 4 7 5 12 2 12 -3 0 -7 -2 -7 -5z"/>
<path d="M5451 2692 c7 -11 24 -25 36 -31 29 -14 33 -14 33 -1 0 6 -5 10 -11
10 -6 0 -24 10 -41 21 -29 21 -30 21 -17 1z"/>
<path d="M7965 2670 c-33 -22 -56 -40 -51 -40 10 0 116 70 116 77 0 6 -5 3
-65 -37z"/>
<path d="M7910 2662 c-25 -16 -63 -39 -85 -52 l-40 -23 23 24 c31 35 28 42
-15 34 -58 -10 -194 -48 -189 -52 2 -2 31 3 64 11 115 30 134 16 47 -36 -57
-34 -69 -51 -17 -24 17 9 38 13 46 10 21 -8 92 16 76 26 -8 5 15 24 64 55 42
26 76 49 76 51 0 6 -3 5 -50 -24z m-130 -77 c0 -2 -10 -9 -22 -15 -22 -11 -22
-10 -4 4 21 17 26 19 26 11z"/>
<path d="M5825 2610 c-16 -6 -16 -8 6 -29 13 -13 49 -35 79 -51 67 -33 123
-50 65 -19 -46 24 -75 48 -75 61 0 16 91 8 300 -27 116 -19 283 -44 370 -55
171 -22 256 -36 271 -46 15 -9 1 -23 -34 -33 -25 -7 -27 -9 -9 -10 12 -1 39 6
60 15 34 14 35 16 19 28 -23 17 -96 32 -289 56 -165 20 -225 30 -398 61 -269
48 -340 58 -365 49z"/>
<path d="M5645 2590 c-3 -5 11 -16 31 -25 44 -18 47 -18 38 -3 -5 8 -2 9 10 5
11 -4 15 -3 11 4 -4 5 -12 8 -18 6 -7 -2 -24 2 -39 9 -16 9 -29 10 -33 4z"/>
<path d="M7528 2573 c7 -3 16 -2 19 1 4 3 -2 6 -13 5 -11 0 -14 -3 -6 -6z"/>
<path d="M7418 2543 c7 -3 16 -2 19 1 4 3 -2 6 -13 5 -11 0 -14 -3 -6 -6z"/>
<path d="M7325 2525 c-54 -17 -33 -18 30 -1 28 8 41 14 30 14 -11 0 -38 -5
-60 -13z"/>
<path d="M7500 2527 c-26 -6 -37 -12 -27 -14 25 -6 21 -17 -15 -36 -49 -25 3
-11 75 20 87 39 70 55 -33 30z"/>
<path d="M5836 2505 c23 -22 64 -34 64 -20 0 5 -75 45 -85 45 -3 0 6 -11 21
-25z"/>
<path d="M6082 2498 c3 -7 31 -23 64 -35 66 -24 102 -30 66 -10 -33 19 -17 27
57 28 l66 2 -85 13 c-114 17 -173 18 -168 2z"/>
<path d="M7168 2483 c7 -3 16 -2 19 1 4 3 -2 6 -13 5 -11 0 -14 -3 -6 -6z"/>
<path d="M5950 2470 c0 -6 44 -30 54 -30 2 0 6 6 9 14 4 10 -4 15 -29 18 -19
2 -34 1 -34 -2z"/>
<path d="M6353 2473 c9 -2 23 -2 30 0 6 3 -1 5 -18 5 -16 0 -22 -2 -12 -5z"/>
<path d="M7128 2473 c7 -3 16 -2 19 1 4 3 -2 6 -13 5 -11 0 -14 -3 -6 -6z"/>
<path d="M7238 2471 c-28 -6 -80 -61 -56 -60 25 1 133 27 118 28 -11 1 -9 7 9
21 l23 20 -33 -1 c-19 -1 -46 -4 -61 -8z"/>
<path d="M6443 2458 c39 -14 24 -28 -31 -29 -47 -1 -47 -1 28 -20 72 -18 148
-27 90 -10 -20 6 -13 10 43 20 93 18 95 32 5 31 -40 -1 -89 3 -108 9 -44 14
-65 13 -27 -1z"/>
<path d="M7018 2447 c-92 -32 -100 -41 -43 -49 17 -3 24 -3 17 -1 -27 9 -4 29
59 50 35 12 57 22 49 22 -8 0 -45 -10 -82 -22z"/>
<path d="M6134 2442 c4 -7 17 -13 29 -13 17 -1 15 -3 -8 -8 -29 -7 -28 -8 24
-24 68 -21 72 -21 40 1 -14 9 -24 23 -22 30 3 6 -1 12 -9 12 -7 0 -24 3 -37 7
-17 4 -22 3 -17 -5z"/>
<path d="M7393 2423 c-7 -2 -13 -8 -13 -13 0 -10 38 -1 46 11 6 10 -13 11 -33
2z"/>
<path d="M6248 2413 c7 -3 16 -2 19 1 4 3 -2 6 -13 5 -11 0 -14 -3 -6 -6z"/>
<path d="M7253 2403 c9 -2 25 -2 35 0 9 3 1 5 -18 5 -19 0 -27 -2 -17 -5z"/>
<path d="M7195 2374 l-30 -14 40 6 c22 4 47 10 55 15 27 15 -32 9 -65 -7z"/>
<path d="M6508 2373 c6 -2 18 -2 25 0 6 3 1 5 -13 5 -14 0 -19 -2 -12 -5z"/>
<path d="M6396 2361 c5 -5 32 -12 59 -16 48 -6 49 -5 25 9 -27 17 -101 22 -84
7z"/>
<path d="M6988 2355 c-3 -3 -25 -10 -49 -15 -43 -9 -43 -9 13 -5 31 3 67 9 80
14 22 9 22 10 -8 10 -17 1 -33 -1 -36 -4z"/>
</g>
</svg>
