<?xml version="1.0" standalone="no"?>
<!DOCTYPE svg PUBLIC "-//W3C//DTD SVG 20010904//EN"
 "http://www.w3.org/TR/2001/REC-SVG-20010904/DTD/svg10.dtd">
<svg version="1.0" xmlns="http://www.w3.org/2000/svg"
 width="1205.000000pt" height="1280.000000pt" viewBox="0 0 1205.000000 1280.000000"
 preserveAspectRatio="xMidYMid meet">
<metadata>
Created by potrace 1.15, written by Peter Selinger 2001-2017
</metadata>
<g transform="translate(0.000000,1280.000000) scale(0.100000,-0.100000)"
fill="#000000" stroke="none">
<path d="M5973 12790 c-63 -13 -190 -66 -263 -110 -115 -67 -213 -178 -285
-320 -28 -56 -265 -655 -390 -985 -37 -99 -103 -270 -146 -380 -42 -110 -158
-416 -257 -680 -232 -616 -472 -1235 -607 -1562 -349 -843 -481 -1154 -777
-1823 -153 -346 -388 -843 -415 -878 -16 -22 -23 -41 -19 -55 3 -13 -8 -45
-29 -86 -20 -36 -178 -356 -353 -711 -557 -1129 -900 -1748 -1481 -2668 -198
-314 -761 -1183 -798 -1232 -47 -61 -97 -168 -125 -265 -19 -67 -23 -103 -22
-225 0 -131 3 -151 26 -210 106 -272 271 -437 530 -531 73 -27 102 -32 248
-40 224 -12 2023 -18 6630 -23 2162 -3 3909 -1 3951 4 171 20 327 96 451 221
64 64 85 95 127 181 66 135 86 234 78 378 -11 194 -65 326 -227 555 -128 180
-554 817 -702 1050 -626 983 -1242 2153 -1795 3410 -131 296 -283 652 -283
660 0 3 -18 43 -39 88 -106 223 -852 2085 -1176 2937 -334 879 -851 2376 -899
2606 -35 165 -102 287 -231 423 -139 145 -237 209 -387 251 -82 24 -267 35
-335 20z m261 -280 c88 -13 152 -48 240 -130 96 -90 119 -144 334 -775 339
-997 428 -1237 910 -2450 757 -1904 1291 -3171 1709 -4055 567 -1199 1183
-2318 1896 -3445 28 -44 114 -177 192 -295 82 -124 154 -244 169 -283 58 -149
70 -285 35 -390 -43 -129 -123 -216 -265 -288 -68 -35 -96 -43 -170 -50 -89
-9 -461 -7 -1934 11 -1922 24 -4065 41 -6180 49 l-2285 9 -99 26 c-120 31
-245 90 -308 146 -55 48 -111 151 -129 237 -15 77 -6 204 20 272 24 65 75 149
275 456 1020 1572 1731 2857 2466 4460 839 1831 1154 2581 1907 4535 414 1076
606 1568 638 1638 28 60 53 92 122 162 160 159 249 190 457 160z"/>
<path d="M6030 12427 c-101 -38 -190 -123 -242 -230 -20 -39 -137 -337 -262
-660 -462 -1199 -814 -2087 -1071 -2702 -92 -220 -216 -517 -275 -660 -317
-764 -942 -2143 -1265 -2790 -58 -115 -153 -311 -213 -435 -188 -392 -535
-1043 -825 -1550 -366 -641 -681 -1149 -1136 -1834 -280 -422 -340 -555 -313
-698 34 -181 177 -319 362 -348 63 -9 742 -15 5100 -40 1004 -6 2084 -15 2400
-20 1011 -16 2777 -33 2909 -28 116 4 134 7 192 35 114 53 182 132 219 251 36
114 22 218 -44 345 -20 38 -36 75 -36 83 0 27 -40 94 -202 337 -732 1104
-1679 2847 -2238 4122 -412 938 -1089 2603 -1665 4090 -235 608 -568 1537
-706 1970 -75 238 -161 473 -204 562 -39 79 -98 138 -180 181 -43 23 -65 26
-160 29 -74 2 -122 -1 -145 -10z m131 -1724 c4 -33 31 -103 74 -195 158 -336
246 -607 316 -983 23 -118 23 -135 27 -1050 4 -922 -3 -1455 -18 -1455 -10 0
-31 97 -70 320 -82 467 -193 816 -298 932 -88 97 -141 69 -241 -129 -111 -221
-174 -453 -220 -804 -35 -262 -159 -842 -193 -902 -22 -37 -24 145 -16 1383 8
1223 16 1505 48 1710 59 387 215 760 445 1070 35 47 71 102 81 123 13 28 23
37 39 35 16 -2 21 -13 26 -55z m857 -1603 c12 -20 34 -122 63 -297 l44 -268
-3 -1090 c-2 -1124 -15 -2091 -27 -2103 -27 -28 -195 326 -290 612 -58 173
-60 206 -58 902 2 674 18 1538 33 1719 8 95 17 134 69 286 85 249 95 269 126
269 17 0 31 -9 43 -30z m-1724 4 c15 -38 57 -414 66 -589 7 -131 7 -578 -1
-1440 l-11 -1250 -38 -85 c-88 -200 -297 -546 -324 -537 -7 2 -12 41 -14 98
-6 183 19 3016 28 3129 8 100 16 136 63 275 98 286 137 390 154 403 24 17 70
15 77 -4z m839 -852 c48 -53 185 -608 158 -635 -6 -6 -37 -6 -84 2 -125 20
-213 -12 -301 -110 -54 -60 -75 -116 -57 -155 15 -35 29 -27 73 39 70 104 141
139 232 113 70 -21 101 -47 135 -115 l29 -56 -9 -1415 -8 -1414 30 -100 c52
-176 79 -365 94 -661 l6 -120 -42 -27 c-36 -23 -54 -28 -110 -28 -48 0 -70 4
-79 16 -11 12 -10 58 5 253 20 272 19 289 -56 511 -44 132 -57 160 -75 160
-18 0 -47 -85 -78 -224 -48 -213 -51 -252 -33 -442 23 -228 22 -236 -9 -274
l-27 -31 37 -34 c32 -29 37 -39 34 -72 -4 -44 -18 -50 -128 -52 -94 -1 -97 2
-77 91 l16 73 -36 33 c-28 24 -46 32 -77 33 -81 2 -90 9 -99 72 -9 61 -5 98
37 364 29 188 35 212 83 353 33 99 36 114 44 295 4 104 8 413 9 685 1 731 18
1867 30 2010 25 289 153 697 267 848 27 37 43 40 66 14z m377 -1347 c0 -17
107 -486 141 -615 151 -583 341 -987 616 -1308 48 -57 125 -147 171 -200 98
-114 121 -150 169 -269 35 -85 37 -93 41 -234 4 -135 3 -147 -14 -153 -11 -4
-203 -50 -429 -102 -225 -52 -438 -104 -473 -115 -72 -24 -109 -19 -117 14 -3
12 -14 83 -25 157 -22 147 -45 236 -95 375 l-33 91 9 1089 c8 1084 13 1275 30
1275 5 0 9 -2 9 -5z m-799 -1945 l-9 -435 -35 -107 c-41 -124 -70 -253 -87
-388 -18 -140 -23 -145 -103 -110 -52 23 -298 82 -587 141 -107 22 -238 50
-290 62 l-95 23 -3 120 c-3 119 -2 121 38 228 53 141 69 170 127 237 337 387
428 505 559 726 162 274 291 623 420 1137 30 121 58 224 62 230 11 17 13
-1377 3 -1864z m363 -1123 c-5 -541 -10 -681 -23 -672 -5 2 -14 44 -21 92 -11
77 -10 93 4 126 12 31 14 52 6 115 -23 188 -42 483 -36 562 6 88 39 291 51
310 3 6 10 8 15 5 6 -3 7 -229 4 -538z m-776 90 c47 -16 50 -28 51 -212 l1
-150 45 -117 c24 -65 49 -136 55 -159 14 -50 5 -59 -56 -59 -70 0 -74 -9 -55
-124 14 -80 15 -101 4 -111 -8 -9 -64 -15 -166 -20 -166 -8 -277 0 -277 18 0
7 9 52 20 101 29 132 31 126 -45 126 -56 0 -65 3 -65 18 0 10 18 71 40 136 35
104 40 132 45 244 12 265 15 291 37 303 53 28 287 32 366 6z m1759 -46 c27 -7
28 -11 34 -82 4 -41 7 -118 8 -172 1 -92 5 -109 51 -239 28 -78 50 -148 48
-157 -2 -12 -19 -18 -66 -22 -34 -3 -65 -9 -69 -13 -4 -4 -1 -39 6 -79 7 -40
15 -86 18 -103 l5 -31 -120 -7 c-129 -8 -319 1 -328 15 -3 5 5 49 17 99 12 50
19 93 15 97 -3 4 -39 9 -79 12 -56 5 -72 10 -75 23 -2 9 31 92 72 184 l76 168
0 132 c0 104 3 136 15 147 8 8 45 20 82 26 38 6 79 13 93 15 32 5 161 -3 197
-13z m-847 -411 c18 -33 9 -74 -16 -78 -28 -4 -35 17 -23 62 11 41 23 45 39
16z m-4028 -1410 c88 -25 188 -143 188 -221 0 -44 -9 -49 -94 -49 l-63 0 -29
45 c-41 66 -94 89 -187 82 -64 -4 -74 -8 -99 -36 -57 -64 -25 -117 93 -151
282 -82 324 -101 367 -164 50 -73 57 -182 16 -264 -61 -124 -192 -180 -392
-170 -170 8 -302 105 -327 241 -11 56 4 67 91 67 l74 0 19 -37 c40 -79 94
-113 178 -113 104 0 183 45 183 104 0 64 -38 88 -230 141 -167 46 -244 94
-277 174 -21 51 -19 149 5 202 34 77 116 141 202 160 45 10 234 3 282 -11z
m2123 -1 c33 -6 80 -21 105 -34 79 -40 157 -143 162 -217 l3 -33 -77 -3 -77
-3 -36 50 c-60 84 -130 112 -229 91 -68 -14 -117 -55 -153 -128 -26 -53 -28
-65 -28 -177 1 -99 4 -128 22 -165 44 -98 119 -150 213 -150 70 0 120 28 172
97 43 57 45 58 97 61 73 4 105 -17 98 -64 -15 -89 -137 -209 -246 -241 -81
-23 -241 -14 -307 17 -66 32 -168 135 -195 196 -104 243 -35 554 147 660 85
50 207 66 329 43z m-1370 -20 c61 -16 135 -83 166 -151 35 -78 34 -194 -3
-264 -55 -105 -119 -136 -316 -153 -63 -5 -117 -12 -120 -16 -4 -4 -9 -66 -12
-138 -3 -73 -9 -138 -13 -144 -5 -9 -34 -13 -83 -13 -71 0 -75 1 -84 26 -6 15
-10 196 -10 444 l0 419 28 5 c48 8 400 -3 447 -15z m3247 -8 c116 -44 218
-197 166 -249 -19 -19 -125 -15 -142 6 -8 9 -27 32 -42 51 -35 43 -79 61 -146
61 -104 -1 -173 -58 -149 -123 14 -35 48 -51 208 -98 74 -22 149 -47 166 -55
95 -48 136 -109 145 -210 4 -51 0 -71 -20 -116 -48 -105 -130 -160 -266 -180
-96 -14 -205 -1 -279 34 -59 27 -138 106 -151 150 -31 101 -27 108 69 115 l74
5 28 -56 c22 -47 35 -61 70 -76 47 -22 140 -26 199 -10 74 21 105 111 54 159
-25 24 -117 57 -232 85 -88 22 -182 73 -211 116 -41 60 -54 153 -33 231 14 49
80 122 135 149 93 45 254 50 357 11z m-2669 1 c22 -24 37 -63 122 -302 88
-251 175 -527 175 -557 0 -22 -4 -23 -80 -23 -79 0 -80 0 -96 32 -9 18 -24 55
-34 82 -20 61 -26 63 -190 65 -128 1 -152 -7 -165 -56 -3 -16 -16 -50 -27 -76
l-21 -48 -81 3 c-75 3 -81 5 -84 25 -4 26 245 759 282 832 20 37 26 39 112 40
56 1 74 -3 87 -17z m1703 5 c3 -3 8 -29 11 -59 8 -80 4 -82 -203 -88 -122 -4
-177 -9 -186 -18 -15 -15 -18 -137 -3 -151 6 -5 90 -14 188 -19 136 -7 181
-12 188 -23 11 -18 11 -100 0 -117 -6 -10 -53 -15 -184 -19 -97 -3 -182 -10
-189 -14 -17 -11 -17 -184 1 -202 8 -8 69 -14 186 -17 95 -3 177 -8 180 -12
13 -13 17 -93 6 -120 l-11 -28 -264 0 c-227 0 -267 2 -280 16 -14 14 -16 64
-15 417 1 221 4 413 8 427 5 18 16 27 41 32 39 8 518 3 526 -5z m1400 -21 c17
-13 19 -30 22 -163 2 -81 8 -153 13 -159 12 -14 219 -26 274 -16 l40 7 11 165
c6 91 12 167 13 169 3 9 152 -6 163 -17 10 -10 12 -94 11 -390 -2 -207 -6
-399 -11 -427 l-7 -50 -80 0 -80 0 -6 70 c-4 39 -7 122 -8 186 l-1 117 -31 6
c-48 9 -262 7 -278 -3 -12 -8 -17 -48 -23 -173 -4 -90 -13 -173 -18 -185 -8
-20 -17 -23 -73 -23 -108 0 -100 -38 -96 453 4 367 6 429 19 437 23 15 124 12
146 -4z m785 -13 c6 -6 14 -143 19 -330 9 -360 12 -378 75 -407 51 -25 144
-24 192 1 32 17 40 27 50 69 6 27 15 187 20 356 4 168 11 310 15 313 4 4 37 7
75 7 53 0 70 -4 81 -19 12 -15 13 -74 9 -338 -3 -198 -10 -338 -17 -366 -17
-66 -60 -113 -138 -151 -65 -32 -70 -33 -197 -33 -122 0 -134 2 -186 28 -68
33 -134 101 -148 153 -11 41 -16 661 -5 701 3 12 16 24 28 27 33 7 116 0 127
-11z m1519 -11 l65 -7 3 -66 3 -66 -79 -6 c-43 -3 -85 -9 -94 -12 -23 -9 -28
-57 -28 -285 -1 -257 -13 -419 -31 -431 -21 -13 -133 -11 -147 3 -9 9 -12 103
-12 360 0 323 -1 349 -17 356 -22 9 -209 9 -218 0 -6 -5 -24 -488 -25 -655 l0
-63 -79 0 c-53 0 -83 4 -88 13 -4 6 -10 170 -13 362 l-5 350 -70 8 c-90 11
-99 16 -103 62 -5 51 4 82 26 89 22 7 828 -4 912 -12z m277 -6 c5 -4 10 -166
13 -359 l5 -351 25 -7 c14 -4 63 -7 110 -8 47 -1 115 -4 153 -8 l67 -6 0 -62
c0 -44 -5 -66 -15 -75 -13 -10 -67 -12 -254 -7 -132 4 -246 9 -254 13 -23 8
-26 72 -21 409 6 411 10 454 37 466 25 10 123 6 134 -5z m1004 -16 c14 -21 5
-110 -12 -121 -8 -5 -63 -9 -124 -10 -60 -1 -141 -4 -180 -8 l-70 -6 -7 -50
c-9 -60 -1 -112 17 -119 8 -3 93 -8 190 -12 l177 -7 10 -26 c6 -16 6 -42 1
-66 -10 -50 -19 -52 -213 -54 -183 -1 -190 -5 -190 -95 0 -84 9 -123 29 -132
9 -4 92 -10 184 -14 186 -7 187 -7 187 -73 0 -80 13 -77 -289 -77 -226 0 -271
2 -281 15 -9 11 -11 112 -9 435 4 359 6 422 19 431 9 6 117 9 283 7 225 -3
269 -5 278 -18z"/>
<path d="M2680 1892 c-23 -7 -25 -14 -31 -82 -7 -92 -1 -156 17 -171 21 -17
171 -7 211 14 79 42 85 171 9 220 -27 18 -166 31 -206 19z"/>
<path d="M3408 1785 c-17 -32 -61 -173 -77 -243 -11 -52 2 -62 81 -62 83 0 98
7 98 45 0 37 -42 188 -69 250 l-18 40 -15 -30z"/>
</g>
</svg>
