<?xml version="1.0" standalone="no"?>
<!DOCTYPE svg PUBLIC "-//W3C//DTD SVG 20010904//EN"
 "http://www.w3.org/TR/2001/REC-SVG-20010904/DTD/svg10.dtd">
<svg version="1.0" xmlns="http://www.w3.org/2000/svg"
 width="1280.000000pt" height="640.000000pt" viewBox="0 0 1280.000000 640.000000"
 preserveAspectRatio="xMidYMid meet">
<metadata>
Created by potrace 1.15, written by Peter Selinger 2001-2017
</metadata>
<g transform="translate(0.000000,640.000000) scale(0.100000,-0.100000)"
fill="#000000" stroke="none">
<path d="M455 4248 c-2 -7 -104 -463 -225 -1013 -122 -550 -223 -1008 -226
-1017 -5 -17 14 -18 299 -18 l304 0 42 163 c22 89 85 338 138 552 l98 390 7
-360 c5 -198 11 -447 14 -552 l6 -193 214 0 215 0 271 550 c149 302 273 548
275 546 3 -2 0 -21 -6 -43 -11 -36 -231 -1038 -231 -1048 0 -3 130 -5 289 -5
267 0 290 1 295 18 3 9 105 465 226 1012 121 547 223 1003 226 1013 5 16 -17
17 -406 15 l-411 -3 -265 -555 c-146 -305 -269 -559 -273 -563 -4 -4 -11 83
-14 195 -15 472 -28 807 -33 866 l-6 62 -409 0 c-319 0 -411 -3 -414 -12z"/>
<path d="M2769 4105 l-36 -155 274 0 c150 0 273 2 273 3 0 2 14 71 30 152 17
81 30 150 30 152 0 1 -121 3 -268 3 l-268 0 -35 -155z"/>
<path d="M11196 4220 c-160 -19 -239 -57 -310 -150 -48 -63 -101 -184 -122
-277 l-16 -73 -109 0 -108 0 -15 -52 c-9 -29 -25 -93 -37 -143 -12 -49 -25
-94 -29 -98 -4 -5 -22 18 -40 50 -168 297 -656 402 -1037 223 -114 -53 -194
-112 -289 -213 -311 -330 -364 -834 -117 -1107 127 -140 311 -210 551 -210
280 0 511 90 700 274 244 235 354 622 256 898 l-13 38 109 0 c61 0 110 -3 110
-7 0 -3 -23 -101 -51 -217 -28 -116 -88 -371 -135 -566 -46 -195 -87 -363 -90
-372 -5 -17 13 -18 274 -18 l280 0 7 38 c8 46 244 1100 251 1125 5 15 19 17
105 17 54 0 99 -4 99 -9 0 -5 -40 -194 -90 -420 -60 -274 -90 -433 -90 -474 0
-108 63 -211 155 -253 48 -23 59 -24 292 -24 222 0 242 1 247 18 6 21 86 362
86 368 0 2 -33 1 -73 -2 -89 -8 -144 7 -153 40 -3 12 31 180 75 373 45 193 81
354 81 357 0 3 44 6 98 6 l98 0 38 158 c20 86 40 165 42 175 5 15 -4 17 -90
17 l-95 0 6 33 c3 17 21 99 38 180 22 103 29 150 21 153 -6 2 -126 3 -266 2
l-255 -3 -17 -65 c-9 -36 -28 -118 -43 -182 l-27 -118 -104 0 c-119 0 -116 -3
-90 95 25 96 44 113 130 124 l50 6 29 138 c15 77 26 141 23 144 -9 10 -260 12
-340 3z m-1367 -810 c72 -41 101 -115 101 -256 0 -213 -113 -481 -240 -569
-99 -68 -209 -45 -260 56 -84 164 5 541 166 706 82 84 158 104 233 63z"/>
<path d="M6475 3776 c-256 -42 -488 -184 -634 -388 -19 -27 -35 -47 -37 -45
-1 1 18 88 42 192 24 105 43 197 44 205 0 14 -11 15 -85 8 -140 -14 -264 -67
-354 -152 -31 -29 -42 -35 -38 -21 22 78 37 148 34 152 -8 7 -521 -17 -528
-25 -5 -7 -350 -1479 -349 -1494 0 -5 128 -8 284 -8 l283 0 62 313 c87 437
109 506 196 592 71 72 221 134 322 135 l32 0 -24 -52 c-75 -165 -103 -378 -71
-538 47 -236 208 -409 441 -473 91 -25 311 -34 409 -18 266 45 483 193 617
420 l36 61 5 -70 c17 -235 230 -385 597 -421 523 -52 901 146 977 510 29 142
-14 289 -112 381 -86 82 -186 119 -454 171 -146 28 -213 52 -245 90 -34 41
-32 80 6 123 36 41 79 56 164 56 111 0 168 -49 167 -144 l0 -56 263 0 263 0 7
58 c23 202 -93 348 -327 412 -112 30 -294 42 -445 29 -390 -33 -618 -185 -654
-434 -36 -259 146 -440 531 -525 219 -48 304 -132 240 -237 -57 -94 -278 -111
-369 -28 -35 33 -36 35 -36 109 l0 76 -465 1 -465 1 237 80 237 79 12 37 c6
20 14 96 16 168 6 151 -13 249 -69 364 -42 85 -150 194 -238 237 -136 68 -356
97 -525 69z m178 -360 c84 -35 123 -134 114 -291 -12 -228 -129 -473 -263
-551 -79 -46 -170 -32 -228 36 -119 143 -38 535 151 728 82 82 155 108 226 78z"/>
<path d="M3913 3755 c-198 -36 -364 -125 -503 -271 -331 -346 -370 -887 -86
-1170 125 -124 249 -168 471 -167 200 1 340 36 485 122 159 95 281 254 334
439 l15 52 -252 0 -252 0 -24 -46 c-34 -63 -119 -138 -175 -154 -56 -15 -120
-8 -155 18 -14 10 -37 39 -51 63 -22 39 -25 56 -24 144 0 256 157 551 320 605
46 15 109 7 143 -18 35 -26 60 -94 60 -164 l1 -58 251 0 252 0 -6 78 c-21 268
-183 471 -421 527 -76 18 -283 18 -383 0z"/>
<path d="M2675 3708 c-4 -18 -81 -364 -171 -768 -90 -404 -164 -738 -164 -742
0 -5 127 -7 281 -6 l282 3 37 175 c179 833 290 1356 290 1363 0 4 -123 7 -274
7 l-274 0 -7 -32z"/>
<path d="M12540 3730 c-104 -20 -163 -94 -164 -205 0 -107 60 -182 162 -204
129 -27 244 51 258 176 18 151 -105 263 -256 233z m126 -49 c100 -45 130 -168
64 -260 -73 -103 -257 -82 -306 36 -64 151 90 293 242 224z"/>
<path d="M12536 3631 c-6 -8 -36 -185 -36 -208 0 -7 8 -13 19 -13 19 0 31 25
31 68 0 40 35 27 50 -18 10 -32 18 -40 37 -40 27 0 28 2 7 41 -15 29 -14 31
15 59 37 34 39 63 6 95 -19 20 -34 25 -74 25 -27 0 -52 -4 -55 -9z m95 -31
c42 -23 16 -70 -39 -70 -33 0 -33 1 -27 33 4 17 9 35 12 40 6 10 31 9 54 -3z"/>
</g>
</svg>
