<?xml version="1.0" standalone="no"?>
<!DOCTYPE svg PUBLIC "-//W3C//DTD SVG 20010904//EN"
 "http://www.w3.org/TR/2001/REC-SVG-20010904/DTD/svg10.dtd">
<svg version="1.0" xmlns="http://www.w3.org/2000/svg"
 width="1280.000000pt" height="1141.000000pt" viewBox="0 0 1280.000000 1141.000000"
 preserveAspectRatio="xMidYMid meet">
<metadata>
Created by potrace 1.15, written by Peter Selinger 2001-2017
</metadata>
<g transform="translate(0.000000,1141.000000) scale(0.100000,-0.100000)"
fill="#000000" stroke="none">
<path d="M6076 11089 c-96 -24 -144 -89 -166 -228 -10 -61 -10 -75 1 -82 34
-21 130 -31 237 -26 l112 5 0 -38 c0 -46 16 -86 38 -95 24 -9 46 21 44 57 -8
102 -16 90 73 120 44 15 92 28 107 28 71 0 106 -51 93 -138 -13 -92 -13 -91
-92 -128 -62 -28 -89 -49 -156 -119 -81 -86 -111 -101 -136 -71 -6 7 -22 57
-35 112 -15 60 -32 103 -42 111 -24 18 -168 18 -160 1 42 -92 103 -262 127
-356 43 -164 50 -303 20 -402 -20 -64 -30 -81 -87 -137 -35 -35 -72 -80 -83
-101 -79 -158 -161 -596 -188 -1012 -12 -182 -9 -625 5 -705 19 -103 40 -162
67 -183 22 -18 54 -20 407 -26 211 -3 469 -9 575 -12 l191 -7 21 66 c39 128
55 276 55 512 -1 310 -26 533 -139 1222 -82 497 -105 670 -112 863 -9 262 16
372 116 500 11 14 23 50 27 82 l6 58 -32 -12 c-56 -19 -191 -3 -350 42 -356
101 -462 120 -544 99z"/>
<path d="M5240 10801 c-113 -35 -157 -103 -138 -214 6 -34 12 -64 14 -66 2 -2
15 6 30 18 56 44 204 20 344 -56 165 -89 252 -193 224 -268 -10 -24 -79 -55
-137 -62 -33 -4 -98 -28 -179 -66 -128 -60 -128 -60 -128 -94 0 -42 23 -94 49
-110 37 -23 532 36 601 72 79 41 74 83 -38 366 -38 96 -88 233 -112 304 -23
72 -50 138 -59 148 -12 12 -43 20 -101 27 -99 11 -334 12 -370 1z"/>
<path d="M4700 10395 c0 -21 56 -131 87 -173 53 -70 108 -76 273 -27 64 19
108 25 182 25 104 0 148 10 148 35 0 37 -176 114 -262 115 -46 0 -98 -16 -98
-31 0 -10 -77 -39 -106 -39 -30 0 -104 35 -169 80 -50 34 -55 36 -55 15z"/>
<path d="M3787 10045 c-177 -29 -433 -127 -777 -300 -256 -128 -395 -204 -935
-515 -793 -456 -1034 -577 -1218 -611 l-67 -12 0 -39 c0 -113 60 -201 155
-229 66 -19 209 -16 315 6 349 71 786 255 1572 661 196 102 391 200 434 220
l76 35 -5 -28 c-109 -508 174 -1208 810 -2010 137 -173 293 -350 402 -458 45
-44 81 -86 81 -94 0 -40 -269 -814 -290 -835 -9 -9 -82 47 -363 282 -82 68
-150 122 -152 120 -2 -2 -121 -347 -265 -768 -145 -421 -264 -766 -265 -768
-1 -1 -55 29 -120 68 -65 39 -119 69 -122 66 -2 -2 -81 -251 -175 -552 -93
-302 -171 -551 -173 -553 -2 -2 -68 47 -147 108 -79 61 -146 111 -149 111 -3
0 -13 -215 -23 -477 -9 -263 -24 -644 -32 -848 -15 -413 -18 -938 -5 -915 8
13 811 2462 848 2583 10 33 19 47 28 43 7 -2 57 -37 110 -76 53 -40 98 -70 99
-68 1 1 130 354 285 783 156 429 286 783 290 787 3 4 83 -58 176 -138 224
-191 314 -259 324 -248 5 5 50 140 101 299 107 338 191 579 227 649 l25 49 69
-69 69 -69 -197 -598 c-108 -328 -200 -596 -205 -595 -4 2 -120 94 -259 206
-138 112 -253 202 -255 200 -2 -2 -118 -354 -258 -782 -140 -428 -257 -780
-259 -782 -2 -2 -52 34 -112 81 -60 47 -111 82 -115 78 -10 -12 -849 -2374
-856 -2410 -14 -72 -27 -86 592 617 230 261 462 525 516 586 54 62 98 114 98
118 0 3 -60 53 -132 112 -73 59 -133 112 -132 118 1 6 31 105 68 219 50 153
70 206 79 199 65 -51 210 -153 213 -150 2 2 108 310 235 684 127 373 234 684
238 690 5 10 40 -15 268 -196 l22 -17 -80 -304 c-44 -167 -82 -305 -84 -308
-3 -2 -39 19 -82 47 -54 36 -80 48 -84 39 -4 -7 -132 -435 -284 -952 -153
-517 -279 -942 -281 -944 -2 -2 -36 23 -75 55 -39 33 -84 70 -101 83 l-29 23
6 -333 c15 -805 33 -1139 64 -1139 12 0 56 128 171 500 86 276 747 2278 756
2289 1 2 38 -22 80 -53 43 -31 81 -53 85 -49 4 4 69 253 144 553 75 300 138
547 140 548 4 5 169 -127 173 -138 4 -10 -318 -1252 -327 -1262 -3 -4 -42 19
-86 51 l-80 59 -231 -687 c-242 -717 -277 -813 -523 -1440 -83 -211 -151 -388
-151 -393 0 -4 10 -8 23 -8 16 0 49 27 108 88 113 117 1009 1129 1009 1140 0
5 -61 57 -135 115 -74 59 -135 112 -135 119 0 12 169 561 175 566 2 2 49 -28
104 -67 55 -39 106 -74 114 -77 11 -4 58 158 207 708 107 392 195 714 195 716
1 1 45 -42 98 -95 l97 -98 0 1498 0 1499 -52 -46 c-60 -52 -170 -110 -243
-127 -27 -6 -89 -11 -136 -11 -155 -1 -282 53 -395 166 -352 353 -100 955 401
956 130 0 271 -52 363 -135 28 -25 53 -45 56 -45 3 0 6 43 6 95 0 146 9 137
-290 315 -85 51 -197 122 -249 158 -419 291 -672 653 -761 1090 -22 111 -40
283 -40 389 0 131 -43 214 -132 257 -68 32 -158 39 -271 21z"/>
<path d="M8790 10035 c-69 -20 -118 -59 -149 -119 -21 -40 -25 -68 -32 -194
-21 -372 -87 -613 -234 -858 -180 -297 -411 -503 -869 -775 -88 -51 -177 -110
-198 -130 l-38 -36 0 -106 c0 -59 2 -107 5 -107 2 0 23 18 47 40 54 50 156
105 234 125 73 19 212 19 284 0 177 -47 322 -179 389 -355 22 -57 25 -81 25
-190 0 -112 -3 -132 -27 -193 -90 -230 -287 -368 -527 -369 -145 -1 -266 46
-392 152 l-38 32 0 -1499 1 -1498 94 100 c52 54 96 97 98 95 2 -3 91 -326 197
-718 129 -477 197 -711 205 -708 6 2 58 36 114 76 56 40 104 71 106 69 6 -7
175 -550 175 -564 0 -7 -61 -62 -135 -121 -74 -59 -135 -111 -135 -116 0 -5
143 -169 317 -366 174 -196 384 -433 467 -527 211 -240 306 -335 333 -335 13
0 23 4 23 9 0 5 -54 148 -121 318 -262 666 -329 852 -551 1513 -126 376 -230
685 -232 687 -1 1 -39 -24 -84 -57 l-81 -60 -15 52 c-30 105 -316 1207 -316
1216 0 10 169 146 175 141 1 -2 65 -249 140 -549 76 -300 141 -548 145 -553 3
-4 39 18 80 48 40 30 76 55 79 55 9 0 643 -1908 766 -2303 150 -483 164 -519
179 -469 21 68 39 463 51 1122 6 321 5 334 -12 319 -72 -62 -184 -151 -187
-148 -1 2 -128 429 -281 949 -153 520 -282 949 -286 953 -4 5 -42 -14 -84 -43
-42 -28 -78 -50 -80 -48 -4 4 -155 575 -158 598 -2 20 272 246 283 233 4 -4
112 -317 240 -695 155 -457 236 -685 244 -681 6 4 53 38 103 75 51 37 98 69
104 70 9 2 154 -423 146 -427 -15 -8 -267 -218 -267 -223 1 -12 1184 -1345
1198 -1350 7 -2 12 5 12 18 0 22 -847 2408 -860 2423 -4 5 -56 -30 -115 -77
-60 -48 -110 -84 -112 -82 -2 2 -119 354 -259 782 -140 428 -257 780 -259 782
-2 2 -119 -89 -260 -203 -141 -114 -258 -205 -259 -203 -2 1 -91 271 -199 598
l-196 595 67 67 c52 54 69 65 78 55 27 -27 134 -329 265 -747 39 -124 75 -229
79 -234 12 -12 72 34 299 228 107 91 198 163 202 159 4 -5 135 -359 290 -788
155 -429 284 -782 285 -783 1 -2 46 28 99 68 53 39 103 74 110 76 10 4 20 -14
33 -58 54 -172 836 -2555 843 -2568 13 -24 10 505 -5 915 -8 204 -23 585 -32
848 -13 353 -21 476 -30 473 -6 -2 -73 -53 -148 -111 -75 -59 -138 -106 -140
-104 -2 2 -81 251 -174 553 -94 301 -173 550 -176 553 -2 3 -54 -25 -115 -61
-61 -36 -115 -66 -120 -66 -5 0 -49 118 -99 263 -49 144 -168 490 -263 768
l-174 506 -90 -77 c-192 -164 -418 -341 -425 -333 -21 21 -290 796 -290 834 0
7 53 66 118 133 135 139 297 328 434 507 589 769 846 1434 742 1921 l-6 28 38
-16 c22 -9 251 -123 509 -255 614 -311 864 -426 1160 -534 375 -136 656 -163
770 -73 38 29 66 93 73 161 6 65 -2 77 -51 77 -116 0 -485 183 -1197 592 -616
353 -816 463 -1055 579 -443 214 -751 300 -915 254z"/>
<path d="M3021 8877 c-53 -85 -235 -303 -340 -407 -191 -190 -343 -289 -771
-503 -482 -242 -907 -407 -1203 -468 -140 -29 -181 -24 -313 39 l-109 52 -8
-43 c-12 -62 0 -226 22 -296 97 -311 419 -373 966 -188 580 197 1388 686 1873
1134 l52 48 -74 323 c-41 178 -76 325 -78 327 -2 2 -10 -6 -17 -18z"/>
<path d="M9755 8868 c-3 -13 -36 -158 -74 -323 l-69 -300 46 -48 c112 -116
391 -334 649 -505 433 -289 890 -525 1243 -642 416 -138 699 -131 853 22 88
88 133 239 123 412 -3 48 -7 90 -9 93 -3 2 -54 -19 -114 -48 -101 -49 -113
-53 -183 -53 -254 1 -967 275 -1562 602 -404 222 -535 337 -846 745 -46 60
-52 65 -57 45z"/>
<path d="M2838 7558 c-534 -536 -823 -790 -1138 -999 -288 -192 -508 -279
-706 -279 -107 0 -181 22 -255 74 l-48 35 -7 -46 c-11 -77 3 -223 31 -310 46
-146 157 -272 305 -346 59 -29 72 -32 155 -31 105 2 214 31 356 95 422 190
1026 644 1539 1159 205 204 321 339 367 427 l28 52 -17 63 c-16 64 -174 517
-183 526 -2 2 -194 -187 -427 -420z"/>
<path d="M9470 7798 c-133 -372 -142 -406 -111 -466 62 -121 406 -487 705
-747 416 -364 794 -635 1103 -792 195 -99 309 -135 441 -141 103 -4 104 -4
175 31 157 78 261 201 311 367 20 65 32 251 20 298 l-9 33 -35 -27 c-109 -83
-256 -105 -424 -65 -227 54 -511 216 -836 476 -256 204 -453 387 -861 797
-223 224 -408 408 -411 408 -3 0 -34 -78 -68 -172z"/>
<path d="M5010 7585 c-57 -18 -124 -75 -152 -129 -29 -54 -31 -155 -4 -206 25
-49 74 -98 121 -123 32 -17 57 -22 125 -22 74 0 91 3 130 26 25 15 54 36 64
48 l19 21 1102 0 1102 0 24 -26 c13 -15 47 -37 74 -50 143 -68 327 12 370 160
67 230 -225 410 -421 260 l-44 -34 -1109 0 c-998 0 -1110 2 -1122 16 -47 57
-191 87 -279 59z"/>
<path d="M3574 7142 c-12 -15 -101 -143 -199 -286 -649 -947 -1057 -1410
-1454 -1649 -155 -94 -334 -135 -451 -104 -30 9 -57 14 -59 11 -2 -2 1 -35 8
-73 17 -94 67 -196 126 -254 116 -117 329 -169 479 -117 303 104 790 548 1297
1180 304 379 579 802 579 889 0 31 -58 120 -186 283 -46 59 -89 116 -96 128
-16 25 -18 25 -44 -8z"/>
<path d="M9080 7009 c-142 -186 -180 -245 -180 -281 0 -68 184 -366 422 -683
238 -317 477 -594 725 -841 197 -197 330 -310 485 -414 215 -143 340 -175 502
-131 42 12 96 31 118 42 67 34 145 115 182 190 32 64 66 202 53 215 -3 3 -23
0 -44 -7 -58 -19 -187 -14 -268 11 -186 58 -383 197 -636 449 -298 298 -564
633 -943 1186 -224 327 -286 415 -294 415 -4 -1 -59 -69 -122 -151z"/>
<path d="M5736 6978 c-13 -178 -19 -2373 -7 -2868 34 -1450 107 -2393 232
-3000 84 -404 177 -618 298 -684 l51 -27 0 188 c0 103 -7 890 -15 1748 -7 858
-19 2240 -25 3070 -6 831 -13 1543 -16 1583 l-6 72 -253 0 -252 0 -7 -82z"/>
<path d="M6526 6618 c-3 -238 -12 -1495 -21 -2793 -8 -1298 -18 -2603 -22
-2899 l-6 -540 39 23 c122 72 201 225 279 542 164 667 246 1820 270 3789 6
485 -8 1990 -21 2203 l-6 107 -253 0 -253 0 -6 -432z"/>
</g>
</svg>
