<?xml version="1.0" standalone="no"?>
<!DOCTYPE svg PUBLIC "-//W3C//DTD SVG 20010904//EN"
 "http://www.w3.org/TR/2001/REC-SVG-20010904/DTD/svg10.dtd">
<svg version="1.0" xmlns="http://www.w3.org/2000/svg"
 width="740.000000pt" height="1280.000000pt" viewBox="0 0 740.000000 1280.000000"
 preserveAspectRatio="xMidYMid meet">
<metadata>
Created by potrace 1.15, written by Peter Selinger 2001-2017
</metadata>
<g transform="translate(0.000000,1280.000000) scale(0.100000,-0.100000)"
fill="#000000" stroke="none">
<path d="M5788 11887 l-1328 -912 0 -116 0 -117 78 -17 c42 -9 91 -20 107 -24
26 -6 37 -20 82 -111 28 -58 53 -109 55 -114 2 -5 534 357 1181 803 l1177 813
0 354 c0 277 -3 354 -12 354 -7 -1 -610 -411 -1340 -913z"/>
<path d="M30 12058 c0 -27 69 -168 143 -295 42 -72 95 -169 117 -214 22 -45
41 -83 43 -85 2 -3 34 9 70 26 86 39 198 69 269 72 32 2 58 6 58 9 0 8 -140
124 -233 193 -42 31 -139 96 -215 143 -75 47 -163 104 -194 125 -34 22 -58 33
-58 26z"/>
<path d="M5965 11122 l-1150 -797 0 -63 0 -64 168 -99 c92 -54 172 -99 177
-99 5 0 452 305 992 678 l983 678 3 282 c2 222 0 282 -10 282 -7 -1 -530 -360
-1163 -798z"/>
<path d="M74 11672 c8 -221 32 -392 54 -392 4 0 25 21 46 48 21 26 55 61 76
77 l38 30 -100 195 c-56 107 -105 200 -111 205 -6 7 -7 -49 -3 -163z"/>
<path d="M625 11481 c-176 -45 -310 -117 -419 -226 -155 -155 -217 -326 -203
-558 14 -224 82 -351 252 -472 206 -146 414 -172 695 -88 239 71 389 196 443
368 31 99 30 265 -2 389 -83 324 -247 536 -456 591 -78 20 -222 18 -310 -4z
m-94 -337 c13 -7 54 -13 90 -14 91 0 157 -22 212 -70 65 -57 99 -132 101 -218
1 -81 -14 -128 -61 -189 l-36 -47 17 -75 c10 -42 20 -85 23 -96 3 -11 -19 12
-48 51 l-54 72 -110 4 c-157 6 -239 47 -285 143 -44 92 -25 196 57 308 36 49
38 55 38 129 0 77 0 77 16 46 9 -17 27 -37 40 -44z"/>
<path d="M568 11010 c-132 -70 -150 -248 -34 -334 21 -16 42 -21 94 -21 83 0
155 33 190 85 48 71 9 220 -72 269 -44 27 -127 28 -178 1z"/>
<path d="M1333 11237 c41 -54 70 -126 111 -272 20 -70 38 -130 41 -133 4 -4
182 -49 530 -135 33 -8 62 -12 65 -10 8 8 -202 207 -307 290 -113 90 -250 180
-378 249 l-90 48 28 -37z"/>
<path d="M6670 10896 c-250 -172 -687 -473 -970 -668 l-515 -355 0 -98 0 -98
190 -87 c105 -48 195 -85 200 -82 23 13 1464 1008 1513 1044 l52 39 0 309 c0
171 -3 310 -7 310 -5 0 -213 -141 -463 -314z"/>
<path d="M4100 10750 c-140 -93 -256 -172 -257 -177 -2 -5 51 -23 118 -41
l121 -33 135 103 c75 56 137 107 139 113 5 17 9 205 4 204 -3 0 -120 -76 -260
-169z"/>
<path d="M1485 10620 c0 -77 3 -140 7 -140 44 0 264 36 336 55 102 27 242 82
242 95 0 10 -176 53 -310 75 -52 9 -134 25 -182 36 -48 10 -89 19 -90 19 -2 0
-3 -63 -3 -140z"/>
<path d="M4279 10517 l-144 -113 -3 -131 -3 -132 118 -36 c65 -20 129 -40 143
-44 22 -7 45 4 160 79 l135 88 2 99 3 98 -48 84 -47 85 -70 18 c-38 9 -77 18
-86 18 -9 0 -81 -51 -160 -113z"/>
<path d="M3468 10342 c-131 -86 -238 -161 -238 -165 0 -6 286 -373 321 -411 5
-5 109 66 243 167 l235 176 -6 143 c-3 79 -8 146 -12 149 -7 8 -281 99 -296
99 -6 0 -117 -71 -247 -158z"/>
<path d="M6964 10342 c-902 -613 -1332 -907 -1346 -921 -15 -14 -15 -30 -7
-151 6 -74 13 -138 17 -142 4 -3 78 -33 165 -66 l158 -60 292 202 c161 111
428 295 595 410 l302 209 0 313 c0 173 -4 314 -8 314 -5 0 -80 -49 -168 -108z"/>
<path d="M1416 10361 c-142 -193 -378 -313 -665 -340 -164 -15 -296 10 -444
85 -38 19 -70 34 -73 34 -2 0 32 -49 76 -108 139 -189 181 -314 182 -532 0
-156 -18 -260 -93 -560 -96 -377 -104 -436 -103 -765 0 -238 3 -301 22 -420
78 -496 252 -888 595 -1338 144 -190 305 -362 766 -822 l430 -429 73 49 c195
134 474 350 728 564 242 205 1035 918 1035 931 0 8 -56 52 -194 151 l-94 68
-60 -77 c-33 -42 -116 -133 -186 -202 -221 -221 -437 -344 -713 -407 -116 -26
-412 -24 -546 5 -483 104 -801 352 -1012 787 -299 615 -210 1273 255 1890 193
256 428 478 726 687 l109 76 -263 209 c-279 224 -409 348 -467 451 -19 34 -38
62 -42 62 -3 0 -23 -22 -42 -49z"/>
<path d="M2929 10009 c-432 -260 -939 -641 -1228 -923 -371 -363 -535 -674
-586 -1111 -80 -691 173 -1214 723 -1489 98 -49 257 -102 366 -121 114 -19
340 -20 442 0 270 52 489 177 712 410 249 259 352 485 352 776 0 203 -44 389
-139 584 -204 418 -464 580 -931 578 -126 0 -170 -4 -234 -22 -95 -25 -200
-72 -264 -118 -112 -79 -243 -234 -314 -368 -65 -126 -80 -191 -85 -370 -8
-271 29 -404 152 -533 74 -78 147 -125 253 -162 274 -97 591 -41 768 135 69
68 107 135 129 227 37 157 7 248 -129 395 -30 32 -72 68 -94 81 -39 22 -41 22
-51 4 -9 -17 3 -115 29 -226 37 -158 -16 -269 -160 -334 -66 -31 -195 -42
-255 -22 -45 15 -118 79 -134 118 -7 15 -30 38 -52 52 -57 35 -89 93 -89 160
0 48 4 56 39 91 39 39 39 40 24 70 -24 48 -13 123 23 160 40 43 76 59 128 59
l44 0 7 42 c5 30 19 54 44 80 83 83 211 65 263 -36 12 -23 23 -35 26 -28 2 7
23 22 45 34 81 42 193 20 241 -45 17 -22 21 -44 21 -98 l0 -69 35 0 c70 -1
155 -59 179 -123 24 -63 8 -140 -41 -194 l-20 -22 35 -31 c128 -112 92 -308
-68 -369 l-49 -19 -3 -67 c-6 -173 -115 -236 -281 -165 l-51 22 -28 -33 c-69
-84 -139 -129 -198 -129 -48 0 -106 33 -158 89 l-48 51 -42 -35 c-57 -49 -133
-72 -186 -56 -22 6 -53 23 -70 37 -37 31 -81 118 -81 161 l0 33 -52 -6 c-139
-16 -257 70 -258 187 0 32 15 94 35 141 5 12 -1 21 -22 31 -161 85 -177 305
-30 404 l47 31 -34 20 c-69 41 -98 169 -57 257 32 70 86 105 161 105 l38 0
-20 38 c-43 82 -3 223 77 270 34 20 49 22 105 18 36 -3 77 -8 93 -12 27 -6 27
-6 27 42 0 64 37 144 81 175 26 18 50 25 104 27 60 3 77 0 119 -23 27 -14 50
-24 51 -23 1 2 12 21 23 43 37 73 111 125 177 125 69 0 148 -49 182 -114 l15
-28 21 30 c46 65 141 103 221 88 71 -13 146 -89 146 -148 0 -16 4 -28 10 -26
5 2 140 104 300 227 176 136 289 230 286 237 -3 7 -123 165 -268 351 -145 186
-292 377 -328 425 -36 48 -68 87 -71 88 -4 0 -89 -50 -190 -111z"/>
<path d="M4628 10039 c-125 -83 -115 -51 -94 -298 13 -152 19 -170 53 -171 7
0 69 -14 138 -31 l126 -31 115 87 115 86 -3 121 -3 121 -165 93 c-91 51 -167
93 -170 94 -3 0 -53 -32 -112 -71z"/>
<path d="M3850 9861 c-123 -93 -226 -173 -227 -178 -5 -15 351 -448 368 -447
11 1 319 225 422 307 l27 22 -14 184 c-8 101 -16 185 -18 186 -6 6 -312 95
-322 94 -6 0 -112 -76 -236 -168z"/>
<path d="M5028 9491 c-65 -53 -123 -102 -128 -107 -8 -8 -5 -48 10 -135 29
-175 30 -179 46 -179 8 0 80 -16 160 -35 80 -19 154 -35 165 -35 10 0 62 32
114 70 l95 70 0 89 c0 48 -3 116 -7 151 l-6 62 -151 74 c-83 41 -157 74 -166
73 -8 0 -68 -44 -132 -98z"/>
<path d="M4280 9320 c-113 -88 -206 -163 -208 -168 -4 -12 306 -397 319 -397
5 0 106 78 224 174 180 145 214 177 210 195 -3 11 -14 79 -25 151 -12 71 -22
130 -23 131 -1 0 -60 15 -132 33 -71 17 -137 34 -145 36 -8 2 -107 -68 -220
-155z"/>
<path d="M3790 9138 c-34 -18 -492 -351 -532 -387 -4 -3 30 -5 75 -3 95 3 138
-13 174 -66 27 -42 39 -113 25 -158 -5 -19 -8 -34 -6 -34 11 0 452 301 471
321 70 77 68 190 -4 270 -67 74 -133 93 -203 57z"/>
<path d="M5433 8982 c-100 -84 -113 -99 -112 -126 1 -66 24 -261 31 -261 8 0
440 294 481 327 l28 23 -123 52 c-68 29 -139 59 -158 67 l-35 14 -112 -96z"/>
<path d="M4678 8832 c-121 -97 -195 -162 -192 -170 6 -20 335 -432 344 -432 6
0 399 269 419 286 5 5 -17 345 -22 350 -5 5 -339 124 -346 124 -3 -1 -95 -71
-203 -158z"/>
<path d="M4081 8774 c-19 -8 -143 -88 -276 -177 l-242 -162 73 -6 c120 -11
173 -60 161 -151 -3 -23 -19 -61 -36 -85 -17 -24 -31 -45 -31 -47 0 -8 546
316 568 337 53 49 66 115 37 185 -43 101 -157 149 -254 106z"/>
<path d="M4405 8443 c-11 -3 -172 -93 -358 -201 l-337 -197 61 -7 c145 -17
191 -139 100 -266 -47 -64 -46 -66 15 -32 354 203 695 407 719 431 26 26 30
36 30 87 0 78 -33 129 -106 166 -51 25 -80 29 -124 19z"/>
<path d="M4650 8056 c-33 -11 -642 -328 -769 -399 l-54 -30 43 -20 c100 -47
105 -146 14 -247 l-37 -41 29 6 c16 4 43 11 59 15 32 10 112 30 536 140 151
39 286 75 300 81 39 15 85 67 110 124 64 142 -8 338 -138 374 -47 13 -49 13
-93 -3z"/>
<path d="M2458 7977 c-86 -21 -171 -137 -172 -236 0 -125 88 -211 216 -211 97
1 171 43 197 113 47 123 -44 309 -164 335 -23 5 -56 4 -77 -1z"/>
<path d="M4575 7419 c-22 -5 -193 -41 -380 -81 -187 -39 -342 -73 -344 -75 -3
-2 5 -13 17 -26 33 -35 42 -70 31 -112 -12 -43 -86 -121 -123 -131 -14 -3 -26
-9 -26 -13 0 -4 195 -16 433 -26 487 -21 492 -20 575 50 61 53 92 123 92 210
0 99 -27 150 -99 187 -56 29 -101 34 -176 17z"/>
<path d="M3885 6539 c-466 -469 -1033 -953 -1543 -1316 -89 -63 -161 -117
-160 -118 40 -31 331 -225 337 -225 5 0 62 82 126 183 65 100 124 188 131 196
11 13 39 13 199 1 102 -7 188 -11 190 -8 3 3 23 94 45 203 22 109 42 200 44
202 2 2 81 7 177 11 l174 7 17 140 c10 76 20 145 23 153 4 10 42 12 187 10
l183 -3 3 343 c1 188 -1 342 -6 342 -4 0 -61 -54 -127 -121z"/>
<path d="M4105 6433 c11 -258 -10 -220 206 -366 213 -144 340 -222 791 -483
414 -240 572 -336 734 -446 l132 -89 38 16 c83 36 214 78 314 102 144 34 361
42 481 19 264 -52 429 -241 429 -491 0 -292 -241 -528 -510 -501 -147 15 -299
94 -425 220 -77 77 -133 156 -326 458 l-66 103 -319 192 c-591 355 -999 610
-1312 820 -84 57 -155 103 -158 103 -2 0 -4 -30 -4 -67 0 -56 -4 -71 -26 -100
-14 -19 -24 -36 -23 -37 199 -156 951 -697 1229 -883 116 -78 668 -516 1091
-868 151 -125 317 -256 370 -291 382 -255 550 -182 631 276 20 114 17 578 -5
697 -54 298 -203 440 -552 526 -187 47 -772 198 -913 236 -171 47 -351 115
-521 197 -291 140 -484 261 -1008 632 -149 105 -275 192 -278 192 -4 0 -4 -75
0 -167z"/>
<path d="M1156 5848 c-80 -87 -166 -212 -201 -293 -64 -143 -81 -311 -45 -449
25 -98 60 -163 122 -224 102 -100 198 -135 368 -136 136 0 237 24 340 81 82
46 197 161 229 230 l24 52 -89 95 c-48 53 -91 96 -94 96 -3 0 -25 -29 -48 -64
-158 -241 -440 -289 -548 -94 -73 132 -9 336 157 509 l65 68 -60 58 c-34 32
-82 78 -107 101 l-46 43 -67 -73z"/>
<path d="M3726 5808 c-4 -40 -9 -93 -12 -118 l-5 -46 247 -279 c298 -338 489
-548 649 -715 171 -178 1092 -1088 1147 -1133 43 -36 53 -39 214 -67 250 -44
374 -92 481 -186 135 -117 151 -297 34 -363 -63 -35 -119 -32 -221 12 -47 20
-89 37 -93 37 -3 0 6 -19 22 -42 45 -69 61 -122 61 -201 0 -83 -26 -147 -73
-181 -42 -31 -120 -27 -187 10 -133 72 -211 251 -280 644 -22 123 -38 187 -55
215 -46 80 -137 181 -597 660 -163 171 -548 582 -855 915 l-558 605 -105 -4
c-58 -2 -124 -6 -147 -10 l-42 -6 75 -115 c41 -63 139 -221 216 -350 205 -340
378 -596 549 -811 37 -47 297 -455 576 -907 l508 -822 195 -242 c235 -292 341
-405 456 -486 173 -123 317 -172 510 -172 170 0 283 35 426 131 193 132 343
367 415 656 25 98 27 125 27 288 0 211 -14 280 -89 433 -37 74 -64 111 -137
188 -79 82 -249 224 -269 224 -4 0 5 -28 19 -62 31 -78 40 -186 20 -244 l-15
-41 39 -32 c78 -65 108 -172 84 -291 -34 -161 -146 -269 -298 -286 l-57 -6 28
-42 c77 -112 63 -222 -40 -324 -175 -173 -488 -194 -734 -50 -80 47 -223 186
-309 300 -31 41 -105 169 -165 284 -142 274 -182 339 -445 722 -428 623 -488
713 -483 718 10 10 98 -95 323 -382 125 -159 262 -332 304 -384 222 -274 305
-410 376 -611 62 -175 89 -224 170 -305 149 -149 355 -244 501 -231 168 16
269 136 282 335 l6 96 63 13 c136 27 221 88 247 177 16 53 19 199 6 278 -5 31
-3 72 7 119 43 214 -70 392 -483 760 -294 261 -525 444 -1180 934 -250 187
-566 436 -755 593 l-325 271 -131 1 -132 0 -6 -72z m1749 -1458 c632 -470 815
-614 988 -780 88 -83 173 -187 163 -197 -7 -7 -996 747 -1276 971 -124 99
-323 292 -410 396 -44 53 -42 52 75 -41 66 -53 273 -210 460 -349z"/>
<path d="M1436 5578 c-84 -95 -119 -166 -124 -258 -4 -67 -2 -78 19 -104 26
-33 91 -65 131 -66 79 0 214 88 268 176 l22 34 -33 38 c-18 20 -76 83 -129
140 l-97 103 -57 -63z"/>
<path d="M3277 5323 l-27 -139 104 -270 c57 -148 193 -498 301 -779 245 -635
285 -730 447 -1040 185 -355 249 -527 251 -675 1 -86 -19 -125 -73 -141 -81
-24 -167 31 -219 141 -25 53 -26 61 -27 260 l-1 205 -85 250 c-89 260 -221
627 -306 850 -121 318 -368 911 -458 1100 l-19 39 -143 29 c-79 16 -146 27
-148 25 -2 -2 50 -136 115 -298 l119 -295 215 -925 c263 -1128 392 -1778 457
-2291 34 -273 46 -334 90 -448 122 -315 403 -466 832 -448 195 8 337 41 485
114 225 110 408 286 499 478 57 123 69 179 68 315 -2 136 -31 250 -94 368 -22
40 -157 236 -301 436 -232 322 -302 429 -612 937 -428 703 -939 1552 -1152
1914 -134 228 -195 317 -280 413 -10 11 -18 -16 -38 -125z"/>
<path d="M6445 5069 c-144 -22 -285 -57 -357 -88 l-47 -20 65 -113 c149 -258
299 -415 484 -508 60 -30 73 -33 160 -33 73 0 108 5 150 22 150 57 231 178
231 342 0 182 -104 324 -283 386 -101 35 -231 39 -403 12z"/>
<path d="M2772 5038 c-16 -24 -61 -94 -101 -155 l-71 -113 60 -1112 c33 -612
60 -1127 60 -1143 0 -28 13 -40 129 -127 l129 -96 6 122 c3 66 8 560 11 1097
l6 976 -96 297 c-53 163 -98 296 -100 296 -2 0 -17 -19 -33 -42z"/>
<path d="M2059 5028 c-17 -30 -17 -129 -1 -388 23 -371 -5 -884 -74 -1360 -48
-332 -143 -770 -249 -1144 -120 -427 -165 -668 -172 -921 -5 -165 -2 -207 16
-314 25 -142 48 -216 98 -316 118 -236 359 -443 618 -532 307 -105 629 -52
937 153 182 121 340 297 397 442 35 88 51 211 51 389 0 273 -41 570 -144 1043
-101 466 -123 573 -161 775 -66 353 -147 698 -253 1080 -5 17 -11 -345 -15
-844 l-7 -874 59 -91 c179 -279 291 -529 343 -770 18 -82 22 -132 22 -271 -1
-192 -16 -271 -78 -402 -120 -252 -363 -454 -646 -536 -62 -18 -101 -22 -225
-22 -138 0 -156 2 -223 27 -195 71 -340 212 -442 431 -59 126 -71 183 -77 355
-6 171 3 261 51 517 l32 170 56 81 c71 104 99 177 105 280 5 67 2 93 -17 149
-27 82 -24 120 26 266 20 59 38 134 41 174 6 64 10 74 49 121 76 88 89 129 89
279 1 119 3 134 23 162 13 18 33 54 45 80 30 67 30 203 0 333 -20 84 -25 166
-48 730 -15 349 -30 638 -33 641 -10 9 -155 114 -169 122 -7 5 -17 -2 -24 -15z"/>
<path d="M2314 4785 c3 -49 22 -238 41 -420 49 -478 57 -594 58 -845 0 -349
-34 -562 -133 -835 -33 -91 -66 -192 -75 -225 -25 -97 -45 -258 -45 -370 l0
-105 236 236 237 237 -63 1133 c-34 624 -63 1139 -65 1146 -4 11 -77 63 -159
113 l-39 24 7 -89z"/>
<path d="M2437 2058 c-259 -258 -319 -333 -393 -493 -64 -138 -85 -245 -91
-450 -9 -349 45 -538 196 -678 112 -103 269 -166 441 -174 120 -6 200 9 304
56 241 109 419 332 472 591 20 101 15 314 -11 429 -94 424 -406 881 -652 955
-18 6 -59 -30 -266 -236z"/>
</g>
</svg>
