<?xml version="1.0" standalone="no"?>
<!DOCTYPE svg PUBLIC "-//W3C//DTD SVG 20010904//EN"
 "http://www.w3.org/TR/2001/REC-SVG-20010904/DTD/svg10.dtd">
<svg version="1.0" xmlns="http://www.w3.org/2000/svg"
 width="1280.000000pt" height="1082.000000pt" viewBox="0 0 1280.000000 1082.000000"
 preserveAspectRatio="xMidYMid meet">
<metadata>
Created by potrace 1.15, written by Peter Selinger 2001-2017
</metadata>
<g transform="translate(0.000000,1082.000000) scale(0.100000,-0.100000)"
fill="#000000" stroke="none">
<path d="M12710 10804 c-133 -34 -212 -58 -315 -96 -60 -22 -136 -44 -169 -49
-85 -14 -117 -34 -255 -159 -279 -250 -553 -446 -711 -508 -90 -35 -178 -52
-306 -59 -203 -10 -389 21 -664 111 -284 94 -258 91 -870 91 -294 0 -556 -4
-582 -8 -28 -5 -71 -24 -105 -47 -42 -27 -69 -38 -95 -38 -26 0 -65 -15 -125
-47 -117 -63 -139 -69 -164 -44 -10 10 -22 19 -25 19 -4 0 -28 -22 -55 -49
-49 -50 -155 -111 -194 -111 -12 0 -47 -15 -78 -34 -135 -81 -452 -337 -535
-432 -105 -120 -327 -454 -352 -529 -40 -125 -234 -542 -314 -679 -84 -142
-159 -217 -270 -271 -163 -79 -373 -115 -549 -96 -112 13 -170 29 -284 82
-120 55 -296 115 -394 134 -45 8 -131 15 -191 15 -183 0 -302 -42 -404 -144
-36 -37 -72 -85 -88 -120 -34 -72 -60 -195 -52 -241 13 -67 120 -175 174 -175
36 0 45 33 37 146 -7 101 -7 103 18 118 18 12 23 23 19 41 -3 20 1 25 24 30
50 11 54 14 64 39 5 15 20 27 37 30 56 13 343 -88 593 -206 69 -33 154 -70
190 -83 36 -12 105 -45 155 -74 102 -59 164 -83 285 -114 72 -19 112 -22 260
-21 162 0 181 2 255 27 46 15 122 53 177 88 54 34 104 59 111 56 17 -6 43
-101 52 -188 4 -47 2 -78 -9 -110 -22 -63 -20 -91 14 -176 40 -99 94 -195 147
-260 70 -86 75 -150 42 -512 l-12 -129 -36 -6 c-20 -3 -70 -6 -111 -6 -112 0
-333 -18 -434 -35 -115 -20 -173 -45 -182 -79 -5 -20 -24 -35 -78 -63 -99 -52
-231 -184 -273 -274 -42 -88 -118 -157 -237 -213 -98 -47 -123 -55 -291 -86
-265 -50 -490 -120 -567 -177 -64 -47 -81 -42 -89 25 -4 29 -15 62 -24 72 -15
16 -15 27 -5 97 16 101 96 426 114 462 8 15 54 76 101 136 146 182 178 271
178 490 0 72 -6 184 -12 250 -25 249 -57 337 -162 444 -76 79 -111 90 -216 69
-165 -33 -248 -96 -318 -243 -69 -144 -90 -242 -105 -481 -11 -173 -20 -225
-57 -302 -36 -77 -157 -256 -191 -282 -31 -26 -29 -26 -328 14 -247 33 -312
47 -426 93 -145 58 -537 256 -604 306 -84 62 -231 150 -415 247 -84 46 -199
112 -254 147 -55 35 -109 66 -120 68 -11 2 -64 11 -118 19 -141 23 -247 61
-366 134 -265 161 -340 184 -591 186 -137 1 -181 -2 -205 -14 -39 -20 -131
-158 -151 -229 -29 -97 -7 -195 63 -288 68 -92 649 -411 858 -472 253 -74 621
-230 820 -348 66 -39 152 -87 190 -106 81 -40 135 -86 135 -114 0 -27 -48 -70
-99 -88 -86 -30 -215 -15 -524 61 -78 19 -171 42 -207 50 -168 41 -343 91
-540 156 -401 131 -716 198 -940 201 -112 1 -130 -1 -172 -22 -62 -30 -144
-120 -181 -199 -36 -76 -34 -115 13 -262 37 -117 59 -155 104 -174 19 -8 37
-24 41 -35 3 -12 16 -23 28 -25 212 -37 333 -78 438 -148 l59 -40 142 -3 c163
-4 220 -16 438 -96 74 -27 261 -83 414 -125 154 -42 331 -94 395 -116 208 -71
406 -165 406 -192 0 -33 -249 -66 -353 -48 -286 52 -722 98 -1292 137 -255 18
-361 19 -413 4 -48 -13 -141 -105 -179 -176 -31 -56 -68 -218 -68 -293 0 -80
74 -160 202 -220 102 -48 164 -58 538 -89 139 -12 261 -36 312 -62 74 -38 156
-50 418 -59 281 -11 301 -13 326 -42 29 -31 9 -46 -116 -88 -63 -21 -173 -59
-245 -85 -170 -61 -292 -92 -409 -104 -156 -16 -239 -68 -292 -183 -25 -55
-28 -75 -28 -158 0 -77 4 -105 23 -147 25 -57 78 -111 138 -141 91 -47 307
-92 439 -92 66 0 76 3 124 36 37 25 60 34 81 32 22 -2 35 3 48 21 15 19 31 24
97 31 43 5 138 22 209 39 265 62 734 90 1201 72 165 -7 457 -14 649 -18 519
-9 580 3 717 139 l81 81 66 -6 c85 -8 130 -24 141 -52 17 -44 189 -140 305
-170 147 -38 332 -42 450 -11 28 7 83 30 123 50 73 38 123 48 174 33 22 -6 33
-2 57 22 16 16 55 38 85 50 56 21 632 121 695 121 29 0 50 -17 168 -132 l134
-133 -7 -885 c-7 -896 -3 -1090 20 -1071 21 18 26 1 26 -90 0 -89 -8 -111 -30
-84 -33 39 -37 11 -49 -290 -12 -314 1 -385 57 -317 15 18 31 32 36 32 4 0 24
-14 44 -31 34 -30 36 -31 49 -13 11 15 13 44 7 140 -8 153 3 221 73 439 30 94
65 217 79 275 24 105 41 141 82 168 20 13 22 13 31 -9 8 -22 10 -19 25 30 32
109 15 314 -34 411 -24 47 -36 56 -55 40 -23 -19 -32 -67 -59 -306 -41 -353
-68 -470 -151 -645 l-35 -74 6 195 c13 500 36 789 74 925 29 105 57 290 71
471 13 171 7 254 -16 254 -33 0 -56 -85 -80 -300 -17 -151 -21 -177 -37 -237
-21 -85 -48 -34 -48 93 0 66 5 97 24 142 26 63 42 132 82 357 31 177 81 350
128 443 36 72 59 98 91 104 39 7 31 87 -11 115 -22 14 -64 18 -253 23 -255 8
-271 12 -309 79 -44 78 -104 89 -320 56 -62 -9 -127 -13 -144 -9 -18 3 -56 29
-85 57 -29 27 -53 46 -53 41 0 -4 12 -43 27 -86 23 -63 26 -79 15 -90 -8 -8
-53 -15 -125 -18 -100 -4 -115 -8 -137 -28 -36 -33 -158 -92 -191 -92 -15 0
-41 11 -57 25 -51 43 -64 99 -69 295 -4 151 -1 200 21 353 63 434 11 695 -176
893 -146 154 -356 253 -536 254 -113 0 -152 62 -97 155 48 82 123 122 257 136
67 7 98 15 121 32 30 21 42 22 187 21 95 0 193 -7 252 -17 121 -21 219 -21
334 -2 155 27 272 71 340 129 22 18 78 61 126 95 54 38 104 83 130 118 65 86
123 143 146 143 28 0 48 36 31 56 -24 29 -59 14 -200 -87 -194 -139 -262 -151
-423 -78 -53 24 -95 46 -95 49 0 3 57 50 125 104 207 164 316 205 564 213 167
6 339 -14 430 -50 68 -27 72 -39 95 -233 36 -309 46 -375 80 -492 19 -68 48
-207 65 -310 71 -427 174 -631 575 -1132 131 -163 293 -393 406 -575 52 -83
109 -244 135 -380 24 -125 24 -295 0 -363 -9 -28 -21 -52 -26 -52 -4 0 -13 30
-19 68 -20 114 -39 170 -66 188 -18 12 -23 22 -19 38 8 32 -61 119 -200 253
-127 124 -164 143 -278 143 -68 0 -98 -12 -98 -40 0 -28 36 -47 104 -53 68 -7
111 -32 205 -121 104 -100 105 -102 109 -434 3 -247 2 -286 -12 -307 -20 -31
-47 -32 -72 -4 -17 19 -20 42 -24 203 -4 159 -6 177 -17 146 -45 -127 -42
-494 3 -527 10 -7 39 -13 64 -13 65 0 78 17 91 126 18 149 54 199 73 101 23
-116 -120 -446 -196 -455 -32 -4 -33 -9 -13 -36 18 -24 11 -59 -32 -161 -38
-89 -153 -306 -183 -345 -24 -31 -32 -23 -58 60 -37 118 -46 181 -46 355 0
187 14 315 48 439 13 44 21 87 19 94 -7 19 -27 14 -50 -11 -45 -48 -63 -146
-82 -447 -6 -80 -15 -158 -21 -174 -10 -28 -11 -28 -31 -10 -30 27 -91 118
-128 191 -107 213 -128 517 -62 907 42 246 40 296 -11 296 -58 0 -73 -121
-102 -835 l-13 -320 111 -109 c61 -60 145 -136 186 -169 85 -67 100 -88 79
-113 -11 -14 -26 -16 -84 -11 -113 8 -136 -23 -65 -86 47 -44 95 -69 183 -97
64 -21 117 -63 117 -93 0 -22 27 28 60 113 19 47 106 229 195 405 165 329 201
417 230 565 19 95 36 130 64 130 43 0 45 -21 22 -182 -36 -242 -82 -375 -274
-788 -196 -425 -212 -472 -227 -709 -16 -239 9 -451 50 -426 35 21 47 213 25
385 -18 145 -15 231 12 355 19 88 47 143 77 155 14 5 33 30 48 62 31 66 55 89
69 67 16 -22 3 -347 -20 -499 -31 -200 -27 -402 10 -491 14 -36 48 -49 127
-49 122 0 132 22 132 285 0 258 18 405 50 405 19 0 79 -239 80 -317 0 -31 -7
-50 -27 -73 l-27 -32 24 -18 c20 -15 22 -23 18 -74 -4 -43 -13 -68 -37 -103
-21 -29 -29 -49 -23 -55 19 -19 333 -27 982 -27 639 -1 896 7 972 29 21 6 58
29 84 51 46 40 64 43 64 10 0 -27 30 -49 85 -61 91 -21 423 -29 1141 -30 l712
0 6 1022 c10 1510 12 9695 3 9751 -5 26 -11 47 -15 46 -4 0 -32 -7 -62 -15z
m-380 -232 c0 -5 -21 -24 -47 -42 -27 -19 -142 -127 -258 -240 -264 -259 -293
-283 -440 -360 -304 -160 -333 -171 -570 -210 -342 -57 -488 -35 -815 123
-192 93 -333 150 -440 177 -130 33 -240 16 -160 -25 17 -9 104 -43 193 -76
183 -69 388 -163 462 -214 28 -19 113 -59 190 -90 77 -31 163 -69 191 -85 151
-85 503 -146 791 -137 202 5 282 23 428 97 119 60 190 112 355 260 222 200
414 345 447 338 15 -3 18 -14 18 -56 -1 -78 -24 -102 -121 -127 -84 -22 -187
-66 -216 -92 -16 -15 -17 -18 -3 -39 23 -36 18 -57 -25 -99 -22 -21 -40 -43
-40 -47 0 -22 68 -2 185 56 146 73 207 89 223 60 17 -33 -3 -62 -50 -74 -63
-16 -92 -28 -203 -83 -176 -87 -295 -176 -282 -211 9 -22 59 -5 122 43 30 23
69 47 87 55 74 31 196 80 250 100 54 19 59 20 74 4 20 -20 32 -158 17 -196 -7
-17 -34 -33 -103 -61 -134 -54 -251 -115 -279 -145 -24 -25 -24 -26 -6 -46 18
-19 65 -28 65 -12 0 21 280 169 299 158 14 -9 19 -68 9 -98 -8 -21 -20 -30
-51 -38 -102 -25 -297 -141 -297 -175 0 -24 32 -18 105 21 46 25 70 33 78 25
7 -7 23 -1 53 21 28 20 56 31 81 32 54 2 63 -24 51 -134 -11 -93 -22 -110 -72
-110 -66 -1 -162 -67 -154 -107 5 -29 45 -27 95 6 65 43 92 40 112 -11 15 -40
-4 -87 -37 -94 -56 -12 -58 -16 -13 -35 52 -23 49 -28 -36 -73 -31 -17 -59
-37 -61 -44 -7 -21 61 -79 108 -93 71 -20 77 -30 40 -72 -38 -44 -92 -63 -236
-82 -129 -17 -426 -20 -509 -4 -177 32 -525 190 -644 291 -130 110 -357 337
-549 548 -253 279 -367 391 -432 428 -30 17 -83 58 -117 91 -41 40 -88 72
-140 97 -43 20 -103 52 -135 71 -99 61 -474 175 -632 192 -160 18 -495 -44
-533 -99 -9 -12 -26 -20 -42 -20 -33 0 -60 -25 -44 -41 8 -8 33 -4 84 11 209
63 266 72 444 73 140 1 188 -3 273 -21 132 -29 186 -50 416 -163 230 -112 334
-187 527 -379 286 -284 444 -512 558 -805 23 -57 41 -114 41 -128 0 -13 13
-48 29 -78 15 -30 31 -74 35 -99 4 -25 29 -110 57 -190 60 -175 89 -275 89
-309 0 -25 13 -48 65 -120 13 -18 27 -50 30 -70 17 -111 153 -454 233 -586 42
-70 132 -167 217 -235 97 -76 195 -140 216 -140 11 0 36 -11 57 -25 63 -41
159 -59 322 -58 115 0 159 4 215 20 83 24 105 18 105 -30 0 -86 -44 -157 -99
-157 -19 0 -44 -12 -70 -34 -43 -36 -55 -40 -166 -56 -98 -14 -152 -12 -220 5
-105 27 -291 152 -506 341 -114 100 -149 141 -167 192 -6 18 -35 68 -63 110
-113 169 -359 721 -380 854 -8 49 -82 259 -191 543 -87 228 -238 533 -289 584
-14 14 -29 39 -33 55 -13 54 -202 232 -355 335 -67 46 -180 101 -206 101 -42
0 -1 -39 121 -113 199 -123 182 -166 -34 -82 -99 38 -132 43 -132 20 0 -8 39
-33 95 -60 88 -42 117 -65 80 -65 -19 0 -129 42 -184 69 -23 12 -59 37 -80 56
-37 34 -71 46 -71 26 0 -18 63 -69 136 -111 40 -23 150 -76 246 -119 201 -90
333 -166 400 -229 51 -48 63 -71 53 -102 -9 -29 -32 -25 -80 18 -86 76 -416
247 -534 276 -73 19 -151 63 -255 146 -94 74 -142 130 -179 210 l-31 65 -9
-40 c-5 -22 -7 -75 -4 -117 3 -67 10 -90 47 -165 42 -85 92 -143 197 -230 l38
-32 -1 -79 c-2 -99 -16 -144 -57 -178 -29 -24 -37 -26 -97 -21 -83 7 -183 40
-233 77 -83 61 -118 140 -143 317 -8 65 -22 156 -30 202 -7 47 -12 86 -10 88
2 2 22 -28 45 -67 58 -97 153 -213 223 -271 83 -69 188 -120 188 -91 0 12 -66
72 -136 125 -123 92 -241 243 -270 344 -8 29 -20 53 -25 53 -16 0 -67 -79 -86
-133 -28 -81 -25 -364 5 -511 60 -286 194 -595 328 -752 148 -175 269 -254
659 -432 313 -142 413 -193 510 -257 102 -67 226 -195 190 -195 -18 0 -72 37
-127 86 -108 96 -202 144 -513 259 -221 82 -400 166 -514 242 -192 128 -349
333 -528 690 -111 222 -161 359 -247 687 -30 115 -59 213 -65 219 -39 39 -129
-182 -168 -413 -22 -128 -21 -416 1 -570 58 -399 59 -413 60 -640 1 -338 -34
-490 -178 -785 -89 -181 -155 -283 -228 -351 -36 -33 -58 -64 -66 -91 -12 -39
-41 -80 -171 -240 -35 -43 -70 -94 -78 -113 -8 -19 -30 -49 -49 -65 -27 -24
-36 -41 -43 -82 -5 -33 -16 -59 -29 -70 -29 -24 -55 -96 -86 -235 -97 -430
-58 -788 120 -1115 116 -214 418 -625 612 -835 215 -233 443 -633 429 -755 -4
-35 -1 -45 17 -56 20 -14 21 -21 20 -198 -2 -188 -16 -284 -42 -284 -7 0 -23
18 -35 40 -16 28 -32 43 -55 50 -39 11 -39 13 -45 165 -4 92 -13 147 -46 275
-23 88 -56 192 -75 230 -82 173 -502 757 -581 809 -15 10 -27 30 -31 53 -5 26
-22 52 -58 87 -72 72 -223 296 -266 396 -49 112 -67 187 -86 350 -20 172 -15
540 10 673 16 89 97 324 153 447 31 68 211 317 328 455 80 94 183 246 191 284
10 47 36 125 70 208 57 142 84 271 84 397 0 196 -33 419 -86 590 -75 239 -113
552 -95 776 21 247 63 493 102 593 10 26 19 50 19 52 0 11 -33 4 -69 -14 -140
-72 -231 -288 -290 -691 l-27 -184 -38 79 c-88 184 -102 244 -115 481 -12 220
-38 265 -91 159 -24 -49 -25 -55 -24 -260 2 -166 6 -228 21 -297 10 -49 18
-88 16 -88 -15 0 -77 165 -138 372 -35 119 -50 127 -45 23 4 -85 107 -379 177
-503 38 -69 50 -75 34 -17 -12 43 -7 61 20 68 22 6 24 37 8 106 -7 31 -7 47 1
55 16 16 43 -23 82 -118 38 -96 77 -143 124 -152 39 -7 84 8 110 37 22 24 50
24 63 1 12 -23 31 -168 31 -241 0 -71 -17 -91 -79 -91 -56 0 -117 28 -254 114
-57 35 -118 71 -137 79 -19 8 -53 34 -75 57 -46 48 -90 74 -111 66 -8 -3 -27
-32 -42 -63 -23 -52 -26 -70 -26 -163 0 -58 5 -141 12 -185 8 -59 8 -120 0
-228 -5 -82 -8 -176 -6 -208 4 -52 9 -64 41 -97 44 -45 67 -97 60 -135 -6 -30
7 -36 28 -10 8 9 28 22 46 30 42 17 129 17 136 0 2 -7 -4 -39 -14 -72 -10 -33
-24 -114 -30 -180 -17 -196 -19 -206 -44 -231 -30 -30 -47 -30 -110 0 -133 61
-184 175 -225 499 -19 148 -40 271 -56 324 -5 18 -3 21 15 16 30 -8 36 28 35
197 0 159 -12 232 -52 318 -24 53 -26 67 -25 187 0 88 7 163 21 232 22 108 55
198 70 189 5 -3 23 -45 41 -93 57 -159 124 -256 166 -239 15 5 12 11 -16 43
-78 89 -133 274 -132 448 0 134 16 199 83 339 28 57 50 114 50 127 -1 22 -3
21 -38 -17 -62 -68 -138 -236 -197 -434 -9 -30 -31 -77 -50 -105 -59 -87 -90
-188 -121 -395 -36 -236 -16 -621 42 -798 52 -161 109 -506 139 -842 22 -260
19 -340 -12 -340 -12 0 -14 9 -10 41 5 38 2 45 -27 73 -34 32 -76 127 -76 171
0 22 3 24 30 19 29 -6 30 -5 30 29 0 20 -20 82 -45 142 -55 128 -71 201 -85
381 -24 322 -40 433 -69 480 -10 15 -11 8 -6 -36 8 -64 40 -227 50 -252 11
-28 -22 -22 -40 6 -9 14 -20 51 -25 83 -19 139 -55 210 -46 93 7 -93 40 -257
111 -550 30 -124 57 -245 60 -270 15 -124 -150 310 -209 550 -45 184 -67 338
-73 513 -3 92 -10 167 -14 167 -12 0 -27 -64 -39 -168 -11 -101 -25 -137 -67
-176 -51 -47 -176 -105 -188 -87 -7 12 23 34 79 61 52 25 136 98 136 119 0 7
-9 15 -20 18 -25 7 -25 24 0 73 32 62 24 65 -40 14 -66 -51 -73 -70 -35 -84
14 -5 25 -15 25 -21 0 -22 -67 -77 -106 -88 -27 -7 -44 -20 -56 -41 -13 -23
-24 -30 -48 -30 -42 0 -38 -15 10 -34 63 -25 105 -20 202 25 87 40 118 44 118
15 0 -61 -312 -201 -475 -213 -166 -13 -419 73 -695 237 -333 197 -537 280
-690 280 -90 0 -129 -13 -217 -73 -103 -71 -132 -108 -143 -187 -10 -69 -20
-81 -62 -73 -20 4 -35 0 -48 -12 -24 -22 -25 -15 -6 76 30 138 120 254 246
315 96 47 157 58 274 51 137 -9 247 -40 526 -152 305 -122 367 -139 495 -139
219 0 460 106 616 270 43 47 61 75 82 136 15 43 59 149 98 235 60 134 150 340
217 497 9 22 45 77 79 124 34 46 68 102 74 125 20 74 56 96 45 27 -11 -70 33
-42 63 40 27 73 120 188 268 330 93 91 137 124 203 160 47 24 99 54 117 66 17
11 118 58 225 104 106 45 257 111 334 146 151 67 284 104 519 146 183 32 463
32 648 -1 194 -34 377 -82 636 -166 291 -95 379 -116 511 -122 127 -6 205 10
325 66 150 70 408 256 637 460 143 127 379 271 444 271 19 0 34 -4 34 -8z
m334 -138 c9 -3 16 -14 16 -25 0 -20 -24 -28 -135 -48 -93 -17 -313 -130 -380
-196 -95 -92 -60 -133 44 -51 75 58 107 73 178 85 60 9 100 24 163 61 63 36
130 16 130 -39 0 -38 -21 -53 -87 -62 -93 -13 -157 -51 -383 -229 -36 -29 -86
-62 -112 -74 -25 -12 -58 -36 -73 -54 -15 -18 -74 -55 -143 -90 -225 -114
-361 -150 -612 -159 -180 -6 -354 8 -403 34 -46 24 -20 34 108 44 140 10 293
45 413 95 192 79 460 234 502 292 14 19 35 33 56 37 26 4 37 14 48 38 33 80
314 284 442 321 82 24 193 34 228 20z m14 -590 c2 -17 -5 -23 -40 -33 -60 -16
-192 -40 -197 -35 -2 2 39 24 90 49 101 49 142 54 147 19z m-3070 -810 c13 -9
34 -33 47 -55 20 -31 34 -41 71 -50 37 -10 48 -18 56 -40 8 -23 16 -29 37 -29
38 0 108 -25 294 -105 182 -78 253 -121 329 -198 86 -88 150 -228 116 -253
-14 -11 -108 -34 -139 -34 -30 0 -98 68 -156 158 -39 59 -71 95 -116 129 -73
54 -187 110 -246 119 -34 5 -57 21 -120 80 -116 109 -221 244 -221 284 0 15
22 12 48 -6z m-758 -301 c25 -77 143 -361 210 -503 96 -202 119 -299 84 -348
-12 -18 -25 -22 -67 -22 -52 0 -137 -30 -137 -48 0 -5 24 -12 53 -15 36 -4 91
-26 182 -72 72 -36 137 -65 146 -65 26 0 122 -54 299 -170 197 -128 277 -173
355 -200 74 -26 103 -45 115 -76 5 -13 17 -24 27 -25 10 0 45 -1 78 -2 53 -2
60 -4 60 -22 0 -17 -7 -20 -45 -20 l-45 0 3 -35 c3 -28 -1 -38 -23 -56 -26
-21 -26 -22 -11 -58 8 -20 41 -78 72 -129 76 -123 90 -156 113 -273 10 -54 22
-112 26 -129 5 -24 0 -19 -25 23 -29 49 -72 83 -86 69 -4 -3 -1 -27 5 -52 8
-33 9 -57 1 -85 -10 -38 -33 -70 -49 -70 -30 0 -220 184 -265 257 -32 52 -84
88 -233 161 -105 51 -123 57 -178 56 -75 -2 -175 -35 -355 -118 -74 -35 -176
-78 -225 -95 -151 -55 -176 -70 -205 -126 -23 -46 -25 -60 -25 -185 0 -143 10
-204 52 -303 27 -65 20 -97 -22 -97 -41 0 -116 134 -136 244 -22 117 18 543
59 626 23 47 45 49 86 6 25 -27 42 -36 65 -36 43 0 101 31 141 76 28 33 32 42
27 80 -5 49 -83 216 -123 263 -29 35 -48 39 -64 14 -8 -13 -10 41 -6 207 5
257 21 363 68 455 21 40 32 79 35 120 4 55 2 64 -27 107 -35 53 -35 57 27 137
18 24 33 50 33 57 0 8 -18 49 -40 92 -90 173 -134 513 -79 613 12 22 14 14 25
-83 7 -59 18 -124 24 -145z m-554 150 c-9 -79 -26 -165 -37 -183 -16 -28 -10
144 7 193 22 66 38 60 30 -10z m2859 -401 c80 -56 166 -134 175 -158 15 -39
368 -200 520 -237 106 -27 197 -37 332 -37 147 0 243 16 350 59 91 37 134 40
143 10 4 -11 7 -58 6 -105 0 -64 -4 -93 -18 -117 -21 -35 -108 -92 -165 -107
-159 -43 -371 -27 -558 43 -108 41 -169 52 -186 35 -13 -12 -11 -17 8 -35 23
-20 142 -76 248 -116 48 -18 76 -21 215 -20 183 0 270 15 363 62 69 35 87 38
96 15 14 -36 -39 -98 -122 -139 -203 -102 -549 -56 -797 106 -86 56 -283 242
-366 347 -32 40 -77 104 -99 142 -22 38 -45 72 -51 75 -6 4 -19 -1 -29 -10
-11 -10 -26 -15 -34 -12 -30 12 -126 191 -126 235 0 20 2 21 23 11 12 -6 45
-27 72 -47z m1511 -26 c7 -19 -13 -56 -31 -56 -18 0 -20 41 -3 58 16 16 27 15
34 -2z m-3141 -47 c58 -16 85 -44 85 -91 0 -101 -126 -230 -205 -210 -11 3
-41 27 -67 53 -49 49 -75 111 -64 154 8 33 46 76 80 91 38 16 117 18 171 3z
m341 -41 c93 -103 152 -341 104 -418 -26 -42 -112 70 -171 223 -38 101 -51
214 -25 232 25 19 51 8 92 -37z m874 -208 c49 -25 77 -64 92 -128 9 -41 9 -54
-2 -67 -18 -22 -48 -15 -175 40 -56 24 -120 47 -142 51 -46 7 -97 -12 -134
-52 -24 -25 -12 -32 23 -13 18 10 17 7 -5 -23 -38 -49 -57 -101 -57 -153 0
-58 23 -72 54 -31 45 59 75 86 98 86 13 0 56 16 97 35 57 25 79 31 93 24 10
-5 43 -40 73 -77 l56 -67 -48 -21 c-68 -30 -85 -54 -94 -129 -13 -101 -57
-170 -124 -192 -31 -10 -35 -23 -24 -98 6 -46 -18 -43 -159 23 -70 33 -167 74
-217 92 -123 45 -186 78 -192 101 -4 15 -14 19 -44 19 -49 0 -50 13 -2 62 20
21 34 40 32 43 -3 2 -32 0 -65 -5 -67 -11 -135 -13 -158 -4 -28 11 -17 34 22
51 49 20 217 12 322 -16 90 -25 153 -27 170 -6 7 8 16 54 21 102 11 107 20
142 54 198 30 53 136 131 209 157 71 24 176 24 226 -2z m542 -37 c25 -32 87
-116 139 -188 169 -234 353 -393 579 -498 140 -66 166 -70 440 -76 l245 -6 -2
-264 c-3 -247 -11 -332 -33 -346 -5 -3 -23 1 -40 10 -19 10 -89 21 -183 30
-174 16 -227 27 -312 65 -135 60 -370 279 -507 471 -87 122 -165 276 -182 359
-10 54 -17 67 -39 78 -15 7 -27 21 -27 32 0 11 -12 50 -26 87 -14 37 -35 95
-47 128 -12 33 -32 76 -45 96 -22 36 -30 79 -13 79 4 0 28 -26 53 -57z m-3328
-296 c76 -79 146 -242 146 -339 0 -98 -47 -139 -89 -79 -59 83 -131 303 -131
401 0 75 16 79 74 17z m454 -515 c4 -25 -50 -59 -171 -106 -177 -70 -231 -111
-225 -170 3 -29 5 -31 44 -30 44 1 118 39 232 119 35 25 74 48 88 51 75 19 72
-86 -9 -328 -68 -204 -128 -328 -188 -390 -66 -69 -101 -63 -194 31 -27 28
-55 51 -62 51 -7 0 -21 -29 -32 -64 -24 -79 -18 -110 37 -175 71 -85 76 -105
33 -153 -29 -32 -30 -32 -49 -14 -27 23 -39 15 -52 -37 -31 -121 -61 -161 -82
-109 -12 29 1 131 69 572 58 379 105 590 143 640 15 20 29 24 119 31 121 9
166 22 206 59 58 53 88 60 93 22z m2512 -59 c11 -34 12 -55 3 -107 -12 -70
-31 -117 -50 -124 -7 -2 -24 8 -38 22 -21 21 -25 34 -25 83 0 147 73 231 110
126z m-2166 -285 c-6 -28 -15 -43 -24 -43 -19 0 -19 95 0 140 l13 30 10 -42
c6 -27 6 -59 1 -85z m-3773 59 c70 -47 131 -189 163 -377 25 -148 38 -300 32
-358 -11 -98 -115 -284 -224 -404 -67 -72 -89 -123 -108 -250 -24 -166 -40
-216 -86 -278 -10 -14 -25 -56 -33 -95 -17 -82 -20 -257 -4 -287 6 -11 32 -29
57 -40 40 -18 44 -22 27 -29 -11 -4 -31 -8 -44 -8 l-25 -1 27 -28 c15 -15 27
-35 27 -44 0 -29 39 -67 73 -70 l32 -3 -44 -23 -43 -24 21 -19 c24 -23 24 -20
11 -54 -13 -35 -4 -48 22 -34 15 8 23 8 32 -1 19 -20 -29 -50 -80 -50 -24 0
-44 -3 -44 -7 0 -5 20 -16 45 -26 25 -11 45 -22 45 -26 0 -4 -21 -13 -47 -20
l-48 -14 35 -7 c44 -8 60 -17 60 -35 0 -21 -32 -34 -101 -42 -62 -6 -62 -6
-40 -24 31 -25 85 -39 126 -32 22 4 35 2 35 -5 0 -21 -42 -33 -148 -42 -109
-9 -142 -16 -142 -30 0 -15 38 -21 84 -15 88 14 117 -23 44 -55 -24 -10 -83
-26 -133 -35 -110 -20 -138 -34 -75 -36 108 -3 123 -30 40 -72 -51 -26 -52
-28 -20 -23 154 22 210 17 181 -18 -23 -28 -124 -67 -200 -78 -67 -9 -94 -8
-174 7 -53 10 -104 15 -114 11 -17 -7 -16 -9 6 -27 13 -10 36 -19 52 -19 32 0
39 -18 12 -26 -74 -22 -136 -73 -173 -143 -18 -36 0 -68 45 -77 29 -5 35 -11
35 -30 0 -27 31 -44 81 -44 37 0 69 -16 69 -35 0 -20 39 -40 52 -27 7 7 3 21
-12 42 -33 46 -22 60 47 60 111 0 179 32 168 80 -5 24 -4 24 9 6 9 -10 20 -43
26 -72 7 -35 19 -59 33 -69 34 -24 47 -19 40 16 -5 26 0 35 32 64 l37 34 -7
73 c-5 55 -2 84 10 118 18 52 51 90 76 90 10 0 60 -27 111 -61 72 -47 99 -59
119 -55 14 3 57 -2 95 -10 102 -21 187 -19 209 6 24 27 10 42 -79 87 -152 76
-249 162 -300 265 -30 60 -32 91 -10 143 8 21 17 60 19 86 5 55 41 202 57 234
23 44 51 65 88 65 89 0 300 -103 397 -193 152 -142 195 -348 163 -772 -5 -71
-14 -227 -20 -345 -13 -280 -24 -320 -68 -246 -19 33 -82 76 -129 91 -43 12
-26 -30 34 -85 52 -47 86 -69 135 -84 19 -6 58 -62 58 -83 0 -23 -28 -14 -97
33 -37 25 -80 52 -95 60 -27 14 -68 19 -68 8 0 -20 28 -49 75 -75 47 -27 53
-33 45 -49 -25 -47 -108 -87 -125 -61 -3 5 -31 19 -63 31 -62 23 -82 41 -82
77 0 32 -42 31 -68 -2 -24 -31 -27 -31 -64 0 -40 34 -91 46 -236 54 -140 8
-145 11 -136 81 15 103 48 163 102 185 20 9 64 33 97 55 73 47 191 89 348 124
137 31 219 57 221 71 3 25 -100 36 -284 32 -215 -5 -243 -12 -402 -94 -127
-66 -214 -133 -245 -189 -14 -26 -50 -61 -97 -95 -70 -50 -93 -75 -82 -86 10
-11 81 22 152 69 83 56 106 55 76 -2 -36 -69 -199 -149 -344 -170 -87 -13
-118 -24 -118 -45 0 -8 12 -18 26 -21 52 -13 128 4 223 50 103 50 141 58 141
27 0 -26 -61 -77 -101 -86 -18 -4 -46 -22 -63 -40 -49 -50 -167 -79 -328 -80
-114 0 -129 2 -155 21 -25 19 -28 27 -25 67 4 54 -10 67 -102 91 -80 20 -85
28 -42 62 41 33 49 59 14 49 -41 -13 -118 -58 -118 -70 0 -6 16 -26 35 -45 19
-19 35 -39 35 -46 0 -24 -80 -83 -132 -98 -123 -35 -276 -28 -361 15 -22 12
-50 19 -63 16 -13 -2 -36 4 -51 14 -40 26 -65 24 -98 -11 -34 -35 -46 -37 -70
-10 -21 24 -37 25 -73 6 -46 -24 -170 -36 -489 -46 -226 -7 -309 -7 -319 1 -8
6 -14 24 -14 40 0 57 -44 28 -78 -52 -23 -53 -45 -66 -78 -45 -40 27 -67 118
-68 232 -1 103 11 141 40 130 42 -16 114 106 114 194 0 46 4 60 23 77 51 47
111 58 122 23 9 -29 40 -43 54 -26 8 10 9 26 2 57 -15 68 -11 70 163 67 131
-3 154 -1 176 15 19 13 45 17 111 17 104 0 119 5 119 35 0 66 53 125 113 125
38 0 77 21 77 42 0 5 -11 13 -25 18 -29 11 -31 19 -11 45 13 19 15 19 33 3 30
-27 82 -45 175 -62 104 -18 199 -55 293 -113 98 -61 154 -78 255 -78 93 1 155
15 191 44 35 28 12 47 -66 56 -68 7 -187 58 -270 115 -63 43 -185 100 -215
100 -15 0 -37 10 -50 22 -23 21 -34 23 -130 22 -157 -1 -280 -45 -288 -104 -2
-14 -7 -28 -10 -32 -7 -7 -173 -22 -583 -52 -183 -14 -231 -24 -226 -49 2 -14
-44 -21 -79 -13 -13 4 -24 13 -24 21 0 20 52 51 98 60 113 21 220 129 150 151
-13 4 -81 10 -153 13 -121 6 -126 7 -70 15 167 21 212 27 234 32 l25 5 -25 13
c-13 7 -23 19 -21 29 4 25 -46 45 -166 67 -140 26 -179 25 -223 -3 -39 -23
-109 -83 -109 -92 0 -3 30 -5 66 -5 36 0 74 -5 85 -10 25 -14 25 -47 -1 -55
-11 -3 -20 -10 -20 -15 0 -12 19 -17 130 -35 52 -9 110 -21 129 -27 32 -10 33
-12 16 -24 -25 -18 -89 -17 -144 2 -43 15 -186 22 -198 10 -3 -3 1 -14 11 -25
15 -17 15 -19 1 -25 -9 -3 -42 -6 -73 -6 -63 0 -87 -10 -87 -37 0 -25 -46 -28
-235 -13 -154 12 -190 20 -190 42 0 19 32 48 54 48 40 1 -6 17 -84 30 -95 15
-122 29 -60 30 66 2 115 21 115 45 0 13 -12 26 -35 37 -39 18 -33 23 38 31 49
6 72 21 72 49 0 31 19 58 41 58 11 0 22 7 26 15 8 23 -26 55 -59 55 -35 0 -36
13 -3 28 50 23 26 69 -55 106 l-45 21 80 3 c84 3 277 -13 357 -30 26 -5 73
-26 103 -46 l56 -37 -32 -6 c-17 -4 -38 -14 -46 -22 -14 -14 -11 -17 28 -28
49 -14 392 -19 405 -6 4 4 2 13 -4 19 -7 7 -12 16 -12 20 0 19 101 42 315 72
l97 13 -7 -88 c-3 -49 -4 -89 -1 -89 7 0 61 171 79 250 24 103 29 180 16 235
-22 98 -22 151 1 220 24 72 22 95 -10 95 -83 0 -100 -103 -51 -305 26 -106 19
-115 -69 -85 -81 27 -420 173 -485 208 -27 15 -50 32 -50 37 0 6 25 12 55 15
30 3 50 8 44 12 -12 8 -149 32 -241 43 -59 6 -69 -5 -25 -29 33 -18 19 -19
-67 -5 -99 16 -100 17 -68 44 15 13 27 27 27 30 0 14 -46 2 -72 -20 -45 -38
-120 -29 -243 30 -38 18 -99 41 -133 50 -77 19 -102 34 -102 58 0 20 -37 37
-81 37 -37 0 -36 5 2 37 25 22 28 28 17 39 -20 21 -109 34 -258 40 -107 4
-131 3 -115 -7 58 -34 49 -69 -17 -69 -76 0 -304 93 -478 195 -112 65 -118 75
-126 176 -8 103 3 133 83 220 60 64 121 99 174 99 48 0 293 -45 386 -70 90
-25 133 -46 133 -65 0 -20 32 -35 75 -35 35 0 179 -43 200 -60 25 -20 125 -40
204 -40 154 0 302 -46 328 -101 15 -31 48 -45 123 -53 70 -7 121 -22 145 -41
18 -14 13 -15 -55 -8 -176 18 -217 2 -111 -44 33 -14 58 -30 55 -34 -3 -5 -24
-9 -47 -9 -39 -1 -41 -2 -23 -15 28 -21 200 -69 288 -81 63 -9 63 6 -2 48 -27
18 -50 37 -50 42 0 5 17 6 38 3 96 -15 138 -17 152 -7 13 9 12 12 -5 26 -11 8
-33 18 -48 21 -69 14 12 23 218 23 125 0 237 5 259 11 49 14 116 82 153 156
59 123 31 296 -35 207 l-19 -27 -51 17 c-63 21 -206 106 -250 148 -17 18 -32
42 -32 53 0 46 -66 76 -193 90 -63 6 -69 9 -78 35 -13 36 -47 50 -122 50 -35
0 -104 11 -156 25 -137 37 -453 144 -476 161 -20 15 -20 16 8 40 35 30 52 30
158 -1 46 -13 100 -25 119 -25 31 0 33 1 18 16 -9 9 -51 29 -94 45 -44 16 -65
27 -49 25 144 -22 201 -14 234 33 25 35 25 37 5 45 -27 10 -65 -5 -74 -30 -11
-27 -32 -31 -50 -9 -10 13 -10 19 4 34 17 19 17 20 -6 34 -24 16 -317 107
-343 107 -12 0 -13 -4 -6 -19 12 -22 79 -51 119 -51 39 0 11 -16 -56 -31 -28
-7 -52 -16 -52 -21 0 -4 31 -8 69 -8 87 0 131 -9 131 -26 0 -17 -32 -34 -63
-34 -14 0 -85 15 -158 34 -82 21 -155 34 -189 34 -44 -1 -68 5 -120 32 -91 46
-197 117 -249 167 l-44 42 7 58 c14 120 124 284 180 269 11 -4 59 -11 106 -16
135 -16 149 -20 169 -41 13 -14 38 -23 78 -28 71 -9 98 -23 118 -61 16 -32 89
-90 111 -90 7 0 16 -5 20 -12 12 -18 -104 -3 -159 22 -52 23 -73 20 -57 -10 9
-17 63 -39 133 -54 15 -4 123 -13 240 -21 239 -16 336 -36 463 -95 94 -43 158
-97 174 -146 14 -43 40 -57 88 -48 36 6 37 6 15 -11 -42 -30 -23 -75 32 -75
29 0 147 -53 227 -102 43 -27 54 -21 40 21 -8 23 -8 31 1 31 7 0 84 -46 172
-103 202 -130 218 -149 225 -280 4 -76 8 -92 22 -95 30 -6 40 31 28 104 -11
67 -7 104 11 104 16 0 49 -20 104 -61 61 -46 96 -60 117 -48 12 7 25 2 47 -17
40 -34 96 -50 223 -65 57 -6 107 -15 111 -19 4 -4 -32 -22 -80 -40 -159 -59
-273 -124 -273 -156 0 -27 48 -14 168 46 65 33 131 60 145 60 14 0 52 -7 84
-15 35 -9 75 -13 104 -9 41 5 48 3 63 -17 24 -35 19 -77 -18 -152 -20 -39 -32
-75 -29 -87 8 -30 59 -69 82 -63 26 7 106 93 127 136 15 32 15 35 -10 86 -15
28 -24 56 -22 60 3 5 30 11 60 13 72 6 190 64 255 126 46 43 56 61 112 207 69
177 64 139 59 450 -2 111 2 144 24 230 79 306 270 494 407 402z m5489 -55 c6
-20 22 -102 37 -182 25 -134 27 -165 27 -415 0 -348 -37 -804 -73 -898 -10
-26 -41 -39 -41 -17 0 12 -50 35 -104 47 -59 12 -66 33 -29 85 56 79 65 146
93 758 24 535 40 684 70 665 5 -3 14 -22 20 -43z m372 -199 c14 -75 10 -576
-7 -773 -32 -365 -32 -395 5 -367 65 49 151 274 170 443 8 75 20 97 46 87 25
-10 34 -106 34 -381 -1 -335 -9 -397 -74 -528 -71 -142 -150 -200 -183 -134
-18 35 -16 85 7 171 23 88 25 138 6 145 -35 13 -131 -69 -193 -165 -70 -107
-114 -236 -132 -388 -6 -46 -18 -97 -26 -113 -20 -39 -67 -68 -125 -76 -50 -7
-80 -20 -96 -42 -8 -11 -33 -15 -92 -16 -61 -1 -85 -5 -98 -18 -21 -20 -13
-33 36 -58 70 -36 182 -61 297 -67 101 -5 115 -4 152 16 23 11 53 21 66 21 14
0 72 -25 129 -55 130 -68 224 -95 331 -95 101 0 169 19 266 76 42 24 79 44 82
44 42 0 -87 -134 -257 -266 -135 -106 -279 -201 -383 -255 -119 -61 -144 -90
-119 -138 17 -33 107 -75 195 -91 84 -16 311 -12 399 6 303 62 725 336 892
579 51 74 97 184 116 275 13 67 16 116 11 245 -6 168 -22 275 -83 542 -36 160
-43 233 -21 233 23 0 71 -39 165 -132 135 -135 137 -141 136 -373 -2 -353 -60
-610 -215 -960 -89 -198 -147 -292 -239 -389 -193 -201 -523 -411 -793 -505
-169 -59 -463 -97 -554 -72 -78 21 -91 40 -135 206 -63 239 -159 479 -279 699
-165 302 -270 436 -507 649 -54 48 -57 82 -7 103 19 7 54 14 77 14 105 0 297
66 424 146 98 61 206 177 234 252 12 31 34 77 50 102 78 121 90 197 130 792
26 389 60 587 111 652 27 34 38 25 51 -41z m1666 -99 c4 -29 -23 -51 -43 -34
-16 13 -20 42 -8 54 14 14 48 1 51 -20z m-2761 -69 c56 -22 60 -41 66 -250 7
-256 48 -434 157 -680 28 -62 50 -120 50 -128 0 -41 -125 -140 -170 -135 -34
4 -60 58 -60 124 0 55 10 70 49 76 57 8 53 58 -30 388 -90 363 -123 434 -214
476 -30 14 -67 26 -82 27 -32 2 -40 -20 -42 -123 -1 -70 -17 -113 -43 -118
-11 -2 -18 7 -22 32 -12 63 -91 99 -130 60 -41 -40 -9 -155 108 -390 101 -203
177 -330 285 -483 45 -63 81 -120 81 -127 0 -20 -17 -26 -39 -15 -38 21 -149
173 -200 275 -61 121 -92 157 -121 138 -45 -28 -111 0 -149 62 -34 54 -36 95
-11 154 16 37 21 63 17 88 -9 53 -85 200 -117 228 -34 28 -102 40 -149 26 -40
-11 -51 -24 -51 -63 0 -68 -38 -86 -83 -39 -31 33 -36 90 -13 147 22 51 57 69
143 71 67 2 82 7 149 45 42 24 103 66 136 92 75 61 108 67 303 62 102 -2 151
-8 182 -20z m-2113 -189 c8 -14 26 -26 38 -28 45 -6 49 -34 45 -303 -2 -137
-7 -258 -12 -268 -7 -17 -10 -16 -36 9 -16 15 -31 25 -34 22 -3 -3 6 -41 20
-84 30 -96 31 -107 4 -144 -15 -19 -24 -51 -29 -103 -8 -79 -14 -97 -34 -97
-35 0 -40 48 -44 428 -4 342 4 524 24 576 9 24 40 19 58 -8z m3865 10 c45 -25
177 -165 201 -213 17 -35 25 -70 28 -129 7 -137 -2 -135 -106 25 -105 160
-162 268 -162 305 0 29 5 31 39 12z m-1423 -141 c14 -57 -41 -154 -66 -115
-10 16 -44 155 -55 225 l-7 40 61 -61 c33 -33 63 -74 67 -89z m-1598 42 c4
-20 -50 -77 -72 -77 -28 0 -19 46 15 75 34 28 52 28 57 2z m-1162 -52 c7 -30
-2 -59 -16 -50 -13 8 -13 75 0 75 5 0 12 -11 16 -25z m4175 -114 c91 -123 172
-256 194 -319 9 -26 32 -86 50 -134 51 -130 68 -237 63 -398 -3 -127 -5 -139
-35 -203 -88 -187 -283 -406 -433 -486 -79 -43 -221 -81 -321 -88 -83 -6 -87
-5 -99 17 -10 18 -17 21 -46 15 -46 -8 -92 15 -148 75 -57 61 -96 139 -103
204 -10 104 67 375 129 450 44 54 57 34 28 -44 -45 -120 -7 -257 103 -376 210
-227 494 -156 671 167 77 142 114 357 95 560 -20 215 -78 386 -185 547 -35 52
-64 99 -64 103 0 29 36 -3 101 -90z m-3158 38 c12 -7 47 -35 77 -64 30 -28 72
-57 92 -64 30 -10 39 -19 50 -54 8 -26 22 -46 38 -54 16 -8 28 -27 37 -56 23
-78 182 -305 302 -429 91 -96 117 -89 65 18 -20 42 -25 62 -20 89 12 63 70 58
72 -6 0 -47 16 -72 106 -168 43 -46 78 -90 78 -96 0 -16 -32 -25 -95 -25 l-50
-1 61 -58 c70 -67 114 -85 242 -102 135 -18 253 -8 339 28 93 39 264 143 348
210 108 86 140 85 141 -3 0 -41 9 -79 28 -123 15 -34 26 -73 24 -84 -4 -31
-34 -34 -42 -4 -7 28 -26 39 -45 27 -7 -4 -17 -29 -22 -56 -12 -63 -41 -94
-90 -94 -31 0 -43 7 -72 40 -19 22 -37 40 -40 40 -4 0 -7 -18 -7 -39 0 -22 -6
-43 -12 -48 -7 -4 -94 -8 -194 -8 -209 0 -220 -4 -210 -67 l6 -38 -56 6 -56 7
-63 -66 -63 -66 -99 107 c-130 140 -198 221 -298 357 -107 143 -155 223 -155
258 0 15 -5 27 -13 27 -22 0 -72 60 -132 158 -31 51 -69 102 -85 114 -16 12
-32 35 -36 52 -8 41 -33 80 -126 204 -74 98 -86 120 -71 135 9 10 21 9 46 -4z
m1375 -93 c6 -108 -62 -268 -130 -305 -24 -14 -28 -14 -49 4 -28 25 -76 130
-85 184 -5 33 -4 41 9 41 8 0 51 26 94 58 100 74 114 82 138 79 17 -2 20 -11
23 -61z m582 -132 c0 -79 -10 -92 -35 -44 -19 37 -19 80 1 108 24 35 34 17 34
-64z m-2060 -24 c38 -41 57 -102 75 -240 8 -63 23 -144 33 -180 63 -211 197
-483 320 -645 84 -111 306 -319 663 -622 163 -138 382 -357 485 -483 88 -108
242 -337 291 -432 74 -144 111 -296 133 -538 19 -224 9 -370 -30 -400 -16 -12
-19 -26 -17 -80 1 -57 -3 -75 -32 -134 -18 -38 -66 -112 -106 -165 -71 -93
-118 -146 -364 -413 -275 -298 -381 -492 -381 -694 0 -96 17 -169 70 -309 46
-121 59 -188 39 -200 -28 -18 -111 122 -145 246 -14 48 -18 100 -18 204 0 191
21 275 137 555 19 47 38 102 42 123 7 35 6 37 -17 37 -35 0 -61 -31 -52 -64 7
-30 -9 -56 -37 -56 -40 0 -7 87 70 184 51 65 74 105 84 147 4 15 22 38 41 52
54 42 107 174 164 412 71 291 94 504 69 625 -8 41 -13 89 -10 106 4 24 -1 37
-24 60 -20 20 -35 50 -47 97 -36 146 -137 298 -316 477 -157 158 -310 277
-590 462 -80 53 -174 121 -209 152 -36 31 -128 102 -205 158 -177 128 -299
248 -344 340 -42 86 -71 201 -79 308 -7 100 4 99 47 -4 116 -275 534 -693
1055 -1056 377 -262 579 -478 715 -763 81 -169 102 -256 107 -437 4 -126 1
-176 -16 -265 -35 -195 -92 -429 -113 -470 -12 -22 -63 -95 -114 -162 -127
-166 -165 -243 -142 -287 21 -41 48 -47 48 -12 0 29 47 120 122 236 101 156
171 315 222 510 39 147 55 260 65 451 9 171 20 224 44 216 8 -2 15 -73 22
-234 6 -127 13 -235 17 -239 4 -4 13 6 20 22 8 20 12 101 11 272 0 133 3 242
7 242 4 0 13 -12 20 -27 10 -21 15 -94 17 -278 4 -262 8 -315 24 -315 49 0 59
450 14 625 -24 90 -106 257 -121 242 -2 -2 3 -35 11 -73 18 -84 18 -87 4 -78
-22 13 -69 99 -69 125 0 34 -17 46 -37 26 -13 -13 -12 -23 10 -93 34 -107 42
-160 26 -170 -20 -12 -55 42 -105 161 -26 61 -57 131 -70 157 -30 59 -131 181
-312 374 -124 134 -153 159 -251 219 -147 91 -394 269 -528 379 -128 107 -355
331 -440 436 -97 121 -173 237 -229 355 -63 130 -84 205 -84 296 0 80 39 241
78 319 24 48 31 55 60 58 32 3 33 5 31 40 -4 67 1 83 30 113 39 38 75 38 111
-1z m3265 -88 c39 -132 68 -308 69 -412 0 -115 -8 -147 -86 -325 -57 -129 -87
-170 -124 -170 -19 0 -45 -12 -71 -33 -55 -43 -120 -72 -165 -72 -28 0 -38 4
-38 16 0 9 38 55 85 104 50 52 85 97 85 109 0 12 11 26 29 35 29 16 41 40 41
88 0 15 13 68 30 117 16 49 34 129 40 177 16 140 21 163 36 178 18 19 21 53
11 168 -5 53 -5 102 -1 109 12 19 40 -24 59 -89z m-1257 -50 c9 -6 6 -14 -13
-32 -14 -13 -37 -43 -51 -67 -41 -70 -84 -51 -84 36 0 30 6 44 22 55 24 17
104 21 126 8z m-6165 -77 c26 -11 20 -40 -14 -69 -54 -46 -74 -44 -122 8 -24
25 -49 46 -55 46 -18 0 -14 18 6 24 22 7 162 0 185 -9z m4330 -3 c22 -24 69
-129 127 -282 61 -162 102 -243 134 -264 15 -10 26 -26 26 -39 0 -53 130 -217
329 -415 214 -213 396 -366 640 -538 110 -77 209 -164 413 -363 171 -166 258
-268 258 -302 0 -10 12 -26 26 -35 44 -29 163 -300 215 -490 19 -69 21 -95 16
-233 -9 -270 -49 -380 -222 -601 -117 -150 -156 -190 -185 -190 -32 0 -26 44
9 70 52 36 97 194 127 443 46 386 -64 826 -274 1091 -35 44 -74 101 -87 126
-45 88 -390 444 -606 625 -225 189 -592 531 -661 617 -26 32 -64 89 -84 126
-21 37 -57 96 -81 132 -62 95 -127 284 -153 447 -14 85 -1 113 33 75z m269
-334 c199 -264 466 -560 571 -632 75 -52 144 -64 233 -43 95 23 119 22 167
-12 70 -48 215 -204 237 -254 12 -26 27 -50 35 -55 24 -13 130 -156 211 -285
121 -190 182 -332 148 -344 -6 -2 -51 36 -100 84 -117 116 -295 268 -467 401
-265 204 -383 300 -512 419 -164 150 -339 334 -418 438 -70 93 -227 405 -203
405 3 0 47 -55 98 -122z m564 49 c45 -39 9 -66 -37 -29 -14 12 -20 25 -16 35
9 23 21 21 53 -6z m280 4 c42 -26 81 -88 67 -110 -24 -38 -172 -77 -189 -49
-22 36 6 142 44 163 35 19 41 18 78 -4z m-8601 -351 c4 -6 -13 -10 -45 -10
-32 0 -49 4 -45 10 3 6 24 10 45 10 21 0 42 -4 45 -10z m-243 -711 c80 -16
107 -28 110 -52 4 -30 75 -54 188 -65 87 -9 123 -22 106 -39 -4 -5 -64 -9
-133 -10 -70 -2 -128 -4 -129 -6 -2 -2 19 -9 46 -16 58 -15 71 -28 44 -48 -14
-10 -34 -13 -71 -8 -60 7 -64 1 -39 -60 19 -44 61 -65 133 -65 84 0 98 -16 21
-23 -75 -8 -127 -21 -153 -41 -32 -23 -7 -36 86 -44 l84 -7 -105 -23 c-208
-44 -276 -39 -425 33 -131 63 -153 114 -121 275 36 176 70 210 213 210 51 0
116 -5 145 -11z m543 -144 c23 -22 33 -45 20 -45 -13 0 -85 51 -85 60 0 19 41
10 65 -15z m7182 -79 c104 -50 182 -102 233 -155 25 -26 91 -81 146 -123 226
-171 664 -608 664 -663 0 -17 -39 -30 -129 -44 -133 -21 -247 -88 -239 -142 5
-37 57 -42 276 -27 172 12 192 12 196 -2 22 -78 28 -194 23 -477 -5 -301 -16
-427 -41 -488 -7 -17 -75 -109 -150 -205 -286 -366 -363 -448 -467 -501 -71
-36 -103 -37 -124 -5 -21 31 -35 162 -35 321 0 105 4 138 19 170 22 48 107
130 156 151 19 8 35 21 35 29 0 7 22 42 49 78 95 124 130 226 138 401 7 143
-7 232 -47 301 -55 94 -72 137 -82 208 -7 54 -16 79 -37 102 -15 17 -61 101
-103 186 -76 154 -138 258 -187 314 -14 17 -60 80 -102 140 -42 61 -102 141
-132 179 -31 38 -69 98 -86 132 -17 34 -44 72 -61 84 -19 14 -30 30 -30 46 0
34 30 32 117 -10z m-7212 -16 c13 -6 -13 -9 -75 -9 -65 -1 -90 2 -80 9 18 12
127 12 155 0z m11486 -371 c29 -177 -40 -364 -375 -1024 -183 -361 -219 -440
-231 -505 -3 -19 -23 -69 -45 -110 -22 -41 -62 -118 -89 -170 -27 -52 -58
-103 -69 -113 -31 -29 -56 -18 -63 27 -4 26 -16 46 -37 62 -17 14 -36 40 -42
59 -35 107 -415 357 -635 417 -67 18 -107 22 -247 22 l-167 0 0 261 c0 168 -4
278 -12 308 -9 37 -9 50 1 62 19 23 48 18 135 -24 103 -51 240 -91 335 -98 60
-4 96 0 180 20 178 43 419 127 526 182 128 66 325 199 384 259 24 25 52 46 62
46 22 0 165 134 223 210 23 30 55 80 70 110 15 30 34 63 43 73 24 27 41 3 53
-74z m-7994 43 c26 -16 45 -112 23 -112 -5 0 -10 5 -10 10 0 6 -11 22 -25 35
-23 24 -30 25 -151 25 -70 0 -124 3 -120 7 23 24 256 52 283 35z m-2759 -66
c7 -7 10 -20 6 -29 -12 -32 -84 -13 -84 23 0 31 47 35 78 6z m812 -4 c0 -5
-15 -26 -34 -48 -29 -34 -35 -37 -50 -25 -26 22 -19 50 17 66 36 16 67 19 67
7z m1691 -22 c5 0 9 -4 9 -10 0 -5 -20 -10 -45 -10 -25 0 -45 4 -45 9 0 11 38
20 58 15 8 -2 18 -4 23 -4z m-26 -60 c92 -1 97 -14 13 -38 -40 -12 -89 -23
-108 -24 -32 -3 -35 -1 -32 21 1 13 -5 32 -13 41 -14 16 -12 16 32 9 27 -4 75
-8 108 -9z m7639 -132 c20 -31 31 -78 18 -78 -11 0 -72 78 -72 92 0 17 40 7
54 -14z m-10149 -178 c3 -5 1 -27 -4 -48 -6 -21 -15 -84 -19 -140 -6 -67 -15
-110 -26 -127 -11 -17 -50 -42 -104 -66 -48 -22 -95 -48 -105 -56 -16 -16 -16
-17 5 -40 21 -22 21 -23 2 -23 -25 0 -44 -18 -44 -42 0 -24 35 -23 105 3 62
23 71 46 30 73 -36 23 -31 35 10 26 47 -11 65 -27 65 -60 0 -34 -24 -56 -83
-76 -52 -18 -67 -32 -71 -69 -2 -14 -7 -29 -10 -33 -4 -4 -95 -8 -202 -10
-188 -3 -196 -2 -247 21 -144 67 -228 213 -186 323 5 16 30 49 54 75 24 26 47
59 51 73 16 67 125 62 190 -9 28 -30 34 -33 72 -28 31 4 42 2 42 -7 0 -26 33
-50 67 -50 18 0 33 -4 33 -9 0 -5 -20 -27 -45 -49 -25 -22 -45 -42 -45 -45 0
-9 344 84 369 100 l23 15 -28 30 -29 29 34 28 c24 20 32 33 28 45 -6 15 -14
17 -48 11 l-40 -7 26 26 c17 17 25 35 23 54 -1 15 2 33 6 40 16 26 89 42 101
22z m132 -56 c4 -12 -64 -94 -78 -94 -5 0 -9 18 -9 39 0 30 6 44 23 56 24 17
58 17 64 -1z m6483 -843 c11 -39 14 -190 4 -215 -8 -20 -20 -20 -28 -1 -10 27
-28 244 -22 261 9 24 33 0 46 -45z m4143 17 c14 -58 18 -604 8 -1093 -15 -710
-23 -815 -62 -815 -5 0 -9 8 -9 17 0 13 -8 9 -31 -15 -37 -38 -104 -65 -150
-60 l-34 3 2 100 c4 153 25 322 157 1275 45 322 84 573 91 598 7 20 22 14 28
-10z m-3723 -320 c0 -25 -59 -115 -95 -146 -61 -54 -98 -36 -99 48 -1 57 19
84 72 98 55 15 122 14 122 0z m1820 -498 c0 -19 -56 -73 -104 -100 -34 -20
-65 -30 -93 -30 -37 0 -50 -7 -103 -54 -34 -30 -75 -58 -93 -62 -53 -11 -99
-39 -169 -103 -36 -34 -71 -61 -76 -61 -6 0 -5 19 3 51 18 66 9 69 -92 29 -85
-32 -117 -57 -111 -87 5 -26 36 -28 69 -4 38 28 41 27 34 -12 -6 -29 -2 -37
25 -60 58 -50 171 -69 280 -47 25 4 47 6 49 4 6 -6 -139 -71 -176 -79 l-33 -7
0 -78 c0 -95 -8 -104 -85 -98 -75 6 -102 29 -150 123 -34 67 -40 87 -40 142 0
62 0 63 -17 42 -24 -29 -45 -18 -58 32 -17 61 -5 104 42 155 73 79 220 135
498 189 157 31 226 52 316 100 61 33 84 37 84 15z m540 -63 c0 -27 -17 -47
-41 -47 -10 0 -42 -28 -71 -62 -92 -107 -145 -156 -200 -184 -156 -78 -291
-215 -233 -238 39 -15 -3 -69 -88 -113 -56 -28 -201 -62 -266 -63 l-43 0 32
30 c41 38 35 56 -19 53 -22 -1 -41 2 -41 6 0 21 37 34 117 42 47 5 88 11 91
14 2 2 -8 15 -23 28 -17 14 -25 29 -21 36 4 6 62 39 129 73 250 125 407 260
407 350 0 35 7 35 32 3 27 -35 49 -31 104 18 93 82 134 99 134 54z m-4132
-292 c0 -38 -4 -81 -8 -95 -5 -15 -8 21 -8 95 0 74 3 110 8 95 4 -14 8 -56 8
-95z m2132 79 c0 -3 -13 -36 -30 -74 -84 -191 -102 -568 -36 -744 26 -69 71
-146 92 -159 35 -20 4 -87 -40 -87 -37 0 -57 23 -67 75 -5 27 -20 65 -33 85
-37 54 -46 103 -46 255 0 264 54 544 121 629 19 24 39 34 39 20z m-1764 -40
c8 -20 18 -73 21 -119 6 -80 5 -84 -20 -109 -43 -43 -67 -18 -67 70 0 74 28
194 46 194 3 0 12 -16 20 -36z m1165 -1 c29 -75 -37 -522 -89 -601 -12 -19
-14 -45 -8 -145 3 -67 9 -198 13 -291 6 -157 5 -170 -12 -182 -11 -8 -32 -14
-47 -14 -25 0 -32 7 -51 48 -30 67 -36 286 -11 489 10 85 18 228 19 338 1 173
3 194 23 231 26 51 119 154 138 154 8 0 19 -12 25 -27z m1069 -238 c33 -40 0
-175 -44 -183 -17 -4 -18 1 -12 39 4 24 9 64 12 89 9 75 18 86 44 55z m-80
-325 c0 -27 -4 -50 -10 -50 -11 0 -14 83 -3 93 12 12 13 8 13 -43z m1457 -28
c45 -20 102 -36 150 -42 84 -11 116 -32 106 -70 -13 -51 -164 -140 -243 -143
-54 -2 -90 35 -90 91 0 70 -28 131 -52 116 -4 -3 -8 -24 -8 -47 0 -55 -17 -77
-80 -107 -57 -27 -70 -21 -70 33 0 20 -8 32 -30 45 l-30 19 25 23 c13 13 22
27 19 32 -10 16 -65 -26 -107 -82 l-42 -55 -3 37 c-6 76 43 135 143 171 38 13
72 17 145 14 81 -3 106 -8 167 -35z m-1522 -59 c52 -54 47 -69 -11 -32 -36 22
-58 52 -47 63 12 11 22 6 58 -31z m530 25 c30 -14 41 -48 25 -78 -14 -26 -31
-22 -47 11 -12 23 -18 79 -8 79 2 0 16 -5 30 -12z m109 -104 c9 -24 7 -102 -3
-108 -23 -14 -56 57 -45 98 7 29 38 36 48 10z m-545 -56 c-1 -53 -33 -142 -52
-146 -13 -3 -17 4 -17 30 0 61 36 148 60 148 6 0 10 -15 9 -32z m325 -30 c20
-29 20 -57 1 -65 -21 -7 -55 25 -55 52 0 41 30 48 54 13z m-2875 -163 c-1 -96
-18 -170 -39 -170 -22 0 -19 142 4 219 23 76 36 58 35 -49z m2415 46 c8 -12
-34 -48 -77 -66 -35 -14 -38 -14 -44 1 -14 38 100 99 121 65z m671 -21 c26
-28 32 -115 11 -164 -9 -21 -21 -36 -28 -34 -23 7 -50 78 -52 132 -2 78 31
108 69 66z m346 10 c29 -16 23 -38 -12 -45 -23 -5 -36 -3 -48 10 -15 15 -15
17 3 31 24 17 31 17 57 4z m331 -67 c22 -20 23 -39 2 -47 -22 -8 -62 3 -68 20
-15 40 31 59 66 27z m290 -18 c43 -36 91 -59 178 -85 41 -12 84 -30 95 -41 19
-18 19 -19 -9 -48 -35 -37 -98 -65 -128 -58 -28 8 -188 219 -188 250 0 14 23
7 52 -18z m-1553 -50 c45 -58 31 -125 -26 -125 -16 0 -29 -10 -41 -30 -21 -38
-49 -46 -93 -27 -60 25 -99 65 -99 102 0 45 19 58 72 50 38 -6 48 -3 83 24 49
37 77 39 104 6z m1391 -16 c0 -27 -62 -89 -89 -89 -32 0 -26 37 13 76 39 39
76 45 76 13z m-956 -5 c10 -26 7 -82 -5 -89 -11 -7 -54 28 -70 57 -6 11 -4 21
7 32 20 21 60 21 68 0z m566 -36 c24 -40 25 -48 4 -48 -12 0 -44 54 -44 75 0
16 23 1 40 -27z m523 -50 c41 -55 60 -99 48 -111 -13 -13 -148 16 -177 38 -16
11 -17 15 -4 31 18 21 90 74 101 74 4 0 19 -15 32 -32z m-1330 0 c15 -23 1
-48 -27 -48 -33 0 -46 38 -20 57 21 15 34 13 47 -9z m147 -38 c26 -26 25 -38
-4 -46 -31 -7 -66 11 -66 35 0 37 38 43 70 11z"/>
<path d="M9400 9682 c0 -14 71 -36 210 -66 135 -28 265 -77 312 -117 l33 -28
-27 -1 c-14 0 -66 14 -115 31 -262 93 -423 120 -423 73 0 -24 43 -42 128 -54
46 -6 159 -36 252 -65 93 -30 189 -58 212 -61 l43 -7 -28 23 c-24 19 -28 28
-23 54 5 27 1 37 -26 63 -42 41 -158 95 -273 128 -98 29 -275 46 -275 27z"/>
<path d="M8897 9592 c-34 -37 -46 -170 -14 -160 7 3 24 27 39 54 19 33 28 42
28 28 0 -35 -29 -120 -55 -158 -31 -46 -31 -50 1 -114 29 -58 50 -66 60 -24 3
15 7 34 9 42 14 58 25 264 15 299 -14 52 -52 68 -83 33z"/>
<path d="M8265 9551 c-72 -42 -170 -126 -247 -213 -38 -41 -68 -78 -68 -82 0
-3 19 7 42 24 39 28 68 38 68 23 0 -3 -21 -42 -46 -85 -26 -43 -44 -81 -42
-84 8 -7 186 156 258 237 82 91 150 180 150 197 0 22 -63 13 -115 -17z m-5
-71 c0 -24 -146 -160 -171 -160 -13 0 7 35 45 84 47 59 126 107 126 76z"/>
<path d="M9040 9472 c0 -53 4 -81 10 -77 13 8 13 125 0 145 -7 10 -10 -11 -10
-68z"/>
<path d="M9220 9465 c0 -59 219 -550 237 -531 14 14 -103 328 -177 476 -41 82
-60 99 -60 55z"/>
<path d="M10640 9362 c0 -32 138 -111 310 -177 120 -47 381 -87 555 -87 241 1
425 61 425 140 0 29 -3 28 -155 -13 -91 -26 -116 -28 -275 -29 -125 0 -201 4
-265 16 -112 21 -346 91 -440 131 -38 16 -89 32 -112 34 -38 4 -43 3 -43 -15z"/>
<path d="M8224 9278 c-21 -29 -62 -79 -92 -110 -41 -44 -50 -58 -36 -58 35 0
184 173 184 215 0 18 -23 -2 -56 -47z"/>
<path d="M9033 9180 c-25 -39 -27 -48 -13 -70 8 -13 11 -13 25 1 11 11 15 30
13 60 l-3 44 -22 -35z"/>
<path d="M8506 9118 c-41 -65 -95 -301 -102 -453 -5 -93 -4 -99 11 -80 22 28
40 94 75 282 16 89 35 174 40 188 22 58 4 106 -24 63z"/>
<path d="M8632 9117 c-27 -29 -57 -116 -77 -221 -14 -75 -38 -336 -32 -342 1
-1 24 88 50 199 26 111 58 236 72 277 15 41 27 81 28 89 3 23 -18 23 -41 -2z"/>
<path d="M11917 8990 c-178 -50 -243 -56 -381 -36 -140 21 -276 31 -310 22
-37 -9 -32 -34 12 -53 50 -22 377 -30 534 -14 221 23 328 55 328 98 0 31 -16
30 -183 -17z"/>
<path d="M7316 8949 c-33 -38 -56 -88 -56 -120 0 -37 24 -15 58 54 42 83 40
117 -2 66z"/>
<path d="M12037 8859 c-141 -53 -230 -62 -512 -55 -245 6 -249 6 -226 -12 64
-50 218 -77 396 -69 253 12 424 67 437 141 5 28 -9 27 -95 -5z"/>
<path d="M7199 8644 c-41 -106 -79 -218 -79 -234 0 -71 62 59 84 175 15 85 14
106 -5 59z"/>
<path d="M11354 8605 c-13 -53 9 -65 192 -108 162 -38 176 -40 344 -40 148 -1
189 3 264 21 103 26 145 48 153 80 9 38 -9 46 -63 25 -43 -15 -83 -18 -334
-17 -300 0 -410 10 -489 45 -56 24 -59 24 -67 -6z"/>
<path d="M12215 8430 c-33 -11 -97 -24 -142 -29 -88 -11 -152 -37 -178 -73
-14 -21 -14 -24 1 -35 28 -21 155 -36 249 -30 106 7 173 28 206 64 l24 26 -35
-6 c-19 -3 -55 -8 -80 -12 l-45 -6 48 42 c49 43 58 63 31 73 -9 3 -16 6 -17 5
-1 0 -29 -9 -62 -19z"/>
<path d="M6619 7662 c-49 -32 -75 -59 -65 -69 9 -9 65 19 104 52 60 50 33 62
-39 17z"/>
<path d="M7260 7205 c0 -64 75 -321 105 -361 14 -18 14 -18 15 2 0 43 -86 336
-110 374 -7 12 -10 8 -10 -15z"/>
<path d="M8917 7453 c-26 -25 35 -96 92 -107 17 -3 46 -9 64 -12 23 -5 53 -28
104 -81 63 -66 76 -75 98 -69 24 6 25 5 15 -14 -16 -30 -42 -25 -117 27 -114
77 -176 98 -224 73 -13 -7 -19 -21 -19 -43 0 -59 83 -207 115 -207 11 0 13 -8
9 -28 -4 -22 2 -38 28 -73 46 -60 89 -74 188 -60 192 28 278 136 201 252 -31
45 -43 54 -311 226 -186 119 -223 137 -243 116z m483 -318 c19 -23 -1 -70 -31
-70 -30 0 -36 27 -15 60 19 29 29 31 46 10z"/>
<path d="M10145 6520 c-9 -14 59 -85 73 -76 15 9 -1 43 -32 68 -24 20 -32 22
-41 8z"/>
<path d="M11742 8023 c4 -26 139 -89 238 -112 181 -43 435 -52 544 -21 43 13
86 53 86 81 0 25 -33 25 -174 -2 -151 -29 -258 -22 -481 31 -193 45 -218 48
-213 23z"/>
<path d="M10574 7696 c-9 -24 0 -58 19 -70 14 -9 21 -7 32 8 12 16 12 23 -1
47 -16 31 -41 38 -50 15z"/>
<path d="M11745 7499 c-23 -36 50 -118 165 -185 117 -69 268 -123 430 -156
155 -31 178 -29 217 14 17 19 17 20 0 33 -10 7 -57 18 -105 24 -167 21 -228
34 -312 63 -112 40 -248 110 -302 157 -55 49 -85 64 -93 50z"/>
<path d="M11664 7395 c-27 -69 226 -293 452 -400 94 -45 224 -74 325 -75 115
0 149 38 53 61 -22 4 -54 9 -73 9 -92 0 -282 71 -418 156 -43 26 -118 87 -168
134 -135 129 -160 146 -171 115z"/>
<path d="M1410 6592 l-65 -15 35 -9 c19 -5 78 -25 130 -45 191 -71 202 -74
248 -71 59 4 63 20 12 43 -40 18 -40 19 -19 30 21 12 21 12 -12 32 -88 54
-203 66 -329 35z"/>
<path d="M2225 6284 c11 -8 49 -31 85 -50 36 -19 79 -45 95 -59 29 -23 29 -24
7 -25 -12 0 -49 11 -82 25 -90 38 -181 30 -196 -18 -10 -30 20 -51 146 -97
129 -48 190 -76 190 -89 0 -14 -89 9 -190 49 -108 43 -131 49 -137 35 -7 -20
58 -75 88 -75 16 0 76 -18 134 -40 58 -22 116 -40 130 -40 40 0 59 39 53 113
-5 68 -2 87 15 87 7 0 18 4 26 9 23 14 -12 61 -45 61 -23 0 -25 -3 -19 -29 7
-33 -8 -49 -30 -31 -7 6 -17 26 -20 43 -12 59 -16 67 -44 81 -44 23 -230 68
-206 50z m77 -131 c39 -36 9 -62 -46 -39 -37 15 -50 31 -41 46 10 16 67 12 87
-7z m148 -73 c21 -11 41 -24 45 -30 11 -18 -36 -11 -76 12 -68 38 -40 54 31
18z"/>
<path d="M4685 6153 c-5 -66 -13 -99 -31 -130 -13 -23 -24 -57 -24 -75 0 -57
91 -175 146 -192 28 -9 54 17 54 52 0 34 38 115 88 189 52 76 74 121 67 133
-17 27 -48 -2 -55 -52 l-6 -43 -25 49 -26 49 -6 -40 c-6 -33 -14 -45 -41 -61
-21 -13 -45 -40 -60 -69 l-24 -48 5 115 c5 103 3 121 -15 163 -12 26 -25 47
-30 47 -5 0 -13 -39 -17 -87z"/>
<path d="M2433 5854 c-36 -15 10 -64 59 -64 15 0 30 5 34 11 15 24 -60 67 -93
53z"/>
<path d="M2956 5724 c-10 -25 -7 -122 4 -129 11 -7 36 30 45 68 5 18 2 35 -9
52 -19 29 -31 32 -40 9z"/>
<path d="M925 5555 c-3 -8 -7 -22 -9 -29 -3 -8 -22 -18 -43 -21 -63 -11 -67
-13 -52 -31 17 -21 60 -42 154 -76 61 -21 70 -27 40 -23 -22 3 -77 8 -122 11
-88 7 -105 -1 -59 -31 35 -23 77 -33 211 -50 66 -9 138 -23 161 -31 23 -9 54
-14 70 -12 25 4 27 5 9 12 -11 4 -31 12 -44 17 l-24 10 24 26 24 26 -70 -7
-70 -6 92 38 c51 20 93 39 93 42 0 6 -106 52 -159 69 -19 6 -50 11 -70 12 -20
0 -45 4 -56 8 -18 7 -18 9 8 26 15 9 27 21 27 26 0 5 -29 9 -65 9 -50 0 -67
-4 -70 -15z"/>
<path d="M2910 5493 c-83 -177 -115 -394 -91 -616 24 -216 76 -327 222 -476
140 -142 259 -227 503 -360 94 -51 187 -106 208 -123 31 -24 39 -27 44 -14 8
22 -13 47 -102 122 -143 121 -214 195 -214 226 0 15 -18 72 -39 125 -21 54
-42 118 -46 143 -7 47 -29 90 -45 90 -15 0 -12 -119 5 -184 9 -32 26 -72 40
-88 29 -34 45 -86 45 -145 0 -38 -3 -43 -23 -43 -61 0 -410 349 -476 476 -43
83 -55 172 -55 424 -1 224 1 240 27 343 15 60 27 113 27 118 0 19 -17 8 -30
-18z"/>
<path d="M3478 5448 c-49 -13 -90 -60 -79 -91 15 -41 48 -33 108 27 71 71 63
89 -29 64z"/>
<path d="M753 5284 c-45 -20 17 -40 175 -59 67 -8 131 -19 142 -25 11 -6 42
-10 68 -8 39 3 47 6 47 23 0 24 -16 28 -220 50 -82 10 -161 19 -175 21 -14 2
-31 1 -37 -2z"/>
<path d="M3790 5244 c-173 -162 -255 -461 -205 -750 25 -139 58 -199 137 -250
23 -14 44 -40 56 -66 40 -92 198 -246 224 -220 21 21 -14 73 -142 208 -199
208 -227 280 -217 542 8 207 35 290 147 457 63 94 72 112 60 120 -5 3 -32 -15
-60 -41z"/>
<path d="M1790 5103 c0 -5 15 -17 33 -28 l32 -20 -50 -11 c-58 -13 -51 -17 60
-38 147 -27 231 -31 260 -12 36 23 32 54 -7 71 -56 23 -328 55 -328 38z"/>
<path d="M1695 4955 c113 -37 227 -67 282 -75 69 -9 128 1 137 25 8 23 -26 35
-101 35 -37 0 -129 7 -203 15 -159 17 -168 17 -115 0z"/>
<path d="M5506 3855 c-19 -20 -20 -34 -2 -57 16 -22 32 -23 40 -2 18 46 -9 87
-38 59z"/>
<path d="M4466 3551 c-4 -6 -1 -13 6 -15 59 -16 74 -25 86 -49 10 -20 20 -27
35 -25 34 5 29 48 -8 69 -39 23 -110 35 -119 20z"/>
<path d="M3610 3477 c0 -7 10 -24 22 -37 l22 -23 9 21 c7 15 6 26 -3 37 -15
18 -50 20 -50 2z"/>
<path d="M3610 3375 c-18 -22 -8 -50 19 -50 32 0 49 28 32 49 -17 20 -35 20
-51 1z"/>
<path d="M3681 3274 c-17 -14 -31 -34 -31 -45 0 -23 1 -23 43 -5 48 20 71 45
56 62 -17 20 -33 17 -68 -12z"/>
<path d="M5327 3243 c-11 -10 20 -58 62 -96 70 -63 98 -42 37 29 -36 41 -89
78 -99 67z"/>
<path d="M3728 3190 c-68 -36 -65 -63 4 -32 52 23 81 52 52 52 -11 -1 -36 -10
-56 -20z"/>
<path d="M5213 3184 c-4 -11 1 -22 13 -30 35 -24 44 -35 44 -49 0 -21 -13 -19
-83 16 -105 53 -236 50 -273 -7 -9 -13 -14 -29 -12 -35 2 -7 14 4 27 24 12 20
29 37 36 37 7 0 23 -16 35 -35 12 -19 26 -35 31 -35 4 0 18 14 31 30 12 17 28
30 36 30 8 0 37 -20 63 -45 55 -51 76 -55 134 -22 54 31 55 50 5 98 -43 41
-76 50 -87 23z"/>
<path d="M5386 3063 c-3 -3 -6 -24 -6 -46 0 -37 2 -39 25 -34 18 3 36 -4 62
-24 36 -29 63 -37 63 -19 0 29 -128 139 -144 123z"/>
<path d="M1996 2972 c-28 -54 -15 -100 18 -66 17 17 21 61 7 83 -7 11 -13 7
-25 -17z"/>
<path d="M9272 5978 c3 -7 13 -37 23 -66 21 -58 68 -122 91 -122 42 0 14 70
-61 158 -35 40 -62 56 -53 30z"/>
<path d="M7633 6173 c-10 -36 -10 -187 0 -236 15 -73 27 -25 27 113 0 134 -11
182 -27 123z"/>
<path d="M8153 5835 c-27 -99 8 -307 94 -558 48 -141 75 -200 122 -265 59 -80
60 -26 2 108 -68 157 -82 192 -106 276 -14 48 -32 143 -41 212 -19 154 -31
214 -49 238 -13 18 -14 17 -22 -11z"/>
<path d="M8056 5704 c-23 -61 13 -310 69 -479 41 -124 147 -304 285 -485 73
-96 150 -165 150 -135 0 18 -47 91 -96 151 -191 233 -314 514 -354 809 -19
136 -37 183 -54 139z"/>
<path d="M8440 4926 c0 -8 22 -41 48 -73 94 -112 202 -197 243 -191 21 3 19 6
-17 30 -23 14 -79 68 -127 120 -90 98 -147 142 -147 114z"/>
<path d="M10307 3364 c-13 -13 -7 -44 14 -86 12 -23 28 -76 35 -117 20 -108
29 -525 14 -626 -18 -121 -24 -225 -12 -225 29 0 53 82 78 258 31 226 18 442
-39 638 -36 123 -68 179 -90 158z"/>
<path d="M9395 2789 c-61 -54 -41 -118 23 -73 27 19 55 71 48 90 -9 22 -32 16
-71 -17z"/>
<path d="M7175 6496 c-27 -27 -32 -50 -13 -62 13 -8 58 39 58 61 0 26 -20 26
-45 1z"/>
<path d="M6565 5183 c-56 -13 -219 -82 -212 -90 6 -5 318 54 361 69 22 7 41
19 44 26 5 17 -114 14 -193 -5z"/>
<path d="M7302 4998 c-28 -28 -8 -81 38 -97 39 -13 80 1 80 28 0 18 -52 71
-70 71 -5 0 -14 2 -22 5 -7 3 -19 0 -26 -7z"/>
<path d="M6485 4688 c7 -39 -12 -97 -51 -159 -38 -61 -3 -31 53 45 47 63 54
103 25 129 -27 25 -34 21 -27 -15z"/>
<path d="M6620 4468 c-26 -84 -42 -119 -81 -168 -36 -46 -45 -78 -25 -86 42
-16 109 30 122 83 4 15 20 56 36 90 l29 62 -20 46 c-11 25 -24 45 -29 45 -6 0
-20 -33 -32 -72z"/>
<path d="M7231 4181 c-13 -24 -14 -61 -2 -80 7 -11 13 -7 26 18 18 35 17 72
-2 78 -6 2 -16 -5 -22 -16z"/>
<path d="M7144 4135 c-27 -37 -56 -105 -45 -105 22 0 74 90 69 118 -3 13 -8
10 -24 -13z"/>
<path d="M7063 3969 c-7 -8 -26 -46 -42 -84 l-31 -70 30 34 c36 42 62 96 58
118 -3 14 -5 14 -15 2z"/>
<path d="M6850 3833 c-29 -37 -23 -75 14 -88 24 -8 31 -6 47 14 13 16 17 31
13 50 -14 57 -41 66 -74 24z"/>
<path d="M7250 3794 c-6 -14 -10 -39 -10 -55 0 -27 3 -30 26 -27 33 4 44 31
32 76 -10 39 -35 42 -48 6z"/>
<path d="M6375 3790 c-6 -20 19 -80 35 -80 14 0 23 46 16 75 -8 30 -42 34 -51
5z"/>
<path d="M6267 3713 c-6 -34 8 -73 27 -73 24 0 27 17 10 59 -19 48 -30 52 -37
14z"/>
<path d="M6004 3585 c-4 -8 -4 -25 -1 -37 8 -29 -22 -92 -69 -146 l-37 -43 44
3 c39 3 44 0 47 -19 6 -43 19 -23 36 55 26 124 30 170 16 187 -16 19 -29 19
-36 0z"/>
<path d="M6672 3370 c-27 -29 -28 -50 -3 -50 28 0 46 26 34 52 l-9 21 -22 -23z"/>
<path d="M6130 3298 c0 -57 -18 -118 -34 -118 -19 0 -34 21 -38 54 -5 44 -28
46 -28 2 0 -47 34 -85 82 -93 56 -9 72 9 64 72 -13 111 -46 170 -46 83z"/>
<path d="M7508 2714 c-12 -19 -38 -136 -38 -175 0 -50 29 -144 41 -132 5 5 8
75 7 164 -2 85 -6 149 -10 143z"/>
<path d="M7872 2683 c-39 -15 -75 -156 -92 -353 -6 -68 -14 -128 -19 -133 -5
-5 -17 5 -27 22 -10 17 -22 31 -27 31 -17 0 3 -65 25 -83 57 -47 87 14 99 201
10 163 16 200 35 230 20 31 32 20 39 -36 11 -94 27 -196 32 -209 17 -44 97 29
158 144 22 42 52 86 68 97 27 20 29 20 60 3 17 -10 48 -40 67 -67 39 -55 46
-59 55 -30 15 46 -40 147 -95 175 -41 21 -54 19 -132 -17 -57 -26 -67 -34 -62
-50 6 -20 -41 -128 -56 -128 -5 0 -20 37 -34 83 -14 45 -35 92 -46 105 -21 23
-26 24 -48 15z"/>
<path d="M8126 2328 c-20 -28 -21 -58 -2 -58 18 0 58 49 53 64 -7 20 -35 17
-51 -6z"/>
<path d="M7680 995 c0 -39 -34 -254 -39 -248 -4 4 -20 49 -36 98 l-30 90 -3
-58 c-5 -100 60 -260 178 -438 33 -50 61 -98 62 -108 1 -9 2 -71 2 -138 1
-107 4 -125 22 -149 11 -16 32 -32 45 -35 39 -11 229 -10 229 1 0 6 -7 52 -15
103 -19 121 -35 357 -35 535 0 135 -10 182 -24 108 -7 -38 -29 -61 -49 -53 -8
3 -20 27 -27 54 -27 98 -71 153 -124 153 -31 0 -24 -21 35 -110 75 -113 102
-178 128 -306 55 -273 37 -328 -75 -222 -42 39 -67 76 -99 143 -53 109 -78
210 -106 415 -12 85 -25 159 -30 165 -6 6 -9 6 -9 0z"/>
<path d="M7533 484 c9 -145 47 -277 91 -313 27 -23 32 16 7 59 -16 29 -26 74
-36 164 -14 126 -28 176 -54 184 -12 4 -13 -12 -8 -94z"/>
<path d="M7352 412 c-43 -195 -51 -285 -31 -357 10 -36 12 -38 20 -18 8 23 43
462 37 469 -2 2 -14 -40 -26 -94z"/>
<path d="M7596 51 c-31 -32 -35 -39 -21 -45 47 -18 85 7 85 55 0 40 -18 37
-64 -10z"/>
</g>
</svg>
