<?xml version="1.0" standalone="no"?>
<!DOCTYPE svg PUBLIC "-//W3C//DTD SVG 20010904//EN"
 "http://www.w3.org/TR/2001/REC-SVG-20010904/DTD/svg10.dtd">
<svg version="1.0" xmlns="http://www.w3.org/2000/svg"
 width="878.000000pt" height="1280.000000pt" viewBox="0 0 878.000000 1280.000000"
 preserveAspectRatio="xMidYMid meet">
<metadata>
Created by potrace 1.15, written by Peter Selinger 2001-2017
</metadata>
<g transform="translate(0.000000,1280.000000) scale(0.100000,-0.100000)"
fill="#000000" stroke="none">
<path d="M3088 12790 c-57 -17 -111 -60 -75 -60 27 0 151 47 155 58 4 14 -38
15 -80 2z"/>
<path d="M3504 12712 c4 -6 26 -16 49 -23 23 -6 74 -26 114 -45 40 -19 76 -34
79 -34 19 0 -38 46 -89 72 -61 30 -166 51 -153 30z"/>
<path d="M2890 12550 c0 -5 7 -10 15 -10 8 0 15 5 15 10 0 6 -7 10 -15 10 -8
0 -15 -4 -15 -10z"/>
<path d="M2709 12521 c-80 -53 -116 -100 -185 -239 -29 -60 -40 -181 -16 -189
6 -3 12 3 12 13 0 65 66 242 110 294 l21 25 -8 -30 c-11 -43 -10 -99 2 -103 6
-2 13 14 17 36 12 73 60 147 121 187 15 9 27 21 27 26 0 19 -59 7 -101 -20z"/>
<path d="M3805 12508 c16 -76 62 -108 51 -36 -8 47 -21 68 -43 68 -11 0 -13
-8 -8 -32z"/>
<path d="M2970 12521 c0 -14 50 -43 68 -39 13 3 8 10 -18 26 -38 24 -50 27
-50 13z"/>
<path d="M3116 12332 c-3 -6 12 -24 34 -42 26 -20 43 -44 50 -68 5 -21 17 -46
25 -57 15 -19 16 -18 11 18 -4 20 -9 53 -12 73 -6 36 -6 37 22 30 16 -4 55
-25 86 -46 57 -40 78 -48 78 -31 0 16 -61 58 -130 90 -71 33 -153 50 -164 33z"/>
<path d="M3064 12298 l-19 -23 23 19 c21 18 27 26 19 26 -2 0 -12 -10 -23 -22z"/>
<path d="M3854 12305 c-8 -19 3 -65 15 -65 10 0 18 38 13 63 -4 21 -21 22 -28
2z"/>
<path d="M4370 12274 c-135 -16 -439 -165 -549 -268 -66 -62 -155 -211 -149
-249 3 -17 10 -9 35 38 82 159 164 230 398 345 182 89 204 95 385 95 90 0 188
-6 233 -14 42 -8 81 -11 85 -7 10 10 -25 34 -68 47 -37 10 -310 20 -370 13z"/>
<path d="M2992 12208 c-26 -32 -40 -159 -14 -134 7 7 32 138 27 144 -1 1 -7
-3 -13 -10z"/>
<path d="M4890 12185 c7 -8 53 -36 103 -62 79 -42 116 -71 187 -147 8 -9 30
-28 48 -43 43 -33 83 -93 138 -203 42 -86 64 -111 64 -73 0 36 -92 200 -147
264 -68 77 -150 152 -216 198 -89 61 -210 106 -177 66z"/>
<path d="M2641 12161 c-1 -27 2 -32 11 -23 8 8 8 17 0 34 -10 22 -11 21 -11
-11z"/>
<path d="M3815 12150 c-17 -33 -20 -60 -5 -60 11 0 40 53 40 75 0 25 -18 17
-35 -15z"/>
<path d="M2494 12008 c9 -57 26 -73 26 -26 0 43 -8 68 -22 68 -7 0 -8 -16 -4
-42z"/>
<path d="M2670 12031 c0 -6 5 -13 10 -16 6 -3 10 1 10 9 0 9 -4 16 -10 16 -5
0 -10 -4 -10 -9z"/>
<path d="M5406 12033 c-13 -13 -5 -22 29 -33 67 -22 194 -188 289 -377 50
-101 73 -128 63 -72 -9 47 -99 231 -148 304 -56 83 -210 201 -233 178z"/>
<path d="M3673 11957 c-63 -65 -89 -104 -78 -115 6 -7 126 116 145 150 6 9 6
19 1 22 -4 3 -35 -23 -68 -57z"/>
<path d="M3210 11946 c0 -9 5 -16 10 -16 6 0 10 4 10 9 0 6 -4 13 -10 16 -5 3
-10 -1 -10 -9z"/>
<path d="M2837 11883 c-25 -24 22 -176 58 -189 29 -11 28 4 -4 65 -17 33 -31
70 -31 83 0 27 -14 51 -23 41z"/>
<path d="M4855 11881 c-4 -7 31 -28 89 -55 109 -51 168 -101 257 -220 70 -92
118 -182 127 -239 4 -22 14 -43 21 -45 25 -8 5 92 -37 181 -47 101 -119 189
-220 269 -101 81 -220 135 -237 109z"/>
<path d="M2544 11773 c4 -14 30 -75 57 -135 34 -74 56 -142 70 -211 20 -101
79 -235 107 -245 23 -7 12 32 -29 100 -49 80 -65 158 -33 158 11 0 68 -45 128
-100 112 -104 176 -152 126 -94 -14 16 -78 84 -142 151 -65 67 -118 128 -118
134 0 6 -11 24 -25 40 -13 16 -49 74 -80 129 -57 102 -72 120 -61 73z"/>
<path d="M3260 11776 c-13 -34 -14 -304 -1 -290 14 13 33 296 21 308 -6 6 -13
-1 -20 -18z"/>
<path d="M3495 11743 c-53 -66 -88 -130 -77 -137 4 -2 19 12 32 32 13 20 36
53 51 72 45 61 62 90 50 90 -6 0 -31 -26 -56 -57z"/>
<path d="M3142 11715 c-18 -8 -50 -28 -70 -45 -42 -34 -52 -36 -92 -15 -29 15
-45 9 -31 -13 3 -6 24 -18 44 -27 43 -18 57 -13 117 42 22 19 51 38 66 42 32
8 45 31 17 31 -10 -1 -33 -7 -51 -15z"/>
<path d="M3753 11713 c-32 -12 -6 -22 75 -28 108 -8 224 -35 288 -68 27 -14
86 -60 131 -103 75 -73 187 -153 198 -142 7 7 -235 221 -296 261 -61 41 -135
63 -259 77 -92 11 -118 11 -137 3z"/>
<path d="M2475 11677 c-44 -44 -58 -100 -59 -227 -1 -99 10 -150 33 -150 4 0
7 60 7 133 -1 150 15 215 59 235 28 13 34 42 9 42 -9 0 -31 -15 -49 -33z"/>
<path d="M2712 11658 c-15 -18 -26 -68 -15 -68 15 0 46 61 36 71 -6 6 -14 5
-21 -3z"/>
<path d="M4890 11516 c0 -8 14 -44 31 -80 61 -131 47 -229 -41 -273 -74 -38
-139 -30 -307 38 -18 7 -36 10 -40 5 -15 -14 39 -46 123 -72 143 -45 270 -23
321 55 46 68 25 217 -42 305 -29 38 -45 46 -45 22z"/>
<path d="M3526 11508 c-3 -7 -8 -35 -11 -63 -9 -67 -51 -197 -87 -270 -49
-100 -169 -209 -330 -299 -47 -26 -62 -46 -34 -46 8 0 49 18 92 41 44 23 100
52 127 66 48 24 123 113 180 213 53 92 107 346 78 364 -6 4 -13 1 -15 -6z"/>
<path d="M3799 11496 c-73 -15 -133 -55 -168 -112 -55 -86 -102 -277 -66 -266
6 2 15 32 22 68 25 134 120 256 210 270 112 17 226 -14 273 -73 19 -24 21 -36
16 -90 -5 -65 0 -75 26 -45 38 43 30 111 -22 174 -53 64 -183 97 -291 74z"/>
<path d="M5675 11468 c4 -18 22 -81 41 -139 38 -119 40 -139 19 -199 -8 -23
-15 -51 -15 -62 0 -17 2 -19 16 -7 37 31 44 64 41 208 l-2 141 -28 9 c-18 7
-33 23 -42 46 -19 45 -39 47 -30 3z"/>
<path d="M5526 11259 c-3 -17 -6 -49 -6 -70 0 -47 -15 -87 -43 -118 -30 -32
-131 -79 -186 -86 -72 -9 -91 -15 -91 -25 0 -17 94 -11 161 10 81 25 153 70
179 112 15 24 20 51 20 98 0 101 -20 147 -34 79z"/>
<path d="M2450 11236 c0 -31 62 -211 105 -301 18 -38 47 -83 64 -100 27 -25
41 -30 100 -33 93 -6 176 22 125 42 -9 3 -57 6 -108 6 l-93 0 -48 98 c-26 53
-58 133 -72 177 -38 122 -44 135 -59 135 -8 0 -14 -10 -14 -24z"/>
<path d="M2760 11139 c0 -17 20 -49 30 -49 14 0 12 34 -2 48 -15 15 -28 15
-28 1z"/>
<path d="M2800 11045 c0 -8 13 -29 28 -46 25 -28 34 -32 83 -32 62 0 111 19
88 34 -8 5 -37 9 -64 9 -37 0 -60 7 -87 25 -43 29 -48 30 -48 10z"/>
<path d="M4095 11040 c-185 -14 -405 -77 -405 -116 0 -12 6 -15 23 -10 263 76
395 96 639 96 195 0 301 -12 427 -47 78 -21 95 -23 102 -12 5 8 7 19 6 24 -4
14 -92 42 -169 55 -87 14 -477 21 -623 10z"/>
<path d="M5544 11039 c-10 -17 13 -36 27 -22 12 12 4 33 -11 33 -5 0 -12 -5
-16 -11z"/>
<path d="M3593 10911 c-106 -100 -180 -148 -208 -138 -8 4 -19 24 -25 46 -6
22 -17 47 -26 56 -34 33 -104 7 -104 -40 0 -10 10 -38 21 -63 12 -25 18 -47
13 -52 -5 -5 -31 -14 -59 -21 -27 -6 -56 -13 -63 -15 -7 -2 -10 -9 -6 -15 12
-20 119 -4 167 24 23 14 72 35 107 47 95 32 137 56 186 107 53 56 120 151 112
159 -4 3 -55 -40 -115 -95z m-275 -83 c14 -14 16 -54 3 -62 -23 -14 -80 42
-66 64 9 14 49 12 63 -2z"/>
<path d="M4912 10943 c2 -10 25 -34 52 -53 96 -69 200 -156 227 -190 32 -39
45 -87 30 -109 -8 -12 -22 -3 -73 44 -35 32 -69 68 -76 81 -15 29 -32 31 -32
5 0 -25 152 -186 234 -247 33 -26 106 -68 161 -94 118 -57 179 -106 196 -158
7 -20 32 -77 56 -127 l45 -90 -5 -105 c-6 -109 -30 -222 -68 -309 -19 -44 -25
-51 -43 -45 -35 11 -94 59 -121 98 -48 71 -250 296 -266 296 -18 0 -8 -17 58
-100 77 -96 473 -500 491 -500 23 0 11 20 -53 92 -36 39 -65 76 -65 81 0 4 11
23 24 40 54 72 96 306 77 427 -6 34 -32 112 -60 173 -27 62 -48 113 -47 115 5
4 94 -48 106 -63 7 -8 18 -15 25 -15 21 0 201 -167 263 -244 34 -43 47 -44 36
-2 -15 60 -294 304 -403 352 -43 19 -55 44 -21 44 11 0 20 7 20 15 0 9 -10 15
-26 15 -61 0 -324 106 -366 148 -12 11 -21 44 -27 89 -11 86 -41 135 -136 220
-67 60 -178 133 -203 133 -7 0 -12 -8 -10 -17z"/>
<path d="M5353 10897 c-18 -7 -38 -18 -45 -25 -10 -10 5 -12 82 -6 205 14 371
-58 617 -269 123 -106 166 -158 157 -193 -4 -15 1 -26 14 -35 10 -8 25 -25 32
-39 7 -14 31 -48 52 -77 60 -79 74 -144 78 -368 1 -37 2 -39 15 -21 8 11 15
34 15 51 0 18 11 53 24 78 l24 45 -47 99 c-27 54 -55 104 -65 112 -9 7 -16 21
-16 30 0 9 -16 39 -36 66 -19 28 -49 76 -66 108 -54 100 -264 284 -408 357
-71 35 -164 67 -252 85 -81 18 -131 18 -175 2z"/>
<path d="M4340 10851 c0 -15 126 -107 235 -173 179 -108 307 -151 399 -134 54
10 43 23 -26 30 -96 11 -252 70 -271 102 -4 8 -23 20 -41 28 -19 8 -88 46
-154 85 -117 70 -142 80 -142 62z"/>
<path d="M2339 10798 c-35 -24 -92 -70 -126 -103 -72 -71 -74 -78 -99 -340 -8
-93 -20 -190 -25 -215 -5 -25 -13 -70 -18 -101 -11 -71 -27 -102 -110 -214
-201 -271 -271 -428 -321 -714 -24 -139 -26 -253 -5 -271 18 -15 17 -19 20 95
5 168 64 385 154 562 86 172 230 373 340 476 76 71 247 179 423 267 241 120
287 124 569 55 327 -81 629 -175 629 -196 0 -15 -144 -10 -190 6 -47 17 -110
20 -110 6 0 -8 86 -47 184 -82 21 -8 39 -18 40 -24 2 -17 -111 -17 -204 -1
-95 16 -107 15 -206 -27 -33 -14 -107 -35 -165 -47 -133 -26 -233 -74 -369
-175 -122 -91 -447 -412 -473 -466 -19 -42 -64 -241 -69 -309 -3 -43 -2 -45
32 -56 66 -22 51 -58 -44 -106 -117 -59 -242 -155 -224 -174 2 -2 44 19 94 47
142 80 222 119 246 119 22 0 22 0 3 -19 -11 -11 -87 -55 -170 -99 -82 -44
-186 -100 -230 -125 l-80 -46 -38 37 c-44 43 -80 99 -102 162 -30 85 -72 108
-61 34 9 -70 63 -161 141 -240 100 -101 163 -126 356 -140 l97 -7 61 50 c115
93 287 183 349 183 51 0 206 -114 263 -194 l29 -39 -20 -22 c-26 -28 -265
-147 -340 -170 -253 -78 -316 -103 -327 -132 -4 -9 1 -19 10 -25 27 -15 20
-36 -25 -77 -36 -34 -40 -42 -35 -70 9 -43 1 -57 -48 -91 -74 -51 -189 -104
-520 -238 -336 -137 -518 -224 -573 -276 -19 -17 -59 -66 -89 -110 -31 -43
-78 -104 -106 -135 -70 -79 -121 -161 -220 -351 -167 -321 -342 -574 -514
-745 -68 -67 -123 -128 -123 -134 0 -25 138 -155 269 -254 l134 -102 -6 -71
c-4 -39 -14 -107 -23 -152 -14 -70 -14 -83 -2 -101 24 -34 108 -95 218 -159
178 -102 264 -161 346 -233 43 -39 104 -85 134 -104 78 -47 284 -136 458 -196
81 -28 240 -86 354 -130 291 -111 432 -141 485 -104 14 10 23 30 27 62 18 126
33 143 105 123 49 -13 59 -29 214 -340 108 -218 132 -259 143 -247 9 9 -4 39
-142 324 -67 138 -119 254 -116 257 3 3 19 6 36 6 36 0 131 42 164 72 22 21
22 21 37 2 35 -44 174 -343 185 -397 17 -84 18 -381 2 -435 -12 -39 -11 -46 4
-63 16 -18 16 -19 -9 -19 -21 0 -30 -7 -40 -33 -8 -18 -66 -89 -130 -157 -64
-69 -123 -139 -131 -155 -27 -56 -84 -94 -196 -130 -132 -43 -176 -78 -205
-166 -9 -27 -27 -56 -39 -64 -30 -20 -156 -51 -311 -76 -71 -11 -175 -29 -231
-40 -92 -18 -103 -18 -137 -4 -20 8 -63 15 -96 15 -57 0 -61 -2 -76 -30 -19
-36 -30 -38 -50 -6 -15 22 -14 30 13 114 l29 91 -33 32 c-30 29 -40 32 -130
41 -54 5 -104 13 -111 20 -31 25 -4 69 51 82 16 4 78 -1 138 -10 109 -17 110
-17 138 5 16 11 33 21 37 21 4 0 37 -20 72 -45 71 -50 82 -52 135 -30 36 15
39 15 125 -24 139 -62 192 -75 254 -61 96 23 178 59 326 145 147 85 199 124
187 144 -9 14 -29 5 -111 -47 -99 -63 -258 -146 -340 -178 -104 -39 -151 -32
-302 45 -67 34 -140 79 -164 100 -55 47 -86 64 -106 57 -12 -5 -3 -20 41 -65
57 -60 68 -81 42 -81 -21 0 -108 72 -152 126 l-39 47 0 91 c1 97 19 176 55
235 29 46 35 34 15 -31 -19 -63 -32 -273 -16 -247 6 9 24 74 41 144 17 69 41
146 55 170 25 43 75 216 75 261 0 13 -4 24 -10 24 -9 0 -23 -42 -54 -164 -15
-58 -45 -110 -33 -56 3 14 20 101 37 193 34 187 54 256 106 358 57 115 38 136
-31 33 -48 -70 -74 -148 -115 -344 -42 -201 -56 -245 -95 -301 -35 -51 -56
-113 -81 -231 -12 -59 -12 -77 1 -139 8 -39 20 -77 26 -85 19 -23 -14 -27
-173 -21 l-149 6 -35 -72 c-19 -39 -34 -77 -34 -84 0 -22 24 -28 147 -33 165
-7 163 -4 133 -150 -14 -67 -20 -114 -14 -120 5 -5 35 -22 68 -39 85 -45 138
-43 247 10 78 39 91 42 184 45 115 5 107 -3 -35 -35 -52 -12 -102 -26 -110
-31 -24 -15 62 -12 165 6 54 9 157 16 255 17 l165 2 64 33 c35 18 79 45 99 60
19 14 62 38 96 52 79 33 178 86 206 112 20 18 23 19 45 4 31 -21 40 -57 23
-93 -10 -23 -33 -36 -116 -69 -110 -43 -142 -64 -142 -90 0 -13 6 -15 31 -10
27 5 30 3 27 -17 -2 -16 -11 -23 -30 -25 -16 -2 -28 -7 -28 -12 0 -13 -56 -41
-115 -57 -27 -7 -132 -19 -232 -25 -186 -12 -287 -5 -359 23 l-29 11 25 10
c14 6 101 12 194 13 163 4 188 7 172 22 -17 18 -646 -1 -646 -19 0 -14 81 -48
116 -48 17 0 66 -11 108 -25 42 -14 92 -25 111 -25 18 0 36 -4 39 -8 3 -5 10
-51 16 -103 7 -52 20 -120 31 -151 24 -72 24 -91 2 -84 -101 31 -281 60 -466
76 -163 14 -210 32 -311 117 -43 36 -73 42 -83 17 -14 -38 94 -358 188 -552
67 -139 122 -202 271 -313 73 -54 222 -134 290 -154 53 -16 118 -48 118 -58 0
-6 -12 -23 -26 -38 -22 -23 -27 -40 -32 -100 -3 -40 1 -122 8 -184 16 -138 11
-155 -77 -273 -36 -48 -73 -105 -83 -128 -20 -46 -54 -76 -227 -204 -204 -151
-293 -244 -278 -291 7 -20 11 -21 83 -15 42 4 158 11 258 16 164 7 188 11 245
35 35 15 91 34 124 42 33 8 75 24 93 35 30 18 36 19 59 7 39 -21 398 -18 522
5 89 16 191 51 191 65 0 4 -26 16 -57 28 l-58 21 70 6 c165 14 265 40 265 68
0 4 -19 12 -42 19 -91 24 -90 27 12 22 92 -5 107 -4 120 12 13 15 12 19 -4 30
-17 13 -49 19 -180 31 -52 5 -65 9 -51 16 11 7 57 6 133 -1 289 -29 333 -30
641 -22 302 9 356 15 426 45 17 8 66 16 110 20 65 5 213 37 285 62 57 20 -214
93 -347 94 -24 0 -33 -5 -33 -16 0 -14 -8 -15 -52 -7 -85 13 -194 7 -333 -21
-96 -19 -189 -28 -355 -36 -170 -8 -241 -16 -291 -30 -77 -23 -171 -36 -320
-45 -92 -6 -107 -5 -112 9 -6 16 -58 234 -72 304 -4 20 -1 48 10 75 11 29 15
66 13 117 l-3 75 -65 48 c-36 27 -69 56 -74 64 -7 13 15 39 100 121 60 57 143
128 185 157 82 59 101 85 163 236 48 118 76 283 83 495 7 206 2 244 -32 244
-46 0 -136 -42 -194 -90 -32 -26 -91 -69 -132 -95 -41 -26 -85 -58 -99 -71
-32 -30 -120 -68 -130 -57 -5 4 -14 46 -20 91 -6 46 -15 95 -21 109 -13 35
-11 90 3 100 7 4 52 10 101 13 103 7 102 7 172 127 33 58 62 95 85 110 69 43
90 65 101 102 21 70 -4 112 -101 174 -19 13 -36 30 -38 39 -5 24 27 88 44 88
18 0 328 284 453 416 57 60 143 157 192 215 48 58 100 111 115 118 36 16 151
30 250 31 76 0 82 -1 109 -30 16 -16 34 -30 41 -30 7 0 34 -23 61 -51 57 -61
265 -230 395 -321 51 -36 165 -115 253 -177 211 -149 382 -254 541 -334 71
-36 137 -73 145 -83 9 -10 14 -38 14 -73 -1 -66 -24 -108 -64 -117 -133 -28
-201 -94 -201 -194 0 -35 4 -42 28 -51 33 -13 197 -6 365 17 107 14 120 14
141 0 22 -14 101 -154 92 -163 -2 -2 -14 1 -27 7 -18 8 -32 8 -54 -1 -27 -10
-28 -12 -11 -18 43 -16 -35 -23 -314 -28 -234 -4 -302 -2 -378 11 -107 19
-148 20 -157 5 -4 -5 -4 -38 0 -72 8 -63 8 -63 95 -141 26 -23 236 -259 310
-347 94 -112 164 -215 180 -263 16 -51 79 -112 149 -145 54 -25 61 -26 214
-23 160 3 200 -7 115 -28 -100 -25 -125 -63 -90 -133 12 -24 22 -50 22 -57 0
-7 10 -29 21 -50 20 -35 39 -50 80 -63 11 -4 18 -22 22 -59 9 -71 60 -174 100
-200 35 -21 -11 -21 562 -1 116 4 216 2 283 -6 180 -21 396 -17 577 12 88 14
196 30 240 36 44 5 116 22 160 37 66 22 102 28 210 31 78 3 145 10 168 19 20
8 65 14 100 14 74 0 177 16 190 29 11 11 -3 15 -238 66 -93 20 -174 41 -180
47 -12 13 305 3 350 -11 28 -9 27 -9 -17 -10 -51 -1 -71 -15 -35 -25 12 -4
120 -10 240 -13 233 -6 260 -1 175 37 -94 41 -249 55 -618 55 -434 0 -612 -23
-749 -93 l-55 -29 -90 29 c-50 15 -129 35 -176 44 -91 17 -139 37 -210 89
-120 87 -215 125 -313 125 l-49 0 4 148 c4 116 11 170 33 257 l27 110 -16 175
c-9 96 -23 300 -31 454 -9 153 -19 295 -23 315 -8 35 -10 36 -55 39 -58 4
-115 -18 -302 -117 -27 -15 -68 -39 -90 -54 -48 -33 -61 -34 -76 -6 -52 98
-20 154 131 229 91 45 129 76 151 124 23 50 25 143 4 173 -8 12 -48 33 -87 48
-40 15 -92 39 -116 52 -36 20 -54 24 -103 21 -32 -1 -59 -2 -59 -2 0 1 13 32
28 70 16 38 39 101 52 139 13 39 34 95 48 125 14 30 27 76 30 102 l4 47 -94
98 c-51 54 -123 134 -158 178 -36 44 -109 132 -164 195 -133 154 -211 260
-251 342 -39 79 -96 161 -206 296 -43 53 -88 115 -99 138 -24 52 -82 94 -192
141 -80 33 -143 43 -136 21 2 -6 35 -30 73 -53 85 -52 228 -185 331 -307 42
-50 122 -162 178 -247 109 -165 198 -279 441 -560 82 -95 169 -197 193 -225
l42 -52 -20 -60 c-46 -132 -144 -381 -161 -404 -19 -28 -58 -52 -283 -171 -96
-51 -156 -77 -168 -73 -37 11 -17 33 50 54 106 35 109 49 15 59 -58 6 -58 6
-33 22 220 140 343 230 323 236 -16 6 -59 -17 -186 -99 -125 -80 -181 -107
-220 -108 -32 0 -116 41 -322 157 -212 120 -252 151 -447 346 -95 95 -191 183
-212 196 -46 26 -46 25 54 -89 123 -141 136 -160 107 -160 -18 0 -107 95 -222
235 -114 140 -204 235 -222 235 -23 0 -14 -27 22 -70 63 -75 37 -82 -54 -14
-65 49 -101 88 -101 110 0 8 16 32 36 54 41 45 135 207 227 388 51 101 59 124
47 132 -22 14 -39 -6 -77 -87 -46 -100 -57 -102 -48 -10 5 49 3 77 -3 81 -18
11 -29 -22 -52 -149 -23 -130 -46 -191 -108 -282 -72 -105 -99 -121 -263 -152
-139 -26 -179 -31 -179 -23 0 4 27 34 61 67 100 98 249 301 249 340 0 18 -24
-5 -77 -73 -33 -42 -100 -120 -148 -172 -48 -52 -111 -125 -140 -161 -44 -54
-67 -72 -130 -104 -43 -21 -94 -38 -114 -39 l-36 -1 2 57 c3 88 -13 75 -65
-52 -8 -19 -11 -1 -11 83 -1 105 4 122 29 92 7 -8 16 -15 21 -15 16 0 9 32
-21 94 -20 42 -41 121 -68 254 -21 105 -35 192 -32 192 3 0 55 -103 115 -230
60 -126 110 -230 111 -230 1 0 16 21 32 48 55 84 102 325 104 525 1 108 -12
144 -95 249 -84 107 -172 276 -154 295 4 4 37 9 72 11 57 4 66 2 87 -20 13
-14 35 -48 50 -76 55 -102 62 -46 12 79 -30 74 -37 155 -14 169 17 12 127 4
180 -12 75 -22 86 -57 46 -137 -40 -77 -57 -160 -45 -206 22 -79 70 -155 116
-182 94 -55 236 -81 263 -48 18 22 38 18 45 -7 4 -13 17 -33 28 -45 29 -33
136 -32 231 2 62 22 123 61 112 73 -3 2 -62 -10 -131 -28 -147 -38 -168 -35
-178 25 -5 29 7 230 16 279 1 5 -5 11 -15 13 -17 4 -30 -25 -43 -102 l-8 -40
-13 31 c-16 38 -41 61 -54 48 -7 -7 -1 -36 15 -83 24 -69 25 -75 9 -92 -9 -10
-40 -23 -68 -30 -103 -23 -225 41 -262 136 -24 65 -15 161 25 247 37 80 37 91
10 152 -11 26 -19 52 -17 58 2 6 30 -10 61 -36 31 -25 83 -67 114 -92 l57 -47
101 6 c55 4 127 13 160 20 186 45 212 48 321 45 148 -4 148 -4 179 -166 9 -44
-14 -43 -52 4 -52 65 -123 132 -129 122 -4 -6 -11 -87 -16 -182 -5 -94 -13
-184 -17 -201 l-7 -30 -30 33 c-17 18 -49 68 -72 111 -35 65 -44 95 -53 168
-6 48 -13 94 -15 102 -9 28 -19 -2 -24 -72 l-5 -72 -27 50 -27 50 -1 -57 c0
-50 7 -71 59 -175 33 -65 69 -127 80 -137 21 -19 41 -14 41 11 0 27 26 -3 50
-58 21 -49 23 -51 53 -45 44 9 77 33 77 57 0 15 -5 19 -22 17 l-23 -3 -2 168
c-1 92 2 167 7 167 16 0 122 -123 143 -166 l20 -43 -26 -35 c-34 -43 -34 -46
1 -46 48 0 85 60 97 156 6 41 2 62 -26 129 -55 138 -51 186 34 365 l41 85 -1
150 c-1 98 -7 178 -18 230 -10 44 -19 93 -22 108 -4 18 3 45 17 75 l23 47 87
-85 c106 -105 228 -193 306 -222 49 -18 81 -22 194 -22 193 -1 288 32 336 118
18 32 23 36 28 20 6 -18 17 -19 223 -16 340 4 401 20 499 124 92 97 128 192
128 343 0 77 -5 117 -23 171 l-23 71 23 44 c12 24 86 139 164 254 166 245 226
340 428 685 170 289 233 411 273 524 l27 79 -65 63 c-59 57 -70 64 -106 64
-67 0 -97 -41 -246 -330 -7 -14 -23 -43 -34 -65 -12 -22 -33 -65 -47 -95 -14
-30 -52 -95 -84 -145 -32 -49 -66 -106 -76 -125 -10 -19 -61 -102 -115 -185
-53 -82 -122 -193 -152 -245 -31 -52 -80 -128 -110 -168 -29 -40 -63 -88 -75
-105 -13 -18 -28 -38 -34 -45 -8 -10 -48 -12 -167 -10 l-157 2 -69 -34 c-43
-20 -90 -35 -122 -38 -52 -4 -52 -4 -79 36 -15 23 -50 57 -78 76 -50 34 -69
40 -217 66 -84 15 -110 32 -110 71 0 84 -85 157 -203 174 -60 9 -87 31 -126
99 -40 72 -78 99 -192 138 -84 29 -101 39 -156 94 -81 80 -85 108 -17 125 37
10 49 18 62 46 15 31 15 37 1 61 -8 15 -46 48 -84 75 -79 53 -115 90 -115 116
0 9 14 30 30 46 37 36 40 82 8 113 -32 29 -127 72 -162 72 -16 0 -49 -12 -73
-26 -51 -29 -70 -28 -166 16 -34 15 -107 44 -162 63 -171 60 -184 71 -97 82
75 10 99 21 134 61 70 79 72 98 18 178 -22 32 -45 76 -51 98 l-10 40 -52 -2
c-92 -4 -96 1 -45 71 35 48 38 76 15 134 -18 45 -23 189 -7 229 7 18 21 28 52
36 142 35 316 140 454 275 82 80 109 114 134 167 80 170 58 354 -58 496 -47
58 -162 143 -326 241 -75 45 -136 87 -136 93 0 13 157 3 277 -18 139 -24 347
-112 488 -207 113 -77 280 -225 324 -287 23 -33 47 -60 53 -60 5 0 43 -31 82
-70 40 -38 78 -70 85 -70 51 0 -245 307 -429 444 -295 220 -488 293 -825 311
-118 7 -187 18 -295 49 -30 9 -89 19 -130 22 -41 4 -85 13 -97 20 -12 8 -34
14 -48 14 -14 0 -25 4 -25 8 0 15 44 30 182 62 170 40 184 45 181 56 -2 5 -27
10 -57 12 -40 2 -92 -8 -202 -39 -160 -46 -202 -50 -449 -39 -104 4 -134 -2
-115 -25 8 -9 -2 -14 -46 -19 -31 -3 -118 -22 -193 -41 -166 -42 -266 -58
-308 -50 -20 3 -53 -2 -89 -15 -32 -11 -64 -20 -71 -20 -34 0 3 145 52 204
l24 30 60 -57 c73 -67 112 -79 172 -52 56 26 44 40 -34 40 -62 1 -69 3 -102
35 -50 48 -49 52 33 116 74 58 18 60 -69 2z m831 -199 c25 -14 -70 -9 -115 6
-40 14 -39 14 30 9 39 -3 77 -10 85 -15z m-116 -35 c30 -12 16 -21 -41 -27
-63 -7 -75 -3 -66 18 5 15 76 21 107 9z m289 -9 c-3 -14 -29 -18 -69 -10 -54
10 -40 26 19 23 28 -2 51 -7 50 -13z m-439 -4 c25 -10 11 -18 -34 -21 -56 -4
-90 -1 -90 9 0 18 87 27 124 12z m291 -41 c-10 -17 -72 -39 -220 -80 -170 -47
-317 -98 -420 -145 -43 -19 -81 -35 -85 -35 -4 0 -10 33 -13 73 -4 39 -9 88
-13 109 l-6 36 58 13 c70 15 188 17 374 5 121 -7 143 -6 210 12 84 23 124 27
115 12z m427 -16 c85 -20 328 -134 288 -134 -26 0 -159 39 -221 65 -32 14 -71
25 -87 25 -30 0 -118 24 -141 39 -7 5 -11 14 -7 19 8 13 85 6 168 -14z m-292
-54 c25 -16 51 -30 58 -30 6 0 12 -4 12 -10 0 -16 -21 -12 -126 22 -88 29 -96
33 -69 39 57 13 80 9 125 -21z m-1035 -10 c-19 -21 -45 -27 -45 -10 0 10 52
41 59 34 2 -2 -4 -13 -14 -24z m1180 1 c27 -13 33 -20 20 -20 -11 0 -36 8 -55
19 -45 25 -17 25 35 1z m4 -117 c476 -132 567 -162 547 -181 -15 -16 -92 -5
-186 25 -93 31 -315 87 -672 172 -98 23 -178 45 -178 50 0 10 65 28 109 29 19
1 190 -42 380 -95z m155 66 c78 -24 97 -43 34 -34 -44 7 -128 38 -128 48 0 11
27 6 94 -14z m-1218 -24 c8 -31 2 -76 -11 -79 -5 -1 -11 22 -13 51 -3 54 12
73 24 28z m-52 -125 c9 -8 16 -19 16 -26 0 -13 -208 -130 -217 -121 -9 8 24
176 38 192 6 8 28 14 48 14 20 0 43 5 51 10 11 7 19 2 32 -24 9 -18 24 -38 32
-45z m1618 68 c52 -11 88 -29 57 -29 -28 0 -134 22 -149 31 -22 12 27 12 92
-2z m62 -65 c9 -3 16 -10 16 -15 0 -15 -47 -10 -60 6 -10 12 -9 15 8 15 11 0
27 -3 36 -6z m156 -43 c0 -19 -19 -21 -52 -7 l-33 14 43 1 c23 1 42 -3 42 -8z
m98 -57 c25 -17 29 -34 8 -34 -16 0 -46 26 -46 41 0 13 13 11 38 -7z m-73 -54
c49 -19 10 -28 -77 -19 -83 8 -102 14 -92 31 8 13 125 5 169 -12z m-290 -40
c-8 -13 -95 -13 -115 0 -10 7 5 10 53 10 43 0 66 -4 62 -10z m398 -42 c28 -7
37 -14 35 -26 -5 -23 -39 -17 -108 19 l-55 29 45 -6 c25 -3 62 -10 83 -16z
m-198 -23 c39 -14 38 -14 -52 -12 -58 1 -97 7 -105 15 -17 17 104 15 157 -3z
m-687 -11 c12 -4 22 -11 22 -17 0 -12 -90 -1 -104 13 -11 11 44 14 82 4z m417
-14 c45 -17 30 -33 -24 -26 -66 9 -112 26 -105 38 7 11 88 3 129 -12z m-247
-40 c12 0 22 -4 22 -10 0 -11 -79 -14 -106 -3 -16 6 -16 7 2 14 10 5 28 6 39
4 11 -3 30 -5 43 -5z m726 -23 c20 -11 19 -12 -12 -15 -36 -4 -142 24 -142 37
0 11 129 -8 154 -22z m-889 -27 c37 -19 57 -38 75 -71 14 -25 39 -60 56 -76
16 -17 36 -50 43 -74 10 -35 30 -182 31 -237 0 -7 10 -16 22 -21 l23 -8 -23
-7 c-35 -12 -45 -44 -50 -162 -3 -88 -1 -123 13 -163 13 -41 14 -55 4 -67 -10
-13 -14 -13 -29 1 -19 17 -46 20 -55 5 -3 -5 -1 -37 6 -70 10 -52 9 -63 -5
-85 -23 -35 -51 -32 -69 8 -8 17 -17 41 -19 51 -5 33 -23 19 -29 -24 -3 -22
-10 -45 -16 -51 -10 -10 -156 -29 -223 -29 -33 1 -31 3 43 42 67 35 83 48 108
92 52 92 38 99 -47 22 -104 -94 -194 -141 -194 -100 0 8 -16 36 -35 61 -43 57
-45 75 -7 67 35 -7 102 19 102 40 0 8 -10 22 -22 30 l-22 16 22 30 c12 16 32
44 45 61 20 28 22 42 22 148 0 137 -10 161 -81 192 -70 31 -83 6 -40 -79 34
-69 59 -150 52 -175 -3 -12 -34 -51 -70 -86 l-64 -63 -7 78 c-11 127 -45 264
-66 264 -13 0 -11 -57 6 -129 15 -63 15 -65 -6 -88 -30 -31 -37 -29 -55 17
-18 44 -28 49 -43 23 -8 -14 -14 -15 -45 -6 -31 10 -36 9 -36 -5 0 -10 11 -35
25 -57 32 -53 31 -65 -5 -65 -37 0 -85 -23 -94 -45 -3 -9 -6 -28 -6 -41 0 -24
-2 -25 -44 -19 -29 5 -46 3 -51 -5 -8 -14 10 -60 47 -119 39 -62 37 -74 -9
-65 -83 15 -250 77 -296 111 -55 41 -62 61 -53 154 12 133 58 217 195 362 231
243 446 387 644 432 37 8 107 13 172 12 97 -2 117 -5 160 -27z m612 8 c35 -13
51 -24 41 -26 -26 -5 -123 17 -144 33 -18 13 -17 14 13 15 18 0 58 -10 90 -22z
m-255 -24 c6 -4 6 -10 1 -15 -9 -9 -103 17 -103 28 0 7 88 -5 102 -13z m-149
-30 c51 -17 62 -34 23 -34 -13 0 -31 -3 -39 -6 -9 -3 -29 7 -49 25 l-33 30 26
1 c14 0 46 -7 72 -16z m757 -4 c0 -5 -9 -10 -21 -10 -11 0 -17 5 -14 10 3 6
13 10 21 10 8 0 14 -4 14 -10z m-140 -41 l45 -30 -67 3 c-47 3 -73 9 -87 22
-51 46 42 51 109 5z m-222 -24 c46 -21 69 -45 42 -45 -16 0 -164 61 -175 72
-17 18 75 -1 133 -27z m-210 -11 c80 -20 108 -39 42 -29 -48 7 -140 34 -140
41 0 8 31 4 98 -12z m-133 -36 c14 -6 25 -15 25 -20 0 -12 -54 -10 -68 4 -28
28 -3 37 43 16z m668 -13 c1 -5 -16 -11 -38 -13 -40 -2 -40 -2 -15 13 27 16
50 16 53 0z m-295 -36 c44 -14 40 -29 -8 -29 -44 0 -100 23 -100 41 0 12 49 6
108 -12z m146 -9 c7 -7 5 -10 -6 -10 -26 0 -78 22 -73 30 6 10 64 -5 79 -20z
m-310 -32 c22 -5 35 -13 30 -18 -11 -11 -143 15 -158 31 -12 12 58 5 128 -13z
m-166 -45 c2 -8 -6 -13 -22 -13 -26 0 -40 12 -29 24 11 11 46 2 51 -11z m462
7 c20 -5 45 -17 55 -26 19 -14 17 -15 -32 -10 -28 3 -69 14 -90 25 l-38 20 35
1 c19 0 51 -5 70 -10z m-163 -26 c32 -9 18 -24 -22 -24 -39 0 -65 8 -65 21 0
10 54 12 87 3z m-145 -56 l23 -13 -30 -3 c-16 -1 -52 7 -80 18 l-50 21 57 -5
c31 -2 67 -10 80 -18z m-167 -28 c3 -5 -1 -10 -9 -10 -9 0 -16 5 -16 10 0 6 4
10 9 10 6 0 13 -4 16 -10z m463 -17 c2 -9 -9 -13 -37 -13 -46 0 -52 6 -18 20
28 11 49 9 55 -7z m-245 -20 c-7 -2 -19 -2 -25 0 -7 3 -2 5 12 5 14 0 19 -2
13 -5z m137 -52 c0 -10 -24 -21 -48 -21 -13 0 -12 3 4 15 21 16 44 19 44 6z
m-141 -30 c7 -5 11 -14 7 -20 -8 -12 -56 6 -56 21 0 11 31 10 49 -1z m-113
-26 c18 -14 17 -15 -15 -13 -19 2 -36 9 -39 16 -5 17 30 15 54 -3z m-98 -30
c9 -9 -12 -25 -32 -25 -29 0 -54 25 -34 33 12 6 59 0 66 -8z m128 -54 c-8 -13
-103 -34 -121 -27 -27 10 -16 25 23 29 73 7 103 7 98 -2z m-1096 -209 c0 -15
-4 -33 -9 -40 -11 -18 -24 32 -16 59 9 26 25 14 25 -19z m99 -31 c12 -16 24
-44 28 -63 13 -68 36 -101 139 -204 l105 -105 68 7 c44 4 102 1 167 -9 184
-29 229 -29 400 -2 41 7 42 6 53 -27 6 -19 27 -49 46 -66 19 -16 35 -35 35
-41 0 -20 -75 -23 -438 -18 -435 5 -442 7 -482 82 -33 65 -104 170 -146 217
-19 21 -36 49 -40 63 -14 56 11 195 35 195 5 0 19 -13 30 -29z m841 -77 c14
-35 13 -77 -2 -92 -33 -33 -75 6 -64 61 12 59 49 77 66 31z m-969 -116 c16
-32 29 -60 29 -64 0 -11 -100 2 -113 15 -9 9 -6 16 13 31 23 17 24 21 13 71
l-10 53 19 -25 c11 -13 33 -50 49 -81z m249 49 c0 -18 -2 -19 -10 -7 -13 20
-13 43 0 35 6 -3 10 -16 10 -28z m-610 -102 c0 -9 -81 -56 -198 -114 -133 -67
-242 -113 -242 -103 0 11 337 192 400 215 20 7 40 8 40 2z m102 -76 c26 -17
45 -35 42 -41 -3 -5 -30 -20 -59 -33 -29 -13 -102 -55 -163 -93 -60 -39 -122
-74 -138 -77 -35 -7 -25 1 54 46 48 27 67 49 42 49 -5 0 -48 -16 -96 -36 -47
-19 -107 -37 -132 -40 -52 -5 -103 5 -99 21 1 6 42 26 92 46 49 20 160 70 245
111 85 42 157 77 159 77 2 1 26 -13 53 -30z m308 -28 c0 -5 3 -16 6 -25 4 -10
1 -16 -7 -16 -24 0 -42 17 -36 34 7 17 37 23 37 7z m96 -127 c26 -39 5 -43
-27 -4 -16 19 -29 38 -29 42 0 15 39 -12 56 -38z m598 -150 c31 -12 16 -25
-21 -18 -58 10 -75 23 -31 24 20 0 43 -3 52 -6z m96 -33 c0 -10 -45 -41 -59
-41 -17 0 -1 27 22 38 28 13 37 14 37 3z m-576 -17 c4 -9 4 -19 2 -21 -8 -8
-26 8 -26 23 0 19 16 18 24 -2z m131 -10 l30 -14 -35 5 c-19 3 -39 10 -44 15
-15 15 14 12 49 -6z m4159 -35 c14 -17 26 -43 26 -57 -1 -92 -516 -975 -746
-1279 -18 -23 -82 -123 -143 -221 -62 -99 -118 -186 -126 -192 -12 -10 -18
-10 -30 0 -37 30 -4 113 90 224 147 176 307 380 319 411 8 18 36 71 63 117 26
46 57 101 68 122 11 21 34 49 51 62 23 18 30 30 27 48 -3 13 1 28 9 34 7 7 25
22 41 34 15 13 92 138 172 278 144 252 184 334 171 347 -9 9 -27 -18 -77 -110
-49 -90 -76 -120 -66 -72 15 66 102 285 113 285 7 0 24 -14 38 -31z m-3850
-43 c75 -13 102 -36 43 -36 -49 0 -247 68 -247 85 0 2 30 -5 68 -16 37 -11 98
-26 136 -33z m-479 19 c40 -31 117 -59 203 -75 86 -15 109 -25 154 -65 21 -19
43 -35 50 -35 9 0 9 3 0 12 -23 23 -12 28 26 13 64 -27 85 -45 72 -60 -12 -15
-7 -19 33 -29 15 -3 27 -13 27 -20 0 -8 14 -29 31 -46 24 -23 38 -30 55 -26
18 5 31 -4 66 -42 23 -27 57 -72 75 -100 l32 -52 -32 -8 c-43 -11 -47 -45 -12
-97 25 -36 26 -39 8 -48 -30 -17 -132 -118 -138 -137 -9 -27 12 -68 64 -129
68 -80 68 -77 13 -105 -73 -37 -109 -71 -128 -124 -22 -60 -41 -82 -70 -82
-38 0 -64 44 -64 111 0 53 -3 59 -30 79 -39 28 -63 23 -75 -18 -11 -37 -29
-41 -78 -15 -48 25 -108 65 -103 70 2 3 32 -3 66 -13 115 -32 102 14 -48 168
-113 117 -138 133 -215 142 -109 12 -173 64 -226 181 -17 36 -35 65 -40 65
-29 0 7 -124 54 -185 38 -50 100 -83 179 -94 37 -5 75 -16 84 -23 101 -78 212
-192 199 -205 -12 -11 -135 56 -262 142 -234 159 -249 168 -323 196 -74 28
-135 64 -167 99 -16 18 -14 20 47 50 101 51 128 75 128 115 0 51 -52 102 -110
108 -165 19 -204 26 -218 41 -14 14 -14 17 3 36 22 24 161 70 214 70 45 0 51
-9 51 -84 l0 -53 155 -76 c135 -67 155 -81 160 -104 18 -84 45 -103 157 -110
89 -6 116 -16 191 -70 55 -40 64 -64 43 -114 -14 -33 -13 -38 4 -67 33 -54
120 -84 183 -63 33 11 55 37 42 49 -3 3 -20 0 -38 -6 -54 -19 -95 -15 -123 13
l-26 26 21 35 c12 19 21 41 21 48 0 18 -82 93 -160 146 -64 44 -66 45 -139 42
-84 -3 -105 9 -117 62 -10 47 -29 63 -155 126 -153 77 -179 99 -179 154 0 72
22 90 205 167 50 21 98 39 108 39 10 0 33 -11 52 -25z m4211 -17 c-10 -52
-102 -252 -192 -418 -46 -85 -94 -184 -107 -220 -21 -58 -141 -272 -216 -384
-14 -22 -35 -54 -46 -72 -51 -83 -210 -284 -226 -284 -14 0 3 30 170 302 301
493 381 638 381 691 0 38 104 255 170 355 46 69 77 83 66 30z m-3316 -20 c107
-42 265 -125 298 -156 24 -22 30 -39 36 -92 4 -35 15 -80 24 -100 17 -35 17
-34 22 122 3 86 8 160 13 164 9 9 94 -30 132 -60 l28 -22 -32 -44 c-49 -68
-44 -82 64 -187 52 -50 95 -98 95 -107 0 -9 -16 -20 -42 -27 -24 -7 -49 -19
-55 -28 -9 -10 -13 -58 -13 -154 l0 -140 -106 6 c-58 3 -110 9 -114 13 -4 5
-4 32 0 59 17 99 24 291 11 300 -18 11 -24 1 -32 -61 -11 -79 -47 -148 -80
-152 -21 -2 -36 8 -74 50 -26 29 -63 78 -83 108 -36 57 -176 222 -234 276 -18
17 -46 38 -63 46 -38 18 -38 51 0 137 46 102 62 105 205 49z m-297 -74 c12
-12 -13 -44 -34 -44 -11 0 -34 7 -51 16 -24 12 -28 18 -17 25 16 10 93 12 102
3z m3532 -251 c-35 -77 -75 -146 -82 -139 -6 6 37 102 73 164 36 61 41 45 9
-25z m-4568 36 c36 -13 50 -53 29 -83 -26 -40 -56 -42 -124 -7 -49 24 -74 31
-122 31 -43 0 -62 4 -66 14 -9 23 14 54 43 59 39 7 213 -3 240 -14z m-136
-106 c16 -10 29 -21 29 -25 0 -10 -56 18 -65 32 -9 15 3 12 36 -7z m289 -389
c69 -54 155 -123 191 -154 36 -31 114 -89 172 -129 101 -69 157 -120 157 -143
0 -15 -84 -178 -148 -288 -83 -142 -84 -144 -93 -480 -5 -207 -12 -313 -23
-355 -38 -154 -180 -622 -210 -697 -19 -46 -60 -165 -91 -264 -31 -98 -67
-201 -81 -229 -13 -27 -27 -63 -30 -80 -10 -44 -39 -97 -68 -124 l-26 -24 0
39 c1 21 9 93 19 159 49 318 101 645 111 694 13 68 13 111 0 111 -22 0 -57
-177 -125 -630 -41 -276 -98 -565 -115 -585 -7 -8 -18 -15 -26 -15 -22 0 -205
88 -281 136 -120 75 -326 159 -473 194 -53 13 -54 14 -27 23 15 5 26 14 24 21
-4 10 -18 11 -135 6 -38 -2 -222 85 -445 209 -80 45 -206 110 -280 145 -146
69 -248 133 -272 170 -13 20 -14 35 -5 90 19 121 60 221 234 580 129 264 187
419 236 626 13 52 29 116 36 142 24 82 13 103 -25 49 -23 -31 -85 -161 -96
-198 -8 -29 9 -30 29 -1 9 12 17 20 20 17 2 -2 -13 -74 -33 -160 -35 -147 -43
-168 -137 -355 -56 -110 -120 -244 -143 -299 -65 -151 -64 -150 -91 -150 -20
0 -30 10 -52 56 -14 30 -43 69 -63 85 -20 16 -48 42 -63 59 -43 46 -86 88
-126 120 -34 27 -37 32 -27 57 6 16 48 55 103 96 120 89 198 173 198 211 0 19
-34 -11 -61 -56 -11 -18 -25 -33 -31 -33 -12 0 17 50 147 255 56 88 132 216
169 283 36 68 79 143 94 165 16 23 43 67 60 97 17 30 65 98 107 150 41 52 75
100 75 105 0 13 44 68 90 112 60 58 226 133 775 348 120 48 343 154 412 198
l37 24 141 -142 c77 -78 196 -186 265 -241z m1177 320 c-9 -9 -28 6 -21 18 4
6 10 6 17 -1 6 -6 8 -13 4 -17z m2933 -153 c-17 -32 -47 -74 -67 -92 -31 -30
-34 -31 -23 -9 26 49 103 160 112 160 5 0 -5 -26 -22 -59z m-2801 -145 c29
-31 21 -45 -16 -25 -26 14 -83 83 -83 101 0 11 64 -38 99 -76z m-197 34 c-21
-33 -14 -47 61 -127 78 -84 108 -128 126 -185 18 -57 34 -64 84 -42 23 10 75
43 115 72 40 28 77 52 82 52 23 0 113 -171 97 -186 -3 -3 -19 15 -37 40 -40
60 -69 86 -93 86 -16 0 -18 -5 -12 -27 8 -34 128 -275 156 -315 14 -19 23 -55
29 -111 20 -194 38 -252 104 -337 91 -116 138 -230 110 -267 -13 -17 -13 -17
-14 0 0 18 -38 60 -222 249 -102 105 -333 389 -446 548 -76 107 -102 140 -112
140 -17 0 -135 -337 -304 -870 -44 -139 -109 -279 -133 -287 -13 -5 -6 29 37
184 26 94 116 507 128 591 2 19 0 32 -7 32 -27 0 -55 -96 -111 -380 -33 -172
-65 -286 -82 -296 -7 -4 -8 -3 -4 4 15 25 -16 10 -43 -20 -16 -18 -32 -30 -35
-27 -4 3 11 44 33 90 44 95 65 175 38 149 -20 -19 -127 -273 -127 -300 0 -29
19 -25 56 11 59 57 69 14 29 -124 -31 -106 -110 -305 -132 -329 -8 -10 -25
-20 -37 -24 -29 -9 -66 -44 -66 -64 0 -9 15 -23 33 -32 l32 -16 -50 -22 c-27
-11 -53 -27 -57 -33 -4 -7 -8 -35 -8 -64 0 -64 -18 -85 -69 -81 l-36 3 1 70
c1 140 62 416 165 752 116 379 185 645 210 816 8 52 20 90 36 114 14 21 29 63
34 97 6 33 12 62 14 64 9 10 25 -12 25 -34 0 -51 49 -114 89 -114 35 0 124 69
133 103 5 15 11 39 16 55 5 21 23 35 80 62 41 20 78 43 83 52 14 25 -11 78
-61 132 l-42 45 39 37 c26 25 32 34 18 30 -11 -3 -33 -8 -50 -11 l-30 -6 30
26 c51 45 88 66 99 55 7 -7 6 -17 -2 -30z m252 15 c18 -14 47 -28 64 -31 28
-6 31 -10 30 -40 -2 -42 15 -61 63 -74 23 -6 39 -17 39 -25 0 -19 -3 -19 -48
4 -20 10 -56 24 -79 31 -24 7 -49 21 -58 30 -15 17 -58 130 -49 130 3 0 20
-11 38 -25z m525 -45 c29 -22 71 -45 94 -51 23 -6 59 -20 80 -30 116 -60 197
-199 115 -199 -28 0 -122 25 -268 70 -69 22 -145 43 -169 49 -45 10 -75 5 -66
-10 7 -11 393 -137 470 -154 53 -11 75 -11 139 1 85 16 134 9 180 -27 48 -38
30 -125 -32 -155 -90 -42 -195 -21 -348 69 -146 87 -191 95 -283 52 -30 -14
-60 -24 -66 -21 -7 2 -14 22 -17 43 -3 21 -23 78 -44 126 -47 110 -44 118 52
132 l69 10 6 56 c6 56 14 79 27 79 4 0 31 -18 61 -40z m2087 -57 c-8 -20 -130
-228 -183 -310 -18 -29 -38 -53 -43 -53 -13 0 -4 17 64 124 29 44 67 108 86
141 39 70 69 115 77 115 3 0 2 -8 -1 -17z m-2593 -64 c39 -11 44 -24 14 -43
-12 -8 -23 -5 -44 10 -53 40 -41 53 30 33z m-1020 -65 c9 -4 17 -10 17 -15 0
-17 -27 -9 -46 12 -13 15 -14 20 -4 15 8 -3 23 -9 33 -12z m177 -164 c8 -5 11
-12 8 -16 -10 -9 -38 3 -38 16 0 12 10 13 30 0z m77 -67 c-3 -10 -5 -4 -5 12
0 17 2 24 5 18 2 -7 2 -21 0 -30z m1303 7 c11 -7 5 -10 -22 -10 -21 0 -38 5
-38 10 0 13 40 13 60 0z m78 -48 c3 -9 -2 -13 -14 -10 -9 1 -19 9 -22 16 -3 9
2 13 14 10 9 -1 19 -9 22 -16z m1706 -44 c-34 -68 -115 -188 -126 -188 -12 0
25 69 85 163 58 88 80 102 41 25z m-1695 -37 c215 -97 312 -113 376 -63 28 22
67 27 115 13 l25 -7 -35 -19 c-19 -10 -48 -21 -65 -24 -23 -5 -36 -18 -55 -54
-14 -26 -28 -47 -33 -47 -4 0 -26 17 -50 39 -108 98 -133 75 -32 -30 l65 -67
0 -96 c0 -145 18 -176 124 -215 l59 -22 -8 98 c-14 174 -15 166 25 174 40 9
72 43 68 73 -3 19 -9 21 -71 18 -79 -3 -95 12 -56 54 21 23 49 33 182 69 31 9
57 19 57 24 0 5 -21 11 -47 15 -41 5 -153 48 -153 58 0 6 304 -34 310 -40 3
-2 1 -6 -5 -8 -27 -10 -76 -46 -71 -51 4 -4 27 -6 53 -4 113 6 147 -57 83
-159 -51 -83 -77 -214 -82 -422 l-3 -137 55 -50 55 -49 -30 -32 c-50 -54 -77
-60 -253 -60 l-159 0 -69 49 c-103 73 -186 155 -177 178 21 56 89 113 136 113
14 0 60 -14 101 -30 58 -23 85 -29 111 -24 23 4 41 2 51 -7 14 -12 16 -11 13
6 -5 24 -27 34 -151 74 -123 40 -162 40 -219 1 -52 -35 -87 -38 -123 -9 -51
40 -176 222 -163 236 9 8 196 -58 221 -78 l21 -17 -28 -22 c-18 -14 -25 -26
-19 -32 14 -14 53 0 92 33 l35 29 -34 30 c-19 16 -93 53 -165 82 -175 71 -193
90 -276 286 -18 41 -29 77 -25 80 6 6 133 -55 207 -99 109 -65 17 75 -117 179
l-30 23 29 -6 c15 -3 76 -28 135 -54z m-1454 -107 c-37 -218 -184 -757 -215
-788 -8 -8 -11 58 -8 260 l3 271 36 59 c20 32 55 94 78 137 24 42 53 90 67
106 13 16 24 35 24 43 0 20 12 30 23 19 5 -5 1 -50 -8 -107z m1206 103 c-1
-12 -15 -9 -19 4 -3 6 1 10 8 8 6 -3 11 -8 11 -12z m-636 -165 c-27 -147 -108
-358 -191 -500 -39 -66 -38 -44 1 34 47 93 98 251 135 414 16 74 38 155 47
180 l18 45 3 -43 c2 -23 -4 -82 -13 -130z m129 38 c21 -28 59 -92 85 -143 26
-50 108 -186 182 -302 150 -232 152 -235 146 -235 -3 0 -291 324 -350 395 -14
17 -29 27 -33 22 -15 -14 25 -75 120 -185 53 -60 96 -113 96 -117 0 -12 -53 5
-99 32 -62 36 -129 100 -133 126 -4 32 -48 37 -48 6 0 -52 76 -127 186 -182
72 -36 82 -52 47 -69 -15 -7 -34 -25 -42 -39 -23 -42 -7 -74 62 -125 34 -25
64 -48 66 -50 3 -3 -16 -24 -42 -48 -26 -23 -47 -48 -47 -55 0 -12 9 -20 80
-73 25 -19 46 -42 48 -51 2 -10 -10 -39 -27 -66 -45 -69 -40 -92 11 -52 23 18
88 128 88 147 0 5 -34 26 -75 47 -41 22 -75 45 -75 52 0 7 15 23 33 34 18 11
41 29 50 39 17 18 16 21 -20 53 -21 19 -59 50 -85 68 -27 19 -48 37 -48 41 0
8 110 87 127 92 6 2 57 -53 113 -122 207 -251 221 -278 227 -420 5 -111 -10
-151 -67 -185 -31 -17 -56 -20 -200 -23 -150 -3 -170 -2 -223 18 -32 12 -70
32 -85 45 -25 22 -26 25 -14 59 17 46 10 68 -34 101 l-36 27 48 42 c28 25 45
47 41 54 -4 6 -48 32 -98 59 -94 49 -142 93 -132 119 3 8 34 35 69 60 35 25
64 50 64 56 0 26 -123 -35 -166 -83 -10 -11 -18 -35 -18 -56 0 -45 34 -76 141
-129 l73 -36 -30 -38 c-38 -49 -38 -76 4 -125 l33 -39 -47 -38 c-70 -55 -71
-65 -11 -118 38 -34 51 -52 51 -73 0 -33 28 -47 98 -47 40 -1 44 -2 28 -12
-11 -6 -69 -11 -131 -12 -126 -1 -125 -1 -226 89 -94 84 -232 143 -258 111
-10 -12 -7 -17 16 -28 19 -9 29 -22 31 -42 3 -28 2 -29 -30 -22 -169 36 -180
35 -244 -25 l-54 -52 0 37 c0 38 2 40 110 136 l35 31 -42 -6 c-58 -9 -55 8 4
26 52 15 74 49 33 49 -12 0 -20 3 -18 8 2 4 44 69 95 145 52 78 104 170 119
210 15 40 69 160 121 267 134 275 196 441 224 593 6 34 13 65 15 69 11 18 32
5 68 -42z m2272 8 c24 -25 -85 -147 -168 -189 -32 -16 -84 -36 -115 -44 -89
-23 -93 -25 -93 -43 0 -31 276 -356 324 -381 75 -41 29 57 -94 194 -34 39 -66
78 -71 88 -22 41 14 9 120 -104 63 -66 125 -127 138 -136 53 -35 41 21 -22
105 -25 33 -45 63 -45 66 0 3 16 0 35 -8 19 -8 37 -11 40 -7 10 18 -37 60 -84
76 -50 16 -88 45 -60 45 8 0 49 -7 92 -15 43 -8 85 -15 92 -15 8 0 32 33 54
73 64 113 83 130 95 85 11 -42 6 -65 -18 -91 -26 -28 -31 -50 -46 -202 -12
-112 -34 -170 -83 -211 -94 -79 -193 -84 -329 -17 -107 54 -203 131 -185 149
2 2 25 -12 51 -31 56 -39 199 -114 268 -140 45 -17 49 -17 73 -1 31 21 28 41
-7 42 -14 1 -34 7 -45 15 -33 23 -179 197 -254 301 -38 53 -74 100 -79 103
-29 18 1 -91 60 -219 17 -37 29 -71 26 -73 -10 -10 -65 58 -95 118 -16 33 -35
84 -41 115 -10 48 -9 64 9 122 11 37 28 78 37 91 19 26 71 51 106 51 22 -1 22
-1 -4 -16 -40 -21 -35 -27 17 -19 51 7 110 30 120 44 10 17 -32 31 -94 31 -34
0 -61 4 -61 9 0 13 25 31 57 41 33 11 268 8 279 -2z m-456 -77 c0 -12 -20 -25
-27 -18 -7 7 6 27 18 27 5 0 9 -4 9 -9z m480 -20 c-10 -20 -30 -29 -30 -14 0
10 33 44 37 39 3 -2 0 -14 -7 -25z m-1740 -118 c27 -73 35 -113 22 -113 -22 0
-44 54 -55 133 -8 55 9 45 33 -20z m606 -82 c-10 -65 -26 -59 -26 10 1 60 2
63 16 44 10 -13 14 -32 10 -54z m549 20 c-4 -23 -11 -41 -16 -41 -11 0 -11 6
2 53 13 50 23 41 14 -12z m490 -11 c9 -15 -38 -12 -60 3 -29 22 -9 40 25 22
16 -8 32 -19 35 -25z m-2500 -64 c-23 -54 -28 -39 -8 20 9 27 19 42 20 34 2
-9 -3 -33 -12 -54z m1930 -28 c0 -77 4 -101 23 -140 21 -42 89 -142 144 -210
12 -15 18 -31 14 -35 -4 -5 -13 0 -20 10 -7 9 -22 17 -33 17 -12 0 -39 22 -68
55 -25 30 -51 55 -56 55 -5 0 -9 -17 -9 -37 0 -30 -3 -35 -12 -25 -15 15 -18
301 -5 365 13 63 22 41 22 -55z m-1280 -94 c76 -113 98 -153 77 -140 -14 8
-179 257 -188 282 -9 30 26 -15 111 -142z m2170 59 c-8 -73 -25 -94 -25 -32 0
54 9 89 22 89 7 0 8 -21 3 -57z m-815 11 c0 -14 -4 -22 -10 -19 -5 3 -10 17
-10 31 0 14 4 22 10 19 6 -3 10 -17 10 -31z m94 -101 c4 -14 3 -23 -3 -23 -9
0 -31 61 -31 85 1 12 25 -32 34 -62z m-1307 -35 c27 -24 66 -57 88 -75 40 -32
40 -32 13 -33 -40 0 -78 20 -94 52 -8 15 -28 44 -45 63 -43 48 -20 44 38 -7z
m1277 -37 c-6 -6 -24 19 -24 34 1 6 7 1 15 -9 8 -11 12 -22 9 -25z m-2149 -86
c-10 -19 -22 -35 -26 -35 -10 0 7 48 23 67 20 25 22 3 3 -32z m1275 9 c0 -8
-4 -12 -10 -9 -5 3 -10 10 -10 16 0 5 5 9 10 9 6 0 10 -7 10 -16z m-253 -112
c42 -52 63 -121 48 -159 -5 -14 -17 2 -49 62 -23 44 -52 96 -64 115 -52 83 -8
70 65 -18z m-1103 -69 c-55 -119 -110 -221 -170 -314 -93 -143 -59 -58 59 148
47 82 95 168 107 193 22 44 39 70 46 70 2 0 -17 -44 -42 -97z m-3322 -231 c76
-61 153 -140 144 -149 -2 -3 -37 21 -76 54 -40 32 -90 73 -113 91 -41 32 -59
62 -38 62 5 0 43 -26 83 -58z m4507 -29 c0 -42 -3 -52 -9 -38 -12 28 -12 95 0
95 6 0 10 -25 9 -57z m-1754 -135 c-7 -58 -40 -215 -51 -241 -10 -26 -24 -20
-24 11 0 42 66 282 78 282 2 0 1 -24 -3 -52z m1069 -167 c11 -12 15 -21 9 -21
-14 0 -63 39 -63 51 0 13 30 -4 54 -30z m149 -78 c14 -8 7 -21 -10 -18 -10 2
-35 7 -55 10 -21 3 -38 11 -38 17 0 10 84 3 103 -9z m302 7 c4 -6 -6 -10 -22
-10 -22 0 -25 2 -13 10 19 12 27 12 35 0z m-1348 -55 c-4 -8 -17 -15 -29 -15
l-23 1 24 20 c26 21 37 19 28 -6z m-282 -358 c-8 -77 -15 -165 -16 -196 0 -54
-27 -151 -28 -105 -2 44 -35 117 -69 151 l-35 35 13 57 c11 52 108 333 134
391 18 41 19 -170 1 -333z m440 313 c-3 -5 -13 -10 -21 -10 -8 0 -12 5 -9 10
3 6 13 10 21 10 8 0 12 -4 9 -10z m-112 -234 c37 -71 90 -163 118 -205 27 -42
51 -85 54 -96 8 -42 23 -240 19 -244 -11 -11 -25 20 -37 87 -16 83 -28 102
-52 82 -21 -17 -23 -14 -141 213 -95 181 -145 259 -158 246 -4 -4 63 -146 149
-316 l156 -310 -3 -163 -3 -164 -114 230 c-234 474 -255 522 -255 591 0 51 5
69 29 103 16 23 36 45 46 51 23 12 90 28 109 25 8 0 46 -59 83 -130z m-189
-474 c74 -297 70 -278 52 -263 -8 7 -47 78 -88 158 l-73 146 1 91 c0 50 7 105
14 121 l12 30 14 -33 c8 -17 38 -130 68 -250z m-1841 190 c163 -88 286 -139
427 -177 231 -63 445 -152 475 -199 9 -13 28 -26 43 -30 29 -6 69 -33 61 -40
-3 -3 -76 26 -164 63 -88 37 -254 101 -370 141 -246 86 -383 144 -480 205 -67
43 -157 114 -144 115 4 0 72 -35 152 -78z m1577 -17 c18 -19 24 -37 24 -73 1
-44 -1 -47 -27 -50 -28 -3 -87 17 -87 30 0 17 50 118 58 118 5 0 19 -11 32
-25z m98 -176 c1 -13 -2 -30 -7 -38 -11 -17 -102 -38 -205 -47 -76 -7 -80 -6
-67 10 24 28 84 54 154 66 36 7 74 18 84 26 24 18 37 13 41 -17z m523 -166
c11 -30 3 -103 -12 -103 -5 0 -9 29 -9 65 0 36 2 65 5 65 3 0 10 -12 16 -27z
m881 -621 c25 -27 51 -59 58 -73 l13 -24 -28 25 c-42 38 -108 120 -97 120 5 0
30 -22 54 -48z m-878 -14 c-28 -29 -83 -92 -123 -140 -119 -143 -401 -404
-401 -371 0 5 52 60 116 123 128 128 231 245 291 334 32 47 50 63 94 82 30 13
58 23 64 24 5 0 -13 -24 -41 -52z m866 -73 c13 -14 21 -25 18 -25 -2 0 -15 11
-28 25 -13 14 -21 25 -18 25 2 0 15 -11 28 -25z m544 -376 c15 -12 25 -24 22
-26 -3 -3 -19 6 -36 21 -37 31 -25 35 14 5z m96 -64 c17 -20 -9 -21 -36 0 -19
14 -19 14 2 15 12 0 27 -7 34 -15z m311 -152 c60 -31 109 -60 109 -64 0 -16
-159 62 -215 105 -38 30 -2 16 106 -41z m937 -9 c12 -8 22 -20 22 -26 0 -6
-30 -44 -67 -83 -38 -40 -77 -87 -88 -105 -30 -51 -100 -89 -181 -101 -86 -12
-100 -24 -35 -32 102 -12 120 -46 39 -72 -29 -10 -114 -49 -188 -86 -145 -74
-152 -76 -392 -94 l-88 -7 0 35 c0 51 7 64 58 103 l45 34 34 -26 c33 -25 59
-26 35 -2 -19 19 -15 26 32 47 52 22 72 50 82 108 3 23 16 51 28 62 26 24 389
211 410 211 9 0 16 -3 16 -8 0 -4 -32 -46 -70 -92 -39 -47 -66 -86 -60 -88 18
-6 100 68 162 147 33 42 72 81 87 88 30 14 85 7 119 -13z m-3455 -30 c11 -12
-17 -55 -48 -74 -39 -24 -95 -27 -95 -6 0 34 121 101 143 80z m3617 -43 c0
-13 -50 -51 -66 -51 -17 0 -17 1 -4 34 7 20 16 26 40 26 16 0 30 -4 30 -9z
m-3550 -62 c0 -12 -67 -42 -83 -36 -12 4 52 47 71 47 6 0 12 -5 12 -11z m-170
-40 c0 -5 -25 -22 -56 -36 -43 -19 -58 -23 -67 -13 -20 20 36 60 84 60 21 0
39 -5 39 -11z m3660 -6 c0 -46 -135 -127 -235 -140 l-40 -6 24 27 c33 36 109
83 179 112 68 28 72 29 72 7z m-3860 -106 c0 -20 -8 -41 -18 -50 -24 -22 -102
-49 -121 -42 -21 8 0 26 41 34 42 9 47 33 11 51 l-28 13 45 13 c67 18 70 18
70 -19z m-237 -54 c-7 -2 -21 -2 -30 0 -10 3 -4 5 12 5 17 0 24 -2 18 -5z
m-513 -19 c45 -18 47 -34 7 -48 -48 -17 -130 39 -84 57 21 9 36 7 77 -9z
m4272 -140 c18 -10 33 -31 48 -70 35 -95 36 -134 6 -199 -14 -32 -29 -55 -32
-52 -12 11 -134 302 -134 318 0 9 3 19 7 22 9 9 71 -2 105 -19z m503 -101
c-64 -162 -102 -252 -184 -435 -39 -86 -71 -164 -71 -173 0 -37 36 -6 81 71
50 85 132 184 144 173 6 -7 -65 -152 -160 -327 -34 -63 -45 -95 -45 -127 0
-24 4 -46 8 -49 5 -3 43 6 86 20 42 13 93 24 114 24 l36 0 -34 -30 c-58 -50
-177 -130 -222 -150 -29 -12 -88 -22 -183 -29 -77 -7 -189 -18 -249 -27 -61
-8 -120 -13 -132 -10 -33 9 -72 51 -206 227 -66 88 -167 209 -224 269 -57 60
-104 112 -104 115 0 4 14 -2 32 -12 56 -31 206 -192 310 -330 92 -124 118
-150 118 -121 0 15 -202 387 -249 458 -20 30 -52 76 -70 102 -19 27 -32 50
-30 52 7 6 233 -31 364 -60 85 -18 149 -26 220 -26 73 0 105 -4 123 -16 22
-14 27 -14 58 3 19 10 105 99 190 197 86 98 158 178 161 178 2 0 -4 -15 -15
-32 -11 -18 -48 -80 -82 -138 -34 -57 -79 -123 -100 -146 -40 -44 -80 -112
-80 -138 0 -19 23 -33 28 -18 2 7 53 81 112 165 100 140 192 285 263 417 16
29 31 50 33 47 3 -3 -15 -58 -41 -124z m80 -71 c-20 -108 -43 -160 -84 -195
-54 -45 -60 -38 -35 36 19 56 31 66 43 35 9 -22 10 -22 24 12 8 19 18 60 22
90 4 30 14 87 23 125 17 70 17 70 20 27 2 -23 -4 -82 -13 -130z m-733 77 c48
-94 30 -107 -22 -16 -16 29 -30 58 -30 65 0 28 26 3 52 -49z m-3392 -51 c28
-63 70 -215 70 -253 0 -36 -16 -53 -77 -84 -60 -30 -71 -27 -78 17 -4 20 -24
101 -46 180 -21 78 -39 146 -39 151 0 15 45 30 98 30 53 1 53 1 72 -41z m3775
32 c-3 -5 -16 -15 -28 -21 -22 -12 -22 -12 -3 10 19 21 43 30 31 11z m-4030
-11 c9 -14 -5 -169 -15 -169 -10 0 -33 157 -25 170 8 13 32 13 40 -1z m4081
-36 c-8 -16 -38 -53 -66 -83 l-51 -55 31 48 c32 49 88 117 96 117 3 0 -2 -12
-10 -27z m-3120 -8 c3 -13 1 -73 -6 -132 -35 -317 -90 -553 -140 -598 -19 -18
-20 -17 -20 10 0 23 -3 26 -23 22 -12 -4 -29 -2 -37 3 -13 8 -13 13 -2 30 7
11 10 25 7 30 -8 12 -31 3 -88 -36 -29 -20 -66 -35 -95 -39 -26 -4 -55 -9 -64
-12 -10 -2 -18 -1 -18 4 0 4 71 41 158 81 169 78 222 107 222 121 0 16 -83 21
-175 11 -49 -5 -97 -10 -105 -10 -23 0 35 36 145 90 105 51 175 102 175 126 0
20 -36 18 -142 -7 -49 -12 -91 -19 -94 -16 -2 2 29 27 70 56 42 28 78 56 81
61 3 6 17 10 31 10 21 0 24 5 24 33 0 28 6 36 38 52 37 19 37 19 10 23 -36 4
-70 -15 -153 -89 -38 -34 -104 -83 -145 -110 -133 -86 -153 -100 -144 -109 5
-5 28 -5 54 1 178 40 260 56 260 49 0 -4 -75 -42 -167 -85 -191 -87 -213 -100
-213 -120 0 -20 89 -20 229 0 158 23 156 21 -104 -90 -269 -115 -283 -130
-115 -123 158 6 150 -4 -39 -56 -67 -18 -116 -37 -119 -45 -11 -32 211 19 349
80 68 29 116 38 104 18 -9 -14 -99 -53 -225 -97 l-105 -36 -157 2 c-88 1 -158
-2 -158 -7 0 -18 27 -29 90 -36 79 -9 92 -15 120 -60 12 -19 43 -49 71 -66 27
-18 49 -38 49 -45 0 -7 -14 -24 -32 -39 -29 -24 -35 -26 -97 -20 -82 8 -198
47 -378 126 -76 34 -156 68 -178 77 -52 20 -107 64 -233 186 -106 103 -167
188 -215 301 -38 89 -107 277 -107 292 0 33 103 8 290 -72 315 -133 565 -218
650 -219 68 -1 143 28 330 127 128 68 141 77 256 194 129 130 201 183 246 183
21 0 29 -6 34 -25z m-1808 -77 c14 -14 16 -48 2 -48 -10 0 -30 32 -30 49 0 14
13 14 28 -1z m931 -90 c24 -73 25 -123 2 -123 -18 0 -29 39 -37 135 -8 89 4
86 35 -12z m4301 -168 c-17 -167 -38 -276 -61 -322 -21 -41 -52 -60 -121 -73
-59 -11 -65 2 -20 49 59 62 159 201 172 240 13 40 7 56 -19 56 -10 0 -24 7
-31 15 -10 11 -8 19 7 39 11 14 33 60 49 103 27 73 29 76 32 43 2 -19 -2 -87
-8 -150z m-1505 115 c70 -50 145 -127 145 -151 0 -18 2 -20 -80 47 -25 20 -60
44 -77 53 -18 9 -33 23 -33 30 0 8 -13 26 -30 39 -16 14 -30 28 -30 30 0 13
52 -10 105 -48z m793 49 c33 -9 27 -31 -10 -37 -35 -5 -237 9 -245 17 -2 2 31
7 74 11 43 3 83 8 88 10 17 6 69 5 93 -1z m-378 -35 c10 -7 -9 -8 -55 -4 -38
4 -77 11 -85 16 -10 7 9 8 55 4 39 -4 77 -11 85 -16z m-279 -35 c21 -25 -17
-17 -48 11 l-28 25 32 -11 c17 -6 37 -17 44 -25z m-3409 1 c49 -9 166 -38 260
-64 95 -27 210 -57 255 -67 45 -9 80 -20 78 -24 -2 -4 -31 -15 -64 -25 l-60
-18 -163 52 c-188 61 -429 149 -443 162 -10 10 -9 10 137 -16z m4108 -15 c-8
-5 -64 -9 -125 -9 -75 1 -99 4 -75 9 55 12 218 12 200 0z m-597 -149 c9 -16
17 -33 17 -38 -1 -9 -26 21 -41 50 -17 29 6 19 24 -12z m1197 -24 c0 -22 -197
-293 -206 -284 -5 5 101 201 138 255 28 41 68 58 68 29z m130 -153 c0 -141 -1
-145 -18 -124 -36 45 -61 4 -97 -155 -26 -114 -17 -105 -100 -105 -41 0 -76 4
-79 9 -7 11 29 42 79 70 70 39 113 124 167 332 17 65 35 119 40 119 4 0 8 -66
8 -146z m-53 -271 c-5 -61 -24 -113 -39 -113 -5 0 -7 15 -3 33 12 59 35 137
42 137 3 0 3 -26 0 -57z m-3707 -2 c0 -4 -18 -21 -40 -36 -30 -21 -55 -28
-107 -32 -39 -3 -64 -2 -60 3 10 10 175 73 195 73 6 1 12 -3 12 -8z m-166
-129 c12 -7 -64 -52 -88 -52 -20 0 -96 40 -96 50 0 18 22 21 95 15 44 -4 84
-10 89 -13z m3715 -42 c43 -22 23 -37 -84 -63 -129 -32 -159 -46 -163 -74 -3
-21 0 -22 90 -23 51 0 111 -4 133 -8 33 -7 21 -9 -68 -14 -102 -6 -128 -11
-115 -24 3 -3 82 -27 174 -54 93 -27 201 -60 239 -74 l70 -25 -52 0 c-29 -1
-53 -6 -53 -11 0 -19 51 -30 138 -30 l86 0 -63 64 c-35 35 -61 69 -57 74 14
23 153 -30 272 -104 93 -58 143 -77 277 -103 143 -29 189 -47 185 -75 -9 -65
-212 -83 -523 -46 -99 12 -292 25 -430 30 -137 6 -263 12 -279 16 -44 10 -28
-16 32 -50 28 -16 49 -33 46 -38 -3 -4 -32 -8 -64 -8 -53 0 -61 3 -84 30 -52
62 -40 143 22 155 64 13 130 66 114 92 -5 8 -25 1 -64 -24 -83 -52 -101 -42
-119 67 -6 38 -16 60 -31 72 -22 16 -22 17 -3 23 37 12 50 22 73 55 28 42 28
50 -1 50 -37 0 -40 13 -6 27 50 21 31 38 -47 41 -122 4 -148 20 -70 42 104 29
378 36 425 10z m-519 -8 c0 -12 -55 -42 -77 -42 -11 0 -28 6 -39 14 -18 14
-18 15 11 21 17 4 35 8 40 10 20 7 65 5 65 -3z m680 -36 c0 -7 -19 -31 -41
-51 -42 -38 -42 -38 -110 -32 -93 8 -117 22 -53 31 27 4 81 20 119 35 84 35
85 35 85 17z m10 -110 c-15 -40 -13 -51 15 -84 34 -40 33 -60 -1 -37 -14 9
-56 24 -92 33 -69 17 -84 35 -35 40 57 5 71 13 92 48 25 41 37 41 21 0z
m-4369 13 c20 -10 17 -29 -4 -29 -21 0 -40 17 -33 29 9 14 12 14 37 0z m3827
-20 c-2 -7 -27 -22 -54 -34 -44 -19 -54 -21 -75 -10 l-24 13 30 7 c17 3 48 12
70 20 51 17 58 18 53 4z m-3485 -70 c18 -22 23 -74 8 -83 -5 -3 -48 8 -96 25
-140 48 -190 28 -70 -29 183 -85 183 -86 169 -159 -9 -47 -10 -48 -44 -47 -48
1 -232 38 -305 61 -43 13 -63 26 -72 43 -18 36 -17 174 1 189 21 17 164 30
286 26 93 -4 107 -7 123 -26z m97 -85 c0 -25 -4 -43 -9 -40 -12 7 -24 74 -16
86 13 21 25 -2 25 -46z m3370 16 c0 -11 -60 -29 -77 -22 -20 7 -15 20 10 25
42 8 67 7 67 -3z m2048 -126 c12 -4 22 -10 22 -16 0 -10 -97 0 -120 13 -18 10
62 12 98 3z m-202 -30 c18 -14 16 -15 -25 -10 -24 2 -48 9 -54 15 -18 18 56
13 79 -5z m357 -11 c-7 -2 -19 -2 -25 0 -7 3 -2 5 12 5 14 0 19 -2 13 -5z
m-527 -18 c18 -13 17 -14 -18 -15 -27 0 -38 4 -38 15 0 19 30 19 56 0z m307 8
c-7 -2 -21 -2 -30 0 -10 3 -4 5 12 5 17 0 24 -2 18 -5z m-5295 -143 c28 -148
36 -220 23 -220 -6 0 -15 19 -21 43 -6 23 -18 65 -25 92 -21 75 -28 141 -20
182 9 52 19 30 43 -97z m5117 119 c11 -17 2 -18 -19 -3 -17 12 -17 14 -4 14 9
0 20 -5 23 -11z m-5477 -55 c133 -27 205 -76 154 -103 -14 -7 -42 -6 -96 3
-125 22 -110 -16 36 -88 66 -33 84 -46 86 -65 2 -14 11 -35 19 -48 25 -37 5
-47 -85 -46 -101 3 -132 -13 -267 -131 -83 -72 -123 -99 -178 -122 -68 -27
-81 -28 -247 -31 -209 -3 -192 13 24 23 232 11 220 31 -24 42 l-142 7 123 81
c68 45 144 99 169 121 25 22 79 62 120 90 109 73 129 102 47 68 -20 -8 -43
-15 -52 -15 -23 0 -4 33 56 97 42 44 49 58 49 92 l0 41 65 0 c36 0 100 -7 143
-16z m5382 -4 c17 -5 1 -8 -50 -8 -54 0 -67 2 -45 8 39 10 64 10 95 0z m-167
-7 c-7 -2 -19 -2 -25 0 -7 3 -2 5 12 5 14 0 19 -2 13 -5z m-1050 -50 c-7 -2
-19 -2 -25 0 -7 3 -2 5 12 5 14 0 19 -2 13 -5z m-3895 -65 c-2 -13 -7 -23 -13
-23 -5 0 -11 10 -13 23 -2 15 2 22 13 22 11 0 15 -7 13 -22z m1409 -84 c-3 -3
-12 -4 -19 -1 -8 3 -5 6 6 6 11 1 17 -2 13 -5z m-368 -53 c12 -8 9 -11 -13
-17 -38 -9 -165 1 -179 15 -14 14 170 16 192 2z m-1249 -131 c0 -15 -59 -42
-83 -37 -18 3 -14 7 23 25 51 24 60 26 60 12z m190 0 c0 -5 -7 -10 -15 -10 -8
0 -15 5 -15 10 0 6 7 10 15 10 8 0 15 -4 15 -10z m70 -75 c0 -16 -35 -21 -44
-6 -8 12 4 21 26 21 10 0 18 -7 18 -15z m-340 -124 c0 -12 -20 -25 -27 -18 -7
7 6 27 18 27 5 0 9 -4 9 -9z m-657 -108 c-7 -2 -19 -2 -25 0 -7 3 -2 5 12 5
14 0 19 -2 13 -5z"/>
<path d="M3276 9555 c-61 -25 -84 -40 -74 -50 3 -4 34 -10 67 -15 67 -9 148 7
170 34 18 22 -12 27 -64 12 -47 -15 -59 -9 -25 12 11 7 20 17 20 22 0 16 -31
11 -94 -15z"/>
<path d="M3355 9440 c-17 -5 -44 -23 -60 -40 -28 -29 -30 -36 -30 -112 0 -53
4 -83 12 -85 6 -2 23 -15 38 -29 14 -13 30 -24 36 -24 5 0 23 -13 40 -30 29
-27 33 -28 58 -16 36 19 56 43 80 96 27 59 26 106 -1 160 -38 73 -101 102
-173 80z"/>
<path d="M1225 7235 c-62 -75 -163 -255 -196 -347 -18 -49 -34 -88 -37 -88 -3
0 -11 8 -18 18 -11 15 -17 8 -48 -60 -20 -42 -36 -79 -36 -82 0 -13 34 -5 62
16 34 23 113 181 162 319 17 47 42 93 69 124 l42 49 5 -54 5 -55 23 69 c23 70
29 136 13 136 -5 0 -26 -20 -46 -45z"/>
<path d="M1282 7065 c-62 -47 -122 -108 -122 -125 0 -25 34 -4 114 71 80 76
99 99 77 99 -5 0 -36 -20 -69 -45z"/>
<path d="M1370 6682 c0 -21 98 -168 239 -357 70 -93 147 -199 172 -234 24 -36
50 -66 57 -69 26 -8 10 29 -45 105 -390 538 -422 580 -423 555z"/>
<path d="M1770 6484 c0 -8 5 -12 10 -9 6 3 10 10 10 16 0 5 -4 9 -10 9 -5 0
-10 -7 -10 -16z"/>
<path d="M1300 6471 c0 -5 71 -93 159 -195 87 -102 187 -222 222 -267 95 -121
114 -142 128 -138 15 5 -70 121 -176 242 -37 43 -83 99 -101 125 -73 103 -232
263 -232 233z"/>
<path d="M760 6318 c0 -30 1 -31 16 -16 9 9 14 24 11 32 -11 27 -27 17 -27
-16z"/>
<path d="M1200 6290 c0 -7 30 -46 68 -87 47 -53 68 -71 70 -59 2 9 -15 39 -38
66 -46 55 -100 98 -100 80z"/>
<path d="M1370 6108 c0 -18 91 -122 121 -139 34 -18 20 5 -51 81 -43 46 -69
69 -70 58z"/>
<path d="M1140 6085 c0 -17 72 -95 88 -95 17 0 15 13 -5 31 -10 9 -26 30 -35
48 -17 32 -48 43 -48 16z"/>
<path d="M1287 5926 c29 -51 522 -568 523 -548 0 7 -44 59 -98 115 -54 56
-111 120 -127 142 -36 49 -285 305 -297 305 -5 0 -5 -6 -1 -14z"/>
<path d="M1580 5884 c0 -5 26 -38 58 -74 31 -36 69 -81 83 -99 32 -40 57 -35
35 7 -22 41 -176 186 -176 166z"/>
<path d="M320 5854 c-21 -55 -10 -114 22 -114 11 0 31 -9 45 -20 36 -28 67
-25 97 11 29 35 34 64 10 73 -27 10 -34 7 -34 -17 0 -13 -9 -32 -19 -41 -19
-17 -20 -17 -30 3 -6 11 -11 33 -11 50 0 24 4 31 20 31 34 0 22 16 -23 34 -57
21 -66 20 -77 -10z"/>
<path d="M1080 5835 c0 -11 151 -174 182 -196 45 -33 32 -5 -28 60 -59 64
-154 148 -154 136z"/>
<path d="M2170 5713 c-19 -62 -63 -238 -135 -541 -14 -62 -25 -122 -23 -135 3
-21 4 -20 20 8 25 46 178 666 178 720 0 37 -21 9 -40 -52z"/>
<path d="M1370 5541 c0 -6 26 -38 58 -73 64 -67 94 -67 36 0 -40 47 -94 89
-94 73z"/>
<path d="M610 5478 c-29 -47 -34 -89 -17 -129 l15 -34 1 76 1 76 50 7 c28 4
57 9 65 12 28 11 4 24 -46 24 -45 0 -51 -3 -69 -32z"/>
<path d="M1150 5491 c0 -11 71 -75 99 -91 36 -19 25 9 -23 56 -40 40 -76 57
-76 35z"/>
<path d="M847 5432 c28 -26 56 -57 62 -69 15 -30 14 -87 -2 -126 -16 -36 -89
-107 -112 -107 -21 0 -19 -13 6 -28 27 -17 44 -3 105 89 35 54 44 75 44 111 0
54 -43 128 -92 158 -59 36 -64 21 -11 -28z"/>
<path d="M625 5400 c-7 -11 12 -51 29 -62 37 -25 49 14 16 50 -23 24 -35 27
-45 12z"/>
<path d="M1529 5372 c13 -25 40 -46 48 -39 9 10 -26 57 -43 57 -11 0 -12 -4
-5 -18z"/>
<path d="M775 5351 c-7 -13 17 -24 40 -19 9 1 16 8 16 13 0 14 -48 19 -56 6z"/>
<path d="M1620 5280 c0 -13 68 -88 92 -101 30 -16 22 7 -19 51 -40 45 -73 67
-73 50z"/>
<path d="M571 5220 c-30 -41 -41 -90 -21 -90 5 0 12 11 16 24 3 13 16 34 29
46 l23 22 42 -31 c46 -33 77 -39 86 -17 7 19 -12 53 -37 67 -15 7 -29 7 -51 0
-26 -9 -33 -8 -43 6 -11 15 -16 12 -44 -27z"/>
<path d="M1013 5240 c-49 -22 -59 -46 -15 -35 44 11 92 37 86 46 -8 13 -24 11
-71 -11z"/>
<path d="M1296 5174 c-39 -38 -9 -128 85 -254 38 -52 91 -130 117 -173 51 -86
84 -126 90 -109 6 18 -36 90 -153 263 -114 167 -137 217 -115 244 22 27 90 11
90 -20 0 -18 -2 -18 -35 -3 -43 20 -38 2 17 -53 60 -61 172 -216 218 -301 22
-40 37 -58 51 -58 10 0 19 3 19 6 0 3 -47 78 -104 167 -58 89 -118 190 -135
224 -17 34 -40 67 -50 73 -29 15 -77 12 -95 -6z"/>
<path d="M1022 5160 c-19 -4 -39 -13 -45 -20 -10 -10 8 -11 83 -5 99 7 110 10
110 26 0 11 -101 10 -148 -1z"/>
<path d="M1500 5158 c0 -18 18 -34 28 -24 3 4 -2 14 -11 23 -16 16 -17 16 -17
1z"/>
<path d="M1550 5112 c0 -10 22 -32 32 -32 4 0 5 6 2 14 -6 16 -34 30 -34 18z"/>
<path d="M654 5060 c-33 -13 -39 -30 -10 -30 33 0 76 17 76 30 0 12 -36 12
-66 0z"/>
<path d="M1773 5038 c-17 -18 -36 -43 -42 -55 -17 -34 -15 -297 4 -332 23 -45
85 -55 284 -48 157 5 231 18 231 38 0 13 -59 11 -217 -6 -145 -17 -183 -14
-183 11 0 8 -7 28 -15 44 -15 29 -15 30 10 30 42 0 88 25 128 69 45 50 57 78
57 134 0 86 -72 146 -176 147 -44 0 -54 -4 -81 -32z m154 -19 c91 -44 98 -130
17 -218 -41 -46 -63 -50 -149 -28 -59 16 -63 28 -45 140 21 119 78 154 177
106z m-126 -345 c12 -14 11 -16 -5 -13 -11 2 -21 10 -24 17 -5 17 13 15 29 -4z"/>
<path d="M1800 4955 c0 -8 9 -19 20 -25 16 -9 22 -8 26 4 3 8 3 20 -1 26 -9
15 -45 12 -45 -5z"/>
<path d="M1901 4931 c-21 -14 -5 -43 21 -39 15 2 23 10 23 23 0 22 -22 30 -44
16z"/>
<path d="M1787 4843 c-12 -12 -7 -22 19 -39 32 -21 52 -7 35 25 -11 20 -41 28
-54 14z"/>
<path d="M2181 4729 c-13 -5 -81 -18 -150 -30 -69 -11 -130 -25 -136 -31 -15
-16 185 -1 280 21 90 22 96 20 135 -46 21 -37 23 -33 -29 -49 -25 -8 9 -34 45
-34 27 0 35 5 40 25 8 31 -28 107 -63 135 -28 21 -81 25 -122 9z"/>
<path d="M2481 4568 c-13 -36 -8 -46 14 -28 16 13 21 60 6 60 -5 0 -14 -14
-20 -32z"/>
<path d="M1916 4542 c-7 -13 21 -63 57 -100 40 -41 108 -74 144 -70 66 7 25
105 -65 156 -60 34 -62 8 -2 -29 74 -45 90 -91 26 -75 -31 8 -106 84 -106 107
0 13 -7 19 -24 19 -14 0 -27 -4 -30 -8z"/>
<path d="M3806 6168 c10 -22 96 -80 110 -74 21 8 2 39 -40 65 -37 23 -79 28
-70 9z"/>
<path d="M1270 2152 c0 -11 63 -56 190 -134 132 -81 203 -118 231 -118 40 0
12 24 -107 90 -65 37 -157 90 -204 118 -82 50 -110 61 -110 44z"/>
<path d="M1752 309 c-19 -6 -30 -14 -26 -21 7 -10 148 -3 181 9 51 20 -90 30
-155 12z"/>
<path d="M3732 10670 c-45 -4 -86 -10 -89 -14 -19 -18 31 -25 222 -29 192 -3
217 -6 299 -31 108 -33 205 -81 356 -175 140 -88 294 -165 375 -186 33 -9 101
-18 150 -21 83 -6 96 -9 167 -50 43 -24 82 -44 87 -44 13 0 99 -97 117 -132
18 -34 34 -36 34 -5 0 59 -114 164 -263 241 -89 47 -466 180 -494 174 -34 -6
140 -87 255 -117 53 -15 56 -32 2 -20 -103 23 -268 101 -437 205 -180 111
-326 176 -435 193 -92 14 -251 20 -346 11z"/>
<path d="M5975 10522 c6 -5 41 -27 79 -48 74 -40 87 -29 20 18 -38 27 -120 52
-99 30z"/>
<path d="M6456 9905 c-9 -26 -7 -188 4 -205 16 -25 25 17 25 112 0 85 -14 131
-29 93z"/>
<path d="M6117 9770 c5 -96 3 -121 -11 -148 -14 -27 -14 -32 -2 -32 19 0 55
50 62 89 7 34 -21 160 -41 188 -12 15 -13 1 -8 -97z"/>
<path d="M4941 9801 c-22 -14 -3 -31 35 -31 32 0 94 23 94 35 0 9 -115 5 -129
-4z"/>
<path d="M5247 9673 c11 -31 124 -167 153 -186 34 -22 130 -35 130 -18 0 6
-12 16 -27 22 -73 29 -101 50 -161 122 -37 44 -73 77 -83 77 -13 0 -17 -5 -12
-17z"/>
<path d="M6395 9660 c-12 -4 -27 -15 -34 -24 -12 -14 -11 -16 6 -16 24 0 57
23 52 37 -2 6 -12 7 -24 3z"/>
<path d="M4687 4954 c-4 -4 -7 -14 -7 -23 0 -11 3 -12 11 -4 6 6 10 16 7 23
-2 6 -7 8 -11 4z"/>
<path d="M4780 4744 c0 -3 96 -104 214 -224 216 -221 272 -287 408 -485 107
-157 168 -256 239 -391 90 -174 109 -205 119 -199 13 8 -37 146 -94 259 -113
222 -323 502 -619 826 -130 143 -267 252 -267 214z"/>
<path d="M4280 4365 c-13 -13 -27 -22 -32 -19 -14 9 -38 -62 -37 -113 1 -44 1
-46 11 -20 15 42 27 32 17 -15 -15 -69 -40 -139 -70 -200 -16 -32 -29 -65 -29
-74 0 -32 46 23 89 105 47 91 80 197 88 284 7 74 -3 88 -37 52z"/>
<path d="M2710 4360 c0 -33 193 -418 231 -462 l20 -23 -6 30 c-9 43 -218 459
-232 463 -7 2 -13 -2 -13 -8z"/>
<path d="M4462 4353 c4 -24 848 -698 955 -764 12 -7 25 -10 29 -6 12 11 -31
51 -171 160 -71 56 -175 140 -230 187 -144 124 -234 194 -375 292 -69 48 -141
101 -159 117 -39 35 -54 39 -49 14z"/>
<path d="M2435 4293 c9 -38 173 -369 230 -465 25 -43 52 -78 60 -78 11 0 12 6
6 23 -17 43 -193 391 -238 470 -46 78 -71 100 -58 50z"/>
<path d="M1835 4226 c-46 -46 -149 -296 -130 -315 8 -8 33 31 51 79 8 25 38
91 66 148 28 56 48 105 45 108 -3 4 -18 -6 -32 -20z"/>
<path d="M2040 4183 c0 -18 88 -187 156 -300 24 -39 44 -84 44 -100 0 -38 14
-57 35 -50 11 5 14 13 10 29 -10 35 -130 272 -182 360 -46 77 -63 94 -63 61z"/>
<path d="M2197 4143 c-11 -17 195 -421 224 -439 27 -16 13 19 -80 204 -103
203 -133 253 -144 235z"/>
<path d="M2350 4121 c0 -20 196 -396 209 -399 11 -4 12 2 7 24 -9 38 -126 276
-165 337 -28 43 -51 60 -51 38z"/>
<path d="M4500 4106 c0 -19 56 -69 406 -363 164 -138 335 -283 379 -322 77
-68 95 -80 95 -63 0 14 -190 196 -295 283 -55 46 -137 115 -182 154 -45 38
-106 89 -135 112 -29 23 -98 81 -153 127 -55 47 -103 86 -107 86 -5 0 -8 -6
-8 -14z"/>
<path d="M1977 4094 c-3 -4 6 -32 22 -63 15 -31 47 -104 71 -164 23 -59 46
-110 51 -113 28 -17 -12 117 -71 242 -38 79 -61 110 -73 98z"/>
<path d="M1937 3916 c-12 -31 28 -116 55 -116 14 0 9 29 -13 81 -22 51 -33 59
-42 35z"/>
<path d="M2514 2727 c-3 -9 -4 -24 -2 -34 3 -16 5 -15 17 6 9 16 10 26 2 34
-7 7 -12 6 -17 -6z"/>
</g>
</svg>
