<?xml version="1.0" standalone="no"?>
<!DOCTYPE svg PUBLIC "-//W3C//DTD SVG 20010904//EN"
 "http://www.w3.org/TR/2001/REC-SVG-20010904/DTD/svg10.dtd">
<svg version="1.0" xmlns="http://www.w3.org/2000/svg"
 width="928.000000pt" height="1280.000000pt" viewBox="0 0 928.000000 1280.000000"
 preserveAspectRatio="xMidYMid meet">
<metadata>
Created by potrace 1.15, written by Peter Selinger 2001-2017
</metadata>
<g transform="translate(0.000000,1280.000000) scale(0.100000,-0.100000)"
fill="#000000" stroke="none">
<path d="M3393 12785 c-24 -7 -66 -28 -95 -48 -75 -49 -191 -106 -396 -193
-190 -81 -219 -98 -201 -121 17 -19 28 -17 122 27 47 22 93 40 103 40 10 0 93
36 184 79 223 107 332 151 372 151 36 0 310 -121 419 -185 35 -20 105 -67 154
-103 50 -36 105 -76 123 -89 39 -29 41 -43 7 -43 -34 0 -90 24 -127 55 -16 14
-34 25 -39 25 -5 0 -71 29 -148 64 -176 82 -196 86 -264 52 -86 -43 -469 -399
-671 -624 -140 -157 -206 -248 -259 -357 -25 -51 -67 -123 -92 -160 -110 -162
-145 -285 -80 -285 21 0 31 14 71 93 53 105 150 273 163 281 13 8 21 -84 21
-255 l0 -155 54 -125 c82 -190 123 -267 172 -319 66 -71 57 -130 -16 -100 -44
18 -200 186 -321 345 -59 77 -116 148 -127 158 -49 44 -57 -25 -11 -99 36 -56
93 -124 234 -279 56 -60 153 -176 217 -256 64 -80 126 -152 138 -160 l21 -14
-31 -80 c-17 -44 -34 -103 -37 -130 -5 -50 -5 -51 35 -77 25 -17 51 -47 69
-80 33 -62 57 -69 61 -18 2 27 -8 52 -42 110 -25 41 -46 80 -46 87 0 6 10 29
22 49 26 44 31 131 10 181 -8 17 -32 43 -54 58 l-40 27 22 23 c18 20 22 32 17
65 -6 50 7 59 41 27 34 -33 83 -53 149 -62 68 -9 113 1 113 25 0 24 -13 28
-117 35 -114 8 -120 10 -100 33 15 17 15 16 -9 149 -2 12 -21 42 -42 67 -20
24 -45 56 -55 70 -23 33 -33 33 -45 -3 -8 -21 -18 -30 -42 -33 -28 -4 -35 0
-51 26 -19 31 -64 161 -114 330 -18 59 -24 91 -17 98 7 7 29 3 68 -11 51 -20
59 -20 72 -7 21 21 1 43 -44 52 -82 15 -129 158 -94 285 20 73 120 199 235
296 60 50 116 94 126 96 10 3 39 -12 69 -34 52 -39 89 -54 111 -47 11 4 -75
93 -108 112 -12 7 -10 13 14 38 34 36 80 61 154 82 61 18 160 74 167 94 17 53
-283 -73 -370 -156 -18 -16 -28 -21 -28 -12 0 43 183 167 343 232 42 18 77 35
77 39 0 3 -19 12 -43 18 -54 16 -77 7 -176 -65 -82 -60 -107 -57 -46 6 58 59
157 105 226 105 74 0 90 -15 175 -161 74 -127 90 -145 141 -153 39 -6 59 -31
25 -31 -37 0 -45 -24 -40 -118 6 -89 32 -178 64 -213 9 -10 17 -30 17 -44 0
-29 1 -30 56 -10 22 8 41 11 41 6 0 -16 -57 -61 -103 -81 -55 -25 -68 -47 -93
-176 -12 -59 -25 -95 -42 -116 -34 -40 -27 -75 42 -232 31 -69 56 -133 56
-141 0 -7 5 -17 11 -21 21 -13 33 16 31 81 -1 37 3 75 8 86 6 10 34 31 62 45
29 15 68 37 88 49 48 32 117 52 131 38 7 -7 -13 -22 -68 -48 -106 -50 -143
-85 -90 -85 32 1 98 33 170 83 138 98 219 86 286 -45 18 -35 51 -79 72 -98 31
-28 42 -48 55 -100 22 -87 15 -207 -16 -275 -19 -40 -25 -76 -31 -186 -8 -151
-8 -151 -104 -314 -81 -137 -166 -325 -217 -479 -23 -71 -43 -125 -44 -120 -1
5 -6 44 -9 88 l-7 78 -78 -4 c-69 -3 -83 -7 -123 -36 -44 -31 -115 -62 -143
-62 -26 0 -14 39 19 63 48 36 71 47 202 93 l120 42 0 438 c0 242 -4 448 -8
458 -5 13 -11 16 -18 9 -22 -22 -31 -147 -38 -497 l-6 -370 -76 -27 c-42 -15
-92 -30 -111 -34 l-35 -7 -6 49 c-3 27 -27 98 -53 157 -43 99 -46 112 -42 169
6 74 33 142 105 261 70 116 89 153 96 196 4 19 26 95 48 168 31 98 39 136 31
144 -20 20 -51 -21 -73 -94 -12 -37 -25 -71 -31 -74 -6 -4 -8 1 -5 12 18 61
29 135 23 150 -11 30 -34 -3 -64 -96 -34 -104 -55 -118 -46 -31 6 57 6 61 -14
61 -28 0 -33 -11 -51 -104 -16 -79 -17 -81 -61 -108 -25 -16 -77 -34 -115 -42
-91 -18 -105 -24 -116 -52 -7 -19 -16 -24 -43 -24 -21 0 -42 -7 -53 -19 -24
-24 -54 -39 -116 -58 -29 -8 -58 -20 -65 -25 -26 -22 20 -47 111 -63 22 -3 37
-11 37 -20 0 -8 -32 -49 -71 -92 -112 -123 -148 -187 -86 -154 12 6 94 79 181
161 87 83 165 150 173 150 11 0 13 -8 8 -30 -6 -27 -4 -30 19 -30 l27 0 -17
-32 c-9 -18 -53 -80 -98 -138 -44 -58 -90 -122 -100 -143 -27 -53 -166 -198
-226 -237 -32 -20 -50 -39 -50 -52 0 -10 18 -51 39 -91 22 -40 46 -99 55 -131
8 -33 21 -63 28 -68 26 -17 86 3 268 92 102 49 189 90 193 90 4 0 7 -8 7 -18
0 -33 -63 -79 -200 -147 -134 -67 -184 -100 -174 -116 10 -17 40 -8 144 41
100 47 150 61 150 41 0 -13 -51 -54 -120 -96 -72 -44 -81 -71 -19 -61 56 9 48
-10 -22 -51 -150 -88 -169 -102 -169 -123 0 -25 11 -25 58 -1 63 32 82 35 82
14 0 -29 -239 -178 -257 -160 -4 5 -11 77 -14 160 -7 149 -13 187 -30 187 -19
0 -28 -92 -36 -371 -6 -229 -12 -300 -22 -313 -10 -12 -17 -14 -25 -6 -22 22
-45 11 -52 -26 -6 -34 0 -101 10 -111 13 -13 59 11 76 40 29 46 58 144 72 245
6 48 18 97 26 110 21 33 89 70 172 93 83 23 121 41 302 146 73 42 175 96 226
121 53 25 91 49 89 55 -6 17 -41 11 -131 -24 -43 -16 -81 -27 -85 -24 -3 4 23
35 59 68 50 47 82 68 133 87 70 25 127 63 111 72 -5 3 -39 -2 -76 -12 -38 -10
-68 -14 -68 -10 0 13 68 69 111 91 43 21 55 18 61 -16 2 -13 15 -24 36 -30 31
-9 33 -12 27 -45 -4 -23 -18 -46 -43 -67 -20 -18 -40 -33 -44 -33 -5 0 -8 -4
-8 -10 0 -5 5 -9 12 -7 27 5 18 -43 -23 -120 -34 -64 -41 -85 -32 -94 10 -10
21 -6 53 17 23 16 59 39 81 51 35 19 38 22 19 28 -27 9 -26 15 19 109 21 44
44 104 50 131 24 101 32 125 40 125 10 0 21 -60 21 -116 0 -56 44 -224 75
-285 18 -34 31 -49 45 -49 27 0 26 29 -4 127 -36 117 -38 127 -45 277 -6 128
-9 140 -29 154 -30 20 -28 39 14 140 54 132 94 202 114 202 10 0 36 -15 57
-32 21 -18 70 -53 108 -77 130 -82 146 -95 189 -143 44 -48 69 -92 81 -140 9
-37 -24 -56 -106 -63 -107 -10 -129 -15 -129 -31 0 -37 127 -41 250 -9 71 19
83 31 75 74 -20 104 -134 238 -302 352 -56 38 -105 74 -108 80 -4 5 -25 21
-47 35 -46 29 -46 28 14 127 l41 68 9 155 c4 85 14 171 22 191 8 21 23 64 35
95 28 78 27 155 -3 232 -13 34 -38 133 -56 221 -53 270 -78 340 -242 677
l-111 227 41 63 c53 82 74 132 70 171 -3 29 -9 34 -57 51 -45 16 -59 28 -87
71 -73 115 -262 249 -569 404 -217 109 -240 115 -332 86z m371 -365 l20 -20
-24 0 c-14 0 -45 -11 -70 -24 -53 -28 -92 -36 -97 -20 -2 7 10 17 27 22 19 7
30 18 30 29 0 11 6 25 13 32 17 17 76 7 101 -19z m117 -75 c0 -5 -7 -12 -16
-13 -23 -5 -47 6 -40 19 8 13 56 8 56 -6z m139 -56 c41 -10 100 -45 100 -58 0
-10 -35 -21 -72 -21 -34 0 -58 -9 -58 -22 0 -6 26 -7 73 -3 39 4 70 5 67 2 -4
-3 -126 -30 -185 -40 -5 -1 -9 8 -7 21 3 17 -2 22 -18 22 -35 0 -18 23 36 49
42 21 46 25 29 32 -11 4 -46 5 -79 2 -47 -5 -58 -3 -54 8 9 28 78 32 168 8z
m318 -182 c4 -36 -29 -105 -72 -149 -31 -32 -42 -36 -123 -47 -107 -13 -113
-13 -113 -2 0 12 41 28 139 54 158 42 96 65 -74 27 -51 -10 -94 -15 -99 -10
-13 13 19 25 124 50 120 28 188 49 195 61 11 17 -90 9 -218 -17 -100 -21 -131
-24 -140 -15 -25 25 26 48 135 61 57 6 112 13 123 15 11 1 43 2 70 1 47 -1 50
-3 53 -29z m-377 -232 c-1 -15 -24 -12 -29 3 -3 9 2 13 12 10 10 -1 17 -7 17
-13z m242 -2 c13 -21 -51 -173 -72 -173 -9 0 -31 91 -25 102 3 5 14 8 25 8 10
0 19 6 19 13 0 16 28 57 40 57 5 0 11 -3 13 -7z m-212 -73 c-26 -22 -37 -25
-46 -10 -11 18 5 30 38 30 l32 -1 -24 -19z m323 -11 c98 -116 282 -579 292
-732 2 -40 1 -65 -2 -57 -4 8 -39 57 -78 108 -191 251 -223 294 -255 346 -105
174 -112 306 -20 353 33 17 34 17 63 -18z m-124 -389 c0 -5 -13 -16 -30 -25
-26 -14 -30 -14 -30 -1 0 16 26 35 48 36 6 0 12 -4 12 -10z m50 -47 c0 -3 -7
-15 -17 -25 -20 -23 -12 -33 15 -19 12 6 25 11 31 11 14 0 51 -37 51 -50 0 -6
-30 -24 -66 -41 -39 -19 -70 -40 -76 -54 -6 -13 -22 -32 -37 -43 -52 -38 -201
-114 -215 -109 -7 3 -30 26 -51 51 l-37 46 27 37 c40 54 55 65 72 52 10 -9 21
-6 46 10 46 31 241 141 250 141 4 0 7 -3 7 -7z m-193 -50 c-8 -8 -21 -13 -28
-11 -9 3 -6 11 11 28 17 17 25 20 28 11 2 -7 -3 -20 -11 -28z m303 -93 c0 -32
-27 -78 -50 -85 -25 -8 -70 18 -70 40 0 14 82 64 108 65 6 0 12 -9 12 -20z
m-590 -860 c0 -12 -38 -90 -44 -90 -4 0 8 54 19 88 5 15 25 16 25 2z m-7 -349
c36 -72 35 -96 -5 -121 -35 -21 -156 -63 -226 -79 -55 -12 -63 2 -24 42 16 18
57 71 91 119 65 92 72 98 111 95 19 -2 31 -14 53 -56z m57 -181 c21 -13 6 -24
-70 -53 -181 -69 -260 -101 -310 -126 -64 -32 -110 -43 -130 -31 -22 14 4 36
58 50 26 6 67 24 92 39 65 39 164 82 250 107 87 26 90 27 110 14z m36 -108
c-9 -11 -80 -45 -159 -76 -162 -65 -279 -125 -285 -145 -7 -23 43 -8 247 74
103 41 194 75 201 75 38 0 -45 -52 -225 -142 -256 -127 -271 -127 -274 4 -1
39 3 50 22 62 57 37 409 165 456 165 33 1 33 0 17 -17z m324 -191 c0 -19 -36
-51 -72 -64 -31 -11 -20 19 17 52 41 36 55 39 55 12z m-180 -80 c0 -20 -165
-110 -178 -97 -10 10 41 57 88 82 46 24 90 31 90 15z m-150 -193 c-42 -38 -85
-57 -98 -44 -12 13 15 41 68 68 70 37 85 25 30 -24z m-100 -139 c0 -21 -21
-48 -54 -68 -39 -25 -46 -26 -46 -7 0 15 76 86 92 86 4 0 8 -5 8 -11z"/>
<path d="M4093 11240 c-41 -30 -62 -60 -42 -60 14 0 95 77 88 84 -3 3 -24 -8
-46 -24z"/>
<path d="M3615 9910 c-3 -5 3 -10 15 -10 12 0 18 5 15 10 -3 6 -10 10 -15 10
-5 0 -12 -4 -15 -10z"/>
<path d="M2498 12357 c-183 -110 -235 -152 -286 -231 -100 -154 -189 -388
-204 -539 -5 -54 -19 -124 -30 -155 -10 -31 -30 -111 -43 -177 l-23 -119 79
-112 c82 -115 134 -172 145 -161 9 9 -13 61 -62 142 -61 102 -79 163 -79 272
0 78 3 96 21 120 15 19 30 27 47 26 14 -1 28 5 31 13 3 8 1 76 -5 152 l-11
137 57 120 c114 240 246 394 408 475 45 23 86 48 90 56 8 15 -7 44 -23 44 -4
0 -54 -28 -112 -63z"/>
<path d="M3528 11958 c-19 -24 -43 -55 -52 -70 -17 -25 -17 -28 -2 -34 36 -14
106 64 106 119 0 37 -12 34 -52 -15z"/>
<path d="M3612 11750 c-83 -59 -153 -209 -108 -226 11 -4 27 3 45 20 15 14 34
26 43 26 8 0 22 9 29 21 11 15 28 22 64 26 81 7 95 12 95 32 0 24 -19 31 -86
31 -58 0 -66 10 -39 46 16 21 20 54 7 54 -5 0 -28 -13 -50 -30z"/>
<path d="M3105 11725 c-37 -13 -70 -43 -60 -53 2 -2 29 6 59 19 55 22 57 22
112 5 63 -20 78 -15 47 16 -27 27 -104 34 -158 13z"/>
<path d="M3175 11606 c-56 -24 -105 -102 -76 -120 9 -6 45 31 54 56 3 10 22
20 44 24 21 4 47 11 57 17 19 9 19 10 1 23 -23 17 -41 17 -80 0z"/>
<path d="M2887 11570 c-35 -41 -60 -130 -37 -130 13 0 56 66 71 108 17 49 -2
61 -34 22z"/>
<path d="M3673 11518 c-35 -39 -36 -48 -12 -74 29 -31 52 -30 78 2 21 27 26
50 15 78 -9 24 -57 20 -81 -6z"/>
<path d="M3340 11515 c-11 -13 -10 -26 5 -74 15 -49 15 -64 5 -95 -22 -69
-103 -91 -173 -47 -19 11 -39 21 -46 21 -22 0 -10 -39 21 -65 28 -24 39 -27
89 -23 99 7 173 85 174 184 0 75 -45 135 -75 99z"/>
<path d="M3241 11456 c-26 -14 -50 -51 -51 -78 -1 -45 68 -64 94 -26 19 27 21
89 4 106 -15 15 -17 15 -47 -2z"/>
<path d="M3560 11393 c1 -33 37 -99 69 -126 38 -32 81 -36 81 -9 0 10 20 42
45 71 44 51 51 71 29 78 -6 2 -31 -15 -56 -37 -25 -22 -50 -40 -55 -40 -5 0
-27 18 -48 40 -42 43 -65 51 -65 23z"/>
<path d="M2177 11332 c-8 -42 8 -146 39 -243 65 -207 261 -545 289 -499 8 12
-8 46 -108 226 -87 157 -111 218 -155 393 -37 144 -54 177 -65 123z"/>
<path d="M3524 11190 c-48 -18 -73 -102 -39 -130 18 -15 45 2 45 29 0 10 11
28 25 41 14 13 25 29 25 36 0 20 -32 33 -56 24z"/>
<path d="M3668 11188 c-9 -7 -19 -32 -23 -55 -7 -42 -6 -43 22 -43 32 0 73 35
73 63 0 9 -10 23 -22 31 -27 19 -30 19 -50 4z"/>
<path d="M2864 11106 c-3 -9 1 -26 10 -39 9 -12 32 -44 51 -72 19 -27 42 -58
52 -67 18 -20 63 -24 63 -7 0 5 11 27 25 47 32 46 33 87 3 106 -13 8 -54 19
-93 25 -38 7 -78 14 -88 17 -10 3 -20 -1 -23 -10z"/>
<path d="M4397 11059 c-58 -14 -147 -59 -147 -75 0 -18 9 -18 100 7 92 24 151
56 129 70 -17 10 -31 10 -82 -2z"/>
<path d="M3216 10997 c-57 -75 -107 -216 -87 -246 12 -18 41 -7 41 16 0 10 25
69 55 132 30 62 55 117 55 122 0 22 -41 6 -64 -24z"/>
<path d="M3366 10918 c-43 -91 -58 -218 -25 -218 14 0 34 50 59 150 11 47 23
93 26 103 4 12 0 17 -15 17 -14 0 -27 -15 -45 -52z"/>
<path d="M3672 10938 c-19 -19 -14 -37 13 -50 21 -10 29 -9 43 6 16 16 16 18
-7 37 -27 22 -33 23 -49 7z"/>
<path d="M3770 10906 c0 -32 18 -43 38 -23 13 13 13 19 2 31 -19 24 -40 19
-40 -8z"/>
<path d="M3530 10901 c-19 -11 -55 -37 -80 -59 -38 -34 -42 -41 -28 -47 20 -8
89 29 143 77 53 46 31 64 -35 29z"/>
<path d="M3563 10823 c-25 -17 -31 -43 -9 -43 16 0 66 38 66 51 0 14 -32 10
-57 -8z"/>
<path d="M3677 10834 c-9 -10 2 -24 19 -24 8 0 14 7 14 15 0 15 -21 21 -33 9z"/>
<path d="M3748 10813 c-3 -25 -8 -28 -72 -40 -83 -15 -160 -51 -164 -77 -3
-16 0 -18 25 -12 15 4 76 14 134 22 59 7 118 18 133 24 37 14 35 51 -5 84 -39
33 -47 33 -51 -1z"/>
<path d="M2150 10812 c0 -10 21 -42 46 -72 42 -50 46 -57 40 -95 -3 -22 -24
-87 -46 -145 -46 -117 -58 -186 -41 -218 6 -12 30 -31 51 -42 22 -11 40 -24
40 -28 0 -4 -14 -15 -30 -24 -55 -31 -32 -58 51 -58 43 0 103 37 107 67 2 16
-9 27 -50 51 -29 16 -66 44 -82 60 l-29 31 44 133 c24 72 50 134 56 136 7 2
22 -17 35 -42 24 -51 44 -64 53 -36 13 40 -105 208 -191 272 -44 33 -54 35
-54 10z"/>
<path d="M3430 10735 c-12 -15 -10 -16 21 -13 37 3 46 21 13 26 -11 2 -27 -4
-34 -13z"/>
<path d="M2603 10458 c3 -24 50 -160 103 -303 53 -143 110 -303 128 -355 22
-67 36 -96 49 -98 12 -3 17 3 17 20 0 43 -244 731 -270 764 -23 26 -33 15 -27
-28z"/>
<path d="M2420 10406 c0 -112 207 -679 302 -828 54 -84 74 -172 44 -197 -40
-34 -25 -218 36 -436 37 -129 43 -145 49 -117 7 35 -3 148 -20 223 -30 131
-40 219 -30 246 10 26 12 27 19 8 5 -11 25 -80 44 -152 60 -225 86 -303 102
-303 23 0 17 37 -45 284 -72 283 -102 373 -176 536 -63 137 -95 217 -192 485
-69 190 -107 275 -123 275 -6 0 -10 -11 -10 -24z"/>
<path d="M1930 10164 c-81 -22 -195 -80 -239 -122 -46 -44 -68 -103 -52 -144
9 -24 16 -28 51 -28 34 0 41 -3 38 -17 -3 -14 -14 -18 -52 -18 -45 0 -49 -2
-60 -32 -6 -18 -26 -43 -45 -55 -19 -13 -37 -29 -39 -37 -7 -22 79 -6 151 28
89 43 137 86 137 122 0 24 -7 32 -47 51 -27 13 -49 30 -51 40 -10 52 156 156
261 165 69 6 97 17 97 37 0 29 -62 33 -150 10z"/>
<path d="M2127 10074 c-11 -12 3 -24 29 -24 19 0 24 -5 24 -26 0 -23 1 -24 16
-9 9 9 24 13 33 10 79 -31 201 -40 201 -14 0 34 -274 91 -303 63z"/>
<path d="M1920 9976 c0 -37 227 -213 248 -191 9 8 -93 110 -162 161 -60 45
-86 54 -86 30z"/>
<path d="M4509 9773 c-19 -49 6 -327 47 -503 33 -144 80 -250 105 -235 14 10
10 82 -7 123 -24 57 -44 124 -44 152 0 20 4 17 20 -19 11 -24 20 -49 20 -55 0
-36 91 -139 108 -122 3 3 -16 68 -41 144 -26 75 -64 208 -86 295 -53 209 -96
287 -122 220z"/>
<path d="M2183 9682 c-17 -9 -43 -25 -57 -36 -25 -18 -27 -18 -91 8 -85 34
-118 33 -223 -8 -48 -18 -108 -41 -134 -51 -95 -35 -81 -62 15 -29 68 23 79
12 22 -21 -157 -89 -205 -120 -202 -130 8 -20 62 -5 162 44 55 27 132 58 170
70 38 12 88 32 110 45 22 13 47 21 55 18 8 -2 89 -37 180 -77 176 -78 246
-103 257 -91 10 10 -23 34 -134 97 -52 29 -99 61 -104 70 -27 51 119 62 210
16 125 -63 181 -133 213 -262 11 -47 24 -85 29 -85 20 0 31 46 27 105 -6 70
-32 135 -74 184 -93 111 -336 186 -431 133z"/>
<path d="M1431 9571 c-27 -27 -66 -105 -144 -292 -84 -199 -84 -199 -58 -249
27 -53 27 -64 -10 -151 -17 -42 -33 -100 -36 -134 -6 -65 4 -82 72 -129 41
-28 68 -98 63 -162 -7 -78 -25 -94 -107 -94 -71 0 -141 -15 -141 -30 0 -12 30
-18 111 -22 41 -2 76 -10 93 -21 23 -15 26 -24 26 -70 0 -55 -20 -97 -45 -97
-8 0 -21 21 -29 51 -9 28 -21 58 -27 65 -15 19 -103 18 -118 0 -13 -16 -11
-18 44 -46 40 -20 52 -58 37 -117 -7 -25 -9 -50 -5 -54 4 -4 27 0 49 10 105
47 111 33 22 -51 -58 -54 -60 -58 -33 -52 17 4 40 11 53 15 37 14 68 10 107
-12 20 -12 47 -21 60 -21 13 0 60 25 104 56 80 57 210 136 222 136 4 0 9 -34
11 -74 2 -56 9 -82 24 -103 26 -35 77 -42 115 -16 159 109 312 193 326 179 11
-11 -14 -28 -131 -91 -68 -36 -129 -71 -135 -79 -13 -15 2 -180 23 -250 13
-45 33 -58 38 -24 4 32 18 29 45 -11 48 -70 70 -226 42 -298 -15 -40 -57 -81
-110 -108 -53 -28 -73 -49 -65 -70 8 -22 54 -18 114 10 49 23 56 24 75 10 12
-8 37 -15 57 -15 85 -1 74 -40 -19 -66 -55 -16 -101 -47 -85 -57 19 -11 194
42 270 81 134 70 245 172 187 172 -10 0 -51 -22 -92 -50 -76 -51 -98 -57 -161
-41 -19 5 -61 12 -92 16 l-56 6 26 52 c24 45 27 62 27 147 -1 52 -3 121 -5
152 -9 104 43 104 98 0 58 -108 85 -103 64 13 -16 85 -15 109 6 128 10 10 35
17 54 17 31 0 43 -8 80 -49 51 -57 105 -144 125 -202 7 -23 25 -61 38 -83 22
-38 55 -142 55 -174 0 -25 -23 -6 -34 28 -8 24 -18 36 -33 38 -13 2 -23 1 -23
-1 0 -3 20 -56 44 -119 29 -75 51 -154 65 -236 33 -193 108 -392 230 -612 248
-445 269 -506 215 -613 -22 -42 -28 -73 -35 -162 -4 -60 -12 -123 -18 -138
-21 -55 -6 -121 32 -133 18 -6 19 -12 11 -83 -15 -141 2 -221 48 -221 20 0 21
3 15 89 -5 72 -4 91 8 101 19 16 81 7 146 -21 63 -27 83 -23 87 20 4 35 -14
91 -29 91 -5 0 -18 -5 -29 -12 -15 -10 -27 -10 -57 1 -53 18 -144 81 -153 105
-4 11 -1 45 6 76 7 30 13 94 14 141 0 75 3 90 25 120 63 87 63 79 17 266 -23
92 -45 197 -49 233 -6 59 -10 68 -45 101 -21 19 -42 48 -47 64 -5 22 -16 32
-39 39 -26 7 -32 14 -32 36 0 15 6 43 14 62 20 47 7 67 -29 48 -30 -16 -42 -7
-47 34 -2 16 -12 34 -23 40 -30 16 -35 28 -22 50 14 27 11 62 -13 157 -11 43
-20 96 -20 119 0 28 -8 52 -24 73 -13 18 -33 51 -45 74 l-21 43 40 20 c46 24
63 48 49 73 -13 22 -26 21 -73 -4 -21 -11 -42 -17 -47 -12 -11 11 -29 134 -29
206 0 55 1 57 21 45 17 -11 22 -10 35 6 21 29 17 95 -7 136 -12 19 -43 62 -69
95 -94 120 -172 260 -224 404 -41 113 -61 120 -53 20 4 -41 9 -85 13 -99 7
-23 6 -24 -10 -11 -22 18 -46 64 -46 88 0 10 -9 35 -20 56 -16 30 -19 48 -14
87 5 41 4 51 -10 56 -9 3 -23 1 -31 -6 -28 -23 -28 -2 0 68 15 38 25 80 23 93
-3 21 -8 16 -41 -38 -55 -90 -73 -81 -42 21 8 27 15 53 15 58 0 17 -25 7 -46
-19 -17 -22 -25 -25 -35 -16 -9 9 -7 19 10 47 22 35 95 96 116 96 6 0 26 15
44 34 18 19 61 46 95 61 101 43 113 55 79 73 -45 24 -236 -76 -411 -215 -124
-99 -160 -135 -225 -223 -85 -117 -169 -180 -239 -180 -27 0 -32 -4 -68 -51
-21 -29 -137 -93 -188 -104 -25 -5 -33 -3 -38 10 -10 25 17 46 186 140 184
104 240 141 240 160 0 8 -5 15 -10 15 -19 0 -195 -93 -297 -156 -55 -35 -108
-64 -117 -64 -51 0 13 47 274 199 187 109 221 134 204 151 -13 13 -54 -8 -295
-148 -98 -56 -182 -102 -188 -102 -22 0 -10 29 26 61 50 44 226 159 327 214
92 50 126 79 109 96 -13 13 -38 0 -235 -114 -148 -87 -222 -127 -234 -127 -16
0 50 59 80 71 17 7 51 29 76 49 25 19 83 55 129 79 45 25 87 53 92 63 14 26 8
59 -13 71 -17 11 -37 3 -232 -102 -58 -31 -82 -39 -90 -31 -16 17 22 44 199
141 85 46 182 101 215 121 57 35 75 58 48 58 -24 0 -170 -69 -308 -144 -76
-42 -148 -76 -159 -76 -27 0 -28 29 -1 63 56 71 408 247 494 247 67 0 87 26
44 54 -43 28 -93 29 -162 6 -36 -12 -70 -19 -75 -15 -13 8 -2 35 14 35 19 0
66 40 60 51 -10 16 -40 10 -73 -15 -19 -14 -53 -26 -84 -29 -30 -4 -67 -17
-90 -32 -45 -30 -97 -98 -105 -138 -7 -33 -75 -112 -115 -133 -35 -18 -66 -10
-77 19 -13 35 7 73 62 116 29 22 69 58 90 79 54 56 49 79 -28 117 -71 36 -77
52 -41 123 14 28 30 72 36 98 6 25 35 100 65 165 30 65 55 125 55 133 0 25
-18 28 -39 7z m174 -650 c-36 -36 -85 -51 -85 -27 0 17 64 55 95 56 17 0 16
-4 -10 -29z m530 -524 c9 -18 16 -41 14 -52 -4 -19 -65 -62 -75 -52 -3 3 4 24
16 47 12 24 20 53 17 66 -6 34 7 30 28 -9z m-169 -166 c-20 -49 -36 -95 -36
-103 0 -8 -7 -23 -15 -34 -17 -23 -19 -54 -3 -54 6 0 51 18 100 41 49 23 91
39 94 36 15 -15 -241 -151 -273 -145 -45 8 -12 132 54 208 17 19 48 64 69 100
20 35 39 59 42 52 2 -7 -12 -52 -32 -101z m228 -23 c23 -32 20 -41 -8 -23 -22
14 -29 14 -93 -10 -75 -26 -103 -31 -103 -16 0 5 12 18 28 29 65 46 151 56
176 20z m-69 -268 c-6 -10 -78 -50 -90 -50 -13 0 9 22 39 41 33 20 61 25 51 9z
m203 -21 c4 -31 -18 -52 -50 -47 -29 4 -36 39 -12 62 24 25 58 17 62 -15z
m234 -124 c69 -102 95 -155 77 -155 -8 0 -36 40 -106 155 -10 16 -27 31 -38
33 -43 7 -45 9 -34 42 6 17 16 29 23 28 6 -2 41 -49 78 -103z m-372 67 c0 -29
-87 -101 -103 -85 -16 16 56 103 85 103 11 0 18 -7 18 -18z m195 -41 c3 -5 -7
-19 -21 -30 -32 -25 -94 -29 -94 -6 0 28 100 59 115 36z m-175 -80 c0 -16 -62
-62 -79 -59 -28 6 -18 32 19 50 39 20 60 23 60 9z"/>
<path d="M2080 9480 c-23 -16 27 -55 97 -75 100 -29 162 -65 218 -129 54 -60
75 -66 75 -18 0 57 -164 176 -299 216 -64 19 -71 19 -91 6z"/>
<path d="M5147 9423 c-4 -3 20 -36 53 -72 33 -36 71 -79 85 -94 27 -30 45 -28
45 4 0 34 -48 117 -83 143 -32 24 -85 35 -100 19z"/>
<path d="M5145 9187 c-8 -13 -18 -44 -21 -70 -7 -49 0 -56 41 -41 35 14 58 97
33 122 -18 18 -36 14 -53 -11z"/>
<path d="M5330 9180 c-13 -32 -2 -60 25 -60 6 0 17 -11 23 -25 8 -16 20 -25
35 -25 33 0 60 -22 122 -101 65 -80 95 -91 95 -34 0 70 -66 147 -163 190 -38
17 -64 35 -75 55 -22 38 -46 38 -62 0z"/>
<path d="M5021 9168 c-22 -18 -60 -50 -85 -71 -67 -57 -517 -280 -597 -296
-83 -16 -109 -27 -109 -46 0 -14 -3 -14 -25 1 -20 13 -33 14 -65 6 -22 -5 -40
-8 -40 -6 0 1 16 29 35 61 33 55 45 103 26 103 -25 0 -44 -17 -76 -64 -18 -28
-93 -116 -166 -196 -72 -80 -146 -167 -165 -195 -37 -56 -59 -131 -51 -172 13
-69 -36 -202 -109 -296 -46 -58 -91 -87 -137 -87 -27 0 -41 -7 -56 -27 -20
-24 -20 -27 -5 -45 36 -39 111 -10 193 73 111 112 167 229 186 385 7 56 18
111 25 123 17 32 90 61 168 67 128 10 123 -27 -13 -90 -84 -40 -96 -48 -93
-68 5 -34 32 -33 114 2 82 36 104 34 104 -8 0 -33 34 -82 56 -82 8 0 14 10 14
23 0 38 12 40 42 6 16 -17 36 -29 46 -27 18 4 19 18 6 89 -5 32 -2 38 30 63
140 106 36 226 -109 126 -25 -18 -48 -30 -50 -28 -4 4 20 116 34 160 7 20 21
44 31 53 20 18 21 17 45 -5 27 -26 27 -26 110 25 22 14 49 25 59 25 11 0 153
66 315 146 163 80 312 153 331 163 30 14 35 21 36 51 0 19 4 47 8 63 11 38
-11 36 -63 -5z m-961 -509 c0 -12 -16 -37 -36 -55 -66 -63 -90 -32 -28 36 40
44 64 51 64 19z"/>
<path d="M1628 9156 c-50 -14 -98 -41 -98 -56 0 -14 18 -13 117 7 79 15 89 15
151 0 37 -10 137 -28 222 -42 177 -28 293 -56 366 -89 43 -20 65 -42 152 -154
56 -71 116 -139 134 -150 18 -12 62 -53 97 -93 36 -39 79 -78 97 -85 40 -17
49 -30 28 -38 -14 -5 -16 -16 -10 -59 12 -107 65 -217 103 -217 11 0 12 20 8
98 -11 186 -20 218 -81 291 -24 29 -27 30 -39 15 -15 -21 -17 -19 -134 124
-46 56 -87 102 -92 102 -4 0 -33 33 -64 73 -72 92 -90 106 -206 155 -110 47
-158 60 -367 102 -167 33 -300 39 -384 16z"/>
<path d="M4212 8999 c4 -28 33 -48 48 -33 7 7 4 17 -10 32 -26 28 -42 28 -38
1z"/>
<path d="M5024 8984 c-22 -13 -48 -24 -59 -24 -11 0 -42 -12 -70 -25 -27 -14
-57 -25 -66 -25 -21 0 -53 -36 -44 -49 3 -6 15 -11 25 -11 25 0 50 -26 57 -61
3 -16 12 -34 20 -41 21 -17 33 6 33 63 0 48 13 69 42 69 26 0 36 -28 48 -128
15 -138 38 -178 63 -112 6 17 15 30 19 30 19 0 32 -193 15 -234 -7 -17 -9 -17
-41 8 -19 14 -39 26 -44 26 -6 0 -24 -21 -40 -47 -69 -107 -144 -153 -248
-153 -42 0 -68 -8 -127 -39 -90 -47 -134 -55 -217 -41 -148 25 -142 26 -138
-1 5 -36 64 -60 163 -67 110 -6 170 9 211 54 l32 34 100 0 c102 0 134 -11 97
-34 -74 -45 -78 -46 -103 -30 -29 19 -59 13 -112 -22 -29 -20 -60 -28 -122
-35 -46 -5 -96 -14 -112 -19 -50 -17 -81 -11 -127 23 -112 86 -162 74 -78 -18
51 -56 147 -105 204 -105 55 0 399 116 534 181 57 27 111 49 121 49 25 0 44
-26 85 -115 53 -118 85 -169 97 -157 16 16 -15 136 -61 240 -46 100 -49 124
-23 173 14 28 17 61 17 194 0 180 -19 288 -61 350 -15 23 -24 50 -24 74 0 50
-17 56 -66 25z m-63 -722 c-5 -10 -18 -25 -27 -33 -16 -12 -16 -10 1 19 20 33
43 46 26 14z"/>
<path d="M5744 8931 c-83 -21 -208 -110 -239 -172 -16 -30 -20 -79 -7 -79 13
0 67 37 137 94 104 86 114 90 169 65 35 -15 50 -17 66 -9 27 15 25 34 -7 70
-30 33 -70 43 -119 31z"/>
<path d="M6008 8842 c-56 -7 -63 -55 -9 -67 20 -4 53 -29 88 -65 82 -85 92
-88 209 -55 l96 28 47 -23 c125 -60 240 -132 278 -174 43 -47 62 -53 108 -36
43 16 30 50 -32 80 -29 14 -63 35 -75 47 -34 31 -190 118 -277 154 -42 17 -80
38 -84 45 -12 21 -26 17 -37 -11 -10 -25 -75 -65 -108 -65 -23 0 -44 24 -61
67 -23 56 -74 83 -143 75z"/>
<path d="M3510 8819 c-52 -31 -80 -59 -102 -104 -19 -35 -20 -50 -14 -155 l7
-116 -109 -134 c-60 -74 -133 -155 -161 -179 l-53 -43 -33 32 c-77 74 -85 -8
-19 -180 20 -52 39 -122 42 -154 3 -38 13 -72 28 -93 27 -40 56 -133 89 -289
32 -148 50 -205 87 -271 23 -40 31 -72 39 -145 5 -51 18 -119 29 -151 11 -31
20 -81 20 -110 1 -129 64 -480 105 -578 13 -30 35 -96 49 -147 33 -117 43
-137 72 -150 13 -6 31 -26 40 -44 23 -46 97 -146 111 -152 20 -8 189 20 409
69 113 25 209 43 215 40 14 -9 11 -31 -10 -56 -17 -22 -19 -22 -35 -6 -11 10
-26 15 -39 12 -12 -3 -97 -23 -189 -45 -92 -22 -200 -44 -240 -48 -71 -7 -73
-8 -76 -36 -2 -15 6 -63 17 -105 11 -42 25 -119 31 -172 5 -53 15 -110 21
-125 6 -16 15 -64 20 -107 9 -91 51 -180 88 -185 25 -4 29 23 7 54 -20 28 -42
129 -56 254 -6 58 -18 146 -27 195 -8 50 -17 105 -20 123 -5 30 -2 33 33 48
54 23 295 82 366 90 49 6 60 4 56 -7 -3 -9 -33 -19 -79 -26 -136 -22 -289 -75
-289 -100 0 -16 25 -15 108 2 42 10 43 -10 1 -33 -50 -27 -79 -52 -79 -68 0
-22 21 -17 70 17 25 17 86 50 137 74 171 80 302 192 327 276 18 60 57 83 291
168 105 38 216 81 248 95 31 15 88 36 124 47 37 12 92 32 123 46 30 14 89 38
130 53 264 97 394 168 735 401 367 251 409 282 465 349 24 29 87 87 141 131
108 87 149 134 149 169 0 22 0 22 -27 4 -16 -10 -69 -52 -118 -94 -104 -87
-141 -114 -285 -201 -120 -72 -608 -388 -658 -426 -31 -23 -32 -26 -18 -42 15
-16 14 -19 -7 -38 -55 -50 -341 -199 -437 -228 -14 -4 -99 -38 -190 -75 -91
-38 -219 -85 -285 -105 -166 -51 -220 -69 -290 -99 -96 -40 -320 -102 -512
-141 -116 -24 -193 -45 -220 -61 -23 -13 -51 -24 -62 -24 -13 0 -52 31 -101
79 -77 77 -80 82 -104 168 -14 48 -37 115 -51 148 -35 79 -60 197 -80 375 -8
80 -22 204 -31 275 -15 130 -15 130 7 148 23 19 46 22 68 8 18 -11 41 -3 41
14 0 7 -7 15 -15 19 -26 9 -17 24 60 107 68 73 93 119 64 119 -22 0 -75 -39
-106 -77 -34 -44 -141 -129 -149 -120 -3 3 -10 41 -15 84 -12 100 -42 199 -73
246 -49 72 -181 503 -192 626 -8 88 2 100 88 111 114 14 264 94 293 157 26 54
15 183 -24 293 -17 47 -31 101 -31 120 0 35 32 100 48 100 5 0 21 11 36 25 19
17 26 34 26 60 0 41 -3 42 -50 14z m-46 -490 c20 -58 -20 -119 -111 -166 -131
-69 -134 -53 -17 91 90 112 111 124 128 75z m2821 -1579 c-3 -5 -13 -10 -21
-10 -8 0 -12 5 -9 10 3 6 13 10 21 10 8 0 12 -4 9 -10z m-76 -56 c-13 -15 -42
-34 -64 -44 -22 -10 -84 -47 -139 -84 -99 -66 -126 -78 -126 -52 0 7 30 30 68
50 37 19 108 62 157 95 98 66 148 82 104 35z"/>
<path d="M4670 8820 c-65 -21 -237 -110 -257 -134 -15 -17 -33 -26 -51 -26
-76 0 -80 -62 -5 -68 34 -3 46 2 76 30 20 20 58 40 92 51 32 10 83 35 114 56
31 21 69 46 84 55 23 14 26 20 16 32 -13 15 -31 17 -69 4z"/>
<path d="M5781 8715 c-27 -31 -42 -75 -26 -75 30 0 93 79 80 100 -10 17 -22
11 -54 -25z"/>
<path d="M3082 8688 c-15 -15 -15 -30 0 -63 16 -35 45 -33 53 4 11 51 -23 89
-53 59z"/>
<path d="M5690 8612 c0 -5 -32 -46 -71 -92 -89 -105 -109 -134 -109 -154 0
-41 55 2 122 95 18 26 48 66 66 89 37 49 41 70 12 70 -11 0 -20 -4 -20 -8z"/>
<path d="M6281 8593 c-62 -31 -84 -58 -62 -72 30 -19 207 55 198 82 -8 24 -80
19 -136 -10z"/>
<path d="M6108 8572 c-14 -9 -52 -48 -84 -87 -32 -38 -67 -76 -76 -83 -24 -18
-68 -105 -68 -136 0 -28 30 -39 66 -26 18 7 24 17 24 38 0 33 19 63 113 180
62 76 79 113 59 126 -5 3 -20 -3 -34 -12z"/>
<path d="M6971 8466 c-7 -8 -28 -52 -47 -98 -19 -46 -48 -102 -65 -125 -35
-50 -84 -152 -75 -160 17 -17 190 193 211 258 27 80 10 166 -24 125z"/>
<path d="M7057 8362 c-39 -40 -35 -68 11 -89 36 -18 37 -19 40 -81 3 -73 20
-82 45 -24 34 80 29 160 -14 203 -26 26 -51 24 -82 -9z"/>
<path d="M6144 8298 c-163 -168 -438 -518 -534 -680 -27 -46 -96 -142 -153
-215 -98 -123 -123 -161 -114 -170 9 -8 63 45 189 185 126 139 183 205 328
382 34 41 127 145 205 230 159 171 221 247 212 257 -4 3 -47 -33 -97 -80 -88
-86 -130 -113 -91 -59 10 15 54 67 95 115 42 48 76 94 76 102 0 34 -41 10
-116 -67z"/>
<path d="M6316 8341 c-12 -13 -14 -21 -6 -26 13 -8 40 12 40 31 0 20 -14 17
-34 -5z"/>
<path d="M7226 8317 c-27 -20 -15 -43 37 -67 153 -72 127 -192 -138 -639 -113
-191 -155 -273 -155 -301 0 -46 38 -9 98 96 23 39 70 109 104 155 35 46 66 87
69 92 7 10 191 -50 284 -93 119 -54 165 -70 243 -85 128 -25 176 -72 277 -275
32 -63 72 -137 89 -165 40 -63 62 -118 71 -178 8 -52 35 -94 53 -83 41 25 -37
315 -114 422 -20 29 -47 88 -65 145 -16 53 -38 104 -47 112 -10 9 -36 20 -60
25 -23 6 -58 24 -77 41 -20 17 -41 31 -49 31 -7 0 -31 16 -53 35 -44 37 -73
44 -92 21 -10 -12 -19 -12 -44 -4 -43 14 -54 25 -39 40 32 32 -3 75 -37 44
-24 -22 -37 -20 -112 10 -35 14 -92 31 -125 38 l-62 11 68 142 68 143 84 -36
c46 -20 118 -52 161 -70 102 -44 171 -45 121 -3 -9 8 -84 48 -167 89 l-152 75
-22 58 c-27 71 -62 120 -111 152 -50 32 -83 39 -106 22z"/>
<path d="M886 8227 c-48 -27 -99 -89 -94 -113 2 -14 13 -9 61 30 31 25 71 55
88 65 30 18 30 20 11 30 -26 14 -20 15 -66 -12z"/>
<path d="M3985 8195 c-5 -2 -22 -6 -37 -9 -34 -8 -37 -33 -5 -41 44 -11 147
21 147 46 0 8 -83 11 -105 4z"/>
<path d="M6978 8167 c-44 -44 -257 -328 -294 -392 -37 -64 -87 -112 -262 -252
-133 -106 -163 -136 -149 -149 9 -9 80 26 137 68 166 124 291 259 445 477 55
78 117 165 137 194 58 81 48 117 -14 54z"/>
<path d="M6316 8073 c-110 -121 -155 -188 -138 -205 17 -17 240 234 261 294
19 54 -14 30 -123 -89z"/>
<path d="M6196 8104 c-17 -20 -67 -77 -111 -127 -118 -132 -154 -180 -157
-207 -2 -19 2 -26 20 -28 12 -2 22 1 22 6 0 5 48 65 106 133 135 157 184 222
184 242 0 28 -31 19 -64 -19z"/>
<path d="M4977 8113 c-4 -3 -7 -27 -7 -52 0 -139 -126 -371 -237 -438 -107
-64 -143 -125 -143 -242 0 -76 -10 -95 -59 -120 -36 -19 -207 -71 -231 -71 -7
0 2 16 19 35 32 36 40 65 20 65 -18 0 -177 -110 -183 -126 -7 -19 -91 -57
-114 -52 -18 4 209 181 247 193 11 3 57 -1 102 -10 98 -18 118 -9 63 29 -32
22 -50 26 -106 26 -126 0 -302 -52 -408 -120 -57 -37 -80 -64 -80 -97 0 -18 6
-23 24 -23 25 0 60 24 128 89 67 62 53 24 -18 -49 -68 -70 -96 -88 -261 -160
-29 -13 -53 -29 -53 -36 0 -17 11 -14 409 117 183 61 341 108 350 106 30 -6
-46 -43 -147 -72 -108 -30 -432 -153 -502 -189 -45 -24 -70 -50 -58 -62 4 -3
45 10 91 30 46 20 153 61 238 91 85 31 174 65 199 77 25 11 90 36 145 54 55
18 132 44 170 58 39 14 109 37 156 51 89 27 129 48 117 61 -7 6 -88 -11 -196
-42 -22 -6 -22 -6 -16 67 10 106 23 138 71 175 23 18 91 51 150 73 164 63 223
93 245 124 12 16 44 44 72 62 65 41 80 59 69 79 -7 13 -31 5 -155 -55 -81 -38
-164 -73 -185 -76 l-38 -6 39 43 c107 119 171 400 91 400 -7 0 -15 -3 -18 -7z
m-157 -549 c0 -8 -4 -14 -9 -14 -11 0 -22 26 -14 34 9 9 23 -3 23 -20z"/>
<path d="M3957 8055 c-150 -25 -250 -66 -224 -91 3 -3 36 4 74 16 40 13 116
25 187 30 82 6 123 13 134 23 13 14 10 17 -24 26 -46 13 -46 13 -147 -4z"/>
<path d="M757 8043 c-13 -13 -7 -37 19 -75 l27 -38 -18 -67 c-19 -75 -33 -243
-19 -230 9 9 41 119 70 240 18 76 13 128 -17 158 -19 19 -50 25 -62 12z"/>
<path d="M6419 7983 c-26 -27 -139 -156 -251 -288 -113 -132 -228 -261 -254
-286 -88 -83 -236 -202 -454 -365 -216 -161 -324 -237 -655 -464 -277 -190
-326 -230 -279 -230 71 0 691 414 959 639 49 42 142 115 205 163 159 119 292
238 339 302 22 30 91 107 153 173 163 171 308 355 308 390 0 25 -26 12 -71
-34z"/>
<path d="M1533 7908 c-124 -116 -208 -153 -317 -141 -53 6 -68 -10 -37 -40 16
-16 33 -21 75 -21 101 0 270 107 350 223 51 74 21 65 -71 -21z"/>
<path d="M8022 7936 c-18 -8 -35 -22 -38 -31 -12 -31 10 -35 86 -19 71 16 82
15 218 -4 110 -16 153 -27 185 -46 78 -47 106 -56 237 -75 104 -15 145 -26
206 -55 42 -20 84 -36 94 -36 45 0 31 46 -25 78 -58 35 -125 53 -222 62 -76 7
-107 15 -180 49 -128 59 -233 82 -393 87 -105 4 -142 1 -168 -10z"/>
<path d="M7878 7889 c-31 -18 -22 -41 15 -37 24 2 32 8 32 23 0 23 -22 29 -47
14z"/>
<path d="M4187 7863 c-31 -36 -360 -539 -387 -593 -15 -30 -31 -73 -35 -95 -5
-32 -19 -52 -66 -95 -88 -83 -79 -103 22 -49 69 37 93 71 108 153 12 65 31
101 131 251 70 104 225 356 254 413 13 26 14 32 3 32 -8 0 -21 -8 -30 -17z"/>
<path d="M1764 7835 c-18 -14 -18 -15 11 -39 28 -23 29 -25 15 -51 -17 -31
-67 -71 -232 -184 -109 -74 -142 -111 -101 -111 31 0 191 83 271 140 86 60
132 124 132 182 0 64 -51 97 -96 63z"/>
<path d="M6888 7818 c-37 -40 -88 -127 -88 -150 0 -50 68 19 119 119 36 71 21
86 -31 31z"/>
<path d="M6945 7763 c-77 -99 -128 -213 -95 -213 28 0 160 205 160 249 0 34
-17 25 -65 -36z"/>
<path d="M3204 7756 c-13 -34 1 -60 36 -69 53 -14 192 -2 237 19 42 21 55 61
18 57 -11 -2 -62 -8 -112 -14 -83 -11 -95 -10 -111 4 -23 21 -61 22 -68 3z"/>
<path d="M7020 7728 c-16 -22 -30 -49 -30 -59 0 -41 91 -55 111 -18 36 68 27
119 -21 119 -24 0 -36 -9 -60 -42z"/>
<path d="M8513 7712 c-20 -13 0 -64 42 -108 36 -39 47 -44 84 -44 24 0 82 -9
130 -21 150 -37 280 -15 289 50 5 30 -24 38 -63 16 -31 -16 -35 -16 -56 -1
-16 10 -45 16 -85 16 -33 0 -83 7 -110 15 -27 9 -71 20 -98 25 -28 6 -59 19
-70 29 -26 23 -50 31 -63 23z"/>
<path d="M7901 7596 c-9 -10 1 -21 49 -50 63 -39 90 -41 90 -7 0 48 -109 94
-139 57z"/>
<path d="M5322 7508 c-127 -140 -315 -317 -357 -337 -22 -10 -162 -62 -310
-114 -446 -157 -917 -331 -998 -368 -30 -14 -36 -38 -9 -40 36 -3 58 4 186 56
72 29 237 89 366 134 129 45 278 97 330 117 108 41 392 136 460 154 30 8 55
24 75 47 16 20 91 97 166 172 141 142 205 222 195 247 -10 27 -29 14 -104 -68z"/>
<path d="M982 7569 c6 -19 115 -72 133 -65 27 10 16 27 -29 47 -63 28 -110 36
-104 18z"/>
<path d="M5065 7573 c-92 -18 -294 -107 -340 -149 -33 -31 -32 -46 3 -38 35 9
343 153 360 169 16 15 5 23 -23 18z"/>
<path d="M8299 7523 c-13 -33 1 -207 19 -225 23 -23 32 5 32 96 0 131 -25 194
-51 129z"/>
<path d="M8583 7438 c9 -86 80 -238 111 -238 36 0 27 46 -36 190 -42 94 -46
100 -65 100 -13 0 -15 -9 -10 -52z"/>
<path d="M952 7463 c-28 -5 -40 -32 -21 -44 23 -14 76 -10 173 13 90 22 91 22
51 29 -42 8 -164 9 -203 2z"/>
<path d="M2893 7444 c-10 -28 27 -82 113 -163 44 -42 93 -93 109 -113 32 -45
52 -48 61 -11 9 35 -14 75 -92 161 -105 116 -177 163 -191 126z"/>
<path d="M1245 7411 c42 -44 75 -54 75 -21 0 24 -34 47 -81 56 l-34 7 40 -42z"/>
<path d="M6705 7359 c-44 -28 -100 -61 -125 -74 -83 -43 -110 -85 -56 -85 62
0 286 154 286 196 0 24 -23 16 -105 -37z"/>
<path d="M2860 7339 c-46 -19 -104 -89 -72 -89 26 0 125 78 116 91 -6 11 -12
11 -44 -2z"/>
<path d="M1131 7302 l-34 -19 99 -11 c136 -16 169 -27 220 -74 51 -47 55 -69
17 -96 -54 -38 -1023 -518 -1023 -507 0 11 266 165 515 298 201 107 391 218
430 250 27 23 28 26 11 33 -21 8 -85 -23 -456 -228 -135 -74 -308 -168 -385
-208 -77 -40 -176 -94 -220 -120 -44 -26 -106 -62 -139 -81 -71 -41 -170 -132
-164 -150 3 -8 19 -15 37 -17 25 -3 90 24 279 116 136 66 307 145 380 176 166
70 302 138 435 217 56 34 134 75 172 91 153 66 242 97 273 98 62 0 40 30 -106
139 -104 79 -159 103 -242 108 -50 3 -73 -1 -99 -15z"/>
<path d="M4618 7141 c-197 -71 -369 -136 -383 -145 -24 -16 -34 -36 -17 -36
12 0 518 183 656 238 66 26 122 53 124 60 2 6 -2 12 -10 11 -7 0 -174 -58
-370 -128z"/>
<path d="M6384 7226 c-17 -8 -93 -50 -170 -94 -144 -83 -295 -161 -281 -146 4
5 51 38 104 74 94 63 124 92 111 106 -4 3 -37 -8 -74 -25 -75 -35 -84 -37 -84
-17 0 34 -33 27 -112 -21 -45 -28 -47 -38 -10 -57 15 -8 22 -15 16 -16 -7 0
-36 -18 -65 -40 -60 -45 -115 -56 -104 -20 11 35 -28 24 -109 -31 -101 -67
-128 -114 -43 -73 31 15 36 15 66 -1 21 -11 43 -14 63 -10 27 6 29 5 19 -13
-6 -11 -25 -25 -43 -31 -18 -6 -61 -30 -95 -53 -35 -22 -67 -38 -71 -34 -3 4
13 25 36 46 23 22 42 44 42 50 0 14 -34 5 -76 -21 -42 -26 -68 -25 -61 1 8 29
-7 33 -38 9 -20 -16 -25 -27 -21 -45 4 -16 0 -27 -16 -38 -30 -21 -41 -20 -33
4 10 30 -11 25 -99 -25 -133 -75 -176 -116 -145 -136 12 -8 10 -12 -6 -25 -33
-26 -85 -45 -106 -39 -41 13 -559 -280 -559 -317 0 -17 48 0 106 37 106 68
154 88 197 81 33 -6 49 -1 102 29 72 40 75 41 75 20 0 -38 78 -6 280 115 195
116 446 262 605 350 72 40 177 100 235 135 58 34 141 82 185 106 100 53 161
93 203 132 49 47 39 60 -24 33z m-509 -286 c-4 -6 -34 -24 -68 -41 l-62 -30
44 41 c26 24 53 40 68 40 14 0 22 -4 18 -10z"/>
<path d="M8433 7209 c-23 -7 -33 -16 -33 -29 0 -11 6 -20 14 -20 16 0 66 38
66 51 0 11 -4 10 -47 -2z"/>
<path d="M8460 7147 c-30 -15 -34 -51 -5 -55 26 -3 88 35 82 51 -5 17 -47 20
-77 4z"/>
<path d="M1690 7107 c-35 -18 -39 -54 -6 -63 45 -11 116 23 116 56 0 17 -7 20
-42 20 -24 0 -54 -6 -68 -13z"/>
<path d="M8772 7098 c-8 -8 -8 -17 0 -32 15 -31 90 -106 105 -106 28 0 10 55
-36 103 -35 38 -55 49 -69 35z"/>
<path d="M8540 7070 c-24 -16 -57 -32 -72 -35 -55 -12 -46 -50 16 -66 35 -9
45 -17 66 -57 34 -64 54 -62 58 6 4 76 19 69 58 -28 45 -111 127 -223 195
-265 44 -28 89 -42 89 -27 0 5 -32 45 -71 88 -81 89 -105 122 -95 131 7 8 160
-33 199 -53 15 -8 53 -20 85 -25 31 -6 70 -18 86 -26 31 -16 88 -12 112 8 41
34 -15 106 -103 133 -19 6 -25 2 -33 -18 -7 -19 -17 -26 -35 -26 -54 0 -164
32 -209 61 -55 34 -81 37 -96 9 -13 -25 -28 -25 -59 -1 l-24 18 32 6 c27 6 31
11 31 38 0 40 -72 116 -120 125 -17 4 -34 13 -37 20 -8 21 -23 17 -73 -16z"/>
<path d="M2447 7033 c-13 -13 -19 -14 -29 -5 -20 20 -41 15 -238 -52 -103 -36
-232 -74 -286 -85 -54 -12 -105 -28 -114 -37 -13 -14 -13 -17 4 -30 11 -8 29
-14 41 -14 36 0 158 38 322 99 87 33 172 62 188 66 l30 6 -25 -22 c-14 -12
-111 -64 -216 -115 -149 -72 -204 -105 -250 -146 -33 -30 -108 -96 -169 -148
-329 -284 -655 -649 -655 -735 0 -18 6 -35 13 -38 22 -8 67 23 92 63 14 22 48
65 76 96 28 31 48 58 45 61 -3 3 -24 -11 -47 -31 -42 -36 -59 -44 -59 -27 0
12 197 222 323 344 62 60 164 152 227 204 63 53 140 120 170 148 73 68 119 98
292 193 211 116 318 188 318 213 0 15 -35 10 -53 -8z"/>
<path d="M5782 7038 c-7 -7 -12 -19 -12 -27 0 -11 4 -10 20 4 21 19 26 35 12
35 -4 0 -13 -5 -20 -12z"/>
<path d="M4810 7003 c-342 -118 -1002 -373 -1069 -414 -25 -15 -31 -23 -22
-32 8 -8 31 -2 88 22 131 56 365 141 431 156 34 8 85 26 113 41 29 14 102 43
163 64 172 60 345 127 372 145 51 33 3 45 -76 18z"/>
<path d="M1528 6919 c-22 -23 -37 -44 -33 -47 9 -9 90 52 93 71 6 29 -19 19
-60 -24z"/>
<path d="M4060 6936 c-98 -29 -318 -115 -326 -127 -14 -24 33 -17 145 21 160
54 273 102 279 118 5 16 -10 15 -98 -12z"/>
<path d="M8329 6908 c-7 -27 -9 -74 -5 -125 9 -116 -2 -135 -49 -87 -31 31
-45 24 -45 -25 0 -27 7 -46 25 -65 22 -24 31 -27 82 -24 49 3 58 0 61 -15 2
-11 -6 -29 -17 -41 -12 -13 -19 -29 -16 -37 11 -27 94 -81 127 -83 30 -1 33 2
36 29 3 30 -4 47 -85 195 -23 41 -44 91 -48 110 l-7 35 50 -49 c27 -26 58 -65
67 -86 11 -24 28 -43 47 -51 45 -18 145 -85 219 -145 l66 -54 73 0 c56 0 78
-4 93 -17 18 -17 19 -17 33 2 18 25 18 69 -1 105 -17 32 -42 38 -75 18 -17
-11 -25 -7 -67 33 -27 26 -69 60 -94 77 -50 33 -83 70 -111 121 -11 19 -25 31
-38 31 -33 0 -36 -29 -6 -82 27 -48 27 -68 1 -68 -20 0 -50 35 -85 96 -16 29
-51 74 -77 101 -27 26 -63 69 -81 96 -18 26 -39 47 -47 47 -8 0 -19 -18 -26
-42z m465 -364 c9 -3 16 -13 16 -20 0 -12 -5 -12 -30 1 -16 9 -30 18 -30 20 0
7 25 6 44 -1z"/>
<path d="M8955 6930 c-16 -26 73 -71 110 -56 15 5 15 9 4 23 -15 18 -70 43
-93 43 -8 0 -18 -5 -21 -10z"/>
<path d="M1665 6884 c-45 -39 -143 -91 -194 -100 -30 -6 -33 -5 -27 14 13 39
-14 33 -59 -14 -25 -26 -52 -59 -60 -73 -7 -15 -37 -40 -67 -56 -112 -60 -226
-136 -284 -187 -33 -30 -99 -82 -146 -116 -118 -85 -124 -102 -78 -227 33 -90
34 -233 1 -303 -13 -28 -21 -58 -18 -66 12 -30 44 -17 73 28 16 24 85 112 154
196 169 205 190 235 190 276 0 72 -27 44 -198 -205 -57 -83 -85 -111 -98 -99
-8 9 -35 205 -37 273 -2 49 -1 50 47 82 28 18 80 59 116 92 37 33 96 80 131
105 82 57 233 136 260 136 12 0 40 17 64 38 24 20 93 64 155 97 111 59 145 88
138 121 -5 28 -21 25 -63 -12z"/>
<path d="M2447 6872 c-117 -29 -382 -184 -609 -355 -107 -80 -178 -150 -166
-162 6 -7 135 78 215 141 89 71 269 182 445 275 199 105 226 129 115 101z"/>
<path d="M4390 6761 c-80 -27 -242 -89 -360 -138 -118 -49 -240 -99 -270 -112
-79 -31 -125 -60 -113 -72 9 -9 50 3 248 75 38 14 72 23 75 20 7 -8 -21 -28
-130 -91 -131 -76 -188 -115 -237 -164 -74 -72 -43 -82 58 -19 75 47 320 172
432 220 126 55 157 104 47 75 -77 -21 -87 -20 -64 6 24 26 168 96 299 144 116
43 166 67 184 89 22 26 -11 20 -169 -33z"/>
<path d="M2459 6623 c-108 -78 -249 -229 -249 -265 0 -25 38 5 140 108 63 63
134 129 158 145 41 29 56 59 28 59 -8 0 -42 -21 -77 -47z"/>
<path d="M5375 6336 c-98 -42 -230 -87 -467 -160 -132 -41 -155 -62 -55 -53
158 15 619 179 673 238 16 18 16 19 -17 19 -19 -1 -79 -20 -134 -44z"/>
<path d="M2439 6326 c-2 -2 -69 -23 -149 -46 -80 -23 -155 -48 -167 -56 -68
-43 25 -45 151 -3 104 35 176 73 176 94 0 15 -3 18 -11 11z"/>
<path d="M2718 6260 c-33 -35 -186 -96 -535 -214 -138 -47 -291 -103 -340
-125 -49 -21 -141 -55 -204 -76 -142 -45 -190 -65 -183 -76 11 -19 93 -7 184
25 52 18 201 70 330 115 447 157 625 223 709 264 91 45 113 66 95 94 -16 26
-27 25 -56 -7z"/>
<path d="M1376 6124 c-19 -19 -21 -34 -3 -34 17 0 37 20 37 37 0 18 -15 16
-34 -3z"/>
<path d="M4625 6095 c-38 -8 -181 -36 -317 -64 -136 -28 -302 -60 -370 -72
-68 -11 -127 -24 -132 -29 -4 -4 2 -14 14 -20 17 -9 45 -9 114 -1 252 30 806
165 806 196 0 8 -40 4 -115 -10z"/>
<path d="M4048 6084 c-28 -15 -38 -34 -18 -34 18 0 70 30 70 40 0 14 -20 12
-52 -6z"/>
<path d="M2300 5966 c-162 -57 -330 -117 -372 -135 -42 -17 -170 -60 -283 -95
-233 -74 -270 -90 -292 -122 -21 -33 -63 -56 -178 -99 -182 -68 -275 -124
-275 -167 0 -10 2 -18 6 -18 3 0 35 18 71 40 82 49 174 85 374 146 164 49 213
69 204 84 -3 5 -30 6 -60 3 -121 -13 -37 32 250 132 83 29 177 58 210 65 67
14 547 173 612 202 41 19 59 41 47 59 -3 5 -8 9 -12 9 -4 -1 -140 -47 -302
-104z"/>
<path d="M3294 5999 c-9 -16 -7 -91 5 -120 12 -32 37 -53 52 -43 14 8 7 107
-12 147 -13 28 -33 35 -45 16z"/>
<path d="M3928 6003 c6 -2 18 -2 25 0 6 3 1 5 -13 5 -14 0 -19 -2 -12 -5z"/>
<path d="M2467 5889 c-88 -21 -123 -37 -152 -69 -19 -21 -19 -22 -2 -35 22
-16 68 -5 142 34 48 25 56 26 225 27 173 0 214 6 207 28 -12 38 -287 48 -420
15z"/>
<path d="M3402 5858 c2 -15 10 -23 23 -23 30 0 27 39 -3 43 -20 3 -23 0 -20
-20z"/>
<path d="M2105 5692 c-44 -21 -113 -51 -153 -67 -76 -30 -108 -60 -76 -72 10
-4 42 6 78 25 34 17 78 34 98 37 49 8 176 72 188 96 10 17 7 19 -22 19 -18 0
-69 -18 -113 -38z"/>
<path d="M3477 5654 c-4 -4 -7 -15 -7 -25 0 -41 -92 -119 -140 -119 -11 0 -32
-11 -46 -25 -19 -20 -24 -34 -22 -62 3 -31 12 -43 63 -84 33 -26 66 -48 72
-48 32 -2 127 254 121 325 -3 37 -23 56 -41 38z m-67 -219 c0 -19 -32 -36 -49
-25 -8 4 -11 15 -8 24 8 20 57 22 57 1z"/>
<path d="M662 5608 c-29 -94 -19 -408 16 -477 19 -40 65 -72 81 -56 7 7 0 25
-19 54 l-30 44 -1 181 c-1 199 -8 277 -26 283 -6 2 -16 -11 -21 -29z"/>
<path d="M2745 5615 c-99 -18 -440 -100 -563 -136 -65 -18 -121 -42 -153 -64
-47 -32 -83 -46 -199 -75 -49 -13 -396 -181 -473 -230 -27 -17 -46 -36 -44
-43 8 -22 74 -12 108 17 98 83 463 227 649 257 60 10 80 18 102 41 29 31 50
35 67 14 17 -20 0 -49 -46 -81 -32 -21 -45 -24 -88 -19 -62 7 -133 -15 -291
-90 -204 -98 -355 -197 -393 -260 -50 -81 -16 -74 100 20 129 104 488 284 565
284 34 0 25 -11 -55 -65 -146 -96 -168 -163 -67 -198 5 -2 -7 -31 -28 -64 -46
-74 -46 -108 -1 -108 29 0 30 1 30 50 0 28 8 69 19 92 18 40 18 44 1 69 -15
23 -15 30 -4 51 18 34 284 231 296 219 9 -8 -11 -33 -47 -59 -42 -29 -77 -82
-61 -91 5 -3 27 4 49 17 52 28 251 192 259 214 4 9 -1 21 -11 29 -17 12 -16
13 6 27 12 8 62 30 111 48 l87 32 23 -21 c28 -27 37 -27 140 -2 45 10 103 22
129 25 55 7 68 28 32 52 -14 9 -30 27 -35 40 -8 21 -14 23 -76 22 -38 -1 -99
-7 -138 -14z"/>
<path d="M1141 5594 c-23 -29 -27 -49 -11 -59 11 -7 80 59 80 76 0 20 -49 8
-69 -17z"/>
<path d="M1585 5486 c-100 -33 -145 -53 -145 -67 0 -8 12 -10 38 -7 44 7 190
62 218 83 18 14 18 14 -11 14 -16 0 -61 -11 -100 -23z"/>
<path d="M3565 5473 c-3 -16 -12 -41 -20 -56 -23 -44 -20 -139 5 -168 l21 -24
15 23 c35 48 70 12 88 -89 4 -21 13 -42 21 -49 31 -26 32 28 4 213 -10 68 -15
80 -35 87 -13 5 -32 27 -44 50 -24 46 -47 52 -55 13z"/>
<path d="M1614 5360 c-188 -49 -434 -180 -434 -231 0 -27 54 -26 78 2 39 46
177 108 378 168 105 32 141 54 113 72 -21 13 -55 10 -135 -11z"/>
<path d="M2842 5259 c-70 -40 -264 -233 -330 -329 -29 -41 -66 -93 -83 -115
-48 -63 -109 -171 -116 -207 -6 -32 -5 -32 13 -16 11 9 34 46 53 83 19 36 51
85 72 109 22 24 39 48 39 53 0 23 228 249 404 400 35 30 41 53 13 53 -7 0 -36
-14 -65 -31z"/>
<path d="M972 5228 c-72 -105 -83 -169 -43 -247 39 -75 61 -91 131 -91 63 0
69 4 45 36 -19 25 -19 175 0 229 8 21 13 41 11 42 -2 2 -19 -14 -39 -36 -39
-43 -57 -93 -57 -158 0 -24 -4 -43 -10 -43 -40 0 -48 182 -12 263 26 58 13 61
-26 5z"/>
<path d="M2085 5100 c-8 -13 4 -32 16 -25 12 8 12 35 0 35 -6 0 -13 -4 -16
-10z"/>
<path d="M3294 5042 c-40 -27 -50 -129 -16 -165 12 -13 22 -32 22 -43 0 -11 5
-25 12 -32 9 -9 17 -6 34 15 l21 27 16 -30 c8 -16 27 -77 41 -134 14 -58 40
-134 58 -170 56 -109 91 -73 44 44 -14 35 -35 116 -45 179 -24 141 -38 190
-63 217 -24 26 -42 25 -81 -2 -28 -20 -30 -20 -23 -3 4 11 10 38 13 62 6 43
-4 54 -33 35z"/>
<path d="M3578 5033 c-60 -69 -70 -251 -17 -295 25 -21 99 -24 117 -6 20 20
14 57 -13 82 -29 27 -32 52 -10 76 13 14 14 26 5 66 -19 85 -50 114 -82 77z"/>
<path d="M824 4984 c-15 -59 18 -198 52 -221 26 -17 158 -29 199 -19 25 6 26
9 13 22 -8 9 -45 22 -81 30 -95 22 -110 37 -113 112 -2 34 -8 70 -14 82 -15
29 -48 26 -56 -6z"/>
<path d="M3754 4915 c-17 -44 24 -288 55 -326 47 -58 55 52 14 186 -4 14 7 8
40 -22 44 -40 91 -63 104 -49 12 11 -20 55 -95 131 -88 89 -109 103 -118 80z"/>
<path d="M3183 4898 c-16 -20 -33 -102 -33 -156 0 -58 26 -100 55 -89 16 7 17
18 10 125 -7 118 -14 143 -32 120z"/>
<path d="M1165 4793 c4 -16 22 -53 41 -84 19 -31 41 -73 49 -93 17 -40 31 -46
40 -17 13 42 -35 152 -85 195 -41 34 -54 33 -45 -1z"/>
<path d="M4005 4760 c-3 -6 -3 -20 2 -33 4 -12 8 -39 8 -61 0 -53 28 -71 55
-36 27 35 26 91 -3 118 -25 23 -52 28 -62 12z"/>
<path d="M2605 4710 c-15 -16 -16 -23 -6 -33 10 -9 15 -8 27 7 29 40 12 62
-21 26z"/>
<path d="M3314 4709 c-9 -16 12 -33 31 -25 14 5 15 9 5 21 -15 18 -26 19 -36
4z"/>
<path d="M3560 4673 c0 -34 35 -201 56 -272 14 -46 31 -116 37 -155 9 -53 16
-72 29 -74 12 -2 19 5 24 24 9 34 -10 157 -36 244 -11 36 -22 88 -25 115 l-6
50 20 -36 c11 -19 27 -41 35 -48 9 -8 16 -22 16 -32 0 -22 67 -198 82 -216 15
-19 48 -16 48 4 0 20 -82 228 -120 303 -15 30 -37 63 -47 72 -22 20 -113 37
-113 21z"/>
<path d="M3302 4608 c-7 -7 -12 -20 -12 -31 0 -32 -20 -57 -46 -57 -50 0 -56
-99 -9 -146 45 -45 83 -18 51 36 -9 16 -16 38 -16 51 0 22 1 22 16 7 9 -9 22
-38 29 -64 6 -26 17 -50 22 -51 31 -11 46 131 23 202 -14 44 -42 69 -58 53z"/>
<path d="M2593 4508 c-11 -13 -35 -50 -53 -83 -77 -140 -219 -284 -392 -399
-107 -69 -152 -106 -132 -106 16 0 158 81 184 104 14 12 36 27 51 33 48 21
229 175 274 235 55 74 120 202 112 222 -9 22 -20 20 -44 -6z"/>
<path d="M1260 4503 c-14 -9 -48 -36 -76 -60 -28 -23 -67 -50 -87 -58 -45 -18
-67 -59 -67 -120 0 -67 33 -120 94 -152 46 -24 52 -2 12 46 -45 54 -51 74 -35
129 15 54 81 125 137 149 48 19 72 41 72 65 0 23 -18 23 -50 1z"/>
<path d="M3845 4450 c-14 -22 32 -120 57 -120 15 0 8 50 -12 90 -21 40 -33 49
-45 30z"/>
<path d="M3566 4364 c-10 -26 -7 -48 10 -72 22 -32 48 -11 40 31 -10 50 -38
73 -50 41z"/>
<path d="M1665 4340 c-49 -11 -139 -26 -199 -35 -145 -21 -156 -24 -156 -46 0
-24 19 -24 172 -2 107 15 119 16 135 1 10 -8 35 -18 55 -22 23 -4 42 -15 48
-27 10 -18 18 -19 93 -14 177 14 199 -59 34 -114 -70 -24 -101 -49 -95 -78 5
-25 36 -28 61 -5 25 22 52 37 159 87 59 27 79 42 84 60 8 33 -2 45 -40 45 -40
0 -55 16 -63 64 -7 42 1 45 27 14 13 -17 22 -20 30 -12 16 16 -3 59 -36 81
-40 26 -193 28 -309 3z m251 -19 c-3 -4 -38 -11 -78 -15 -40 -3 -92 -9 -115
-12 -27 -4 -43 -2 -43 4 0 6 26 13 58 17 31 3 64 8 72 9 34 8 111 5 106 -3z
m-103 -78 c-7 -2 -19 -2 -25 0 -7 3 -2 5 12 5 14 0 19 -2 13 -5z"/>
<path d="M3900 4254 c0 -9 7 -14 17 -12 25 5 28 28 4 28 -12 0 -21 -6 -21 -16z"/>
<path d="M3163 4134 c-3 -9 7 -30 24 -52 79 -98 88 -181 34 -330 -19 -51 -31
-95 -28 -99 20 -19 77 84 97 178 7 30 11 92 9 136 -4 90 -19 120 -79 161 -39
26 -49 27 -57 6z"/>
<path d="M3550 4061 c-65 -64 -84 -267 -39 -406 48 -145 21 -338 -59 -427 -63
-70 -320 -224 -444 -267 -78 -27 -118 -49 -118 -66 0 -20 26 -19 91 4 66 22
133 56 174 86 17 13 41 26 55 30 14 4 57 25 97 46 92 50 103 50 103 1 0 -51
-16 -65 -178 -147 -88 -45 -130 -71 -123 -78 14 -14 111 7 169 35 58 29 185
148 203 189 11 29 11 33 -11 49 -22 16 -23 21 -12 45 20 43 63 95 79 95 11 0
14 -13 12 -62 -3 -75 12 -85 37 -26 14 33 19 77 22 190 3 135 1 162 -28 310
-40 199 -38 268 7 349 17 30 28 60 26 67 -8 20 -33 14 -63 -17z"/>
<path d="M2051 4062 c-19 -9 -37 -23 -39 -29 -7 -22 43 -14 66 10 38 40 28 47
-27 19z"/>
<path d="M1213 4014 c-9 -23 14 -87 39 -111 47 -44 297 -147 314 -130 15 14
-27 43 -141 97 -118 56 -165 92 -180 140 -8 24 -23 26 -32 4z"/>
<path d="M1865 3965 c-140 -80 -158 -121 -29 -64 42 19 95 51 118 71 39 36 40
37 16 38 -14 0 -61 -20 -105 -45z"/>
<path d="M2976 3753 c32 -67 -14 -194 -81 -228 -49 -25 -253 -227 -280 -277
-36 -69 7 -61 58 11 19 26 65 74 103 107 129 111 210 199 243 264 47 95 40
140 -22 140 -24 0 -28 -3 -21 -17z"/>
<path d="M1620 3711 c0 -11 5 -23 11 -27 16 -9 30 18 17 33 -15 19 -28 16 -28
-6z"/>
<path d="M1940 3656 c-5 -15 -10 -44 -10 -65 0 -21 -11 -59 -25 -85 -40 -75
-29 -103 18 -46 49 58 74 177 44 207 -15 15 -17 14 -27 -11z"/>
<path d="M1610 3464 c-11 -12 -10 -18 3 -32 16 -15 18 -15 34 0 13 14 14 20 3
32 -7 9 -16 16 -20 16 -4 0 -13 -7 -20 -16z"/>
<path d="M1784 3379 c-64 -26 -113 -64 -99 -78 13 -13 83 22 134 66 42 37 35
39 -35 12z"/>
<path d="M1458 3293 c-9 -10 -20 -34 -25 -53 -12 -47 -40 -64 -225 -140 -215
-88 -318 -135 -433 -198 -182 -100 -269 -162 -252 -179 11 -10 136 57 171 92
18 18 44 36 57 40 13 4 58 23 99 42 41 19 93 41 115 49 l40 14 -36 -33 c-20
-17 -74 -52 -120 -76 -156 -83 -259 -162 -259 -200 0 -17 6 -21 31 -21 26 0
45 15 117 89 84 85 93 91 244 165 129 63 164 84 194 120 32 39 42 44 89 49 57
6 115 31 163 72 37 31 85 124 80 157 -4 29 -29 34 -50 11z"/>
<path d="M1570 3213 c-8 -3 -26 -14 -39 -24 l-24 -19 35 0 c31 0 68 23 68 43
0 8 -19 8 -40 0z"/>
<path d="M2551 3136 c-22 -26 -25 -99 -7 -134 31 -61 52 -27 40 66 -8 73 -16
89 -33 68z"/>
<path d="M2741 3141 c-11 -7 -8 -18 15 -56 27 -47 27 -49 16 -118 -7 -38 -10
-72 -8 -74 9 -9 27 9 48 50 30 57 31 149 3 176 -25 24 -56 33 -74 22z"/>
<path d="M1601 3098 c-42 -15 -91 -49 -86 -58 8 -12 54 6 90 35 33 27 32 37
-4 23z"/>
<path d="M1383 2993 c-15 -5 -18 -33 -4 -33 13 0 33 28 24 33 -4 2 -14 2 -20
0z"/>
<path d="M2480 2817 c-19 -13 -55 -31 -80 -41 -25 -10 -68 -31 -96 -47 -74
-42 -262 -87 -409 -98 -69 -5 -129 -12 -135 -16 -40 -25 49 -50 144 -41 119
11 216 36 366 93 176 68 270 126 270 167 0 13 -27 5 -60 -17z"/>
<path d="M1050 2800 l-25 -20 26 0 c24 0 49 16 49 32 0 14 -24 8 -50 -12z"/>
<path d="M2615 2753 c-44 -23 -65 -44 -65 -65 0 -30 33 -21 78 20 61 56 54 81
-13 45z"/>
<path d="M871 2681 c-7 -5 -9 -11 -4 -14 6 -4 19 0 29 8 15 11 16 14 4 15 -8
0 -21 -4 -29 -9z"/>
<path d="M403 2650 c-24 -10 -32 -40 -10 -40 17 0 57 29 57 41 0 11 -17 11
-47 -1z"/>
<path d="M801 2639 c-49 -30 -188 -136 -238 -183 -40 -36 -55 -66 -34 -66 20
0 329 268 311 269 -3 1 -21 -9 -39 -20z"/>
<path d="M1187 2646 c-46 -17 -101 -54 -147 -99 -50 -48 -14 -48 68 2 112 67
212 76 312 27 25 -13 83 -38 130 -57 l85 -34 -85 -7 c-127 -10 -197 -26 -277
-63 -65 -30 -104 -67 -88 -83 7 -8 63 9 143 43 91 38 210 59 275 47 l52 -9
-30 -12 c-106 -42 -245 -137 -245 -166 0 -21 9 -19 59 15 62 42 200 83 283 84
36 1 70 5 75 9 4 5 -5 19 -21 32 l-29 23 37 7 c40 8 58 31 35 45 -24 15 -4 20
117 31 170 15 321 37 345 49 11 6 18 17 16 23 -5 13 -4 14 -182 -3 -134 -13
-311 -8 -439 12 -38 5 -128 28 -200 49 -151 46 -234 56 -289 35z"/>
<path d="M2383 2583 c-19 -7 -16 -21 6 -28 22 -7 71 10 71 25 0 10 -54 13 -77
3z"/>
<path d="M305 2551 c-47 -28 -104 -98 -135 -163 -38 -81 -46 -128 -25 -167 25
-49 41 -39 49 30 10 86 38 154 97 239 28 39 49 73 47 75 -2 3 -17 -4 -33 -14z"/>
<path d="M1094 2468 c-42 -45 -84 -109 -84 -129 0 -19 23 -31 45 -23 23 9 107
140 103 161 -5 29 -31 26 -64 -9z"/>
<path d="M439 2445 c-65 -35 -157 -237 -119 -260 11 -7 16 3 24 56 5 26 24 54
76 107 86 88 96 139 19 97z"/>
<path d="M974 2452 c-6 -4 -23 -25 -38 -46 -42 -63 -30 -151 26 -190 54 -38
104 -2 56 39 -45 39 -50 58 -34 127 15 62 11 84 -10 70z"/>
<path d="M1306 2138 c-20 -28 -21 -90 -2 -126 17 -32 54 -68 62 -59 3 3 1 45
-5 94 -6 48 -11 94 -11 101 0 20 -28 14 -44 -10z"/>
<path d="M1745 2118 c-54 -29 -58 -72 -14 -123 36 -41 69 -60 119 -68 64 -12
67 7 6 42 -70 39 -93 72 -78 107 7 13 19 27 27 30 8 4 15 10 15 15 0 12 -51
11 -75 -3z"/>
<path d="M330 1972 c-70 -70 -64 -152 16 -241 62 -69 156 -113 297 -140 125
-24 117 -23 117 -13 0 10 -27 23 -137 67 -46 18 -102 44 -126 58 -63 37 -134
117 -147 167 -10 38 -9 47 13 91 13 27 20 49 14 49 -5 0 -26 -17 -47 -38z"/>
<path d="M2023 1933 c-27 -5 -30 -18 -5 -28 27 -11 205 -19 246 -11 37 7 48
29 20 40 -17 7 -226 6 -261 -1z"/>
<path d="M1420 1907 c0 -23 41 -48 88 -54 48 -6 63 11 34 39 -27 28 -122 39
-122 15z"/>
<path d="M2406 1911 c-10 -15 3 -18 134 -31 63 -5 153 -15 198 -21 137 -17
174 5 61 37 -69 20 -383 32 -393 15z"/>
<path d="M2925 1857 c-25 -19 -12 -35 63 -78 31 -17 74 -47 94 -67 l37 -35 11
28 c6 15 8 37 4 49 -21 70 -160 138 -209 103z"/>
<path d="M1593 1808 c-26 -13 -29 -36 -9 -64 14 -18 27 -19 275 -17 256 2 326
10 271 31 -14 5 -88 14 -165 21 -77 6 -171 17 -210 26 -81 17 -131 18 -162 3z"/>
<path d="M663 1734 c-17 -44 73 -63 312 -63 130 -1 189 8 153 22 -28 10 -380
57 -433 57 -14 0 -28 -7 -32 -16z"/>
<path d="M2425 1673 c-27 -7 -46 -23 -39 -34 9 -15 72 -10 88 7 28 28 5 40
-49 27z"/>
<path d="M1358 1644 c33 -14 52 -12 52 7 0 5 -19 9 -42 8 l-43 -1 33 -14z"/>
<path d="M3126 1648 c-3 -7 -7 -25 -10 -40 -4 -15 -22 -42 -41 -60 -23 -20
-32 -35 -26 -41 14 -14 38 7 73 62 28 45 37 91 18 91 -6 0 -12 -6 -14 -12z"/>
<path d="M1464 1639 c-8 -13 13 -29 38 -29 26 0 31 18 9 29 -25 14 -38 14 -47
0z"/>
<path d="M1062 1609 c-89 -8 -152 -25 -152 -40 0 -12 284 -12 351 1 61 12 82
26 59 40 -17 11 -139 11 -258 -1z"/>
<path d="M1795 1550 c3 -5 15 -10 26 -10 11 0 17 5 14 10 -3 6 -15 10 -26 10
-11 0 -17 -4 -14 -10z"/>
<path d="M2510 1162 c0 -49 -16 -63 -105 -99 -44 -18 -71 -35 -73 -46 -5 -24
24 -22 102 7 77 29 123 61 142 99 21 40 -3 77 -52 77 -10 0 -14 -12 -14 -38z"/>
<path d="M3155 1178 c-2 -7 -11 -40 -20 -73 -9 -33 -24 -71 -32 -85 l-16 -25
22 20 c32 28 48 62 56 123 6 47 0 71 -10 40z"/>
<path d="M1109 1115 c-67 -21 -111 -78 -47 -62 28 7 108 58 108 69 0 10 -6 10
-61 -7z"/>
<path d="M1441 1035 c-77 -14 -98 -25 -86 -45 5 -9 28 -10 79 -6 39 4 146 11
238 16 178 9 203 14 173 37 -25 17 -302 16 -404 -2z"/>
<path d="M1943 1033 c-48 -9 -17 -36 54 -47 47 -7 73 0 73 19 0 20 -80 37
-127 28z"/>
<path d="M1120 972 c-44 -22 -45 -36 -1 -40 33 -3 146 32 157 49 10 17 -120
10 -156 -9z"/>
<path d="M3008 949 c-10 -5 -93 -25 -185 -44 -248 -51 -283 -64 -270 -99 10
-25 100 -21 193 10 82 26 248 106 274 130 17 16 12 18 -12 3z"/>
<path d="M767 914 c-32 -17 -31 -37 2 -42 25 -4 61 23 61 45 0 17 -28 16 -63
-3z"/>
<path d="M2175 789 c-237 -36 -506 -94 -545 -119 -25 -15 -4 -22 36 -11 52 14
498 97 654 122 68 11 126 22 129 24 11 12 -156 1 -274 -16z"/>
<path d="M625 718 c-19 -65 -19 -93 1 -150 23 -69 75 -122 157 -162 75 -36
137 -54 137 -39 0 10 -100 77 -187 124 l-63 34 0 100 c0 153 -17 187 -45 93z"/>
<path d="M1552 599 c2 -19 13 -27 53 -37 68 -19 220 -21 237 -4 21 21 -1 28
-130 40 -64 7 -128 15 -140 18 -21 6 -23 4 -20 -17z"/>
<path d="M2212 464 c-12 -8 -22 -21 -22 -29 0 -40 158 -108 289 -124 80 -10
275 2 329 20 l37 13 -45 7 c-25 4 -86 8 -135 8 -120 1 -255 19 -282 37 -13 8
-23 23 -23 34 0 17 -7 20 -45 20 -35 0 -43 3 -39 15 8 20 -34 20 -64 -1z"/>
<path d="M2901 362 c-19 -13 -3 -20 62 -28 70 -8 154 3 138 19 -14 14 -181 21
-200 9z"/>
<path d="M3170 340 c0 -16 35 -29 96 -36 71 -9 67 8 -8 31 -59 17 -88 19 -88
5z"/>
<path d="M1100 256 c0 -16 138 -66 184 -66 l29 0 -26 20 c-62 49 -187 80 -187
46z"/>
<path d="M3519 156 c-16 -33 -5 -58 23 -54 19 2 23 9 23 38 0 44 -29 54 -46
16z"/>
<path d="M1692 58 c9 -25 110 -49 218 -51 62 -1 106 2 108 8 4 13 -30 21 -175
39 -147 19 -156 19 -151 4z"/>
<path d="M3288 39 c-10 -5 -18 -17 -18 -26 0 -13 9 -15 54 -9 64 7 106 21 106
36 0 13 -119 13 -142 -1z"/>
</g>
</svg>
