<?xml version="1.0" standalone="no"?>
<!DOCTYPE svg PUBLIC "-//W3C//DTD SVG 20010904//EN"
 "http://www.w3.org/TR/2001/REC-SVG-20010904/DTD/svg10.dtd">
<svg version="1.0" xmlns="http://www.w3.org/2000/svg"
 width="1280.000000pt" height="896.000000pt" viewBox="0 0 1280.000000 896.000000"
 preserveAspectRatio="xMidYMid meet">
<metadata>
Created by potrace 1.15, written by Peter Selinger 2001-2017
</metadata>
<g transform="translate(0.000000,896.000000) scale(0.100000,-0.100000)"
fill="#000000" stroke="none">
<path d="M7082 8933 c-6 -15 -14 -38 -17 -50 -6 -22 -11 -23 -105 -23 -96 0
-98 0 -104 25 -6 25 -8 25 -110 25 -58 0 -111 3 -120 6 -11 4 -21 -4 -33 -25
l-18 -31 -102 0 c-100 0 -103 1 -109 24 -6 24 -8 25 -126 28 -66 2 -123 1
-128 -2 -4 -3 -12 -15 -19 -27 -11 -22 -18 -23 -116 -23 -100 0 -104 1 -107
23 -3 21 -8 22 -123 27 -105 4 -122 3 -137 -12 -10 -10 -18 -22 -18 -28 0 -6
-41 -10 -104 -10 -102 0 -104 0 -110 24 -6 24 -8 25 -128 28 l-122 3 -15 -28
-16 -27 -105 2 c-99 3 -105 4 -108 25 -3 21 -8 22 -124 25 -66 2 -123 1 -128
-2 -4 -3 -12 -15 -19 -27 -11 -22 -18 -23 -116 -23 -100 0 -104 1 -107 23 -3
21 -8 22 -123 27 -105 4 -122 3 -137 -12 -10 -10 -18 -22 -18 -28 0 -6 -33
-10 -79 -10 -78 0 -78 0 -317 -108 l-239 -107 -3 -47 c-3 -46 -4 -47 -40 -50
-34 -3 -37 -6 -40 -35 l-3 -33 -379 0 c-412 0 -410 0 -410 -56 l0 -24 -145 0
c-145 0 -145 0 -145 23 0 43 -14 47 -190 47 -176 0 -190 -4 -190 -47 l0 -23
-230 0 c-196 0 -231 -2 -236 -15 -5 -13 -36 -15 -191 -15 -189 0 -268 -10
-503 -66 -123 -29 -130 -33 -130 -64 l0 -28 -173 -4 -173 -3 -76 -38 c-87 -42
-168 -111 -192 -161 -14 -29 -16 -78 -16 -330 0 -275 1 -300 20 -335 26 -53
89 -104 184 -152 l78 -39 174 0 174 0 0 -30 c0 -35 10 -41 108 -65 217 -54
301 -65 499 -65 180 0 197 -2 220 -20 24 -19 41 -20 244 -20 208 0 219 -1 219
-19 0 -38 21 -42 201 -39 l174 3 3 28 3 27 143 0 142 0 9 -32 c9 -30 14 -33
53 -36 l42 -3 0 -128 c0 -70 3 -176 7 -234 5 -95 8 -107 25 -107 17 0 18 -12
16 -272 l-3 -272 -106 -12 c-221 -25 -419 -77 -519 -136 -166 -99 -75 -217
228 -294 53 -13 105 -24 116 -24 18 0 19 -11 13 -432 -4 -238 -13 -527 -22
-643 -10 -132 -18 -398 -22 -720 -5 -491 0 -662 33 -1235 l6 -105 -36 -23
c-44 -27 -76 -76 -76 -115 0 -105 141 -191 396 -243 123 -25 414 -30 552 -10
214 32 368 91 437 168 29 32 35 46 35 84 0 42 -5 51 -42 89 -24 23 -51 46 -62
52 -18 10 -18 17 0 319 27 448 27 1336 -1 1729 -14 204 -19 388 -20 679 l0
400 30 6 c17 4 55 13 85 19 30 7 82 22 115 33 231 79 281 173 141 263 -113 72
-313 120 -641 153 l-70 7 -3 268 c-2 220 0 267 11 267 16 0 27 153 27 357 0
101 2 113 18 113 9 0 22 -10 27 -22 7 -16 20 -24 41 -26 26 -3 33 -8 37 -31 4
-16 16 -40 29 -55 13 -14 131 -89 263 -167 132 -78 319 -192 415 -252 96 -61
199 -123 229 -139 l54 -28 319 0 c311 0 320 -1 325 -20 5 -19 14 -20 134 -20
118 0 130 2 141 20 11 18 24 20 100 20 77 0 89 -2 98 -20 10 -18 21 -20 140
-20 120 0 129 1 135 20 6 18 15 20 100 20 84 0 93 -2 98 -20 5 -19 14 -20 135
-20 122 0 131 1 137 20 6 18 15 20 100 20 84 0 93 -2 98 -20 5 -19 14 -20 137
-20 123 0 132 1 137 20 5 18 14 20 98 20 85 0 93 -2 98 -20 5 -20 12 -20 139
-18 124 3 133 4 136 23 2 18 9 20 53 16 46 -3 52 -6 67 -37 l16 -34 545 2 546
3 20 32 20 32 918 1 917 0 0 -24 c0 -82 22 -108 111 -131 29 -8 59 -20 66 -28
23 -23 61 -167 92 -356 29 -173 44 -312 76 -706 9 -110 22 -214 30 -230 19
-46 60 -91 100 -109 22 -11 35 -24 35 -36 0 -10 45 -110 101 -222 239 -479
330 -792 329 -1130 -1 -193 -42 -390 -91 -434 -11 -10 -59 -39 -107 -64 -67
-35 -91 -54 -106 -82 -19 -34 -19 -37 -2 -63 25 -37 79 -59 268 -106 230 -57
277 -73 379 -125 99 -51 118 -71 174 -184 61 -122 114 -195 159 -221 43 -24
117 -30 230 -19 l50 5 38 -125 c156 -506 194 -711 224 -1207 6 -98 9 -113 25
-118 15 -5 19 -17 20 -63 1 -31 4 -111 8 -177 l6 -119 47 -15 c36 -11 60 -12
95 -5 l48 9 -4 176 c-2 124 0 178 8 183 15 10 14 192 -4 506 -17 306 -50 553
-125 940 l-20 105 34 30 c49 44 56 63 56 167 0 51 9 181 20 288 34 339 43 673
37 1435 -6 751 -9 814 -67 1535 -32 395 -57 627 -90 842 -27 170 -94 524 -120
633 -58 241 -198 647 -297 865 -90 197 -119 275 -133 364 -12 77 -4 101 61
171 42 45 69 100 69 138 0 34 -58 145 -84 162 -183 120 -1804 204 -4581 238
l-170 2 -10 50 -11 50 -126 3 -125 3 -11 -28z"/>
</g>
</svg>
