<?xml version="1.0" standalone="no"?>
<!DOCTYPE svg PUBLIC "-//W3C//DTD SVG 20010904//EN"
 "http://www.w3.org/TR/2001/REC-SVG-20010904/DTD/svg10.dtd">
<svg version="1.0" xmlns="http://www.w3.org/2000/svg"
 width="812.000000pt" height="1280.000000pt" viewBox="0 0 812.000000 1280.000000"
 preserveAspectRatio="xMidYMid meet">
<metadata>
Created by potrace 1.15, written by Peter Selinger 2001-2017
</metadata>
<g transform="translate(0.000000,1280.000000) scale(0.100000,-0.100000)"
fill="#000000" stroke="none">
<path d="M1951 12790 c-56 -12 -232 -67 -249 -78 -7 -5 -18 -28 -25 -52 -10
-36 -20 -47 -57 -67 -143 -74 -212 -240 -212 -513 -1 -174 20 -274 117 -570
41 -124 77 -243 80 -265 4 -22 2 -85 -4 -140 l-11 -100 -87 -85 c-116 -113
-236 -202 -509 -376 -124 -79 -269 -176 -322 -216 -107 -80 -320 -286 -345
-333 -9 -18 -24 -108 -36 -215 -86 -746 -146 -1167 -212 -1494 -75 -377 -82
-456 -75 -806 14 -612 45 -911 137 -1293 l50 -208 -22 -112 c-33 -163 -31
-297 5 -402 15 -44 43 -105 62 -137 44 -73 120 -157 153 -170 72 -27 148 -41
261 -47 l125 -6 6 -330 c8 -389 21 -522 90 -921 l32 -181 -26 -94 c-41 -149
-51 -233 -44 -397 7 -176 34 -316 130 -672 95 -354 134 -568 124 -680 -3 -37
-23 -99 -55 -176 -148 -350 -166 -410 -167 -559 0 -109 0 -111 38 -182 47 -87
129 -168 218 -214 54 -28 75 -33 134 -34 55 0 79 5 111 23 54 32 62 47 85 170
11 59 36 172 54 252 32 134 34 157 33 285 -2 96 3 177 16 260 29 187 21 275
-43 463 -28 84 -54 177 -57 206 -8 68 7 179 62 444 55 265 74 411 74 556 0
105 2 114 26 147 110 147 177 365 190 617 5 86 22 193 66 407 75 360 74 354
81 335 16 -41 28 -182 37 -445 6 -159 20 -364 30 -455 11 -91 20 -181 20 -201
0 -30 6 -39 37 -60 26 -17 42 -37 51 -64 12 -37 11 -48 -17 -135 -16 -52 -70
-232 -119 -400 l-89 -305 -6 -350 c-14 -771 -82 -1261 -203 -1460 -20 -33 -36
-69 -36 -80 0 -31 23 -248 28 -267 7 -25 92 -47 209 -54 l100 -6 185 -88 c332
-159 355 -162 542 -72 140 68 156 83 138 137 -17 51 -68 89 -158 119 -118 40
-181 86 -336 246 l-139 144 6 96 c10 158 66 390 155 640 17 47 80 218 140 380
106 286 112 305 185 635 42 187 90 412 107 500 18 88 38 172 45 186 27 51 126
78 322 88 161 8 182 16 218 87 11 21 22 40 25 41 3 2 3 98 1 214 l-3 211 43
-7 c57 -9 193 -45 342 -90 176 -52 544 -145 576 -145 15 0 75 12 132 26 77 20
116 25 156 20 90 -11 98 -17 148 -116 55 -110 78 -213 94 -419 17 -207 62
-529 137 -969 82 -480 149 -760 254 -1052 47 -131 74 -278 67 -370 -3 -47 -14
-89 -39 -145 -20 -44 -45 -109 -57 -145 -11 -36 -55 -132 -96 -213 -77 -152
-86 -187 -64 -244 17 -46 47 -70 169 -138 190 -105 241 -120 307 -89 43 21 59
45 78 118 8 31 25 76 37 99 21 39 23 55 24 212 0 152 3 175 22 219 25 56 28
111 8 178 -14 46 -18 105 -17 246 l1 72 34 0 c39 0 161 35 194 56 14 9 22 24
22 41 0 41 -71 126 -135 163 -31 17 -70 44 -87 58 -17 15 -52 38 -77 52 l-46
25 -3 70 c-2 39 4 286 13 550 13 401 18 495 35 570 49 223 141 545 179 630 35
76 46 123 71 300 11 77 24 154 28 170 l8 30 120 6 c84 5 136 13 179 29 64 23
63 23 500 40 143 6 270 13 283 16 12 2 27 15 32 29 19 49 163 95 430 135 155
24 231 42 313 75 75 31 180 102 236 159 l44 45 -12 43 c-8 24 -65 173 -127
332 -63 159 -114 293 -114 298 0 5 -26 54 -59 108 -90 153 -280 534 -370 741
-88 205 -318 702 -432 935 -117 238 -249 423 -431 603 -148 148 -238 209 -378
257 l-65 22 0 75 c0 41 -3 78 -7 82 -4 4 16 33 44 64 92 101 138 230 154 435
3 43 9 74 13 70 4 -5 25 -49 46 -99 33 -77 39 -105 45 -191 7 -102 12 -119 67
-209 17 -27 47 -81 68 -118 41 -75 187 -275 351 -479 164 -203 218 -264 337
-378 l109 -105 3 -120 c2 -90 8 -137 25 -190 70 -221 180 -324 267 -251 44 37
54 83 60 292 l6 191 30 9 c38 11 60 40 97 133 36 89 37 95 5 109 -14 6 -25 20
-25 29 -1 31 -23 59 -88 110 -34 28 -71 62 -83 77 -14 18 -30 26 -50 26 -17 0
-40 5 -52 12 -12 7 -60 15 -107 18 l-85 5 -32 60 c-18 33 -56 119 -84 190 -76
190 -217 465 -323 634 -47 74 -74 164 -97 318 -11 81 -32 201 -45 267 -32 156
-31 177 6 219 16 19 30 41 30 48 0 7 -14 28 -31 45 -31 32 -31 34 -20 78 11
45 -5 147 -69 450 -18 86 -69 176 -140 247 -57 58 -75 70 -134 88 -37 12 -82
21 -100 22 l-31 0 42 19 c47 21 65 49 82 128 17 83 14 114 -19 164 -42 63
-124 137 -159 144 -36 8 -66 38 -58 59 5 10 20 15 51 15 52 0 73 21 83 84 5
35 4 37 -18 31 -51 -12 -54 -1 -54 202 -1 218 -14 291 -75 418 -43 91 -83 134
-132 144 -31 6 -33 10 -36 50 -3 42 -4 42 -22 26 -19 -17 -21 -16 -64 31 -36
39 -48 63 -62 119 -27 110 -105 257 -161 302 -25 21 -85 75 -132 120 -99 94
-136 113 -223 113 -82 0 -261 -41 -328 -75 -110 -56 -151 -117 -302 -445 -19
-41 -53 -96 -76 -123 -44 -50 -74 -128 -87 -225 -5 -35 -18 -69 -41 -102 -22
-32 -34 -61 -34 -83 0 -26 -11 -46 -51 -90 -28 -31 -57 -57 -65 -57 -8 0 -14
-7 -14 -15 0 -19 36 -55 55 -55 9 0 -13 -33 -55 -82 -66 -76 -71 -84 -65 -117
5 -32 1 -43 -41 -96 -53 -68 -94 -148 -94 -185 0 -14 14 -53 32 -87 39 -76 32
-90 -32 -73 -23 6 -44 9 -47 6 -3 -3 6 -29 20 -58 38 -80 38 -83 12 -166 -33
-105 -47 -122 -96 -122 l-39 0 0 -45 c0 -42 24 -108 53 -146 29 -38 90 -69
134 -69 25 0 43 -3 41 -7 -63 -124 -128 -328 -128 -403 0 -32 10 -70 30 -116
20 -43 29 -77 26 -93 -3 -14 -10 -84 -16 -156 -6 -71 -15 -145 -21 -163 -14
-42 2 -84 44 -114 l30 -21 -6 -191 c-8 -242 -29 -349 -86 -444 -63 -106 -98
-188 -135 -322 -71 -254 -66 -260 -60 65 8 408 -10 544 -95 713 -114 226 -151
423 -171 892 -16 397 -47 658 -91 775 -53 143 -191 280 -459 456 -252 165
-298 198 -375 274 -192 188 -215 302 -117 590 43 125 53 170 61 264 6 62 27
210 47 329 42 250 41 300 -6 400 -65 140 -273 305 -470 374 -64 22 -204 32
-269 18z m1182 -3961 c47 -93 66 -215 77 -502 15 -387 42 -571 161 -1094 113
-500 137 -705 105 -923 -12 -78 -27 -137 -48 -185 -29 -65 -32 -80 -36 -220
-7 -210 -6 -260 8 -310 11 -39 10 -51 -15 -125 -15 -45 -31 -78 -35 -73 -13
15 -89 677 -115 1008 -12 152 -26 244 -70 460 -168 811 -198 1134 -154 1680
15 192 53 352 82 342 7 -2 25 -28 40 -58z m-2288 -11 c14 -29 25 -63 25 -75 0
-12 16 -86 35 -165 52 -213 66 -321 72 -559 11 -432 -32 -757 -177 -1317 -35
-134 -40 -167 -40 -265 0 -142 -20 -429 -31 -441 -4 -5 -23 6 -42 25 -91 91
-151 462 -151 934 0 291 -2 277 135 1100 122 738 136 815 145 815 3 0 16 -24
29 -52z m3795 -574 c6 -65 18 -168 27 -228 21 -141 14 -255 -19 -328 -22 -46
-169 -235 -199 -253 -15 -10 -6 34 58 285 36 143 64 286 83 425 17 116 30 214
30 219 0 5 2 7 5 5 2 -3 9 -59 15 -125z m-4041 -2651 c29 -64 51 -148 51 -200
0 -44 25 -83 53 -83 19 0 60 -47 52 -59 -12 -20 -67 -43 -90 -37 -33 8 -164
151 -188 205 -25 55 -27 129 -5 163 15 23 70 57 94 58 6 0 21 -21 33 -47z"/>
</g>
</svg>
