<?xml version="1.0" standalone="no"?>
<!DOCTYPE svg PUBLIC "-//W3C//DTD SVG 20010904//EN"
 "http://www.w3.org/TR/2001/REC-SVG-20010904/DTD/svg10.dtd">
<svg version="1.0" xmlns="http://www.w3.org/2000/svg"
 width="1010.000000pt" height="1280.000000pt" viewBox="0 0 1010.000000 1280.000000"
 preserveAspectRatio="xMidYMid meet">
<metadata>
Created by potrace 1.15, written by Peter Selinger 2001-2017
</metadata>
<g transform="translate(0.000000,1280.000000) scale(0.100000,-0.100000)"
fill="#000000" stroke="none">
<path d="M655 12633 c-70 -92 -129 -172 -132 -179 -2 -6 520 -516 1161 -1133
641 -617 1166 -1125 1166 -1129 0 -4 -7 -16 -15 -26 -9 -12 -15 -42 -15 -78 0
-91 76 -226 229 -407 167 -199 616 -640 1196 -1176 160 -147 290 -272 290
-278 0 -6 -152 -126 -338 -267 l-337 -256 -553 -715 c-303 -393 -562 -727
-573 -742 -21 -26 -31 -28 -210 -53 -104 -14 -195 -30 -204 -37 -8 -6 -55 -46
-105 -88 -49 -41 -218 -183 -375 -314 -781 -654 -1272 -1120 -1617 -1535 -106
-128 -224 -293 -216 -301 5 -3 271 -182 593 -396 l586 -390 722 1136 722 1137
67 -7 c38 -5 89 -8 115 -8 l46 -1 521 543 c549 572 725 736 951 890 178 122
280 234 280 306 0 52 -26 106 -77 161 l-53 58 285 207 285 207 177 -164 c97
-89 212 -194 254 -233 42 -38 77 -74 78 -80 0 -5 -20 -25 -44 -42 -92 -68
-120 -164 -76 -257 27 -54 144 -182 234 -256 157 -126 348 -355 821 -978 l461
-607 113 -5 114 -5 489 -1015 c269 -558 531 -1102 582 -1207 50 -106 96 -193
101 -193 9 0 1245 628 1258 639 10 8 -104 205 -217 376 -215 325 -508 691
-911 1140 -185 206 -252 279 -641 691 l-282 299 -178 44 c-98 24 -183 49 -190
55 -6 6 -227 369 -490 807 l-478 795 -305 293 c-168 162 -306 297 -308 301 -2
5 138 111 310 236 1090 792 1497 1137 1594 1349 26 55 29 104 10 160 -6 18 21
42 191 171 109 83 686 521 1283 973 597 453 1089 827 1093 831 5 4 -42 94
-104 198 l-112 191 -56 -43 c-824 -629 -4708 -3569 -4716 -3570 -9 -1 -3229
3086 -4206 4032 l-117 113 -127 -168z m3847 -5360 c25 -27 51 -58 57 -70 15
-30 14 -99 -3 -132 -20 -38 -138 -146 -229 -209 l-77 -53 -20 46 c-27 63 -39
147 -29 202 15 79 50 125 150 197 51 36 95 66 98 66 4 0 27 -21 53 -47z m1285
-217 c35 -69 30 -174 -13 -260 -16 -33 -35 -61 -41 -63 -7 -3 -64 47 -127 109
-157 154 -183 215 -131 303 13 24 46 59 72 78 l47 35 84 -76 c54 -49 93 -94
109 -126z"/>
<path d="M5508 6243 c-40 -43 -97 -138 -130 -217 -42 -98 -50 -214 -19 -275
34 -65 84 -114 196 -191 115 -78 145 -109 145 -152 0 -39 25 -97 58 -132 38
-40 171 -142 280 -215 50 -34 92 -64 92 -68 0 -3 -14 -27 -30 -53 -31 -49 -54
-60 -122 -60 -29 0 -29 0 -22 48 7 58 -8 94 -61 140 -82 72 -161 89 -243 52
l-43 -19 22 -43 c86 -169 186 -290 250 -303 58 -11 67 -15 73 -31 4 -10 -58
-136 -158 -323 -91 -168 -232 -434 -315 -591 l-149 -285 -384 -203 -383 -203
-290 -39 c-159 -21 -416 -53 -570 -70 -450 -49 -477 -54 -558 -109 -88 -59
-74 -58 -161 -6 -193 114 -357 185 -428 185 -58 0 -82 -29 -75 -92 15 -121
136 -279 308 -399 50 -35 97 -68 105 -74 24 -18 -124 -409 -184 -483 -47 -59
-59 -65 -204 -110 -71 -22 -146 -52 -168 -67 -73 -51 -126 -148 -258 -475
-127 -314 -152 -366 -204 -426 -45 -51 -77 -64 -160 -64 l-74 0 -134 -118
-135 -118 -38 -149 c-59 -231 -54 -339 15 -321 49 12 171 118 384 332 239 240
268 277 479 624 182 298 305 408 550 493 55 19 155 44 222 56 133 24 546 81
551 77 6 -6 -220 -159 -277 -187 -69 -35 -120 -39 -209 -19 -56 13 -64 12 -78
-2 -37 -37 0 -110 174 -344 207 -280 239 -348 228 -489 -5 -76 -4 -83 17 -103
12 -11 48 -32 80 -46 31 -14 57 -32 57 -40 0 -17 -83 -92 -110 -99 -10 -3 -48
9 -84 25 -36 17 -72 28 -81 24 -37 -14 -50 -74 -50 -231 0 -133 2 -155 22
-197 23 -50 52 -66 95 -53 12 5 61 45 108 90 48 46 118 103 156 128 84 54 137
110 154 162 8 25 11 69 7 124 -8 137 -69 311 -255 720 l-106 234 28 22 c35 28
297 184 466 278 l135 75 85 -10 c138 -16 389 -2 674 38 l109 16 121 -46 121
-45 353 -13 c319 -12 355 -15 367 -31 7 -10 11 -27 8 -37 -14 -54 -274 -244
-436 -320 -117 -55 -142 -58 -216 -25 -74 34 -115 31 -208 -15 -82 -41 -146
-100 -141 -132 6 -42 48 -53 208 -52 160 0 312 24 442 70 110 38 108 38 108
20 0 -33 45 -48 133 -45 69 3 93 9 151 38 135 66 209 170 326 461 38 96 103
240 142 320 81 161 85 187 48 260 -34 66 -128 153 -206 191 -55 26 -103 37
-248 60 -100 16 -184 29 -188 29 -15 0 -38 33 -38 52 0 12 49 107 109 212 192
337 195 343 372 856 133 385 185 495 268 572 48 45 71 59 124 73 71 19 126 14
291 -26 97 -23 120 -23 172 0 70 32 116 112 100 175 -9 38 -61 92 -119 125
-68 38 -211 95 -422 166 -256 86 -277 100 -335 215 -22 44 -40 84 -40 89 0 6
25 49 56 97 l57 86 -53 122 c-82 190 -142 316 -151 316 -4 0 -5 -8 -3 -17 2
-10 20 -83 39 -162 38 -157 44 -241 20 -298 -8 -19 -15 -63 -15 -96 0 -33 -3
-57 -7 -54 -3 4 -22 60 -40 125 -19 64 -47 141 -63 169 -19 33 -30 67 -30 92
0 21 26 146 59 277 32 132 61 254 65 272 21 115 -102 -93 -138 -234 -9 -34
-27 -87 -41 -118 -39 -89 -30 -183 40 -403 19 -59 35 -112 35 -118 0 -5 -47
37 -104 94 -96 96 -104 107 -116 159 -18 85 -63 175 -107 218 -21 22 -83 66
-137 99 -155 95 -194 157 -174 279 8 52 43 158 82 249 9 20 15 37 13 37 -2 0
-15 -12 -29 -27z m669 -3998 c47 -33 52 -136 14 -261 -22 -74 -91 -234 -100
-234 -4 0 -12 15 -19 34 -28 76 -154 163 -397 274 -77 35 -144 67 -148 71 -4
5 20 11 55 14 35 4 153 31 263 61 212 58 294 68 332 41z"/>
</g>
</svg>
