<?xml version="1.0" standalone="no"?>
<!DOCTYPE svg PUBLIC "-//W3C//DTD SVG 20010904//EN"
 "http://www.w3.org/TR/2001/REC-SVG-20010904/DTD/svg10.dtd">
<svg version="1.0" xmlns="http://www.w3.org/2000/svg"
 width="1280.000000pt" height="688.000000pt" viewBox="0 0 1280.000000 688.000000"
 preserveAspectRatio="xMidYMid meet">
<metadata>
Created by potrace 1.15, written by Peter Selinger 2001-2017
</metadata>
<g transform="translate(0.000000,688.000000) scale(0.100000,-0.100000)"
fill="#000000" stroke="none">
<path d="M8650 6864 c-95 -15 -918 -173 -1250 -240 -410 -83 -573 -131 -681
-203 -147 -96 -356 -303 -503 -496 -141 -186 -186 -217 -301 -210 -38 3 -175
12 -303 21 -281 20 -538 15 -622 -11 -80 -25 -202 -89 -307 -161 -144 -98
-211 -107 -353 -48 -127 52 -210 84 -210 80 0 -2 42 -37 93 -79 157 -129 215
-200 183 -227 -11 -8 -42 4 -132 50 -116 59 -156 71 -170 49 -3 -6 26 -40 66
-77 104 -96 111 -115 121 -342 5 -131 12 -199 24 -233 10 -26 15 -50 12 -53
-5 -6 -305 64 -422 98 -102 29 -219 93 -261 142 -52 60 -63 95 -76 233 -8 92
-15 123 -25 123 -28 0 -35 -52 -30 -228 l5 -174 -26 7 c-41 10 -890 261 -1037
306 -408 126 -689 227 -1065 384 -435 181 -623 294 -840 501 -167 160 -281
328 -390 571 -29 65 -56 122 -60 127 -15 16 -30 -33 -62 -195 l-32 -161 23
-101 c41 -182 97 -302 220 -467 81 -108 180 -204 338 -322 189 -142 278 -199
488 -316 197 -109 270 -142 630 -287 382 -154 719 -277 1165 -426 445 -148
480 -161 480 -169 0 -3 -49 -17 -108 -31 -59 -14 -130 -36 -158 -48 l-52 -23
-32 -109 c-18 -63 -29 -120 -26 -133 8 -34 116 -130 204 -181 143 -84 285
-115 727 -160 266 -26 335 -35 335 -41 0 -2 -16 -26 -35 -53 -63 -87 -65 -133
-24 -596 34 -377 12 -515 -137 -862 -156 -362 -181 -399 -394 -565 -130 -102
-126 -94 -136 -255 -6 -80 -3 -121 12 -193 17 -85 17 -96 3 -150 l-15 -59 52
-7 c57 -7 134 3 134 17 0 4 -27 57 -60 116 l-60 108 0 96 c0 83 3 102 27 149
15 30 57 86 93 124 85 91 154 186 236 328 166 286 238 483 274 738 6 47 12
234 14 415 2 301 4 337 24 407 29 107 44 132 132 223 73 76 79 86 119 195 23
63 54 137 69 164 26 47 29 49 142 92 63 24 126 48 139 54 23 10 18 17 -136
173 -164 167 -214 231 -264 343 -43 95 -60 168 -60 269 0 138 32 265 93 373
67 118 251 278 412 359 141 71 248 95 448 100 101 3 201 1 250 -6 145 -21 398
-74 398 -83 0 -19 -74 -115 -310 -408 -69 -85 -138 -172 -153 -193 -35 -46
-90 -163 -85 -178 2 -6 103 -42 224 -80 313 -97 547 -186 979 -372 244 -105
511 -225 585 -262 68 -34 88 -55 53 -55 -10 0 -99 -10 -198 -21 -134 -16 -267
-22 -521 -26 -511 -8 -816 15 -1192 88 -226 44 -242 45 -242 24 0 -15 58 -34
215 -74 189 -47 434 -61 1145 -61 573 0 1097 -13 1265 -30 253 -26 588 -117
812 -221 153 -70 209 -126 289 -289 24 -49 44 -92 44 -94 0 -3 -27 6 -59 19
-66 25 -104 51 -201 136 -73 63 -106 82 -246 138 -131 52 -209 75 -352 105
-121 26 -478 70 -509 64 -10 -2 81 -36 202 -76 209 -68 580 -213 1090 -425
790 -328 868 -358 1210 -465 652 -206 908 -257 1443 -287 318 -18 356 -14 577
60 216 72 294 106 473 208 85 48 155 87 157 87 3 0 -33 -53 -78 -118 -168
-237 -146 -214 -287 -299 -163 -99 -392 -178 -685 -237 -218 -44 -292 -51
-525 -51 -256 0 -343 10 -695 82 -575 117 -1046 258 -2005 601 -261 93 -592
209 -735 257 -298 99 -737 236 -742 231 -2 -2 26 -33 63 -70 62 -60 104 -112
104 -127 0 -3 -25 -11 -55 -18 -102 -23 -86 -41 54 -66 503 -88 570 -106 781
-207 224 -106 412 -227 508 -328 114 -118 220 -262 284 -385 38 -75 31 -72
227 -81 92 -5 140 -3 144 4 4 5 -15 117 -42 247 -30 144 -44 235 -37 232 64
-25 619 -174 900 -242 593 -143 930 -190 1376 -190 247 0 287 3 390 23 366 74
525 135 735 285 172 122 285 257 384 454 36 73 68 170 58 179 -2 2 -50 -27
-108 -65 -289 -189 -533 -322 -634 -345 -189 -42 -381 -73 -544 -86 -268 -22
-736 49 -1183 179 -396 116 -1269 476 -1331 550 -7 9 -26 48 -42 86 -56 138
-96 204 -160 263 -118 108 -277 181 -610 281 -93 29 -176 54 -183 56 -10 4 -5
19 18 60 37 64 43 129 16 169 -25 39 -107 100 -238 178 -65 38 -118 71 -118
73 0 10 283 -125 386 -183 l70 -41 139 237 c76 130 239 404 360 607 302 504
401 683 464 843 77 192 102 318 102 512 0 88 -6 136 -23 205 l-23 90 -98 50
c-98 50 -99 50 -205 52 -59 1 -150 -5 -202 -13z m253 -28 c45 -17 147 -77 147
-88 0 -4 -7 -8 -15 -8 -26 0 -34 -35 -36 -149 l-1 -111 -47 0 c-44 0 -111 -29
-111 -48 0 -5 -16 -26 -37 -47 -29 -30 -37 -47 -41 -86 -4 -48 -9 -54 -108
-151 -56 -56 -111 -106 -121 -112 -10 -6 -40 -13 -68 -16 l-49 -5 -48 -110
c-50 -115 -82 -155 -123 -155 -45 0 -160 -143 -171 -212 -4 -21 -10 -40 -14
-43 -3 -2 -37 0 -75 6 -37 5 -70 8 -71 6 -2 -2 7 -41 21 -87 14 -46 25 -87 25
-92 0 -5 -24 9 -52 31 -59 43 -110 71 -131 71 -25 0 -49 -38 -66 -107 -13 -48
-22 -67 -32 -64 -48 14 -76 12 -84 -6 -20 -49 -22 -87 -9 -150 7 -37 11 -69 9
-72 -3 -2 -53 19 -111 48 -58 29 -107 51 -109 49 -9 -11 -81 -204 -78 -210 2
-4 52 -40 111 -81 151 -104 258 -191 240 -195 -8 -2 -102 45 -207 103 -582
320 -857 425 -1395 535 -110 22 -201 42 -203 43 -1 2 71 102 160 223 257 346
474 599 631 736 185 161 288 193 1031 323 373 66 526 98 835 175 311 78 333
81 403 56z m-8791 -328 c20 -29 75 -117 123 -195 47 -79 104 -165 125 -192 77
-98 352 -308 522 -399 304 -164 792 -357 1498 -592 816 -273 1256 -398 1880
-535 l75 -16 52 -82 c57 -92 143 -180 278 -287 50 -40 91 -73 93 -75 2 -1 -40
-11 -93 -21 -84 -16 -108 -16 -208 -6 -183 20 -638 122 -672 152 -34 29 -122
61 -940 331 -877 290 -1110 378 -1455 546 -304 148 -463 235 -635 348 -169
112 -270 198 -400 342 -118 130 -178 214 -241 336 l-48 92 -3 153 c-2 83 0
152 5 152 5 0 25 -24 44 -52z m6090 -1316 c236 -54 453 -129 806 -281 221 -95
303 -140 538 -298 40 -27 -64 20 -175 79 -64 33 -138 73 -165 87 -30 15 -66
25 -94 25 l-45 1 -17 -67 c-17 -70 -31 -94 -60 -103 -12 -4 -19 -20 -24 -50
-8 -64 -28 -96 -86 -145 l-50 -42 -128 52 c-472 192 -619 249 -877 335 -159
54 -294 102 -299 106 -12 10 22 62 148 223 l100 129 126 -6 c96 -4 166 -14
302 -45z m-2675 -1095 c43 -29 94 -75 115 -102 38 -50 98 -189 101 -233 l2
-24 -103 1 c-132 3 -226 26 -356 91 -111 54 -201 126 -222 177 -8 18 -14 50
-14 72 l0 39 83 11 c78 11 129 15 259 19 54 2 62 -1 135 -51z"/>
<path d="M8524 6642 c-12 -4 -34 -22 -49 -39 -26 -32 -55 -44 -55 -23 0 6 -7
10 -16 10 -8 0 -24 -19 -35 -45 -21 -47 -35 -56 -46 -30 -4 13 -71 55 -87 55
-2 0 -9 -38 -16 -85 -7 -47 -15 -85 -19 -85 -4 0 -15 18 -25 40 -10 23 -27 47
-39 55 -26 17 -107 31 -107 19 0 -5 7 -44 15 -87 8 -43 15 -83 15 -88 0 -14
-26 -10 -40 6 -7 8 -25 15 -41 15 l-29 0 0 -71 c0 -69 -1 -71 -22 -66 -13 3
-56 9 -95 13 -81 7 -82 6 -59 -51 8 -19 14 -35 12 -35 -2 0 -23 7 -46 15 -45
16 -70 8 -70 -21 0 -8 -17 -32 -37 -55 -26 -29 -37 -50 -37 -73 0 -29 -3 -32
-26 -28 -43 6 -53 -17 -48 -108 3 -44 7 -83 10 -86 9 -8 298 102 330 126 15
11 33 20 40 20 39 0 348 186 348 209 0 5 13 17 29 28 16 10 103 83 193 163 89
80 187 165 216 189 65 53 67 75 10 101 -43 20 -130 25 -174 12z"/>
<path d="M6109 5092 c-25 -31 -52 -68 -59 -82 -7 -14 -34 -45 -60 -70 -26 -25
-55 -60 -64 -78 l-17 -32 47 -21 c115 -49 281 -98 344 -101 58 -3 65 -1 68 17
3 11 24 38 48 61 39 35 44 46 44 83 l0 42 33 -6 c51 -10 83 8 91 50 14 73 6
79 -218 149 -193 60 -199 60 -257 -12z"/>
<path d="M2270 6791 c0 -49 392 -448 537 -546 35 -25 88 -34 81 -15 -13 39
-155 201 -223 255 -44 35 -130 117 -190 181 -100 107 -149 144 -190 144 -8 0
-15 -9 -15 -19z"/>
<path d="M2757 6794 c-11 -12 73 -161 147 -263 40 -54 102 -146 140 -204 68
-108 86 -123 136 -115 20 3 18 7 -27 78 -85 134 -305 454 -331 483 -25 26 -51
34 -65 21z"/>
<path d="M4098 6783 c-9 -10 -57 -89 -107 -175 -125 -214 -142 -258 -101 -258
23 0 46 33 160 225 78 132 115 204 108 210 -16 14 -47 13 -60 -2z"/>
<path d="M3189 6785 c-9 -8 10 -181 31 -283 24 -121 47 -182 66 -182 19 0 18
38 -5 213 -21 153 -36 224 -53 245 -10 12 -31 16 -39 7z"/>
<path d="M4444 6739 c-38 -13 -371 -396 -408 -467 -20 -39 -14 -52 23 -52 28
0 26 -2 246 239 85 92 174 213 184 249 7 25 6 31 -8 35 -9 2 -26 1 -37 -4z"/>
<path d="M3546 6508 c-110 -248 -176 -399 -187 -432 -8 -21 -18 -40 -24 -42
-5 -2 -149 -7 -318 -11 l-309 -8 199 -131 c109 -72 219 -143 244 -158 l46 -26
-103 -258 c-99 -244 -114 -292 -96 -292 4 0 86 48 182 107 211 129 282 167
336 183 l40 12 263 -171 c144 -94 264 -171 267 -171 10 0 1 36 -65 275 -38
138 -72 266 -76 285 l-6 35 123 69 c151 84 244 145 282 185 l30 31 -55 1 c-30
1 -154 6 -277 12 l-223 12 -38 110 c-83 239 -172 435 -196 435 -9 0 -25 -23
-39 -52z"/>
<path d="M4347 6303 c-212 -145 -242 -174 -201 -190 21 -8 70 17 244 125 180
112 196 125 203 159 5 26 -6 53 -22 53 -4 0 -104 -66 -224 -147z"/>
<path d="M1950 5776 c0 -38 95 -56 420 -81 283 -21 414 -22 418 -2 4 18 -18
31 -68 41 -42 8 -461 42 -642 52 -117 6 -128 5 -128 -10z"/>
<path d="M4208 5694 c-30 -30 10 -52 164 -89 107 -26 135 -22 100 13 -34 34
-246 95 -264 76z"/>
<path d="M5110 5594 c-197 -53 -357 -155 -481 -306 -63 -77 -122 -187 -139
-260 -12 -55 -13 -206 0 -283 21 -133 191 -405 253 -405 3 0 -5 24 -19 54 -31
69 -50 170 -59 316 -11 178 21 304 96 379 82 82 284 190 397 212 87 16 235 6
364 -25 59 -14 111 -26 116 -26 15 0 192 261 192 283 0 2 -19 13 -43 25 -65
32 -203 52 -402 57 -170 5 -185 4 -275 -21z m460 -213 c15 -29 12 -41 -7 -34
-21 8 -33 23 -33 41 0 19 28 14 40 -7z m-937 -438 c3 -5 -2 -29 -10 -55 -10
-36 -18 -48 -33 -48 -15 0 -20 7 -20 25 0 51 46 107 63 78z"/>
<path d="M2670 5549 c-486 -89 -600 -117 -600 -149 0 -17 7 -20 54 -20 96 0
593 88 709 126 52 17 51 17 37 45 -14 24 -58 24 -200 -2z"/>
<path d="M2751 5404 c-73 -24 -144 -50 -157 -59 -32 -21 -33 -65 -2 -65 28 0
293 77 330 96 29 15 36 42 16 62 -18 18 -41 14 -187 -34z"/>
<path d="M3332 5220 c-23 -24 -66 -164 -58 -185 7 -18 50 -20 64 -2 8 10 52
179 52 201 0 14 -41 4 -58 -14z"/>
<path d="M3630 5228 c0 -36 32 -204 44 -233 22 -51 77 -61 70 -13 -13 96 -38
226 -46 241 -10 20 -68 24 -68 5z"/>
<path d="M680 5115 c-222 -33 -389 -64 -412 -76 -26 -14 -18 -33 15 -37 25 -3
352 42 505 69 66 12 110 38 98 57 -9 15 -22 15 -206 -13z"/>
<path d="M1350 4821 c-53 -17 -202 -84 -437 -197 -68 -32 -113 -60 -113 -69 0
-25 33 -35 76 -24 79 21 530 233 567 266 17 16 17 18 1 30 -22 16 -27 16 -94
-6z"/>
<path d="M4960 4013 c-35 -12 -60 -47 -60 -84 0 -46 32 -81 116 -126 33 -18
84 -58 115 -90 52 -55 56 -62 67 -131 9 -55 9 -89 0 -143 -10 -65 -14 -72 -44
-86 -29 -14 -33 -21 -39 -72 -4 -31 -22 -122 -39 -203 -18 -82 -31 -148 -29
-148 2 0 21 9 42 19 54 28 102 86 160 194 38 70 58 97 75 101 13 3 68 46 122
96 56 51 125 104 163 124 l67 35 -4 -66 -4 -65 63 35 c63 35 230 110 234 105
1 -2 -3 -39 -8 -84 -6 -45 -8 -88 -4 -97 10 -27 41 -8 69 44 l28 49 110 0 c61
0 110 -4 110 -9 0 -5 -11 -18 -23 -28 -13 -10 -30 -29 -37 -43 -12 -22 -10
-27 34 -64 26 -23 46 -50 46 -61 0 -11 9 -39 19 -62 l19 -42 -126 -61 c-70
-34 -153 -73 -184 -88 -32 -14 -58 -28 -58 -32 0 -3 29 -23 65 -45 38 -24 65
-47 65 -57 0 -31 -71 -283 -92 -327 -14 -29 -31 -48 -53 -57 -30 -12 -33 -18
-39 -72 l-7 -59 -127 -7 c-156 -9 -216 -22 -206 -45 4 -9 8 -29 8 -46 1 -26
-6 -33 -49 -57 -27 -15 -179 -70 -338 -123 -294 -97 -369 -128 -469 -197 -49
-33 -67 -55 -124 -151 -85 -142 -229 -425 -250 -491 -50 -155 -134 -172 -134
-27 l0 48 -122 22 c-184 33 -186 34 -213 27 -32 -8 -33 -35 -2 -64 76 -71 436
-182 591 -182 109 0 170 55 336 298 181 267 263 356 468 509 53 40 140 94 192
122 102 53 236 104 254 97 20 -7 -145 -158 -310 -283 -186 -142 -268 -220
-369 -353 -87 -115 -235 -335 -235 -350 0 -6 22 -55 50 -109 l49 -99 -20 -104
c-22 -113 -29 -123 -108 -159 -48 -21 -290 -69 -351 -69 -48 0 -53 8 -74 119
-25 129 -22 147 25 203 27 32 36 49 27 52 -7 2 -51 11 -98 21 -124 24 -303 81
-396 126 -90 43 -162 111 -196 186 -22 49 -31 57 -58 48 -50 -16 -33 -72 74
-245 48 -77 58 -127 37 -183 -10 -27 -13 -28 -140 -48 l-73 -11 6 -45 c3 -24
29 -89 58 -145 l53 -101 75 -24 c175 -55 464 -136 633 -178 244 -60 363 -79
455 -73 67 5 87 11 191 64 84 43 119 66 129 86 13 28 26 96 37 190 l6 56 177
0 c129 0 214 6 312 21 93 15 228 25 437 32 l303 11 79 -56 c112 -79 209 -188
340 -381 114 -168 166 -235 181 -235 5 0 10 12 12 28 2 22 8 28 36 30 18 2 69
-6 113 -18 45 -11 83 -19 85 -17 8 7 -96 133 -186 227 -82 85 -95 104 -125
180 -18 47 -60 145 -93 217 l-61 133 62 -7 c147 -14 133 -5 177 -121 68 -179
139 -264 380 -453 213 -167 199 -159 290 -159 l82 0 -8 32 c-3 18 -31 105 -61
193 -95 276 -104 378 -54 574 16 62 31 115 34 117 2 2 84 -2 181 -8 l178 -12
41 -61 c22 -33 89 -123 148 -201 103 -135 269 -375 356 -515 l41 -67 133 5
c74 3 151 11 173 18 21 8 53 11 71 8 35 -6 216 36 300 69 52 20 95 53 95 73 0
7 -65 25 -162 45 -90 18 -164 34 -166 35 -1 1 26 20 61 43 34 22 77 61 95 86
l33 45 -33 6 c-18 3 -53 9 -78 13 l-45 7 -3 65 c-4 90 16 136 88 203 33 30 60
59 60 65 0 5 -14 12 -30 16 -34 6 -60 52 -60 103 0 44 38 109 87 149 47 39
156 164 148 172 -2 2 -72 10 -155 17 -83 6 -153 15 -156 18 -9 9 15 201 33
260 17 56 18 110 2 169 -12 48 -41 68 -86 61 -34 -6 -34 -6 -29 28 3 19 8 60
11 91 l6 57 -43 5 c-300 34 -354 50 -863 254 -580 232 -618 251 -734 378 -206
225 -238 250 -311 240 l-49 -7 -3 37 c-4 49 -36 72 -130 94 -72 17 -73 17
-106 72 -32 53 -33 55 -97 67 -36 7 -67 17 -70 21 -4 7 51 230 58 236 1 1 80
13 175 27 95 13 176 27 179 30 3 4 1 45 -4 92 l-9 86 36 31 c19 17 64 58 100
91 l65 60 -115 -7 c-246 -14 -777 -35 -1020 -42 l-255 -6 -145 45 c-132 41
-622 168 -695 180 -16 2 -37 2 -45 0z m1563 -1282 c81 -6 101 -12 121 -30 40
-38 67 -116 81 -235 12 -109 12 -111 -11 -147 -60 -95 -124 -125 -399 -183
-88 -19 -172 -39 -187 -45 -19 -7 -29 -7 -34 0 -8 13 13 333 28 417 13 76 48
132 120 189 50 41 56 43 118 42 36 0 109 -4 163 -8z m-263 -820 c0 -37 -24
-64 -77 -87 -96 -42 -308 -174 -415 -257 -112 -88 -138 -101 -180 -91 -27 5
-29 9 -22 37 22 103 44 137 170 263 l124 124 132 1 c73 0 156 4 183 9 73 11
85 11 85 1z m-1190 -53 c0 -7 -33 -45 -74 -85 -56 -54 -78 -85 -90 -121 -22
-65 -41 -90 -83 -107 -57 -24 -80 -20 -88 15 -11 52 3 105 38 137 51 48 179
141 217 157 43 19 80 20 80 4z m1294 -416 c-12 -10 -50 -37 -85 -62 -34 -25
-83 -62 -107 -83 -64 -55 -186 -113 -320 -152 -171 -49 -172 -50 -294 -137
-62 -44 -139 -93 -170 -109 -32 -16 -58 -33 -58 -38 0 -9 -50 -34 -57 -27 -10
10 52 112 95 154 103 100 312 237 455 298 125 54 545 187 557 177 3 -3 -5 -12
-16 -21z m-1246 -357 c-4 -70 -22 -83 -38 -26 -9 33 -8 46 6 72 22 44 36 25
32 -46z m12 -180 c0 -30 -4 -55 -10 -55 -5 0 -10 25 -10 55 0 30 5 55 10 55 6
0 10 -25 10 -55z m-210 -335 c0 -11 -4 -20 -9 -20 -14 0 -23 18 -16 30 10 17
25 11 25 -10z"/>
<path d="M6335 2621 c-51 -23 -110 -89 -125 -138 -15 -51 -32 -232 -25 -261 5
-18 10 -22 28 -16 12 3 24 9 27 11 3 3 7 64 10 136 l5 132 50 18 c50 17 164
18 273 1 53 -8 92 1 92 22 0 22 -55 74 -77 74 -10 0 -36 9 -58 20 -51 26 -145
27 -200 1z"/>
<path d="M6375 2480 c-75 -39 -79 -44 -83 -120 -7 -114 12 -150 76 -150 61 0
165 29 191 53 22 20 51 74 51 95 0 4 -26 5 -57 1 -32 -4 -71 -8 -86 -8 l-28
-1 37 66 c20 36 34 68 31 71 -17 17 -94 13 -132 -7z"/>
<path d="M2855 3753 c-29 -74 -118 -324 -139 -391 -34 -109 -34 -124 1 -120
21 2 30 11 40 38 174 485 168 466 143 480 -27 14 -37 12 -45 -7z"/>
<path d="M3451 3556 c-6 -7 -13 -33 -16 -57 -8 -63 -45 -935 -45 -1051 0 -89
2 -98 19 -98 32 0 41 72 71 580 11 184 25 391 30 459 9 124 5 154 -24 173 -16
11 -22 10 -35 -6z"/>
<path d="M3834 3535 c-11 -27 19 -223 47 -312 10 -33 40 -45 54 -23 7 12 -20
224 -37 295 -10 40 -18 51 -36 53 -13 2 -25 -3 -28 -13z"/>
<path d="M4334 2923 c-18 -94 26 -417 75 -559 22 -64 26 -86 16 -96 -6 -7 -17
-42 -24 -78 -7 -36 -28 -114 -48 -175 -29 -92 -33 -115 -24 -137 6 -16 15 -28
21 -28 15 0 69 78 103 149 27 57 31 76 35 185 4 102 1 132 -16 191 -30 103
-57 239 -83 417 -23 162 -41 205 -55 131z"/>
<path d="M5716 2745 c-135 -56 -178 -87 -198 -142 -13 -34 -28 -42 -121 -59
-37 -6 -38 -7 -35 -48 3 -35 7 -43 36 -55 17 -8 32 -20 32 -26 0 -12 -75 -71
-146 -117 -24 -15 -44 -31 -44 -36 0 -5 -11 -15 -25 -22 -33 -18 -41 -47 -19
-71 12 -13 24 -17 38 -13 39 12 160 89 281 178 66 48 150 106 186 127 36 22
78 52 93 68 l28 29 -38 21 c-74 39 -74 36 19 79 80 38 86 42 92 76 9 47 1 66
-27 65 -13 0 -81 -25 -152 -54z"/>
<path d="M4249 1773 c-15 -4 -162 -281 -174 -331 -8 -28 16 -39 51 -23 18 8
46 54 104 172 44 89 80 167 80 175 0 14 -26 17 -61 7z"/>
<path d="M4570 942 c0 -8 13 -36 29 -61 26 -41 35 -72 32 -108 -1 -8 -16 -13
-41 -13 -34 0 -42 4 -55 30 -9 17 -24 30 -34 30 -47 0 -110 -140 -80 -176 38
-46 189 -81 238 -54 41 21 102 83 122 121 14 28 17 49 13 83 -13 88 -64 134
-172 154 -44 8 -52 7 -52 -6z"/>
<path d="M3790 350 c0 -47 70 -130 139 -165 165 -83 360 -102 550 -54 123 31
135 59 34 76 -38 6 -213 46 -391 87 -178 42 -325 76 -328 76 -2 0 -4 -9 -4
-20z"/>
</g>
</svg>
