<?xml version="1.0" standalone="no"?>
<!DOCTYPE svg PUBLIC "-//W3C//DTD SVG 20010904//EN"
 "http://www.w3.org/TR/2001/REC-SVG-20010904/DTD/svg10.dtd">
<svg version="1.0" xmlns="http://www.w3.org/2000/svg"
 width="1280.000000pt" height="1280.000000pt" viewBox="0 0 1280.000000 1280.000000"
 preserveAspectRatio="xMidYMid meet">
<metadata>
Created by potrace 1.15, written by Peter Selinger 2001-2017
</metadata>
<g transform="translate(0.000000,1280.000000) scale(0.100000,-0.100000)"
fill="#000000" stroke="none">
<path d="M0 6400 l0 -6400 6400 0 6400 0 0 6400 0 6400 -6400 0 -6400 0 0
-6400z m5851 4326 c231 -43 406 -102 659 -222 75 -35 148 -64 163 -64 37 0 47
25 47 114 0 89 -15 83 151 61 251 -33 453 -82 654 -160 225 -87 385 -184 516
-314 192 -191 272 -380 272 -646 -1 -150 -18 -266 -69 -462 -20 -76 -37 -145
-37 -153 -3 -26 58 -14 234 44 232 78 311 95 489 106 254 17 484 -3 652 -56
96 -30 272 -116 369 -180 185 -122 580 -513 647 -641 7 -12 12 -29 12 -38 0
-21 -26 -18 -280 30 -96 18 -233 41 -305 50 -153 20 -433 23 -555 6 -260 -36
-550 -154 -729 -294 -111 -88 -239 -263 -332 -451 -50 -101 -61 -146 -35 -146
22 0 167 53 446 163 308 121 420 159 420 145 0 -6 -97 -108 -215 -228 -199
-201 -243 -253 -197 -235 43 17 402 118 547 154 536 133 858 146 1105 42 179
-75 272 -185 304 -361 l6 -36 -212 -17 c-317 -26 -536 -76 -710 -163 -92 -46
-190 -115 -217 -153 -100 -140 -39 -532 102 -668 23 -22 104 -79 179 -126 440
-275 730 -536 907 -818 53 -86 160 -311 199 -419 77 -215 92 -314 92 -630 0
-421 -50 -703 -131 -746 -27 -13 -30 -13 -36 2 -3 10 -1 42 6 73 43 196 44
210 45 551 0 274 -3 356 -17 448 -80 509 -460 1032 -1027 1412 -349 234 -402
318 -430 689 -5 74 -10 149 -10 166 0 28 17 44 215 195 118 90 215 168 215
172 0 11 -101 -27 -216 -82 -278 -134 -488 -356 -688 -729 l-66 -123 184 -182
c248 -244 413 -458 544 -706 191 -362 265 -775 217 -1207 -52 -467 -215 -906
-553 -1484 l-126 -216 -233 -77 c-702 -232 -1203 -342 -1784 -391 -208 -18
-913 -32 -1032 -20 -74 6 -79 8 -74 28 3 12 21 84 40 159 20 76 38 164 41 195
6 58 6 57 -86 -128 -106 -211 -139 -262 -171 -257 -30 4 -28 35 15 198 20 74
43 169 52 210 9 41 19 83 22 94 4 12 2 16 -5 12 -6 -4 -58 -101 -116 -216
-122 -242 -144 -270 -215 -270 -60 0 -72 13 -59 65 17 73 31 593 25 960 -10
619 -41 937 -137 1420 -72 361 -188 828 -210 850 -12 11 -12 12 31 -225 86
-480 120 -790 140 -1280 23 -563 -32 -1237 -131 -1610 -29 -108 -45 -125 -112
-124 -52 1 -147 34 -147 51 0 4 7 44 15 88 82 425 125 945 125 1504 0 453 -23
804 -75 1181 -27 189 -93 551 -104 562 -4 4 0 -61 8 -145 20 -209 22 -1595 3
-1837 -25 -312 -152 -884 -257 -1160 -43 -113 -61 -140 -91 -140 -32 0 -31 26
1 178 82 378 164 1089 179 1567 l5 150 -29 -195 c-99 -652 -208 -1207 -290
-1470 -38 -125 -94 -189 -139 -161 -12 8 -4 46 47 233 198 717 261 1112 282
1774 15 445 -8 1375 -33 1401 -8 7 -16 -178 -22 -472 -20 -1023 -211 -1961
-535 -2631 -60 -124 -109 -184 -151 -184 -30 0 -97 37 -115 64 -22 34 -14 79
61 341 211 738 257 1007 257 1510 -1 263 -12 357 -55 463 -53 131 -143 250
-259 339 l-60 46 -262 -56 c-455 -98 -628 -118 -816 -98 -342 37 -568 157
-723 385 -61 90 -117 221 -138 321 -42 206 -48 618 -13 952 17 170 32 258 85
508 46 218 53 192 -66 252 -105 53 -182 112 -272 207 -99 104 -123 150 -123
234 0 212 199 400 742 702 53 30 95 56 93 59 -3 2 -70 26 -150 52 -283 93
-510 222 -674 382 -81 79 -130 152 -197 291 -69 144 -105 255 -112 338 -6 86
1 89 116 54 158 -48 372 -82 682 -108 239 -20 1134 -17 1263 4 164 27 231 76
197 145 -8 16 -101 114 -207 219 -106 105 -197 203 -203 218 -21 56 16 92 192
185 285 151 614 159 1167 26 331 -79 394 -81 442 -13 51 71 18 166 -110 318
-45 52 -81 98 -81 102 0 12 80 63 165 106 95 47 211 85 326 106 126 23 149 24
339 21 134 -3 207 -10 311 -29z"/>
<path d="M6910 10551 c0 -5 73 -60 163 -124 348 -248 538 -439 629 -633 57
-123 47 -233 -34 -374 l-32 -55 -18 77 c-46 199 -157 311 -361 365 -65 17
-101 12 -62 -9 72 -39 194 -244 229 -383 17 -69 31 -185 23 -185 -4 0 -32 35
-63 78 -31 42 -91 111 -133 152 -75 74 -245 196 -343 246 -64 33 -58 21 62
-116 281 -320 342 -469 313 -772 l-6 -68 -51 0 c-152 0 -351 40 -659 131 -454
134 -766 197 -1017 205 l-155 5 108 -56 c155 -78 229 -131 337 -240 98 -99 99
-106 12 -74 -54 20 -264 32 -467 25 -210 -6 -295 -15 -348 -37 -50 -21 -24
-34 79 -40 119 -7 216 -29 290 -66 52 -25 94 -67 94 -93 0 -20 -62 -38 -205
-60 -185 -28 -347 -63 -426 -93 -129 -49 -379 -186 -379 -208 0 -12 -11 -14
188 27 220 45 354 51 399 18 70 -52 47 -140 -49 -188 -50 -25 -75 -30 -187
-37 -76 -6 -170 -20 -226 -34 -163 -41 -353 -143 -444 -239 -19 -20 -33 -36
-30 -36 2 0 33 10 69 21 70 22 251 37 313 25 48 -9 92 -48 122 -107 28 -55 32
-101 10 -122 -8 -8 -41 -20 -75 -25 -91 -17 -193 -75 -282 -163 -72 -70 -83
-87 -152 -230 -100 -205 -195 -488 -157 -464 6 3 39 47 74 98 118 168 235 277
297 277 14 0 51 -12 81 -27 52 -27 54 -29 57 -73 2 -35 -14 -92 -69 -250 -117
-339 -150 -441 -165 -515 -8 -40 -17 -171 -20 -310 -8 -286 4 -454 40 -548 30
-80 78 -175 82 -162 2 6 26 132 54 280 143 760 203 1017 319 1364 144 432 270
666 479 896 50 55 88 103 84 106 -4 4 -54 17 -111 29 -105 22 -151 37 -151 51
0 17 93 86 253 187 263 167 298 210 183 224 -32 4 -61 10 -63 12 -8 8 93 35
267 71 267 57 430 96 430 104 0 4 -14 20 -30 36 -17 16 -27 32 -22 37 12 12
175 26 392 33 632 19 911 39 1135 80 287 53 447 140 522 282 110 207 144 627
69 844 -66 189 -321 452 -556 573 -138 71 -581 241 -677 259 -18 4 -33 3 -33
-2z"/>
<path d="M3665 10096 c-106 -17 -187 -41 -260 -78 -68 -34 -145 -87 -145 -100
0 -4 116 -8 258 -8 141 0 298 -5 347 -10 277 -31 542 -94 825 -194 102 -36
191 -66 199 -66 72 0 -361 272 -587 370 -205 88 -429 118 -637 86z"/>
<path d="M3590 9244 c-74 -30 -180 -65 -235 -79 -354 -88 -821 -81 -1309 20
-89 19 -206 43 -261 54 -168 36 -153 34 -130 16 56 -44 698 -226 915 -260 58
-9 195 -19 305 -22 416 -11 606 46 817 245 107 101 94 104 -102 26z"/>
<path d="M8930 8850 c-63 -9 -328 -85 -342 -98 -4 -4 120 -8 275 -9 317 -3
459 -14 595 -48 128 -33 205 -74 303 -161 96 -87 114 -97 187 -113 62 -13 262
-15 262 -2 0 17 -102 103 -197 165 -201 132 -402 225 -543 252 -91 18 -448 27
-540 14z"/>
<path d="M8260 8786 c-112 -33 -153 -59 -246 -151 -80 -81 -105 -123 -66 -111
9 3 63 16 120 30 113 27 186 66 272 143 51 46 85 95 73 107 -12 12 -79 5 -153
-18z"/>
<path d="M8721 8630 c-59 -9 -85 -25 -62 -39 7 -5 54 -14 105 -20 169 -22 329
-90 413 -177 29 -29 64 -56 79 -60 24 -6 355 38 423 56 23 6 21 9 -35 55 -77
63 -238 139 -335 159 -157 32 -455 45 -588 26z"/>
<path d="M8215 8543 c-266 -142 -339 -201 -405 -324 -45 -85 -39 -93 63 -86
98 7 179 27 262 67 128 61 198 155 230 305 9 44 18 90 21 103 2 12 1 22 -3 22
-5 -1 -80 -39 -168 -87z"/>
<path d="M7760 8513 c-14 -2 -82 -17 -151 -34 -186 -43 -353 -60 -649 -66
-271 -6 -434 3 -600 32 -47 9 -97 17 -112 20 -56 9 -25 -16 85 -68 115 -56
167 -90 155 -102 -4 -4 -46 -2 -95 5 -125 18 -480 -2 -571 -31 -28 -9 -31 -13
-21 -26 7 -8 44 -30 81 -49 110 -55 102 -86 -23 -98 -119 -11 -437 -100 -578
-162 -43 -19 -51 -27 -42 -38 15 -18 77 -40 181 -66 111 -27 160 -48 160 -71
0 -11 -32 -38 -84 -73 -98 -65 -277 -247 -319 -324 -124 -228 20 -461 434
-701 123 -72 333 -169 443 -206 71 -24 83 -25 134 -15 32 7 136 41 232 77 96
36 240 87 320 113 243 79 346 130 484 240 250 199 354 462 297 754 -23 118
-27 253 -11 355 6 35 9 66 6 68 -2 3 -54 -12 -115 -31 -114 -37 -186 -46 -179
-23 2 6 44 39 93 73 81 56 117 91 83 80 -7 -2 -91 -30 -187 -61 -254 -83 -352
-100 -418 -74 l-28 11 27 21 c48 36 154 75 467 173 168 52 320 100 336 106 51
19 151 95 184 139 27 37 33 62 13 58 -4 -1 -18 -4 -32 -6z m-1110 -562 c36
-13 80 -34 99 -48 l34 -26 -6 -86 c-17 -234 -139 -474 -268 -525 -143 -57
-410 -26 -552 64 -62 39 -70 58 -65 149 11 174 150 407 274 463 71 31 120 37
274 34 120 -2 156 -6 210 -25z m319 -213 c48 -121 52 -232 11 -341 -23 -61
-93 -146 -149 -181 -61 -38 -174 -78 -211 -74 l-35 3 94 95 c165 167 206 247
242 478 6 39 14 72 19 72 4 0 17 -24 29 -52z m-1529 -258 c-17 -22 -36 -42
-41 -46 -5 -3 -22 -29 -37 -57 -23 -45 -27 -64 -26 -137 0 -107 19 -162 114
-322 39 -66 68 -123 65 -127 -9 -8 -85 76 -157 174 -68 92 -118 190 -125 246
-10 73 77 204 181 275 28 19 52 34 54 34 2 0 -11 -18 -28 -40z m1734 -150
c-35 -133 -76 -206 -165 -297 -68 -70 -143 -118 -245 -160 -128 -52 -393 -107
-358 -74 5 5 50 23 99 41 205 71 348 160 485 299 67 68 111 124 149 189 29 51
55 92 56 92 2 0 -7 -40 -21 -90z m-1433 -78 c14 -9 55 -39 90 -66 149 -113
333 -176 604 -206 95 -11 128 -21 108 -33 -23 -15 -150 -27 -275 -27 -182 0
-278 14 -355 51 -109 53 -269 233 -250 282 8 22 45 21 78 -1z m-24 -252 c23
-30 76 -95 118 -144 42 -48 74 -90 72 -93 -17 -16 -181 98 -222 155 -38 52
-61 128 -49 164 l7 23 16 -25 c9 -13 35 -49 58 -80z"/>
<path d="M6247 7886 c-72 -26 -140 -93 -172 -169 -8 -20 -15 -65 -15 -100 0
-122 74 -225 205 -282 114 -51 199 -39 308 41 41 30 84 91 72 102 -2 2 -17 -6
-34 -19 -17 -12 -33 -21 -35 -18 -2 2 6 36 20 74 43 126 27 200 -62 289 -86
87 -190 116 -287 82z m183 -148 c136 -69 130 -247 -11 -319 -78 -39 -146 -15
-206 75 -65 96 -32 203 77 250 49 21 89 20 140 -6z"/>
<path d="M6370 7650 c0 -32 -25 -73 -59 -98 -35 -25 -40 -52 -13 -74 28 -25
51 -29 85 -14 51 21 72 52 72 105 0 58 -25 101 -60 101 -19 0 -25 -5 -25 -20z"/>
<path d="M6640 7853 c0 -25 50 -105 63 -100 20 6 21 77 1 98 -22 24 -64 26
-64 2z"/>
<path d="M5960 7531 c-14 -27 -13 -65 4 -106 15 -36 35 -51 76 -56 21 -3 25 0
23 22 -1 14 -15 56 -32 92 -31 69 -52 83 -71 48z"/>
<path d="M8273 8230 c-106 -103 -135 -125 -215 -164 -63 -31 -123 -52 -186
-64 -51 -10 -89 -21 -86 -25 4 -4 44 -7 88 -7 246 0 405 86 491 265 62 129 46
128 -92 -5z"/>
<path d="M2410 8174 c-361 -193 -700 -489 -700 -611 0 -98 106 -180 329 -253
121 -40 181 -50 181 -29 0 5 -23 38 -50 72 -73 90 -94 138 -98 227 -7 144 51
244 274 472 133 135 164 169 152 168 -2 0 -41 -21 -88 -46z"/>
<path d="M8625 8016 c-202 -101 -538 -441 -689 -697 -86 -146 -126 -199 -225
-299 -53 -53 -126 -139 -163 -191 -80 -111 -172 -290 -193 -374 -35 -140 -8
-286 70 -373 62 -69 120 -95 215 -95 92 0 169 21 280 79 125 65 336 231 317
250 -9 9 -67 -5 -247 -62 -281 -87 -429 -86 -487 3 -28 42 -23 150 10 248 53
152 193 413 204 378 2 -6 -17 -75 -42 -153 -26 -78 -49 -165 -52 -195 -5 -46
-3 -54 15 -64 30 -16 128 15 722 226 851 303 1195 393 1622 424 187 13 343 4
499 -31 49 -11 105 -20 125 -20 32 0 35 2 29 23 -14 46 -60 119 -92 148 -94
82 -209 112 -428 112 -247 -1 -467 -38 -1005 -168 -338 -82 -451 -107 -457
-101 -5 5 94 127 196 241 83 93 109 130 98 142 -9 8 -136 -41 -378 -147 -213
-92 -251 -103 -268 -72 -34 64 81 299 294 602 157 223 159 231 30 166z"/>
<path d="M7552 7783 c6 -152 16 -193 48 -193 16 0 456 286 494 321 6 5 -107 9
-268 9 l-279 0 5 -137z"/>
<path d="M7664 7400 c-6 -14 -26 -65 -44 -115 -18 -49 -53 -137 -77 -194 -50
-116 -47 -141 10 -91 76 67 132 230 125 365 -3 53 -5 57 -14 35z"/>
<path d="M9325 6944 c-126 -34 -387 -123 -530 -179 -127 -50 -257 -116 -239
-122 13 -4 386 122 634 214 168 63 250 98 250 108 0 8 -22 4 -115 -21z"/>
<path d="M2177 6840 c-96 -315 -135 -558 -144 -916 -12 -440 28 -632 167 -805
125 -156 288 -243 500 -270 156 -19 432 1 641 46 141 31 426 117 490 149 93
45 98 58 109 268 10 185 30 311 86 550 19 83 33 155 32 160 -5 13 -61 -35
-233 -196 -315 -295 -468 -413 -661 -509 -267 -134 -469 -124 -623 30 -159
160 -254 454 -290 903 -6 69 -15 235 -21 370 -6 135 -14 259 -19 275 -8 28
-10 25 -34 -55z"/>
<path d="M5210 6638 c6 -13 170 -178 363 -368 766 -749 871 -862 938 -1004 50
-105 47 -201 -7 -311 -46 -92 -136 -165 -204 -165 -143 0 -372 275 -743 896
-70 116 -136 222 -147 235 l-20 24 19 -50 c11 -27 49 -120 86 -205 95 -219
119 -282 186 -480 186 -547 262 -1034 263 -1690 1 -498 -41 -788 -184 -1285
-28 -97 -49 -179 -47 -182 8 -7 89 102 145 194 61 102 188 357 260 524 68 156
108 273 137 396 14 56 32 119 41 140 16 37 17 38 24 13 20 -65 3 -517 -24
-647 -8 -38 -31 -106 -51 -153 -98 -226 -93 -257 23 -134 125 132 218 308 272
517 15 60 33 114 38 119 30 30 52 -142 52 -408 0 -235 -13 -369 -46 -477 -32
-104 -39 -137 -27 -137 23 0 106 66 144 113 90 113 144 235 199 447 33 126 39
142 48 120 5 -14 21 -52 35 -85 55 -130 95 -356 83 -469 -7 -65 -33 -129 -102
-248 -24 -42 -44 -80 -44 -83 0 -10 151 -5 293 10 371 39 981 165 1291 266
158 51 310 126 314 155 3 24 -49 50 -178 88 -343 101 -459 144 -660 247 -425
218 -674 519 -766 924 -25 112 -30 380 -9 527 20 147 70 345 124 494 116 325
339 760 613 1194 136 217 173 280 163 280 -3 0 -75 -47 -160 -104 -357 -241
-719 -366 -1062 -368 -124 0 -137 1 -187 26 -50 24 -106 84 -106 113 0 20 43
23 314 23 148 0 267 2 264 5 -3 3 -95 21 -206 40 -345 59 -438 88 -509 158
-45 43 -54 73 -27 84 8 3 68 0 132 -6 188 -19 389 14 462 76 40 33 76 105 96
189 14 61 26 345 14 343 -3 0 -31 -53 -62 -117 -65 -135 -130 -209 -226 -260
-98 -52 -174 -66 -372 -66 -262 0 -276 13 -165 159 36 47 63 85 61 85 -2 0
-44 -15 -92 -34 -250 -97 -383 -65 -795 187 -161 98 -250 147 -269 147 -8 0
-7 -7 0 -22z"/>
<path d="M8785 6450 c-137 -60 -334 -154 -335 -160 0 -8 256 -120 313 -137 61
-19 87 -12 139 35 81 73 237 292 208 292 -16 0 -72 -30 -195 -104 -100 -60
-135 -76 -135 -61 0 8 28 51 72 112 56 77 57 77 -67 23z"/>
<path d="M5679 5983 c5 -10 76 -94 156 -188 178 -206 280 -341 352 -466 67
-117 91 -181 110 -289 8 -47 19 -91 25 -97 24 -30 122 59 134 122 22 118 -68
264 -326 528 -185 191 -425 406 -453 407 -4 0 -3 -8 2 -17z"/>
<path d="M8594 5562 c3 -17 35 -110 72 -205 151 -392 208 -625 235 -961 17
-215 7 -612 -19 -731 -44 -202 -183 -487 -319 -655 -61 -74 -43 -75 101 -5
265 129 452 312 561 548 59 129 68 183 62 422 -7 321 -58 526 -211 846 -73
154 -382 649 -467 749 l-21 25 6 -33z"/>
<path d="M9016 5580 c4 -8 40 -64 79 -125 242 -375 380 -696 442 -1035 27
-150 25 -496 -5 -655 -74 -392 -217 -710 -520 -1160 l-74 -110 116 120 c229
235 362 414 471 631 217 429 251 897 98 1349 -95 281 -329 679 -538 915 -70
79 -81 90 -69 70z"/>
<path d="M5030 5296 c0 -20 5 -36 10 -36 6 0 10 13 10 29 0 17 -4 33 -10 36
-6 4 -10 -8 -10 -29z"/>
</g>
</svg>
