<?xml version="1.0" standalone="no"?>
<!DOCTYPE svg PUBLIC "-//W3C//DTD SVG 20010904//EN"
 "http://www.w3.org/TR/2001/REC-SVG-20010904/DTD/svg10.dtd">
<svg version="1.0" xmlns="http://www.w3.org/2000/svg"
 width="1280.000000pt" height="782.000000pt" viewBox="0 0 1280.000000 782.000000"
 preserveAspectRatio="xMidYMid meet">
<metadata>
Created by potrace 1.15, written by Peter Selinger 2001-2017
</metadata>
<g transform="translate(0.000000,782.000000) scale(0.100000,-0.100000)"
fill="#000000" stroke="none">
<path d="M9550 7806 c-145 -32 -267 -94 -367 -190 -217 -205 -270 -486 -151
-789 17 -42 29 -79 27 -81 -2 -2 -67 -25 -145 -50 -77 -26 -146 -51 -153 -56
-17 -10 11 -134 111 -500 81 -296 147 -545 145 -546 -1 0 -67 -44 -146 -98
-704 -475 -1078 -1055 -1166 -1806 -8 -69 -15 -212 -15 -317 0 -106 -2 -193
-5 -193 -3 0 -89 60 -192 133 -460 326 -669 446 -942 537 -165 55 -266 71
-446 71 -195 0 -312 -16 -705 -91 -583 -112 -662 -116 -2115 -130 -550 -4
-1007 -11 -1015 -14 -8 -3 -325 -12 -705 -20 -671 -15 -1111 -30 -1344 -45
-108 -7 -116 -9 -138 -35 -30 -35 -29 -71 3 -103 24 -24 29 -25 97 -19 241 21
369 26 997 36 382 6 891 17 1130 26 239 8 775 19 1190 24 1073 14 1218 23
1720 105 372 61 745 112 875 120 346 20 613 -85 1145 -449 301 -206 490 -368
631 -544 122 -152 185 -219 259 -276 100 -78 292 -192 487 -290 599 -299 721
-373 1044 -632 294 -236 416 -355 497 -489 95 -156 100 -352 12 -473 -28 -40
-132 -102 -138 -83 -3 9 17 60 76 196 22 49 27 75 27 141 0 73 -4 88 -39 160
-50 102 -144 197 -242 245 -61 30 -78 34 -150 34 -134 0 -175 -39 -271 -261
-30 -71 -57 -131 -59 -133 -12 -13 -402 150 -1014 422 -446 198 -771 337 -791
337 -9 0 8 -64 26 -101 23 -44 96 -107 162 -139 35 -17 126 -53 202 -80 153
-54 754 -307 1066 -450 273 -125 401 -194 596 -321 222 -145 318 -191 413
-197 63 -4 78 -1 121 21 85 43 135 111 183 249 17 46 36 118 43 161 12 69 15
77 38 81 56 11 184 27 336 41 298 29 465 61 621 120 37 14 167 80 288 147 120
67 253 134 293 150 143 55 265 52 355 -10 77 -53 77 -59 20 -176 -111 -227
-273 -401 -519 -560 -197 -127 -598 -296 -942 -397 -197 -58 -290 -71 -481
-71 -168 1 -248 8 -660 61 -305 39 -454 49 -855 56 -346 6 -599 20 -675 36
-74 16 -178 72 -305 164 -149 109 -365 216 -850 423 -192 83 -481 209 -641
280 -629 282 -917 382 -1274 441 -385 64 -608 58 -1720 -45 -1039 -96 -1909
-269 -2685 -534 -82 -29 -235 -81 -339 -116 -210 -72 -292 -111 -336 -160 -27
-31 -59 -108 -49 -119 3 -2 68 22 145 55 911 380 1979 623 3294 750 547 53
783 71 1005 77 685 17 1062 -80 1920 -494 308 -149 398 -189 775 -349 314
-133 556 -254 720 -361 69 -44 153 -95 186 -112 126 -64 308 -82 824 -79 220
0 395 -4 460 -11 58 -7 254 -29 435 -51 463 -55 580 -64 731 -57 253 11 445
64 824 225 388 164 438 181 815 267 326 75 456 128 555 225 81 80 104 133 104
245 1 74 -3 99 -23 142 -28 64 -98 131 -177 172 -48 24 -66 41 -97 90 -47 73
-104 126 -166 154 -37 17 -74 22 -183 27 -117 5 -142 9 -165 26 -53 40 -52 44
29 145 350 439 534 834 604 1294 23 151 26 533 5 670 -47 315 -126 566 -261
830 -317 622 -872 1071 -1534 1240 -230 59 -513 95 -740 95 l-91 0 -24 103
c-13 56 -66 262 -119 457 -52 195 -102 383 -110 418 l-16 62 -38 0 c-21 0 -80
-9 -131 -19 -50 -11 -110 -21 -131 -23 l-40 -3 -25 70 c-22 62 -25 87 -26 210
0 126 2 145 23 190 28 60 82 119 137 148 57 30 203 36 275 12 99 -33 140 -85
224 -290 51 -123 101 -199 173 -265 113 -104 250 -158 418 -167 339 -18 634
179 709 473 21 80 20 226 0 316 l-16 71 -57 -6 c-31 -3 -101 -20 -156 -37
l-100 -32 0 -101 c0 -91 -3 -109 -29 -164 -31 -69 -88 -128 -158 -165 -37 -19
-58 -23 -149 -23 -100 0 -108 2 -155 30 -62 39 -110 109 -166 245 -94 232
-230 369 -425 430 -87 28 -243 35 -333 16z m2308 -6304 c20 -13 -22 -45 -125
-94 -95 -45 -103 -40 -36 24 69 66 127 91 161 70z m-2030 -276 c179 -91 289
-384 206 -550 -24 -46 -85 -106 -109 -106 -53 1 -348 167 -453 257 l-33 28 46
140 c60 182 93 233 161 255 44 14 130 3 182 -24z m2724 -91 c85 -63 110 -154
66 -243 -50 -98 -218 -211 -368 -246 -151 -36 -157 -13 -32 117 98 102 144
166 222 310 30 53 56 97 59 97 3 0 27 -16 53 -35z"/>
</g>
</svg>
