<?xml version="1.0" standalone="no"?>
<!DOCTYPE svg PUBLIC "-//W3C//DTD SVG 20010904//EN"
 "http://www.w3.org/TR/2001/REC-SVG-20010904/DTD/svg10.dtd">
<svg version="1.0" xmlns="http://www.w3.org/2000/svg"
 width="1088.000000pt" height="1280.000000pt" viewBox="0 0 1088.000000 1280.000000"
 preserveAspectRatio="xMidYMid meet">
<metadata>
Created by potrace 1.15, written by Peter Selinger 2001-2017
</metadata>
<g transform="translate(0.000000,1280.000000) scale(0.100000,-0.100000)"
fill="#000000" stroke="none">
<path d="M361 12784 c-169 -45 -301 -180 -346 -351 -13 -50 -15 -767 -15
-6024 0 -3930 3 -5985 10 -6020 34 -182 196 -344 379 -379 36 -7 1122 -10
3262 -10 l3209 0 0 2620 0 2620 -695 0 -695 0 0 970 0 970 690 0 690 0 0 838
c0 875 7 1085 41 1292 62 375 269 774 554 1069 264 272 585 460 1014 592 l93
29 1164 0 1164 0 0 688 c0 585 -2 697 -15 747 -45 172 -179 305 -352 350 -50
13 -658 15 -5078 14 -4351 0 -5027 -2 -5074 -15z m2529 -563 l0 -188 -452
-173 c-449 -170 -782 -286 -951 -330 -48 -13 -85 -25 -83 -27 2 -3 131 0 286
6 156 6 489 11 741 11 l459 0 0 -175 0 -175 -1100 0 -1100 0 0 185 c0 140 3
187 13 190 6 2 217 81 467 174 420 156 731 268 938 336 46 15 81 29 79 31 -2
2 -118 -3 -258 -12 -140 -8 -476 -18 -746 -21 l-493 -6 0 182 0 181 1100 0
1100 0 0 -189z m-750 -1336 c500 -77 752 -275 776 -610 12 -162 -37 -296 -151
-411 -167 -169 -428 -258 -826 -283 -343 -22 -650 26 -884 138 -197 94 -310
210 -366 373 -29 85 -32 248 -5 328 50 152 152 263 316 345 130 65 319 114
515 134 129 14 499 5 625 -14z m-342 -2107 l1092 -182 -2 -210 -3 -210 -45 -8
c-469 -82 -918 -153 -1124 -177 -142 -17 -260 -32 -262 -34 -2 -2 67 -14 154
-26 299 -43 409 -62 822 -141 228 -44 425 -83 438 -85 l22 -5 -2 -203 -3 -202
-450 -72 c-247 -40 -731 -118 -1075 -173 -344 -55 -635 -103 -647 -106 l-23
-4 0 210 c0 209 0 210 23 214 80 17 1144 131 1475 158 83 6 152 15 152 19 0 3
-30 9 -67 13 -132 13 -1221 190 -1525 248 l-58 11 0 163 0 162 28 6 c160 33
1189 188 1407 211 83 9 166 19 185 22 22 4 -105 21 -330 44 -413 44 -1233 137
-1267 144 -23 5 -23 6 -23 200 0 107 3 195 8 195 4 0 499 -81 1100 -182z m236
-1968 c512 -49 806 -231 872 -538 69 -327 -127 -592 -522 -707 -191 -56 -307
-69 -584 -70 -295 0 -422 17 -616 83 -256 87 -437 244 -493 426 -74 239 3 468
204 611 135 97 348 167 585 194 109 12 427 13 554 1z m856 -1840 l0 -470
-1100 0 -1100 0 0 200 0 200 920 0 920 0 0 270 0 270 180 0 180 0 0 -470z m0
-1180 l0 -470 -1100 0 -1100 0 0 200 0 200 905 1 c498 1 911 2 918 3 9 1 13
63 15 269 l2 267 180 0 180 0 0 -470z m-875 -740 c318 -30 551 -106 701 -228
197 -162 259 -449 146 -675 -134 -268 -516 -417 -1068 -417 -268 0 -475 34
-669 109 -122 47 -202 98 -293 187 -65 64 -89 97 -116 155 -88 190 -64 407 61
564 125 157 392 270 718 304 117 12 393 13 520 1z m-955 -1780 l0 -250 285 0
285 0 0 235 0 235 175 0 175 0 0 -235 0 -235 455 0 455 0 0 -205 0 -205 -1100
0 -1100 0 0 455 0 455 185 0 185 0 0 -250z"/>
<path d="M1600 10478 c-331 -15 -529 -85 -557 -196 -20 -76 21 -143 113 -188
126 -61 268 -85 559 -91 420 -10 657 31 771 130 101 89 69 207 -75 269 -147
63 -457 92 -811 76z"/>
<path d="M1570 6394 c-114 -9 -275 -36 -352 -60 -64 -20 -89 -35 -129 -73 -46
-44 -49 -51 -49 -97 0 -120 118 -189 405 -236 127 -21 592 -17 728 5 235 40
340 96 368 199 9 35 7 46 -13 86 -57 113 -273 169 -683 176 -121 2 -245 2
-275 0z"/>
<path d="M1605 2634 c-284 -17 -461 -66 -533 -149 -26 -29 -32 -44 -32 -83 0
-29 8 -59 20 -79 38 -63 168 -118 355 -151 131 -24 632 -23 765 1 205 36 307
85 348 169 29 58 24 94 -21 144 -55 64 -161 102 -357 129 -97 14 -437 25 -545
19z"/>
<path d="M9376 9089 c-171 -26 -288 -112 -355 -260 -51 -114 -53 -147 -58
-921 l-5 -718 961 0 961 0 0 955 0 956 -727 -3 c-401 -1 -750 -5 -777 -9z"/>
<path d="M10862 5540 c-7 -91 -15 -193 -19 -227 l-6 -63 -956 -2 -956 -3 -3
-2622 -2 -2623 759 0 c462 0 779 4 812 10 184 34 345 196 379 380 7 36 9 949
8 2685 -3 2239 -5 2605 -16 2465z"/>
</g>
</svg>
