<?xml version="1.0" standalone="no"?>
<!DOCTYPE svg PUBLIC "-//W3C//DTD SVG 20010904//EN"
 "http://www.w3.org/TR/2001/REC-SVG-20010904/DTD/svg10.dtd">
<svg version="1.0" xmlns="http://www.w3.org/2000/svg"
 width="1088.000000pt" height="1280.000000pt" viewBox="0 0 1088.000000 1280.000000"
 preserveAspectRatio="xMidYMid meet">
<metadata>
Created by potrace 1.15, written by Peter Selinger 2001-2017
</metadata>
<g transform="translate(0.000000,1280.000000) scale(0.100000,-0.100000)"
fill="#000000" stroke="none">
<path d="M361 12784 c-169 -45 -301 -180 -346 -351 -13 -50 -15 -768 -15
-6033 0 -5265 2 -5983 15 -6033 45 -173 178 -307 350 -352 53 -13 603 -15
5075 -15 4414 0 5023 2 5073 15 68 18 140 53 182 90 l30 26 -31 -5 c-160 -26
-418 -40 -764 -40 -423 -1 -644 16 -1007 75 -824 133 -1652 444 -2343 881 -23
14 -37 13 -220 -32 -183 -45 -488 -118 -1618 -390 -255 -62 -466 -109 -469
-107 -3 3 57 243 132 534 76 290 201 775 280 1078 l142 549 -87 126 c-493 707
-833 1506 -1004 2360 -163 814 -163 1674 1 2490 145 725 424 1434 809 2057
1012 1637 2687 2720 4584 2962 299 39 428 46 805 45 340 0 601 -14 759 -40
l31 -5 -30 26 c-42 37 -114 72 -182 90 -50 13 -658 15 -5078 14 -4351 0 -5027
-2 -5074 -15z m2529 -563 l0 -188 -452 -173 c-449 -170 -782 -286 -951 -330
-48 -13 -85 -25 -83 -27 2 -3 129 0 281 6 152 6 485 11 741 11 l464 0 0 -175
0 -175 -1100 0 -1100 0 2 187 3 186 50 18 c28 9 196 72 375 139 369 138 754
277 943 340 71 23 126 44 124 46 -2 2 -120 -3 -263 -12 -142 -8 -478 -18 -746
-21 l-488 -6 0 182 0 181 1100 0 1100 0 0 -189z m-750 -1336 c501 -77 752
-274 776 -610 12 -162 -37 -296 -151 -411 -167 -169 -429 -259 -825 -283 -343
-21 -648 25 -880 135 -231 109 -363 267 -391 468 -54 392 250 650 841 715 122
14 504 5 630 -14z m-342 -2106 l1092 -182 -2 -211 -3 -210 -45 -8 c-469 -82
-918 -153 -1124 -177 -142 -17 -260 -32 -263 -34 -2 -3 22 -8 54 -12 245 -30
1101 -182 1361 -240 l22 -5 -2 -203 -3 -202 -450 -72 c-247 -40 -731 -118
-1075 -173 -344 -55 -635 -103 -647 -106 l-23 -4 0 210 c0 209 0 210 23 214
80 17 1144 131 1475 158 83 6 152 15 152 19 0 3 -30 9 -67 13 -132 13 -1221
190 -1525 248 l-58 11 0 163 0 162 28 6 c166 35 1197 189 1412 211 85 9 168
20 184 23 18 5 -92 19 -295 40 -352 36 -1270 139 -1306 147 -23 5 -23 6 -23
200 0 107 3 195 8 195 4 0 499 -81 1100 -181z m387 -1988 c452 -78 683 -257
728 -563 29 -199 -49 -386 -211 -509 -190 -144 -460 -216 -842 -226 -458 -12
-802 81 -1011 275 -185 170 -238 424 -134 638 92 189 280 307 592 374 160 34
235 39 503 35 201 -3 280 -8 375 -24z m705 -1821 l0 -470 -1100 0 -1100 0 0
200 0 200 920 0 920 0 0 270 0 270 180 0 180 0 0 -470z m0 -1180 l0 -470
-1100 0 -1100 0 0 200 0 200 905 1 c498 1 911 2 918 3 9 1 13 63 15 269 l2
267 180 0 180 0 0 -470z m-875 -740 c318 -30 551 -106 701 -228 197 -162 259
-449 146 -675 -134 -268 -516 -417 -1068 -417 -268 0 -475 34 -669 109 -122
47 -202 98 -293 187 -65 64 -89 97 -116 155 -88 190 -64 407 61 564 125 157
392 270 718 304 117 12 393 13 520 1z m-955 -1780 l0 -250 285 0 285 0 0 235
0 235 175 0 175 0 0 -235 0 -235 455 0 455 0 0 -205 0 -205 -1100 0 -1100 0 0
455 0 455 185 0 185 0 0 -250z"/>
<path d="M1600 10479 c-408 -20 -608 -118 -555 -274 31 -89 125 -137 350 -181
105 -21 531 -30 677 -15 216 22 355 65 426 134 87 84 49 200 -84 258 -140 62
-475 94 -814 78z"/>
<path d="M1570 6393 c-97 -6 -268 -33 -338 -54 -77 -24 -153 -71 -176 -110
-22 -36 -20 -107 2 -142 49 -74 170 -123 387 -159 128 -20 593 -17 728 5 235
40 340 96 368 199 9 35 7 46 -13 86 -20 41 -33 52 -98 85 -149 75 -497 112
-860 90z"/>
<path d="M1605 2634 c-284 -17 -461 -66 -533 -149 -26 -29 -32 -44 -32 -83 0
-29 8 -59 20 -79 38 -63 167 -118 350 -150 136 -25 634 -25 770 0 205 36 307
85 348 169 29 58 24 94 -21 144 -55 64 -161 102 -357 129 -97 14 -437 25 -545
19z"/>
<path d="M9650 12234 c-1632 -113 -3065 -829 -4120 -2059 -1163 -1356 -1638
-3201 -1280 -4975 153 -757 462 -1485 906 -2137 l104 -152 -74 -283 c-40 -156
-115 -443 -166 -638 -50 -195 -134 -519 -186 -719 -53 -200 -94 -365 -92 -366
4 -4 52 7 1788 426 l336 81 114 -70 c777 -471 1656 -749 2600 -823 357 -27
984 -4 1268 47 l32 6 0 459 0 459 -22 -5 c-242 -54 -782 -87 -1103 -66 -860
56 -1553 267 -2270 691 -93 55 -180 103 -191 106 -22 6 -42 0 -274 -74 -976
-313 -1227 -394 -1409 -453 -117 -39 -216 -68 -218 -65 -3 3 29 108 72 233
289 853 535 1587 535 1594 0 4 -41 69 -91 145 -262 396 -467 811 -601 1218
-251 766 -312 1605 -173 2391 159 896 559 1730 1158 2410 563 640 1283 1127
2082 1407 380 134 759 216 1190 260 80 8 257 13 460 12 339 0 485 -10 743 -52
l112 -18 0 476 0 477 -132 17 c-282 35 -334 38 -683 41 -198 1 -385 1 -415 -1z"/>
<path d="M8095 9010 c-110 -5 -152 -11 -197 -29 -96 -37 -174 -97 -279 -215
-213 -237 -334 -463 -395 -736 -98 -442 -26 -866 231 -1369 94 -183 204 -356
401 -632 318 -443 516 -679 830 -991 268 -264 439 -409 689 -584 396 -277 670
-409 1328 -639 l177 -62 0 588 0 587 -35 -11 c-65 -19 -198 29 -530 193 -642
317 -1180 823 -1589 1496 -107 176 -103 209 39 368 285 321 372 465 363 605
-4 59 -28 122 -217 576 -250 601 -326 760 -383 810 -66 56 -108 60 -433 45z"/>
</g>
</svg>
