<svg xmlns="http://www.w3.org/2000/svg" viewBox="0 0 24 24" fill="#000000"><path d="M12 2a10 10 0 0 0-8.7 15l-1.3 4.8 4.9-1.3A10 10 0 1 0 12 2zm0 2a8 8 0 0 1 6.9 12.1l.3.3-.7 2.6-2.6.7-.3-.3A8 8 0 1 1 12 4zm-2.5 3.5c-.2 0-.5.1-.7.4-.3.4-1 1.2-1 2.4s1 2.8 1.2 3c.2.2 2 3.1 4.9 4.2 2.4.9 2.9.8 3.4.7.5-.1 1.6-.7 1.8-1.3.2-.6.2-1.2.1-1.3-.1-.1-.2-.1-.5-.2s-1.4-.7-1.6-.8c-.2-.1-.4-.1-.5.1-.2.2-.6.8-.7.9-.1.2-.2.2-.5.1-.2-.1-1-.4-1.9-1.2-.7-.6-1.2-1.4-1.3-1.6-.1-.2 0-.3.1-.4.1-.1.2-.3.3-.4.1-.1.1-.2.2-.3.1-.1 0-.2 0-.3 0-.1-.6-1.5-.8-2-.2-.5-.4-.4-.5-.4z"/></svg>
